<?xml version="1.0" encoding="utf-8"?>
<!-- Generator: Adobe Illustrator 15.0.0, SVG Export Plug-In . SVG Version: 6.00 Build 0)  -->
<!DOCTYPE svg PUBLIC "-//W3C//DTD SVG 1.1//EN" "http://www.w3.org/Graphics/SVG/1.1/DTD/svg11.dtd">
<svg version="1.1" id="Layer_1" xmlns="http://www.w3.org/2000/svg" xmlns:xlink="http://www.w3.org/1999/xlink" x="0px" y="0px"
	 width="30px" height="30px" viewBox="0 0 30 30" enable-background="new 0 0 30 30" xml:space="preserve">
<g>
	<path fill="#999999" d="M29.524,13.941l-0.305-1.828c-0.025-0.15-0.08-0.291-0.146-0.424V7.052
		c-0.002-0.429-0.294-0.907-0.682-1.112c-2.763-1.438-6.061-1.437-8.824,0.001c-0.386,0.205-0.678,0.682-0.68,1.112v4.637
		c-0.066,0.134-0.12,0.274-0.145,0.424l-0.305,1.828c-0.288,0.256-0.474,0.622-0.474,1.039v6.248c0,0.64,0.623,1.157,1.388,1.157
		c0.722,0,1.426-0.548,1.598-1.246l0.016-0.057c0.072-0.287,0.406-0.547,0.702-0.547h4.629c0.295,0,0.63,0.259,0.701,0.549
		l0.015,0.053c0.174,0.7,0.877,1.248,1.599,1.248c0.766,0,1.389-0.518,1.389-1.157v-6.248
		C29.998,14.565,29.811,14.197,29.524,13.941z M19.655,12.265c0.047-0.28,0.337-0.525,0.62-0.525h7.408
		c0.284,0,0.573,0.246,0.621,0.525l0.22,1.325h-9.09L19.655,12.265z M26.295,10.813h-4.629V9.425c0-0.255,0.207-0.464,0.463-0.464
		h3.702c0.256,0,0.464,0.208,0.464,0.464V10.813z M19.998,6.76c2.493-1.298,5.471-1.298,7.962-0.001
		c0.091,0.048,0.188,0.214,0.188,0.294v3.841c-0.15-0.05-0.304-0.081-0.463-0.081h-0.464V9.425c0-0.765-0.623-1.388-1.39-1.388
		h-3.702c-0.765,0-1.389,0.623-1.389,1.388v1.388h-0.463c-0.16,0-0.314,0.031-0.465,0.081v-3.84
		C19.812,6.972,19.91,6.806,19.998,6.76z M29.073,21.229c0,0.079-0.182,0.232-0.464,0.232c-0.296,0-0.63-0.262-0.702-0.55
		l-0.014-0.054c-0.175-0.7-0.878-1.249-1.599-1.249h-4.63c-0.723,0-1.425,0.549-1.6,1.247l-0.015,0.057
		c-0.072,0.287-0.405,0.549-0.701,0.549c-0.281,0-0.465-0.154-0.465-0.232v-6.25c0-0.256,0.209-0.462,0.465-0.462h9.259
		c0.257,0,0.463,0.207,0.463,0.462L29.073,21.229L29.073,21.229z"/>
	<path fill="#999999" d="M11.018,4.333C7.699,4.333,5,7.033,5,10.351c0,3.318,2.699,6.017,6.018,6.017
		c3.318,0,6.019-2.699,6.019-6.017C17.037,7.033,14.336,4.333,11.018,4.333z M11.018,15.443c-2.808,0-5.092-2.285-5.092-5.092
		c0-2.809,2.284-5.092,5.092-5.092c2.808,0,5.091,2.285,5.091,5.092C16.109,13.159,13.826,15.443,11.018,15.443z"/>
	<path fill="#999999" d="M13.796,9.888H11.48V7.573c0-0.255-0.207-0.463-0.462-0.463s-0.463,0.208-0.463,0.463v2.315H8.24
		c-0.256,0-0.463,0.208-0.463,0.463c0,0.256,0.208,0.464,0.463,0.464h2.315v2.314c0,0.257,0.208,0.464,0.463,0.464
		s0.462-0.207,0.462-0.464v-2.314h2.316c0.255,0,0.462-0.208,0.462-0.464C14.258,10.096,14.052,9.888,13.796,9.888z"/>
</g>
</svg>
