<?xml version="1.0" encoding="utf-8"?>
<!-- Generator: Adobe Illustrator 15.0.0, SVG Export Plug-In . SVG Version: 6.00 Build 0)  -->
<!DOCTYPE svg PUBLIC "-//W3C//DTD SVG 1.1//EN" "http://www.w3.org/Graphics/SVG/1.1/DTD/svg11.dtd">
<svg version="1.1" id="Layer_1" xmlns="http://www.w3.org/2000/svg" xmlns:xlink="http://www.w3.org/1999/xlink" x="0px" y="0px"
	 width="30px" height="30px" viewBox="0 0 30 30" enable-background="new 0 0 30 30" xml:space="preserve">
<path fill="#777777" d="M28.48,12.496l-0.668-1.093c-0.389-0.638-1.035-1.064-1.771-1.172L20.74,9.452V9.427h-0.129l-2.803-3.534
	c-0.398-0.501-0.992-0.788-1.631-0.788H4.566c-0.938,0-1.79,0.518-2.221,1.352L0.77,9.5c-0.183,0.354-0.28,0.751-0.28,1.149v2.655
	C0.173,13.733,0,14.259,0,14.791v0.908c0,0.287,0.123,0.564,0.336,0.757l1.567,1.42c0.188,0.172,0.432,0.266,0.687,0.266h0.885
	c0.008,0,0.015-0.004,0.023-0.005c0.472,1.293,1.702,2.224,3.156,2.224c1.454,0,2.685-0.931,3.156-2.224
	c0.007,0.001,0.015,0.005,0.022,0.005h10.122c0.008,0,0.016-0.004,0.023-0.005c0.471,1.293,1.701,2.224,3.154,2.224
	s2.686-0.931,3.156-2.224c0.008,0.001,0.016,0.005,0.021,0.005h0.416c0.188,0,0.371-0.053,0.531-0.149l1.543-0.938
	c0.742-0.45,1.201-1.27,1.201-2.137v-0.12C30,13.788,29.404,12.889,28.48,12.496z M23.131,19.214c-1.121,0-2.041-0.838-2.193-1.92
	c0.014-0.072,0.039-0.143,0.037-0.217c-0.002-0.029-0.002-0.058-0.002-0.086c0-1.192,0.969-2.16,2.158-2.16
	c1.191,0,2.16,0.968,2.16,2.16l-0.002,0.087c-0.004,0.073,0.021,0.144,0.035,0.215C25.174,18.375,24.252,19.214,23.131,19.214z
	 M23.131,13.621c-1.857,0-3.369,1.512-3.369,3.371c0,0.001,0,0.002,0,0.004h-9.739c0-0.002,0-0.003,0-0.004
	c0-1.859-1.512-3.371-3.37-3.371c-1.858,0-3.37,1.512-3.37,3.371c0,0.001,0,0.002,0,0.004H2.637l-1.491-1.351v-0.854
	c0-0.384,0.164-0.751,0.449-1.008l0.041-0.037v-3.097c0-0.025,0.008-0.05,0.009-0.075h18.841l5.387,0.79
	c0.4,0.059,0.75,0.29,0.961,0.635l0.889,1.458l0.104,0.026c0.604,0.151,1.027,0.692,1.027,1.315v0.12c0,0.47-0.25,0.913-0.652,1.157
	l-1.512,0.921H26.5c0-0.002,0.002-0.003,0.002-0.004C26.502,15.132,24.988,13.621,23.131,13.621z M6.653,19.214
	c-1.122,0-2.042-0.838-2.192-1.92c0.013-0.072,0.039-0.143,0.036-0.217c-0.001-0.029-0.002-0.058-0.002-0.086
	c0-1.192,0.969-2.16,2.159-2.16c1.191,0,2.16,0.968,2.16,2.16c0,0.027-0.001,0.056-0.003,0.087
	c-0.003,0.073,0.022,0.144,0.036,0.215C8.696,18.375,7.775,19.214,6.653,19.214z M4.566,6.252h1.208l-0.87,3.175H2.098l1.265-2.442
	C3.597,6.533,4.058,6.252,4.566,6.252z M12.277,9.427V6.252h3.901c0.287,0,0.553,0.129,0.732,0.354l2.236,2.822H12.277z
	 M11.13,9.427H6.094l0.87-3.175h4.166V9.427z"/>
</svg>
