<?xml version="1.0" encoding="utf-8"?>
<!-- Generator: Adobe Illustrator 15.0.0, SVG Export Plug-In . SVG Version: 6.00 Build 0)  -->
<!DOCTYPE svg PUBLIC "-//W3C//DTD SVG 1.1//EN" "http://www.w3.org/Graphics/SVG/1.1/DTD/svg11.dtd">
<svg version="1.1" id="Layer_1" xmlns="http://www.w3.org/2000/svg" xmlns:xlink="http://www.w3.org/1999/xlink" x="0px" y="0px"
	 width="30px" height="30px" viewBox="0 0 30 30" enable-background="new 0 0 30 30" xml:space="preserve">
<path fill="#777777" d="M28.493,10.997l-0.597-0.561c-0.54-0.756-1.409-0.89-1.704-0.935L20.731,8.7l-2.824-3.534
	c-0.397-0.502-0.995-0.791-1.64-0.791H10.89l-0.522,0.337H7.308c-0.883,0-1.745,0.252-2.492,0.729
	C4.103,5.897,3.528,6.54,3.152,7.298L2.286,9.061L2.13,9.065c-0.925,0.033-1.65,0.785-1.65,1.712v1.096
	c-0.317,0.432-0.491,0.96-0.491,1.495c0,0.868,0.37,1.704,1.015,2.293l1.194,1.079h1.406c0.483,1.28,1.71,2.135,3.08,2.135
	c1.37,0,2.596-0.854,3.08-2.135h10.443c0.48,1.269,1.698,2.115,3.059,2.115s2.579-0.847,3.062-2.115h0.845l1.798-1.095
	c0.745-0.455,1.209-1.279,1.209-2.152v-0.119C30.178,12.305,29.502,11.353,28.493,10.997z M11.27,5.529h4.998
	c0.282,0,0.558,0.133,0.736,0.357l2.328,2.914l-8.333-0.025l0.294-2.585L11.27,5.529z M23.265,17.703
	c-1.169,0-2.12-0.951-2.12-2.121c0-1.169,0.951-2.12,2.12-2.12c1.17,0,2.122,0.951,2.122,2.12
	C25.387,16.752,24.435,17.703,23.265,17.703z M6.683,17.721c-1.179,0-2.138-0.959-2.138-2.139s0.959-2.139,2.138-2.139
	s2.139,0.959,2.139,2.139S7.862,17.721,6.683,17.721z M23.265,12.255c-1.834,0-3.326,1.492-3.326,3.327c0,0.001,0,0.003,0,0.004
	h-9.927c0-0.001,0-0.003,0-0.004c0-1.834-1.494-3.327-3.329-3.327c-1.834,0-3.326,1.492-3.326,3.327c0,0.001,0,0.003,0,0.004H2.641
	l-0.862-0.785c-0.404-0.362-0.635-0.884-0.635-1.433c0-0.386,0.164-0.755,0.45-1.013l0.042-0.037v-1.541
	c0-0.3,0.236-0.545,0.537-0.558l8.014-0.292l10.785,0.031l0.002-0.055l5.054,0.741c0.499,0.072,0.787,0.226,0.965,0.517l0.912,0.87
	l0.088,0.021c0.607,0.152,1.032,0.696,1.032,1.322v0.119c0,0.474-0.251,0.919-0.655,1.165l-1.521,0.928h-0.254
	c0-0.001,0-0.003,0-0.004C26.593,13.748,25.1,12.255,23.265,12.255z M7.308,5.867h2.817l0.01,0.274l-0.184,1.62H9.899L9.785,8.785
	L3.597,9.013l0.594-1.206C4.468,7.24,4.898,6.758,5.436,6.415C5.995,6.056,6.642,5.867,7.308,5.867z"/>
</svg>
