<?xml version="1.0" encoding="utf-8"?>
<!-- Generator: Adobe Illustrator 15.0.0, SVG Export Plug-In . SVG Version: 6.00 Build 0)  -->
<!DOCTYPE svg PUBLIC "-//W3C//DTD SVG 1.1//EN" "http://www.w3.org/Graphics/SVG/1.1/DTD/svg11.dtd">
<svg version="1.1" id="Layer_1" xmlns="http://www.w3.org/2000/svg" xmlns:xlink="http://www.w3.org/1999/xlink" x="0px" y="0px"
	 width="30px" height="30px" viewBox="0 0 30 30" enable-background="new 0 0 30 30" xml:space="preserve">
<g>
	<g>
		<path fill="#777777" d="M29.115,19.649h-4.117c-0.303,0-0.55-0.245-0.55-0.55v-1.508H10.457V19.1c0,0.305-0.247,0.55-0.55,0.55
			H5.79c-0.304,0-0.55-0.245-0.55-0.55v-7.498c0-0.584,0.25-1.142,0.688-1.529l0.711-0.63L5.736,9.13
			C5.415,9.02,5.151,8.778,5.013,8.469C4.875,8.16,4.87,7.804,5,7.491l0.17-0.406c0.192-0.461,0.639-0.759,1.138-0.759h2.318
			l0.701-2.158c0.259-0.796,0.995-1.331,1.832-1.331h12.588c0.837,0,1.572,0.535,1.83,1.332l0.702,2.157h2.317
			c0.5,0,0.947,0.298,1.139,0.759l0.169,0.406l0,0c0.132,0.313,0.126,0.669-0.012,0.979c-0.14,0.309-0.402,0.55-0.723,0.661
			l-0.903,0.312l0.711,0.63c0.437,0.388,0.688,0.945,0.688,1.529V19.1C29.666,19.404,29.419,19.649,29.115,19.649z M25.549,18.549
			h3.016v-6.947c0-0.27-0.115-0.527-0.317-0.706l-1.416-1.254c-0.009-0.008-0.018-0.016-0.025-0.025v0.019H8.1V9.616
			C8.091,9.625,8.083,9.634,8.073,9.642l-1.415,1.254c-0.202,0.179-0.318,0.436-0.318,0.706v6.947h3.015v-1.507
			c0-0.305,0.247-0.551,0.551-0.551h15.092c0.306,0,0.551,0.246,0.551,0.551V18.549z M8.1,8.534h18.706v0.308
			c0.059-0.06,0.13-0.105,0.211-0.133L28.81,8.09c0.046-0.016,0.067-0.047,0.078-0.071c0.01-0.024,0.019-0.061,0.001-0.105
			L28.72,7.507c-0.021-0.049-0.069-0.081-0.123-0.081h-2.719c-0.238,0-0.45-0.154-0.523-0.38l-0.486-1.5H10.037l-0.487,1.5
			c-0.074,0.227-0.285,0.38-0.524,0.38H6.308c-0.054,0-0.102,0.032-0.122,0.081l-0.17,0.407C5.998,7.958,6.007,7.995,6.017,8.019
			C6.028,8.042,6.05,8.074,6.095,8.09l1.793,0.619C7.969,8.737,8.041,8.783,8.1,8.842V8.534z M10.397,4.445h14.11
			c-0.128-0.306-0.425-0.507-0.76-0.507H11.159C10.823,3.938,10.525,4.139,10.397,4.445z M26.831,13.975h-3.166
			c-0.702,0-1.274-0.572-1.274-1.275c0-0.596,0.423-1.121,1.006-1.247l3.165-0.684c0.379-0.082,0.769,0.01,1.07,0.253
			c0.302,0.244,0.475,0.605,0.475,0.992V12.7C28.106,13.403,27.535,13.975,26.831,13.975z M26.832,11.84
			c-0.012,0-0.024,0.001-0.039,0.004l-3.164,0.685c-0.08,0.017-0.139,0.088-0.139,0.17c0,0.096,0.078,0.174,0.175,0.174h3.166
			c0.096,0,0.174-0.078,0.174-0.174v-0.685c0-0.072-0.04-0.116-0.064-0.136C26.92,11.863,26.884,11.84,26.832,11.84z M11.239,13.975
			H8.074c-0.703,0-1.275-0.572-1.275-1.275v-0.685c0-0.387,0.173-0.749,0.475-0.992c0.301-0.243,0.691-0.335,1.07-0.253l3.166,0.684
			c0.583,0.126,1.006,0.649,1.006,1.247C12.515,13.403,11.943,13.975,11.239,13.975z M8.073,11.84c-0.052,0-0.088,0.023-0.108,0.039
			C7.94,11.899,7.9,11.942,7.9,12.015V12.7c0,0.096,0.078,0.174,0.174,0.174h3.165c0.097,0,0.175-0.078,0.175-0.174
			c0-0.082-0.058-0.153-0.138-0.17l-3.166-0.685C8.097,11.842,8.084,11.84,8.073,11.84z"/>
	</g>
	<g>
		
			<rect x="7.817" y="6.704" transform="matrix(0.8724 0.4888 -0.4888 0.8724 5.0034 -3.0622)" fill="#777777" width="1.101" height="2.697"/>
	</g>
	<g>
		
			<rect x="25.19" y="7.502" transform="matrix(0.4884 0.8726 -0.8726 0.4884 20.6027 -19.0376)" fill="#777777" width="2.697" height="1.1"/>
	</g>
	<g>
		<rect x="24.998" y="16.491" fill="#777777" width="4.228" height="1.101"/>
	</g>
	<g>
		<rect x="5.79" y="16.491" fill="#777777" width="4.116" height="1.101"/>
	</g>
</g>
</svg>
