<?xml version="1.0" encoding="utf-8"?>
<!-- Generator: Adobe Illustrator 15.0.0, SVG Export Plug-In . SVG Version: 6.00 Build 0)  -->
<!DOCTYPE svg PUBLIC "-//W3C//DTD SVG 1.1//EN" "http://www.w3.org/Graphics/SVG/1.1/DTD/svg11.dtd">
<svg version="1.1" id="Layer_1" xmlns="http://www.w3.org/2000/svg" xmlns:xlink="http://www.w3.org/1999/xlink" x="0px" y="0px"
	 width="30px" height="30px" viewBox="0 0 30 30" enable-background="new 0 0 30 30" xml:space="preserve">
<path fill="#999999" d="M29.002,14.373l-0.521-1.568c-0.057-0.167-0.146-0.324-0.258-0.467V8.044
	c-0.002-0.401-0.275-0.861-0.644-1.07C21.67,3.673,14.326,3.673,8.412,6.976c-0.364,0.207-0.637,0.666-0.638,1.07v4.291
	c-0.113,0.143-0.202,0.3-0.258,0.467l-0.522,1.568c-0.571,0.149-0.997,0.667-0.997,1.286v6c0,0.613,0.599,1.113,1.333,1.113h0.889
	c0.693,0,1.369-0.527,1.536-1.197l0.014-0.055c0.069-0.275,0.389-0.527,0.673-0.527h15.114c0.284,0,0.604,0.252,0.674,0.529
	l0.012,0.051c0.168,0.672,0.843,1.201,1.537,1.201h0.889c0.735,0,1.334-0.5,1.334-1.113v-6.002
	C30,15.04,29.574,14.521,29.002,14.373z M9.106,12.546h17.782c0.297,0,0.653,0.257,0.748,0.539l0.413,1.24H7.946l0.412-1.24
	C8.453,12.803,8.809,12.546,9.106,12.546z M16.664,11.657H11.33v-1.334c0-0.245,0.2-0.444,0.444-0.444h4.445
	c0.245,0,0.445,0.198,0.445,0.444V11.657L16.664,11.657z M24.665,11.657H19.33v-1.334c0-0.245,0.199-0.444,0.445-0.444h4.445
	c0.245,0,0.444,0.198,0.444,0.444V11.657z M8.848,7.751C14.492,4.6,21.502,4.6,27.143,7.75c0.095,0.053,0.19,0.217,0.19,0.296v3.685
	c-0.146-0.045-0.296-0.074-0.444-0.074h-1.334v-1.334c0-0.735-0.6-1.333-1.334-1.333h-4.445c-0.736,0-1.334,0.598-1.334,1.333v1.334
	h-0.89v-1.334c0-0.735-0.597-1.333-1.333-1.333h-4.445c-0.735,0-1.333,0.598-1.333,1.333v1.334H9.106
	c-0.148,0-0.299,0.028-0.443,0.074V8.047C8.663,7.967,8.757,7.802,8.848,7.751z M29.111,21.658c0,0.076-0.176,0.223-0.445,0.223
	h-0.889c-0.283,0-0.605-0.25-0.674-0.527l-0.014-0.051c-0.168-0.674-0.842-1.201-1.535-1.201H10.441
	c-0.694,0-1.368,0.527-1.536,1.201l-0.014,0.053c-0.068,0.275-0.389,0.525-0.674,0.525H7.329c-0.271,0-0.444-0.146-0.444-0.223
	v-6.002c0-0.244,0.2-0.445,0.444-0.445h21.337c0.246,0,0.445,0.199,0.445,0.445V21.658z"/>
</svg>
