<?xml version="1.0" encoding="utf-8"?>
<!-- Generator: Adobe Illustrator 15.0.0, SVG Export Plug-In . SVG Version: 6.00 Build 0)  -->
<!DOCTYPE svg PUBLIC "-//W3C//DTD SVG 1.1//EN" "http://www.w3.org/Graphics/SVG/1.1/DTD/svg11.dtd">
<svg version="1.1" id="Layer_1" xmlns="http://www.w3.org/2000/svg" xmlns:xlink="http://www.w3.org/1999/xlink" x="0px" y="0px"
	 width="30px" height="30px" viewBox="0 0 30 30" enable-background="new 0 0 30 30" xml:space="preserve">
<g>
	<path fill="#999999" d="M23.017,8.134c1.415,0,2.566-1.152,2.566-2.567C25.583,4.151,24.432,3,23.017,3
		c-1.416,0-2.566,1.15-2.566,2.567C20.45,6.983,21.601,8.134,23.017,8.134z M23.017,3.93c0.902,0,1.635,0.735,1.635,1.636
		c0,0.902-0.732,1.637-1.635,1.637c-0.903,0-1.636-0.734-1.636-1.637C21.381,4.665,22.113,3.93,23.017,3.93z"/>
	<path fill="#999999" d="M27.682,20.476h-1.239v0.932h1.239c0.214,0,0.388,0.173,0.388,0.388v2.457H17.519v-3.387h5.541
		c1.378,0,2.499-1.121,2.499-2.498v-7.782c-0.004-0.84-0.689-1.522-1.534-1.522c-0.001,0-0.001,0-0.003,0l-0.306,0
		c-1.031,0.002-2.003,0.406-2.73,1.137s-1.128,1.702-1.126,2.733l0.007,3.673l0,0l-0.076,0.074h-4.145
		c-1.021,0-1.851,0.831-1.851,1.85l0,6.649h1.536V24.25h-0.606l0.001-5.72c0-0.507,0.414-0.921,0.921-0.921h4.145
		c0.267,0,0.525-0.107,0.712-0.295c0.189-0.191,0.295-0.441,0.295-0.711L20.79,12.93c-0.002-0.782,0.302-1.52,0.855-2.075
		c0.553-0.554,1.288-0.861,2.073-0.862l0.305-0.001c0.001,0,0.001,0,0.002,0c0.331,0,0.603,0.267,0.603,0.593v7.779
		c0,0.866-0.703,1.572-1.568,1.572h-5.674c-0.439,0-0.796,0.355-0.796,0.795v4.438h0.906v0.013h10.649
		c0.472,0,0.854-0.383,0.854-0.854v-2.532C29,21.067,28.408,20.476,27.682,20.476z"/>
	<path fill="#999999" d="M11.954,7.635c0.176-0.154,0.441-0.388,0.441-0.836c0-0.215-0.174-0.389-0.388-0.389
		c-0.214,0-0.388,0.173-0.388,0.389c0,0.085-0.024,0.119-0.179,0.255C11.265,7.208,11,7.441,11,7.889
		c0,0.448,0.266,0.685,0.442,0.839c0.155,0.137,0.179,0.17,0.179,0.257c0,0.086-0.023,0.12-0.18,0.258
		C11.264,9.398,11,9.633,11,10.082c0,0.449,0.265,0.684,0.441,0.838c0.156,0.139,0.18,0.172,0.18,0.259
		c0,0.214,0.173,0.389,0.388,0.389s0.388-0.174,0.388-0.389c0-0.449-0.265-0.684-0.441-0.839c-0.157-0.138-0.181-0.172-0.181-0.258
		c0-0.087,0.024-0.119,0.179-0.258c0.176-0.155,0.441-0.391,0.441-0.839c0-0.448-0.265-0.683-0.441-0.839
		c-0.155-0.136-0.179-0.17-0.179-0.256C11.774,7.805,11.798,7.771,11.954,7.635z"/>
	<path fill="#999999" d="M13.988,8.221c0,0.449,0.266,0.683,0.441,0.838c0.155,0.138,0.18,0.172,0.18,0.259
		c0,0.213,0.173,0.388,0.388,0.388c0.213,0,0.388-0.174,0.388-0.388c0-0.449-0.266-0.684-0.44-0.839
		c-0.156-0.138-0.181-0.172-0.181-0.258s0.024-0.12,0.181-0.258c0.175-0.155,0.44-0.39,0.44-0.839c0-0.448-0.266-0.683-0.44-0.838
		c-0.156-0.138-0.181-0.171-0.181-0.257c0-0.084,0.024-0.119,0.179-0.255c0.176-0.155,0.442-0.389,0.442-0.837
		c0-0.215-0.175-0.388-0.388-0.388c-0.215,0-0.388,0.173-0.388,0.388c0,0.085-0.024,0.119-0.18,0.255
		c-0.174,0.156-0.441,0.39-0.441,0.837c0,0.448,0.266,0.684,0.441,0.838c0.155,0.138,0.18,0.171,0.18,0.257
		c0,0.087-0.024,0.121-0.18,0.259C14.253,7.539,13.988,7.772,13.988,8.221z"/>
	<path fill="#999999" d="M16.976,10.082c0,0.449,0.266,0.684,0.441,0.838c0.155,0.139,0.18,0.172,0.18,0.259
		c0,0.214,0.174,0.389,0.388,0.389s0.388-0.174,0.388-0.389c0-0.449-0.266-0.684-0.441-0.839c-0.156-0.137-0.18-0.171-0.18-0.257
		c0-0.087,0.023-0.12,0.18-0.258c0.176-0.155,0.441-0.39,0.441-0.839c0-0.448-0.266-0.683-0.441-0.839
		c-0.156-0.137-0.18-0.17-0.18-0.257c0-0.085,0.023-0.118,0.18-0.254c0.175-0.154,0.441-0.388,0.441-0.836
		c0-0.215-0.174-0.389-0.388-0.389s-0.388,0.173-0.388,0.389c0,0.085-0.024,0.119-0.179,0.255c-0.176,0.154-0.442,0.389-0.442,0.837
		c0,0.448,0.266,0.683,0.441,0.838c0.155,0.137,0.18,0.17,0.18,0.257c0,0.087-0.024,0.12-0.18,0.258
		C17.241,9.398,16.976,9.633,16.976,10.082z"/>
</g>
</svg>
