<?xml version="1.0" encoding="utf-8"?>
<!-- Generator: Adobe Illustrator 15.0.0, SVG Export Plug-In . SVG Version: 6.00 Build 0)  -->
<!DOCTYPE svg PUBLIC "-//W3C//DTD SVG 1.1//EN" "http://www.w3.org/Graphics/SVG/1.1/DTD/svg11.dtd">
<svg version="1.1" id="Layer_1" xmlns="http://www.w3.org/2000/svg" xmlns:xlink="http://www.w3.org/1999/xlink" x="0px" y="0px"
	 width="30px" height="30px" viewBox="0 0 30 30" enable-background="new 0 0 30 30" xml:space="preserve">
<g>
	<path fill="#999999" d="M17.154,4.107c0,1.631,1.327,2.959,2.959,2.959c1.631,0,2.96-1.328,2.96-2.959
		c0-1.632-1.329-2.96-2.96-2.96C18.481,1.147,17.154,2.475,17.154,4.107z M22.041,4.107c0,1.062-0.865,1.927-1.928,1.927
		c-1.063,0-1.928-0.865-1.928-1.927c0-1.063,0.864-1.928,1.928-1.928C21.176,2.179,22.041,3.043,22.041,4.107z"/>
	<path fill="#999999" d="M11.796,14.966c1.834-1,3.339-1.588,4.396-1.72v1.911c0.121-0.068,0.256-0.115,0.399-0.12
		c0.04-0.002,0.077,0.009,0.116,0.012c0.199,0.017,0.379,0.099,0.516,0.241v-2.584c0-0.278-0.223-0.508-0.5-0.517l-0.109-0.001
		c-1.216,0-2.946,0.6-5.145,1.784l-0.446-1.045c3.37-2.558,6.225-3.749,8.977-3.749c2.754,0,5.605,1.19,8.969,3.729l-0.438,1.062
		c-2.198-1.182-3.928-1.782-5.144-1.782l-0.109,0.001c-0.278,0.009-0.5,0.237-0.5,0.517v2.439c0.133-0.08,0.29-0.122,0.453-0.104
		c0.021,0.002,0.041,0.009,0.062,0.01c0.199,0.02,0.379,0.11,0.516,0.248v-2.05c1.057,0.13,2.562,0.719,4.397,1.721
		c0.432,0.237,1.018,0.027,1.206-0.429l0.51-1.237c0.178-0.428,0.044-0.921-0.325-1.2C26.04,9.403,22.991,8.146,20,8.146
		c-2.99,0-6.042,1.257-9.602,3.958c-0.365,0.277-0.498,0.77-0.321,1.194l0.512,1.24C10.778,14.994,11.363,15.203,11.796,14.966z"/>
	<path fill="#999999" d="M13.959,16.791c-0.044,0.168-0.016,0.354,0.1,0.493c0.032,0.038,0.074,0.062,0.111,0.098
		c0.39,0.383,0.944,0.566,1.53,0.472c0.033-0.005,0.062-0.021,0.096-0.027c0.26-0.055,0.49-0.162,0.695-0.305
		c0.055-0.039,0.121-0.066,0.17-0.112c0.033,0.032,0.072,0.056,0.106,0.086c0.063,0.054,0.128,0.106,0.196,0.149
		c0.148,0.096,0.309,0.167,0.473,0.222c0.1,0.034,0.201,0.062,0.303,0.082c0.27,0.056,0.545,0.061,0.812,0.022
		c0.05-0.007,0.099-0.013,0.148-0.022c0.215-0.044,0.424-0.115,0.613-0.215c0.168-0.091,0.32-0.2,0.454-0.325
		c0.028,0.025,0.064,0.043,0.093,0.067c0.113,0.093,0.229,0.188,0.362,0.258c0.204,0.11,0.429,0.173,0.661,0.215
		c0.146,0.027,0.292,0.054,0.441,0.054c0.15,0,0.3-0.018,0.448-0.044c0.01-0.001,0.019-0.009,0.031-0.01
		c0.253-0.051,0.499-0.138,0.722-0.273c0.123-0.075,0.24-0.162,0.348-0.266c0.014,0.015,0.033,0.021,0.049,0.033
		c0.022,0.02,0.054,0.031,0.077,0.049c0.141,0.106,0.301,0.19,0.472,0.253c0.118,0.043,0.235,0.089,0.364,0.109
		c0.525,0.084,1.027-0.056,1.409-0.362c0.08-0.066,0.163-0.129,0.231-0.207c0.073-0.089,0.106-0.195,0.117-0.305
		c0.014-0.155-0.03-0.313-0.142-0.427c-0.191-0.193-0.491-0.182-0.669,0.027c-0.178,0.211-0.484,0.305-0.809,0.253
		c-0.198-0.031-0.371-0.117-0.501-0.231c-0.075-0.064-0.138-0.136-0.175-0.218c-0.06-0.133-0.17-0.229-0.298-0.267
		c-0.036-0.014-0.073-0.02-0.111-0.021c-0.158-0.001-0.273,0.075-0.36,0.188c-0.02,0.024-0.049,0.04-0.062,0.071
		c-0.335,0.636-1.243,0.764-1.825,0.449c-0.205-0.109-0.361-0.261-0.463-0.451c-0.168-0.318-0.648-0.318-0.816,0
		c-0.102,0.19-0.257,0.342-0.461,0.451c-0.432,0.232-1.039,0.222-1.461-0.056c-0.149-0.099-0.277-0.228-0.364-0.392
		c-0.026-0.054-0.07-0.085-0.108-0.12c-0.086-0.084-0.188-0.14-0.316-0.14c-0.055,0.002-0.107,0.02-0.156,0.038
		c-0.107,0.048-0.2,0.131-0.252,0.248c-0.102,0.225-0.367,0.4-0.676,0.449c-0.327,0.054-0.633-0.042-0.812-0.251
		s-0.478-0.221-0.669-0.027C14.018,16.619,13.981,16.704,13.959,16.791z"/>
	<path fill="#999999" d="M28.48,21.991c0.864-0.795,1.25-2.153,1.251-4.405c0-0.051-0.02-0.095-0.022-0.145
		c-0.004-0.135-0.028-0.235-0.04-0.269c-0.002-0.006-0.004-0.007-0.006-0.011c-0.05-0.171-0.125-0.343-0.236-0.503
		c-0.103-0.148-0.229-0.291-0.389-0.436c-0.399-0.362-0.976-0.693-1.712-0.983c-0.266-0.103-0.565,0.026-0.668,0.291
		c-0.103,0.267,0.026,0.566,0.292,0.668c0.61,0.24,1.093,0.51,1.393,0.783c0.096,0.091,0.174,0.177,0.231,0.26
		c0.054,0.077,0.083,0.148,0.102,0.22c0,0.022-0.01,0.108-0.126,0.242c-0.188,0.209-0.725,0.606-2.2,0.889
		c-0.854,0.165-2.021,0.29-3.619,0.323c-0.284,0.008-0.511,0.242-0.505,0.528c0.007,0.28,0.236,0.503,0.516,0.503
		c0.004,0,0.008,0,0.011,0c1.413-0.029,2.61-0.132,3.598-0.308c0.971-0.175,1.733-0.417,2.286-0.727
		c-0.111,1.113-0.381,1.856-0.825,2.289c-2.426,1.491-12.983,1.66-15.328,0.265c-0.626-0.465-0.989-1.324-1.122-2.646
		c0.529,0.333,1.279,0.595,2.251,0.78c1.021,0.197,2.27,0.315,3.77,0.347c0.003,0,0.007,0,0.011,0c0.28,0,0.51-0.223,0.516-0.503
		c0.006-0.284-0.221-0.521-0.505-0.528c-1.712-0.036-2.927-0.179-3.794-0.36c-1.34-0.278-1.844-0.649-2.024-0.852
		c-0.119-0.133-0.127-0.225-0.127-0.244c0.021-0.087,0.013-0.169-0.008-0.249c0.01-0.016,0.014-0.027,0.026-0.042
		c0.02-0.024,0.039-0.047,0.068-0.078c0.334-0.362,0.992-0.714,1.85-1.016c0.092-0.029,0.173-0.064,0.27-0.094
		c0.238-0.075,0.373-0.309,0.347-0.548c-0.004-0.034,0-0.067-0.011-0.1c-0.086-0.271-0.376-0.425-0.647-0.336
		c-1.199,0.379-2.061,0.849-2.559,1.387c-0.043,0.046-0.082,0.092-0.12,0.138c-0.268,0.334-0.403,0.689-0.403,1.06
		c0,2.406,0.507,3.908,1.641,4.746c1.268,0.76,4.35,1.12,7.552,1.12c3.68,0,7.518-0.479,8.945-1.396
		C28.436,22.029,28.46,22.012,28.48,21.991z"/>
	<path fill="#999999" d="M12.75,4.899c-0.195,0.171-0.49,0.432-0.49,0.93c0,0.497,0.294,0.757,0.489,0.929
		c0.173,0.152,0.198,0.19,0.198,0.286c0,0.237,0.193,0.43,0.43,0.43s0.43-0.193,0.43-0.43c0-0.498-0.294-0.759-0.49-0.931
		C13.146,5.961,13.12,5.925,13.12,5.83c0-0.097,0.026-0.134,0.199-0.287c0.196-0.172,0.49-0.433,0.49-0.93
		c0-0.498-0.294-0.758-0.489-0.93c-0.174-0.153-0.2-0.19-0.2-0.286c0-0.093,0.026-0.13,0.198-0.282
		c0.196-0.172,0.491-0.431,0.491-0.929c0-0.237-0.193-0.43-0.43-0.43c-0.237,0-0.43,0.192-0.43,0.43
		c0,0.095-0.026,0.131-0.198,0.284c-0.195,0.172-0.491,0.432-0.491,0.927c0,0.498,0.294,0.758,0.489,0.93
		c0.172,0.152,0.198,0.189,0.198,0.285C12.947,4.708,12.922,4.746,12.75,4.899z"/>
	<path fill="#999999" d="M27.885,3.115c0.197-0.172,0.491-0.431,0.491-0.929c0-0.237-0.193-0.43-0.429-0.43s-0.43,0.192-0.43,0.43
		c0,0.095-0.024,0.131-0.199,0.284c-0.194,0.171-0.491,0.431-0.491,0.927c0,0.498,0.295,0.758,0.491,0.93
		c0.171,0.152,0.199,0.189,0.199,0.285c0,0.095-0.024,0.134-0.199,0.286c-0.196,0.172-0.491,0.433-0.491,0.93
		c0,0.497,0.295,0.757,0.491,0.929c0.171,0.153,0.199,0.191,0.199,0.287c0,0.237,0.194,0.43,0.43,0.43s0.429-0.193,0.429-0.43
		c0-0.498-0.294-0.759-0.49-0.931c-0.172-0.152-0.198-0.189-0.198-0.284c0-0.096,0.026-0.134,0.199-0.287
		c0.195-0.172,0.489-0.433,0.489-0.93s-0.294-0.758-0.489-0.929c-0.173-0.153-0.199-0.189-0.199-0.285
		C27.688,3.304,27.714,3.267,27.885,3.115z"/>
</g>
</svg>
