<?xml version="1.0" encoding="utf-8"?>
<!-- Generator: Adobe Illustrator 15.0.0, SVG Export Plug-In . SVG Version: 6.00 Build 0)  -->
<!DOCTYPE svg PUBLIC "-//W3C//DTD SVG 1.1//EN" "http://www.w3.org/Graphics/SVG/1.1/DTD/svg11.dtd">
<svg version="1.1" id="Layer_1" xmlns="http://www.w3.org/2000/svg" xmlns:xlink="http://www.w3.org/1999/xlink" x="0px" y="0px"
	 width="30px" height="30px" viewBox="0 0 30 30" enable-background="new 0 0 30 30" xml:space="preserve">
<g>
	<path fill="#999999" d="M20.266,22.111c0.047,0,0.092-0.014,0.133-0.025c0.139,0.018,0.277,0.025,0.418,0.025h5.742
		c0.352,0,0.661-0.207,0.793-0.531l2.095-5.164c0.108-0.264,0.077-0.562-0.082-0.797c-0.16-0.238-0.425-0.38-0.71-0.38h-3.568
		l0.282-1.022l0.673-2.391c0.222-0.792-0.149-1.637-0.884-2.009l-9.274-4.702c-0.516-0.261-1.192-0.06-1.482,0.438l-0.829,1.426
		c-0.306,0.524-0.145,1.191,0.368,1.516l6.446,4.103l-2.43,4.9c-0.495,0.996-0.44,2.156,0.146,3.104
		c0.139,0.223,0.304,0.424,0.486,0.604H9.125c-0.121,0-0.217-0.098-0.217-0.219v-1.781c0-0.113,0.087-0.207,0.198-0.217l7.603-0.668
		c0.25-0.021,0.436-0.242,0.413-0.492c-0.022-0.252-0.243-0.43-0.493-0.412l-7.604,0.668C8.441,18.135,8,18.617,8,19.205v1.781
		c0,0.621,0.505,1.125,1.125,1.125H20.266z M18.768,17.9l2.793-5.63l-7.135-4.542c-0.099-0.062-0.13-0.19-0.07-0.292l0.831-1.428
		C15.225,5.94,15.295,5.9,15.374,5.9c0.033,0,0.067,0.007,0.098,0.023l9.275,4.703c0.35,0.176,0.525,0.577,0.42,0.953l-1.282,4.567
		h0.011l-0.179,0.641c-0.065,0.242,0.076,0.494,0.318,0.559c0.041,0.012,0.081,0.018,0.12,0.018c0.2,0,0.384-0.133,0.438-0.334
		l0.243-0.883h3.742l-2.055,5.059h-5.705c-0.797,0-1.523-0.406-1.944-1.082S18.414,18.615,18.768,17.9z"/>
	<path fill="#999999" d="M27.289,7.25l-0.6-1.5l-1.377,1.548l-0.665-0.31c-0.229-0.104-0.498-0.005-0.603,0.221
		c-0.107,0.227-0.007,0.497,0.22,0.604l1.278,0.594l0.85-0.953l0.303,0.759l1.806-0.153L27.59,9.979l0.724,0.725l-1.255,0.485v1.301
		c0,0.251,0.203,0.454,0.453,0.454c0.251,0,0.455-0.202,0.455-0.454v-0.679l1.975-0.765L28.685,9.79L30,7.021L27.289,7.25z"/>
</g>
</svg>
