<?xml version="1.0" encoding="iso-8859-1"?>
<!-- Generator: Adobe Illustrator 24.3.0, SVG Export Plug-In . SVG Version: 6.00 Build 0)  -->
<svg version="1.1" id="Layer_1" xmlns="http://www.w3.org/2000/svg" xmlns:xlink="http://www.w3.org/1999/xlink" x="0px" y="0px"
	 viewBox="0 0 511.969 511.969" style="enable-background:new 0 0 511.969 511.969;" xml:space="preserve">
<polygon style="fill:#F5F7FA;" points="392.977,96.996 306.983,89.996 306.983,15.001 34,15.001 34,501.471 396.977,501.471 "/>
<path style="fill:#F26867;" d="M305.327,19.001c0,2,5.312,71.996,5.312,71.996l73.995,4L305.327,19.001z"/>
<path style="fill:#241C73;" d="M403.93,96.105c-0.016-0.078-0.016-0.172-0.016-0.266c-0.031-0.312-0.094-0.625-0.141-0.938
	c-0.016,0-0.016-0.016-0.016-0.031c-0.062-0.281-0.125-0.578-0.219-0.875c-0.031-0.094-0.062-0.172-0.078-0.25
	c-0.078-0.234-0.156-0.453-0.234-0.672c-0.031-0.078-0.062-0.171-0.094-0.234c-0.125-0.297-0.266-0.594-0.406-0.859
	c0-0.016-0.016-0.016-0.031-0.047c-0.125-0.25-0.281-0.5-0.453-0.766c-0.047-0.078-0.109-0.141-0.156-0.219
	c-0.141-0.203-0.266-0.391-0.422-0.578c-0.062-0.062-0.109-0.141-0.172-0.219c-0.203-0.234-0.422-0.469-0.641-0.688L315.514,4.127
	c-0.219-0.219-0.453-0.438-0.688-0.641c-0.078-0.062-0.156-0.109-0.219-0.172c-0.188-0.156-0.375-0.281-0.578-0.422
	c-0.078-0.047-0.141-0.109-0.219-0.156c-0.266-0.172-0.516-0.328-0.781-0.469c-0.016,0-0.016-0.016-0.016-0.016
	c-0.281-0.156-0.578-0.281-0.875-0.406c-0.062-0.031-0.156-0.062-0.219-0.094c-0.234-0.078-0.453-0.156-0.688-0.234
	c-0.078-0.016-0.156-0.047-0.25-0.078c-0.297-0.094-0.594-0.156-0.875-0.219c-0.031,0-0.031,0-0.031-0.016
	c-0.312-0.047-0.625-0.109-0.938-0.141c-0.094,0-0.188,0-0.266-0.016C308.637,1.031,308.387,1,308.137,1c-0.047,0-0.094,0-0.156,0
	H30.664C24.773,1,20,5.781,20,11.656v490.658c0,5.875,4.773,10.655,10.664,10.655h362.657c5.875,0,10.656-4.78,10.656-10.655V96.996
	c0-0.062,0-0.109,0-0.156C403.962,96.59,403.946,96.34,403.93,96.105z M318.639,37.421l48.918,48.919h-48.918V37.421z
	 M41.335,491.628V22.344h255.992v74.652c0,5.89,4.766,10.656,10.656,10.656h74.652v383.976L41.335,491.628L41.335,491.628z"/>
<path style="fill:#EEE06F;" d="M329.325,278.329H94.856c-5.891,0-10.671,4.766-10.671,10.655s4.781,10.655,10.671,10.655h234.469
	c5.875,0,10.656-4.766,10.656-10.655S335.2,278.329,329.325,278.329z"/>
<path style="fill:#EEE06F;" d="M329.325,342.325H94.856c-5.891,0-10.671,4.766-10.671,10.655s4.781,10.655,10.671,10.655h234.469
	c5.875,0,10.656-4.766,10.656-10.655S335.2,342.325,329.325,342.325z"/>
<path style="fill:#EEE06F;" d="M275.652,406.321H147.856c-5.891,0-10.671,4.766-10.671,10.655s4.781,10.655,10.671,10.655h127.797
	c5.89,0,10.671-4.766,10.671-10.655S281.543,406.321,275.652,406.321z"/>
<path style="fill:#86a570;" d="M94.856,107.652h53.231v85.338h-31.998c-5.89,0-10.664,4.781-10.664,10.656
	c0,5.906,4.773,10.687,10.664,10.687h85.331c5.891,0,10.664-4.781,10.664-10.687c0-5.875-4.773-10.656-10.664-10.656h-31.998
	v-85.338h53.427c5.89,0,10.663-4.766,10.663-10.656s-4.773-10.656-10.663-10.656h-53.427V74.997c0-5.891-4.773-10.656-10.663-10.656
	c-5.898,0-10.671,4.765-10.671,10.656V86.34H94.856c-5.891,0-10.671,4.766-10.671,10.656S88.965,107.652,94.856,107.652z"/>
<path style="fill:#86a570;" d="M115.299,139.65c0-5.875-4.781-10.656-10.671-10.656H83.301c-5.89,0-10.671,4.781-10.671,10.656
	c0,5.906,4.781,10.687,10.671,10.687h21.327C110.519,150.336,115.299,145.555,115.299,139.65z"/>
<path style="fill:#86a570;" d="M211.989,128.994c-5.89,0-10.664,4.781-10.664,10.656c0,5.906,4.773,10.687,10.664,10.687h21.334
	c5.891,0,10.664-4.781,10.664-10.687c0-5.875-4.773-10.656-10.664-10.656C233.323,128.994,211.989,128.994,211.989,128.994z"/>
<g>
	<path style="fill:#86a570;" d="M457.556,171v72h-32v-80c0-8.8,7.2-16,16-16s16,7.2,16,16V171z"/>
	<polygon style="fill:#FFCE54;" points="457.556,419 457.556,435 441.556,459 425.556,435 425.556,419 	"/>
	<rect x="425.556" y="243" style="fill:#86a570;" width="32" height="176"/>
	<g>
		<path style="fill:#241C73;" d="M457.556,171c-4.424,0-8-3.576-8-8c0-4.416-3.584-8-8-8s-8,3.584-8,8c0,4.424-3.576,8-8,8
			s-8-3.576-8-8c0-13.232,10.768-24,24-24s24,10.768,24,24C465.556,167.424,461.98,171,457.556,171z"/>
		<path style="fill:#241C73;" d="M425.556,443c-4.424,0-8-3.576-8-8V163c0-4.424,3.576-8,8-8s8,3.576,8,8v272
			C433.556,439.424,429.98,443,425.556,443z"/>
		<path style="fill:#241C73;" d="M457.556,443c-4.424,0-8-3.576-8-8V163c0-4.424,3.576-8,8-8s8,3.576,8,8v272
			C465.556,439.424,461.98,443,457.556,443z"/>
		<path style="fill:#241C73;" d="M441.564,467c-2.584,0-5.128-1.248-6.664-3.56l-16-24c-2.456-3.68-1.464-8.64,2.216-11.096
			c3.688-2.456,8.64-1.464,11.096,2.216l16,24c2.456,3.68,1.464,8.64-2.216,11.096C444.628,466.56,443.084,467,441.564,467z"/>
		<path style="fill:#241C73;" d="M441.548,467c-1.52,0-3.064-0.44-4.432-1.344c-3.68-2.456-4.672-7.416-2.216-11.096l16-24
			c2.448-3.68,7.408-4.672,11.096-2.216c3.68,2.456,4.672,7.416,2.216,11.096l-16,24C446.676,465.752,444.132,467,441.548,467z"/>
		<path style="fill:#241C73;" d="M441.556,475c-4.424,0-8-3.576-8-8v-8c0-4.424,3.576-8,8-8s8,3.576,8,8v8
			C449.556,471.424,445.98,475,441.556,475z"/>
		<path style="fill:#241C73;" d="M457.556,427h-32c-4.424,0-8-3.576-8-8s3.576-8,8-8h32c4.424,0,8,3.576,8,8S461.98,427,457.556,427
			z"/>
		<path style="fill:#241C73;" d="M481.556,195c-4.424,0-8-3.576-8-8c0-4.416-3.584-8-8-8c-4.424,0-8-3.576-8-8s3.576-8,8-8
			c13.232,0,24,10.768,24,24C489.556,191.424,485.98,195,481.556,195z"/>
		<path style="fill:#241C73;" d="M481.556,291c-4.424,0-8-3.576-8-8v-96c0-4.424,3.576-8,8-8s8,3.576,8,8v96
			C489.556,287.424,485.98,291,481.556,291z"/>
		<path style="fill:#241C73;" d="M465.556,179h-8c-4.424,0-8-3.576-8-8s3.576-8,8-8h8c4.424,0,8,3.576,8,8S469.98,179,465.556,179z"
			/>
		<path style="fill:#241C73;" d="M457.556,251h-32c-4.424,0-8-3.576-8-8s3.576-8,8-8h32c4.424,0,8,3.576,8,8S461.98,251,457.556,251
			z"/>
	</g>
</g>
</svg>
