<?xml version="1.0" encoding="iso-8859-1"?>
<!-- Generator: Adobe Illustrator 24.3.0, SVG Export Plug-In . SVG Version: 6.00 Build 0)  -->
<svg version="1.1" id="Layer_1" xmlns="http://www.w3.org/2000/svg" xmlns:xlink="http://www.w3.org/1999/xlink" x="0px" y="0px"
	 viewBox="0 0 512 512" style="enable-background:new 0 0 512 512;" xml:space="preserve">
<path style="fill:#FFFFFF;" d="M424,120h32v32h-32V120z"/>
<path style="fill:#FFFFFF;" d="M56,120h32v32H56V120z"/>
<path style="fill:#EEE06F;" d="M504,88v96c0,8.801-7.199,16-16,16h-64v-48h32v-32H56v32h32v48H24c-8.801,0-16-7.199-16-16V88
	c0-8.801,7.199-16,16-16h464C496.801,72,504,79.199,504,88z"/>
<path style="fill:#F26867;" d="M195.68,344c-5.52-9.602-15.832-16-27.68-16s-22.16,6.398-27.68,16c-2.719,4.719-4.32,10.16-4.32,16
	c0,17.68,14.32,32,32,32s32-14.32,32-32C200,354.16,198.398,348.719,195.68,344z"/>
<path style="fill:#F26867;" d="M200,328c0,5.84-1.602,11.281-4.32,16c-5.52-9.602-15.832-16-27.68-16s-22.16,6.398-27.68,16
	c-2.719-4.719-4.32-10.16-4.32-16c0-17.68,14.32-32,32-32S200,310.32,200,328z"/>
<path style="fill:#86a570;" d="M184,120h240v288c0,17.68-14.32,32-32,32H120c-17.68,0-32-14.32-32-32V120H184z M195.68,344
	c2.719-4.719,4.32-10.16,4.32-16c0-17.68-14.32-32-32-32s-32,14.32-32,32c0,5.84,1.602,11.281,4.32,16
	c-2.719,4.719-4.32,10.16-4.32,16c0,17.68,14.32,32,32,32s32-14.32,32-32C200,354.16,198.398,348.719,195.68,344z"/>
<path style="fill:#241C73;" d="M488,208c-4.426,0-8-3.574-8-8s3.574-8,8-8c4.414,0,8-3.586,8-8V88c0-4.414-3.586-8-8-8H24
	c-4.414,0-8,3.586-8,8v96c0,4.414,3.586,8,8,8c4.426,0,8,3.574,8,8s-3.574,8-8,8c-13.23,0-24-10.77-24-24V88c0-13.23,10.77-24,24-24
	h464c13.23,0,24,10.77,24,24v96C512,197.23,501.23,208,488,208z"/>
<path style="fill:#241C73;" d="M456,160c-4.426,0-8-3.574-8-8v-24H64v24c0,4.426-3.574,8-8,8s-8-3.574-8-8v-32c0-4.426,3.574-8,8-8
	h400c4.426,0,8,3.574,8,8v32C464,156.426,460.426,160,456,160z"/>
<path style="fill:#241C73;" d="M88,160H56c-4.426,0-8-3.574-8-8s3.574-8,8-8h32c4.426,0,8,3.574,8,8S92.426,160,88,160z"/>
<path style="fill:#241C73;" d="M456,160h-32c-4.426,0-8-3.574-8-8s3.574-8,8-8h32c4.426,0,8,3.574,8,8S460.426,160,456,160z"/>
<path style="fill:#241C73;" d="M88,208H24c-4.426,0-8-3.574-8-8s3.574-8,8-8h64c4.426,0,8,3.574,8,8S92.426,208,88,208z"/>
<path style="fill:#241C73;" d="M488,208h-64c-4.426,0-8-3.574-8-8s3.574-8,8-8h64c4.426,0,8,3.574,8,8S492.426,208,488,208z"/>
<path style="fill:#241C73;" d="M88,416c-4.426,0-8-3.574-8-8V120c0-4.426,3.574-8,8-8s8,3.574,8,8v288C96,412.426,92.426,416,88,416
	z"/>
<path style="fill:#241C73;" d="M424,416c-4.426,0-8-3.574-8-8V120c0-4.426,3.574-8,8-8s8,3.574,8,8v288
	C432,412.426,428.426,416,424,416z"/>
<path style="fill:#241C73;" d="M120,448c-22.055,0-40-17.945-40-40c0-4.426,3.574-8,8-8s8,3.574,8,8c0,13.23,10.77,24,24,24
	c4.426,0,8,3.574,8,8S124.426,448,120,448z"/>
<path style="fill:#241C73;" d="M392,448c-4.426,0-8-3.574-8-8s3.574-8,8-8c13.23,0,24-10.77,24-24c0-4.426,3.574-8,8-8s8,3.574,8,8
	C432,430.055,414.055,448,392,448z"/>
<path style="fill:#241C73;" d="M392,448H120c-4.426,0-8-3.574-8-8s3.574-8,8-8h272c4.426,0,8,3.574,8,8S396.426,448,392,448z"/>
<path style="fill:#241C73;" d="M168,400c-22.055,0-40-17.945-40-40s17.945-40,40-40s40,17.945,40,40S190.055,400,168,400z M168,336
	c-13.23,0-24,10.77-24,24s10.77,24,24,24s24-10.77,24-24S181.23,336,168,336z"/>
<path style="fill:#241C73;" d="M168,368c-22.055,0-40-17.945-40-40s17.945-40,40-40s40,17.945,40,40S190.055,368,168,368z M168,304
	c-13.23,0-24,10.77-24,24s10.77,24,24,24s24-10.77,24-24S181.23,304,168,304z"/>
<path style="fill:#241C73;" d="M152,248c-4.426,0-8-3.574-8-8V120c0-4.426,3.574-8,8-8s8,3.574,8,8v120
	C160,244.426,156.426,248,152,248z"/>
<path style="fill:#241C73;" d="M184,248c-4.426,0-8-3.574-8-8V120c0-4.426,3.574-8,8-8s8,3.574,8,8v120
	C192,244.426,188.426,248,184,248z"/>
<path style="fill:#241C73;" d="M288,400h-16c-4.426,0-8-3.574-8-8s3.574-8,8-8h16c4.426,0,8,3.574,8,8S292.426,400,288,400z"/>
<path style="fill:#241C73;" d="M288,368h-16c-4.426,0-8-3.574-8-8s3.574-8,8-8h16c4.426,0,8,3.574,8,8S292.426,368,288,368z"/>
<path style="fill:#241C73;" d="M288,336h-16c-4.426,0-8-3.574-8-8s3.574-8,8-8h16c4.426,0,8,3.574,8,8S292.426,336,288,336z"/>
<path style="fill:#241C73;" d="M288,304h-16c-4.426,0-8-3.574-8-8s3.574-8,8-8h16c4.426,0,8,3.574,8,8S292.426,304,288,304z"/>
<path style="fill:#241C73;" d="M288,256h-16c-4.426,0-8-3.574-8-8s3.574-8,8-8h16c4.426,0,8,3.574,8,8S292.426,256,288,256z"/>
<path style="fill:#241C73;" d="M288,224h-16c-4.426,0-8-3.574-8-8s3.574-8,8-8h16c4.426,0,8,3.574,8,8S292.426,224,288,224z"/>
<path style="fill:#241C73;" d="M288,192h-16c-4.426,0-8-3.574-8-8s3.574-8,8-8h16c4.426,0,8,3.574,8,8S292.426,192,288,192z"/>
<path style="fill:#241C73;" d="M288,160h-16c-4.426,0-8-3.574-8-8s3.574-8,8-8h16c4.426,0,8,3.574,8,8S292.426,160,288,160z"/>
<path style="fill:#241C73;" d="M352,400c-4.426,0-8-3.574-8-8V288c0-4.426,3.574-8,8-8s8,3.574,8,8v104
	C360,396.426,356.426,400,352,400z"/>
<path style="fill:#241C73;" d="M384,400c-4.426,0-8-3.574-8-8v-56c0-4.426,3.574-8,8-8s8,3.574,8,8v56
	C392,396.426,388.426,400,384,400z"/>
</svg>
