<?xml version="1.0" encoding="iso-8859-1"?>
<!-- Generator: Adobe Illustrator 24.3.0, SVG Export Plug-In . SVG Version: 6.00 Build 0)  -->
<svg version="1.1" id="Layer_1" xmlns="http://www.w3.org/2000/svg" xmlns:xlink="http://www.w3.org/1999/xlink" x="0px" y="0px"
	 viewBox="0 0 512 512" style="enable-background:new 0 0 512 512;" xml:space="preserve">
<g>
	<path style="fill:#F26867;" d="M400.177,9.5c-2.828-1-39.672,14.5-39.672,14.5l20.5,89h38.5l25-89
		C444.505,24,403.005,10.5,400.177,9.5z"/>
	<rect x="386.85" y="122" style="fill:#86a570;" width="26.656" height="222.25"/>
	<rect x="122.67" y="118" style="fill:#86a570;" width="106.01" height="64"/>
	<rect x="347.16" y="350.67" style="fill:#EEE06F;" width="106.02" height="147.83"/>
	<polygon style="fill:#86a570;" points="279.505,217.5 235.005,182 127.505,182 86.505,199.5 62.005,275 79.505,498.5 272.505,492 
		277.505,419 295.505,290 	"/>
	<rect x="125.34" y="287.34" style="fill:#FFCE54;" width="103.34" height="126.67"/>
	<path style="fill:#241C73;" d="M426.833,341.344V128l26.672-106.656c0,0-21.344-21.344-53.344-21.344s-53.328,21.344-53.328,21.344
		L373.505,128v213.344h-37.344v160c0,5.875,4.781,10.656,10.672,10.656h106.672c5.891,0,10.656-4.781,10.656-10.656v-160H426.833z
		 M370.958,29.875c6.828-4.078,17.078-8.531,29.203-8.531s22.375,4.438,29.219,8.531l-19.203,76.781h-20.016L370.958,29.875z
		 M394.833,128h10.672v213.344h-10.672V128z M442.833,490.656h-53.328V384c0-5.891-4.781-10.656-10.672-10.656
		S368.161,378.11,368.161,384v106.656h-10.656v-128h85.328V490.656z"/>
	<path style="fill:#241C73;" d="M240.161,173.719v-67.062h-128v67.156c-72.672,28.188-64,103.531-64,103.531L69.497,512H176.31
		h105.758l22.25-234.656C304.317,277.344,313.099,201.812,240.161,173.719z M218.833,128L218.833,128
		c-5.891,0-10.672,4.781-10.672,10.656c0,5.906,4.781,10.688,10.672,10.688c-5.891,0-10.672,4.766-10.672,10.656
		s4.781,10.656,10.672,10.656h-85.328h-0.008l0,0c0,0,0,0,0.008,0c5.891,0,10.664-4.766,10.664-10.656s-4.773-10.656-10.664-10.656
		c-0.008,0-0.008,0-0.008,0l0,0c0,0,0,0,0.008,0c5.891,0,10.664-4.781,10.664-10.688c0-5.875-4.773-10.656-10.664-10.656
		c-0.008,0-0.008,0-0.008,0l0,0H218.833z M283.114,274.906v0.062l-0.047,0.344l-20.406,215.344H176.31H88.981l-19.57-215.25v-0.125
		l-0.047-0.328c-0.078-0.844-0.805-9.797,1.281-21.578c2.758-15.5,8.938-28.672,18.375-39.125
		c8.922-9.875,20.805-17.312,35.539-22.25h103.5c14.719,4.938,26.586,12.359,35.492,22.25c9.422,10.438,15.578,23.594,18.312,39.094
		C283.927,265.047,283.208,273.938,283.114,274.906z"/>
	<path style="fill:#241C73;" d="M112.247,426.719h128V277.344h-128C112.247,277.344,112.247,426.719,112.247,426.719z
		 M133.575,298.656h85.336V405.39h-85.336V298.656z"/>
</g>
</svg>
