<?xml version="1.0" encoding="iso-8859-1"?>
<!-- Generator: Adobe Illustrator 24.3.0, SVG Export Plug-In . SVG Version: 6.00 Build 0)  -->
<svg version="1.1" id="Layer_1" xmlns="http://www.w3.org/2000/svg" xmlns:xlink="http://www.w3.org/1999/xlink" x="0px" y="0px"
	 viewBox="0 0 512 512" style="enable-background:new 0 0 512 512;" xml:space="preserve">
<g>
	<g>
		<polygon style="fill:#F26867;" points="64.998,206.998 36.999,238.122 102.998,294.997 122.997,266.669 		"/>
		<polygon style="fill:#F26867;" points="245.996,384.183 215.996,418.995 277.495,473.994 308.994,448.994 		"/>
	</g>
	<polygon style="fill:#F26867;" points="226.934,422.995 187.996,429.089 140.997,409.995 97.998,373.996 79.998,332.996 
		79.998,294.997 79.998,283.997 36.999,238.122 36.999,250.997 15.999,281.997 15.999,337.668 46.998,396.495 110.997,462.229 
		184.996,497.994 230.996,497.994 262.495,473.994 	"/>
	<path style="fill:#86a570;" d="M220.246,242.747c-26.062,17.531-44.671,31.312-45.765,66.343h104.67v-22.093H204.48
		c5.25-12.719,21.672-23.656,32.843-30.875c21.468-14.25,42.046-26.937,42.046-55.843c0-27.812-19.703-45.999-49.483-45.999
		c-31.547,0-51.468,21.031-51.468,53.874v3.938h24.312c0.438-17.969,3.938-36.343,26.484-36.343
		c15.328,0,24.749,9.843,24.749,25.843C253.964,222.81,235.574,232.466,220.246,242.747z"/>
	<path style="fill:#86a570;" d="M362.369,154.499l-65.702,93.498v24.75h65.046l0.219,36.343h24.093v-36.343h19.484v-21.032h-19.484
		v-97.217L362.369,154.499L362.369,154.499z M362.15,251.715h-44.89l44.891-66.343v66.343H362.15z"/>
	<path style="fill:#241C73;" d="M440.681,71.312C393.149,23.781,330.822,0,268.526,0C206.215,0,143.903,23.75,96.357,71.312
		c-24,24-41.906,51.78-53.796,81.405c-0.141,0.312-0.469,1.156-0.469,1.156c-0.344,1.062-0.531,2.188-0.531,3.344
		c0,5.875,4.766,10.656,10.656,10.656c4.719,0,8.719-3.062,10.125-7.312l0.031,0.031c0.094-0.25,0.188-0.5,0.281-0.719
		c11.156-27.562,27.578-52.281,48.796-73.499c21.219-21.188,45.938-37.625,73.468-48.781c26.609-10.781,54.734-16.281,83.608-16.281
		c28.859,0,56.983,5.5,83.593,16.281c27.546,11.156,52.28,27.593,73.483,48.781c21.202,21.218,37.624,45.937,48.796,73.499
		c10.797,26.593,16.266,54.718,16.266,83.592c0,28.875-5.469,57-16.266,83.593c-11.172,27.562-27.594,52.28-48.796,73.499
		c-21.219,21.188-45.938,37.625-73.483,48.78c-14.938,6.062-30.359,10.438-46.124,13.094l6.499-6.5
		c4.875-4.875,4.875-12.78,0-17.624l-57.765-57.781c-2.438-2.438-5.641-3.656-8.828-3.656c-3.188,0-6.391,1.219-8.828,3.656
		l-27.609,27.594c-3.422,3.438-4.422,8.375-3.031,12.688c-3.656,1.125-7.828,1.906-12.531,2.062
		c-20.718,0.594-44.452-11.875-68.671-36.094c-24.39-24.374-36.53-47.343-36.108-68.218c0.094-4.906,0.906-9.25,2.047-12.999
		c1.266,0.406,2.578,0.625,3.89,0.625c3.188,0,6.375-1.219,8.812-3.656l27.609-27.594c4.875-4.875,4.875-12.781,0-17.656
		l-57.765-57.781c-2.438-2.438-5.641-3.656-8.828-3.656c-3.203,0-6.391,1.219-8.828,3.656l-27.609,27.594
		c-4.5,4.531-4.828,11.625-1,16.5l-6.656,6.656c-34.422,34.438-31.812,105.875,51.64,189.311
		c83.437,83.467,154.889,86.061,189.31,51.655l6.656-6.656c2.25,1.75,4.953,2.656,7.672,2.656c1.234,0,2.484-0.188,3.672-0.562
		c58.515-2.688,116.248-26.344,160.936-71.03C535.772,320.559,535.772,166.373,440.681,71.312z M64.889,220.841l45.249,45.25
		L95.06,281.185l-45.265-45.25L64.889,220.841z M246.652,476.119c-13.031,13.031-33.218,17.5-56.843,12.594
		c-21.937-4.562-57.499-19.406-102.295-64.218c-44.797-44.812-59.656-80.374-64.218-102.312
		c-4.906-23.624-0.438-43.812,12.578-56.843l6.593-6.594l31.734,31.75c-3.328,7.094-6.078,16.125-6.391,26.968
		c-0.797,27.125,13.438,55.5,42.327,84.405c28.125,28.094,55.765,42.344,82.233,42.344c0.719,0,1.438,0,2.172-0.031
		c10.828-0.312,19.859-3.062,26.953-6.375l31.749,31.718L246.652,476.119z M276.073,462.213l-45.25-45.28l15.078-15.062
		l45.25,45.249L276.073,462.213z"/>
</g>
</svg>
