<?xml version="1.0" encoding="iso-8859-1"?>
<!-- Generator: Adobe Illustrator 24.3.0, SVG Export Plug-In . SVG Version: 6.00 Build 0)  -->
<svg version="1.1" id="Layer_1" xmlns="http://www.w3.org/2000/svg" xmlns:xlink="http://www.w3.org/1999/xlink" x="0px" y="0px"
	 viewBox="0 0 512 512" style="enable-background:new 0 0 512 512;" xml:space="preserve">
<g>
	<path style="fill:#86a570;" d="M124.141,442.809C123.984,391.145,124,396.375,124,396c0-11.051,8.949-20,20-20h220
		c11.051,0,20,8.949,20,20c0,0.375,0.016-4.855-0.141,46.809C412.309,447.512,434,472.219,434,502H74
		C74,472.219,95.691,447.512,124.141,442.809z"/>
	<path style="fill:#F26867;" d="M429,150.52C408.828,69.828,330.691,10,265.738,10h-20.566L275,76.699
		c50.438,8.66,88.004,47.383,98.172,88.109c16.18,64.723,2.238,102.113-11.684,146.16L361.57,311h60.469
		C434.922,269.641,446.75,221.551,429,150.52z"/>
	<path style="fill:#EEE06F;" d="M254.102,214.52c-1.172-0.488-2.34-1.039-3.531-1.629c-42.75-21.371-70.309,18.848-73.898,20.988
		c-11.672,11.672-30.594,11.672-42.25,0l-24.492-24.48c-7.809-7.809-7.809-20.477,0-28.289l45.609-45.609
		c0-33,26.461-59.75,59.461-59.75V10h30.172C261.672,10,275,23.379,275,39.879v36.82c50.438,8.66,88.004,47.383,98.172,88.109
		c16.18,64.723,2.238,102.113-11.684,146.16c-4.266,13.516-12.02,35.93-3.289,65.031H152.512v-4.301
		c4.066-40.809,25.039-80.32,58.207-105.188C229.27,252.602,244.012,234.711,254.102,214.52z"/>
	<path style="fill:#241C73;" d="M264,442c0,5.523-4.477,10-10,10s-10-4.477-10-10s4.477-10,10-10S264,436.477,264,442z"/>
	<path style="fill:#241C73;" d="M204.723,258.508c-33.281,24.953-56.078,64.871-61.621,107.516C126.977,366.5,114,379.758,114,396
		v38.906C84.57,443.582,64,470.539,64,502c0,5.523,4.477,10,10,10h360c5.523,0,10-4.477,10-10c0-31.457-20.566-58.418-50-67.094V396
		c0-15.867-12.387-28.891-27.996-29.926c-3.273-15.797-1.766-30.141,2.836-45.074h53.199c4.379,0,8.246-2.848,9.551-7.027
		c13.035-41.859,25.41-92.656,7.113-165.879C417.352,62.688,335.039,0,265.738,0C249.699,0,230.961,0,215,0c-5.523,0-10,4.477-10,10
		v56.473c-32.207,4.68-57.328,31.637-59.332,64.758l-42.809,42.809c-11.723,11.723-11.727,30.707,0,42.434l24.484,24.477
		c15.516,15.527,40.352,15.465,55.844,0.547c6.281-5.051,25.719-33.426,56.891-22.23
		C230.953,234.453,218.883,247.891,204.723,258.508z M374,396v36h-80c-5.523,0-10,4.477-10,10s4.477,10,10,10h80
		c23.777,0,44.301,16.566,49.012,40H84.988c4.695-23.363,25.156-40,49.012-40h80c5.523,0,10-4.477,10-10s-4.477-10-10-10h-80v-36
		c0-5.516,4.484-10,10-10h220C369.516,386,374,390.484,374,396z M419.297,152.945c16.082,64.34,7.148,108.75-4.652,148.055h-39.496
		c12.426-39.277,22.953-77.695,7.723-138.613c-10.52-42.141-47.59-81.957-97.871-93.852V39.879c0-6.805-1.715-13.215-4.73-18.828
		C337.82,29.156,401.828,83.051,419.297,152.945z M258.891,226.734c20.172,5.398,37.344-0.91,50.457-7.387
		c4.953-2.445,6.984-8.445,4.539-13.398s-8.441-6.98-13.395-4.535c-15.801,7.805-29.344,10.523-45.453,2.531
		c-18.352-9.18-37.328-9.652-54.867-1.379c-14.73,6.949-23.625,17.316-30.574,24.242c-7.77,7.77-20.34,7.773-28.109,0L117,202.328
		c-3.906-3.906-3.906-10.238,0-14.148l45.609-45.609c1.875-1.875,2.93-4.418,2.93-7.07c0-27.434,22.188-49.75,49.461-49.75
		c5.523,0,10-4.477,10-10V20h20.172C256.105,20,265,28.918,265,39.879v36.82c0,4.871,3.508,9.031,8.309,9.855
		c46.395,7.965,80.902,43.586,90.16,80.68C378.41,227,366.93,260.59,351.953,307.957c-5.875,18.602-10.129,34.914-6.309,58.043
		H163.301c5.418-36.398,25.055-70.223,53.418-91.488C233.816,261.688,248.266,245.293,258.891,226.734z"/>
	<path style="fill:#241C73;" d="M224,136h-20c-5.523,0-10,4.477-10,10s4.477,10,10,10h20c5.523,0,10-4.477,10-10
		S229.523,136,224,136z"/>
</g>
</svg>
