<?xml version="1.0" encoding="iso-8859-1"?>
<!-- Generator: Adobe Illustrator 24.3.0, SVG Export Plug-In . SVG Version: 6.00 Build 0)  -->
<svg version="1.1" id="Layer_1" xmlns="http://www.w3.org/2000/svg" xmlns:xlink="http://www.w3.org/1999/xlink" x="0px" y="0px"
	 viewBox="0 0 512 512" style="enable-background:new 0 0 512 512;" xml:space="preserve">
<g>
	<g>
		<circle style="fill:#86a570;" cx="256" cy="256" r="248"/>
	</g>
	<path style="fill:#EEE06F;" d="M506.518,232.88c-4.687-43.08-20.39-82.851-44.257-116.421l-97.227-2.908L323.23,20.146
		C303.043,14.839,281.854,12,260,12s-43.043,2.839-63.23,8.146l-41.803,93.405l-97.227,2.908
		C33.872,150.029,18.168,189.8,13.482,232.88l72.675,73.291l-29.193,96.252c27.18,38.676,65.129,69.226,109.491,87.309L260,443.415
		l93.545,46.316c44.363-18.083,82.311-48.633,109.492-87.309l-29.193-96.252L506.518,232.88z M260,364.08l-93.596-68.001
		l35.751-110.028h115.69l35.75,110.028L260,364.08z"/>
	<g>
		<path style="fill:#241C73;" d="M437.02,74.981C388.667,26.629,324.38,0,256,0c-48.003,0-94.799,13.367-135.33,38.655
			c-3.522,2.197-4.595,6.833-2.398,10.354c2.198,3.521,6.833,4.594,10.353,2.397c15.906-9.924,32.841-17.889,50.454-23.813
			l-33.254,74.301l-77.004,2.303c10.61-13.044,22.651-25.095,36.053-35.899c3.231-2.605,3.739-7.336,1.134-10.567
			c-2.604-3.231-7.336-3.738-10.566-1.134C34.788,105.496,0,178.176,0,256c0,68.38,26.628,132.667,74.98,181.02
			C123.333,485.371,187.619,512,256,512c53.477,0,104.703-16.32,148.145-47.196c3.383-2.405,4.176-7.096,1.772-10.479
			c-2.404-3.382-7.094-4.178-10.478-1.771c-14.308,10.169-29.517,18.654-45.398,25.397l-86.526-42.841v-70.997l88.276-64.136
			l72.617,9.132l26.776,88.284c-9.686,13.348-20.761,25.707-33.163,36.98c-3.07,2.792-3.297,7.544-0.506,10.615
			c2.797,3.078,7.552,3.292,10.615,0.507c26.147-23.764,46.755-52.072,61.252-84.138C504.39,328.162,512,292.715,512,256
			C512,187.62,485.372,123.333,437.02,74.981L437.02,74.981z M443.165,104.197l-76.991-2.302l-33.293-74.389
			c34.841,11.687,66.767,31.359,93.512,58.103C432.339,91.555,437.927,97.763,443.165,104.197z M198.016,22.074
			c18.85-4.657,38.308-7.044,57.984-7.044c19.793,0,39.218,2.379,57.957,6.985l38.751,86.582l-42.826,65.794H202.117l-42.826-65.794
			L198.016,22.074z M146.765,116.902l43.021,66.096L156.549,285.29l-72.001,9.055l-67.661-68.236
			c4.76-38.523,18.664-74.94,40.411-106.53L146.765,116.902z M15.265,245.816l58.061,58.553L50.02,381.208
			C27.224,343.859,15.029,300.869,15.029,256C15.029,252.593,15.124,249.201,15.265,245.816L15.265,245.816z M60.819,397.383
			l26.774-88.274l72.617-9.132l88.276,64.136v70.997l-86.566,42.861c-28.157-11.938-54.034-29.302-76.312-51.579
			C76.51,417.295,68.245,407.589,60.819,397.383L60.819,397.383z M330.749,485.17c-23.902,7.787-49.047,11.801-74.749,11.801
			c-25.787,0-50.952-4.033-74.786-11.783L256,448.16L330.749,485.17z M355.451,285.289l-11.943-36.757
			c-1.282-3.948-5.524-6.107-9.469-4.824c-3.947,1.282-6.108,5.522-4.825,9.469l11.731,36.102L256,350.995l-84.945-61.716
			l32.447-99.859h104.996l11.408,35.108c1.283,3.948,5.527,6.107,9.469,4.824c3.947-1.282,6.108-5.522,4.825-9.469l-11.986-36.886
			l43.021-66.096l89.46,2.675c21.872,31.713,35.716,68.056,40.447,106.501l-67.691,68.265L355.451,285.289z M475.687,355.165
			c-4.064,8.989-8.65,17.656-13.721,25.999l-23.291-76.794l58.07-58.563c0.14,3.387,0.226,6.783,0.226,10.193
			C496.971,290.566,489.81,323.929,475.687,355.165L475.687,355.165z"/>
	</g>
</g>
</svg>
