<?xml version="1.0" encoding="iso-8859-1"?>
<!-- Generator: Adobe Illustrator 24.3.0, SVG Export Plug-In . SVG Version: 6.00 Build 0)  -->
<svg version="1.1" id="Layer_1" xmlns="http://www.w3.org/2000/svg" xmlns:xlink="http://www.w3.org/1999/xlink" x="0px" y="0px"
	 viewBox="0 0 512 512" style="enable-background:new 0 0 512 512;" xml:space="preserve">
<g>
	<path style="fill:#DBDFE0;" d="M42,188v279.5h423V188H42z M347.12,376.95l3.65-13.91C357.15,349.43,370.97,340,387,340
		c11.41,0,21.71,4.78,29,12.46c6.81,7.17,11,16.87,11,27.54c-0.02,10.67-4.2,20.35-11,27.52c-7.29,7.68-17.59,12.46-29,12.48
		c-22.09,0-40-17.91-40-40C347,378.98,347.04,377.96,347.12,376.95z"/>
	<polygon style="fill:#F26867;" points="44,90.516 33.5,123 13,183.5 26,218.5 77.5,223 109,191 118.984,90.344 	"/>
	<polygon style="fill:#EEE06F;" points="125.344,90.344 109,191 136.672,226.672 170.578,230.672 203.344,201.328 213.25,90.344 	
		"/>
	<polygon style="fill:#F26867;" points="299.344,95.328 216.016,95.328 205.266,179.875 225.344,217.328 268.016,223 
		299.344,206.672 303.344,175.328 	"/>
	<polygon style="fill:#EEE06F;" points="390.016,90.344 299.344,95.328 306.672,187.328 327.344,223 371.344,226.672 
		394.016,207.328 398.016,183.328 	"/>
	<polygon style="fill:#F26867;" points="470.016,90.344 394.5,95.328 398.016,145.75 405.75,205.25 433.25,227.75 470.016,225.25 
		494.5,211.25 500,165.25 	"/>
	<rect x="53.34" y="41.34" style="fill:#EEE06F;" width="405.33" height="49"/>
	<g>
		<rect x="82.67" y="270.67" style="fill:#86a570;" width="191.33" height="128.66"/>
		<path style="fill:#86a570;" d="M419,281.14v-10.47h-64v10.47c-1.46,0.47-2.92,0.98-4.36,1.52c-3.73,1.39-7.38,2.99-10.92,4.81
			l-4.81-4.81l-10.13-10.14c-0.85-0.85-1.84-1.47-2.91-1.85h-2.54V464h111.34V285.71C426.88,283.95,422.98,282.43,419,281.14z
			 M387,420c-22.09,0-40-17.91-40-40c0-1.02,0.04-2.04,0.12-3.05l3.65-13.91C357.15,349.43,370.97,340,387,340
			c11.41,0,21.71,4.78,29,12.46c6.81,7.17,11,16.87,11,27.54c-0.02,10.67-4.2,20.35-11,27.52C408.71,415.2,398.41,419.98,387,420z"
			/>
	</g>
	<path style="fill:#241C73;" d="M416,297.02v-14.36h-13v-11.99h-32v11.99h-20.36c-3.73,1.39-7.38,2.99-10.92,4.81l-4.81-4.81h-4.25
		v74.68h10.67c1.08,0,2.12,0.16,3.1,0.46c2.75,0.83,5.03,2.74,6.34,5.24C357.15,349.43,370.97,340,387,340
		c11.41,0,21.71,4.78,29,12.46v-20.34c5.61,3.41,10.58,7.77,14.67,12.87v-41.28C426,301.03,421.08,298.79,416,297.02z M387,420
		c-22.09,0-40-17.91-40-40c0-1.02,0.04-2.04,0.12-3.05c-1.66,1.08-3.65,1.71-5.79,1.71h-10.67v74.68H416v-45.82
		C408.71,415.2,398.41,419.98,387,420z M313.46,272.52l-4.13,4.13v22.64l9.79-9.79l0.21,0.21v-19.04h2.54
		C319.04,269.63,315.74,270.25,313.46,272.52z M434.28,287.47c-1.19-0.61-2.39-1.2-3.61-1.76c-3.79-1.76-7.69-3.28-11.67-4.57v-19.8
		h-64v19.8c-1.46,0.47-2.92,0.98-4.36,1.52H371v-11.99h32v11.99h13v14.36c5.08,1.77,10,4.01,14.67,6.69
		c0.32,0.18,0.63,0.36,0.95,0.55c1.77,1.04,3.81,1.33,5.71,0.93v-20.77L434.28,287.47z M310.02,325.66l-0.69-0.69v13.87
		c0.61-1.17,1.26-2.32,1.93-3.46C313.11,332.24,312.61,328.24,310.02,325.66z M311.26,424.62c-0.67-1.14-1.32-2.29-1.93-3.46v13.87
		l0.69-0.69C312.61,431.76,313.11,427.76,311.26,424.62z M416,297.02v35.1c5.61,3.41,10.58,7.77,14.67,12.87v-41.28
		C426,301.03,421.08,298.79,416,297.02z M371,270.67v11.99h32v-11.99H371z M313.46,272.52l-4.13,4.13v22.64l9.79-9.79l0.21,0.21
		v-19.04h2.54C319.04,269.63,315.74,270.25,313.46,272.52z M434.28,287.47c-1.19-0.61-2.39-1.2-3.61-1.76
		c-3.79-1.76-7.69-3.28-11.67-4.57v-19.8h-64v19.8c-1.46,0.47-2.92,0.98-4.36,1.52H371v-11.99h32v11.99h13v14.36
		c5.08,1.77,10,4.01,14.67,6.69c0.32,0.18,0.63,0.36,0.95,0.55c1.77,1.04,3.81,1.33,5.71,0.93v-20.77L434.28,287.47z M310.02,325.66
		l-0.69-0.69v13.87c0.61-1.17,1.26-2.32,1.93-3.46C313.11,332.24,312.61,328.24,310.02,325.66z M311.26,424.62
		c-0.67-1.14-1.32-2.29-1.93-3.46v13.87l0.69-0.69C312.61,431.76,313.11,427.76,311.26,424.62z M434.28,287.47
		c-1.19-0.61-2.39-1.2-3.61-1.76c-3.79-1.76-7.69-3.28-11.67-4.57v-19.8h-64v19.8c-1.46,0.47-2.92,0.98-4.36,1.52H371v-11.99h32
		v11.99h13v14.36c5.08,1.77,10,4.01,14.67,6.69c0.32,0.18,0.63,0.36,0.95,0.55c1.77,1.04,3.81,1.33,5.71,0.93v-20.77L434.28,287.47z
		 M313.46,272.52l-4.13,4.13v22.64l9.79-9.79l0.21,0.21v-19.04h2.54C319.04,269.63,315.74,270.25,313.46,272.52z M310.02,325.66
		l-0.69-0.69v13.87c0.61-1.17,1.26-2.32,1.93-3.46C313.11,332.24,312.61,328.24,310.02,325.66z M311.26,424.62
		c-0.67-1.14-1.32-2.29-1.93-3.46v13.87l0.69-0.69C312.61,431.76,313.11,427.76,311.26,424.62z M434.28,287.47
		c-1.19-0.61-2.39-1.2-3.61-1.76c-3.79-1.76-7.69-3.28-11.67-4.57v-19.8h-64v19.8c-1.46,0.47-2.92,0.98-4.36,1.52
		c-3.73,1.39-7.38,2.99-10.92,4.81l-4.81-4.81l-10.13-10.14c-0.85-0.85-1.84-1.47-2.91-1.85c-2.83-1.04-6.13-0.42-8.41,1.85
		l-4.13,4.13v22.64l9.79-9.79l0.21,0.21v-11.32l18.98,18.98c7.71-4.55,16.02-7.99,24.69-10.23v-4.48h8v-11.99h32v11.99h13v14.36
		c5.08,1.77,10,4.01,14.67,6.69c0.32,0.18,0.63,0.36,0.95,0.55c1.77,1.04,3.81,1.33,5.71,0.93v-20.77L434.28,287.47z M309.33,324.97
		v13.87c0.61-1.17,1.26-2.32,1.93-3.46c1.85-3.14,1.35-7.14-1.24-9.72L309.33,324.97z M309.33,421.16v13.87l0.69-0.69
		c2.59-2.58,3.09-6.58,1.24-9.72C310.59,423.48,309.94,422.33,309.33,421.16z M511.25,169.53l-0.34-1.94
		c-0.07-0.28-0.1-0.59-0.16-0.87L474.84,80V37.34H36.56V80L1.25,166.72c-0.08,0.34-0.13,0.69-0.19,1.02l-0.33,1.79
		C0.25,172.62,0,175.81,0,179.05c0,23.19,12.94,43.34,32,53.64v241.97h441.36l6.64-6.64V232.69c19.05-10.3,32-30.45,32-53.64
		C512,175.81,511.73,172.62,511.25,169.53z M458.66,453.34h-21.33V284.42l-3.05,3.05c-1.19-0.61-2.39-1.2-3.61-1.76
		c-3.79-1.76-7.69-3.28-11.67-4.57v-19.8h-64v19.8c-1.46,0.47-2.92,0.98-4.36,1.52c-3.73,1.39-7.38,2.99-10.92,4.81l-4.81-4.81
		l-10.13-10.14c-0.85-0.85-1.84-1.47-2.91-1.85c-2.83-1.04-6.13-0.42-8.41,1.85l-4.13,4.13v176.69h-256V239.53
		c2.48,0.31,5.05,0.47,7.61,0.47c19.94,0,37.65-9.58,48.76-24.38c11.13,14.8,28.83,24.38,48.77,24.38
		c19.94,0,37.64-9.58,48.76-24.38C218.34,230.42,236.06,240,256,240s37.62-9.58,48.75-24.38c11.13,14.8,28.83,24.38,48.77,24.38
		c19.93,0,37.64-9.58,48.76-24.38c11.13,14.8,28.81,24.38,48.75,24.38c2.59,0,5.13-0.16,7.63-0.47V453.34z M387,420
		c-22.09,0-40-17.91-40-40c0-1.02,0.04-2.04,0.12-3.05l3.65-13.91C357.15,349.43,370.97,340,387,340c11.41,0,21.71,4.78,29,12.46
		c6.81,7.17,11,16.87,11,27.54c-0.02,10.67-4.2,20.35-11,27.52C408.71,415.2,398.41,419.98,387,420z M391.53,194.41l-6.31,8.4
		c-7.56,10.06-19.13,15.85-31.7,15.85c-12.58,0-24.14-5.78-31.71-15.85l-6.43-8.59l-0.31-6.22l-0.07-1.34h75.38l0.2,1.34
		L391.53,194.41z M294.02,194.41l-6.33,8.4c-7.56,10.06-19.13,15.85-31.69,15.85c-12.59,0-24.14-5.78-31.72-15.85l-6.47-8.64
		l0.31-6.17l0.07-1.35h75.45v0.01l0.07,1.34L294.02,194.41z M292.59,165.34h-73.32l3.2-63.34h67.03L292.59,165.34z M377.77,102
		l9.43,63.34h-73.25L310.84,102H377.77z M121.58,188l0.2-1.34h75.03l-0.07,1.34l-0.32,6.48l-6.25,8.33
		c-7.58,10.06-19.12,15.85-31.7,15.85c-12.58,0-24.13-5.78-31.71-15.85l-6.15-8.2L121.58,188z M197.91,165.34h-73l9.31-63.34h66.9
		L197.91,165.34z M399.34,102h62l25.8,63.34h-78.37L399.34,102z M57.91,58.66h395.61V80H57.91V58.66z M112.66,102l-9.31,63.34h-78.5
		L50.64,102H112.66z M100.22,186.66L99.98,188l-1.18,6.61l-6.14,8.2c-7.58,10.06-19.13,15.85-31.72,15.85
		c-6.86,0-13.31-1.75-18.94-4.82c-10.17-5.57-17.65-15.45-19.94-27.18H100.22z M465,216.12c-4.34,1.64-9.05,2.54-13.97,2.54
		c-12.56,0-24.12-5.78-31.69-15.85l-5.89-7.83l-1.27-6.98l-0.24-1.34h77.97C487.25,200.23,477.67,211.33,465,216.12z M311.26,424.62
		c-0.67-1.14-1.32-2.29-1.93-3.46v13.87l0.69-0.69C312.61,431.76,313.11,427.76,311.26,424.62z M310.02,325.66l-0.69-0.69v13.87
		c0.61-1.17,1.26-2.32,1.93-3.46C313.11,332.24,312.61,328.24,310.02,325.66z M434.28,287.47c-1.19-0.61-2.39-1.2-3.61-1.76
		c-3.79-1.76-7.69-3.28-11.67-4.57v-19.8h-64v19.8c-1.46,0.47-2.92,0.98-4.36,1.52c-3.73,1.39-7.38,2.99-10.92,4.81l-4.81-4.81
		l-10.13-10.14c-0.85-0.85-1.84-1.47-2.91-1.85c-2.83-1.04-6.13-0.42-8.41,1.85l-4.13,4.13v22.64l9.79-9.79l0.21,0.21v-11.32
		l18.98,18.98c7.71-4.55,16.02-7.99,24.69-10.23v-4.48h8v-11.99h32v11.99h13v14.36c5.08,1.77,10,4.01,14.67,6.69
		c0.32,0.18,0.63,0.36,0.95,0.55c1.77,1.04,3.81,1.33,5.71,0.93v-20.77L434.28,287.47z M311.26,424.62
		c-0.67-1.14-1.32-2.29-1.93-3.46v13.87l0.69-0.69C312.61,431.76,313.11,427.76,311.26,424.62z M310.02,325.66l-0.69-0.69v13.87
		c0.61-1.17,1.26-2.32,1.93-3.46C313.11,332.24,312.61,328.24,310.02,325.66z M313.46,272.52l-4.13,4.13v22.64l9.79-9.79l0.21,0.21
		v-19.04h2.54C319.04,269.63,315.74,270.25,313.46,272.52z M434.28,287.47c-1.19-0.61-2.39-1.2-3.61-1.76
		c-3.79-1.76-7.69-3.28-11.67-4.57v-19.8h-64v19.8c-1.46,0.47-2.92,0.98-4.36,1.52H371v-11.99h32v11.99h13v14.36
		c5.08,1.77,10,4.01,14.67,6.69c0.32,0.18,0.63,0.36,0.95,0.55c1.77,1.04,3.81,1.33,5.71,0.93v-20.77L434.28,287.47z M371,270.67
		v11.99h32v-11.99H371z M416,297.02v35.1c5.61,3.41,10.58,7.77,14.67,12.87v-41.28C426,301.03,421.08,298.79,416,297.02z
		 M311.26,424.62c-0.67-1.14-1.32-2.29-1.93-3.46v13.87l0.69-0.69C312.61,431.76,313.11,427.76,311.26,424.62z M310.02,325.66
		l-0.69-0.69v13.87c0.61-1.17,1.26-2.32,1.93-3.46C313.11,332.24,312.61,328.24,310.02,325.66z M313.46,272.52l-4.13,4.13v22.64
		l9.79-9.79l0.21,0.21v-19.04h2.54C319.04,269.63,315.74,270.25,313.46,272.52z M434.28,287.47c-1.19-0.61-2.39-1.2-3.61-1.76
		c-3.79-1.76-7.69-3.28-11.67-4.57v-19.8h-64v19.8c-1.46,0.47-2.92,0.98-4.36,1.52H371v-11.99h32v11.99h13v14.36
		c5.08,1.77,10,4.01,14.67,6.69c0.32,0.18,0.63,0.36,0.95,0.55c1.77,1.04,3.81,1.33,5.71,0.93v-20.77L434.28,287.47z"/>
	<path style="fill:#241C73;" d="M74.66,261.34v149.32H288V261.34H74.66z M266.66,389.34H96V282.66h170.66V389.34z"/>
	<path style="fill:#EEE06F;" d="M507,404v-48h-27.14c-2.24-8.67-5.68-16.98-10.23-24.69l19.2-19.2l-8.83-8.83l-21.34-21.34
		l-3.77-3.77l-19.2,19.2c-1.64-0.97-3.32-1.89-5.02-2.76c-4.71-2.42-9.62-4.43-14.67-6.03c-1.65-0.53-3.32-1.01-5-1.44V260h-48
		v27.14c-8.67,2.24-16.98,5.68-24.69,10.23l-19.2-19.2l-9.78,9.79L288,309.3l-2.82,2.82l19.2,19.2c-4.56,7.71-8,16.01-10.24,24.68
		H267v48h27.14c2.24,8.67,5.68,16.98,10.23,24.69l-19.2,19.2l5.45,5.45l14.16,14.16l7.16,7.16l7.17,7.17l19.2-19.2
		c0.8,0.47,1.6,0.93,2.41,1.37c2.29,1.27,4.63,2.43,7.02,3.5c4.92,2.22,10.02,4.01,15.26,5.36V500h48v-27.14
		c5.24-1.35,10.34-3.14,15.26-5.36c3.23-1.44,6.38-3.07,9.43-4.87l19.2,19.2l7.17-7.17L480,456.72l8.83-8.83l-19.2-19.2
		c4.55-7.71,7.99-16.02,10.23-24.69H507z M416,418.25c-8.05,6.12-18.1,9.75-29,9.75c-26.51,0-48-21.49-48-48
		c0-0.45,0.01-0.89,0.02-1.34c0.2-7.51,2.13-14.59,5.41-20.86C352.44,342.47,368.5,332,387,332c10.9,0,20.95,3.63,29,9.75
		c6.28,4.77,11.35,11.05,14.67,18.3c2.78,6.07,4.33,12.83,4.33,19.95s-1.55,13.88-4.33,19.95C427.35,407.2,422.28,413.48,416,418.25
		z"/>
	<g>
		<path style="fill:#241C73;" d="M403,282.66v4.49c0,3.65,2.47,6.83,6,7.74c2.36,0.61,4.7,1.32,7,2.13v-14.36H403z M350.64,282.66
			c-3.73,1.39-7.38,2.99-10.92,4.81l-4.81-4.81l-10.13-10.14c-0.85-0.85-1.84-1.47-2.91-1.85h-2.54v19.04l11.33,11.31l2,2
			c2.57,2.58,6.57,3.09,9.72,1.24c7.06-4.17,14.68-7.32,22.62-9.37c3.53-0.91,6-4.09,6-7.74v-4.49H350.64z M403,282.66v4.49
			c0,3.65,2.47,6.83,6,7.74c2.36,0.61,4.7,1.32,7,2.13v-14.36H403z M350.64,282.66c-3.73,1.39-7.38,2.99-10.92,4.81l-4.81-4.81
			l-10.13-10.14c-0.85-0.85-1.84-1.47-2.91-1.85h-2.54v19.04l11.33,11.31l2,2c2.57,2.58,6.57,3.09,9.72,1.24
			c7.06-4.17,14.68-7.32,22.62-9.37c3.53-0.91,6-4.09,6-7.74v-4.49H350.64z M403,282.66v4.49c0,3.65,2.47,6.83,6,7.74
			c2.36,0.61,4.7,1.32,7,2.13v-14.36H403z M350.64,282.66c-3.73,1.39-7.38,2.99-10.92,4.81l-4.81-4.81l-10.13-10.14
			c-0.85-0.85-1.84-1.47-2.91-1.85h-2.54v19.04l11.33,11.31l2,2c2.57,2.58,6.57,3.09,9.72,1.24c7.06-4.17,14.68-7.32,22.62-9.37
			c3.53-0.91,6-4.09,6-7.74v-4.49H350.64z M403,282.66v4.49c0,3.65,2.47,6.83,6,7.74c2.36,0.61,4.7,1.32,7,2.13v-14.36H403z
			 M363,287.14c-8.67,2.24-16.98,5.68-24.69,10.23l-18.98-18.98v11.32l11.33,11.31l2,2c2.57,2.58,6.57,3.09,9.72,1.24
			c7.06-4.17,14.68-7.32,22.62-9.37c3.53-0.91,6-4.09,6-7.74v-4.49h-8V287.14z M507,348h-21.14c-1.59-4.92-3.55-9.72-5.86-14.35
			c-0.15-0.31-0.3-0.62-0.46-0.93l0.46-0.46l14.48-14.48c3.12-3.13,3.12-8.19,0-11.32L480,291.98l-15-15l-4.46-4.46
			c-0.57-0.57-1.2-1.03-1.88-1.39c-3.03-1.63-6.88-1.16-9.44,1.39l-11.89,11.9l-3.05,3.05c-1.19-0.61-2.39-1.2-3.61-1.76
			c-3.79-1.76-7.69-3.28-11.67-4.57V260c0-4.42-3.58-8-8-8h-48c-4.42,0-8,3.58-8,8v21.14c-1.46,0.47-2.92,0.98-4.36,1.52
			c-3.73,1.39-7.38,2.99-10.92,4.81l-4.81-4.81l-10.13-10.14c-0.85-0.85-1.84-1.47-2.91-1.85c-2.83-1.04-6.13-0.42-8.41,1.85
			l-4.13,4.13L288,297.98l-8.48,8.48c-3.12,3.13-3.12,8.19,0,11.32l8.48,8.48l6.46,6.46c-2.51,4.92-4.62,10.03-6.32,15.28H267
			c-0.11,0-0.23,0-0.34,0.01c-4.26,0.18-7.66,3.68-7.66,7.99v48c0,2.78,1.42,5.23,3.58,6.66c1.26,0.85,2.78,1.34,4.42,1.34h21.14
			c1.7,5.25,3.81,10.36,6.32,15.28l-14.94,14.94c-3.05,3.06-3.12,7.98-0.18,11.12c0.05,0.07,0.11,0.13,0.18,0.2l13.96,13.96
			l7.16,7.16l12.82,12.82c3.13,3.12,8.19,3.12,11.32,0l12.81-12.82l2.13-2.13c1.46,0.75,2.93,1.46,4.43,2.13
			c3.53,1.61,7.15,3,10.85,4.2V500c0,4.42,3.58,8,8,8h48c4.42,0,8-3.58,8-8v-21.14c3.7-1.2,7.32-2.59,10.85-4.2
			c1.5-0.67,2.97-1.38,4.43-2.13l2.13,2.13l12.81,12.82c3.13,3.12,8.19,3.12,11.32,0l12.82-12.82l6.64-6.64l14.48-14.48
			c3.12-3.13,3.12-8.19,0-11.32L480,427.74l-0.46-0.46c0.16-0.31,0.31-0.61,0.46-0.92c2.31-4.64,4.27-9.44,5.86-14.36H507
			c4.42,0,8-3.58,8-8v-48C515,351.58,511.42,348,507,348z M499,396h-19.15c-3.65,0-6.83,2.47-7.74,6
			c-1.66,6.44-4.05,12.66-7.11,18.55c-0.72,1.37-1.47,2.73-2.26,4.07c-1.85,3.14-1.35,7.14,1.24,9.72l1.02,1.02l12.51,12.52
			L465,460.38l-10.12,10.12l-3-3l-10.54-10.52c-2.57-2.58-6.57-3.09-9.72-1.24c-0.32,0.19-0.63,0.37-0.95,0.55
			c-5.62,3.22-11.57,5.81-17.76,7.71c-1.29,0.4-2.6,0.77-3.91,1.11c-1.56,0.4-2.91,1.25-3.93,2.39c-1.3,1.43-2.07,3.32-2.07,5.35
			V492h-32v-19.15c0-2.03-0.77-3.92-2.07-5.35c-1.02-1.14-2.37-1.99-3.93-2.39c-1.31-0.34-2.62-0.71-3.91-1.11
			c-6.54-2.01-12.82-4.78-18.71-8.26c-3.15-1.85-7.15-1.34-9.72,1.24l-7.03,7.02l-3.51,3.5l-3,3l-3-3l-14.17-14.16l-5.46-5.46
			l12.84-12.85l0.69-0.69c2.59-2.58,3.09-6.58,1.24-9.72c-0.67-1.14-1.32-2.29-1.93-3.46c-3.23-6.07-5.72-12.5-7.44-19.16
			c-0.91-3.53-4.09-6-7.74-6H275v-32h19.15c3.65,0,6.83-2.47,7.74-6c1.72-6.66,4.21-13.09,7.44-19.16c0.61-1.17,1.26-2.32,1.93-3.46
			c1.85-3.14,1.35-7.14-1.24-9.72l-0.69-0.69l-12.84-12.85l12.84-12.83l9.79-9.79l0.21,0.21l11.33,11.31l2,2
			c2.57,2.58,6.57,3.09,9.72,1.24c7.06-4.17,14.68-7.32,22.62-9.37c3.53-0.91,6-4.09,6-7.74V268h32v19.15c0,3.65,2.47,6.83,6,7.74
			c2.36,0.61,4.7,1.32,7,2.13c5.08,1.77,10,4.01,14.67,6.69c0.32,0.18,0.63,0.36,0.95,0.55c1.77,1.04,3.81,1.33,5.71,0.93
			c1.48-0.31,2.88-1.04,4.01-2.17l13.54-13.52l3.78,3.78l6.34,6.34l12.51,12.5L465,324.64l-1.02,1.02
			c-2.59,2.58-3.09,6.58-1.24,9.72c0.79,1.34,1.54,2.7,2.26,4.07c3.06,5.89,5.45,12.11,7.11,18.55c0.91,3.53,4.09,6,7.74,6H499V396z
			 M363,282.66v4.48c-8.67,2.24-16.98,5.68-24.69,10.23l-18.98-18.98v11.32l11.33,11.31l2,2c2.57,2.58,6.57,3.09,9.72,1.24
			c7.06-4.17,14.68-7.32,22.62-9.37c3.53-0.91,6-4.09,6-7.74v-4.49H363z M403,282.66v4.49c0,3.65,2.47,6.83,6,7.74
			c2.36,0.61,4.7,1.32,7,2.13v-14.36H403z M350.64,282.66c-3.73,1.39-7.38,2.99-10.92,4.81l-4.81-4.81l-10.13-10.14
			c-0.85-0.85-1.84-1.47-2.91-1.85h-2.54v19.04l11.33,11.31l2,2c2.57,2.58,6.57,3.09,9.72,1.24c7.06-4.17,14.68-7.32,22.62-9.37
			c3.53-0.91,6-4.09,6-7.74v-4.49H350.64z M403,282.66v4.49c0,3.65,2.47,6.83,6,7.74c2.36,0.61,4.7,1.32,7,2.13v-14.36H403z
			 M350.64,282.66c-3.73,1.39-7.38,2.99-10.92,4.81l-4.81-4.81l-10.13-10.14c-0.85-0.85-1.84-1.47-2.91-1.85h-2.54v19.04
			l11.33,11.31l2,2c2.57,2.58,6.57,3.09,9.72,1.24c7.06-4.17,14.68-7.32,22.62-9.37c3.53-0.91,6-4.09,6-7.74v-4.49H350.64z
			 M403,282.66v4.49c0,3.65,2.47,6.83,6,7.74c2.36,0.61,4.7,1.32,7,2.13v-14.36H403z"/>
		<path style="fill:#241C73;" d="M437.33,355.48c-1.83-3.75-4.07-7.27-6.66-10.49c-4.09-5.1-9.06-9.46-14.67-12.87
			c-8.46-5.14-18.38-8.11-29-8.12c-22.86,0-42.52,13.7-51.22,33.34c-2.9,6.54-4.59,13.75-4.76,21.32c-0.01,0.45-0.02,0.89-0.02,1.34
			c0,30.93,25.07,56,56,56c10.61,0,20.54-2.95,29-8.09c5.61-3.4,10.58-7.76,14.67-12.86c2.59-3.21,4.83-6.73,6.66-10.47
			c3.63-7.42,5.67-15.76,5.67-24.58C442.99,371.2,440.95,362.88,437.33,355.48z M387,420c-22.09,0-40-17.91-40-40
			c0-1.02,0.04-2.04,0.12-3.05c0.37-4.94,1.64-9.63,3.65-13.91C357.15,349.43,370.97,340,387,340c11.41,0,21.71,4.78,29,12.46
			c6.81,7.17,11,16.87,11,27.54c-0.02,10.67-4.2,20.35-11,27.52C408.71,415.2,398.41,419.98,387,420z"/>
	</g>
</g>
</svg>
