<?xml version="1.0" encoding="iso-8859-1"?>
<!-- Generator: Adobe Illustrator 24.3.0, SVG Export Plug-In . SVG Version: 6.00 Build 0)  -->
<svg version="1.1" id="Capa_1" xmlns="http://www.w3.org/2000/svg" xmlns:xlink="http://www.w3.org/1999/xlink" x="0px" y="0px"
	 viewBox="0 0 512.005 512.005" style="enable-background:new 0 0 512.005 512.005;" xml:space="preserve">
<g>
	<g>
		<polygon style="fill:#86a570;" points="88.003,480.021 88.003,496.021 8.003,496.021 8.003,280.021 88.003,280.021 
			88.003,296.021 		"/>
		<path style="fill:#EAC6BB;" d="M312.003,352.021l154.56-23.512c1.752-0.312,3.592-0.488,5.44-0.488c17.672,0,32,14.328,32,32
			c0,11.84-6.408,22.168-16,27.688l-216,116.312l-184-24v-184h72l125.512,24.488C300.563,323.069,312.003,336.189,312.003,352.021z"
			/>
		<g>
			<g>
				<path style="fill:#241C73;" d="M48.243,480.005c-4.424,0-8.04-3.576-8.04-8s3.536-8,7.952-8h0.088c4.416,0,8,3.576,8,8
					S52.659,480.005,48.243,480.005z"/>
				<path style="fill:#241C73;" d="M488.019,395.725c-2.768,0-5.456-1.432-6.928-3.992c-2.216-3.832-0.904-8.72,2.912-10.928
					c7.408-4.28,12-12.248,12-20.8c0-13.232-10.768-24-24-24c-4.424,0-8-3.576-8-8s3.576-8,8-8c22.056,0,40,17.944,40,40
					c0,14.232-7.656,27.512-19.984,34.64C490.755,395.381,489.379,395.725,488.019,395.725z"/>
				<path style="fill:#241C73;" d="M272.011,512.005c-2.848,0-5.608-1.52-7.056-4.208c-2.096-3.888-0.632-8.744,3.256-10.832
					l216-116.288c3.872-2.096,8.736-0.64,10.832,3.256c2.096,3.888,0.632,8.744-3.256,10.832l-216,116.288
					C274.587,511.701,273.291,512.005,272.011,512.005z"/>
				<path style="fill:#241C73;" d="M272.011,512.005c-0.344,0-0.688-0.024-1.04-0.072l-184-24c-4.384-0.568-7.48-4.584-6.896-8.96
					c0.568-4.384,4.552-7.52,8.96-6.896l184,24c4.384,0.568,7.48,4.584,6.896,8.96C279.411,509.069,275.971,512.005,272.011,512.005
					z"/>
				<path style="fill:#241C73;" d="M88.003,504.005h-80c-4.424,0-8-3.576-8-8v-216c0-4.424,3.576-8,8-8h80c4.424,0,8,3.576,8,8v216
					C96.003,500.429,92.427,504.005,88.003,504.005z M16.003,488.005h64v-200h-64L16.003,488.005z"/>
				<path style="fill:#241C73;" d="M311.995,360.005c-3.888,0-7.296-2.832-7.896-6.8c-0.664-4.368,2.336-8.448,6.704-9.112
					l154.536-23.52c4.36-0.664,8.456,2.336,9.112,6.704c0.664,4.368-2.336,8.448-6.704,9.112l-154.536,23.52
					C312.803,359.973,312.395,360.005,311.995,360.005z"/>
				<path style="fill:#241C73;" d="M280.003,392.005c-4.424,0-8-3.576-8-8s3.576-8,8-8c13.232,0,24-10.768,24-24
					c0-11.712-8.352-21.656-19.864-23.64c-4.352-0.752-7.272-4.888-6.52-9.24s4.912-7.248,9.24-6.52
					c19.208,3.296,33.144,19.88,33.144,39.4C320.003,374.061,302.059,392.005,280.003,392.005z"/>
				<path style="fill:#241C73;" d="M285.507,328.485c-0.504,0-1.024-0.048-1.536-0.152l-125.504-24.48
					c-4.336-0.84-7.168-5.048-6.32-9.384s5.04-7.184,9.384-6.32l125.504,24.48c4.336,0.84,7.168,5.048,6.32,9.384
					C292.611,325.837,289.259,328.485,285.507,328.485z"/>
				<path style="fill:#241C73;" d="M160.003,304.005h-72c-4.424,0-8-3.576-8-8s3.576-8,8-8h72c4.424,0,8,3.576,8,8
					S164.427,304.005,160.003,304.005z"/>
				<path style="fill:#241C73;" d="M276.643,391.829c-0.208,0-0.416-0.008-0.624-0.024l-100.632-7.824
					c-4.408-0.344-7.704-4.184-7.36-8.592c0.344-4.416,4.184-7.736,8.592-7.36l100.632,7.824c4.408,0.344,7.704,4.184,7.36,8.592
					C284.283,388.637,280.787,391.829,276.643,391.829z"/>
			</g>
			<path style="fill:#241C73;" d="M466.523,336.469c-3.832,0-7.208-2.752-7.872-6.648c-0.752-4.352,2.168-8.488,6.528-9.232
				c2.232-0.392,4.52-0.584,6.824-0.584c4.424,0,8,3.576,8,8s-3.576,8-8,8c-1.408,0-2.784,0.12-4.12,0.344
				C467.435,336.429,466.971,336.469,466.523,336.469z"/>
			<path style="fill:#241C73;" d="M280.003,392.005c-1.424,0-2.824-0.08-4.192-0.224c-4.4-0.472-7.576-4.408-7.112-8.8
				c0.472-4.4,4.384-7.624,8.8-7.112c0.824,0.088,1.664,0.136,2.504,0.136c4.424,0,8,3.576,8,8S284.427,392.005,280.003,392.005z"/>
		</g>
	</g>
	<g>
		<path style="fill:#241C73;" d="M402.663,183.39c-6.865-15.793-16.341-31.102-28.334-45.426
			c-11.415-13.745-22.815-23.894-30.727-30.211c-2.127-1.704-4.003-3.127-5.551-4.269l17.279-32.04l10.508-19.484
			c1.361-2.565,0.923-5.723-1.204-7.74c-7.177-7.021-14.808-10.461-23.315-10.461c-7.787,0-14.918,2.94-21.126,5.567
			c-4.91,2.017-9.539,3.972-13.292,3.972c-1.141,0-2.127-0.172-3.112-0.547c-12.963-4.738-22.924-7.678-32.572-7.678
			c-12.197,0-22.596,4.894-32.791,15.356c-2.127,2.189-2.439,5.614-0.751,8.178l29.945,45.254
			c-7.396,5.504-21.564,17.06-35.778,34.105c-11.931,14.324-21.47,29.632-28.334,45.426c-8.6,19.89-12.963,40.641-12.963,61.657
			c0,27.944,22.768,50.711,50.711,50.711h123.658c16.591,0,31.368-8.037,40.641-20.406c6.317-8.475,10.07-18.952,10.07-30.305
			C415.626,224.031,411.263,203.281,402.663,183.39z M251.608,55.885c6.317-5.457,12.369-7.85,19.609-7.85
			c7.74,0,16.45,2.611,28.053,6.912c2.408,0.876,4.957,1.314,7.568,1.314c6.38,0,12.478-2.502,18.311-4.957
			c5.614-2.346,10.946-4.582,16.122-4.582c2.502,0,6.052,0.438,10.508,3.597l-23.612,43.893l-0.047,0.063l-2.486,4.629h-45.535
			L251.608,55.885z M364.915,282.686H241.256c-20.75,0-37.639-16.872-37.639-37.639c0-34.902,12.807-68.021,37.967-98.42
			c15.903-19.234,32.087-31.165,36.997-34.652h48.913c1.298,0.907,3.378,2.408,6.036,4.472c7.396,5.786,19.234,16.012,30.946,30.18
			c25.223,30.399,37.967,63.455,37.967,98.42c0.063,12.432-5.958,23.456-15.246,30.305
			C380.958,279.965,373.249,282.686,364.915,282.686z"/>
		<path style="fill:#F26867;" d="M402.448,245.048c0.109,20.766-16.779,37.639-37.529,37.639H241.26
			c-20.75,0-37.639-16.872-37.639-37.639c0-34.902,12.807-68.021,37.967-98.42c15.903-19.234,32.087-31.165,36.997-34.652h48.913
			c4.957,3.44,21.079,15.418,36.982,34.652C389.704,177.026,402.448,210.083,402.448,245.048z"/>
		<path style="fill:#F26867;" d="M351.784,50.319l-26.145,48.585h-45.535l-28.491-43.018c6.317-5.457,12.369-7.85,19.609-7.85
			c7.74,0,16.45,2.611,28.053,6.912c2.408,0.876,4.957,1.313,7.568,1.313c6.38,0,12.478-2.502,18.311-4.957
			c5.614-2.346,10.946-4.582,16.122-4.582C343.777,46.722,347.327,47.16,351.784,50.319z"/>
		<path style="fill:#EEE06F;" d="M324.844,193.844h-7.695c-0.715-3.214-1.854-6.319-3.386-9.234h11.081
			c3.4,0,6.156-2.756,6.156-6.156c0-3.4-2.756-6.156-6.156-6.156h-46.171c-3.4,0-6.156,2.756-6.156,6.156
			c0,3.4,2.756,6.156,6.156,6.156h13.236c5.609,0.068,10.5,3.83,12.005,9.234h-25.24c-3.4,0-6.156,2.756-6.156,6.156
			c0,3.4,2.756,6.156,6.156,6.156h25.24c-0.616,0-1.231,1.847-2.463,2.77c-2.588,2.379-6.033,3.602-9.542,3.386h-13.236
			c-2.5-0.003-4.777,1.435-5.849,3.693c-0.931,2.359-0.32,5.047,1.539,6.772l32.935,31.088c1.136,1.16,2.685,1.823,4.309,1.847
			c1.753-0.12,3.399-0.888,4.617-2.155c2.263-2.477,2.126-6.309-0.308-8.619l-21.854-20.623c5.969-0.291,11.641-2.691,16.006-6.772
			c3.16-3.236,5.576-7.123,7.079-11.389h7.695c3.4,0,6.156-2.756,6.156-6.156C331.001,196.601,328.244,193.844,324.844,193.844z"/>
	</g>
</g>
</svg>
