<?xml version="1.0" encoding="iso-8859-1"?>
<!-- Generator: Adobe Illustrator 24.3.0, SVG Export Plug-In . SVG Version: 6.00 Build 0)  -->
<svg version="1.1" id="Capa_1" xmlns="http://www.w3.org/2000/svg" xmlns:xlink="http://www.w3.org/1999/xlink" x="0px" y="0px"
	 viewBox="0 0 512 512" style="enable-background:new 0 0 512 512;" xml:space="preserve">
<g>
	<path style="fill:#86a570;" d="M435.923,35.25c0-13.866-9.081-25.108-20.283-25.108H96.36c-11.202,0-20.283,11.241-20.283,25.108
		v94.413h359.845V35.25z"/>
	<path style="fill:#FFFFFF;" d="M76.077,443.599v39.157c0,10.551,9.081,19.105,20.283,19.105H415.64
		c11.202,0,20.283-8.553,20.283-19.105V129.663H76.077v235.931"/>
	<circle style="fill:#99EBFA;" cx="256.001" cy="316.469" r="90.214"/>
	<path style="fill:#EEE06F;" d="M256.001,406.667c-49.815,0-90.198-40.383-90.198-90.198s40.383-90.198,90.198-90.198
		c27.484,0,52.094,12.297,68.638,31.684h50.924c-21.656-44.166-67.055-74.577-119.563-74.577
		c-73.504,0-133.091,59.586-133.091,133.091S182.495,449.558,256,449.558c52.508,0,97.907-30.411,119.562-74.577h-50.924
		C308.094,394.37,283.485,406.667,256.001,406.667L256.001,406.667z"/>
	<path style="fill:#F26867;" d="M375.563,257.955h-50.924c13.442,15.752,21.561,36.184,21.561,58.514
		c0,22.331-8.119,42.762-21.561,58.514h50.924c8.66-17.66,13.529-37.517,13.529-58.514S384.222,275.616,375.563,257.955
		L375.563,257.955z"/>
	<circle style="fill:#F26867;" cx="137.742" cy="69.902" r="22.386"/>
	<circle style="fill:#EEE06F;" cx="182.961" cy="69.902" r="22.386"/>
	<g>
		<path style="fill:#241C73;" d="M332.796,437.389c41.026-26.11,66.437-72.261,66.437-120.92
			c0-77.859-65.371-143.232-143.232-143.232c-78.978,0-143.232,64.253-143.232,143.232s64.253,143.232,143.232,143.232
			C283.305,459.701,309.861,451.987,332.796,437.389L332.796,437.389z M316.923,264.539c12.338,14.459,19.133,32.901,19.133,51.93
			c0,19.029-6.795,37.472-19.133,51.93c-15.253,17.874-37.459,28.125-60.924,28.125c-44.143,0-80.056-35.913-80.056-80.056
			s35.913-80.056,80.056-80.056C279.465,236.412,301.671,246.664,316.923,264.539z M343.908,268.096h25.158
			c6.562,15.276,9.884,31.519,9.884,48.372c0,16.853-3.322,33.096-9.884,48.372h-25.158c8.098-14.721,12.431-31.361,12.431-48.372
			C356.339,299.457,352.006,282.818,343.908,268.096z M133.051,316.469c0-67.795,55.154-122.949,122.949-122.949
			c23.441,0,46.231,6.618,65.905,19.141c14.388,9.156,26.656,21.137,36.102,35.153h-28.839
			C310.218,227.62,283.817,216.13,256,216.13c-55.327,0-100.339,45.012-100.339,100.339S200.674,416.808,256,416.808
			c27.817,0,54.217-11.489,73.168-31.684h28.839c-9.446,14.017-21.715,25.998-36.102,35.153
			c-19.674,12.523-42.464,19.141-65.905,19.141C188.206,439.418,133.051,384.263,133.051,316.469L133.051,316.469z"/>
		<path style="fill:#241C73;" d="M446.064,35.25C446.064,15.813,432.416,0,415.64,0H96.36C79.584,0,65.936,15.813,65.936,35.25
			v330.344c0,13.022,20.283,13.041,20.283,0V139.804h339.562v342.951c0,4.942-4.549,8.962-10.141,8.962H96.36
			c-5.592,0-10.141-4.02-10.141-8.962v-39.157c0-13.022-20.283-13.041-20.283,0v39.157C65.936,498.88,79.584,512,96.36,512H415.64
			c16.776,0,30.424-13.12,30.424-29.245V35.25z M425.781,119.521H86.219V35.25c0-7.972,4.739-14.967,10.141-14.967H415.64
			c5.402,0,10.141,6.994,10.141,14.967V119.521z"/>
		<path style="fill:#241C73;" d="M182.961,37.375c-8.779,0-16.752,3.502-22.609,9.175c-5.858-5.673-13.83-9.175-22.609-9.175
			c-17.936,0-32.528,14.592-32.528,32.527s14.592,32.528,32.528,32.528c8.779,0,16.752-3.502,22.609-9.175
			c5.858,5.673,13.83,9.175,22.609,9.175c17.936,0,32.528-14.593,32.528-32.528S200.897,37.375,182.961,37.375z M137.742,82.147
			c-6.751,0-12.245-5.493-12.245-12.245c0-6.751,5.494-12.244,12.245-12.244s12.245,5.493,12.245,12.244
			C149.987,76.654,144.493,82.147,137.742,82.147z M182.961,82.147c-6.752,0-12.245-5.493-12.245-12.245
			c0-6.751,5.493-12.244,12.245-12.244c6.752,0,12.245,5.493,12.245,12.244C195.205,76.654,189.713,82.147,182.961,82.147z"/>
		<path style="fill:#241C73;" d="M396.058,41.949h-59.487c-13.022,0-13.041,20.283,0,20.283h59.487
			C409.08,62.232,409.098,41.949,396.058,41.949z"/>
		<path style="fill:#241C73;" d="M396.058,77.572H294.341c-13.022,0-13.041,20.283,0,20.283h101.717
			C409.08,97.855,409.098,77.572,396.058,77.572z"/>
		<path style="fill:#241C73;" d="M284.975,55.969c2.125,5.096,8.131,7.609,13.245,5.487c5.098-2.117,7.608-8.14,5.487-13.246
			c-2.119-5.1-8.14-7.605-13.245-5.486C285.37,44.838,282.848,50.868,284.975,55.969z"/>
		<path style="fill:#241C73;" d="M67.643,410.25c5.057,7.512,17.054,4.867,18.455-4.075c1.449-9.246-9.914-15.308-16.829-9.065
			C65.587,400.436,64.897,406.131,67.643,410.25z"/>
	</g>
</g>
</svg>
