<?xml version="1.0" encoding="iso-8859-1"?>
<!-- Generator: Adobe Illustrator 24.3.0, SVG Export Plug-In . SVG Version: 6.00 Build 0)  -->
<svg version="1.1" id="Layer_1" xmlns="http://www.w3.org/2000/svg" xmlns:xlink="http://www.w3.org/1999/xlink" x="0px" y="0px"
	 viewBox="0 0 512 512" style="enable-background:new 0 0 512 512;" xml:space="preserve">
<g>
	<g id="XMLID_1410_">
		<path id="XMLID_1408_" style="fill:#86a570;" d="M228.884,20.233c8.046,8.046,21.091,8.046,29.137,0
			c13.673-13.673,35.841-13.673,49.514,0c8.046,8.046,21.091,8.046,29.137,0l0.123-0.123c6.002-6.002,15.985,0.256,13.199,8.274
			L327.68,92.602h-89.567l-22.422-64.079C212.885,20.502,222.876,14.224,228.884,20.233L228.884,20.233z"/>
		<path id="XMLID_1399_" style="fill:#86a570;" d="M399.642,166.128l-73.526-73.526h-86.442l-73.526,73.526
			c-64.478,64.478-64.478,169.016,0,233.494c64.477,64.478,169.016,64.478,233.494,0S464.12,230.605,399.642,166.128z"/>
	</g>
	<path id="XMLID_1411_" style="fill:#FFBF9E;" d="M98,501.98h194.231c38.565,0,75.61-15.036,103.265-41.914l97.919-95.165
		c16.199-15.744,8.283-43.19-13.813-47.888c-8.779-1.867-17.923,0.55-24.633,6.51l-98.108,87.134
		c-16.524,14.675-37.856,22.781-59.955,22.781l-102.386-31.16l93.786,29.823c12.446,3.958,25.986-1.082,32.816-12.214
		c8.811-14.361,3.256-33.192-11.94-40.47l-70.595-33.812c-28.617-13.706-61.559-15.269-91.345-4.332L98.199,359.28L98,501.98z"/>
	<path id="XMLID_1218_" style="fill:#F26867;" d="M79.333,345.98H28.667C18.358,345.98,10,354.337,10,364.647v118.667
		c0,10.309,8.357,18.667,18.667,18.667h50.667c10.309,0,18.667-8.357,18.667-18.667V364.647C98,354.337,89.643,345.98,79.333,345.98
		z"/>
	<path id="XMLID_1217_" style="fill:#241C73;" d="M510.478,334.044c-3.921-13.596-14.955-23.869-28.795-26.813
		c-8.863-1.887-18.081-0.51-25.953,3.674c4.558-28.345,2.164-57.666-7.215-84.997c-1.793-5.224-7.482-8.001-12.705-6.213
		c-5.224,1.793-8.005,7.481-6.213,12.705c11.078,32.277,11.168,67.685,0.315,100.001l-79.691,70.777
		c-4.917,4.366-10.309,8.068-16.04,11.074c1.62-6.555,1.51-13.496-0.436-20.09c-3.073-10.414-10.452-19.076-20.244-23.766
		l-70.596-33.813c-30.864-14.783-66.988-16.493-99.11-4.7l-7.176,2.635c-19.918-56.267-6.054-118.668,36.6-161.321l70.598-70.597
		h78.157l59.817,59.817c3.906,3.904,10.236,3.904,14.143,0c3.905-3.905,3.905-10.237,0-14.143l-57.154-57.15l20.661-59.458
		c2.77-7.971-0.289-16.667-7.439-21.149c-7.148-4.481-16.31-3.442-22.277,2.522l-0.123,0.123c-4.133,4.135-10.861,4.135-14.994,0
		c-17.551-17.549-46.106-17.549-63.657,0c-2.002,2.003-4.665,3.105-7.497,3.105s-5.495-1.103-7.497-3.105
		c-5.973-5.973-15.14-7.007-22.294-2.512c-7.153,4.494-10.2,13.202-7.409,21.176l20.751,59.304l-67.928,67.927
		c-25.139,25.14-41.85,56.836-48.324,91.661c-5.679,30.54-3.219,61.681,7.076,90.702l-15.765,5.788
		c-5.246-6.82-13.481-11.228-22.73-11.228H28.667C12.86,335.98,0,348.84,0,364.647v118.666c0,15.807,12.86,28.667,28.667,28.667
		h263.564c41.398,0,80.547-15.89,110.234-44.743l97.919-95.165C510.531,362.211,514.398,347.64,510.478,334.044z M243.453,36.267
		c8.174,0,15.859-3.183,21.64-8.963c9.752-9.752,25.62-9.752,35.372,0c5.78,5.78,13.466,8.963,21.64,8.963
		c5.804,0,11.36-1.604,16.164-4.604l-17.7,50.938H245.21L227.411,31.74C232.188,34.69,237.698,36.267,243.453,36.267L243.453,36.267
		z M20,483.313V364.647c0-4.779,3.888-8.667,8.667-8.667h50.666c4.779,0,8.667,3.888,8.667,8.667v118.666
		c0,4.779-3.888,8.667-8.667,8.667H28.667C23.888,491.98,20,488.092,20,483.313z M486.445,357.73l-97.919,95.165
		c-25.934,25.204-60.132,39.085-96.295,39.085H106.657c0.87-2.736,1.343-5.647,1.343-8.667V366.334l42.688-15.674
		c27.087-9.945,57.552-8.503,83.578,3.963l70.596,33.813c4.761,2.28,8.206,6.325,9.7,11.389s0.797,10.333-1.964,14.833
		c-4.436,7.229-13.181,10.481-21.263,7.914l-93.786-29.824c-5.262-1.672-10.886,1.236-12.561,6.5
		c-1.673,5.263,1.236,10.887,6.5,12.561l93.786,29.823c3.863,1.228,7.796,1.818,11.679,1.818c0.468,0,0.934-0.028,1.4-0.045
		c24.051-0.346,47.136-9.274,65.147-25.271L461.609,331c4.317-3.833,10.268-5.405,15.913-4.205
		c6.703,1.426,11.839,6.208,13.738,12.793C493.16,346.171,491.36,352.954,486.445,357.73L486.445,357.73z"/>
	<path id="XMLID_1298_" style="fill:#241C73;" d="M418.739,198.989c2.63,0,5.21-1.06,7.069-2.93c1.86-1.86,2.931-4.431,2.931-7.07
		c0-2.63-1.07-5.2-2.931-7.07c-1.859-1.859-4.439-2.93-7.069-2.93c-2.631,0-5.2,1.07-7.07,2.93c-1.86,1.87-2.93,4.44-2.93,7.07
		c0,2.64,1.069,5.21,2.93,7.07C413.528,197.929,416.108,198.989,418.739,198.989z"/>
	<path style="fill:#EEE06F;" d="M306.33,234.696h-8.62c-0.801-3.601-2.077-7.079-3.793-10.344h12.413
		c3.809,0,6.896-3.087,6.896-6.896c0-3.809-3.087-6.896-6.896-6.896h-51.719c-3.809,0-6.896,3.087-6.896,6.896
		c0,3.809,3.087,6.896,6.896,6.896h14.826c6.283,0.077,11.762,4.29,13.447,10.344h-28.273c-3.809,0-6.896,3.087-6.896,6.896
		c0,3.809,3.087,6.896,6.896,6.896h28.273c-0.69,0-1.379,2.069-2.759,3.103c-2.899,2.665-6.758,4.034-10.689,3.793h-14.826
		c-2.8-0.003-5.351,1.608-6.551,4.137c-1.043,2.642-0.358,5.653,1.724,7.586l36.893,34.824c1.273,1.299,3.008,2.043,4.827,2.069
		c1.964-0.135,3.807-0.995,5.172-2.413c2.535-2.774,2.382-7.068-0.344-9.655l-24.48-23.101c6.686-0.326,13.039-3.014,17.929-7.586
		c3.54-3.625,6.247-7.979,7.93-12.758h8.62c3.809,0,6.896-3.087,6.896-6.896C313.226,237.784,310.139,234.696,306.33,234.696z"/>
</g>
</svg>
