<?xml version="1.0" encoding="iso-8859-1"?>
<!-- Generator: Adobe Illustrator 24.3.0, SVG Export Plug-In . SVG Version: 6.00 Build 0)  -->
<svg version="1.1" id="Layer_1" xmlns="http://www.w3.org/2000/svg" xmlns:xlink="http://www.w3.org/1999/xlink" x="0px" y="0px"
	 viewBox="0 0 512 512" style="enable-background:new 0 0 512 512;" xml:space="preserve">
<path style="fill:#EEE06F;" d="M23.297,422.559h465.406c7.016,0,12.699-5.684,12.699-12.699v-24.496
	c0-7.012-5.684-12.699-12.699-12.699H23.297c-7.012,0-12.699,5.688-12.699,12.699v24.496
	C10.598,416.875,16.285,422.559,23.297,422.559z"/>
<path style="fill:#86a570;" d="M150.871,372.664H40.68v-102.82c0-6.723,5.449-12.172,12.172-12.172h85.844
	c6.727,0,12.176,5.449,12.176,12.172V372.664z"/>
<path style="fill:#86a570;" d="M308.141,372.664H197.945v-102.82c0-6.723,5.453-12.172,12.176-12.172h85.848
	c6.723,0,12.172,5.449,12.172,12.172V372.664z"/>
<path style="fill:#86a570;" d="M471.324,372.664H361.129v-102.82c0-6.723,5.449-12.172,12.172-12.172h85.848
	c6.723,0,12.172,5.449,12.172,12.172v102.82H471.324z"/>
<path style="fill:#FFFFFF;" d="M79.668,422.559H111.5V502H79.668V422.559z"/>
<path style="fill:#FFFFFF;" d="M400.309,422.559h31.836V502h-31.836V422.559z"/>
<path style="fill:#241C73;" d="M502,492h-59.855v-59.441h46.559c12.516,0,22.699-10.18,22.699-22.695v-24.5
	c0-12.516-10.184-22.695-22.699-22.695h-7.379v-92.824c0-12.227-9.945-22.172-22.172-22.172h-85.848
	c-12.227,0-22.172,9.945-22.172,22.172v92.824h-32.992v-92.824c0-12.227-9.949-22.172-22.172-22.172h-85.852
	c-12.223,0-22.172,9.945-22.172,22.172v92.824h-27.078v-92.824c0-12.227-9.945-22.172-22.172-22.172H52.852
	c-12.227,0-22.172,9.945-22.172,22.172v92.824h-7.383c-12.516,0-22.699,10.18-22.699,22.695v24.5
	c0,12.516,10.184,22.695,22.699,22.695h46.371V492H10c-5.523,0-10,4.477-10,10s4.477,10,10,10h207.898c5.523,0,10-4.477,10-10
	s-4.477-10-10-10H121.5v-59.441h268.809V492h-96.207c-5.523,0-10,4.477-10,10s4.477,10,10,10H502c5.523,0,10-4.477,10-10
	S507.523,492,502,492z M371.133,269.844c0-1.199,0.973-2.172,2.172-2.172h85.848c1.195,0,2.172,0.977,2.172,2.172v92.82h-90.191
	V269.844z M207.945,269.844c0-1.199,0.977-2.172,2.172-2.172h85.852c1.195,0,2.172,0.977,2.172,2.172v92.82h-90.191v-92.82H207.945z
	 M50.68,269.844c0-1.199,0.973-2.172,2.172-2.172h85.848c1.195,0,2.172,0.977,2.172,2.172v92.82H50.68V269.844z M20.598,409.859
	v-24.496c0-1.488,1.211-2.699,2.699-2.699h465.406c1.488,0,2.699,1.211,2.699,2.699v24.496c0,1.488-1.211,2.699-2.699,2.699H23.297
	C21.809,412.559,20.598,411.348,20.598,409.859z M101.5,492H89.668v-59.441H101.5V492z M410.309,492v-59.441h11.836V492H410.309z"/>
<g>
	<path style="fill:#FF5D5D;" d="M258,185.207c-37.059,0-67.208-30.149-67.208-67.205c0-37.059,30.149-67.208,67.208-67.208
		s67.208,30.149,67.208,67.208C325.208,155.058,295.059,185.207,258,185.207z"/>
	<path style="fill:#241C73;" d="M258,192c-40.803,0-74.001-33.195-74.001-73.999S217.197,44,258,44s74.001,33.195,74.001,74.001
		C332.001,158.805,298.803,192,258,192z M258,57.587c-33.312,0-60.414,27.102-60.414,60.414s27.102,60.412,60.414,60.412
		s60.414-27.1,60.414-60.412S291.312,57.587,258,57.587z"/>
	<path style="fill:#EEE06F;" d="M258,158.643c-22.411,0-40.642-18.234-40.642-40.642c0-22.411,18.231-40.642,40.642-40.642
		s40.642,18.231,40.642,40.642C298.642,140.409,280.411,158.643,258,158.643z"/>
	<path style="fill:#241C73;" d="M258,165.436c-26.155,0-47.435-21.28-47.435-47.435S231.845,70.566,258,70.566
		s47.435,21.28,47.435,47.435S284.155,165.436,258,165.436z M258,84.153c-18.664,0-33.848,15.185-33.848,33.848
		s15.185,33.848,33.848,33.848s33.848-15.185,33.848-33.848S276.664,84.153,258,84.153z"/>
	<path style="fill:#241C73;" d="M274.485,129.46H258c-3.752,0-6.793-3.044-6.793-6.793v-21.861c0-3.752,3.041-6.793,6.793-6.793
		s6.793,3.041,6.793,6.793v15.068h9.691c3.752,0,6.793,3.041,6.793,6.793C281.278,126.416,278.237,129.46,274.485,129.46z"/>
</g>
</svg>
