<?xml version="1.0" encoding="iso-8859-1"?>
<!-- Generator: Adobe Illustrator 24.3.0, SVG Export Plug-In . SVG Version: 6.00 Build 0)  -->
<svg version="1.1" id="Layer_1" xmlns="http://www.w3.org/2000/svg" xmlns:xlink="http://www.w3.org/1999/xlink" x="0px" y="0px"
	 viewBox="0 0 476 476" style="enable-background:new 0 0 476 476;" xml:space="preserve">
<path style="fill:#EEE06F;" d="M287.706,226.235l-94.928-107.79l-32.943,0.593l47.952,107.197"/>
<path style="fill:#86a570;" d="M462.269,270.604l-33.263-19.406l1.717,3.43c1.975,3.949,0.375,8.753-3.578,10.724l-15.984,7.992
	c-1.108,0.554-2.334,0.843-3.575,0.843h-31.968v-15.984h30.083l7.145-3.575l-8.456-16.936
	c-16.565-7.531-34.547-11.438-52.748-11.457H79.916l-39.96-79.919H7.988l15.984,95.903l-7.087,3.539
	c-6.337,3.141-9.877,10.056-8.726,17.034c1.147,6.977,6.72,12.39,13.728,13.334l145.939,20.109l71.928,9.92l71.643,6.513
	c24.132,1.74,48.369,1.331,72.431-1.225l21.123-2.638c14.072-1.76,27.827-5.487,40.861-11.075l15.184-6.505
	c4.015-1.721,6.72-5.557,6.989-9.92C468.255,276.945,466.042,272.805,462.269,270.604z"/>
<g>
	<path style="fill:#00BBD6;" d="M405.701,258.202h-30.083v15.984h31.968c1.237,0.012,2.462-0.261,3.575-0.8l15.984-7.992
		c3.953-1.975,5.553-6.774,3.578-10.727l-1.717-3.426l-12.948-7.555c-3.785-2.185-7.684-4.172-11.676-5.951l8.464,16.932
		L405.701,258.202z"/>
	<path style="fill:#00BBD6;" d="M103.891,242.218h15.984v15.984h-15.984V242.218z"/>
	<path style="fill:#00BBD6;" d="M135.859,242.218h15.984v15.984h-15.984V242.218z"/>
	<path style="fill:#00BBD6;" d="M167.827,242.218h15.984v15.984h-15.984V242.218z"/>
	<path style="fill:#00BBD6;" d="M199.795,242.218h15.984v15.984h-15.984V242.218z"/>
	<path style="fill:#00BBD6;" d="M231.763,242.218h15.984v15.984h-15.984V242.218z"/>
	<path style="fill:#00BBD6;" d="M263.73,242.218h15.984v15.984H263.73V242.218z"/>
	<path style="fill:#00BBD6;" d="M295.698,242.218h15.984v15.984h-15.984V242.218z"/>
</g>
<path style="fill:#EEE06F;" d="M183.811,274.186l87.911,7.992L127.867,410.049l-31.968-7.992L183.811,274.186z"/>
<g>
	<path style="fill:#241C73;" d="M20.776,284.016l133.865,18.466l-65.325,95.049c-1.483,2.158-1.815,4.905-0.886,7.352
		c0.925,2.451,2.989,4.289,5.53,4.925l31.968,7.992c2.564,0.644,5.28-0.02,7.254-1.776l113.831-101.183l63.655,5.783
		c8.16,0.745,18.384,1.097,28.94,1.097c15.102,0.082,30.2-0.702,45.212-2.349l21.123-2.638c14.813-1.85,29.295-5.775,43.019-11.66
		l15.184-6.505c6.79-2.911,11.364-9.397,11.816-16.772c0.457-7.375-3.286-14.376-9.666-18.095l-46.211-26.957
		c-20.776-12.109-44.393-18.493-68.443-18.501H291.32l-92.54-105.082c-1.584-1.713-3.809-2.697-6.146-2.708l-32.939,0.593
		c-2.697,0.043-5.186,1.436-6.626,3.715c-1.444,2.275-1.643,5.124-0.527,7.578l42.914,95.903h-110.6L47.152,142.74
		c-1.362-2.724-4.152-4.437-7.196-4.417H7.988c-2.349,0-4.577,1.034-6.095,2.825c-1.518,1.795-2.17,4.168-1.783,6.482l15.008,90.077
		l-1.807,0.905c-9.436,4.722-14.704,15.036-12.991,25.451C2.033,274.479,10.322,282.564,20.776,284.016z M125.709,401.257
		l-16.702-4.179l78.737-114.525l64.88,5.896l-11.055,9.822l-1.093-0.109l-0.105,1.155L125.709,401.257z M172.065,126.796
		l17.166-0.312l80.79,91.759h-57.052L172.065,126.796z M31.855,240.899l-14.427-86.592h17.584l37.743,75.498
		c1.358,2.712,4.129,4.425,7.161,4.421h271.726c20.573,0.02,40.791,5.331,58.718,15.422l2.486,4.979l-7.145,3.575h-30.083v15.984
		h31.968c1.237,0.012,2.462-0.261,3.575-0.8l15.984-7.992c1.612-0.847,2.88-2.22,3.594-3.895l27.504,16.05
		c1.178,0.675,1.873,1.959,1.787,3.317c-0.082,1.358-0.929,2.548-2.181,3.075l-15.184,6.505
		c-12.347,5.292-25.377,8.823-38.703,10.493l-21.123,2.638c-23.492,2.505-47.16,2.903-70.722,1.19l-48.752-4.425l13.643-12.125
		c2.451-2.103,3.399-5.471,2.4-8.538c-0.999-3.071-3.746-5.237-6.962-5.494l-87.911-7.992c-2.88-0.261-5.67,1.054-7.305,3.434
		l-12.437,18.142l-141.818-19.59c-3.512-0.488-6.302-3.208-6.876-6.712c-0.578-3.5,1.194-6.97,4.367-8.558l7.083-3.543
		C30.688,247.799,32.436,244.361,31.855,240.899z"/>
	<path style="fill:#241C73;" d="M103.891,242.218h15.984v15.984h-15.984V242.218z"/>
	<path style="fill:#241C73;" d="M135.859,242.218h15.984v15.984h-15.984V242.218z"/>
	<path style="fill:#241C73;" d="M167.827,242.218h15.984v15.984h-15.984V242.218z"/>
	<path style="fill:#241C73;" d="M199.795,242.218h15.984v15.984h-15.984V242.218z"/>
	<path style="fill:#241C73;" d="M231.763,242.218h15.984v15.984h-15.984V242.218z"/>
	<path style="fill:#241C73;" d="M263.73,242.218h15.984v15.984H263.73V242.218z"/>
	<path style="fill:#241C73;" d="M295.698,242.218h15.984v15.984h-15.984V242.218z"/>
</g>
</svg>
