<?xml version="1.0" encoding="iso-8859-1"?>
<!-- Generator: Adobe Illustrator 24.3.0, SVG Export Plug-In . SVG Version: 6.00 Build 0)  -->
<svg version="1.1" id="Capa_1" xmlns="http://www.w3.org/2000/svg" xmlns:xlink="http://www.w3.org/1999/xlink" x="0px" y="0px"
	 viewBox="0 0 512 512" style="enable-background:new 0 0 512 512;" xml:space="preserve">
<path style="fill:#86a570;" d="M344,428.08V484c0,4.488-3.6,8-8,8H16c-4.4,0-8-3.512-8-8v-56c0-35.36,28.64-64,64-64l48,0.08
	L144,380l32-16l32,16l24-15.92V364l48,0.08C315.36,364.08,344,392.64,344,428.08z"/>
<path style="fill:#F26867;" d="M296,116.08V164l-32-32c0,0-40,24-88,24s-88-24-88-24l-32,32v-40c0-57.44,46.48-104,104-104h80v40.08
	C270.96,60.08,296,85.128,296,116.08z"/>
<path style="fill:#EAC6BB;" d="M296,164v48c0,46.08-25.92,86.08-64,106.16c-16.72,8.808-35.76,13.84-56,13.84s-39.28-5.04-56-13.84
	C81.92,298.08,56,258.08,56,212v-48l32-32c0,0,40,24,88,24s88-24,88-24L296,164z"/>
<path style="fill:#F5F7FA;" d="M232,364v0.08L208,380l-32-16l-32,16l-24-15.92v-45.92c16.72,8.808,35.76,13.84,56,13.84
	s39.28-5.04,56-13.84V364z"/>
<rect x="368" y="404" style="fill:#EEE06F;" width="48" height="88"/>
<polygon style="fill:#E6E9ED;" points="488,370.88 488,492 416,492 416,404 368,404 368,492 304,492 296,492 296,370.88 392,316 "/>
<polygon style="fill:#EEE06F;" points="296,370.88 280,380 280,364 280,348 392,284 504,348 504,380 488,370.88 392,316 "/>
<g>
	<path style="fill:#241C73;" d="M8,436.008c-4.424,0-8-3.576-8-8c0-39.704,32.296-72,72-72c4.424,0,8,3.576,8,8s-3.576,8-8,8
		c-30.872,0-56,25.128-56,56C16,432.432,12.424,436.008,8,436.008z"/>
	<path style="fill:#241C73;" d="M120,372.016L120,372.016l-48-0.008c-4.424,0-8-3.584-8-8c0-4.424,3.584-8,8-8l0,0l48,0.008
		c4.424,0,8,3.584,8,8C128,368.44,124.416,372.016,120,372.016z"/>
	<path style="fill:#241C73;" d="M280,372.016L280,372.016L232,372c-4.424,0-8-3.584-8-8c0-4.424,3.584-8,8-8l0,0l48,0.016
		c4.424,0,8,3.584,8,8C288,368.44,284.416,372.016,280,372.016z"/>
	<path style="fill:#241C73;" d="M8.008,492c-4.416,0-8-3.576-8-8L0,428.008c0-4.416,3.576-8,8-8c4.416,0,8,3.576,8,8L16.008,484
		C16.008,488.416,12.432,492,8.008,492z"/>
	<path style="fill:#241C73;" d="M16.008,500c-8.824,0-16-7.176-16-16c0-4.424,3.576-8,8-8s8,3.576,8,8v0.016
		c4.424,0,8,3.568,8,7.992C24.008,496.424,20.432,500,16.008,500z"/>
	<path style="fill:#241C73;" d="M304,500H16.008c-4.424,0-8-3.576-8-8s3.576-8,8-8H304c4.424,0,8,3.576,8,8S308.424,500,304,500z"/>
	<path style="fill:#241C73;" d="M120,372.016c-4.424,0-8-3.576-8-8v-45.848c0-4.424,3.576-8,8-8s8,3.576,8,8v45.848
		C128,368.44,124.424,372.016,120,372.016z"/>
	<path style="fill:#241C73;" d="M232,372c-4.424,0-8-3.576-8-8v-45.832c0-4.424,3.576-8,8-8s8,3.576,8,8V364
		C240,368.424,236.424,372,232,372z"/>
	<path style="fill:#241C73;" d="M176,340.008c-70.576,0-128-57.424-128-128c0-4.424,3.576-8,8-8s8,3.576,8,8
		c0,61.76,50.24,112,112,112s112-50.24,112-112c0-4.424,3.576-8,8-8s8,3.576,8,8C304,282.584,246.576,340.008,176,340.008z"/>
	<path style="fill:#241C73;" d="M56,220.008c-4.424,0-8-3.576-8-8V124c0-4.424,3.576-8,8-8s8,3.576,8,8v88.008
		C64,216.432,60.424,220.008,56,220.008z"/>
	<path style="fill:#241C73;" d="M296,220.008c-4.424,0-8-3.576-8-8v-95.992c0-4.424,3.576-8,8-8s8,3.576,8,8v95.992
		C304,216.432,300.424,220.008,296,220.008z"/>
	<path style="fill:#241C73;" d="M296,124.016c-4.424,0-8-3.576-8-8c0-26.472-21.528-48-48-48c-4.424,0-8-3.576-8-8s3.576-8,8-8
		c35.288,0,64,28.712,64,64C304,120.44,300.424,124.016,296,124.016z"/>
	<path style="fill:#241C73;" d="M240,68.016c-4.424,0-8-3.576-8-8V20c0-4.424,3.576-8,8-8s8,3.576,8,8v40.016
		C248,64.44,244.424,68.016,240,68.016z"/>
	<path style="fill:#241C73;" d="M240,28h-80c-4.424,0-8-3.576-8-8s3.576-8,8-8h80c4.424,0,8,3.576,8,8S244.424,28,240,28z"/>
	<path style="fill:#241C73;" d="M56,132c-4.424,0-8-3.576-8-8C48,62.24,98.24,12,160,12c4.424,0,8,3.576,8,8s-3.576,8-8,8
		c-52.936,0-96,43.064-96,96C64,128.424,60.424,132,56,132z"/>
	<path style="fill:#241C73;" d="M296,172c-2.048,0-4.096-0.784-5.656-2.344l-32-32c-3.128-3.128-3.128-8.184,0-11.312
		c3.128-3.128,8.184-3.128,11.312,0l32,32c3.128,3.128,3.128,8.184,0,11.312C300.096,171.216,298.048,172,296,172z"/>
	<path style="fill:#241C73;" d="M176,164c-49.648,0-90.408-24.12-92.12-25.144c-3.784-2.272-5.008-7.176-2.744-10.968
		c2.264-3.776,7.152-5.024,10.968-2.76C92.496,125.368,130.912,148,176,148s83.504-22.632,83.888-22.864
		c3.824-2.264,8.704-1.016,10.968,2.76c2.264,3.792,1.04,8.696-2.744,10.968C266.408,139.88,225.648,164,176,164z"/>
	<path style="fill:#241C73;" d="M56,172c-2.048,0-4.096-0.784-5.656-2.344c-3.128-3.128-3.128-8.184,0-11.312l32-32
		c3.128-3.128,8.184-3.128,11.312,0c3.128,3.128,3.128,8.184,0,11.312l-32,32C60.096,171.216,58.048,172,56,172z"/>
	<path style="fill:#241C73;" d="M143.992,388c-1.52,0-3.064-0.44-4.432-1.344l-24-15.984c-3.672-2.448-4.672-7.416-2.216-11.096
		c2.44-3.672,7.4-4.664,11.096-2.216l24,15.984c3.672,2.448,4.672,7.416,2.216,11.096C149.12,386.752,146.576,388,143.992,388z"/>
	<path style="fill:#241C73;" d="M144.008,388c-2.936,0-5.76-1.616-7.168-4.424c-1.976-3.952-0.376-8.76,3.576-10.736l32-16
		c3.944-1.968,8.752-0.376,10.736,3.576c1.976,3.952,0.376,8.76-3.576,10.736l-32,16C146.432,387.728,145.208,388,144.008,388z"/>
	<path style="fill:#241C73;" d="M208.008,388c-2.584,0-5.128-1.248-6.664-3.56c-2.456-3.68-1.456-8.648,2.216-11.096l24-15.984
		c3.68-2.448,8.648-1.456,11.096,2.216c2.456,3.68,1.456,8.648-2.216,11.096l-24,15.984C211.072,387.56,209.528,388,208.008,388z"/>
	<path style="fill:#241C73;" d="M207.992,388c-1.2,0-2.424-0.272-3.568-0.84l-32-16c-3.952-1.976-5.552-6.784-3.576-10.736
		c1.984-3.952,6.784-5.544,10.736-3.576l32,16c3.952,1.976,5.552,6.784,3.576,10.736C213.752,386.384,210.928,388,207.992,388z"/>
	<path style="fill:#241C73;" d="M176.24,420c-4.424,0-8.04-3.576-8.04-8s3.536-8,7.952-8h0.088c4.416,0,8,3.576,8,8
		S180.656,420,176.24,420z"/>
	<path style="fill:#241C73;" d="M176.24,460c-4.424,0-8.04-3.576-8.04-8s3.536-8,7.952-8h0.088c4.416,0,8,3.576,8,8
		S180.656,460,176.24,460z"/>
	<path style="fill:#241C73;" d="M280.008,356c-2.784,0-5.48-1.448-6.952-4.032c-2.192-3.832-0.856-8.72,2.976-10.912l112-64
		c3.832-2.216,8.72-0.856,10.912,2.976s0.856,8.72-2.976,10.912l-112,64C282.72,355.664,281.352,356,280.008,356z"/>
	<path style="fill:#241C73;" d="M503.992,356c-1.344,0-2.712-0.336-3.96-1.056l-112-64c-3.832-2.192-5.168-7.08-2.976-10.912
		c2.184-3.832,7.072-5.192,10.912-2.976l112,64c3.832,2.192,5.168,7.08,2.976,10.912C509.472,354.552,506.776,356,503.992,356z"/>
	<path style="fill:#241C73;" d="M280.008,388c-2.784,0-5.48-1.448-6.952-4.032c-2.192-3.832-0.856-8.72,2.976-10.912l112-64
		c3.832-2.208,8.72-0.856,10.912,2.976s0.856,8.72-2.976,10.912l-112,64C282.72,387.664,281.352,388,280.008,388z"/>
	<path style="fill:#241C73;" d="M503.992,388c-1.344,0-2.712-0.336-3.96-1.056l-112-64c-3.832-2.192-5.168-7.08-2.976-10.912
		c2.184-3.832,7.072-5.184,10.912-2.976l112,64c3.832,2.192,5.168,7.08,2.976,10.912C509.472,386.552,506.776,388,503.992,388z"/>
	<path style="fill:#241C73;" d="M280,388c-4.424,0-8-3.576-8-8v-32c0-4.424,3.576-8,8-8s8,3.576,8,8v32
		C288,384.424,284.424,388,280,388z"/>
	<path style="fill:#241C73;" d="M504,388c-4.424,0-8-3.576-8-8v-32c0-4.424,3.576-8,8-8s8,3.576,8,8v32
		C512,384.424,508.424,388,504,388z"/>
	<path style="fill:#241C73;" d="M296,500c-4.424,0-8-3.576-8-8V370.848c0-4.424,3.576-8,8-8s8,3.576,8,8V492
		C304,496.424,300.424,500,296,500z"/>
	<path style="fill:#241C73;" d="M488,500H296c-4.424,0-8-3.576-8-8s3.576-8,8-8h192c4.424,0,8,3.576,8,8S492.424,500,488,500z"/>
	<path style="fill:#241C73;" d="M488,500c-4.416,0-8-3.576-8-8l-0.008-121.152c0-4.416,3.576-8,8-8c4.416,0,8,3.576,8,8L496,492
		C496,496.416,492.424,500,488,500z"/>
	<path style="fill:#241C73;" d="M416,500h-48c-4.424,0-8-3.576-8-8v-88c0-4.424,3.576-8,8-8h48c4.424,0,8,3.576,8,8v88
		C424,496.424,420.424,500,416,500z M376,484h32v-72h-32V484z"/>
	<path style="fill:#241C73;" d="M384.24,452c-4.424,0-8.04-3.576-8.04-8s3.536-8,7.952-8h0.088c4.416,0,8,3.576,8,8
		S388.656,452,384.24,452z"/>
</g>
</svg>
