<?xml version="1.0" encoding="iso-8859-1"?>
<!-- Generator: Adobe Illustrator 24.3.0, SVG Export Plug-In . SVG Version: 6.00 Build 0)  -->
<svg version="1.1" id="Layer_1" xmlns="http://www.w3.org/2000/svg" xmlns:xlink="http://www.w3.org/1999/xlink" x="0px" y="0px"
	 viewBox="0 0 512 512" style="enable-background:new 0 0 512 512;" xml:space="preserve">
<g>
	<path style="fill:#F26867;" d="M192,88h96v168h-96V88z"/>
	<path style="fill:#30B44A;" d="M112,360c-0.004,26.51-21.497,47.997-48.007,47.993C37.484,407.99,15.996,386.496,16,359.987
		c0.002-17.455,9.48-33.532,24.75-41.987c-12.143-12.841-11.578-33.094,1.263-45.237s33.094-11.578,45.237,1.263
		c11.667,12.337,11.667,31.638,0,43.974C102.53,326.451,112.01,342.539,112,360z"/>
	<path style="fill:#30B44A;" d="M496,360c-0.004,26.51-21.497,47.997-48.007,47.993c-26.51-0.004-47.997-21.497-47.993-48.007
		c0.002-17.455,9.48-33.532,24.75-41.987c-12.143-12.841-11.578-33.094,1.263-45.237s33.094-11.578,45.237,1.263
		c11.667,12.337,11.667,31.638,0,43.974C486.53,326.451,496.01,342.539,496,360z"/>
	<path style="fill:#FFFFFF;" d="M160,176c0,8.837-7.163,16-16,16H48c-8.837,0-16-7.163-16-16s7.163-16,16-16h5.333
		c0-17.673,14.327-32,32-32s32,14.327,32,32H144C152.837,160,160,167.163,160,176z"/>
	<path style="fill:#FFFFFF;" d="M496,140c0,11.046-8.954,20-20,20H356c-11.046,0-20-8.954-20-20s8.954-20,20-20h6.667
		c0-22.091,17.909-40,40-40s40,17.909,40,40H476C487.046,120,496,128.954,496,140z"/>
	<path style="fill:#EEE06F;" d="M368,472H224V152l144-80V472z"/>
	<path style="fill:#86a570;" d="M224,472l-88-2V256h88V472z"/>
	<g>
		<path style="fill:#86a570;" d="M248,376h96v96h-96V376z"/>
		<path style="fill:#86a570;" d="M248,304h96v40h-96V304z"/>
		<path style="fill:#86a570;" d="M248,240h96v40h-96V240z"/>
	</g>
	<path style="fill:#86a570;" d="M248,176h96v40h-96V176z"/>
	<path style="fill:#F26867;" d="M160,280h40v40h-40V280z"/>
	<path style="fill:#EEE06F;" d="M160,344h40v40h-40V344z"/>
	<path style="fill:#EEE06F;" d="M160,408h40v40h-40V408z"/>
	<path style="fill:#241C73;" d="M482.654,316.007c11.033-19.139,4.462-43.598-14.676-54.632
		c-19.139-11.033-43.598-4.462-54.632,14.676c-7.128,12.365-7.128,27.59,0,39.955c-24.293,19.141-28.47,54.351-9.329,78.645
		c8.888,11.28,21.77,18.715,35.983,20.767v11.637l-20.422-10.211c-3.936-2.007-8.754-0.443-10.761,3.493
		c-2.007,3.936-0.443,8.754,3.493,10.761c0.037,0.019,0.074,0.037,0.112,0.056L440,444.944V464h-64V168h100
		c15.464,0,28-12.536,28-28s-12.536-28-28-28h-26c-4.404-26.126-29.153-43.734-55.279-39.331
		c-6.697,1.129-13.078,3.667-18.721,7.447V72c0-4.418-3.582-8-8-8c-1.359,0-2.696,0.347-3.885,1.007L296,102.848V88
		c0-4.418-3.582-8-8-8h-40V56c0-4.418-3.582-8-8-8s-8,3.582-8,8v24h-40c-4.418,0-8,3.582-8,8v160h-48c-4.418,0-8,3.582-8,8v208H72
		v-48.581c30.61-4.42,51.842-32.818,47.421-63.429c-2.053-14.214-9.487-27.095-20.767-35.983
		c11.033-19.139,4.462-43.598-14.677-54.632s-43.598-4.462-54.631,14.677c-7.128,12.365-7.128,27.59,0,39.955
		c-24.293,19.141-28.47,54.351-9.329,78.645c8.888,11.28,21.77,18.715,35.983,20.767v11.637l-20.422-10.211
		c-3.936-2.007-8.754-0.443-10.761,3.493s-0.443,8.754,3.493,10.761c0.037,0.019,0.074,0.038,0.112,0.056L56,444.944V464H16
		c-4.418,0-8,3.582-8,8s3.582,8,8,8h448c4.418,0,8-3.582,8-8s-3.582-8-8-8h-8v-48.581c30.61-4.42,51.842-32.818,47.421-63.429
		C501.369,337.777,493.934,324.895,482.654,316.007L482.654,316.007z M24,360c0.007-14.548,7.904-27.947,20.628-35
		c3.865-2.14,5.264-7.008,3.124-10.874c-0.327-0.59-0.727-1.137-1.19-1.626c-9.107-9.631-8.683-24.821,0.948-33.928
		s24.821-8.683,33.928,0.948c8.749,9.252,8.749,23.727,0,32.98c-3.038,3.208-2.9,8.271,0.308,11.31
		c0.49,0.464,1.036,0.864,1.626,1.19c19.331,10.701,26.327,35.047,15.626,54.378C93.331,389.616,83.465,396.859,72,399.2V368
		c0-4.418-3.582-8-8-8s-8,3.582-8,8v31.2C37.388,395.374,24.022,379.001,24,360z M402.67,88c17.665,0.02,31.98,14.335,32,32
		c0,4.418,3.582,8,8,8H476c6.627,0,12,5.373,12,12s-5.373,12-12,12H376v-49.7C381.951,93.386,391.952,88.023,402.67,88z M200,96h80
		v15.737l-59.885,33.27c-2.54,1.411-4.115,4.088-4.115,6.993v96h-16L200,96z M144,264h72v199.816l-72-1.636V264z M256,464v-80h32v80
		H256z M304,464v-80h32v80H304z M352,464v-88c0-4.418-3.582-8-8-8h-96c-4.418,0-8,3.582-8,8v88h-8V156.707L360,85.6V464H352z
		 M456,399.2V368c0-4.418-3.582-8-8-8s-8,3.582-8,8v31.2c-21.649-4.421-35.615-25.554-31.194-47.202
		c2.341-11.465,9.584-21.331,19.822-26.998c3.865-2.14,5.264-7.008,3.124-10.874c-0.327-0.59-0.727-1.137-1.19-1.626
		c-9.107-9.631-8.683-24.821,0.948-33.928c9.631-9.107,24.821-8.683,33.928,0.948c8.749,9.252,8.749,23.727,0,32.98
		c-3.038,3.208-2.9,8.271,0.308,11.31c0.49,0.464,1.036,0.864,1.626,1.19c19.331,10.701,26.327,35.047,15.626,54.378
		C477.331,389.616,467.465,396.859,456,399.2L456,399.2z"/>
	<path style="fill:#241C73;" d="M48,200h96c13.255,0,24-10.745,24-24s-10.745-24-24-24h-19.47
		c-4.42-21.647-25.552-35.613-47.2-31.192c-15.735,3.213-28.023,15.524-31.207,31.264c-13.215,1.026-23.096,12.571-22.07,25.786
		C25.023,190.362,35.458,200.01,48,200z M42.336,170.351c1.499-1.507,3.538-2.354,5.664-2.351h5.333c4.418,0,8-3.582,8-8
		c0-13.255,10.745-24,24-24s24,10.745,24,24c0,4.418,3.582,8,8,8H144c4.418,0,8,3.582,8,8s-3.582,8-8,8H48
		c-4.418,0-8-3.582-7.999-8.001C40.001,173.882,40.841,171.85,42.336,170.351z"/>
	<path style="fill:#241C73;" d="M344,296h-96c-4.418,0-8,3.582-8,8v40c0,4.418,3.582,8,8,8h96c4.418,0,8-3.582,8-8v-40
		C352,299.582,348.418,296,344,296z M336,336h-80v-24h80V336z"/>
	<path style="fill:#241C73;" d="M344,232h-96c-4.418,0-8,3.582-8,8v40c0,4.418,3.582,8,8,8h96c4.418,0,8-3.582,8-8v-40
		C352,235.582,348.418,232,344,232z M336,272h-80v-24h80V272z"/>
	<path style="fill:#241C73;" d="M344,168h-96c-4.418,0-8,3.582-8,8v40c0,4.418,3.582,8,8,8h96c4.418,0,8-3.582,8-8v-40
		C352,171.582,348.418,168,344,168z M336,208h-80v-24h80V208z"/>
	<path style="fill:#241C73;" d="M200,272h-40c-4.418,0-8,3.582-8,8v40c0,4.418,3.582,8,8,8h40c4.418,0,8-3.582,8-8v-40
		C208,275.582,204.418,272,200,272z M192,312h-24v-24h24V312z"/>
	<path style="fill:#241C73;" d="M200,336h-40c-4.418,0-8,3.582-8,8v40c0,4.418,3.582,8,8,8h40c4.418,0,8-3.582,8-8v-40
		C208,339.582,204.418,336,200,336z M192,376h-24v-24h24V376z"/>
	<path style="fill:#241C73;" d="M200,400h-40c-4.418,0-8,3.582-8,8v40c0,4.418,3.582,8,8,8h40c4.418,0,8-3.582,8-8v-40
		C208,403.582,204.418,400,200,400z M192,440h-24v-24h24V440z"/>
</g>
</svg>
