<?xml version="1.0" encoding="iso-8859-1"?>
<!-- Generator: Adobe Illustrator 24.3.0, SVG Export Plug-In . SVG Version: 6.00 Build 0)  -->
<svg version="1.1" id="Layer_35" xmlns="http://www.w3.org/2000/svg" xmlns:xlink="http://www.w3.org/1999/xlink" x="0px" y="0px"
	 viewBox="0 0 512 512" style="enable-background:new 0 0 512 512;" xml:space="preserve">
<g>
	<path style="fill:#CF9E76;" d="M144,16h48v48h-48V16z"/>
	<path style="fill:#EEE06F;" d="M283.36,64L180.24,179.28c-2.72,3.04-4.24,6.96-4.24,11.04v1.12V192H64H48v-8l64-120h32h48
		L283.36,64z"/>
	<path style="fill:#FFEAA7;" d="M64,288v-96h112c0.16,4.32,2,8.32,4.88,11.12c2.96,3.04,7.12,4.88,11.68,4.88
		c4.72,0,9.2-2,12.4-5.52L224,181.04V208v80H64z"/>
	<path style="fill:#FFEAA7;" d="M448,208v176h-48v-64c0-17.68-7.2-33.68-18.72-45.28C369.68,263.2,353.68,256,336,256
		c-24.48,0-45.76,13.76-56.48,33.92c-2.24-1.28-4.8-1.92-7.52-1.92h-48v-80L448,208z"/>
	<path style="fill:#86a570;" d="M400,320v64H288v-80c0-6.08-3.44-11.44-8.48-14.08c10.72-20.16,32-33.92,56.48-33.92
		c17.68,0,33.68,7.2,45.28,18.72C392.8,286.32,400,302.32,400,320z"/>
	<path style="fill:#F26867;" d="M448,181.04V208H224v-26.96L322.72,70c3.36-3.84,8.16-6,13.28-6s9.92,2.16,13.28,6L448,181.04z"/>
	<path style="fill:#EEE06F;" d="M496,190.32v1.12c0,9.12-7.44,16.56-16.56,16.56c-4.72,0-9.2-2-12.4-5.52L448,181.04L349.28,70
		c-3.36-3.84-8.16-6-13.28-6s-9.92,2.16-13.28,6L224,181.04l-19.04,21.44c-3.2,3.52-7.68,5.52-12.4,5.52
		c-4.56,0-8.72-1.84-11.68-4.88c-2.88-2.8-4.72-6.8-4.88-11.12c0-0.16,0-0.4,0-0.56v-1.12c0-4.08,1.52-8,4.24-11.04L283.36,64
		L296,49.92C306.16,38.48,320.72,32,336,32s29.84,6.48,40,17.92l115.76,129.36C494.48,182.32,496,186.24,496,190.32L496,190.32z"/>
	<path style="fill:#E6E9ED;" d="M48,416h32v80H48V416z"/>
	<path style="fill:#E6E9ED;" d="M224,416h32v80h-32V416z"/>
	<path style="fill:#E6E9ED;" d="M224,416H80H48H32c-8.8,0-16-7.2-16-16v-96c0-8.8,7.2-16,16-16h32h160h48
		c2.72,0,5.28,0.64,7.52,1.92c5.04,2.64,8.48,8,8.48,14.08v80v16c0,8.8-7.2,16-16,16h-16H224z"/>
	<circle style="fill:#86a570;" cx="336" cy="144" r="32"/>
	<path style="fill:#F26867;" d="M64,312H40v80h16v-32h8c4.416,0,8,3.584,8,8v24h16v-24c0-6.168-2.408-11.744-6.24-16
		c3.84-4.256,6.24-9.832,6.24-16C88,322.768,77.232,312,64,312z M56,344v-16h8c4.416,0,8,3.584,8,8s-3.584,8-8,8H56z"/>
	<path style="fill:#F26867;" d="M104,392h32v-16h-16v-16h16v-16h-16v-16h16v-16h-32V392z"/>
	<path style="fill:#F26867;" d="M184,351.016L174.248,312H152v80h16v-39.016L177.752,392H200v-80h-16V351.016z"/>
	<path style="fill:#F26867;" d="M216,328h16v64h16v-64h16v-16h-48V328z"/>
	<path style="fill:#241C73;" d="M497.744,173.944L381.96,44.544C370.272,31.496,353.52,24,336,24s-34.272,7.496-45.96,20.544
		L279.792,56H200V24h16V8h-96v16h16v32h-28.8L40,182v18h16v80H32c-13.232,0-24,10.768-24,24v96c0,13.232,10.768,24,24,24h8v80h48
		v-80h128v80h48v-80h8c13.232,0,24-10.768,24-24v-8h160V202.032l5.088,5.72c4.648,5.24,11.344,8.248,18.352,8.248
		c13.544,0,24.56-11.016,24.56-24.56v-1.112C504,184.272,501.784,178.464,497.744,173.944L497.744,173.944z M152,24h32v32h-32V24z
		 M116.8,72h148.68l-91.224,101.944c-2.592,2.896-4.344,6.368-5.328,10.056H57.072L116.8,72z M72,200h97.624
		c3.488,9.32,12.416,16,22.936,16c7.016,0,13.704-3.008,18.352-8.248l5.088-5.72V280H72V200z M72,488H56v-64h16V488z M248,488h-16
		v-64h16V488z M280,400c0,4.416-3.584,8-8,8H32c-4.416,0-8-3.584-8-8v-96c0-4.416,3.584-8,8-8h240c4.416,0,8,3.584,8,8V400z
		 M289.952,288.24C300.344,273.176,317.424,264,336,264c30.872,0,56,25.128,56,56v56h-96v-72
		C296,297.944,293.672,292.464,289.952,288.24z M408,376v-56c0-39.704-32.296-72-72-72c-24.376,0-46.712,12.32-59.976,32.408
		c-1.32-0.224-2.648-0.408-4.024-0.408h-40v-64h208v160H408z M440,200H232v-15.968l96.664-108.744c3.72-4.168,10.952-4.168,14.672,0
		L440,184.032V200z M488,191.44c0,4.72-3.84,8.56-8.56,8.56c-2.448,0-4.776-1.048-6.392-2.872L355.288,64.664
		C350.4,59.16,343.368,56,336,56s-14.4,3.16-19.288,8.664l-117.76,132.464c-1.616,1.824-3.944,2.872-6.392,2.872
		c-4.72,0-8.56-3.84-8.56-8.56v-1.112c0-2.112,0.776-4.144,2.176-5.712l115.784-129.4C310.616,45.544,323.024,40,336,40
		s25.384,5.544,34.04,15.216l115.784,129.4c1.4,1.568,2.176,3.6,2.176,5.712V191.44z"/>
	<path style="fill:#241C73;" d="M296,144c0,22.056,17.944,40,40,40s40-17.944,40-40s-17.944-40-40-40S296,121.944,296,144z M360,144
		c0,13.232-10.768,24-24,24s-24-10.768-24-24s10.768-24,24-24S360,130.768,360,144z"/>
	<path style="fill:#241C73;" d="M88,248h16v16H88V248z"/>
	<path style="fill:#241C73;" d="M120,248h16v16h-16V248z"/>
	<path style="fill:#241C73;" d="M152,248h16v16h-16V248z"/>
</g>
</svg>
