<?xml version="1.0" encoding="iso-8859-1"?>
<!-- Generator: Adobe Illustrator 24.3.0, SVG Export Plug-In . SVG Version: 6.00 Build 0)  -->
<svg version="1.1" id="Capa_1" xmlns="http://www.w3.org/2000/svg" xmlns:xlink="http://www.w3.org/1999/xlink" x="0px" y="0px"
	 viewBox="0 0 512.008 512.008" style="enable-background:new 0 0 512.008 512.008;" xml:space="preserve">
<g>
	<rect x="167.964" y="191.984" style="fill:#EEE06F;" width="32" height="64"/>
	<polygon style="fill:#EEE06F;" points="263.972,151.984 263.972,183.984 247.964,172.784 183.972,127.984 119.972,172.784 
		103.964,183.984 103.972,151.984 183.972,95.984 	"/>
</g>
<polygon style="fill:#E6E9ED;" points="247.964,172.784 247.964,255.984 199.972,255.984 199.964,191.984 167.972,191.984 
	167.972,255.984 119.972,255.984 119.972,172.784 183.972,127.984 "/>
<polygon style="fill:#F26867;" points="247.964,172.784 247.964,255.984 199.972,255.984 199.964,191.984 167.972,191.984 
	167.972,255.984 119.972,255.984 119.972,172.784 183.972,127.984 "/>
<path style="fill:#E6E9ED;" d="M359.964,184.048c0,89.032-66.136,162.624-151.944,174.328c-7.864,1.08-15.896,1.64-24.048,1.64
	s-16.168-0.544-24.032-1.624C74.068,346.608,7.996,273.08,7.94,183.984C7.94,86.8,86.74,8,183.916,8
	C281.22,8,360.02,86.8,359.964,184.048z M183.98,328.016C263.5,328,327.996,263.512,328.004,183.984
	c0-79.528-64.504-144.032-144.032-144.032c-79.52,0.016-144.016,64.504-144.024,144.032
	C39.948,263.512,104.452,328.016,183.98,328.016z"/>
<path style="fill:#86a570;" d="M263.972,183.984v-32l-80-56l-80,56l-0.008,32l16.008-11.2v83.2h48h32h47.992v-83.2L263.972,183.984z
	 M285.812,82.144c56.224,56.232,56.224,147.44,0,203.688c-56.24,56.232-147.456,56.232-203.696,0
	c-56.224-56.248-56.224-147.456,0-203.688C138.364,25.904,229.572,25.904,285.812,82.144z"/>
<path style="fill:#AAB2BD;" d="M362.684,328.704l-33.992,34l-38.4-38.408c6.32-4.8,12.392-10.08,18.152-15.832
	c5.768-5.768,11.048-11.84,15.84-18.168L362.684,328.704z"/>
<path style="fill:#EEE06F;" d="M328.692,362.704l33.992-34l11.288-11.28l118.32,118.312c15.6,15.608,15.6,40.968,0,56.56
	c-15.68,15.608-40.96,15.608-56.56,0l-118.32-118.312L328.692,362.704z"/>
<g>
	<path style="fill:#241C73;" d="M103.964,160c-2.52,0-5.008-1.184-6.56-3.416c-2.528-3.616-1.656-8.608,1.968-11.144l80-56
		c3.6-2.52,8.608-1.656,11.144,1.968c2.528,3.616,1.656,8.608-1.968,11.144l-80,56C107.148,159.528,105.548,160,103.964,160z"/>
	<path style="fill:#241C73;" d="M263.948,160c-1.584,0-3.176-0.472-4.576-1.448l-80-56c-3.624-2.528-4.504-7.52-1.968-11.144
		c2.528-3.624,7.512-4.496,11.144-1.968l80,56c3.624,2.528,4.504,7.52,1.968,11.144C268.956,158.816,266.468,160,263.948,160z"/>
	<path style="fill:#241C73;" d="M103.964,192c-2.52,0-5.008-1.184-6.56-3.416c-2.528-3.616-1.656-8.608,1.968-11.144l80-56
		c3.6-2.528,8.608-1.656,11.144,1.968c2.528,3.616,1.656,8.608-1.968,11.144l-80,56C107.148,191.528,105.548,192,103.964,192z"/>
	<path style="fill:#241C73;" d="M263.948,192c-1.584,0-3.176-0.472-4.576-1.448l-80-56c-3.624-2.528-4.504-7.52-1.968-11.144
		c2.528-3.624,7.512-4.504,11.144-1.968l80,56c3.624,2.528,4.504,7.52,1.968,11.144C268.956,190.816,266.468,192,263.948,192z"/>
	<path style="fill:#241C73;" d="M103.956,192c-4.424,0-8-3.576-8-8v-32c0-4.424,3.576-8,8-8s8,3.576,8,8v32
		C111.956,188.424,108.38,192,103.956,192z"/>
	<path style="fill:#241C73;" d="M263.956,192c-4.424,0-8-3.576-8-8v-32c0-4.424,3.576-8,8-8s8,3.576,8,8v32
		C271.956,188.424,268.38,192,263.956,192z"/>
	<path style="fill:#241C73;" d="M119.956,264c-4.424,0-8-3.576-8-8v-83.2c0-4.424,3.576-8,8-8s8,3.576,8,8V256
		C127.956,260.424,124.38,264,119.956,264z"/>
	<path style="fill:#241C73;" d="M247.956,264h-128c-4.424,0-8-3.576-8-8s3.576-8,8-8h128c4.424,0,8,3.576,8,8
		C255.956,260.424,252.38,264,247.956,264z"/>
	<path style="fill:#241C73;" d="M247.956,264c-4.424,0-8-3.576-8-8v-83.2c0-4.424,3.576-8,8-8s8,3.576,8,8V256
		C255.956,260.424,252.38,264,247.956,264z"/>
	<path style="fill:#241C73;" d="M199.956,264h-32c-4.424,0-8-3.576-8-8v-64c0-4.424,3.576-8,8-8h32c4.424,0,8,3.576,8,8v64
		C207.956,260.424,204.38,264,199.956,264z M175.956,248h16v-48h-16V248z"/>
</g>
<path style="fill:#241C73;" d="M183.956,368.008c-49.144,0-95.352-19.144-130.104-53.888c-71.744-71.752-71.744-188.488,0-260.216
	C88.612,19.144,134.812,0,183.964,0s95.36,19.144,130.112,53.896S367.964,134.848,367.964,184s-19.144,95.36-53.896,130.112
	C279.308,348.864,233.108,368.008,183.956,368.008z M183.964,16c-44.872,0-87.064,17.48-118.8,49.208
	c-65.504,65.504-65.504,172.088,0,237.592C96.9,334.528,139.084,352,183.956,352s87.064-17.48,118.8-49.208
	s49.208-73.92,49.208-118.792s-17.472-87.064-49.2-118.792C271.028,33.48,228.836,16,183.964,16z"/>
<path style="fill:#241C73;" d="M183.956,336.008c-40.6,0-78.768-15.816-107.48-44.512c-59.264-59.272-59.264-155.704,0-214.968
	C105.188,47.816,143.364,32,183.964,32c40.608,0,78.784,15.816,107.488,44.52S335.964,143.4,335.964,184
	s-15.816,78.776-44.52,107.488S224.556,336.008,183.956,336.008z M183.964,48c-36.328,0-70.488,14.152-96.168,39.832
	c-53.024,53.024-53.024,139.312,0,192.344c25.688,25.68,59.832,39.832,96.168,39.832s70.488-14.152,96.168-39.832
	s39.832-59.848,39.832-96.176s-14.144-70.488-39.832-96.168C254.452,62.152,220.3,48,183.964,48z"/>
<path style="fill:#241C73;" d="M328.7,370.68c-2.048,0-4.096-0.784-5.656-2.344l-38.408-38.408c-3.128-3.128-3.128-8.184,0-11.312
	s8.184-3.128,11.312,0l38.408,38.408c3.128,3.128,3.128,8.184,0,11.312C332.796,369.896,330.748,370.68,328.7,370.68z"/>
<path style="fill:#241C73;" d="M362.644,336.736c-2.048,0-4.096-0.784-5.656-2.344l-38.408-38.408
	c-3.128-3.128-3.128-8.184,0-11.312s8.184-3.128,11.312,0L368.3,323.08c3.128,3.128,3.128,8.184,0,11.312
	C366.74,335.952,364.692,336.736,362.644,336.736z"/>
<path style="fill:#241C73;" d="M317.388,381.992c-2.048,0-4.096-0.784-5.656-2.344c-3.128-3.128-3.128-8.184,0-11.312l56.56-56.56
	c3.128-3.128,8.184-3.128,11.312,0s3.128,8.184,0,11.312l-56.56,56.56C321.476,381.208,319.436,381.992,317.388,381.992z"/>
<path style="fill:#241C73;" d="M435.684,500.28c-2.048,0-4.096-0.784-5.656-2.344L311.732,379.648
	c-3.128-3.128-3.128-8.184,0-11.312s8.184-3.128,11.312,0L441.34,486.624c3.128,3.128,3.128,8.184,0,11.312
	C439.78,499.504,437.732,500.28,435.684,500.28z"/>
<path style="fill:#241C73;" d="M492.236,443.72c-2.048,0-4.096-0.784-5.656-2.344L368.292,323.088
	c-3.128-3.128-3.128-8.184,0-11.312s8.184-3.128,11.312,0l118.288,118.288c3.128,3.128,3.128,8.184,0,11.312
	C496.332,442.936,494.284,443.72,492.236,443.72z"/>
<path style="fill:#241C73;" d="M463.972,512.008c-0.008,0-0.008,0-0.016,0c-12.824-0.008-24.872-5-33.928-14.072
	c-3.128-3.128-3.128-8.192,0-11.312c3.128-3.128,8.184-3.128,11.312,0c6.04,6.048,14.08,9.376,22.624,9.384c0,0,0,0,0.008,0
	c8.544,0,16.576-3.328,22.616-9.376c6.048-6.048,9.376-14.08,9.376-22.624c-0.008-8.544-3.336-16.584-9.384-22.632
	c-3.128-3.128-3.128-8.184,0-11.312s8.184-3.128,11.312,0c9.072,9.072,14.064,21.128,14.072,33.944
	c0,12.824-4.992,24.872-14.064,33.936C488.836,507.008,476.796,512,463.972,512.008z"/>
</svg>
