<?xml version="1.0" encoding="iso-8859-1"?>
<!-- Generator: Adobe Illustrator 24.3.0, SVG Export Plug-In . SVG Version: 6.00 Build 0)  -->
<svg version="1.1" id="Capa_1" xmlns="http://www.w3.org/2000/svg" xmlns:xlink="http://www.w3.org/1999/xlink" x="0px" y="0px"
	 viewBox="0 0 512 512" style="enable-background:new 0 0 512 512;" xml:space="preserve">
<path style="fill:#86a570;" d="M256,504.495L256,504.495c-47.432,0-86.239-38.808-86.239-86.239V93.744
	c0-47.431,38.808-86.239,86.239-86.239l0,0c47.431,0,86.239,38.808,86.239,86.239v324.512
	C342.239,465.688,303.431,504.495,256,504.495z"/>
<path style="fill:#EEE06F;" d="M146.89,139.106h-22.512c-6.604,0-12.008-5.404-12.008-12.008v-34.52
	c0-6.604,5.404-12.008,12.008-12.008h22.512c6.604,0,12.008,5.404,12.008,12.008v34.52
	C158.898,133.702,153.494,139.106,146.89,139.106z"/>
<path style="fill:#EEE06F;" d="M387.621,139.106h-22.512c-6.604,0-12.008-5.404-12.008-12.008v-34.52
	c0-6.604,5.404-12.008,12.008-12.008h22.512c6.604,0,12.008,5.404,12.008,12.008v34.52
	C399.629,133.702,394.225,139.106,387.621,139.106z"/>
<path style="fill:#EEE06F;" d="M146.89,430.768h-22.512c-6.604,0-12.008-5.404-12.008-12.008v-34.52
	c0-6.604,5.404-12.008,12.008-12.008h22.512c6.604,0,12.008,5.404,12.008,12.008v34.52
	C158.898,425.365,153.494,430.768,146.89,430.768z"/>
<path style="fill:#EEE06F;" d="M387.621,430.768h-22.512c-6.604,0-12.008-5.404-12.008-12.008v-34.52
	c0-6.604,5.404-12.008,12.008-12.008h22.512c6.604,0,12.008,5.404,12.008,12.008v34.52
	C399.629,425.365,394.225,430.768,387.621,430.768z"/>
<path style="fill:#241C73;" d="M387.621,73.066h-22.512c-6.706,0-12.631,3.402-16.145,8.57C343.006,35.644,303.588,0,256,0
	s-87.007,35.645-92.963,81.637c-3.514-5.168-9.439-8.571-16.146-8.571h-22.512c-10.76,0-19.513,8.753-19.513,19.513v34.52
	c0,10.76,8.753,19.513,19.513,19.513h22.512c6.24,0,11.792-2.956,15.366-7.528v137.745c0,4.145,3.36,7.505,7.505,7.505
	s7.505-3.36,7.505-7.505V117.343h157.468v44.267c0,4.145,3.36,7.505,7.505,7.505c4.145,0,7.505-3.36,7.505-7.505v-22.526
	c3.574,4.572,9.125,7.527,15.365,7.527h22.512c10.759,0,19.513-8.753,19.513-19.513v-34.52
	C407.133,81.819,398.38,73.066,387.621,73.066z M151.393,127.098c0,2.441-2.062,4.503-4.503,4.503h-22.512
	c-2.441,0-4.503-2.062-4.503-4.503v-34.52c0-2.441,2.062-4.503,4.503-4.503h22.512c2.441,0,4.503,2.062,4.503,4.503V127.098z
	 M177.266,102.333v-8.59c0-43.414,35.32-78.734,78.734-78.734s78.734,35.32,78.734,78.734v8.59
	C334.734,102.333,177.266,102.333,177.266,102.333z M392.123,127.098c0,2.441-2.062,4.503-4.503,4.503h-22.511
	c-2.441,0-4.503-2.062-4.503-4.503v-34.52c0-2.441,2.062-4.503,4.503-4.503h22.512c2.441,0,4.503,2.062,4.503,4.503L392.123,127.098
	L392.123,127.098z"/>
<path style="fill:#241C73;" d="M387.621,364.728h-22.512c-6.239,0-11.79,2.955-15.365,7.527v-157.61c0-4.145-3.36-7.505-7.505-7.505
	c-4.145,0-7.505,3.36-7.505,7.505v179.35H177.266V329.22c0-4.145-3.36-7.505-7.505-7.505s-7.505,3.36-7.505,7.505v43.036
	c-3.574-4.573-9.126-7.528-15.366-7.528h-22.512c-10.76,0-19.513,8.753-19.513,19.513v34.52c0,10.76,8.753,19.513,19.513,19.513
	h22.512c6.665,0,12.555-3.364,16.077-8.478C168.671,476.061,208.215,512,256,512c47.784,0,87.328-35.938,93.034-82.203
	c3.522,5.113,9.411,8.476,16.075,8.476h22.512c10.759,0,19.513-8.753,19.513-19.513v-34.52
	C407.133,373.481,398.38,364.728,387.621,364.728z M151.393,418.76c0,2.441-2.062,4.503-4.503,4.503h-22.512
	c-2.441,0-4.503-2.062-4.503-4.503v-34.52c0-2.441,2.062-4.503,4.503-4.503h22.512c2.441,0,4.503,2.062,4.503,4.503V418.76z
	 M256,496.99c-43.414,0-78.734-35.32-78.734-78.734v-9.251h157.468v9.251C334.734,461.67,299.414,496.99,256,496.99z
	 M392.123,418.76c0,2.441-2.062,4.503-4.503,4.503h-22.511c-2.441,0-4.503-2.062-4.503-4.503v-34.52
	c0-2.441,2.062-4.503,4.503-4.503h22.512c2.441,0,4.503,2.062,4.503,4.503L392.123,418.76L392.123,418.76z"/>
</svg>
