<?xml version="1.0" encoding="iso-8859-1"?>
<!-- Generator: Adobe Illustrator 24.3.0, SVG Export Plug-In . SVG Version: 6.00 Build 0)  -->
<svg version="1.1" id="Layer_1" xmlns="http://www.w3.org/2000/svg" xmlns:xlink="http://www.w3.org/1999/xlink" x="0px" y="0px"
	 viewBox="0 0 512 512" style="enable-background:new 0 0 512 512;" xml:space="preserve">
<path style="fill:#86a570;" d="M33.086,139.574v332.191c0,2.207,1.793,4,4,4h437.828c2.207,0,4-1.793,4-4V139.574H33.086z"/>
<path style="fill:#EEE06F;" d="M202.68,326.324v149.441H309.32V326.324c0-5.523-4.477-10.004-10-10.004h-86.637
	C207.156,316.32,202.68,320.801,202.68,326.324z"/>
<path style="fill:#EEE06F;" d="M8.121,208.676V249.5c0,2.207,1.789,4,4,4h487.758c2.211,0,4-1.793,4-4v-40.824c0-2.211-1.789-4-4-4
	H12.121C9.91,204.676,8.121,206.465,8.121,208.676z"/>
<path style="fill:#C8E7F7;" d="M342,340.82v81.844c0,4.676,3.789,8.469,8.469,8.469h92.816c4.68,0,8.469-3.793,8.469-8.469V340.82
	c0-4.676-3.789-8.465-8.469-8.465h-92.816C345.789,332.355,342,336.145,342,340.82z"/>
<path style="fill:#C8E7F7;" d="M60.246,340.82v81.844c0,4.676,3.789,8.469,8.469,8.469h92.816c4.68,0,8.469-3.793,8.469-8.469
	V340.82c0-4.676-3.789-8.465-8.469-8.465H68.715C64.035,332.355,60.246,336.145,60.246,340.82z"/>
<path style="fill:#EEE06F;" d="M504.5,117.539V99.195H7.5v18.344c12.172,0,22.035,9.867,22.035,22.035h452.93
	C482.465,127.402,492.328,117.539,504.5,117.539z"/>
<path style="fill:#F26867;" d="M161.566,65.492v81.832c0,16.016,12.98,28.992,28.992,28.992h130.883
	c16.012,0,28.992-12.977,28.992-28.992V65.492c0-16.012-12.98-28.992-28.992-28.992H190.559
	C174.547,36.5,161.566,49.48,161.566,65.492z"/>
<path style="fill:#241C73;" d="M478.914,341.195c-4.145,0-7.5,3.359-7.5,7.5v119.57H316.82V326.324
	c0-9.652-7.852-17.504-17.5-17.504H212.68c-9.648,0-17.5,7.855-17.5,17.504v141.941H40.586v-119.57c0-4.141-3.355-7.5-7.5-7.5
	s-7.5,3.359-7.5,7.5v123.07c0,6.34,5.16,11.5,11.5,11.5h437.828c6.34,0,11.5-5.16,11.5-11.5v-123.07
	C486.414,344.555,483.059,341.195,478.914,341.195z M210.18,468.266V326.324c0-1.379,1.121-2.504,2.5-2.504h86.641
	c1.379,0,2.5,1.125,2.5,2.504v141.941H210.18z"/>
<path style="fill:#241C73;" d="M443.285,438.633c8.805,0,15.969-7.164,15.969-15.969V340.82c0-8.805-7.164-15.965-15.969-15.965
	h-92.816c-8.805,0-15.969,7.16-15.969,15.965v81.844c0,8.805,7.164,15.969,15.969,15.969H443.285z M349.5,422.664V340.82
	c0-0.531,0.434-0.965,0.969-0.965h92.816c0.535,0,0.969,0.434,0.969,0.965v81.844c0,0.535-0.434,0.969-0.969,0.969h-92.816
	C349.934,423.633,349.5,423.199,349.5,422.664z"/>
<path style="fill:#241C73;" d="M161.531,438.633c8.805,0,15.969-7.164,15.969-15.969V340.82c0-8.805-7.164-15.965-15.969-15.965
	H68.715c-8.805,0-15.969,7.16-15.969,15.965v81.844c0,8.805,7.164,15.969,15.969,15.969H161.531z M67.746,422.664V340.82
	c0-0.531,0.434-0.965,0.969-0.965h92.816c0.535,0,0.969,0.434,0.969,0.965v81.844c0,0.535-0.434,0.969-0.969,0.969H68.715
	C68.18,423.633,67.746,423.199,67.746,422.664z"/>
<path style="fill:#241C73;" d="M489.961,139.57c0-8.012,6.52-14.527,14.539-14.527c4.145,0,7.5-3.359,7.5-7.5V99.191
	c0-4.141-3.355-7.5-7.5-7.5H380.691c-4.145,0-7.5,3.359-7.5,7.5c0,4.145,3.355,7.5,7.5,7.5H497v4.316
	c-10.27,2.695-18.375,10.797-21.074,21.063H357.938V65.492c0-20.121-16.371-36.492-36.492-36.492H190.559
	c-20.125,0-36.492,16.371-36.492,36.492v26.199H7.5c-4.145,0-7.5,3.359-7.5,7.5v18.352c0,4.141,3.355,7.5,7.5,7.5
	c8.02,0,14.539,6.516,14.539,14.527c0,2.707,1.434,5.078,3.582,6.398v51.227H12.125c-6.344,0-11.504,5.16-11.504,11.5v40.84
	c0,6.34,5.16,11.5,11.504,11.5h13.496v57.715c0,4.141,3.355,7.5,7.5,7.5s7.5-3.359,7.5-7.5v-57.715H472v57.727
	c0,4.141,3.355,7.5,7.5,7.5c4.141,0,7.5-3.359,7.5-7.5v-57.727h13.496c6.344,0,11.504-5.16,11.504-11.5v-40.84
	c0-6.34-5.16-11.5-11.504-11.5H487v-51.652C488.797,144.172,489.961,142.008,489.961,139.57z M169.063,65.492
	c0-11.852,9.645-21.492,21.492-21.492h130.887c11.852,0,21.492,9.641,21.492,21.492v81.832c0,11.852-9.641,21.492-21.492,21.492
	H190.559c-11.852,0-21.492-9.641-21.492-21.492V65.492H169.063z M497,246.035H15.621v-33.84H497V246.035z M40.621,197.195V147.07
	h90.949c4.145,0,7.5-3.355,7.5-7.5c0-4.141-3.355-7.5-7.5-7.5H36.074C33.375,121.805,25.27,113.703,15,111.008v-4.316h139.063
	v40.637c0,20.121,16.371,36.492,36.492,36.492h130.887c20.125,0,36.492-16.371,36.492-36.492v-0.254h114.063v50.121H40.621z"/>
<path style="fill:#241C73;" d="M227,388.543h-6c-4.145,0-7.5,3.359-7.5,7.5s3.355,7.5,7.5,7.5h6c4.145,0,7.5-3.359,7.5-7.5
	S231.145,388.543,227,388.543z"/>
<path style="fill:#EEE06F;" d="M202.277,73.934h9.191l9.43,45.078c1.828,8.734,9.633,15.078,18.559,15.078h44.535
	c7.84,0,14.969-4.93,17.738-12.262l14.707-38.934c1.398-3.707,0.891-7.863-1.359-11.117c-2.25-3.258-5.961-5.203-9.918-5.203
	h-62.988c-4.141,0-7.5,3.355-7.5,7.5c0,4.141,3.359,7.5,7.5,7.5h58.73l-13.203,34.953c-0.578,1.531-2.066,2.563-3.703,2.563h-44.539
	c-1.863,0-3.492-1.328-3.875-3.148l-9.469-45.254c-1.426-6.813-7.508-11.754-14.469-11.754h-9.363c-4.145,0-7.5,3.355-7.5,7.5
	C194.781,70.574,198.137,73.934,202.277,73.934z"/>
<path style="fill:#EEE06F;" d="M240.75,140.383h-2c-4.145,0-7.5,3.355-7.5,7.5c0,4.141,3.355,7.5,7.5,7.5h2
	c4.145,0,7.5-3.359,7.5-7.5C248.25,143.738,244.895,140.383,240.75,140.383z"/>
<path style="fill:#EEE06F;" d="M273.25,140.383h-2c-4.145,0-7.5,3.355-7.5,7.5c0,4.141,3.355,7.5,7.5,7.5h2
	c4.145,0,7.5-3.359,7.5-7.5C280.75,143.738,277.395,140.383,273.25,140.383z"/>
</svg>
