<?xml version="1.0" encoding="iso-8859-1"?>
<!-- Generator: Adobe Illustrator 24.3.0, SVG Export Plug-In . SVG Version: 6.00 Build 0)  -->
<svg version="1.1" id="Layer_1" xmlns="http://www.w3.org/2000/svg" xmlns:xlink="http://www.w3.org/1999/xlink" x="0px" y="0px"
	 viewBox="0 0 511.984 511.984" style="enable-background:new 0 0 511.984 511.984;" xml:space="preserve">
<polygon style="fill:#EEE06F;" points="447.972,138.667 437.316,85.325 368.99,30.999 306.992,16.187 255.993,16.187 
	191.996,36.499 149.325,76.247 117.334,120.996 88.999,195.993 94.999,246.992 234.659,367.988 287.994,376.988 362.646,346.989 
	442.988,257.742 458.644,170.651 "/>
<polygon style="fill:#86a570;" points="106.662,245.992 101.335,309.318 11.337,393.316 26.665,441.986 71.999,458.642 
	111.998,407.987 154.661,362.644 224.659,371.988 "/>
<path style="fill:#F26867;" d="M505.314,453.33c0,29.998-24.328,54.326-54.326,54.326c-30.016,0-54.342-24.328-54.342-54.326
	c0-30.016,24.326-54.343,54.342-54.343C480.986,398.987,505.314,423.314,505.314,453.33z"/>
<path style="fill:#241C73;" d="M469.176,187.01c1.938-51.795-16.438-99.778-51.781-135.105C383.928,18.437,338.539,0,289.586,0
	c-26.248,0-52.123,5.219-76.911,15.5c-25.608,10.625-48.725,26.124-68.701,46.092c-37.702,37.718-59.537,86.841-61.467,138.339
	c-0.492,13.218,0.344,26.187,2.445,38.78l10.335,71.654L4.033,385.629c-2.094,1.734-3.445,4.172-3.789,6.875
	c-0.156,1.203-3.508,29.92,21.562,55.014c19.687,19.671,41.717,21.796,50.271,21.796c2.625,0,4.289-0.172,4.734-0.234
	c2.688-0.344,5.148-1.703,6.875-3.797l75.263-91.263l73.888,10.672c9.562,1.484,19.335,2.25,29.257,2.25
	c26.258,0,52.131-5.203,76.912-15.484c25.607-10.625,48.732-26.155,68.701-46.123C445.41,287.632,467.238,238.508,469.176,187.01z
	 M156.059,352.051c-3.688-0.53-7.383,0.906-9.757,3.781l-75.966,92.107c-6.805-0.312-20.617-2.703-33.444-15.516
	c-12.953-12.969-15.25-26.843-15.539-33.437l92.138-75.981c2.875-2.359,4.296-6.062,3.765-9.75l-7.523-52.17l98.497,98.496
	L156.059,352.051z M330.836,351.739c-22.172,9.202-45.311,13.874-68.74,13.874c-6.313,0-12.555-0.344-18.711-1.031L104.717,225.899
	c-0.906-8.234-1.211-16.64-0.891-25.171c1.727-46.108,21.343-90.153,55.233-124.043c17.984-17.984,38.772-31.937,61.787-41.499
	c22.179-9.188,45.312-13.859,68.739-13.859c43.25,0,83.295,16.218,112.732,45.67c31.092,31.077,47.264,73.419,45.545,119.215
	c-1.734,46.092-21.359,90.153-55.248,124.043C374.631,328.24,353.849,342.208,330.836,351.739z"/>
<path style="fill:#241C73;" d="M447.972,383.988c-35.279,0-63.998,28.702-63.998,63.998c0,35.279,28.719,63.998,63.998,63.998
	c35.295,0,63.998-28.719,63.998-63.998C511.971,412.69,483.267,383.988,447.972,383.988z M447.972,490.64
	c-23.516,0-42.654-19.124-42.654-42.654c0-23.531,19.139-42.671,42.654-42.671c23.531,0,42.67,19.14,42.67,42.671
	C490.642,471.516,471.504,490.64,447.972,490.64z"/>
</svg>
