<?xml version="1.0" encoding="iso-8859-1"?>
<!-- Generator: Adobe Illustrator 24.3.0, SVG Export Plug-In . SVG Version: 6.00 Build 0)  -->
<svg version="1.1" id="Layer_3" xmlns="http://www.w3.org/2000/svg" xmlns:xlink="http://www.w3.org/1999/xlink" x="0px" y="0px"
	 viewBox="0 0 512 512" style="enable-background:new 0 0 512 512;" xml:space="preserve">
<polyline style="fill:#C7E2FC;" points="280,408 24,408 16,408 16,112 112,16 320,16 320,408 280,408 "/>
<path style="fill:#F5F7FA;" d="M80,288H64c-13.256,0-24,10.744-24,24s10.744,24,24,24h16"/>
<path style="fill:#F5F7FA;" d="M192,336h16c13.256,0,24-10.744,24-24s-10.744-24-24-24h-16"/>
<path style="fill:#86a570;" d="M256,496v-55.944c0-23.2-16.592-43.08-39.416-47.224L168,384h-64l-48.584,8.832
	C32.592,396.984,16,416.864,16,440.056V496H256z"/>
<path style="fill:#86a570;" d="M112,16v96H16"/>
<path style="fill:#EEE06F;" d="M216,56l-56,45.816V184h112v-82.184L216,56z"/>
<path style="fill:#F5F7FA;" d="M72,264v56c0,35.344,28.656,64,64,64s64-28.656,64-64v-56"/>
<path style="fill:#F5F7FA;" d="M136,416c17.672,0,32-14.328,32-32h-64C104,401.672,118.328,416,136,416z"/>
<path style="fill:#96CC7F;" d="M56,440h16v56H56V440z"/>
<path style="fill:#96CC7F;" d="M200,440h16v56h-16V440z"/>
<path style="fill:#F26867;" d="M216,288v-32c0-26.512-21.488-48-48-48h-64c-26.512,0-48,21.488-48,48v32h40l16-16l16,16H216z"/>
<path style="fill:#EEE06F;" d="M424,152c-39.768,0-72,32.232-72,72c0,31.336,20.056,57.92,48,67.816V320l16,16l-16,16l16,16l-16,16
	v24l24,16l24-16V291.816c27.944-9.896,48-36.48,48-67.816C496,184.232,463.768,152,424,152z M424,232c-13.256,0-24-10.744-24-24
	s10.744-24,24-24s24,10.744,24,24S437.256,232,424,232z"/>
<path style="fill:#86a570;" d="M192,176v-40h48v40"/>
<path style="fill:#8892A0;" d="M400,384.392c1.176-1.248,2.344-2.544,3.488-3.888L400,384V384.392z"/>
<path style="fill:#4D5D7A;" d="M432,208h-16v-56c0-39.696-32.304-72-72-72H235.552V64H344c48.52,0,88,39.48,88,88V208z"/>
<path style="fill:#C18E59;" d="M298.936,134.192L216,66.336l-82.936,67.856l-10.136-12.384l88-72c2.944-2.416,7.184-2.416,10.136,0
	l88,72L298.936,134.192z"/>
<path style="fill:#241C73;" d="M431.616,144.384C427.736,99.424,389.952,64,344,64h-16V16c0-4.416-3.584-8-8-8H112
	c-2.12,0-4.16,0.84-5.656,2.344l-96,96C8.84,107.84,8,109.88,8,112v296c0,3.656,2.504,6.608,5.848,7.568
	C10.2,423.024,8,431.288,8,440.064V496c0,4.424,3.584,8,8,8h240c4.416,0,8-3.576,8-8v-55.936c0-27.088-19.336-50.256-45.984-55.096
	l-39.296-7.144c11.424-8.464,20.24-20.192,25.08-33.824h4.2c17.648,0,32-14.352,32-32c0-11.792-6.48-22-16-27.552V256
	c0-30.88-25.12-56-56-56h-64c-30.88,0-56,25.12-56,56v28.448C38.48,290,32,300.208,32,312c0,17.648,14.352,32,32,32h4.2
	c4.84,13.632,13.656,25.36,25.08,33.824l-39.296,7.144c-11.84,2.152-22.088,8.056-29.984,16.176V120h88c4.416,0,8-3.584,8-8V24h192
	v40h-73.592l-17.344-14.192c-2.944-2.416-7.184-2.416-10.136,0l-88,72l10.136,12.384L152,118.704V184c0,4.416,3.584,8,8,8h112
	c4.416,0,8-3.584,8-8v-65.296l18.936,15.488l10.136-12.384L257.968,80H312v320h-32v16h40c4.416,0,8-3.576,8-8V80h16
	c37.152,0,67.808,28.288,71.6,64.448C375.416,148.664,344,182.728,344,224c0,31.864,19.064,60.616,48,73.248V320
	c0,2.128,0.84,4.16,2.344,5.656L404.688,336l-10.344,10.344c-3.128,3.128-3.128,8.184,0,11.312L404.688,368l-10.344,10.344
	C392.84,379.84,392,381.872,392,384v24c0,2.672,1.336,5.168,3.56,6.656l24,16c1.344,0.896,2.896,1.344,4.44,1.344
	s3.096-0.448,4.44-1.344l24-16c2.224-1.488,3.56-3.984,3.56-6.656V297.248c28.936-12.632,48-41.384,48-73.248
	C504,182.456,472.168,148.232,431.616,144.384L431.616,144.384z M158.528,392c-3.312,9.288-12.112,16-22.528,16
	s-19.216-6.712-22.528-16H158.528z M208,328h-0.472c0.296-2.632,0.472-5.296,0.472-8v-24c8.824,0,16,7.176,16,16
	S216.824,328,208,328z M64,256c0-22.056,17.944-40,40-40h64c22.056,0,40,17.944,40,40v24h-76.688l-13.656-13.656
	c-3.128-3.128-8.184-3.128-11.312,0L92.688,280H64L64,256z M64,328c-8.824,0-16-7.176-16-16s7.176-16,16-16v24
	c0,2.704,0.176,5.368,0.472,8H64z M80,320v-24h16c2.12,0,4.16-0.84,5.656-2.344L112,283.312l10.344,10.344
	C123.84,295.16,125.88,296,128,296h64v24c0,30.872-25.12,56-56,56S80,350.872,80,320z M56.84,400.704l40.376-7.336
	C101.464,410.896,117.184,424,136,424s34.536-13.104,38.776-30.64l40.376,7.336C234.184,404.168,248,420.72,248,440.064V488h-32v-48
	h-16v48H72v-48H56v48H24v-47.936C24,420.72,37.816,404.168,56.84,400.704L56.84,400.704z M35.312,104L104,35.312V104H35.312z
	 M232,176h-32v-32h32V176z M264,176h-16v-40c0-4.416-3.584-8-8-8h-48c-4.416,0-8,3.584-8,8v40h-16v-70.392l48-39.272l48,39.272V176z
	 M432,194.224c4.76,2.776,8,7.88,8,13.776c0,8.824-7.176,16-16,16s-16-7.176-16-16c0-5.896,3.24-11,8-13.776V208h16V194.224z
	 M445.336,284.272c-3.2,1.128-5.336,4.152-5.336,7.544V403.72l-16,10.664l-16-10.664v-16.408l13.656-13.656
	c3.128-3.128,3.128-8.184,0-11.312L411.312,352l10.344-10.344c3.128-3.128,3.128-8.184,0-11.312L408,316.688v-24.872
	c0-3.392-2.136-6.416-5.336-7.536C377.152,275.232,360,251.016,360,224c0-32.576,24.48-59.488,56-63.448v16.584
	c-13.76,3.576-24,16-24,30.864c0,17.648,14.352,32,32,32s32-14.352,32-32c0-14.864-10.24-27.288-24-30.864v-16.584
	c31.52,3.96,56,30.872,56,63.448C488,251.016,470.848,275.232,445.336,284.272L445.336,284.272z"/>
</svg>
