<?xml version="1.0" encoding="iso-8859-1"?>
<!-- Generator: Adobe Illustrator 24.3.0, SVG Export Plug-In . SVG Version: 6.00 Build 0)  -->
<svg version="1.1" id="Layer_1" xmlns="http://www.w3.org/2000/svg" xmlns:xlink="http://www.w3.org/1999/xlink" x="0px" y="0px"
	 viewBox="0 0 511.99 511.99" style="enable-background:new 0 0 511.99 511.99;" xml:space="preserve">
<path style="fill:#EEE06F;" d="M479.99,65.782c0,0-53.326-38.655-55.326-39.327s-45.998-12-45.998-12l-65.342,4l-43.99,21.999
	l-71.998,65.998l-23.999,75.998c0,0-3.336,65.998-5.336,67.998s0,44.654,0,44.654l-26.663,47.343l-6,5.328l29.335,29.343
	l66.662-34.671c0,0,85.989,0,88.333,0c2.328,0,76.326-20.89,76.326-20.89l54.67-50.436l31.998-48.671l10.656-34.671l4.672-71.998
	L479.99,65.782z"/>
<polygon style="fill:#F26867;" points="128.674,347.773 8.678,468.441 40.005,501.768 160.673,376.444 "/>
<path style="fill:#86a570;" d="M417.93,259.042c-58.904,58.904-143.588,69.732-189.134,24.202
	c-45.53-45.545-34.702-130.246,24.203-189.15c58.904-58.904,143.589-69.732,189.119-24.187
	C487.678,115.437,476.834,200.137,417.93,259.042z"/>
<path style="fill:#F26867;" d="M502.662,435.77c0,36.452-29.545,65.998-65.998,65.998c-36.451,0-65.998-29.546-65.998-65.998
	s29.547-65.998,65.998-65.998C473.117,369.772,502.662,399.318,502.662,435.77z"/>
<path style="fill:#241C73;" d="M448.336,63.641c-20.406-20.406-49.201-31.64-81.107-31.64c-4.578,0-9.281,0.219-13.969,0.688
	c-39.248,3.781-77.809,22.812-108.558,53.576c-30.757,30.765-49.787,69.326-53.584,108.56c-3.648,37.702,7.343,71.467,30.96,95.074
	c20.405,20.406,49.209,31.656,81.09,31.656c4.594,0,9.297-0.234,13.984-0.688c39.248-3.797,77.795-22.828,108.559-53.592
	c30.766-30.75,49.797-69.311,53.592-108.56C482.943,121.03,471.961,87.25,448.336,63.641z M425.226,71.672
	c2.812,2.172,5.5,4.516,8.031,7.047s4.875,5.219,7.031,8.046l-14.578,14.578l-15.075-15.077L425.226,71.672z M410.635,146.608
	l15.076-15.078l15.094,15.078l-15.094,15.078L410.635,146.608z M410.635,176.779l-15.094,15.078l-15.078-15.078l15.078-15.093
	L410.635,176.779z M395.541,131.53l-15.078-15.093l15.078-15.093l15.094,15.093L395.541,131.53z M335.199,191.856l-15.078-15.078
	l15.078-15.093l15.094,15.093L335.199,191.856z M350.293,237.12l-15.094,15.078l-15.078-15.078l15.078-15.093L350.293,237.12z
	 M365.369,191.856l15.094,15.078l-15.094,15.093l-15.076-15.093L365.369,191.856z M350.293,146.608l15.076-15.078l15.094,15.078
	l-15.094,15.078L350.293,146.608z M382.244,54.314c8.453,1.14,16.438,3.25,23.844,6.328l-10.547,10.546l-15.078-15.093
	L382.244,54.314z M365.369,71.188l15.094,15.078l-15.094,15.078l-15.076-15.078L365.369,71.188z M348.887,54.689l1.406,1.406
	l-15.094,15.093l-10.656-10.656C332.558,57.845,340.699,55.891,348.887,54.689z M335.199,101.344l15.094,15.093l-15.094,15.093
	l-15.078-15.093L335.199,101.344z M305.043,161.685l-15.094-15.078l15.094-15.078l15.078,15.078L305.043,161.685z M305.043,191.856
	l15.078,15.078l-15.078,15.093l-15.094-15.093L305.043,191.856z M274.873,191.856l-15.086-15.078l15.086-15.093l15.076,15.093
	L274.873,191.856z M303.308,69.47l16.812,16.796l-15.078,15.078L284.435,80.75C290.543,76.532,296.855,72.75,303.308,69.47z
	 M259.787,101.344c2.531-2.531,5.117-4.969,7.766-7.312l22.396,22.406l-15.076,15.093l-22.406-22.406
	C254.81,106.468,257.256,103.874,259.787,101.344z M239.186,125.999l20.601,20.609l-15.085,15.078l-16.804-16.812
	C231.194,138.436,234.96,132.124,239.186,125.999z M219.109,247.62c-3.07-7.406-5.188-15.406-6.336-23.827l1.758-1.766
	l15.085,15.093L219.109,247.62z M214.531,191.856l-1.406-1.406c1.195-8.172,3.164-16.328,5.836-24.328l10.656,10.656
	L214.531,191.856z M245.194,281.869c-2.82-2.156-5.5-4.5-8.031-7.047c-2.531-2.53-4.875-5.218-7.039-8.046l14.578-14.578
	l15.085,15.078L245.194,281.869z M244.702,222.027l-15.085-15.093l15.085-15.078l15.085,15.078L244.702,222.027z M274.873,222.027
	l15.076,15.093l-15.076,15.078l-15.086-15.078L274.873,222.027z M288.17,299.243c-8.469-1.156-16.438-3.266-23.844-6.344
	l10.547-10.53l15.076,15.077L288.17,299.243z M305.043,282.369l-15.094-15.093l15.094-15.078l15.078,15.078L305.043,282.369z
	 M321.527,298.852l-1.406-1.406l15.078-15.077l10.656,10.655C337.855,295.696,329.715,297.649,321.527,298.852z M367.103,284.088
	l-16.811-16.812l15.076-15.078l20.609,20.609C379.869,277.025,373.557,280.791,367.103,284.088z M410.635,252.198
	c-2.531,2.531-5.125,4.969-7.766,7.328l-22.406-22.406l15.078-15.093l22.404,22.405
	C415.601,247.073,413.166,249.667,410.635,252.198z M431.226,227.542l-20.592-20.608l15.076-15.078l16.812,16.812
	C439.226,215.121,435.461,221.433,431.226,227.542z M451.445,187.434l-10.641-10.656l15.078-15.093l1.406,1.406
	C456.086,171.279,454.133,179.419,451.445,187.434z M455.883,131.53l-15.094-15.093l10.516-10.5
	c3.062,7.406,5.188,15.406,6.344,23.812L455.883,131.53z"/>
<path style="fill:#241C73;" d="M448.336,289.899c35.998-35.982,58.311-81.481,62.811-128.089
	c4.594-47.405-9.688-90.294-40.186-120.793C444.523,14.565,407.65,0.003,367.15,0.003c-51.764,0-104.629,23.187-145.073,63.639
	c-29.351,29.358-49.405,62.764-59.607,99.31c-9.57,34.264-10.359,70.701-2.336,108.294c4.64,21.764-15.609,51.029-21.203,56.561
	C123.893,342.633,4.319,462.41,3.116,463.613c-4.156,4.172-4.156,10.922,0.008,15.077l30.171,30.172
	c2.078,2.094,4.805,3.125,7.539,3.125c2.727,0,5.453-1.031,7.539-3.125c1.203-1.188,120.98-120.777,135.816-135.809
	c4.57-4.641,28.608-21.905,49.655-21.905c2.414,0,4.734,0.25,6.891,0.702c17.007,3.625,34.015,5.469,50.56,5.469l0,0
	c28.609,0,56.219-5.453,82.045-16.233C400.463,329.774,425.695,312.556,448.336,289.899z M40.841,486.237L25.74,471.144
	c3.859-3.875,9.031-9.031,15.078-15.093l15.117,15.124C49.88,477.206,44.7,482.393,40.841,486.237z M71.027,456.083l-15.14-15.125
	c4.812-4.812,9.883-9.891,15.078-15.094l15.156,15.156C80.918,446.208,75.848,451.27,71.027,456.083z M101.214,425.942
	l-15.172-15.171c5.062-5.062,10.125-10.125,15.086-15.093l15.171,15.187C111.339,415.817,106.276,420.88,101.214,425.942z
	 M131.385,395.772L116.206,380.6c5.39-5.391,10.476-10.469,15.093-15.078l15.164,15.156
	C141.853,385.304,136.767,390.397,131.385,395.772z M291.293,335.993c-15.045,0-30.561-1.688-46.107-5
	c-3.617-0.781-7.437-1.172-11.343-1.172c-30.562,0-60.264,23.607-64.842,28.248c-1.492,1.516-4.062,4.109-7.468,7.516
	l-15.132-15.124c3.414-3.406,6-5.984,7.515-7.469c5.891-5.812,34.288-42.421,27.085-76.185
	c-15.179-71.124,4.242-136.152,56.163-188.088c36.46-36.468,83.849-57.373,129.987-57.373c34.797,0,66.311,12.343,88.732,34.749
	c54.061,54.061,43.92,152.183-22.625,218.728c-20.67,20.671-43.592,36.343-68.139,46.577
	C341.918,331.087,317.074,335.993,291.293,335.993z"/>
<path style="fill:#241C73;" d="M437.32,362.647c-19.953,0-38.701,7.781-52.795,21.875c-14.109,14.109-21.875,32.857-21.875,52.811
	c0,19.938,7.766,38.687,21.875,52.779c14.094,14.109,32.842,21.875,52.795,21.875c19.938,0,38.688-7.766,52.795-21.875
	c14.094-14.093,21.859-32.842,21.859-52.779c0-19.953-7.766-38.701-21.859-52.811C476.008,370.429,457.258,362.647,437.32,362.647z
	 M484.615,412.646l-24.67,24.687c-3.031,3-7.047,4.688-11.312,4.688c-4.281,0-8.297-1.688-11.312-4.688
	c-3.031-3.031-4.688-7.047-4.688-11.328c0-4.266,1.656-8.297,4.688-11.312l24.672-24.67c4.734,2.484,9.141,5.688,13.031,9.593
	C478.912,403.506,482.131,407.896,484.615,412.646z M475.023,475.035c-10.078,10.077-23.469,15.608-37.703,15.608
	c-14.25,0-27.639-5.531-37.717-15.608c-10.078-10.078-15.625-23.468-15.625-37.702c0-14.25,5.547-27.655,15.625-37.718
	c10.078-10.077,23.467-15.624,37.717-15.624c0.172,0,0.344,0,0.516,0.016l-15.609,15.608c-7.047,7.047-10.936,16.421-10.936,26.39
	c0,9.984,3.889,19.359,10.936,26.406s16.422,10.921,26.406,10.921c9.969,0,19.344-3.874,26.391-10.921l15.607-15.609
	c0,0.172,0.016,0.344,0.016,0.531C490.646,451.567,485.099,464.957,475.023,475.035z"/>
</svg>
