<svg id="Layer_1" data-name="Layer 1" xmlns="http://www.w3.org/2000/svg" viewBox="0 0 479 479"><defs><style>.cls-1{fill:#feb784;}.cls-2{fill:#241c73;}.cls-3{fill:#86a570;}.cls-4{fill:#fec093;}.cls-5{fill:#f26867;}</style></defs><path class="cls-1" d="M112,216a404.05,404.05,0,0,1-40.54-23.06c-14-6.82-19.31-27.12-12.49-41.1a28.17,28.17,0,0,1,37.66-13h0l6.26,3.46,18.73-2.76L123,149.79l11,8.44a8,8,0,0,1,1.47,11.22h0l-8.45,11L173.26,216l-22.2,28.91Z" transform="translate(-16.5 -16.5)"/><path class="cls-2" d="M151.05,252.38a7.46,7.46,0,0,1-4.45-1.47l-38.53-28.48a414.87,414.87,0,0,1-40.34-23c-8.25-4.19-14.62-12.29-17.52-22.3-2.83-9.75-2.1-20.18,2-28.61a35.71,35.71,0,0,1,47.69-16.44l.09,0,.28.15,4,2.23,16.22-2.39a7.5,7.5,0,0,1,8.53,6.45l.94,7.14,8.54,6.55A15.54,15.54,0,0,1,141.4,174l-3.88,5,40.31,31a7.51,7.51,0,0,1,1.38,10.51L157,249.44A7.51,7.51,0,0,1,151.05,252.38ZM84.33,143.5a20.73,20.73,0,0,0-18.62,11.62c-2.47,5.06-2.88,11.73-1.1,17.86s5.47,10.94,10.14,13.22a8.78,8.78,0,0,1,.79.44,396.14,396.14,0,0,0,39.79,22.64,7.77,7.77,0,0,1,1.13.69l33.14,24.5,13.14-17.12-40.3-30.95a7.5,7.5,0,0,1-1.38-10.52l8.44-11a.5.5,0,0,0-.09-.7l-11-8.45a7.49,7.49,0,0,1-2.87-5l-.35-2.67L104,149.74a7.53,7.53,0,0,1-4.72-.85l-6.09-3.37A20.39,20.39,0,0,0,84.33,143.5Z" transform="translate(-16.5 -16.5)"/><path class="cls-1" d="M488,488H440V472l8-8-50-29.39L312,384l-40-24H112l-3.06,49L104,488H57.3a9.3,9.3,0,0,1-2.94-18.12l11.28-3.76A9.3,9.3,0,0,0,72,457.3V336a24,24,0,0,1,24-24H200V272H152l-32-40,5.29-6.17L149,197.3,160,184l-8-16L64,80,24,56V40L48,24l80,72,23.61,20.66A273,273,0,0,1,216,200h0l16,24,48,48,24,32,80,64,37.82,34.91,48.54,44.81A54.8,54.8,0,0,1,488,488Z" transform="translate(-16.5 -16.5)"/><path class="cls-2" d="M488,495.5H440a7.5,7.5,0,0,1-7.5-7.5V472a7.47,7.47,0,0,1,2.2-5.3l1.14-1.15L308.2,390.46l-38.28-23H119.05l-7.56,121a7.51,7.51,0,0,1-7.49,7H57.3A16.8,16.8,0,0,1,52,462.77L63.27,459a1.8,1.8,0,0,0,1.23-1.7V336A31.53,31.53,0,0,1,96,304.5h96.5v-25H152a7.54,7.54,0,0,1-5.86-2.81l-32-40a7.5,7.5,0,0,1,.17-9.57l5.25-6.13,31.54-38-5.26-10.54L59.35,86,20.14,62.43A7.49,7.49,0,0,1,16.5,56V40a7.49,7.49,0,0,1,3.34-6.24l24-16a7.5,7.5,0,0,1,9.18.67l80,72L156.55,111a279.06,279.06,0,0,1,65.95,85.21l15.33,23L285.3,266.7a7.56,7.56,0,0,1,.7.8l23.43,31.24,79.26,63.4.4.35,86.36,79.72A62.49,62.49,0,0,1,495.5,488a7.51,7.51,0,0,1-7.5,7.5Zm-40.5-15h32.4a47.48,47.48,0,0,0-14.62-27.27l-86.17-79.54-79.8-63.83A7.67,7.67,0,0,1,298,308.5l-23.68-31.57L226.7,229.3a7.3,7.3,0,0,1-.94-1.14l-16-24a8.13,8.13,0,0,1-.47-.81,264.06,264.06,0,0,0-62.62-81l-23.61-20.67-.08-.07L47.31,33.47,31.5,44v7.74L67.86,73.57A7.11,7.11,0,0,1,69.3,74.7l88,88a7.36,7.36,0,0,1,1.41,2l8,16a7.49,7.49,0,0,1-.94,8.14l-34.71,41.83-.08.09-1.24,1.46L155.6,264.5H200a7.5,7.5,0,0,1,7.5,7.5v40a7.5,7.5,0,0,1-7.5,7.5H96A16.52,16.52,0,0,0,79.5,336V457.3A16.79,16.79,0,0,1,68,473.24L56.73,477a1.78,1.78,0,0,0-1.22,1.7A1.73,1.73,0,0,0,56,480a1.75,1.75,0,0,0,1.27.53H97l7.56-121a7.51,7.51,0,0,1,7.49-7H272a7.51,7.51,0,0,1,3.86,1.07l40,24,135.94,80a7.49,7.49,0,0,1,1.5,11.76l-5.8,5.81Z" transform="translate(-16.5 -16.5)"/><path class="cls-3" d="M421.82,402.91,400,432l-2,2.61L312,384l-40-24H112l-3.06,49L104,408H72V336a24,24,0,0,1,24-24H200V296l80-24,24,32,80,64Z" transform="translate(-16.5 -16.5)"/><path class="cls-2" d="M398,442.11a7.57,7.57,0,0,1-3.8-1l-86-50.62-38.28-23H119.05l-2.62,42a7.52,7.52,0,0,1-9,6.88l-4.19-.87H72a7.5,7.5,0,0,1-7.5-7.5V336A31.53,31.53,0,0,1,96,304.5h96.5V296a7.49,7.49,0,0,1,5.34-7.18l80-24A7.49,7.49,0,0,1,286,267.5l23.43,31.24,79.26,63.4.4.35,37.82,34.91a7.5,7.5,0,0,1,.91,10L404,439.11A7.5,7.5,0,0,1,398,442.11ZM112,352.5H272a7.51,7.51,0,0,1,3.86,1.07l40,24,80.2,47.18,15.7-20.92-32.65-30.14-79.8-63.83A7.67,7.67,0,0,1,298,308.5l-20.86-27.81L207.5,301.58V312a7.5,7.5,0,0,1-7.5,7.5H96A16.52,16.52,0,0,0,79.5,336v64.5H102l2.55-41A7.51,7.51,0,0,1,112,352.5Z" transform="translate(-16.5 -16.5)"/><path class="cls-4" d="M120,232,99.42,259.43a16,16,0,0,0-3.18,10.27L104,456,80,488h24l16-8,6.34,6.34a5.66,5.66,0,0,0,4,1.66h0a5.65,5.65,0,0,0,5.66-5.66h0V280l16-8Z" transform="translate(-16.5 -16.5)"/><path class="cls-2" d="M130.34,495.5a13,13,0,0,1-9.3-3.86l-2.52-2.51-11.17,5.58a7.5,7.5,0,0,1-3.35.79H80a7.5,7.5,0,0,1-6-12l22.4-29.86L88.74,270a23.58,23.58,0,0,1,4.68-15.07L114,227.5a7.51,7.51,0,0,1,11.86-.19l32,40a7.5,7.5,0,0,1-2.51,11.4l-11.85,5.92V482.34A13.17,13.17,0,0,1,130.34,495.5ZM95,480.5h7.23l14.42-7.21a7.5,7.5,0,0,1,8.65,1.41l3.2,3.19V280a7.49,7.49,0,0,1,4.15-6.71l7.7-3.85-20.16-25.19-14.77,19.68a8.58,8.58,0,0,0-1.69,5.46l7.76,186.3A7.42,7.42,0,0,1,110,460.5Z" transform="translate(-16.5 -16.5)"/><path class="cls-3" d="M30.67,217.33v53.34L24,284l17.21-5.74A33.32,33.32,0,0,0,64,246.64V184h0A33.33,33.33,0,0,0,30.67,217.33Z" transform="translate(-16.5 -16.5)"/><path class="cls-2" d="M24,291.5a7.5,7.5,0,0,1-6.71-10.85l5.88-11.75V217.33A40.87,40.87,0,0,1,64,176.5a7.5,7.5,0,0,1,7.5,7.5v62.64a40.79,40.79,0,0,1-27.92,38.74l-17.21,5.74A7.48,7.48,0,0,1,24,291.5Zm32.5-98.89a25.88,25.88,0,0,0-18.33,24.72v53.34a5.53,5.53,0,0,1,0,.71l.71-.23A25.8,25.8,0,0,0,56.5,246.64ZM30.67,270.67h0Z" transform="translate(-16.5 -16.5)"/><path class="cls-3" d="M97.16,191.05,89,193.86a9.89,9.89,0,0,1-9.15-17.27l1.93-1.45-16.34-31.9c-10.62,8.32-23.46,25.87-14.3,47.32C64,220.77,112,216,112,216Z" transform="translate(-16.5 -16.5)"/><path class="cls-2" d="M104.74,223.79c-15.51,0-49-3.27-60.51-30.28C34,169.64,46.11,148.84,60.81,137.34a7.49,7.49,0,0,1,11.29,2.48l16.35,31.9a7.5,7.5,0,0,1-2.18,9.43l-1.93,1.44a2.39,2.39,0,0,0,2.21,4.18L94.71,184a7.5,7.5,0,0,1,8.89,3.25l14.85,25a7.49,7.49,0,0,1-5.71,11.29C112.25,223.51,109.25,223.79,104.74,223.79Zm-41.34-68c-5.53,6.79-11.28,18-5.37,31.88,6.9,16.19,27.38,20.16,40.83,21l-5-8.46-2.39.82a17.39,17.39,0,0,1-19-27.6Z" transform="translate(-16.5 -16.5)"/><path class="cls-5" d="M192,272l40-48-16-24s-32,8-56-16c0,0,16,32,0,48s-40,0-40,0l17.15,28.59a36,36,0,0,0,19.47,15.62h0a36,36,0,0,0,22.75,0Z" transform="translate(-16.5 -16.5)"/><path class="cls-2" d="M168,285.54a43.42,43.42,0,0,1-37.28-21.09l-17.15-28.59a7.5,7.5,0,0,1,10.59-10.1c.76.5,19.13,12.34,30.54.94,11.84-11.85-1.27-39.07-1.41-39.35a7.5,7.5,0,0,1,12-8.65c20.58,20.57,47.76,14.29,48.91,14a7.54,7.54,0,0,1,8,3.12l16,24a7.5,7.5,0,0,1-.48,9l-40,48a7.6,7.6,0,0,1-3.39,2.32l-12.62,4.2A43.5,43.5,0,0,1,168,285.54ZM192,272h0Zm-54.73-25.8,6.31,10.53A28.49,28.49,0,0,0,177,269.09l10.6-3.53,35.05-42.06-10.19-15.28c-7.83,1-23.1,1.55-38.76-5.63,1.93,11.44,1.29,25-8.4,34.71C157,245.66,146.65,247.4,137.27,246.2Z" transform="translate(-16.5 -16.5)"/></svg>