<?xml version="1.0" encoding="iso-8859-1"?>
<!-- Generator: Adobe Illustrator 24.3.0, SVG Export Plug-In . SVG Version: 6.00 Build 0)  -->
<svg version="1.1" id="Layer_1" xmlns="http://www.w3.org/2000/svg" xmlns:xlink="http://www.w3.org/1999/xlink" x="0px" y="0px"
	 viewBox="0 0 511.99 511.99" style="enable-background:new 0 0 511.99 511.99;" xml:space="preserve">
<path style="fill:#EEE06F;" d="M451.117,208.809c-52.826,52.827-128.777,62.545-169.635,21.702
	c-40.843-40.842-31.133-116.824,21.701-169.651C356.025,8.034,431.976-1.685,472.82,39.173
	C513.678,80,503.959,155.967,451.117,208.809z"/>
<polygon style="fill:#F26867;" points="138.001,345.93 12.005,465.426 43.004,495.925 161.001,383.429 171,343.43 "/>
<polygon style="fill:#F26867;" points="395.994,321.102 322.668,397.1 395.994,439.099 435.992,394.429 "/>
<polygon style="fill:#EEE06F;" points="445.492,398.928 402.994,439.099 415.992,455.427 430.492,455.427 449.992,443.427 
	459.492,423.427 "/>
<g>
	<path style="fill:#241C73;" d="M483.193,28.783c-18.826-18.812-44.342-28.78-73.777-28.78c-40.266,0-82.107,18.75-114.779,51.42
		c-27.842,27.843-45.701,62.498-50.271,97.575c-4.187,32.062,3.086,61.108,20.539,82.998L163.298,333.602h-25.742
		c-2.828,0-5.546,1.109-7.546,3.124L3.123,463.598c-4.164,4.172-4.164,10.922,0,15.077l30.171,30.188c2,2,4.711,3.125,7.546,3.125
		c2.828,0,5.539-1.125,7.539-3.125l126.879-126.902c2-2,3.125-4.703,3.125-7.531v-25.749L279.982,247.09
		c17.811,14.203,40.342,21.656,65.811,21.656c40.264,0,82.105-18.734,114.777-51.405c27.842-27.843,45.686-62.498,50.264-97.575
		C515.553,83.641,505.724,51.345,483.193,28.783z M392.775,194.809l-15.094-15.093l15.094-15.094l15.078,15.094L392.775,194.809z
		 M422.93,194.809l14.766,14.75c-5.438,4.812-11.109,9.218-16.984,13.187l-12.857-12.859L422.93,194.809z M340.308,247.276
		c-9.016-0.469-17.484-2.125-25.281-4.891l17.406-17.421l15.094,15.093L340.308,247.276z M347.527,209.887l15.076-15.078
		l15.078,15.078l-15.078,15.078L347.527,209.887z M269.709,132.077c2.164-7.25,5.008-14.516,8.492-21.671l8.984,8.984
		l-15.078,15.078L269.709,132.077z M264.685,172.044l7.422-7.422l15.078,15.094l-17.492,17.499
		C266.849,189.309,265.193,180.841,264.685,172.044z M287.185,149.56l15.092-15.093l15.078,15.093l-15.078,15.062L287.185,149.56z
		 M362.603,74.125l15.078,15.093l-15.078,15.093l-15.076-15.093L362.603,74.125z M332.433,74.125l-14.938-14.937
		c5.453-4.812,11.125-9.187,17-13.156l13.031,13.015L332.433,74.125z M415.226,21.502c8.984,0.5,17.422,2.171,25.203,4.968
		l-17.484,17.5l-15.092-15.093L415.226,21.502z M468.101,43.876c2.578,2.578,4.922,5.328,7.062,8.203l-22.062,22.046l-15.078-15.078
		l22.078-22.077C462.93,39.064,465.601,41.376,468.101,43.876z M485.599,71.813c2.828,7.906,4.453,16.406,4.938,25.218l-7.266,7.281
		l-15.076-15.093L485.599,71.813z M377.682,119.39l15.094-15.078l15.078,15.078l-15.078,15.078L377.682,119.39z M377.682,149.56
		l-15.078,15.062l-15.076-15.062l15.076-15.093L377.682,149.56z M407.853,89.219l15.092-15.094l15.078,15.093l-15.078,15.093
		L407.853,89.219z M407.853,59.048l-15.078,15.077l-15.094-15.078l15.094-15.078L407.853,59.048z M347.527,119.39l-15.094,15.078
		l-15.078-15.078l15.078-15.078L347.527,119.39z M332.433,164.622l15.094,15.094l-15.094,15.093l-15.078-15.093L332.433,164.622z
		 M407.853,149.56l15.092-15.093l15.078,15.093l-15.078,15.062L407.853,149.56z M438.023,119.39l15.078-15.078l15.094,15.078
		l-15.094,15.078L438.023,119.39z M483.271,134.467l2.219,2.219c-2.156,7.25-5,14.531-8.484,21.687l-8.811-8.812L483.271,134.467z
		 M375.338,26.533l2.344,2.344L362.604,43.97l-8.984-8.984c1.641-0.797,3.266-1.547,4.922-2.281
		C364.072,30.252,369.697,28.189,375.338,26.533z M302.418,74.282l14.938,14.937l-15.078,15.093l-13.031-13.031
		C293.183,85.453,297.574,79.766,302.418,74.282z M141.97,354.929h15.078v15.078l-4.422,4.422l-15.07-15.078L141.97,354.929z
		 M40.84,486.237l-15.085-15.093l96.716-96.716l15.085,15.094L40.84,486.237z M280.185,216.871l22.092-22.062l15.078,15.078
		l-22.062,22.046c-2.891-2.125-5.625-4.484-8.186-7.046C284.576,222.371,282.279,219.683,280.185,216.871z M379.869,242.245
		l-2.188-2.188l15.094-15.093l8.797,8.812c-1.625,0.781-3.266,1.562-4.906,2.281C391.119,238.495,385.51,240.558,379.869,242.245z
		 M452.789,194.466l-14.766-14.75l15.078-15.094l12.859,12.859C462.023,183.309,457.617,188.997,452.789,194.466z"/>
	<path style="fill:#241C73;" d="M450.195,389.866l-44.576-74.279c-1.688-2.828-4.578-4.719-7.844-5.109s-6.516,0.719-8.844,3.047
		l-75.42,75.404c-2.312,2.328-3.438,5.594-3.031,8.844c0.391,3.28,2.281,6.155,5.094,7.843l74.279,44.593l6.625,6.609
		c8.062,8.062,18.764,12.499,30.17,12.499c11.391,0,22.109-4.438,30.172-12.499c16.625-16.641,16.625-43.702,0-60.342
		L450.195,389.866z M394.353,338.273l33.936,56.562l-9.188,9.187l-30.17-30.171c-4.172-4.172-10.922-4.172-15.078,0
		c-4.172,4.172-4.172,10.922,0,15.078l30.156,30.186l-9.188,9.188l-56.561-33.936L394.353,338.273z M441.726,441.739
		c-4.031,4.031-9.391,6.25-15.078,6.25c-5.703,0-11.062-2.219-15.092-6.25l0,0l30.17-30.187
		C450.039,419.88,450.039,433.427,441.726,441.739z"/>
</g>
</svg>
