<?xml version="1.0" encoding="iso-8859-1"?>
<!-- Generator: Adobe Illustrator 24.3.0, SVG Export Plug-In . SVG Version: 6.00 Build 0)  -->
<svg version="1.1" id="Layer_1" xmlns="http://www.w3.org/2000/svg" xmlns:xlink="http://www.w3.org/1999/xlink" x="0px" y="0px"
	 viewBox="0 0 512 512" style="enable-background:new 0 0 512 512;" xml:space="preserve">
<polygon style="fill:#F5F7FA;" points="374,28.5 136,31 11,117.5 11,288 114,340.5 398.5,340.5 501,281.5 501,113.5 "/>
<rect x="158" y="183" style="fill:#86a570;" width="199" height="146"/>
<circle style="fill:#F26867;" cx="299.5" cy="167.5" r="96.5"/>
<rect x="122.67" y="332.67" style="fill:#EEE06F;" width="264" height="38.656"/>
<path style="fill:#241C73;" d="M507.25,108.469l-128-85.344c-1.75-1.156-3.812-1.781-5.922-1.781H138.672
	c-2.109,0-4.172,0.625-5.922,1.781l-128,85.344C1.781,110.438,0,113.766,0,117.344V288c0,4.031,2.281,7.719,5.891,9.531
	l101.031,50.531c-0.156,1.281-0.25,2.594-0.25,3.938c0,17.656,14.344,32,32,32h10.656v96c0,5.906,4.781,10.656,10.672,10.656
	s10.672-4.75,10.672-10.656v-32h42.656v32c0,5.906,4.781,10.656,10.672,10.656s10.672-4.75,10.672-10.656v-32h42.656v32
	c0,5.906,4.781,10.656,10.672,10.656s10.672-4.75,10.672-10.656v-32h42.656v32c0,5.906,4.781,10.656,10.672,10.656
	s10.672-4.75,10.672-10.656v-96h10.656c17.656,0,32-14.344,32-32c0-1.344-0.094-2.656-0.25-3.938l101.031-50.531
	c3.609-1.812,5.891-5.5,5.891-9.531V117.344C512,113.766,510.219,110.438,507.25,108.469z M170.672,426.656V384h42.656v42.656
	H170.672z M234.672,426.656V384h42.656v42.656H234.672z M341.328,426.656h-42.656V384h42.656V426.656z M373.328,362.656H138.672
	c-5.891,0-10.672-4.781-10.672-10.656s4.781-10.656,10.672-10.656H160h192h21.328c5.891,0,10.672,4.781,10.672,10.656
	S379.219,362.656,373.328,362.656z M194.109,192c3.766,18.625,12.391,35.5,24.469,49.25c0.172,0.219,0.328,0.438,0.516,0.625
	c0.141,0.188,0.312,0.344,0.484,0.5c19.5,21.594,47.672,35.188,78.953,35.219c0.047,0,0.094,0,0.125,0s0.062,0,0.094,0
	c15.125,0,29.531-3.188,42.578-8.906V320H170.672V192H194.109z M285.516,86.344c4.797,8.547,13.531,26.141,19.141,49.344
	c-12.312,1.859-24.969,1.734-37.922-0.422c-16.734-2.766-30.297-8.438-38.562-12.578C241.203,103.594,261.75,90.047,285.516,86.344z
	 M316.312,254.438c5.953-14.344,10.156-29.125,12.562-44.156c13.469,0.781,26.75,3.906,39.766,9.375
	C356.438,237.156,337.859,249.875,316.312,254.438z M243.344,235.812c7.609-5.188,19.578-12.312,34.547-17.719
	c9.812-3.531,19.547-5.906,29.219-7.125c-2.859,15.438-7.844,30.5-14.891,45.062C273.656,254.625,256.719,247.25,243.344,235.812z
	 M218.438,141.688c9.578,4.828,24.875,11.188,43.844,14.469c7.344,1.266,15.594,2.109,24.531,2.109c6.859,0,14.125-0.5,21.688-1.703
	c1.406,11.016,1.812,21.969,1.203,32.781c-13.281,1.141-26.625,4.125-39.859,8.969c-18.312,6.719-32.484,15.531-40.984,21.594
	c-9.781-13.906-15.531-30.844-15.531-49.109C213.328,160.594,215.141,150.781,218.438,141.688z M331.078,189.141
	c0.594-12.406,0.031-24.953-1.719-37.547c14.094-4.531,28.844-11.719,43.688-22.656C380.016,141.312,384,155.594,384,170.797
	c0,10.516-1.906,20.609-5.391,29.922C363.172,194.062,347.234,190.219,331.078,189.141z M325.359,130.547
	c-0.031-0.109-0.047-0.219-0.078-0.328c-4.5-18.406-10.703-33.562-15.875-44.219c19.922,2.531,37.734,11.953,50.938,25.812
	C349.094,120.094,337.422,126.344,325.359,130.547z M490.672,281.406l-95.141,47.562c-5.766-5.531-13.594-8.969-22.203-8.969
	h-10.656v-63.812c12.531-9.438,22.938-21.594,30.328-35.594c0.141-0.219,0.266-0.438,0.391-0.656
	c0.094-0.188,0.156-0.344,0.25-0.531c7.469-14.594,11.688-31.125,11.688-48.609c0-23.562-7.656-45.359-20.625-63.047
	c-0.266-0.438-0.578-0.891-0.922-1.312c-0.078-0.078-0.156-0.156-0.234-0.234C364.047,80.562,333.25,64,298.672,64
	c-1.984,0-3.953,0.062-5.922,0.156c-1.719-0.281-3.5-0.156-5.219,0.422c-36.141,3.766-66.969,25.703-83.234,56.484
	c-0.266,0.438-0.5,0.875-0.703,1.344c-7.391,14.5-11.562,30.906-11.594,48.25h-32c-5.891,0-10.672,4.781-10.672,10.688V320h-10.656
	c-8.609,0-16.438,3.438-22.203,8.969l-95.141-47.562V123.031L141.89,42.656h228.219l120.562,80.375L490.672,281.406L490.672,281.406
	z"/>
</svg>
