<?xml version="1.0" encoding="iso-8859-1"?>
<!-- Generator: Adobe Illustrator 24.3.0, SVG Export Plug-In . SVG Version: 6.00 Build 0)  -->
<svg version="1.1" id="Capa_1" xmlns="http://www.w3.org/2000/svg" xmlns:xlink="http://www.w3.org/1999/xlink" x="0px" y="0px"
	 viewBox="0 0 512.012 512.012" style="enable-background:new 0 0 512.012 512.012;" xml:space="preserve">
<g>
	<path style="fill:#86a570;" d="M180.004,280.012c0-22.64-10.4-42.88-26.8-55.92l0.08-0.08h74.72v80h-40v-24H180.004z"/>
	<polygon style="fill:#EEE06F;" points="108.004,153.212 84.004,168.012 84.004,136.012 292.004,8.012 500.004,136.012 
		500.004,168.012 476.004,153.212 292.004,40.012 	"/>
	<g>
		<circle style="fill:#86a570;" cx="292.004" cy="144.012" r="32"/>
		<rect x="356.004" y="224.012" style="fill:#86a570;" width="88" height="80"/>
	</g>
	<rect x="260.004" y="264.012" style="fill:#F26867;" width="64" height="120"/>
	<path style="fill:#E6E9ED;" d="M188.004,304.012h40v-80h-74.72l-0.08,0.08c-8.408-6.872-18.32-11.832-29.2-14.32v-8.16
		c-5.2-1.04-10.48-1.6-16-1.6v-46.8l184-113.2l184,113.2v230.8h-152v-120h-64v120h-98.32c11.36-12.72,18.32-29.52,18.32-48v-32
		H188.004z M444.004,304.012v-80h-88v80H444.004z M292.004,176.012c17.68,0,32-14.32,32-32s-14.32-32-32-32s-32,14.32-32,32
		S274.324,176.012,292.004,176.012z"/>
	<path style="fill:#86a570;" d="M183.124,436.892c-5.68-3.12-12.16-4.88-19.12-4.88h-24l-14.32,7.12l-1.68,0.88l-16-8l-16,8
		l-1.68-0.88l-14.32-7.12h-24c-6.96,0-13.44,1.76-19.12,4.88c-12.48,6.8-20.88,20-20.88,35.12v24c0,4.4,3.6,8,8,8h5.52h74.48h16
		h74.48h5.52c4.4,0,8-3.6,8-8v-24C204.004,456.892,195.604,443.692,183.124,436.892z"/>
	<path style="fill:#F5F7FA;" d="M125.684,439.132l-1.68,0.88l-16-8l-16,8l-1.68-0.88l-14.32-7.12v-31.52
		c9.6,4.808,20.56,7.52,32,7.52s22.4-2.72,32-7.52v31.52L125.684,439.132z"/>
	<path style="fill:#EAC6BB;" d="M36.004,304.012v32v0.4c0.16,28.08,16.4,52.4,40,64.08c9.6,4.8,20.56,7.52,32,7.52
		s22.4-2.712,32-7.52c8.24-4.08,15.6-9.68,21.68-16.48c11.36-12.72,18.32-29.52,18.32-48v-32H36.004z"/>
	<path style="fill:#EEE06F;" d="M124.004,201.612v8.16c10.88,2.488,20.8,7.448,29.2,14.32c16.4,13.04,26.8,33.28,26.8,55.92h-144
		c0-34.32,23.92-62.96,56-70.24v-8.16c5.2-1.04,10.56-1.6,16-1.6C113.524,200.012,118.804,200.572,124.004,201.612z"/>
	<g>
		<polygon style="fill:#EEE06F;" points="180.004,304.012 36.004,304.012 28.004,304.012 28.004,280.012 36.004,280.012 
			180.004,280.012 188.004,280.012 188.004,304.012 		"/>
		<path style="fill:#EEE06F;" d="M124.012,240.012v-30.24h-0.008v-8.16c-5.2-1.04-10.48-1.6-16-1.6c-5.44,0-10.8,0.56-16,1.6v8.16
			v30.24H124.012z"/>
	</g>
	<path style="fill:#241C73;" d="M12.004,479.996c-4.424,0-8-3.576-8-8c0-26.472,21.528-48,48-48c4.424,0,8,3.576,8,8s-3.576,8-8,8
		c-17.648,0-32,14.352-32,32C20.004,476.42,16.428,479.996,12.004,479.996z"/>
	<path style="fill:#241C73;" d="M76.004,439.996h-24c-4.424,0-8-3.576-8-8s3.576-8,8-8h24c4.424,0,8,3.576,8,8
		S80.428,439.996,76.004,439.996z"/>
	<path style="fill:#241C73;" d="M12.004,503.996c-4.424,0-8-3.576-8-8v-24c0-4.424,3.576-8,8-8s8,3.576,8,8v24
		C20.004,500.42,16.428,503.996,12.004,503.996z"/>
	<path style="fill:#241C73;" d="M20.004,511.996c-8.824,0-16-7.176-16-16c0-4.248,3.344-7.312,7.584-7.544
		c4.528-0.208,7.936,3.328,8.416,7.536c4.416,0,8,3.584,8,8C28.004,508.412,24.428,511.996,20.004,511.996z"/>
	<path style="fill:#241C73;" d="M204.004,479.996c-4.424,0-8-3.576-8-8c0-17.648-14.352-32-32-32c-4.424,0-8-3.576-8-8s3.576-8,8-8
		c26.472,0,48,21.528,48,48C212.004,476.42,208.428,479.996,204.004,479.996z"/>
	<path style="fill:#241C73;" d="M164.004,439.996h-24c-4.424,0-8-3.576-8-8s3.576-8,8-8h24c4.424,0,8,3.576,8,8
		S168.428,439.996,164.004,439.996z"/>
	<path style="fill:#241C73;" d="M204.004,503.996c-4.424,0-8-3.576-8-8v-24c0-4.424,3.576-8,8-8s8,3.576,8,8v24
		C212.004,500.42,208.428,503.996,204.004,503.996z"/>
	<path style="fill:#241C73;" d="M196.004,511.996c-4.424,0-8-3.576-8-8s3.576-8,8-8c0-4.424,3.576-8,8-8s8,3.576,8,8
		C212.004,504.82,204.828,511.996,196.004,511.996z"/>
	<path style="fill:#241C73;" d="M196.004,511.996h-176c-4.424,0-8-3.576-8-8s3.576-8,8-8h176c4.424,0,8,3.576,8,8
		S200.428,511.996,196.004,511.996z"/>
	<path style="fill:#241C73;" d="M76.004,439.996c-4.424,0-8-3.576-8-8v-31.488c0-4.424,3.576-8,8-8s8,3.576,8,8v31.488
		C84.004,436.42,80.428,439.996,76.004,439.996z"/>
	<path style="fill:#241C73;" d="M140.004,439.996c-4.424,0-8-3.576-8-8v-31.488c0-4.424,3.576-8,8-8s8,3.576,8,8v31.488
		C148.004,436.42,144.428,439.996,140.004,439.996z"/>
	<path style="fill:#241C73;" d="M107.996,415.996c-44.112,0-79.992-35.88-79.992-79.984c0-4.424,3.576-8,8-8s8,3.576,8,8
		c0,35.28,28.704,63.984,63.992,63.984c35.296,0,64.008-28.704,64.008-63.984c0-4.424,3.576-8,8-8s8,3.576,8,8
		C188.004,380.116,152.116,415.996,107.996,415.996z"/>
	<path style="fill:#241C73;" d="M36.004,344.404c-4.424,0-8-3.576-8-8v-32.408c0-4.424,3.576-8,8-8s8,3.576,8,8v32.408
		C44.004,340.828,40.428,344.404,36.004,344.404z"/>
	<path style="fill:#241C73;" d="M180.004,344.012c-4.424,0-8-3.576-8-8v-32.016c0-4.424,3.576-8,8-8s8,3.576,8,8v32.016
		C188.004,340.436,184.428,344.012,180.004,344.012z"/>
	<path style="fill:#241C73;" d="M91.996,447.996c-1.2,0-2.424-0.272-3.568-0.84l-16-8c-3.952-1.976-5.552-6.784-3.576-10.736
		c1.984-3.952,6.784-5.536,10.736-3.576l16,8c3.952,1.976,5.552,6.784,3.576,10.736C97.756,446.38,94.932,447.996,91.996,447.996z"
		/>
	<path style="fill:#241C73;" d="M92.012,447.996c-2.936,0-5.76-1.616-7.168-4.424c-1.976-3.952-0.376-8.76,3.576-10.736l16-8
		c3.952-1.96,8.752-0.376,10.736,3.576c1.976,3.952,0.376,8.76-3.576,10.736l-16,8C94.436,447.724,93.212,447.996,92.012,447.996z"
		/>
	<path style="fill:#241C73;" d="M124.012,447.996c-2.936,0-5.76-1.616-7.168-4.424c-1.976-3.952-0.376-8.76,3.576-10.736l16-8
		c3.944-1.96,8.752-0.376,10.736,3.576c1.976,3.952,0.376,8.76-3.576,10.736l-16,8C126.436,447.724,125.212,447.996,124.012,447.996
		z"/>
	<path style="fill:#241C73;" d="M123.996,447.996c-1.2,0-2.424-0.272-3.568-0.84l-16-8c-3.952-1.976-5.552-6.784-3.576-10.736
		c1.984-3.952,6.776-5.536,10.736-3.576l16,8c3.952,1.976,5.552,6.784,3.576,10.736C129.756,446.38,126.932,447.996,123.996,447.996
		z"/>
	<path style="fill:#241C73;" d="M188.004,311.996h-160c-4.424,0-8-3.576-8-8v-24c0-4.424,3.576-8,8-8h160c4.424,0,8,3.576,8,8v24
		C196.004,308.42,192.428,311.996,188.004,311.996z M36.004,295.996h144v-8h-144L36.004,295.996z"/>
	<path style="fill:#241C73;" d="M180.004,287.996c-4.424,0-8-3.576-8-8c0-29.632-20.936-55.88-49.784-62.416
		c-4.312-0.976-7.016-5.264-6.04-9.568c0.976-4.312,5.256-6.992,9.568-6.04c36.656,8.304,62.248,40.392,62.248,78.024
		C188.004,284.42,184.428,287.996,180.004,287.996z"/>
	<path style="fill:#241C73;" d="M36.004,287.996c-4.424,0-8-3.576-8-8c0-37.624,25.592-69.704,62.232-78.008
		c4.288-0.96,8.592,1.728,9.568,6.04c0.976,4.304-1.728,8.592-6.04,9.568c-29.296,6.632-49.768,32.296-49.768,62.4
		C44.004,284.42,40.428,287.996,36.004,287.996z"/>
	<path style="fill:#241C73;" d="M92.004,247.996c-4.424,0-8-3.576-8-8V201.62c0-4.424,3.576-8,8-8s8,3.576,8,8v38.376
		C100.004,244.42,96.428,247.996,92.004,247.996z"/>
	<path style="fill:#241C73;" d="M91.868,209.62c-3.728,0-7.056-2.608-7.832-6.4c-0.88-4.336,1.904-8.552,6.232-9.44
		c11.624-2.376,23.824-2.376,35.32-0.04c4.328,0.88,7.136,5.104,6.256,9.432s-5.104,7.16-9.432,6.256
		c-9.416-1.904-19.44-1.912-28.944,0.024C92.94,209.564,92.404,209.62,91.868,209.62z"/>
	<path style="fill:#241C73;" d="M124.012,247.996c-4.424,0-8-3.576-8-8v-38.408c0-4.424,3.576-8,8-8s8,3.576,8,8v38.408
		C132.012,244.42,128.436,247.996,124.012,247.996z"/>
	<path style="fill:#241C73;" d="M84.012,144.012c-2.688,0-5.312-1.352-6.824-3.808c-2.312-3.768-1.144-8.696,2.616-11.008l208-128
		c3.776-2.328,8.696-1.152,11.008,2.616s1.144,8.696-2.616,11.008l-208,128C86.884,143.628,85.444,144.012,84.012,144.012z"/>
	<path style="fill:#241C73;" d="M499.996,144.012c-1.432,0-2.872-0.384-4.184-1.184l-208-128c-3.76-2.312-4.928-7.24-2.616-11.008
		s7.224-4.944,11.008-2.616l208,128c3.76,2.312,4.928,7.24,2.616,11.008C505.308,142.66,502.684,144.012,499.996,144.012z"/>
	<path style="fill:#241C73;" d="M84.012,176.012c-2.688,0-5.312-1.352-6.824-3.808c-2.312-3.768-1.144-8.696,2.616-11.008l208-128
		c3.776-2.328,8.696-1.144,11.008,2.616c2.312,3.768,1.144,8.696-2.616,11.008l-208,128
		C86.884,175.628,85.444,176.012,84.012,176.012z"/>
	<path style="fill:#241C73;" d="M499.996,176.012c-1.432,0-2.872-0.384-4.184-1.184l-208-128c-3.76-2.312-4.928-7.24-2.616-11.008
		c2.312-3.76,7.224-4.944,11.008-2.616l208,128c3.76,2.312,4.928,7.24,2.616,11.008C505.308,174.66,502.684,176.012,499.996,176.012
		z"/>
	<path style="fill:#241C73;" d="M84.004,176.012c-4.424,0-8-3.576-8-8v-32c0-4.424,3.576-8,8-8s8,3.576,8,8v32
		C92.004,172.436,88.428,176.012,84.004,176.012z"/>
	<path style="fill:#241C73;" d="M500.004,176.012c-4.424,0-8-3.576-8-8v-32c0-4.424,3.576-8,8-8s8,3.576,8,8v32
		C508.004,172.436,504.428,176.012,500.004,176.012z"/>
	<path style="fill:#241C73;" d="M108.004,207.996c-4.424,0-8-3.576-8-8v-46.752c0-4.424,3.576-8,8-8s8,3.576,8,8v46.752
		C116.004,204.42,112.428,207.996,108.004,207.996z"/>
	<path style="fill:#241C73;" d="M476.004,392.012c-4.424,0-8-3.576-8-8V153.244c0-4.424,3.576-8,8-8s8,3.576,8,8v230.768
		C484.004,388.436,480.428,392.012,476.004,392.012z"/>
	<path style="fill:#241C73;" d="M476.004,392.012H161.652c-4.424,0-8-3.576-8-8s3.576-8,8-8h314.352c4.424,0,8,3.576,8,8
		S480.428,392.012,476.004,392.012z"/>
	<path style="fill:#241C73;" d="M324.004,392.012h-64c-4.424,0-8-3.576-8-8v-120c0-4.424,3.576-8,8-8h64c4.424,0,8,3.576,8,8v120
		C332.004,388.436,328.428,392.012,324.004,392.012z M268.004,376.012h48v-104h-48V376.012z"/>
	<path style="fill:#241C73;" d="M444.004,312.012h-88c-4.424,0-8-3.576-8-8v-80c0-4.424,3.576-8,8-8h88c4.424,0,8,3.576,8,8v80
		C452.004,308.436,448.428,312.012,444.004,312.012z M364.004,296.012h72v-64h-72V296.012z"/>
	<path style="fill:#241C73;" d="M228.004,312.012h-40c-4.424,0-8-3.576-8-8s3.576-8,8-8h32v-64h-66.76c-4.424,0-8-3.576-8-8
		s3.576-8,8-8h74.76c4.424,0,8,3.576,8,8v80C236.004,308.436,232.428,312.012,228.004,312.012z"/>
	<path style="fill:#241C73;" d="M292.004,184.012c-22.056,0-40-17.944-40-40s17.944-40,40-40s40,17.944,40,40
		S314.06,184.012,292.004,184.012z M292.004,120.012c-13.232,0-24,10.768-24,24s10.768,24,24,24s24-10.768,24-24
		S305.236,120.012,292.004,120.012z"/>
	<path style="fill:#241C73;" d="M292.004,184.012c-4.424,0-8-3.576-8-8v-64c0-4.424,3.576-8,8-8s8,3.576,8,8v64
		C300.004,180.436,296.428,184.012,292.004,184.012z"/>
	<path style="fill:#241C73;" d="M324.004,152.012h-64c-4.424,0-8-3.576-8-8s3.576-8,8-8h64c4.424,0,8,3.576,8,8
		S328.428,152.012,324.004,152.012z"/>
</g>
</svg>
