<?xml version="1.0" encoding="iso-8859-1"?>
<!-- Generator: Adobe Illustrator 24.3.0, SVG Export Plug-In . SVG Version: 6.00 Build 0)  -->
<svg version="1.1" id="Capa_1" xmlns="http://www.w3.org/2000/svg" xmlns:xlink="http://www.w3.org/1999/xlink" x="0px" y="0px"
	 viewBox="0 0 512 512" style="enable-background:new 0 0 512 512;" xml:space="preserve">
<g style="display:none;">
	<path style="display:inline;fill:#F5F7FA;" d="M389.424,366.547l-78.282-23.024c-9.483-2.789-15.995-11.492-15.995-21.377v-35.32
		H191.163v35.32c0,9.885-6.512,18.588-15.995,21.377l-78.282,23.024c-18.966,5.578-31.99,22.984-31.99,42.754v78.067h356.518
		v-78.067C421.415,389.531,408.39,372.125,389.424,366.547z"/>
	<path style="display:inline;fill:#241C73;" d="M421.414,492H64.896c-2.558,0-4.633-2.074-4.633-4.633V409.3
		c0-21.675,14.522-41.083,35.315-47.198l78.282-23.024c7.46-2.194,12.67-9.157,12.67-16.932v-35.32c0-2.558,2.074-4.633,4.633-4.633
		h103.984c2.558,0,4.633,2.074,4.633,4.633v35.32c0,7.775,5.21,14.738,12.67,16.932l78.282,23.024
		c20.794,6.115,35.316,25.524,35.315,47.198v78.067C426.047,489.926,423.973,492,421.414,492z M69.529,482.734h347.252V409.3
		c0.001-17.592-11.786-33.346-28.664-38.309l0,0l-78.282-23.024c-11.376-3.346-19.321-13.965-19.321-25.822v-30.687h-94.718v30.687
		c0,11.857-7.945,22.476-19.321,25.822l-78.282,23.024c-16.877,4.963-28.664,20.717-28.664,38.309V482.734z"/>
	<path style="display:inline;fill:#86a570;" d="M389.424,366.547l-78.282-23.024c-1.324-0.389-2.573-0.918-3.771-1.525
		l-64.22,11.677l-64.213-11.677c-1.198,0.607-2.447,1.136-3.771,1.525l-78.282,23.024c-18.966,5.578-31.99,22.984-31.99,42.754
		v78.067h356.518v-78.067C421.415,389.531,408.39,372.125,389.424,366.547z"/>
	<path style="display:inline;fill:#241C73;" d="M263.934,490.395h-38.387l7.615-138.04h23.158L263.934,490.395z M232.841,483.971
		h23.8l-6.905-125.191h-9.988L232.841,483.971z"/>
	<path style="display:inline;fill:#241C73;" d="M258.252,390.146h-27.023l1.933-37.791h23.157L258.252,390.146z M238.522,383.216
		h12.436l-1.224-23.931h-9.988L238.522,383.216z"/>
	<path style="display:inline;fill:#241C73;" d="M421.413,492H64.895c-2.558,0-4.633-2.074-4.633-4.633V409.3
		c0-21.675,14.522-41.083,35.315-47.198l78.282-23.024c0.945-0.278,1.921-0.674,2.984-1.213c0.902-0.457,1.929-0.608,2.923-0.425
		l63.384,11.526l63.392-11.526c0.995-0.184,2.021-0.032,2.923,0.425c1.063,0.539,2.039,0.936,2.983,1.213l78.283,23.024
		c20.795,6.115,35.316,25.524,35.314,47.198v78.067C426.046,489.926,423.972,492,421.413,492z M69.528,482.734H416.78V409.3
		c0.002-17.592-11.785-33.346-28.663-38.309l0,0l-78.282-23.024c-1.026-0.301-2.05-0.68-3.102-1.146l-62.754,11.41
		c-0.548,0.1-1.109,0.1-1.658,0l-62.746-11.41c-1.052,0.466-2.077,0.844-3.103,1.146l-78.281,23.024
		c-16.877,4.963-28.664,20.717-28.664,38.309V482.734z"/>
	<path style="display:inline;fill:#F5F7FA;" d="M350.854,175.414h-11.141V93.712H146.599v81.702h-11.141
		c-10.255,0-18.568,8.313-18.568,18.568s8.313,18.568,18.568,18.568h11.516c3.804,49.845,45.363,89.129,96.181,89.129
		s92.377-39.285,96.181-89.129h11.516c10.255,0,18.568-8.314,18.568-18.568C369.422,183.727,361.109,175.414,350.854,175.414z"/>
	<path style="display:inline;fill:#241C73;" d="M243.155,306.313c-25.661,0-50.123-9.63-68.88-27.117
		c-17.594-16.403-28.68-38.289-31.503-62.012h-7.315c-12.793,0-23.201-10.408-23.201-23.201s10.408-23.201,23.201-23.201h6.508
		V93.712c0-2.558,2.074-4.633,4.633-4.633h193.114c2.558,0,4.633,2.074,4.633,4.633v77.069h6.509c6.197,0,12.024,2.413,16.405,6.795
		c4.382,4.382,6.795,10.209,6.795,16.406c0,12.793-10.408,23.201-23.201,23.201h-7.314c-2.823,23.723-13.908,45.609-31.503,62.012
		C293.279,296.683,268.817,306.313,243.155,306.313z M135.458,180.047c-7.684,0-13.936,6.252-13.936,13.936
		s6.252,13.936,13.936,13.936h11.516c2.422,0,4.435,1.865,4.619,4.28c3.632,47.579,43.85,84.849,91.562,84.849
		c47.712,0,87.931-37.27,91.562-84.849c0.184-2.415,2.197-4.28,4.619-4.28h11.516c7.684,0,13.936-6.252,13.936-13.936
		c0-3.723-1.449-7.222-4.081-9.854c-2.632-2.632-6.131-4.081-9.853-4.081h-11.141c-2.558,0-4.633-2.074-4.633-4.633V98.345H151.232
		v77.069c0,2.558-2.074,4.633-4.633,4.633H135.458z"/>
	<path style="display:inline;fill:#E6646E;" d="M243.156,353.673l-60.066-33.37c-3.696-2.053-8.359-0.612-10.251,3.171
		l-9.311,18.622c-1.219,2.439-0.623,5.394,1.447,7.169l36.802,31.545c6.378,5.468,16.018,4.561,21.267-1.999L243.156,353.673z"/>
	<path style="display:inline;fill:#241C73;" d="M211.401,389.021c-4.639,0-9.068-1.633-12.639-4.694l-36.802-31.545
		c-3.691-3.163-4.75-8.41-2.576-12.757l9.311-18.623c1.485-2.97,4.05-5.146,7.222-6.127c3.172-0.982,6.519-0.634,9.422,0.978
		l60.066,33.371c1.192,0.662,2.032,1.817,2.296,3.155c0.264,1.337-0.076,2.724-0.928,3.789l-20.11,25.138
		c-3.331,4.163-8.088,6.73-13.395,7.228C212.643,388.992,212.02,389.021,211.401,389.021z M179.488,323.999
		c-0.278,0-0.557,0.042-0.832,0.127c-0.735,0.228-1.329,0.732-1.673,1.42l-9.311,18.623c-0.269,0.537-0.138,1.187,0.319,1.579
		l36.802,31.545c2.123,1.819,4.822,2.675,7.608,2.416c2.784-0.262,5.28-1.608,7.027-3.791l16.685-20.856l-55.273-30.708
		C180.418,324.119,179.956,323.999,179.488,323.999z"/>
	<path style="display:inline;fill:#E6646E;" d="M243.156,353.673l60.066-33.37c3.697-2.053,8.359-0.612,10.251,3.171l9.311,18.622
		c1.219,2.439,0.623,5.394-1.447,7.169l-36.802,31.545c-6.378,5.468-16.018,4.561-21.267-1.999L243.156,353.673z"/>
	<path style="display:inline;fill:#241C73;" d="M274.909,389.021c-0.619,0-1.241-0.029-1.866-0.088
		c-5.307-0.498-10.064-3.065-13.395-7.227l-20.11-25.139c-0.852-1.065-1.192-2.451-0.928-3.789c0.264-1.338,1.103-2.493,2.296-3.155
		l60.066-33.371c2.904-1.613,6.25-1.96,9.423-0.978c3.172,0.982,5.736,3.157,7.221,6.127l9.311,18.623
		c2.174,4.348,1.115,9.594-2.576,12.758l-36.802,31.544C283.978,387.388,279.548,389.021,274.909,389.021z M250.198,355.061
		l16.685,20.857c1.747,2.182,4.242,3.529,7.026,3.79c2.781,0.262,5.486-0.596,7.609-2.416l36.802-31.545
		c0.457-0.392,0.588-1.041,0.319-1.579l-9.311-18.623c-0.344-0.688-0.938-1.193-1.673-1.42c-0.736-0.226-1.512-0.147-2.185,0.227
		L250.198,355.061z"/>
	<path style="display:inline;fill:#F26867;" d="M326.375,86.285H159.936c-22.679,0-40.061,12.721-36.737,35.155l8.544,57.645
		l16.676-2.06c7.443-0.919,13.034-7.243,13.034-14.743v-53.715h163.404v53.714c0,7.5,5.591,13.823,13.034,14.743l16.676,2.06
		l8.544-57.644C366.436,99.005,349.054,86.285,326.375,86.285z"/>
	<path style="display:inline;fill:#241C73;" d="M131.738,183.717c-2.264,0-4.237-1.658-4.577-3.954l-8.544-57.645
		c-1.56-10.524,0.886-19.877,7.072-27.047c7.466-8.654,19.628-13.419,34.247-13.419h166.439c14.619,0,26.782,4.766,34.247,13.419
		c6.186,7.171,8.632,16.523,7.072,27.046l-8.544,57.645c-0.368,2.488-2.654,4.225-5.15,3.919l-16.676-2.06
		c-9.748-1.204-17.099-9.519-17.099-19.341V113.2H166.087v49.082c0,9.822-7.351,18.136-17.099,19.341l-16.676,2.06
		C132.119,183.706,131.927,183.717,131.738,183.717z M159.936,90.917c-11.71,0-21.635,3.72-27.231,10.206
		c-4.436,5.141-6.092,11.748-4.923,19.637l7.881,53.172l12.189-1.506c5.113-0.632,8.969-4.993,8.969-10.145v-53.715
		c0-2.558,2.074-4.633,4.633-4.633h163.404c2.558,0,4.633,2.074,4.633,4.633v53.714c0,5.152,3.856,9.513,8.969,10.145l12.189,1.506
		l7.881-53.172c1.169-7.888-0.487-14.495-4.922-19.636c-5.596-6.486-15.522-10.206-27.232-10.206H159.936z"/>
	<path style="display:inline;fill:#F26867;" d="M339.712,26.865c0,0-14.855,14.855-51.992,14.855h-66.847
		c-32.816,0-59.42,26.604-59.42,59.42v7.427h141.122C332.285,108.567,361.995,78.857,339.712,26.865z"/>
	<path style="display:inline;fill:#241C73;" d="M302.574,113.2H161.453c-2.558,0-4.633-2.074-4.633-4.633v-7.427
		c0-35.319,28.734-64.053,64.053-64.053h66.847c34.816,0,48.581-13.363,48.716-13.498c1.087-1.087,2.644-1.564,4.152-1.273
		c1.51,0.29,2.777,1.311,3.382,2.724c10.99,25.643,10.827,49.194-0.462,66.313C334.488,105.033,319.185,113.2,302.574,113.2z
		 M166.086,103.934h136.489c13.487,0,25.898-6.61,33.199-17.682c8.74-13.255,9.358-31.578,1.87-52.052
		c-7.536,4.809-23.389,12.152-49.924,12.152h-66.847c-30.21,0-54.787,24.577-54.787,54.787V103.934z"/>
</g>
<g>
	<g>
		<path style="fill:#86a570;" d="M411.851,431.123v55.92c0,4.488-3.6,8-8,8h-320c-4.4,0-8-3.512-8-8v-56c0-35.36,28.64-64,64-64
			l48,0.08l24,15.92l32-16l32,16l24-15.92v-0.08l48,0.08C383.211,367.123,411.851,395.683,411.851,431.123z"/>
		<path style="fill:#F26867;" d="M363.851,119.123v47.92l-32-32c0,0-40,24-88,24s-88-24-88-24l-32,32v-40c0-57.44,46.48-104,104-104
			h80v40.08C338.811,63.123,363.851,88.171,363.851,119.123z"/>
		<path style="fill:#F5F7FA;" d="M363.851,167.043v48c0,46.08-25.92,86.08-64,106.16c-16.72,8.808-35.76,13.84-56,13.84
			s-39.28-5.04-56-13.84c-38.08-20.08-64-60.08-64-106.16v-48l32-32c0,0,40,24,88,24s88-24,88-24L363.851,167.043z"/>
		<path style="fill:#F5F7FA;" d="M299.851,367.043v0.08l-24,15.92l-32-16l-32,16l-24-15.92v-45.92c16.72,8.808,35.76,13.84,56,13.84
			s39.28-5.04,56-13.84V367.043z"/>
		<path style="fill:#241C73;" d="M75.851,439.051c-4.424,0-8-3.576-8-8c0-39.704,32.296-72,72-72c4.424,0,8,3.576,8,8s-3.576,8-8,8
			c-30.872,0-56,25.128-56,56C83.851,435.475,80.275,439.051,75.851,439.051z"/>
		<path style="fill:#241C73;" d="M347.851,375.059L347.851,375.059l-48-0.016c-4.424,0-8-3.584-8-8c0-4.424,3.584-8,8-8l0,0
			l48,0.016c4.424,0,8,3.584,8,8C355.851,371.483,352.267,375.059,347.851,375.059z"/>
		<path style="fill:#241C73;" d="M75.859,495.043c-4.416,0-8-3.576-8-8l-0.008-55.992c0-4.416,3.576-8,8-8c4.416,0,8,3.576,8,8
			l0.008,55.992C83.859,491.459,80.283,495.043,75.859,495.043z"/>
		<path style="fill:#241C73;" d="M83.859,503.043c-8.824,0-16-7.176-16-16c0-4.424,3.576-8,8-8c4.424,0,8,3.576,8,8v0.016
			c4.424,0,8,3.568,8,7.992C91.859,499.467,88.283,503.043,83.859,503.043z"/>
		<path style="fill:#241C73;" d="M418.851,431.051c0-39.704-32.296-72-72-72c-4.424,0-8,3.576-8,8s3.576,8,8,8
			c30.872,0,56,25.128,56,56l-0.008,55.992v0.016c-4.424,0-8,3.568-8,7.992c0,4.416,3.576,7.992,8,7.992
			c8.547,0,15.527-6.738,15.958-15.18c0.027-0.27,0.042-0.543,0.042-0.82L418.851,431.051z"/>
		<path style="fill:#241C73;" d="M371.851,503.043H83.859c-4.424,0-8-3.576-8-8s3.576-8,8-8h287.992c4.424,0,8,3.576,8,8
			S376.275,503.043,371.851,503.043z"/>
		<path style="fill:#241C73;" d="M187.851,375.059c-4.424,0-8-3.576-8-8v-45.848c0-4.424,3.576-8,8-8c4.424,0,8,3.576,8,8v45.848
			C195.851,371.483,192.275,375.059,187.851,375.059z"/>
		<path style="fill:#241C73;" d="M299.851,375.043c-4.424,0-8-3.576-8-8v-45.832c0-4.424,3.576-8,8-8c4.424,0,8,3.576,8,8v45.832
			C307.851,371.467,304.275,375.043,299.851,375.043z"/>
		<path style="fill:#241C73;" d="M243.851,343.051c-70.576,0-128-57.424-128-128c0-4.424,3.576-8,8-8s8,3.576,8,8
			c0,61.76,50.24,112,112,112s112-50.24,112-112c0-4.424,3.576-8,8-8s8,3.576,8,8C371.851,285.627,314.427,343.051,243.851,343.051z
			"/>
		<path style="fill:#241C73;" d="M123.851,223.051c-4.424,0-8-3.576-8-8v-88.008c0-4.424,3.576-8,8-8s8,3.576,8,8v88.008
			C131.851,219.475,128.275,223.051,123.851,223.051z"/>
		<path style="fill:#241C73;" d="M363.851,223.051c-4.424,0-8-3.576-8-8v-95.992c0-4.424,3.576-8,8-8s8,3.576,8,8v95.992
			C371.851,219.475,368.275,223.051,363.851,223.051z"/>
		<path style="fill:#241C73;" d="M363.851,127.059c-4.424,0-8-3.576-8-8c0-26.472-21.528-48-48-48c-4.424,0-8-3.576-8-8s3.576-8,8-8
			c35.288,0,64,28.712,64,64C371.851,123.483,368.275,127.059,363.851,127.059z"/>
		<path style="fill:#241C73;" d="M307.851,71.059c-4.424,0-8-3.576-8-8V23.043c0-4.424,3.576-8,8-8c4.424,0,8,3.576,8,8v40.016
			C315.851,67.483,312.275,71.059,307.851,71.059z"/>
		<path style="fill:#241C73;" d="M307.851,31.043h-80c-4.424,0-8-3.576-8-8s3.576-8,8-8h80c4.424,0,8,3.576,8,8
			S312.275,31.043,307.851,31.043z"/>
		<path style="fill:#241C73;" d="M123.851,135.043c-4.424,0-8-3.576-8-8c0-61.76,50.24-112,112-112c4.424,0,8,3.576,8,8
			s-3.576,8-8,8c-52.936,0-96,43.064-96,96C131.851,131.467,128.275,135.043,123.851,135.043z"/>
		<path style="fill:#241C73;" d="M363.851,175.043c-2.048,0-4.096-0.784-5.656-2.344l-32-32c-3.128-3.128-3.128-8.184,0-11.312
			c3.128-3.128,8.184-3.128,11.312,0l32,32c3.128,3.128,3.128,8.184,0,11.312C367.947,174.259,365.899,175.043,363.851,175.043z"/>
		<path style="fill:#241C73;" d="M243.851,167.043c-49.648,0-90.408-24.12-92.12-25.144c-3.784-2.272-5.008-7.176-2.744-10.968
			c2.264-3.776,7.152-5.024,10.968-2.76c0.392,0.24,38.808,22.872,83.896,22.872s83.504-22.632,83.888-22.864
			c3.824-2.264,8.704-1.016,10.968,2.76c2.264,3.792,1.04,8.696-2.744,10.968C334.259,142.923,293.499,167.043,243.851,167.043z"/>
		<path style="fill:#241C73;" d="M123.851,175.043c-2.048,0-4.096-0.784-5.656-2.344c-3.128-3.128-3.128-8.184,0-11.312l32-32
			c3.128-3.128,8.184-3.128,11.312,0c3.128,3.128,3.128,8.184,0,11.312l-32,32C127.947,174.259,125.899,175.043,123.851,175.043z"/>
		<path style="fill:#241C73;" d="M211.843,391.043c-1.52,0-3.064-0.44-4.432-1.344l-24-15.984
			c-3.672-2.448-4.672-7.416-2.216-11.096c2.44-3.672,7.4-4.664,11.096-2.216l24,15.984c3.672,2.448,4.672,7.416,2.216,11.096
			C216.971,389.795,214.427,391.043,211.843,391.043z"/>
		<path style="fill:#241C73;" d="M211.859,391.043c-2.936,0-5.76-1.616-7.168-4.424c-1.976-3.952-0.376-8.76,3.576-10.736l32-16
			c3.944-1.968,8.752-0.376,10.736,3.576c1.976,3.952,0.376,8.76-3.576,10.736l-32,16
			C214.283,390.771,213.059,391.043,211.859,391.043z"/>
		<path style="fill:#241C73;" d="M275.859,391.043c-2.584,0-5.128-1.248-6.664-3.56c-2.456-3.68-1.456-8.648,2.216-11.096l24-15.984
			c3.68-2.448,8.648-1.456,11.096,2.216c2.456,3.68,1.456,8.648-2.216,11.096l-24,15.984
			C278.923,390.603,277.379,391.043,275.859,391.043z"/>
		<path style="fill:#241C73;" d="M275.843,391.043c-1.2,0-2.424-0.272-3.568-0.84l-32-16c-3.952-1.976-5.552-6.784-3.576-10.736
			c1.984-3.952,6.784-5.544,10.736-3.576l32,16c3.952,1.976,5.552,6.784,3.576,10.736
			C281.603,389.427,278.779,391.043,275.843,391.043z"/>
		<path style="fill:#241C73;" d="M183.255,375.08L183.255,375.08l-48-0.008c-4.424,0-8-3.584-8-8c0-4.424,3.584-8,8-8l0,0l48,0.008
			c4.424,0,8,3.584,8,8C191.255,371.504,187.671,375.08,183.255,375.08z"/>
		<path style="fill:#241C73;" d="M404.872,502.91L404.872,502.91l-48-0.008c-4.424,0-8-3.584-8-8c0-4.424,3.584-8,8-8l0,0l48,0.008
			c4.424,0,8,3.584,8,8C412.872,499.334,409.288,502.91,404.872,502.91z"/>
		<path d="M244.091,423.043c-4.424,0-8.04-3.576-8.04-8s3.536-8,7.952-8h0.088c4.416,0,8,3.576,8,8S248.507,423.043,244.091,423.043
			z"/>
		<path d="M244.091,463.043c-4.424,0-8.04-3.576-8.04-8s3.536-8,7.952-8h0.088c4.416,0,8,3.576,8,8S248.507,463.043,244.091,463.043
			z"/>
		<polygon style="fill:#EEE06F;" points="236.965,372 229.705,494.298 260.798,494.298 253.538,372 		"/>
		<path style="fill:#241C73;" d="M260.797,501.797h-31.093c-2.066,0-4.041-0.853-5.458-2.356c-1.417-1.504-2.151-3.525-2.029-5.588
			l7.26-122.298c0.235-3.963,3.517-7.056,7.487-7.056h16.573c3.97,0,7.251,3.093,7.487,7.056l7.259,122.298
			c0.123,2.063-0.611,4.084-2.029,5.588C264.838,500.945,262.864,501.797,260.797,501.797z M237.663,486.797h15.176L246.47,379.5
			h-2.438L237.663,486.797z"/>
		<polygon style="fill:#EEE06F;" points="255.116,399.428 253.537,373.021 236.965,373.021 235.386,399.428 		"/>
		<path style="fill:#241C73;" d="M255.116,406.927h-19.729c-2.067,0-4.042-0.853-5.459-2.357c-1.417-1.505-2.15-3.527-2.027-5.59
			l1.579-26.406c0.237-3.962,3.519-7.053,7.487-7.053h16.572c3.968,0,7.25,3.091,7.487,7.053l1.579,26.406
			c0.123,2.063-0.61,4.085-2.027,5.59C259.158,406.075,257.183,406.927,255.116,406.927z M243.348,391.927h3.806l-0.682-11.406
			h-2.442L243.348,391.927z"/>
	</g>
	<g>
		<g id="XMLID_1410_">
			<path id="XMLID_1408_" style="fill:#F26867;" d="M371.994,301.124c-3.312,3.312-8.682,3.312-11.994,0
				c-5.628-5.628-14.754-5.628-20.382,0c-3.312,3.312-8.682,3.312-11.994,0l-0.051-0.051c-2.471-2.471-6.58,0.105-5.433,3.406
				l9.185,26.435h36.87l9.23-26.378C378.58,301.235,374.467,298.65,371.994,301.124L371.994,301.124z"/>
			<path id="XMLID_1399_" style="fill:#F26867;" d="M301.702,361.181l30.267-30.267h35.583l30.267,30.267
				c26.542,26.542,26.542,69.575,0,96.117c-26.542,26.542-69.575,26.542-96.117,0C275.16,430.756,275.16,387.723,301.702,361.181z"
				/>
		</g>
		<path id="XMLID_1411_" style="fill:#FFBF9E;" d="M425.872,499.433h-79.954c-15.875,0-31.124-6.19-42.509-17.254l-40.308-39.174
			c-6.668-6.481-3.41-17.779,5.686-19.713c3.614-0.769,7.378,0.226,10.14,2.68l40.386,35.868c6.802,6.041,15.583,9.378,24.68,9.378
			l42.147-12.827l-38.607,12.276c-5.123,1.629-10.697-0.445-13.509-5.028c-3.627-5.912-1.34-13.663,4.915-16.659l29.06-13.919
			c11.78-5.642,25.34-6.285,37.602-1.783l20.188,7.412L425.872,499.433z"/>
		<path id="XMLID_1218_" style="fill:#F26867;" d="M433.556,435.216h20.856c4.244,0,7.684,3.44,7.684,7.684v48.849
			c0,4.244-3.44,7.684-7.684,7.684h-20.857c-4.244,0-7.684-3.44-7.684-7.684V442.9C425.872,438.656,429.312,435.216,433.556,435.216
			z"/>
		<path id="XMLID_1217_" style="fill:#241C73;" d="M260.232,445.957l40.308,39.174c12.221,11.877,28.336,18.418,45.377,18.418
			h108.495c6.507,0,11.801-5.294,11.801-11.801V442.9c0-6.507-5.294-11.801-11.801-11.801h-20.857c-3.807,0-7.197,1.815-9.357,4.622
			l-6.49-2.383c4.238-11.946,5.251-24.765,2.913-37.337c-2.665-14.336-9.544-27.383-19.892-37.732l-27.962-27.962l8.542-24.412
			c1.149-3.282-0.105-6.867-3.05-8.717c-2.945-1.85-6.718-1.425-9.177,1.034c-0.824,0.824-1.92,1.278-3.086,1.278
			c-1.166,0-2.262-0.454-3.086-1.278c-7.225-7.224-18.979-7.224-26.204,0c-1.701,1.702-4.471,1.702-6.172,0l-0.051-0.051
			c-2.456-2.455-6.228-2.883-9.17-1.038c-2.943,1.845-4.202,5.425-3.062,8.706l8.505,24.476l-23.527,23.526
			c-1.607,1.608-1.607,4.214,0,5.822c1.608,1.607,4.214,1.607,5.822,0l24.623-24.623h32.173l29.061,29.061
			c17.558,17.558,23.265,43.245,15.066,66.407l-2.954-1.085c-13.223-4.855-28.093-4.151-40.798,1.935l-29.061,13.919
			c-4.031,1.931-7.068,5.496-8.333,9.783c-0.801,2.714-0.846,5.572-0.179,8.27c-2.359-1.237-4.579-2.761-6.603-4.559l-32.804-29.135
			c-4.468-13.303-4.431-27.878,0.13-41.165c0.738-2.15-0.407-4.492-2.558-5.23c-2.15-0.736-4.492,0.407-5.23,2.558
			c-3.861,11.251-4.846,23.321-2.97,34.989c-3.24-1.722-7.035-2.289-10.683-1.512c-5.697,1.212-10.239,5.441-11.853,11.037
			C254.463,435.9,256.055,441.898,260.232,445.957z M365.996,307.724c2.369,0,4.637-0.649,6.604-1.864l-7.327,20.937h-31.021
			l-7.286-20.968c1.978,1.235,4.265,1.895,6.654,1.895c3.365,0,6.529-1.31,8.908-3.69c4.014-4.014,10.546-4.014,14.561,0
			C359.468,306.414,362.632,307.724,365.996,307.724L365.996,307.724z M454.412,495.316h-20.856c-1.967,0-3.568-1.6-3.568-3.568
			V442.9c0-1.967,1.6-3.568,3.568-3.568h20.856c1.967,0,3.568,1.6,3.568,3.568v48.848
			C457.98,493.716,456.379,495.316,454.412,495.316z M265.97,440.053c-2.023-1.966-2.764-4.758-1.982-7.468
			c0.782-2.711,2.896-4.679,5.655-5.266c2.324-0.494,4.773,0.153,6.551,1.731l40.386,35.868c7.414,6.585,16.917,10.26,26.817,10.403
			c0.192,0.007,0.384,0.019,0.576,0.019c1.598,0,3.217-0.243,4.808-0.748l38.607-12.277c2.167-0.689,3.364-3.004,2.676-5.171
			c-0.689-2.167-3.005-3.364-5.171-2.676l-38.607,12.277c-3.327,1.057-6.927-0.282-8.753-3.258
			c-1.137-1.852-1.423-4.021-0.808-6.106c0.615-2.085,2.033-3.75,3.993-4.688l29.061-13.919c10.713-5.132,23.254-5.725,34.405-1.631
			l17.572,6.452v48.154c0,1.243,0.195,2.441,0.553,3.568h-76.391c-14.886,0-28.964-5.714-39.639-16.089L265.97,440.053
			L265.97,440.053z"/>
		<path id="XMLID_1298_" style="fill:#241C73;" d="M293.841,374.708c-1.083,0-2.145-0.436-2.91-1.206
			c-0.766-0.766-1.207-1.824-1.207-2.91c0-1.083,0.44-2.141,1.207-2.91c0.765-0.765,1.827-1.206,2.91-1.206
			c1.083,0,2.141,0.44,2.91,1.206c0.766,0.77,1.206,1.828,1.206,2.91c0,1.087-0.44,2.145-1.206,2.91
			C295.986,374.272,294.924,374.708,293.841,374.708z"/>
		<path style="fill:#EEE06F;" d="M361.46,389.407h-3.548c-0.33-1.482-0.855-2.914-1.561-4.258h5.11c1.568,0,2.839-1.271,2.839-2.839
			c0-1.568-1.271-2.839-2.839-2.839h-21.29c-1.568,0-2.839,1.271-2.839,2.839c0,1.568,1.271,2.839,2.839,2.839h6.103
			c2.586,0.032,4.842,1.766,5.536,4.258H340.17c-1.568,0-2.839,1.271-2.839,2.839c0,1.568,1.271,2.839,2.839,2.839h11.639
			c-0.284,0-0.568,0.852-1.136,1.277c-1.193,1.097-2.782,1.661-4.4,1.561h-6.103c-1.153-0.001-2.203,0.662-2.697,1.703
			c-0.429,1.088-0.147,2.327,0.71,3.123l15.187,14.335c0.524,0.535,1.238,0.841,1.987,0.852c0.809-0.055,1.567-0.41,2.129-0.993
			c1.043-1.142,0.98-2.909-0.142-3.974l-10.077-9.509c2.752-0.134,5.368-1.241,7.38-3.123c1.457-1.492,2.571-3.284,3.264-5.252
			h3.548c1.568,0,2.839-1.271,2.839-2.839C364.298,390.678,363.027,389.407,361.46,389.407z"/>
	</g>
</g>
</svg>
