<?xml version="1.0" encoding="iso-8859-1"?>
<!-- Generator: Adobe Illustrator 24.3.0, SVG Export Plug-In . SVG Version: 6.00 Build 0)  -->
<svg version="1.1" id="Capa_1" xmlns="http://www.w3.org/2000/svg" xmlns:xlink="http://www.w3.org/1999/xlink" x="0px" y="0px"
	 viewBox="0 0 496 496" style="enable-background:new 0 0 496 496;" xml:space="preserve">
<g>
	<path style="fill:#241C73;" d="M496,112V56c0-30.87-25.13-56-56-56H312c-30.87,0-56,25.13-56,56v56h16v48h-16v40h-3.41
		L67.67,392.62c-4.5,4.69-10.81,7.38-17.31,7.38H24c-13.23,0-24,10.77-24,24v72h90.26c10.92,0,21.49-4.54,29-12.46L259.44,336H272
		v160h48v-16h112v16h48V336h16V160h-16v-48H496z M256,320h-3.44l-144.9,152.53c-4.51,4.75-10.84,7.47-17.4,7.47H16v-56
		c0-4.42,3.58-8,8-8h26.36c10.84,0,21.35-4.48,28.86-12.3L256,219.55V320z M304,480h-16V336h16V480z M432,464H320v-16h112V464z
		 M432,432H320v-32h112V432z M432,384H320v-16h112V384z M432,352H320v-16h112V352z M464,480h-16V336h16V480z M480,320H272V176h208
		V320z M288,160v-48h16v48H288z M320,160v-48h112v48H320z M448,160v-48h16v48H448z M272,96V80h176V64H272v-8c0-22.06,17.94-40,40-40
		h128c22.06,0,40,17.94,40,40v8h-16v16h16v16H272z"/>
	<path style="fill:#86a570;" d="M256,219.55V320h-3.44l-144.9,152.53c-4.51,4.75-10.84,7.47-17.4,7.47H16v-56c0-4.42,3.58-8,8-8
		h26.36c10.84,0,21.35-4.48,28.86-12.3L256,219.55z"/>
	<path style="fill:#86a570;" d="M272,176v144h208V176H272z M376,304c-30.87,0-56-25.13-56-56s25.13-56,56-56s56,25.13,56,56
		S406.87,304,376,304z"/>
	<path style="fill:#F26867;" d="M464,64v16h16v16H272V80h176V64H272v-8c0-22.06,17.94-40,40-40h128c22.06,0,40,17.94,40,40v8H464z"
		/>
	<path style="fill:#241C73;" d="M376,192c-30.87,0-56,25.13-56,56s25.13,56,56,56s56-25.13,56-56S406.87,192,376,192z M376,288
		c-22.06,0-40-17.94-40-40s17.94-40,40-40s40,17.94,40,40S398.06,288,376,288z"/>
	<circle style="fill:#EEE06F;" cx="376" cy="248" r="40"/>
</g>
</svg>
