<?xml version="1.0" encoding="iso-8859-1"?>
<!-- Generator: Adobe Illustrator 24.3.0, SVG Export Plug-In . SVG Version: 6.00 Build 0)  -->
<svg version="1.1" id="icons" xmlns="http://www.w3.org/2000/svg" xmlns:xlink="http://www.w3.org/1999/xlink" x="0px" y="0px"
	 viewBox="0 0 512 512" style="enable-background:new 0 0 512 512;" xml:space="preserve">
<g>
	<path style="fill:#DBDFE0;" d="M344,228h144v256H344V228z"/>
	<path style="fill:#DBDFE0;" d="M256,132h-88v96v256h56v-80h64v80h56V228v-96H256z"/>
	<path style="fill:#DBDFE0;" d="M24,228h144v256H24V228z"/>
	<path style="fill:#EEE06F;" d="M376,332h40v40h-40V332z"/>
	<circle style="fill:#EEE06F;" cx="256" cy="68" r="40"/>
	<g>
		<path style="fill:#EEE06F;" d="M216,188h40v40h-40V188z"/>
		<path style="fill:#EEE06F;" d="M256,260h40v40h-40V260z"/>
		<path style="fill:#EEE06F;" d="M376,260h40v40h-40V260z"/>
		<path style="fill:#EEE06F;" d="M376,404h40v40h-40V404z"/>
		<path style="fill:#EEE06F;" d="M256,332h40v40h-40V332z"/>
		<path style="fill:#EEE06F;" d="M416,332h40v40h-40V332z"/>
		<path style="fill:#EEE06F;" d="M416,260h40v40h-40V260z"/>
		<path style="fill:#EEE06F;" d="M216,260h40v40h-40V260z"/>
		<path style="fill:#EEE06F;" d="M216,332h40v40h-40V332z"/>
		<path style="fill:#EEE06F;" d="M56,404h40v40H56V404z"/>
		<path style="fill:#EEE06F;" d="M96,404h40v40H96V404z"/>
	</g>
	<path style="fill:#86a570;" d="M224,404h64v80h-64V404z"/>
	<path style="fill:#EEE06F;" d="M96,260h40v40H96V260z"/>
	<path style="fill:#EEE06F;" d="M56,332h40v40H56V332z"/>
	<path style="fill:#EEE06F;" d="M96,332h40v40H96V332z"/>
	<path style="fill:#EEE06F;" d="M256,188h40v40h-40V188z"/>
	<path style="fill:#EEE06F;" d="M416,404h40v40h-40V404z"/>
	<path style="fill:#EEE06F;" d="M56,260h40v40H56V260z"/>
	<g>
		<path style="fill:#241C73;" d="M296.008,308.016H216c-4.424,0-8-3.576-8-8v-40c0-4.424,3.576-8,8-8h80.008c4.424,0,8,3.576,8,8v40
			C304.008,304.44,300.432,308.016,296.008,308.016z M224,292.016h64.008v-24H224V292.016z"/>
		<g>
			<path style="fill:#241C73;" d="M504,492H8c-4.424,0-8-3.576-8-8s3.576-8,8-8h496c4.424,0,8,3.576,8,8S508.424,492,504,492z"/>
			<path style="fill:#241C73;" d="M343.992,492H168.008c-4.424,0-8-3.576-8-8V132c0-4.424,3.576-8,8-8h175.984c4.424,0,8,3.576,8,8
				v352C351.992,488.424,348.416,492,343.992,492z M176.008,476h159.984V140H176.008V476z"/>
			<path style="fill:#241C73;" d="M487.992,492H344.008c-4.424,0-8-3.576-8-8V228c0-4.424,3.576-8,8-8h143.984c4.424,0,8,3.576,8,8
				v256C495.992,488.424,492.416,492,487.992,492z M352.008,476h127.984V236H352.008V476z"/>
			<path style="fill:#241C73;" d="M168,492H24.016c-4.424,0-8-3.576-8-8V228c0-4.424,3.576-8,8-8H168c4.424,0,8,3.576,8,8v256
				C176,488.424,172.424,492,168,492z M32.016,476H160V236H32.016L32.016,476z"/>
			<path style="fill:#241C73;" d="M136.008,308H56c-4.424,0-8-3.576-8-8v-40c0-4.424,3.576-8,8-8h80.008c4.424,0,8,3.576,8,8v40
				C144.008,304.424,140.432,308,136.008,308z M64,292h64.008v-24H64V292z"/>
			<path style="fill:#241C73;" d="M96.008,308c-4.424,0-8-3.576-8-8v-40c0-4.424,3.576-8,8-8s8,3.576,8,8v40
				C104.008,304.424,100.432,308,96.008,308z"/>
			<path style="fill:#241C73;" d="M136.008,380H56c-4.424,0-8-3.576-8-8v-40c0-4.424,3.576-8,8-8h80.008c4.424,0,8,3.576,8,8v40
				C144.008,376.424,140.432,380,136.008,380z M64,364h64.008v-24H64V364z"/>
			<path style="fill:#241C73;" d="M96.008,380c-4.424,0-8-3.576-8-8v-39.984c0-4.424,3.576-8,8-8s8,3.576,8,8V372
				C104.008,376.424,100.432,380,96.008,380z"/>
			<path style="fill:#241C73;" d="M136.008,452.016H56c-4.424,0-8-3.576-8-8v-40c0-4.424,3.576-8,8-8h80.008c4.424,0,8,3.576,8,8v40
				C144.008,448.44,140.432,452.016,136.008,452.016z M64,436.016h64.008v-24H64V436.016z"/>
			<path style="fill:#241C73;" d="M96.008,452.016c-4.424,0-8-3.576-8-8v-40c0-4.424,3.576-8,8-8s8,3.576,8,8v40
				C104.008,448.44,100.432,452.016,96.008,452.016z"/>
			<path style="fill:#241C73;" d="M456,308h-80.008c-4.424,0-8-3.576-8-8v-40c0-4.424,3.576-8,8-8H456c4.424,0,8,3.576,8,8v40
				C464,304.424,460.424,308,456,308z M383.992,292H448v-24h-64.008V292z"/>
			<path style="fill:#241C73;" d="M416,308c-4.424,0-8-3.576-8-8v-40c0-4.424,3.576-8,8-8s8,3.576,8,8v40
				C424,304.424,420.424,308,416,308z"/>
			<path style="fill:#241C73;" d="M296.008,236.016H216c-4.424,0-8-3.576-8-8v-40c0-4.424,3.576-8,8-8h80.008c4.424,0,8,3.576,8,8
				v40C304.008,232.44,300.432,236.016,296.008,236.016z M224,220.016h64.008v-24H224V220.016z"/>
			<path style="fill:#241C73;" d="M256.008,236.016c-4.424,0-8-3.576-8-8v-40c0-4.424,3.576-8,8-8c4.424,0,8,3.576,8,8v40
				C264.008,232.44,260.432,236.016,256.008,236.016z"/>
			<path style="fill:#241C73;" d="M256.008,308.016c-4.424,0-8-3.576-8-8v-40c0-4.424,3.576-8,8-8c4.424,0,8,3.576,8,8v40
				C264.008,304.44,260.432,308.016,256.008,308.016z"/>
			<path style="fill:#241C73;" d="M296.008,380H216c-4.424,0-8-3.576-8-8v-40c0-4.424,3.576-8,8-8h80.008c4.424,0,8,3.576,8,8v40
				C304.008,376.424,300.432,380,296.008,380z M224,364h64.008v-24H224V364z"/>
			<path style="fill:#241C73;" d="M256.008,380c-4.424,0-8-3.576-8-8v-39.984c0-4.424,3.576-8,8-8c4.424,0,8,3.576,8,8V372
				C264.008,376.424,260.432,380,256.008,380z"/>
			<path style="fill:#241C73;" d="M456,380h-80.008c-4.424,0-8-3.576-8-8v-40c0-4.424,3.576-8,8-8H456c4.424,0,8,3.576,8,8v40
				C464,376.424,460.424,380,456,380z M383.992,364H448v-24h-64.008V364z"/>
			<path style="fill:#241C73;" d="M416,380c-4.424,0-8-3.576-8-8v-39.984c0-4.424,3.576-8,8-8s8,3.576,8,8V372
				C424,376.424,420.424,380,416,380z"/>
			<path style="fill:#241C73;" d="M456,452.016h-80.008c-4.424,0-8-3.576-8-8v-40c0-4.424,3.576-8,8-8H456c4.424,0,8,3.576,8,8v40
				C464,448.44,460.424,452.016,456,452.016z M383.992,436.016H448v-24h-64.008V436.016z"/>
			<path style="fill:#241C73;" d="M416,452.016c-4.424,0-8-3.576-8-8v-40c0-4.424,3.576-8,8-8s8,3.576,8,8v40
				C424,448.44,420.424,452.016,416,452.016z"/>
			<path style="fill:#241C73;" d="M288,492h-64c-4.424,0-8-3.576-8-8v-80c0-4.424,3.576-8,8-8h64c4.424,0,8,3.576,8,8v80
				C296,488.424,292.424,492,288,492z M232,476h48v-64h-48V476z"/>
			<path style="fill:#241C73;" d="M352,140H160c-4.424,0-8-3.576-8-8s3.576-8,8-8h192c4.424,0,8,3.576,8,8
				C360,136.424,356.424,140,352,140z"/>
			<path style="fill:#241C73;" d="M496,236h-8.008c-4.424,0-8-3.576-8-8s3.576-8,8-8H496c4.424,0,8,3.576,8,8S500.424,236,496,236z"
				/>
			<path style="fill:#241C73;" d="M24.016,236H16c-4.424,0-8-3.576-8-8s3.576-8,8-8h8.016c4.424,0,8,3.576,8,8S28.44,236,24.016,236
				z"/>
			<path style="fill:#241C73;" d="M256,140c-4.424,0-8-3.576-8-8v-24c0-4.424,3.576-8,8-8c4.424,0,8,3.576,8,8v24
				C264,136.424,260.424,140,256,140z"/>
			<path style="fill:#241C73;" d="M255.992,116c-26.472,0-48-21.528-48-48s21.528-48,48-48s48,21.528,48,48S282.464,116,255.992,116
				z M255.992,36c-17.648,0-32,14.352-32,32s14.352,32,32,32s32-14.352,32-32S273.64,36,255.992,36z"/>
		</g>
	</g>
	<g>
		<path style="fill:#F26867;" d="M256,92c-4.424,0-8-3.576-8-8V52c0-4.424,3.576-8,8-8c4.424,0,8,3.576,8,8v32
			C264,88.424,260.424,92,256,92z"/>
		<path style="fill:#F26867;" d="M272,76h-32c-4.424,0-8-3.576-8-8s3.576-8,8-8h32c4.424,0,8,3.576,8,8S276.424,76,272,76z"/>
	</g>
</g>
</svg>
