<?xml version="1.0" encoding="iso-8859-1"?>
<!-- Generator: Adobe Illustrator 24.3.0, SVG Export Plug-In . SVG Version: 6.00 Build 0)  -->
<svg version="1.1" id="Layer_1" xmlns="http://www.w3.org/2000/svg" xmlns:xlink="http://www.w3.org/1999/xlink" x="0px" y="0px"
	 viewBox="0 0 512 512" style="enable-background:new 0 0 512 512;" xml:space="preserve">
<path style="fill:#FFFFFF;" d="M280,60l-24.16,32L232,60H280z"/>
<path style="fill:#DBDFE0;" d="M255.84,92L280,60h-48L255.84,92z M256,12c35.359,0,64,28.641,64,64s-28.641,64-64,64
	s-64-28.641-64-64S220.641,12,256,12z"/>
<path style="fill:#86a570;" d="M327.922,212c-4.48,0-8,3.602-8,8H191.84c0-4.398-3.52-8-8-8v-16c4.48,0,8-3.602,8-8h128.082
	c0,4.398,3.52,8,8,8V212z"/>
<path style="fill:#EEE06F;" d="M256,163.922H8V244h496v-80.078H256z M327.922,212c-4.48,0-8,3.602-8,8H191.84c0-4.398-3.52-8-8-8
	v-16c4.48,0,8-3.602,8-8h128.082c0,4.398,3.52,8,8,8V212z"/>
<path style="fill:#F26867;" d="M456,291.922V372h-8c-13.281,0-24-10.801-24-24v-56.078H456z"/>
<path style="fill:#F26867;" d="M456,372v40h-24v-24c0-8.879,7.129-16,16-16H456z"/>
<path style="fill:#86a570;" d="M432,388v24h-56v-24c0-8.879-7.191-16-16-16c13.281,0,24-10.801,24-24v-56.078h40V348
	c0,13.199,10.719,24,24,24C439.129,372,432,379.113,432,388z"/>
<path style="fill:#F26867;" d="M384,291.922V348c0,13.199-10.719,24-24,24h-8v-80.078H384z"/>
<path style="fill:#F26867;" d="M360,372c8.809,0,16,7.121,16,16v24h-24v-40H360z"/>
<path style="fill:#F26867;" d="M64,372c8.809,0,16,7.121,16,16v24H56v-40H64z"/>
<path style="fill:#F26867;" d="M88,291.922V348c0,13.199-10.719,24-24,24h-8v-80.078H88z"/>
<path style="fill:#F26867;" d="M160,291.922V372h-8c-13.281,0-24-10.801-24-24v-56.078H160z"/>
<path style="fill:#F26867;" d="M160,372v40h-24v-24c0-8.879,7.129-16,16-16H160z"/>
<path style="fill:#86a570;" d="M136,412H80v-24c0-8.879-7.191-16-16-16c13.281,0,24-10.801,24-24v-56.078h40V348
	c0,13.199,10.719,24,24,24c-8.871,0-16,7.121-16,16V412z"/>
<path style="fill:#EEE06F;" d="M192,412h64v87.84h-64V412z"/>
<path style="fill:#EEE06F;" d="M256,412h63.922v87.84H256V412z"/>
<path style="fill:#86a570;" d="M192,291.922h64V412h-64V291.922z"/>
<path style="fill:#86a570;" d="M256,291.922h63.922V412H256V291.922z"/>
<path style="fill:#DBDFE0;" d="M488,244v255.84H319.922V291.922H192V499.84H24V244H488z M456,412V291.922H352V412H456z M160,412
	V291.922H56V412H160z"/>
<path style="fill:#241C73;" d="M504,507.84H8c-4.426,0-8-3.574-8-8s3.574-8,8-8h496c4.426,0,8,3.574,8,8S508.426,507.84,504,507.84z
	"/>
<path style="fill:#241C73;" d="M24,507.84c-4.426,0-8-3.574-8-8V243.984c0-4.426,3.574-8,8-8s8,3.574,8,8V499.84
	C32,504.266,28.426,507.84,24,507.84z"/>
<path style="fill:#241C73;" d="M504,251.984H8c-4.426,0-8-3.578-8-8c0-4.426,3.574-8,8-8h496c4.426,0,8,3.574,8,8
	C512,248.406,508.426,251.984,504,251.984z"/>
<path style="fill:#241C73;" d="M504,171.953H8c-4.426,0-8-3.578-8-8c0-4.426,3.574-8,8-8h496c4.426,0,8,3.574,8,8
	C512,168.375,508.426,171.953,504,171.953z"/>
<path style="fill:#241C73;" d="M488.008,507.84c-4.422,0-8-3.574-8-8V243.984c0-4.426,3.578-8,8-8c4.426,0,8,3.574,8,8V499.84
	C496.008,504.266,492.434,507.84,488.008,507.84z"/>
<path style="fill:#241C73;" d="M8,251.984c-4.426,0-8-3.578-8-8v-80.031c0-4.426,3.574-8,8-8s8,3.574,8,8v80.031
	C16,248.406,12.426,251.984,8,251.984z"/>
<path style="fill:#241C73;" d="M504,251.984c-4.426,0-8-3.578-8-8v-80.031c0-4.426,3.574-8,8-8s8,3.574,8,8v80.031
	C512,248.406,508.426,251.984,504,251.984z"/>
<path style="fill:#241C73;" d="M319.879,227.984H191.871c-4.422,0-8-3.578-8-8c0-4.426,3.578-8,8-8h128.008c4.426,0,8,3.574,8,8
	C327.879,224.406,324.305,227.984,319.879,227.984z"/>
<path style="fill:#241C73;" d="M183.871,203.984c-4.422,0-8-3.578-8-8c0-4.426,3.578-8,8-8c0-4.426,3.578-8,8-8c4.426,0,8,3.574,8,8
	C199.871,196.801,192.695,203.984,183.871,203.984z"/>
<path style="fill:#241C73;" d="M191.871,227.984c-4.422,0-8-3.578-8-8v-0.016c-4.422,0-8-3.57-8-7.992c0-4.418,3.578-7.992,8-7.992
	c8.824,0,16,7.176,16,16C199.871,224.406,196.297,227.984,191.871,227.984z"/>
<path style="fill:#241C73;" d="M319.879,227.984c-4.422,0-8-3.578-8-8c0-8.824,7.176-16,16-16c4.426,0,8,3.574,8,8
	c0,4.422-3.574,8-8,8C327.879,224.406,324.305,227.984,319.879,227.984z"/>
<path style="fill:#241C73;" d="M327.879,203.984c-8.824,0-16-7.176-16-16c0-4.426,3.578-8,8-8c4.426,0,8,3.574,8,8V188
	c4.426,0,8,3.566,8,7.992C335.879,200.406,332.305,203.984,327.879,203.984z"/>
<path style="fill:#241C73;" d="M319.879,195.984H191.871c-4.422,0-8-3.578-8-8c0-4.426,3.578-8,8-8h128.008c4.426,0,8,3.574,8,8
	C327.879,192.406,324.305,195.984,319.879,195.984z"/>
<path style="fill:#241C73;" d="M327.879,219.984c-4.422,0-8-3.578-8-8v-16c0-4.426,3.578-8,8-8c4.426,0,8,3.574,8,8v16
	C335.879,216.406,332.305,219.984,327.879,219.984z"/>
<path style="fill:#241C73;" d="M183.871,219.984c-4.422,0-8-3.578-8-8v-16c0-4.426,3.578-8,8-8c4.426,0,8,3.574,8,8v16
	C191.871,216.406,188.297,219.984,183.871,219.984z"/>
<path style="fill:#241C73;" d="M144.008,211.969H48c-4.426,0-8-3.578-8-8c0-4.426,3.574-8,8-8h96.008c4.426,0,8,3.574,8,8
	C152.008,208.391,148.434,211.969,144.008,211.969z"/>
<path style="fill:#241C73;" d="M464,211.969h-95.992c-4.422,0-8-3.578-8-8c0-4.426,3.578-8,8-8H464c4.426,0,8,3.574,8,8
	C472,208.391,468.426,211.969,464,211.969z"/>
<path style="fill:#241C73;" d="M256,171.984c-4.426,0-8-3.578-8-8V140c0-4.426,3.574-8,8-8s8,3.574,8,8v23.984
	C264,168.406,260.426,171.984,256,171.984z"/>
<path style="fill:#241C73;" d="M256.008,148c-39.703,0-72-32.297-72-72s32.297-72,72-72s72,32.297,72,72S295.711,148,256.008,148z
	 M256.008,20c-30.871,0-56,25.129-56,56s25.129,56,56,56s56-25.129,56-56S286.879,20,256.008,20z"/>
<g>
	<path style="fill:#F26867;" d="M280.008,67.969h-48.016c-4.426,0-8-3.578-8-8c0-4.426,3.574-8,8-8h48.016c4.426,0,8,3.574,8,8
		C288.008,64.391,284.434,67.969,280.008,67.969z"/>
	<path style="fill:#F26867;" d="M255.863,99.984c-1.672,0-3.367-0.52-4.809-1.609c-3.527-2.664-4.23-7.68-1.574-11.199
		l24.137-32.016c2.664-3.52,7.68-4.25,11.199-1.574c3.527,2.66,4.23,7.68,1.574,11.199l-24.133,32.016
		C260.688,98.879,258.297,99.984,255.863,99.984z"/>
	<path style="fill:#F26867;" d="M255.879,99.984c-2.438,0-4.848-1.113-6.422-3.215l-23.883-32.016
		c-2.637-3.539-1.91-8.555,1.633-11.195c3.547-2.637,8.547-1.91,11.191,1.633l23.883,32.016c2.641,3.535,1.91,8.555-1.633,11.191
		C259.215,99.465,257.543,99.984,255.879,99.984z"/>
	<path style="fill:#F26867;" d="M255.871,115.984c-4.422,0-8-3.578-8-8v-16c0-4.426,3.578-8,8-8c4.426,0,8,3.574,8,8v16
		C263.871,112.406,260.297,115.984,255.871,115.984z"/>
	<path style="fill:#F26867;" d="M264,115.984h-16c-4.426,0-8-3.578-8-8c0-4.426,3.574-8,8-8h16c4.426,0,8,3.574,8,8
		C272,112.406,268.426,115.984,264,115.984z"/>
</g>
<path style="fill:#241C73;" d="M191.984,507.84c-4.426,0-8-3.574-8-8V291.953c0-4.426,3.574-8,8-8c4.422,0,8,3.574,8,8V499.84
	C199.984,504.266,196.406,507.84,191.984,507.84z"/>
<path style="fill:#241C73;" d="M319.879,507.84c-4.422,0-8-3.574-8-8V291.953c0-4.426,3.578-8,8-8c4.426,0,8,3.574,8,8V499.84
	C327.879,504.266,324.305,507.84,319.879,507.84z"/>
<path style="fill:#241C73;" d="M319.879,299.953H191.984c-4.426,0-8-3.578-8-8c0-4.426,3.574-8,8-8h127.895c4.426,0,8,3.574,8,8
	C327.879,296.375,324.305,299.953,319.879,299.953z"/>
<path style="fill:#241C73;" d="M319.879,419.969H191.984c-4.426,0-8-3.578-8-8c0-4.426,3.574-8,8-8h127.895c4.426,0,8,3.574,8,8
	C327.879,416.391,324.305,419.969,319.879,419.969z"/>
<path style="fill:#241C73;" d="M256,507.84c-4.426,0-8-3.574-8-8V291.953c0-4.426,3.574-8,8-8s8,3.574,8,8V499.84
	C264,504.266,260.426,507.84,256,507.84z"/>
<path style="fill:#241C73;" d="M224,483.984c-4.426,0-8-3.578-8-8v-40.016c0-4.426,3.574-8,8-8s8,3.574,8,8v40.016
	C232,480.406,228.426,483.984,224,483.984z"/>
<path style="fill:#241C73;" d="M288.008,483.984c-4.422,0-8-3.578-8-8v-40.016c0-4.426,3.578-8,8-8c4.426,0,8,3.574,8,8v40.016
	C296.008,480.406,292.434,483.984,288.008,483.984z"/>
<path style="fill:#241C73;" d="M160.008,420H55.992c-4.426,0-8-3.574-8-8V291.953c0-4.426,3.574-8,8-8h104.016c4.426,0,8,3.574,8,8
	V412C168.008,416.426,164.434,420,160.008,420z M63.992,404h88.016V299.953H63.992V404z"/>
<path style="fill:#241C73;" d="M87.992,355.969c-4.426,0-8-3.578-8-8v-56.016c0-4.426,3.574-8,8-8c4.422,0,8,3.574,8,8v56.016
	C95.992,352.391,92.414,355.969,87.992,355.969z"/>
<path style="fill:#241C73;" d="M63.992,379.969c-4.426,0-8-3.578-8-8c0-4.426,3.574-8,8-8c8.824,0,16-7.176,16-16
	c0-4.426,3.574-8,8-8c4.422,0,8,3.574,8,8C95.992,365.617,81.641,379.969,63.992,379.969z"/>
<path style="fill:#241C73;" d="M79.992,395.984c-4.426,0-8-3.578-8-8c0-4.418-3.586-8-8-8c-4.426,0-8-3.578-8-8c0-4.426,3.574-8,8-8
	c13.23,0,24,10.77,24,24C87.992,392.406,84.414,395.984,79.992,395.984z"/>
<path style="fill:#241C73;" d="M79.992,419.969c-4.426,0-8-3.578-8-8v-23.984c0-4.426,3.574-8,8-8c4.422,0,8,3.574,8,8v23.984
	C87.992,416.391,84.414,419.969,79.992,419.969z"/>
<path style="fill:#241C73;" d="M128,355.969c-4.426,0-8-3.578-8-8v-56.016c0-4.426,3.574-8,8-8s8,3.574,8,8v56.016
	C136,352.391,132.426,355.969,128,355.969z"/>
<path style="fill:#241C73;" d="M152,379.969c-17.648,0-32-14.352-32-32c0-4.426,3.574-8,8-8s8,3.574,8,8c0,8.824,7.176,16,16,16
	c4.426,0,8,3.574,8,8C160,376.391,156.426,379.969,152,379.969z"/>
<path style="fill:#241C73;" d="M136,395.984c-4.426,0-8-3.578-8-8c0-13.23,10.77-24,24-24c4.426,0,8,3.574,8,8c0,4.422-3.574,8-8,8
	c-4.414,0-8,3.582-8,8C144,392.406,140.426,395.984,136,395.984z"/>
<path style="fill:#241C73;" d="M136,419.969c-4.426,0-8-3.578-8-8v-23.984c0-4.426,3.574-8,8-8s8,3.574,8,8v23.984
	C144,416.391,140.426,419.969,136,419.969z"/>
<path style="fill:#241C73;" d="M160,379.984h-8c-4.426,0-8-3.578-8-8c0-4.426,3.574-8,8-8h8c4.426,0,8,3.574,8,8
	C168,376.406,164.426,379.984,160,379.984z"/>
<path style="fill:#241C73;" d="M63.992,379.969H56c-4.426,0-8-3.578-8-8c0-4.426,3.574-8,8-8h7.992c4.422,0,8,3.574,8,8
	C71.992,376.391,68.414,379.969,63.992,379.969z"/>
<path style="fill:#241C73;" d="M456.008,420H351.992c-4.426,0-8-3.574-8-8V291.953c0-4.426,3.574-8,8-8h104.016c4.426,0,8,3.574,8,8
	V412C464.008,416.426,460.434,420,456.008,420z M359.992,404h88.016V299.953h-88.016V404z"/>
<path style="fill:#241C73;" d="M383.992,355.969c-4.426,0-8-3.578-8-8v-56.016c0-4.426,3.574-8,8-8c4.422,0,8,3.574,8,8v56.016
	C391.992,352.391,388.414,355.969,383.992,355.969z"/>
<path style="fill:#241C73;" d="M359.992,379.969c-4.426,0-8-3.578-8-8c0-4.426,3.574-8,8-8c8.824,0,16-7.176,16-16
	c0-4.426,3.574-8,8-8c4.422,0,8,3.574,8,8C391.992,365.617,377.641,379.969,359.992,379.969z"/>
<path style="fill:#241C73;" d="M375.992,395.984c-4.426,0-8-3.578-8-8c0-4.418-3.586-8-8-8c-4.426,0-8-3.578-8-8
	c0-4.426,3.574-8,8-8c13.23,0,24,10.77,24,24C383.992,392.406,380.414,395.984,375.992,395.984z"/>
<path style="fill:#241C73;" d="M375.992,419.969c-4.426,0-8-3.578-8-8v-23.984c0-4.426,3.574-8,8-8c4.422,0,8,3.574,8,8v23.984
	C383.992,416.391,380.414,419.969,375.992,419.969z"/>
<path style="fill:#241C73;" d="M424,355.969c-4.426,0-8-3.578-8-8v-56.016c0-4.426,3.574-8,8-8s8,3.574,8,8v56.016
	C432,352.391,428.426,355.969,424,355.969z"/>
<path style="fill:#241C73;" d="M448,379.969c-17.648,0-32-14.352-32-32c0-4.426,3.574-8,8-8s8,3.574,8,8c0,8.824,7.176,16,16,16
	c4.426,0,8,3.574,8,8C456,376.391,452.426,379.969,448,379.969z"/>
<path style="fill:#241C73;" d="M432,395.984c-4.426,0-8-3.578-8-8c0-13.23,10.77-24,24-24c4.426,0,8,3.574,8,8c0,4.422-3.574,8-8,8
	c-4.414,0-8,3.582-8,8C440,392.406,436.426,395.984,432,395.984z"/>
<path style="fill:#241C73;" d="M432,419.969c-4.426,0-8-3.578-8-8v-23.984c0-4.426,3.574-8,8-8s8,3.574,8,8v23.984
	C440,416.391,436.426,419.969,432,419.969z"/>
<path style="fill:#241C73;" d="M456,379.984h-8c-4.426,0-8-3.578-8-8c0-4.426,3.574-8,8-8h8c4.426,0,8,3.574,8,8
	C464,376.406,460.426,379.984,456,379.984z"/>
<path style="fill:#241C73;" d="M359.992,379.969H352c-4.426,0-8-3.578-8-8c0-4.426,3.574-8,8-8h7.992c4.422,0,8,3.574,8,8
	C367.992,376.391,364.414,379.969,359.992,379.969z"/>
</svg>
