<?xml version="1.0" encoding="iso-8859-1"?>
<!-- Generator: Adobe Illustrator 24.3.0, SVG Export Plug-In . SVG Version: 6.00 Build 0)  -->
<svg version="1.1" id="Layer_1" xmlns="http://www.w3.org/2000/svg" xmlns:xlink="http://www.w3.org/1999/xlink" x="0px" y="0px"
	 viewBox="0 0 512 512" style="enable-background:new 0 0 512 512;" xml:space="preserve">
<g>
	<path style="fill:#FFFFFF;" d="M280,60l-24.16,32L232,60H280z"/>
	<path style="fill:#DBDFE0;" d="M256,12c-35.36,0-64,28.64-64,64s28.64,64,64,64s64-28.64,64-64S291.36,12,256,12z M255.84,92
		L232,60h48L255.84,92z"/>
	<polygon style="fill:#DBDFE0;" points="280,60 255.84,92 232,60 	"/>
	<path style="fill:#86a570;" d="M327.922,212c-4.48,0-8,3.602-8,8H191.84c0-4.398-3.52-8-8-8v-16c4.48,0,8-3.602,8-8h128.082
		c0,4.398,3.52,8,8,8V212z"/>
	<path style="fill:#EEE06F;" d="M256,163.922H8V244h496v-80.078H256z M327.922,212c-4.48,0-8,3.602-8,8H191.84c0-4.398-3.52-8-8-8
		v-16c4.48,0,8-3.602,8-8h128.082c0,4.398,3.52,8,8,8V212z"/>
	<path style="fill:#86a570;" d="M424,291.922h-40h-32V372v40h24h56h24v-40v-80.078H424z M432,388c0-8.887,7.129-16,16-16
		C439.129,372,432,379.121,432,388z"/>
	<path style="fill:#EEE06F;" d="M192,412h64v87.84h-64V412z"/>
	<path style="fill:#EEE06F;" d="M256,412h63.922v87.84H256V412z"/>
	<path style="fill:#86a570;" d="M192,291.922h64V412h-64V291.922z"/>
	<path style="fill:#86a570;" d="M256,291.922h63.922V412H256V291.922z"/>
	<path style="fill:#DBDFE0;" d="M24,244v255.84h168V291.92h127.92v207.92H488V244H24z M456,412H352V291.92h104V412z"/>
	<path style="fill:#241C73;" d="M504,507.84H8c-4.426,0-8-3.574-8-8s3.574-8,8-8h496c4.426,0,8,3.574,8,8S508.426,507.84,504,507.84
		z"/>
	<path style="fill:#241C73;" d="M24,507.84c-4.426,0-8-3.574-8-8V243.984c0-4.426,3.574-8,8-8s8,3.574,8,8V499.84
		C32,504.266,28.426,507.84,24,507.84z"/>
	<path style="fill:#241C73;" d="M504,251.984H8c-4.426,0-8-3.578-8-8c0-4.426,3.574-8,8-8h496c4.426,0,8,3.574,8,8
		C512,248.406,508.426,251.984,504,251.984z"/>
	<path style="fill:#241C73;" d="M504,171.953H8c-4.426,0-8-3.578-8-8c0-4.426,3.574-8,8-8h496c4.426,0,8,3.574,8,8
		C512,168.375,508.426,171.953,504,171.953z"/>
	<path style="fill:#241C73;" d="M488.008,507.84c-4.422,0-8-3.574-8-8V243.984c0-4.426,3.578-8,8-8c4.426,0,8,3.574,8,8V499.84
		C496.008,504.266,492.434,507.84,488.008,507.84z"/>
	<path style="fill:#241C73;" d="M8,251.984c-4.426,0-8-3.578-8-8v-80.031c0-4.426,3.574-8,8-8s8,3.574,8,8v80.031
		C16,248.406,12.426,251.984,8,251.984z"/>
	<path style="fill:#241C73;" d="M504,251.984c-4.426,0-8-3.578-8-8v-80.031c0-4.426,3.574-8,8-8s8,3.574,8,8v80.031
		C512,248.406,508.426,251.984,504,251.984z"/>
	<path style="fill:#241C73;" d="M319.879,227.984H191.871c-4.422,0-8-3.578-8-8c0-4.426,3.578-8,8-8h128.008c4.426,0,8,3.574,8,8
		C327.879,224.406,324.305,227.984,319.879,227.984z"/>
	<path style="fill:#241C73;" d="M183.871,203.984c-4.422,0-8-3.578-8-8c0-4.426,3.578-8,8-8c0-4.426,3.578-8,8-8
		c4.426,0,8,3.574,8,8C199.871,196.801,192.695,203.984,183.871,203.984z"/>
	<path style="fill:#241C73;" d="M191.871,227.984c-4.422,0-8-3.578-8-8v-0.016c-4.422,0-8-3.57-8-7.992c0-4.418,3.578-7.992,8-7.992
		c8.824,0,16,7.176,16,16C199.871,224.406,196.297,227.984,191.871,227.984z"/>
	<path style="fill:#241C73;" d="M319.879,227.984c-4.422,0-8-3.578-8-8c0-8.824,7.176-16,16-16c4.426,0,8,3.574,8,8
		c0,4.422-3.574,8-8,8C327.879,224.406,324.305,227.984,319.879,227.984z"/>
	<path style="fill:#241C73;" d="M327.879,203.984c-8.824,0-16-7.176-16-16c0-4.426,3.578-8,8-8c4.426,0,8,3.574,8,8V188
		c4.426,0,8,3.566,8,7.992C335.879,200.406,332.305,203.984,327.879,203.984z"/>
	<path style="fill:#241C73;" d="M319.879,195.984H191.871c-4.422,0-8-3.578-8-8c0-4.426,3.578-8,8-8h128.008c4.426,0,8,3.574,8,8
		C327.879,192.406,324.305,195.984,319.879,195.984z"/>
	<path style="fill:#241C73;" d="M327.879,219.984c-4.422,0-8-3.578-8-8v-16c0-4.426,3.578-8,8-8c4.426,0,8,3.574,8,8v16
		C335.879,216.406,332.305,219.984,327.879,219.984z"/>
	<path style="fill:#241C73;" d="M183.871,219.984c-4.422,0-8-3.578-8-8v-16c0-4.426,3.578-8,8-8c4.426,0,8,3.574,8,8v16
		C191.871,216.406,188.297,219.984,183.871,219.984z"/>
	<path style="fill:#241C73;" d="M144.008,211.969H48c-4.426,0-8-3.578-8-8c0-4.426,3.574-8,8-8h96.008c4.426,0,8,3.574,8,8
		C152.008,208.391,148.434,211.969,144.008,211.969z"/>
	<path style="fill:#241C73;" d="M464,211.969h-95.992c-4.422,0-8-3.578-8-8c0-4.426,3.578-8,8-8H464c4.426,0,8,3.574,8,8
		C472,208.391,468.426,211.969,464,211.969z"/>
	<path style="fill:#241C73;" d="M256,171.984c-4.426,0-8-3.578-8-8V140c0-4.426,3.574-8,8-8s8,3.574,8,8v23.984
		C264,168.406,260.426,171.984,256,171.984z"/>
	<path style="fill:#241C73;" d="M256.008,148c-39.703,0-72-32.297-72-72s32.297-72,72-72s72,32.297,72,72S295.711,148,256.008,148z
		 M256.008,20c-30.871,0-56,25.129-56,56s25.129,56,56,56s56-25.129,56-56S286.879,20,256.008,20z"/>
	<path style="fill:#241C73;" d="M191.984,507.84c-4.426,0-8-3.574-8-8V291.953c0-4.426,3.574-8,8-8c4.422,0,8,3.574,8,8V499.84
		C199.984,504.266,196.406,507.84,191.984,507.84z"/>
	<path style="fill:#241C73;" d="M319.879,507.84c-4.422,0-8-3.574-8-8V291.953c0-4.426,3.578-8,8-8c4.426,0,8,3.574,8,8V499.84
		C327.879,504.266,324.305,507.84,319.879,507.84z"/>
	<path style="fill:#241C73;" d="M319.879,299.953H191.984c-4.426,0-8-3.578-8-8c0-4.426,3.574-8,8-8h127.895c4.426,0,8,3.574,8,8
		C327.879,296.375,324.305,299.953,319.879,299.953z"/>
	<path style="fill:#241C73;" d="M319.879,419.969H191.984c-4.426,0-8-3.578-8-8c0-4.426,3.574-8,8-8h127.895c4.426,0,8,3.574,8,8
		C327.879,416.391,324.305,419.969,319.879,419.969z"/>
	<path style="fill:#241C73;" d="M256,507.84c-4.426,0-8-3.574-8-8V291.953c0-4.426,3.574-8,8-8s8,3.574,8,8V499.84
		C264,504.266,260.426,507.84,256,507.84z"/>
	<path style="fill:#241C73;" d="M224,483.984c-4.426,0-8-3.578-8-8v-40.016c0-4.426,3.574-8,8-8s8,3.574,8,8v40.016
		C232,480.406,228.426,483.984,224,483.984z"/>
	<path style="fill:#241C73;" d="M288.008,483.984c-4.422,0-8-3.578-8-8v-40.016c0-4.426,3.578-8,8-8c4.426,0,8,3.574,8,8v40.016
		C296.008,480.406,292.434,483.984,288.008,483.984z"/>
	<path style="fill:#241C73;" d="M456.008,420H351.992c-4.426,0-8-3.574-8-8V291.953c0-4.426,3.574-8,8-8h104.016
		c4.426,0,8,3.574,8,8V412C464.008,416.426,460.434,420,456.008,420z M359.992,404h88.016V299.953h-88.016V404z"/>
	<g>
		<g>
			<g>
				<g>
					<path style="fill:#F26867;" d="M282.636,66.599v12.554v0.042c0,2.939-0.5,5.794-1.47,8.398
						c-3.443,9.783-12.764,16.753-23.723,16.753c-13.898,0-25.193-11.253-25.193-25.193V66.599H282.636z"/>
				</g>
			</g>
		</g>
		<g>
			<g>
				<g>
					<path style="fill:#241C73;" d="M257.456,108.579c-16.203,0-29.392-13.184-29.392-29.392c0-2.318,1.877-4.199,4.199-4.199
						c2.322,0,4.199,1.881,4.199,4.199c0,11.576,9.418,20.994,20.994,20.994s20.994-9.418,20.994-20.994
						c0-2.318,1.877-4.199,4.199-4.199c2.322,0,4.199,1.881,4.199,4.199C286.847,95.394,273.659,108.579,257.456,108.579z"/>
				</g>
			</g>
			<g>
				<g>
					<path style="fill:#241C73;" d="M232.271,83.386c-2.322,0-4.199-1.881-4.199-4.199V66.599c0-2.318,1.877-4.199,4.199-4.199
						s4.199,1.881,4.199,4.199v12.588C236.47,81.505,234.593,83.386,232.271,83.386z"/>
				</g>
			</g>
			<g>
				<g>
					<path style="fill:#241C73;" d="M282.636,70.798h-50.365c-2.322,0-4.199-1.881-4.199-4.199c0-2.318,1.877-4.199,4.199-4.199
						h50.365c2.322,0,4.199,1.881,4.199,4.199C286.835,68.917,284.958,70.798,282.636,70.798z"/>
				</g>
			</g>
			<g>
				<g>
					<path style="fill:#241C73;" d="M282.636,83.386c-2.322,0-4.199-1.881-4.199-4.199V66.599c0-2.318,1.877-4.199,4.199-4.199
						s4.199,1.881,4.199,4.199v12.588C286.835,81.505,284.958,83.386,282.636,83.386z"/>
				</g>
			</g>
			<g>
				<g>
					<path style="fill:#241C73;" d="M282.644,108.579h-50.382c-2.322,0-4.199-1.881-4.199-4.199s1.877-4.199,4.199-4.199h50.382
						c2.322,0,4.199,1.881,4.199,4.199S284.966,108.579,282.644,108.579z"/>
				</g>
			</g>
			<g>
				<g>
					<path style="fill:#241C73;" d="M291.038,91.8c-2.322,0-4.199-1.881-4.199-4.199s1.877-4.199,4.199-4.199
						c2.318,0,4.203-1.885,4.203-4.199c0-2.318-1.885-4.207-4.203-4.207s-4.203,1.889-4.203,4.207s-1.877,4.199-4.199,4.199
						s-4.199-1.881-4.199-4.199c0-6.949,5.656-12.605,12.601-12.605s12.601,5.656,12.601,12.605
						C303.638,86.149,297.982,91.8,291.038,91.8z"/>
				</g>
			</g>
			<g>
				<g>
					<path style="fill:#241C73;" d="M291.038,91.8h-9.834c-2.322,0-4.199-1.881-4.199-4.199s1.877-4.199,4.199-4.199h9.834
						c2.322,0,4.199,1.881,4.199,4.199S293.36,91.8,291.038,91.8z"/>
				</g>
			</g>
			<g>
				<g>
					<path style="fill:#241C73;" d="M257.447,58.197c-2.322,0-4.199-1.881-4.199-4.199V37.195c0-2.318,1.877-4.199,4.199-4.199
						c2.322,0,4.199,1.881,4.199,4.199v16.804C261.646,56.316,259.769,58.197,257.447,58.197z"/>
				</g>
			</g>
			<g>
				<g>
					<path style="fill:#241C73;" d="M274.247,58.197c-2.322,0-4.199-1.881-4.199-4.199v-8.402c0-2.318,1.877-4.199,4.199-4.199
						c2.322,0,4.199,1.881,4.199,4.199v8.402C278.445,56.316,276.569,58.197,274.247,58.197z"/>
				</g>
			</g>
			<g>
				<g>
					<path style="fill:#241C73;" d="M240.652,58.197c-2.322,0-4.199-1.881-4.199-4.199v-8.402c0-2.318,1.877-4.199,4.199-4.199
						c2.322,0,4.199,1.881,4.199,4.199v8.402C244.851,56.316,242.974,58.197,240.652,58.197z"/>
				</g>
			</g>
		</g>
	</g>
</g>
</svg>
