<?xml version="1.0" encoding="iso-8859-1"?>
<!-- Generator: Adobe Illustrator 24.3.0, SVG Export Plug-In . SVG Version: 6.00 Build 0)  -->
<svg version="1.1" id="Layer_1" xmlns="http://www.w3.org/2000/svg" xmlns:xlink="http://www.w3.org/1999/xlink" x="0px" y="0px"
	 viewBox="0 0 511.985 511.985" style="enable-background:new 0 0 511.985 511.985;" xml:space="preserve">
<polygon style="fill:#E6E9ED;" points="489.986,62.013 461.66,26.686 431.66,14.015 403.318,14.015 131.498,286.991 
	142.997,336.489 196.995,373.988 225.995,380.988 388.834,215.993 492.986,109.996 498.986,88.997 "/>
<polygon style="fill:#F26867;" points="142.997,336.489 175.996,362.988 202.495,310.99 "/>
<polygon style="fill:#EEE06F;" points="137.997,341.395 12.001,469.423 43.336,499.328 169.332,370.66 "/>
<path style="fill:#86a570;" d="M457.613,403.8c0,27.515-22.297,49.827-49.811,49.827c-27.516,0-49.812-22.312-49.812-49.827
	c0-27.499,22.297-49.812,49.812-49.812C435.316,353.988,457.613,376.301,457.613,403.8z"/>
<g>
	<path style="fill:#241C73;" d="M483.721,28.28L483.721,28.28c-0.016,0-0.016,0-0.016,0C460.348,4.906,438.144,0,423.629,0
		c-11.404,0-18.779,3.031-19.576,3.391c-1.25,0.531-2.375,1.297-3.328,2.25L121.584,284.788c-3.086,3.078-3.977,7.749-2.258,11.765
		c0.117,0.25,7.758,18.219,12.695,38.156L3.135,463.595c-2,2-3.125,4.719-3.125,7.547s1.125,5.531,3.125,7.53l30.171,30.188
		c2.086,2.094,4.82,3.125,7.546,3.125c2.734,0,5.461-1.031,7.547-3.125L177.45,379.801c20.007,5.219,37.616,12.703,37.991,12.859
		c1.359,0.578,2.797,0.875,4.219,0.875c2.773,0,5.5-1.078,7.539-3.141l279.148-279.148c0.953-0.938,1.719-2.062,2.25-3.312
		C509.267,106.371,524.642,69.217,483.721,28.28z M100.272,426.799c-0.344-0.031-0.695-0.047-1.055-0.047H70.148l21.335-21.327
		h30.179L100.272,426.799z M40.852,486.234l-15.085-15.093l23.046-23.046h30.171L40.852,486.234z M142.997,384.082h-30.171
		l31.39-31.406l15.093,15.094L142.997,384.082z M161.934,340.223l21.14-11.296l-11.304,21.124L161.934,340.223z M489.502,97.934
		l-272.39,272.398c-6.14-2.406-15.898-5.969-27.069-9.188l28.437-53.186l0.008-0.016c0.164-0.328,0.32-0.641,0.453-0.969
		c0.07-0.172,0.117-0.328,0.18-0.516c0.055-0.156,0.117-0.297,0.164-0.453c0.07-0.234,0.125-0.484,0.18-0.719
		c0.023-0.094,0.055-0.188,0.07-0.297c0.047-0.219,0.078-0.438,0.102-0.672c0.016-0.109,0.039-0.234,0.055-0.359
		c0.016-0.188,0.023-0.375,0.031-0.578c0.008-0.141,0.016-0.297,0.016-0.453s-0.008-0.312-0.016-0.469
		c-0.008-0.188-0.016-0.391-0.031-0.594c-0.016-0.109-0.039-0.219-0.055-0.344c-0.023-0.219-0.055-0.453-0.102-0.688
		c-0.016-0.094-0.047-0.188-0.07-0.281c-0.055-0.25-0.109-0.469-0.18-0.719c-0.047-0.156-0.102-0.281-0.156-0.438
		c-0.062-0.188-0.117-0.359-0.188-0.531c-0.133-0.328-0.289-0.656-0.453-0.969h-0.008c-0.023-0.047-0.047-0.094-0.07-0.125
		c-0.148-0.266-0.305-0.531-0.469-0.781c-0.07-0.094-0.141-0.188-0.203-0.281c-0.141-0.188-0.273-0.375-0.422-0.562
		c-0.102-0.125-0.211-0.234-0.312-0.344c-0.125-0.156-0.25-0.281-0.391-0.438c-0.133-0.125-0.281-0.25-0.422-0.375
		c-0.117-0.109-0.227-0.219-0.344-0.312c-0.188-0.156-0.375-0.281-0.57-0.422c-0.094-0.078-0.18-0.141-0.273-0.203
		c-0.25-0.156-0.516-0.312-0.781-0.469c-0.039-0.031-0.078-0.047-0.117-0.062c-0.008-0.016-0.008-0.016-0.016-0.016
		c-0.312-0.172-0.633-0.328-0.961-0.453c-0.172-0.062-0.344-0.125-0.516-0.188c-0.156-0.062-0.305-0.109-0.461-0.156
		c-0.234-0.062-0.469-0.125-0.703-0.188c-0.102-0.016-0.195-0.047-0.297-0.062c-0.226-0.047-0.445-0.062-0.664-0.094
		c-0.125-0.031-0.25-0.047-0.367-0.062c-0.188-0.016-0.375-0.031-0.57-0.031c-0.156,0-0.32-0.016-0.484-0.016
		c-0.141,0-0.289,0.016-0.438,0.016c-0.203,0-0.406,0.016-0.609,0.031c-0.102,0.016-0.203,0.031-0.312,0.047
		c-0.242,0.031-0.484,0.062-0.719,0.109c-0.078,0.016-0.148,0.031-0.227,0.062c-0.258,0.047-0.523,0.109-0.781,0.188
		c-0.086,0.031-0.18,0.062-0.273,0.094c-0.234,0.078-0.469,0.156-0.695,0.25c-0.328,0.125-0.648,0.281-0.953,0.453
		c0,0-0.016,0-0.016,0.016l-53.319,28.5c-3.125-11.156-6.671-20.969-9.062-27.125L414.037,22.515c1.857-0.5,5.186-1.172,9.592-1.172
		c8.922,0,22.094,2.781,37.062,14.875L257.4,239.508c-4.172,4.171-4.172,10.921,0,15.078c2.078,2.094,4.812,3.125,7.539,3.125
		c2.734,0,5.461-1.031,7.539-3.125L475.785,51.295C494.064,73.904,491.033,92.372,489.502,97.934z"/>
	<path style="fill:#241C73;" d="M405.537,341.395c-17.094,0-33.172,6.656-45.266,18.749c-12.076,12.094-18.748,28.172-18.748,45.28
		c0,17.093,6.672,33.155,18.748,45.249c12.094,12.093,28.172,18.749,45.266,18.749c17.107,0,33.186-6.656,45.264-18.749
		c12.094-12.094,18.75-28.156,18.75-45.249c0-17.108-6.656-33.187-18.75-45.28C438.722,348.052,422.644,341.395,405.537,341.395z
		 M435.722,435.596c-8.062,8.047-18.781,12.5-30.186,12.5c-7.781,0-15.234-2.078-21.766-5.953c3.266-4.188,2.984-10.25-0.859-14.094
		c-3.859-3.844-9.906-4.125-14.094-0.875c-3.875-6.5-5.953-13.968-5.953-21.749c0-11.405,4.438-22.124,12.5-30.187
		s18.781-12.5,30.172-12.5c7.781,0,15.248,2.078,21.764,5.953c-3.266,4.188-2.984,10.234,0.875,14.094
		c2.078,2.078,4.812,3.125,7.547,3.125c2.312,0,4.625-0.766,6.547-2.266c3.875,6.531,5.953,14,5.953,21.78
		C448.222,416.814,443.785,427.533,435.722,435.596z"/>
	<path style="fill:#241C73;" d="M404.037,391.832l-12.078,12.077c-4.156,4.172-4.156,10.921,0,15.077
		c2.094,2.094,4.812,3.125,7.547,3.125s5.469-1.031,7.547-3.125l12.061-12.062c4.172-4.156,4.172-10.921,0-15.093
		C414.957,387.676,408.193,387.676,404.037,391.832z"/>
</g>
</svg>
