<?xml version="1.0" encoding="iso-8859-1"?>
<!-- Generator: Adobe Illustrator 24.3.0, SVG Export Plug-In . SVG Version: 6.00 Build 0)  -->
<svg version="1.1" id="Layer_1" xmlns="http://www.w3.org/2000/svg" xmlns:xlink="http://www.w3.org/1999/xlink" x="0px" y="0px"
	 viewBox="0 0 512 512" style="enable-background:new 0 0 512 512;" xml:space="preserve">
<path style="fill:#86a570;" d="M8.001,176.079C8.001,100.968,68.891,40.08,144,40.08c33.314,0,63.807,11.995,87.44,31.889
	c14.205,11.957,34.913,11.957,49.118,0c23.634-19.894,54.127-31.889,87.44-31.889c75.111,0,135.999,60.888,135.999,135.999v-4
	c0,131.891-160.398,250.848-223.204,292.371c-15.042,9.945-34.548,9.945-49.589,0C168.4,422.926,8.001,303.971,8.001,172.078"/>
<path style="fill:#241C73;" d="M512,172.079c0-0.373-0.034-0.736-0.084-1.096c-0.006-0.043-0.003-0.089-0.01-0.132
	C509.146,93.86,445.652,32.077,368,32.077c-33.839,0-66.722,11.993-92.593,33.77c-11.244,9.465-27.568,9.466-38.813,0.001
	c-25.87-21.777-58.754-33.77-92.593-33.77C66.348,32.078,2.854,93.86,0.095,170.852c-0.007,0.043-0.004,0.089-0.01,0.132
	C0.034,171.342,0,171.706,0,172.079v4c0,0.337,0.028,0.667,0.068,0.993c0.005,0.037,0.003,0.076,0.008,0.113
	c3.918,132.487,159.388,249.426,226.717,293.939c8.873,5.866,19.038,8.798,29.208,8.798c10.167-0.001,20.337-2.934,29.207-8.798
	c67.328-44.513,222.799-161.452,226.717-293.939c0.005-0.037,0.003-0.076,0.008-0.113c0.04-0.326,0.068-0.656,0.068-0.993
	L512,172.079L512,172.079z M276.382,457.775c-12.381,8.186-28.383,8.186-40.763,0c-29.34-19.398-85.727-59.623-133.715-111.079
	c-56.198-60.259-85.078-118.21-85.88-172.299c0-0.047,0-0.094,0-0.141c-0.001-0.079-0.001-0.157-0.002-0.236
	c1.104-69.632,58.09-125.937,127.98-125.937c30.074,0,59.298,10.658,82.287,30.01c17.217,14.491,42.208,14.491,59.424,0
	c22.99-19.352,52.213-30.009,82.287-30.009c69.893,0,126.88,56.311,127.98,125.946c-0.001,0.078-0.002,0.148-0.003,0.228
	c-0.001,0.053,0,0.106,0,0.158c-0.807,54.084-29.687,112.029-85.879,172.282C362.109,398.152,305.722,438.376,276.382,457.775z
	 M202.876,90.018c-1.482,2.566-4.172,4.002-6.937,4.002c-1.358,0-2.733-0.346-3.994-1.074C177.376,84.533,160.796,80.087,144,80.087
	c-4.42,0-8.001-3.582-8.001-8.001s3.582-8.001,8.001-8.001c19.602,0,38.948,5.189,55.948,15.005
	C203.775,81.298,205.086,86.192,202.876,90.018z M441.094,110.115c-2.032,0-4.065-0.769-5.625-2.31
	c-7.985-7.893-17.131-14.255-27.185-18.909c-4.011-1.856-5.756-6.612-3.9-10.622c1.855-4.011,6.611-5.759,10.622-3.9
	c11.738,5.433,22.408,12.852,31.712,22.05c3.143,3.107,3.172,8.172,0.065,11.315C445.22,109.323,443.157,110.115,441.094,110.115z
	 M479.968,174.215c0.001,0.09,0.001,0.179,0,0.269c-0.457,26.396-8.537,54.431-24.017,83.323c-1.442,2.692-4.206,4.225-7.06,4.225
	c-1.275,0-2.568-0.306-3.772-0.95c-3.896-2.086-5.361-6.936-3.275-10.832c14.239-26.58,21.682-52.119,22.12-75.91
	c-0.271-15.384-4.042-29.987-11.208-43.405c-2.082-3.898-0.609-8.745,3.289-10.827c3.897-2.081,8.745-0.61,10.827,3.289
	C475.151,138.896,479.68,156.469,479.968,174.215z"/>
</svg>
