<?xml version="1.0" encoding="iso-8859-1"?>
<!-- Generator: Adobe Illustrator 24.3.0, SVG Export Plug-In . SVG Version: 6.00 Build 0)  -->
<svg version="1.1" id="Capa_1" xmlns="http://www.w3.org/2000/svg" xmlns:xlink="http://www.w3.org/1999/xlink" x="0px" y="0px"
	 viewBox="0 0 512.002 512.002" style="enable-background:new 0 0 512.002 512.002;" xml:space="preserve">
<g>
	<path style="fill:#CF9E76;" d="M148.936,22.213h48v48h-48V22.213z"/>
	<path style="fill:#EEE06F;" d="M288.296,70.213l-103.12,115.28c-2.72,3.04-4.24,6.96-4.24,11.04v1.12v0.56h-112h-16v-8l64-120h32
		h48L288.296,70.213z"/>
	<path style="fill:#FFEAA7;" d="M68.936,294.213v-96h112c0.16,4.32,2,8.32,4.88,11.12c2.96,3.04,7.12,4.88,11.68,4.88
		c4.72,0,9.2-2,12.4-5.52l19.04-21.44v26.96v80H68.936z"/>
	<path style="fill:#FFEAA7;" d="M452.936,214.213v176h-48v-64c0-17.68-7.2-33.68-18.72-45.28c-11.6-11.52-27.6-18.72-45.28-18.72
		c-24.48,0-45.76,13.76-56.48,33.92c-2.24-1.28-4.8-1.92-7.52-1.92h-48v-80L452.936,214.213z"/>
	<path style="fill:#86a570;" d="M404.936,326.213v64h-112v-80c0-6.08-3.44-11.44-8.48-14.08c10.72-20.16,32-33.92,56.48-33.92
		c17.68,0,33.68,7.2,45.28,18.72C397.736,292.533,404.936,308.533,404.936,326.213z"/>
	<path style="fill:#F26867;" d="M452.936,187.253v26.96h-224v-26.96l98.72-111.04c3.36-3.84,8.16-6,13.28-6s9.92,2.16,13.28,6
		L452.936,187.253z"/>
	<path style="fill:#EEE06F;" d="M500.936,196.533v1.12c0,9.12-7.44,16.56-16.56,16.56c-4.72,0-9.2-2-12.4-5.52l-19.04-21.44
		l-98.72-111.04c-3.36-3.84-8.16-6-13.28-6s-9.92,2.16-13.28,6l-98.72,111.04l-19.04,21.44c-3.2,3.52-7.68,5.52-12.4,5.52
		c-4.56,0-8.72-1.84-11.68-4.88c-2.88-2.8-4.72-6.8-4.88-11.12c0-0.16,0-0.4,0-0.56v-1.12c0-4.08,1.52-8,4.24-11.04l103.12-115.28
		l12.64-14.08c10.16-11.44,24.72-17.92,40-17.92s29.84,6.48,40,17.92l115.76,129.36
		C499.416,188.533,500.936,192.453,500.936,196.533L500.936,196.533z"/>
	<path style="fill:#E6E9ED;" d="M52.936,422.213h32v80h-32V422.213z"/>
	<path style="fill:#E6E9ED;" d="M228.936,422.213h32v80h-32V422.213z"/>
	<path style="fill:#E6E9ED;" d="M228.936,422.213h-144h-32h-16c-8.8,0-16-7.2-16-16v-96c0-8.8,7.2-16,16-16h32h160h48
		c2.72,0,5.28,0.64,7.52,1.92c5.04,2.64,8.48,8,8.48,14.08v80v16c0,8.8-7.2,16-16,16h-16H228.936z"/>
	<circle style="fill:#86a570;" cx="340.936" cy="150.213" r="32"/>
	<path style="fill:#241C73;" d="M502.68,180.157l-115.784-129.4c-11.688-13.048-28.44-20.544-45.96-20.544
		s-34.272,7.496-45.96,20.544l-10.248,11.456h-79.792v-32h16v-16h-96v16h16v32h-28.8l-67.2,126v18h16v80h-24
		c-13.232,0-24,10.768-24,24v96c0,13.232,10.768,24,24,24h8v80h48v-80h128v80h48v-80h8c13.232,0,24-10.768,24-24v-8h160V208.245
		l5.088,5.72c4.648,5.24,11.344,8.248,18.352,8.248c13.544,0,24.56-11.016,24.56-24.56v-1.112
		C508.936,190.485,506.72,184.677,502.68,180.157L502.68,180.157z M156.936,30.213h32v32h-32V30.213z M121.736,78.213h148.68
		l-91.224,101.944c-2.592,2.896-4.344,6.368-5.328,10.056H62.008L121.736,78.213z M76.936,206.213h97.624
		c3.488,9.32,12.416,16,22.936,16c7.016,0,13.704-3.008,18.352-8.248l5.088-5.72v77.968h-144V206.213z M76.936,494.213h-16v-64h16
		V494.213z M252.936,494.213h-16v-64h16V494.213z M284.936,406.213c0,4.416-3.584,8-8,8h-240c-4.416,0-8-3.584-8-8v-96
		c0-4.416,3.584-8,8-8h240c4.416,0,8,3.584,8,8V406.213z M294.888,294.453c10.392-15.064,27.472-24.24,46.048-24.24
		c30.872,0,56,25.128,56,56v56h-96v-72C300.936,304.157,298.608,298.677,294.888,294.453z M412.936,382.213v-56
		c0-39.704-32.296-72-72-72c-24.376,0-46.712,12.32-59.976,32.408c-1.32-0.224-2.648-0.408-4.024-0.408h-40v-64h208v160H412.936z
		 M444.936,206.213h-208v-15.968L333.6,81.501c3.72-4.168,10.952-4.168,14.672,0l96.664,108.744V206.213z M492.936,197.653
		c0,4.72-3.84,8.56-8.56,8.56c-2.448,0-4.776-1.048-6.392-2.872L360.224,70.877c-4.888-5.504-11.92-8.664-19.288-8.664
		s-14.4,3.16-19.288,8.664l-117.76,132.464c-1.616,1.824-3.944,2.872-6.392,2.872c-4.72,0-8.56-3.84-8.56-8.56v-1.112
		c0-2.112,0.776-4.144,2.176-5.712l115.784-129.4c8.656-9.672,21.064-15.216,34.04-15.216s25.384,5.544,34.04,15.216l115.784,129.4
		c1.4,1.568,2.176,3.6,2.176,5.712V197.653z"/>
	<path style="fill:#241C73;" d="M300.936,150.213c0,22.056,17.944,40,40,40s40-17.944,40-40s-17.944-40-40-40
		S300.936,128.157,300.936,150.213z M364.936,150.213c0,13.232-10.768,24-24,24s-24-10.768-24-24s10.768-24,24-24
		S364.936,136.981,364.936,150.213z"/>
	<path style="fill:#241C73;" d="M92.936,254.213h16v16h-16V254.213z"/>
	<path style="fill:#241C73;" d="M124.936,254.213h16v16h-16V254.213z"/>
	<path style="fill:#241C73;" d="M156.936,254.213h16v16h-16V254.213z"/>
	<g>
		<path style="fill:#F26867;" d="M161.636,374.829c-0.003-0.007-0.006-0.014-0.009-0.021l-16.614-39.873
			c-0.112-0.277-0.24-0.547-0.382-0.81c-0.014-0.026-0.031-0.051-0.045-0.077c-0.113-0.203-0.233-0.403-0.363-0.596
			c-0.031-0.046-0.066-0.089-0.098-0.134c-0.119-0.168-0.241-0.334-0.372-0.493c-0.04-0.049-0.084-0.094-0.126-0.141
			c-0.13-0.149-0.262-0.296-0.403-0.436c-0.046-0.045-0.094-0.086-0.141-0.13c-0.142-0.134-0.285-0.265-0.437-0.389
			c-0.055-0.045-0.114-0.085-0.17-0.128c-0.147-0.113-0.295-0.225-0.451-0.329c-0.08-0.053-0.164-0.099-0.245-0.149
			c-0.137-0.084-0.272-0.169-0.415-0.245c-0.155-0.083-0.315-0.154-0.474-0.226c-0.072-0.032-0.139-0.071-0.212-0.101
			c-0.005-0.002-0.011-0.004-0.016-0.006c-0.49-0.203-0.999-0.358-1.521-0.461c-0.042-0.008-0.084-0.012-0.126-0.019
			c-0.218-0.04-0.437-0.074-0.659-0.095c-0.021-0.002-0.042-0.002-0.063-0.003c-1.248-0.11-2.54,0.068-3.775,0.585
			c-2.057,0.855-3.565,2.471-4.338,4.386l-16.613,39.872c-0.003,0.008-0.006,0.015-0.01,0.023l-3.343,8.024
			c-1.704,4.08,0.224,8.768,4.304,10.464c1.008,0.424,2.048,0.616,3.08,0.616c3.136,0,6.104-1.848,7.384-4.92l1.283-3.08h22.665
			l1.283,3.08c1.28,3.072,4.248,4.92,7.384,4.92c1.032,0,2.072-0.192,3.08-0.616c4.08-1.696,6.008-6.384,4.304-10.464
			L161.636,374.829z M132.93,369.934l4.666-11.198l4.666,11.198H132.93z"/>
		<path style="fill:#F26867;" d="M197.596,377.934h-8v-40c0-4.424-3.576-8-8-8s-8,3.576-8,8v48c0,4.424,3.576,8,8,8h16
			c4.424,0,8-3.576,8-8S202.02,377.934,197.596,377.934z"/>
		<path style="fill:#F26867;" d="M245.596,377.934h-16v-8h8c4.424,0,8-3.576,8-8s-3.576-8-8-8h-8v-8h16c4.424,0,8-3.576,8-8
			s-3.576-8-8-8h-24c-4.424,0-8,3.576-8,8v48c0,4.424,3.576,8,8,8h24c4.424,0,8-3.576,8-8S250.02,377.934,245.596,377.934z"/>
		<path style="fill:#F26867;" d="M85.172,354.782c-2.464-1.24-7.064-3.536-7.576-4.776v-0.072c0-2.2,1.8-4,4-4
			c1.696,0,3.208,1.072,3.776,2.664c1.464,4.176,6.048,6.376,10.192,4.896c4.168-1.456,6.368-6.024,4.896-10.192
			c-2.8-8-10.384-13.368-18.864-13.368c-10.755,0-19.524,8.53-19.958,19.179c-0.027,0.27-0.042,0.544-0.042,0.821
			c0,10.944,9.88,15.88,16.424,19.16c2.464,1.232,7.064,3.528,7.576,4.84c0,2.2-1.8,4-4,4c-1.696,0-3.208-1.072-3.776-2.664
			c-1.456-4.168-6.032-6.384-10.192-4.896c-4.168,1.456-6.368,6.024-4.896,10.192c2.8,8,10.384,13.368,18.864,13.368
			c10.755,0,19.524-8.53,19.958-19.179c0.027-0.27,0.042-0.544,0.042-0.821C101.596,362.99,91.716,358.054,85.172,354.782z"/>
	</g>
</g>
</svg>
