<?xml version="1.0" encoding="iso-8859-1"?>
<!-- Generator: Adobe Illustrator 24.3.0, SVG Export Plug-In . SVG Version: 6.00 Build 0)  -->
<svg version="1.1" id="Layer_1" xmlns="http://www.w3.org/2000/svg" xmlns:xlink="http://www.w3.org/1999/xlink" x="0px" y="0px"
	 viewBox="0 0 512 512" style="enable-background:new 0 0 512 512;" xml:space="preserve">
<path style="fill:#241C73;" d="M423.984,351.945c-4.422,0-8-3.574-8-8V168.074c0-4.422,3.578-8,8-8c4.426,0,8,3.578,8,8v175.871
	C431.984,348.371,428.41,351.945,423.984,351.945z"/>
<path style="fill:#241C73;" d="M88.031,351.945c-4.422,0-8-3.574-8-8V168.074c0-4.422,3.578-8,8-8c4.426,0,8,3.578,8,8v175.871
	C96.031,348.371,92.457,351.945,88.031,351.945z"/>
<path style="fill:#241C73;" d="M327.989,96.023H184.027c-4.422,0-8-3.578-8-8c0-4.426,3.578-8,8-8h143.962c4.426,0,8,3.574,8,8
	C335.988,92.445,332.414,96.023,327.989,96.023z"/>
<path style="fill:#241C73;" d="M327.989,463.998H184.027c-4.422,0-8-3.578-8-8c0-4.426,3.578-8,8-8h143.962c4.426,0,8,3.574,8,8
	C335.988,460.42,332.414,463.998,327.989,463.998z"/>
<g>
	<rect x="38.671" y="59.395" style="fill:#DBDFE0;" width="106.4" height="70.304"/>
	<polygon style="fill:#F26867;" points="39.174,34.875 36.533,43.046 31.377,58.264 34.647,67.067 47.601,68.199 55.524,60.15 
		58.036,34.831 	"/>
	<polygon style="fill:#EEE06F;" points="59.635,34.831 55.524,60.15 62.485,69.123 71.013,70.129 79.255,62.748 81.747,34.831 	"/>
	<polygon style="fill:#ED5564;" points="103.403,36.085 82.443,36.085 79.739,57.352 84.789,66.772 95.522,68.199 103.403,64.092 
		104.409,56.208 	"/>
	<polygon style="fill:#EEE06F;" points="126.21,34.831 103.403,36.085 105.246,59.226 110.446,68.199 121.513,69.123 
		127.216,64.257 128.222,58.22 	"/>
	<polygon style="fill:#F26867;" points="146.333,34.831 127.338,36.085 128.222,48.768 130.168,63.734 137.085,69.394 
		146.333,68.765 152.491,65.244 153.875,53.673 	"/>
	<rect x="41.524" y="22.505" style="fill:#EEE06F;" width="101.955" height="12.325"/>
	<g>
		<rect x="48.901" y="80.19" style="fill:#86a570;" width="48.126" height="32.363"/>
		<rect x="108.43" y="80.19" style="fill:#86a570;" width="28.006" height="48.629"/>
	</g>
	<path style="fill:#241C73;" d="M156.705,54.75l-0.087-0.487c-0.016-0.071-0.024-0.149-0.039-0.22l-9.032-21.813V21.5H37.303v10.73
		l-8.882,21.813c-0.02,0.087-0.031,0.173-0.047,0.256l-0.083,0.452c-0.122,0.778-0.185,1.58-0.185,2.393
		c0,5.833,3.254,10.903,8.049,13.493V131.5h112.688V70.636c4.791-2.59,8.049-7.66,8.049-13.493
		C156.893,56.33,156.826,55.528,156.705,54.75z M150.64,53.697h-19.714l-2.37-15.933h15.595L150.64,53.697z M42.672,26.861h99.51
		v5.369h-99.51V26.861z M126.3,59.057l0.291,1.949l-1.588,2.114c-1.902,2.531-4.811,3.985-7.974,3.985
		c-3.164,0-6.072-1.454-7.974-3.985l-1.619-2.162l-0.094-1.902H126.3z M107.077,53.697l-0.782-15.933h16.833l2.374,15.933H107.077z
		 M101.968,59.057l0.094,1.949l-1.592,2.114c-1.902,2.531-4.811,3.985-7.971,3.985c-3.168,0-6.072-1.454-7.978-3.985l-1.627-2.174
		l0.094-1.891L101.968,59.057L101.968,59.057z M83.26,53.697l0.806-15.933h16.861l0.778,15.933H83.26z M59.525,53.697l2.343-15.933
		h16.829l-0.81,15.933H59.525z M77.612,59.057l-0.098,1.969l-1.572,2.095c-1.906,2.531-4.811,3.985-7.974,3.985
		s-6.068-1.454-7.974-3.985l-1.548-2.063l0.295-2H77.612z M40.845,37.763h15.599l-2.342,15.933H34.356L40.845,37.763z
		 M33.656,59.057h19.659l-0.358,2l-1.545,2.063c-1.906,2.531-4.811,3.985-7.978,3.985C38.597,67.107,34.552,63.64,33.656,59.057z
		 M132.746,126.139h-21.467v-18.787h2.684c1.482,0,2.684-1.199,2.684-2.68s-1.203-2.68-2.684-2.68h-2.684V83.205h21.467V126.139z
		 M143.475,126.139h-5.365V77.844h-32.197v48.295H41.521V72.357c0.625,0.078,1.27,0.118,1.914,0.118
		c5.015,0,9.472-2.409,12.266-6.131c2.798,3.722,7.251,6.131,12.266,6.131s9.468-2.409,12.266-6.131
		c2.794,3.722,7.251,6.131,12.266,6.131c5.015,0,9.464-2.409,12.262-6.131c2.798,3.722,7.251,6.131,12.266,6.131
		c5.015,0,9.468-2.409,12.266-6.131c2.798,3.722,7.247,6.131,12.262,6.131c0.652,0,1.289-0.039,1.918-0.118V126.139z
		 M141.557,67.107c-3.16,0-6.068-1.454-7.971-3.985l-1.482-1.969l-0.381-2.095h19.612C150.44,63.64,146.399,67.107,141.557,67.107z"
		/>
	<path style="fill:#241C73;" d="M46.885,115.401h53.664V77.844H46.885V115.401z M52.254,83.205H95.18v26.836H52.254V83.205z"/>
</g>
<g>
	<rect x="38.671" y="402.895" style="fill:#DBDFE0;" width="106.4" height="70.304"/>
	<polygon style="fill:#F26867;" points="39.174,378.375 36.533,386.546 31.377,401.764 34.647,410.567 47.601,411.699 
		55.524,403.65 58.036,378.331 	"/>
	<polygon style="fill:#EEE06F;" points="59.635,378.331 55.524,403.65 62.485,412.623 71.013,413.629 79.255,406.248 
		81.747,378.331 	"/>
	<polygon style="fill:#ED5564;" points="103.403,379.585 82.443,379.585 79.739,400.852 84.789,410.272 95.522,411.699 
		103.403,407.592 104.409,399.708 	"/>
	<polygon style="fill:#EEE06F;" points="126.21,378.331 103.403,379.585 105.246,402.726 110.446,411.699 121.513,412.623 
		127.216,407.757 128.222,401.72 	"/>
	<polygon style="fill:#F26867;" points="146.333,378.331 127.338,379.585 128.222,392.268 130.168,407.234 137.085,412.894 
		146.333,412.265 152.491,408.744 153.875,397.173 	"/>
	<rect x="41.524" y="366.005" style="fill:#EEE06F;" width="101.955" height="12.325"/>
	<g>
		<rect x="48.901" y="423.69" style="fill:#86a570;" width="48.126" height="32.363"/>
		<rect x="108.43" y="423.69" style="fill:#86a570;" width="28.006" height="48.629"/>
	</g>
	<path style="fill:#241C73;" d="M156.705,398.25l-0.087-0.487c-0.016-0.071-0.024-0.149-0.039-0.22l-9.032-21.813V365H37.303v10.73
		l-8.882,21.813c-0.02,0.087-0.031,0.173-0.047,0.256l-0.083,0.452c-0.122,0.778-0.185,1.58-0.185,2.393
		c0,5.833,3.254,10.903,8.049,13.493V475h112.688v-60.864c4.791-2.59,8.049-7.66,8.049-13.493
		C156.893,399.83,156.826,399.028,156.705,398.25z M150.64,397.197h-19.714l-2.37-15.933h15.595L150.64,397.197z M42.672,370.361
		h99.51v5.369h-99.51V370.361z M126.3,402.557l0.291,1.949l-1.588,2.114c-1.902,2.531-4.811,3.985-7.974,3.985
		c-3.164,0-6.072-1.454-7.974-3.985l-1.619-2.162l-0.094-1.902H126.3z M107.077,397.197l-0.782-15.933h16.833l2.374,15.933H107.077z
		 M101.968,402.557l0.094,1.949l-1.592,2.114c-1.902,2.531-4.811,3.985-7.971,3.985c-3.168,0-6.072-1.454-7.978-3.985l-1.627-2.174
		l0.094-1.891L101.968,402.557L101.968,402.557z M83.26,397.197l0.806-15.933h16.861l0.778,15.933H83.26z M59.525,397.197
		l2.343-15.933h16.829l-0.81,15.933H59.525z M77.612,402.557l-0.098,1.969l-1.572,2.095c-1.906,2.531-4.811,3.985-7.974,3.985
		s-6.068-1.454-7.974-3.985l-1.548-2.063l0.295-2H77.612z M40.845,381.263h15.599l-2.342,15.933H34.356L40.845,381.263z
		 M33.656,402.557h19.659l-0.358,2l-1.545,2.063c-1.906,2.531-4.811,3.985-7.978,3.985C38.597,410.607,34.552,407.14,33.656,402.557
		z M132.746,469.639h-21.467v-18.787h2.684c1.482,0,2.684-1.199,2.684-2.68c0-1.482-1.203-2.68-2.684-2.68h-2.684v-18.787h21.467
		V469.639z M143.475,469.639h-5.365v-48.295h-32.197v48.295H41.521v-53.782c0.625,0.078,1.27,0.118,1.914,0.118
		c5.015,0,9.472-2.409,12.266-6.131c2.798,3.722,7.251,6.131,12.266,6.131s9.468-2.409,12.266-6.131
		c2.794,3.722,7.251,6.131,12.266,6.131c5.015,0,9.464-2.409,12.262-6.131c2.798,3.722,7.251,6.131,12.266,6.131
		c5.015,0,9.468-2.409,12.266-6.131c2.798,3.722,7.247,6.131,12.262,6.131c0.652,0,1.289-0.039,1.918-0.118V469.639z
		 M141.557,410.607c-3.16,0-6.068-1.454-7.971-3.985l-1.482-1.969l-0.381-2.095h19.612
		C150.44,407.14,146.399,410.607,141.557,410.607z"/>
	<path style="fill:#241C73;" d="M46.885,458.901h53.664v-37.557H46.885V458.901z M52.254,426.705H95.18v26.836H52.254V426.705z"/>
</g>
<g>
	<rect x="363.171" y="402.895" style="fill:#DBDFE0;" width="106.4" height="70.304"/>
	<polygon style="fill:#F26867;" points="363.674,378.375 361.033,386.546 355.877,401.764 359.147,410.567 372.101,411.699 
		380.024,403.65 382.536,378.331 	"/>
	<polygon style="fill:#EEE06F;" points="384.135,378.331 380.024,403.65 386.985,412.623 395.513,413.629 403.755,406.248 
		406.247,378.331 	"/>
	<polygon style="fill:#ED5564;" points="427.903,379.585 406.943,379.585 404.239,400.852 409.289,410.272 420.022,411.699 
		427.903,407.592 428.909,399.708 	"/>
	<polygon style="fill:#EEE06F;" points="450.71,378.331 427.903,379.585 429.746,402.726 434.946,411.699 446.013,412.623 
		451.716,407.757 452.722,401.72 	"/>
	<polygon style="fill:#F26867;" points="470.833,378.331 451.838,379.585 452.722,392.268 454.668,407.234 461.585,412.894 
		470.833,412.265 476.991,408.744 478.375,397.173 	"/>
	<rect x="366.024" y="366.005" style="fill:#EEE06F;" width="101.955" height="12.325"/>
	<g>
		<rect x="373.401" y="423.69" style="fill:#86a570;" width="48.126" height="32.363"/>
		<rect x="432.93" y="423.69" style="fill:#86a570;" width="28.006" height="48.629"/>
	</g>
	<path style="fill:#241C73;" d="M481.205,398.25l-0.087-0.487c-0.016-0.071-0.024-0.149-0.039-0.22l-9.032-21.813V365H361.803v10.73
		l-8.882,21.813c-0.02,0.087-0.031,0.173-0.047,0.256l-0.083,0.452c-0.122,0.778-0.185,1.58-0.185,2.393
		c0,5.833,3.254,10.903,8.049,13.493V475h112.688v-60.864c4.791-2.59,8.049-7.66,8.049-13.493
		C481.393,399.83,481.326,399.028,481.205,398.25z M475.14,397.197h-19.714l-2.37-15.933h15.595L475.14,397.197z M367.172,370.361
		h99.51v5.369h-99.51V370.361z M450.8,402.557l0.291,1.949l-1.588,2.114c-1.902,2.531-4.811,3.985-7.974,3.985
		c-3.164,0-6.072-1.454-7.974-3.985l-1.619-2.162l-0.094-1.902H450.8z M431.577,397.197l-0.782-15.933h16.833l2.374,15.933H431.577z
		 M426.468,402.557l0.094,1.949l-1.592,2.114c-1.902,2.531-4.811,3.985-7.971,3.985c-3.168,0-6.072-1.454-7.978-3.985l-1.627-2.174
		l0.094-1.891L426.468,402.557L426.468,402.557z M407.76,397.197l0.806-15.933h16.861l0.778,15.933H407.76z M384.025,397.197
		l2.343-15.933h16.829l-0.81,15.933H384.025z M402.112,402.557l-0.098,1.969l-1.572,2.095c-1.906,2.531-4.811,3.985-7.974,3.985
		c-3.164,0-6.068-1.454-7.974-3.985l-1.548-2.063l0.295-2H402.112z M365.345,381.263h15.599l-2.342,15.933h-19.746L365.345,381.263z
		 M358.156,402.557h19.659l-0.358,2l-1.545,2.063c-1.906,2.531-4.811,3.985-7.978,3.985
		C363.097,410.607,359.052,407.14,358.156,402.557z M457.246,469.639h-21.467v-18.787h2.684c1.482,0,2.684-1.199,2.684-2.68
		c0-1.482-1.203-2.68-2.684-2.68h-2.684v-18.787h21.467V469.639z M467.975,469.639h-5.365v-48.295h-32.197v48.295h-64.393v-53.782
		c0.625,0.078,1.27,0.118,1.914,0.118c5.015,0,9.472-2.409,12.266-6.131c2.798,3.722,7.251,6.131,12.266,6.131
		c5.015,0,9.468-2.409,12.266-6.131c2.794,3.722,7.251,6.131,12.266,6.131s9.464-2.409,12.262-6.131
		c2.798,3.722,7.251,6.131,12.266,6.131c5.015,0,9.468-2.409,12.266-6.131c2.798,3.722,7.247,6.131,12.262,6.131
		c0.652,0,1.289-0.039,1.918-0.118V469.639z M466.057,410.607c-3.16,0-6.068-1.454-7.971-3.985l-1.482-1.969l-0.381-2.095h19.612
		C474.94,407.14,470.899,410.607,466.057,410.607z"/>
	<path style="fill:#241C73;" d="M371.385,458.901h53.664v-37.557h-53.664V458.901z M376.754,426.705h42.926v26.836h-42.926V426.705z
		"/>
</g>
<g>
	<rect x="363.171" y="59.395" style="fill:#DBDFE0;" width="106.4" height="70.304"/>
	<polygon style="fill:#F26867;" points="363.674,34.875 361.033,43.046 355.877,58.264 359.147,67.067 372.101,68.199 
		380.024,60.15 382.536,34.831 	"/>
	<polygon style="fill:#EEE06F;" points="384.135,34.831 380.024,60.15 386.985,69.123 395.513,70.129 403.755,62.748 
		406.247,34.831 	"/>
	<polygon style="fill:#ED5564;" points="427.903,36.085 406.943,36.085 404.239,57.352 409.289,66.772 420.022,68.199 
		427.903,64.092 428.909,56.208 	"/>
	<polygon style="fill:#EEE06F;" points="450.71,34.831 427.903,36.085 429.746,59.226 434.946,68.199 446.013,69.123 
		451.716,64.257 452.722,58.22 	"/>
	<polygon style="fill:#F26867;" points="470.833,34.831 451.838,36.085 452.722,48.768 454.668,63.734 461.585,69.394 
		470.833,68.765 476.991,65.244 478.375,53.673 	"/>
	<rect x="366.024" y="22.505" style="fill:#EEE06F;" width="101.955" height="12.325"/>
	<g>
		<rect x="373.401" y="80.19" style="fill:#86a570;" width="48.126" height="32.363"/>
		<rect x="432.93" y="80.19" style="fill:#86a570;" width="28.006" height="48.629"/>
	</g>
	<path style="fill:#241C73;" d="M481.205,54.75l-0.087-0.487c-0.016-0.071-0.024-0.149-0.039-0.22l-9.032-21.813V21.5H361.803v10.73
		l-8.882,21.813c-0.02,0.087-0.031,0.173-0.047,0.256l-0.083,0.452c-0.122,0.778-0.185,1.58-0.185,2.393
		c0,5.833,3.254,10.903,8.049,13.493V131.5h112.688V70.636c4.791-2.59,8.049-7.66,8.049-13.493
		C481.393,56.33,481.326,55.528,481.205,54.75z M475.14,53.697h-19.714l-2.37-15.933h15.595L475.14,53.697z M367.172,26.861h99.51
		v5.369h-99.51V26.861z M450.8,59.057l0.291,1.949l-1.588,2.114c-1.902,2.531-4.811,3.985-7.974,3.985
		c-3.164,0-6.072-1.454-7.974-3.985l-1.619-2.162l-0.094-1.902H450.8z M431.577,53.697l-0.782-15.933h16.833l2.374,15.933H431.577z
		 M426.468,59.057l0.094,1.949l-1.592,2.114c-1.902,2.531-4.811,3.985-7.971,3.985c-3.168,0-6.072-1.454-7.978-3.985l-1.627-2.174
		l0.094-1.891L426.468,59.057L426.468,59.057z M407.76,53.697l0.806-15.933h16.861l0.778,15.933H407.76z M384.025,53.697
		l2.343-15.933h16.829l-0.81,15.933H384.025z M402.112,59.057l-0.098,1.969l-1.572,2.095c-1.906,2.531-4.811,3.985-7.974,3.985
		c-3.164,0-6.068-1.454-7.974-3.985l-1.548-2.063l0.295-2H402.112z M365.345,37.763h15.599l-2.342,15.933h-19.746L365.345,37.763z
		 M358.156,59.057h19.659l-0.358,2l-1.545,2.063c-1.906,2.531-4.811,3.985-7.978,3.985C363.097,67.107,359.052,63.64,358.156,59.057
		z M457.246,126.139h-21.467v-18.787h2.684c1.482,0,2.684-1.199,2.684-2.68s-1.203-2.68-2.684-2.68h-2.684V83.205h21.467V126.139z
		 M467.975,126.139h-5.365V77.844h-32.197v48.295h-64.393V72.357c0.625,0.078,1.27,0.118,1.914,0.118
		c5.015,0,9.472-2.409,12.266-6.131c2.798,3.722,7.251,6.131,12.266,6.131c5.015,0,9.468-2.409,12.266-6.131
		c2.794,3.722,7.251,6.131,12.266,6.131s9.464-2.409,12.262-6.131c2.798,3.722,7.251,6.131,12.266,6.131
		c5.015,0,9.468-2.409,12.266-6.131c2.798,3.722,7.247,6.131,12.262,6.131c0.652,0,1.289-0.039,1.918-0.118V126.139z
		 M466.057,67.107c-3.16,0-6.068-1.454-7.971-3.985l-1.482-1.969l-0.381-2.095h19.612C474.94,63.64,470.899,67.107,466.057,67.107z"
		/>
	<path style="fill:#241C73;" d="M371.385,115.401h53.664V77.844h-53.664V115.401z M376.754,83.205h42.926v26.836h-42.926V83.205z"/>
</g>
<g>
	<rect x="165.81" y="230.566" style="fill:#DBDFE0;" width="164.436" height="108.652"/>
	<polygon style="fill:#F26867;" points="166.588,192.67 162.506,205.298 154.537,228.816 159.59,242.422 179.61,244.171 
		191.856,231.732 195.737,192.603 	"/>
	<polygon style="fill:#EEE06F;" points="198.209,192.603 191.856,231.732 202.613,245.599 215.793,247.154 228.531,235.747 
		232.381,192.603 	"/>
	<polygon style="fill:#ED5564;" points="265.849,194.541 233.457,194.541 229.278,227.407 237.083,241.967 253.671,244.171 
		265.849,237.824 267.404,225.64 	"/>
	<polygon style="fill:#EEE06F;" points="301.097,192.603 265.849,194.541 268.698,230.304 276.734,244.171 293.839,245.599 
		302.652,238.079 304.207,228.749 	"/>
	<polygon style="fill:#F26867;" points="332.196,192.603 302.84,194.541 304.207,214.141 307.213,237.271 317.904,246.018 
		332.196,245.046 341.714,239.604 343.852,221.722 	"/>
	<rect x="170.218" y="173.553" style="fill:#EEE06F;" width="157.567" height="19.048"/>
	<g>
		<rect x="181.62" y="262.703" style="fill:#86a570;" width="74.377" height="50.015"/>
		<rect x="273.619" y="262.703" style="fill:#86a570;" width="43.282" height="75.155"/>
	</g>
	<path style="fill:#241C73;" d="M348.225,223.386l-0.134-0.753c-0.024-0.109-0.037-0.231-0.061-0.34l-13.958-33.711V172H163.696
		v16.582l-13.727,33.711c-0.03,0.134-0.049,0.267-0.073,0.395l-0.128,0.699c-0.188,1.202-0.285,2.441-0.285,3.699
		c0,9.014,5.029,16.849,12.44,20.852V342h174.154v-94.062c7.404-4.003,12.44-11.838,12.44-20.852
		C348.517,225.828,348.413,224.589,348.225,223.386z M338.853,221.758h-30.467l-3.663-24.624h24.102L338.853,221.758z
		 M171.993,180.285h153.788v8.297H171.993V180.285z M301.237,230.043l0.449,3.013l-2.454,3.268
		c-2.94,3.911-7.435,6.159-12.324,6.159c-4.89,0-9.385-2.247-12.324-6.159l-2.503-3.341l-0.146-2.94H301.237z M271.529,221.758
		l-1.209-24.624h26.015l3.669,24.624H271.529z M263.632,230.043l0.146,3.013l-2.46,3.268c-2.94,3.911-7.435,6.159-12.318,6.159
		c-4.896,0-9.385-2.247-12.33-6.159l-2.515-3.359l0.146-2.922L263.632,230.043L263.632,230.043z M234.72,221.758l1.245-24.624
		h26.057l1.203,24.624H234.72z M198.039,221.758l3.62-24.624h26.009l-1.251,24.624H198.039z M225.991,230.043l-0.152,3.043
		l-2.43,3.237c-2.946,3.911-7.435,6.159-12.324,6.159c-4.89,0-9.378-2.247-12.324-6.159l-2.393-3.189l0.456-3.092H225.991z
		 M169.169,197.134h24.108l-3.62,24.624h-30.516L169.169,197.134z M158.06,230.043h30.382l-0.553,3.092l-2.387,3.189
		c-2.946,3.911-7.435,6.159-12.33,6.159C165.695,242.483,159.445,237.126,158.06,230.043z M311.198,333.715h-33.176v-29.034h4.149
		c2.29,0,4.149-1.853,4.149-4.142s-1.859-4.142-4.149-4.142h-4.149v-29.034h33.176V333.715z M327.78,333.715h-8.291v-74.638h-49.758
		v74.638h-99.517v-83.117c0.966,0.121,1.962,0.182,2.958,0.182c7.751,0,14.638-3.723,18.957-9.475
		c4.325,5.752,11.207,9.475,18.957,9.475s14.632-3.723,18.957-9.475c4.318,5.752,11.206,9.475,18.957,9.475
		c7.751,0,14.626-3.723,18.951-9.475c4.325,5.752,11.207,9.475,18.957,9.475s14.632-3.723,18.957-9.475
		c4.324,5.752,11.2,9.475,18.951,9.475c1.008,0,1.992-0.061,2.964-0.182V333.715z M324.816,242.483
		c-4.883,0-9.378-2.247-12.318-6.159l-2.29-3.043l-0.589-3.237h30.309C338.543,237.126,332.299,242.483,324.816,242.483z"/>
	<path style="fill:#241C73;" d="M178.505,317.12h82.935v-58.043h-82.935V317.12z M186.802,267.362h66.34v41.474h-66.34V267.362z"/>
</g>
</svg>
