<?xml version="1.0" encoding="iso-8859-1"?>
<!-- Generator: Adobe Illustrator 24.3.0, SVG Export Plug-In . SVG Version: 6.00 Build 0)  -->
<svg version="1.1" id="Layer_1" xmlns="http://www.w3.org/2000/svg" xmlns:xlink="http://www.w3.org/1999/xlink" x="0px" y="0px"
	 viewBox="0 0 512 512" style="enable-background:new 0 0 512 512;" xml:space="preserve">
<path style="fill:#FFFFFF;" d="M169.965,216H341.93v80H169.965V216z"/>
<path style="fill:#86a570;" d="M140.008,406h-0.004c-16.5,0-30-13.5-30-30V136c0-16.5,13.5-30,30-30h0.004c16.5,0,30,13.5,30,30v240
	C170.008,392.5,156.508,406,140.008,406z"/>
<path style="fill:#86a570;" d="M80.004,381c-16.5,0-30-13.5-30-30V161c0-16.5,13.5-30,30-30s30,13.5,30,30v190
	C110.004,367.5,96.504,381,80.004,381z"/>
<path style="fill:#F26867;" d="M50,296H30c-11.047,0-20-8.953-20-20v-40c0-11,9-20,20-20h20V296z"/>
<path style="fill:#86a570;" d="M371.992,106h0.004c16.5,0,30,13.5,30,30v240c0,16.5-13.5,30-30,30h-0.004c-16.5,0-30-13.5-30-30V136
	C341.992,119.5,355.492,106,371.992,106z"/>
<path style="fill:#86a570;" d="M431.996,131c16.5,0,30,13.5,30,30v190c0,16.5-13.5,30-30,30s-30-13.5-30-30V161
	C401.996,144.5,415.496,131,431.996,131z"/>
<path style="fill:#F26867;" d="M462,216h20c11,0,20,9,20,20v40c0,11-9,20-20,20h-20V216z"/>
<path style="fill:#241C73;" d="M482,206h-10v-45c0-22.059-17.949-40-40-40c-7.711,0-14.922,2.191-21.031,5.988
	C406.879,109.25,390.949,96,372,96h-0.012c-22.047,0-40,17.941-40,40v70H180.012v-70c0-22.059-17.953-40-40.012-40
	c-18.949,0-34.879,13.25-38.969,30.988C94.922,123.191,87.711,121,80,121c-22.051,0-40,17.941-40,40v45H30
	c-16.539,0-30,13.461-30,30v40c0,16.539,13.461,30,30,30h10v45c0,22.059,17.949,40,40,40c7.711,0,14.922-2.191,21.031-5.988
	C105.121,402.75,121.051,416,140,416h0.012c22.047,0,40-17.941,40-40v-70h151.977v70c0,22.059,17.953,40,40.012,40
	c18.949,0,34.879-13.25,38.969-30.988C417.078,388.809,424.289,391,432,391c22.051,0,40-17.941,40-40v-45h10
	c16.539,0,30-13.461,30-30v-40C512,219.461,498.539,206,482,206z M40,286H30c-5.512,0-10-4.488-10-10v-40c0-5.512,4.488-10,10-10h10
	V286z M100,351c0,5.52-2.238,10.52-5.859,14.141S85.52,371,80,371c-11.031,0-20-8.969-20-20V161c0-11.031,8.969-20,20-20
	s20,8.969,20,20V351z M160.012,376c0,11.031-8.98,20-20,20H140c-11.02,0-20-8.969-20-20V136c0-11.031,8.98-20,20.012-20
	c11.02,0,20,8.969,20,20V376z M331.93,246H262c-5.52,0-10,4.48-10,10s4.48,10,10,10h69.93v20H179.961v-60H331.93V246z M392,376
	c0,11.031-8.98,20-20.012,20c-11.02,0-20-8.969-20-20V256.512c-0.008,0.219-0.027,0.438-0.059,0.648v-2.32
	c0.031,0.211,0.051,0.43,0.059,0.648V136c0-11.031,8.98-20,20-20H372c11.02,0,20,8.969,20,20V376z M452,351c0,11.031-8.969,20-20,20
	s-20-8.969-20-20V161c0-11.031,8.969-20,20-20s20,8.969,20,20V351z M492,276c0,5.512-4.488,10-10,10h-10v-60h10
	c5.512,0,10,4.488,10,10V276z"/>
<path style="fill:#241C73;" d="M222.02,266c-5.523,0-10.004-4.477-10.004-10s4.473-10,9.996-10h0.008c5.523,0,10,4.477,10,10
	S227.543,266,222.02,266z"/>
</svg>
