<?xml version="1.0" encoding="iso-8859-1"?>
<!-- Generator: Adobe Illustrator 24.3.0, SVG Export Plug-In . SVG Version: 6.00 Build 0)  -->
<svg version="1.1" id="_x33_0" xmlns="http://www.w3.org/2000/svg" xmlns:xlink="http://www.w3.org/1999/xlink" x="0px" y="0px"
	 viewBox="0 0 512 512" style="enable-background:new 0 0 512 512;" xml:space="preserve">
<g>
	<g>
		<path style="fill:#86a570;" d="M462.128,222.979l-112,120v104h-176v-104l-112-120l40-32l120,112v48c10.24-10.24,24.16-16,38.64-16
			h1.36h1.36c14.48,0,28.4,5.76,38.64,16v-48l120-112L462.128,222.979z"/>
	</g>
	<g>
		<path style="fill:#EEE06F;" d="M302.128,302.979v48c-10.24-10.24-24.16-16-38.64-16h-1.36L302.128,302.979z"/>
	</g>
	<g>
		<path style="fill:#EEE06F;" d="M262.128,334.979h-1.36c-14.48,0-28.4,5.76-38.64,16v-48L262.128,334.979z"/>
	</g>
	<g>
		<path style="fill:#F0D0B4;" d="M484.528,182.979c9.76,0,17.6,7.84,17.6,17.6c0,8.4-5.92,15.6-14.16,17.2l-25.84,5.2l-40-32
			l3.2-9.52c2.88-8.64,10.96-14.48,20.08-14.48c5.6,0,10.96,2.24,14.88,6.16l9.84,9.84L484.528,182.979z"/>
	</g>
	<g>
		<path style="fill:#F26867;" d="M326.128,167.139c-4.88,4.8-11.52,7.84-19.04,7.84c-8.16,0-15.92-3.76-21.04-10.16l-9.52-11.84
			c-9.12-11.36-22.88-18-37.44-18h-0.96c-10.4,0-20.64,3.12-29.28,8.88c-6.72,4.48-10.72,11.92-10.72,20v1.84
			c0,0.88,0,1.68,0.08,2.56l1.04,14.72h-9.12c-6.4,0-12.16,2.48-16.4,6.48l-5.28-21.12c-1.52-6.24-2.32-12.56-2.32-19.04
			c0-21.6,8.8-41.2,22.96-55.36s33.76-22.96,55.36-22.96h35.36c43.2,0,78.32,35.12,78.32,78.32c0,6.48-0.8,12.8-2.32,19.04
			l-5.28,21.12c-4.24-4-10-6.48-16.4-6.48h-9.12L326.128,167.139z"/>
	</g>
	<g>
		<path style="fill:#F0D0B4;" d="M350.528,189.459c4.72,4.4,7.6,10.64,7.6,17.52c0,6.64-2.72,12.64-7.04,16.96
			s-10.32,7.04-16.96,7.04h-13.12c0.56-2.56,0.96-5.2,1.12-7.84l2.88-40.16h9.12C340.528,182.979,346.288,185.459,350.528,189.459z"
			/>
	</g>
	<g>
		<path style="fill:#F0D0B4;" d="M326.128,167.139l-1.12,15.84l-2.88,40.16c-0.16,2.64-0.56,5.28-1.12,7.84
			c-3.84,19.04-16.64,34.64-33.68,42.4c-7.68,3.6-16.24,5.6-25.2,5.6s-17.52-2-25.2-5.6c-5.84-2.64-11.12-6.24-15.76-10.56
			c-8.96-8.32-15.36-19.36-17.92-31.84c-0.56-2.56-0.96-5.2-1.12-7.84l-2.88-40.16l-1.04-14.72c-0.08-0.88-0.08-1.68-0.08-2.56
			v-1.84c0-8.08,4-15.52,10.72-20c8.64-5.76,18.88-8.88,29.28-8.88h0.96c14.56,0,28.32,6.64,37.44,18l9.52,11.84
			c5.12,6.4,12.88,10.16,21.04,10.16C314.608,174.979,321.248,171.939,326.128,167.139L326.128,167.139z"/>
	</g>
	<g>
		<path style="fill:#F0D0B4;" d="M287.328,273.459l14.8,29.52l-40,32l-40-32l14.8-29.52v-0.08c7.68,3.6,16.24,5.6,25.2,5.6
			s17.52-2,25.2-5.6V273.459z"/>
	</g>
	<g>
		<path style="fill:#EEE06F;" d="M286.128,214.979v8c0,13.28-10.72,24-24,24s-24-10.72-24-24v-8H286.128z"/>
	</g>
	<g>
		<path style="fill:#F0D0B4;" d="M203.248,230.979h-13.12c-6.64,0-12.64-2.72-16.96-7.04s-7.04-10.32-7.04-16.96
			c0-6.88,2.88-13.12,7.6-17.52c4.24-4,10-6.48,16.4-6.48h9.12l2.88,40.16C202.288,225.779,202.688,228.419,203.248,230.979
			L203.248,230.979z"/>
	</g>
	<g>
		<path style="fill:#F0D0B4;" d="M98.928,181.459l3.2,9.52l-40,32l-25.84-5.2c-8.24-1.6-14.16-8.8-14.16-17.2
			c0-4.88,1.92-9.28,5.12-12.48s7.6-5.12,12.48-5.12h14.4l9.84-9.84c3.92-3.92,9.28-6.16,14.88-6.16
			C87.968,166.979,96.048,172.819,98.928,181.459z"/>
	</g>
	<path style="fill:#241C73;" d="M262.128,254.979c17.648,0,32-14.352,32-32v-16h-64v16
		C230.128,240.627,244.48,254.979,262.128,254.979z M278.128,222.979c0,8.824-7.176,16-16,16s-16-7.176-16-16H278.128z"/>
	<path style="fill:#241C73;" d="M484.544,174.979H473.44l-7.464-7.464c-5.504-5.504-12.824-8.536-20.608-8.536
		c-12.56,0-23.672,8.008-27.648,19.928l-2.536,7.608L304.496,289.827l-6.56-13.128c13.752-8.56,24.272-21.888,29.208-37.712h6.984
		c17.648,0,32-14.352,32-32c0-7.4-2.632-14.136-6.864-19.568l4.296-17.144c1.704-6.864,2.568-13.904,2.568-20.944
		c0-47.616-38.736-86.352-86.352-86.352H244.48c-47.616,0-86.352,38.736-86.352,86.352c0,7.032,0.864,14.08,2.576,20.944
		l4.288,17.128c-4.232,5.44-6.864,12.176-6.864,19.576c0,17.648,14.352,32,32,32h6.992c4.936,15.824,15.448,29.16,29.208,37.712
		l-6.56,13.128L109.072,186.515l-2.536-7.616c-3.976-11.912-15.088-19.92-27.648-19.92c-7.784,0-15.104,3.032-20.608,8.536
		l-7.464,7.464H39.712c-14.104,0-25.584,11.48-25.584,25.584c0,12.152,8.648,22.704,20.56,25.088l23.344,4.664l108.096,115.816
		v108.848h192V346.131l108.096-115.816l23.344-4.664c11.912-2.384,20.56-12.936,20.56-25.088
		C510.128,186.459,498.648,174.979,484.544,174.979L484.544,174.979z M230.128,319.627l12.6,10.08c-4.376,1.312-8.616,3-12.6,5.24
		V319.627z M334.128,222.979h-3.984l2.288-32h1.696c8.824,0,16,7.176,16,16S342.952,222.979,334.128,222.979z M174.128,206.979
		c0-8.824,7.176-16,16-16h1.696l2.28,32h-3.976C181.304,222.979,174.128,215.803,174.128,206.979z M190.128,163.819v1.888
		c0,1.048,0.04,2.088,0.12,3.104l0.44,6.168h-0.56c-3.96,0-7.712,0.816-11.224,2.136l-2.68-10.712
		c-1.392-5.592-2.096-11.336-2.096-17.072c0-38.792,31.56-70.352,70.352-70.352h35.296c38.792,0,70.352,31.56,70.352,70.352
		c0,5.728-0.704,11.48-2.096,17.064l-2.68,10.72c-3.504-1.32-7.264-2.136-11.224-2.136h-0.552l0.32-4.488
		c5.136-6.088,8.232-13.952,8.232-22.528v-4.984h-16v4.984c0,10.488-8.528,19.016-19.016,19.016c-5.808,0-11.216-2.6-14.84-7.144
		l-9.48-11.84c-10.688-13.352-26.624-21.016-43.736-21.016h-0.928c-12.048,0-23.72,3.536-33.752,10.216
		C195.456,143.147,190.128,153.099,190.128,163.819L190.128,163.819z M210.112,222.547l-3.912-54.896
		c-0.048-0.648-0.072-1.296-0.072-1.944v-1.888c0-5.36,2.664-10.336,7.128-13.312c7.384-4.92,15.992-7.528,24.872-7.528h0.928
		c12.216,0,23.6,5.472,31.232,15.016l9.48,11.84c6.68,8.352,16.648,13.144,27.344,13.144c3.456,0,6.8-0.504,9.952-1.44l-2.92,41.008
		c-1.944,27.16-24.792,48.432-52.016,48.432S212.056,249.707,210.112,222.547L210.112,222.547z M262.128,286.979
		c7.424,0,14.576-1.272,21.304-3.512l8.648,17.304l-29.952,23.96l-29.952-23.96l8.648-17.304
		C247.552,285.707,254.704,286.979,262.128,286.979L262.128,286.979z M294.128,319.627v15.32c-3.984-2.24-8.224-3.928-12.6-5.24
		L294.128,319.627z M30.128,200.563c0-5.28,4.296-9.584,9.584-9.584H57.44l12.152-12.152c2.48-2.48,5.784-3.848,9.296-3.848
		c5.664,0,10.68,3.616,12.48,8.984l1.416,4.248l-32.736,26.192l-22.208-4.44C33.368,209.067,30.128,205.115,30.128,200.563z
		 M342.128,339.827v99.152h-160v-99.152L73.872,223.835l27.856-22.288l112.4,104.912v63.84l13.656-13.664
		c8.808-8.808,20.512-13.656,32.968-13.656h2.752c12.456,0,24.168,4.848,32.968,13.656l13.656,13.664v-63.84l112.4-104.912
		l27.856,22.288L342.128,339.827z M486.424,209.963l-22.208,4.44l-32.736-26.192l1.416-4.24c1.792-5.376,6.808-8.992,12.472-8.992
		c3.504,0,6.816,1.368,9.296,3.848l12.152,12.152h17.728c5.288,0,9.584,4.304,9.584,9.584
		C494.128,205.115,490.888,209.067,486.424,209.963L486.424,209.963z"/>
</g>
</svg>
