<?xml version="1.0" encoding="iso-8859-1"?>
<!-- Generator: Adobe Illustrator 24.3.0, SVG Export Plug-In . SVG Version: 6.00 Build 0)  -->
<svg version="1.1" id="Capa_1" xmlns="http://www.w3.org/2000/svg" xmlns:xlink="http://www.w3.org/1999/xlink" x="0px" y="0px"
	 viewBox="0 0 512 512" style="enable-background:new 0 0 512 512;" xml:space="preserve">
<g>
	<rect x="232" y="432" style="fill:#86a570;" width="48" height="72"/>
	<polygon style="fill:#E6E9ED;" points="352,377.6 352,504 280,504 280,432 232,432 232,504 160,504 160,377.6 256,320 	"/>
	<polygon style="fill:#86a570;" points="376,360 376,392 352,377.6 256,320 160,377.6 136,392 136,360 256,288 	"/>
	<path style="fill:#F26867;" d="M111.76,232c-28,0-53.36,12.08-71.76,31.68V232c0-119.28,96.72-216,216-216s216,96.72,216,216v32
		c-18.4-19.76-43.92-32-72.08-32c-28.168,0-53.68,12.24-72.08,32c-18.408-19.76-43.768-31.92-71.84-32c-0.08,0-0.08,0-0.16,0
		c-28.168,0-53.6,12.24-72,32C165.44,244.24,139.92,232,111.76,232z"/>
	<path style="fill:#241C73;" d="M472,240c-4.424,0-8-3.576-8-8c0-114.696-93.304-208-208-208S48,117.304,48,232c0,4.424-3.576,8-8,8
		s-8-3.576-8-8C32,108.488,132.488,8,256,8s224,100.488,224,224C480,236.424,476.424,240,472,240z"/>
	<path style="fill:#241C73;" d="M40,271.656c-4.424,0-8-3.576-8-8V232c0-4.424,3.576-8,8-8s8,3.576,8,8v31.656
		C48,268.08,44.424,271.656,40,271.656z"/>
	<path style="fill:#241C73;" d="M472,272c-4.424,0-8-3.576-8-8v-32c0-4.424,3.576-8,8-8s8,3.576,8,8v32
		C480,268.424,476.424,272,472,272z"/>
	<path style="fill:#241C73;" d="M256,296c-4.424,0-8-3.576-8-8v-56c0-4.424,3.576-8,8-8c4.424,0,8,3.576,8,8v56
		C264,292.424,260.424,296,256,296z"/>
	<path style="fill:#241C73;" d="M472,272c-2.144,0-4.28-0.856-5.848-2.544C448.464,250.464,424.936,240,399.904,240
		c-25,0-48.504,10.456-66.176,29.44c-3.016,3.248-8.688,3.248-11.704,0C304.336,250.456,280.832,240,255.84,240
		c-25,0-48.504,10.456-66.184,29.44c-1.504,1.624-3.632,2.544-5.848,2.544l0,0c-2.216,0-4.344-0.92-5.848-2.544
		C160.28,250.456,136.784,240,111.784,240c-24.872,0-48.296,10.344-65.944,29.136c-3.016,3.224-8.088,3.376-11.304,0.352
		s-3.384-8.088-0.352-11.304C54.872,236.144,82.432,224,111.776,224c26.8,0,52.08,10.128,72.032,28.68
		c19.96-18.552,45.248-28.68,72.032-28.68s52.072,10.128,72.032,28.68c19.96-18.552,45.24-28.68,72.032-28.68
		c29.52,0,57.2,12.264,77.944,34.544c3.016,3.232,2.832,8.296-0.4,11.304C475.912,271.288,473.952,272,472,272z"/>
	<path style="fill:#241C73;" d="M160,512c-4.424,0-8-3.576-8-8V377.6c0-4.424,3.576-8,8-8s8,3.576,8,8V504
		C168,508.424,164.424,512,160,512z"/>
	<path style="fill:#241C73;" d="M352,512c-4.424,0-8-3.576-8-8V377.6c0-4.424,3.576-8,8-8s8,3.576,8,8V504
		C360,508.424,356.424,512,352,512z"/>
	<path style="fill:#241C73;" d="M136.008,368c-2.72,0-5.368-1.384-6.864-3.88c-2.272-3.792-1.048-8.704,2.744-10.976l120-72
		c3.8-2.272,8.704-1.048,10.976,2.744s1.048,8.704-2.744,10.976l-120,72C138.832,367.632,137.408,368,136.008,368z"/>
	<path style="fill:#241C73;" d="M375.992,368c-1.4,0-2.824-0.368-4.112-1.144l-120-72c-3.792-2.272-5.016-7.184-2.744-10.976
		s7.184-5.016,10.976-2.744l120,72c3.792,2.272,5.016,7.184,2.744,10.976C381.36,366.616,378.712,368,375.992,368z"/>
	<path style="fill:#241C73;" d="M136.008,400c-2.72,0-5.368-1.384-6.864-3.88c-2.272-3.792-1.048-8.704,2.744-10.976l120-72
		c3.8-2.28,8.704-1.048,10.976,2.744s1.048,8.704-2.744,10.976l-120,72C138.832,399.632,137.408,400,136.008,400z"/>
	<path style="fill:#241C73;" d="M375.992,400c-1.4,0-2.824-0.368-4.112-1.144l-120-72c-3.792-2.272-5.016-7.184-2.744-10.976
		s7.184-5.024,10.976-2.744l120,72c3.792,2.272,5.016,7.184,2.744,10.976C381.36,398.616,378.712,400,375.992,400z"/>
	<path style="fill:#241C73;" d="M136,400c-4.424,0-8-3.576-8-8v-32c0-4.424,3.576-8,8-8s8,3.576,8,8v32
		C144,396.424,140.424,400,136,400z"/>
	<path style="fill:#241C73;" d="M376,400c-4.424,0-8-3.576-8-8v-32c0-4.424,3.576-8,8-8s8,3.576,8,8v32
		C384,396.424,380.424,400,376,400z"/>
	<path style="fill:#241C73;" d="M280,512h-48c-4.424,0-8-3.576-8-8v-72c0-4.424,3.576-8,8-8h48c4.424,0,8,3.576,8,8v72
		C288,508.424,284.424,512,280,512z M240,496h32v-56h-32V496z"/>
	<path style="fill:#241C73;" d="M368,512H144c-4.424,0-8-3.576-8-8s3.576-8,8-8h224c4.424,0,8,3.576,8,8S372.424,512,368,512z"/>
	<path style="fill:#241C73;" d="M256,24c-4.424,0-8-3.576-8-8V8c0-4.424,3.576-8,8-8c4.424,0,8,3.576,8,8v8
		C264,20.424,260.424,24,256,24z"/>
</g>
</svg>
