<?xml version="1.0" encoding="iso-8859-1"?>
<!-- Generator: Adobe Illustrator 24.3.0, SVG Export Plug-In . SVG Version: 6.00 Build 0)  -->
<svg version="1.1" id="Capa_1" xmlns="http://www.w3.org/2000/svg" xmlns:xlink="http://www.w3.org/1999/xlink" x="0px" y="0px"
	 viewBox="0 0 512 512" style="enable-background:new 0 0 512 512;" xml:space="preserve">
<g>
	<polygon style="fill:#F26867;" points="91.663,258.001 10,258.001 10,10.007 501.988,10.007 501.988,258.001 416.002,258.001 	"/>
	<g>
		<rect x="256.004" y="138.008" style="fill:#EEE06F;" width="245.984" height="119.997"/>
		<rect x="10.01" y="10.011" style="fill:#EEE06F;" width="245.994" height="127.997"/>
	</g>
	<rect x="204.005" y="10.011" style="fill:#C9F3FF;" width="103.998" height="157.996"/>
	<polygon style="fill:#86a570;" points="416.002,258.001 96.01,258.001 204.007,168.003 308.005,168.003 	"/>
	<rect x="96.008" y="258.005" style="fill:#EEE06F;" width="319.992" height="57.999"/>
	<path style="fill:#241C73;" d="M328.573,323.068c1.86-1.859,2.931-4.439,2.931-7.069s-1.07-5.21-2.931-7.07
		c-1.859-1.86-4.439-2.93-7.069-2.93s-5.21,1.069-7.07,2.93s-2.93,4.44-2.93,7.07s1.069,5.21,2.93,7.069
		c1.86,1.86,4.44,2.931,7.07,2.931S326.714,324.929,328.573,323.068z"/>
	<path style="fill:#241C73;" d="M126.148,279.93c-1.859,1.86-2.93,4.44-2.93,7.07s1.07,5.21,2.93,7.069
		c1.86,1.86,4.44,2.931,7.07,2.931s5.21-1.07,7.07-2.931c1.859-1.859,2.93-4.439,2.93-7.069s-1.07-5.21-2.93-7.07
		c-1.86-1.86-4.44-2.93-7.07-2.93S128.009,278.069,126.148,279.93z"/>
	<path style="fill:#241C73;" d="M164.708,279.93c-1.86,1.86-2.931,4.44-2.931,7.07s1.07,5.21,2.931,7.069
		c1.859,1.86,4.439,2.931,7.069,2.931c2.641,0,5.21-1.07,7.07-2.931c1.86-1.859,2.93-4.439,2.93-7.069s-1.069-5.21-2.93-7.07
		c-1.861-1.86-4.43-2.93-7.07-2.93C169.147,277.001,166.567,278.069,164.708,279.93z"/>
	<path style="fill:#241C73;" d="M203.266,279.93c-1.86,1.86-2.93,4.44-2.93,7.07s1.069,5.21,2.93,7.069
		c1.86,1.86,4.44,2.931,7.07,2.931s5.21-1.07,7.069-2.931c1.87-1.859,2.931-4.439,2.931-7.069s-1.061-5.21-2.931-7.07
		c-1.859-1.86-4.43-2.93-7.069-2.93C207.707,277.001,205.127,278.069,203.266,279.93z"/>
	<path style="fill:#241C73;" d="M512,138.004c0-0.078-0.01-0.154-0.012-0.232V10.007c0-5.522-4.478-10-10-10H10
		c-5.522,0-10,4.478-10,10v247.994c0,5.522,4.478,10,10,10h76.01V316c0,5.522,4.478,10,10,10h182.496c5.522,0,10-4.478,10-10
		s-4.478-10-10-10H106.01v-37.999h299.993V306h-42.731c-5.522,0-10,4.478-10,10s4.478,10,10,10h52.731c5.522,0,10-4.478,10-10
		v-47.999h75.986c5.522,0,10-4.478,10-10V138.236C511.99,138.158,512,138.082,512,138.004z M491.988,128.004H318.005V20.007h173.984
		v107.997H491.988z M298.005,20.007v137.997h-83.998V20.007H298.005z M20,20.007h174.008v107.997H86.51c-5.522,0-10,4.478-10,10
		s4.478,10,10,10h107.497v15.315l-101.66,84.716C92.12,248.02,91.894,248,91.663,248H20V20.007z M123.629,248.001l83.998-69.998
		h96.758l83.998,69.998H123.629z M419.623,248.001l-101.62-84.683v-15.315h173.985v99.998H419.623z"/>
	<path style="fill:#241C73;" d="M385.67,82.005h38.665c5.522,0,10-4.478,10-10s-4.478-10-10-10H385.67c-5.522,0-10,4.478-10,10
		S380.147,82.005,385.67,82.005z"/>
	<path style="fill:#241C73;" d="M87.677,82.005h38.665c5.522,0,10-4.478,10-10s-4.478-10-10-10H87.677c-5.522,0-10,4.478-10,10
		S82.154,82.005,87.677,82.005z"/>
	<path style="fill:#241C73;" d="M424.335,188.003H385.67c-5.522,0-10,4.478-10,10s4.478,10,10,10h38.665c5.522,0,10-4.478,10-10
		C434.335,192.48,429.857,188.003,424.335,188.003z"/>
	<path style="fill:#241C73;" d="M136.342,198.002c0-5.522-4.478-10-10-10H87.677c-5.522,0-10,4.478-10,10s4.478,10,10,10h38.665
		C131.864,208.002,136.342,203.524,136.342,198.002z"/>
	<path style="fill:#241C73;" d="M448.001,491.995h-62.888c2.802-6.404,4.287-13.372,4.287-20.571c0-13.716-5.342-26.61-15.04-36.309
		c-10.739-10.739-12.039-27.392-3.908-39.568c3.382,0.97,7.174,0.128,9.838-2.536c3.905-3.905,3.905-10.237,0-14.143l-9.948-9.948
		c-3.904-3.903-10.235-3.904-14.142,0l-9.949,9.948c-3.906,3.905-3.906,10.236-0.001,14.142c0.695,0.695,1.469,1.26,2.29,1.708
		c-6.926,18.314-3.043,39.817,11.677,54.539c5.922,5.921,9.183,13.793,9.183,22.166c0,7.644-2.725,14.866-7.704,20.571h-82.759
		c8.194-18.797,4.628-41.527-10.725-56.88c-10.739-10.739-12.039-27.392-3.908-39.568c3.382,0.97,7.174,0.128,9.838-2.536
		c3.905-3.905,3.905-10.237,0-14.143l-9.948-9.948c-3.905-3.903-10.236-3.904-14.142,0l-9.949,9.948
		c-3.906,3.905-3.906,10.236-0.001,14.142c0.695,0.695,1.469,1.261,2.29,1.708c-6.926,18.315-3.043,39.818,11.677,54.539
		c11.706,11.706,12.193,30.437,1.476,42.737h-82.757c8.194-18.796,4.629-41.527-10.724-56.88
		c-5.922-5.921-9.183-13.794-9.183-22.166c0-6.289,1.84-12.295,5.264-17.404c0.906,0.261,1.842,0.395,2.778,0.395
		c2.56,0,5.119-0.977,7.071-2.93c3.905-3.905,3.905-10.236-0.001-14.142l-9.949-9.948c-3.904-3.904-10.235-3.904-14.142,0
		l-9.948,9.948c-3.905,3.905-3.905,10.237,0,14.143c0.688,0.687,1.453,1.246,2.264,1.692c-2.184,5.752-3.337,11.909-3.337,18.246
		c0,13.716,5.342,26.609,15.04,36.309c11.706,11.706,12.193,30.437,1.477,42.737H64.01c-5.522,0-10,4.478-10,10s4.478,10,10,10
		h383.991c5.522,0,10-4.478,10-10S453.523,491.995,448.001,491.995z"/>
	<g>
		<path style="fill:#241C73;" d="M98.022,148.191c-0.008,0-0.016,0-0.023,0l-81.021-0.188c-5.523-0.013-9.99-4.5-9.977-10.023
			c0.013-5.515,4.488-9.977,10-9.977c0.008,0,0.016,0,0.023,0l81.021,0.188c5.523,0.013,9.99,4.5,9.977,10.023
			C108.009,143.729,103.534,148.191,98.022,148.191z"/>
	</g>
</g>
</svg>
