<?xml version="1.0" encoding="iso-8859-1"?>
<!-- Generator: Adobe Illustrator 24.3.0, SVG Export Plug-In . SVG Version: 6.00 Build 0)  -->
<svg version="1.1" id="Capa_1" xmlns="http://www.w3.org/2000/svg" xmlns:xlink="http://www.w3.org/1999/xlink" x="0px" y="0px"
	 viewBox="0 0 512.005 512.005" style="enable-background:new 0 0 512.005 512.005;" xml:space="preserve">
<polygon style="fill:#86a570;" points="88.003,480.021 88.003,496.021 8.003,496.021 8.003,280.021 88.003,280.021 88.003,296.021 
	"/>
<path style="fill:#EAC6BB;" d="M312.003,352.021l154.56-23.512c1.752-0.312,3.592-0.488,5.44-0.488c17.672,0,32,14.328,32,32
	c0,11.84-6.408,22.168-16,27.688l-216,116.312l-184-24v-184h72l125.512,24.488C300.563,323.069,312.003,336.189,312.003,352.021z"/>
<g>
	<path style="fill:#241C73;" d="M48.243,480.005c-4.424,0-8.04-3.576-8.04-8s3.536-8,7.952-8h0.088c4.416,0,8,3.576,8,8
		S52.659,480.005,48.243,480.005z"/>
	<path style="fill:#241C73;" d="M488.019,395.725c-2.768,0-5.456-1.432-6.928-3.992c-2.216-3.832-0.904-8.72,2.912-10.928
		c7.408-4.28,12-12.248,12-20.8c0-13.232-10.768-24-24-24c-4.424,0-8-3.576-8-8s3.576-8,8-8c22.056,0,40,17.944,40,40
		c0,14.232-7.656,27.512-19.984,34.64C490.755,395.381,489.379,395.725,488.019,395.725z"/>
	<path style="fill:#241C73;" d="M272.011,512.005c-2.848,0-5.608-1.52-7.056-4.208c-2.096-3.888-0.632-8.744,3.256-10.832
		l216-116.288c3.872-2.096,8.736-0.64,10.832,3.256c2.096,3.888,0.632,8.744-3.256,10.832l-216,116.288
		C274.587,511.701,273.291,512.005,272.011,512.005z"/>
	<path style="fill:#241C73;" d="M272.011,512.005c-0.344,0-0.688-0.024-1.04-0.072l-184-24c-4.384-0.568-7.48-4.584-6.896-8.96
		c0.568-4.384,4.552-7.52,8.96-6.896l184,24c4.384,0.568,7.48,4.584,6.896,8.96C279.411,509.069,275.971,512.005,272.011,512.005z"
		/>
	<path style="fill:#241C73;" d="M88,272.01H8c-4.42,0-8,3.57-8,8v216c0,4.42,3.58,8,8,8h80c4.43,0,8-3.58,8-8v-216
		C96,275.58,92.43,272.01,88,272.01z M80,488.01H16v-200h64V488.01z"/>
	<path style="fill:#241C73;" d="M311.995,360.005c-3.888,0-7.296-2.832-7.896-6.8c-0.664-4.368,2.336-8.448,6.704-9.112
		l154.536-23.52c4.36-0.664,8.456,2.336,9.112,6.704c0.664,4.368-2.336,8.448-6.704,9.112l-154.536,23.52
		C312.803,359.973,312.395,360.005,311.995,360.005z"/>
	<path style="fill:#241C73;" d="M280.003,392.005c-4.424,0-8-3.576-8-8s3.576-8,8-8c13.232,0,24-10.768,24-24
		c0-11.712-8.352-21.656-19.864-23.64c-4.352-0.752-7.272-4.888-6.52-9.24s4.912-7.248,9.24-6.52
		c19.208,3.296,33.144,19.88,33.144,39.4C320.003,374.061,302.059,392.005,280.003,392.005z"/>
	<path style="fill:#241C73;" d="M285.507,328.485c-0.504,0-1.024-0.048-1.536-0.152l-125.504-24.48
		c-4.336-0.84-7.168-5.048-6.32-9.384s5.04-7.184,9.384-6.32l125.504,24.48c4.336,0.84,7.168,5.048,6.32,9.384
		C292.611,325.837,289.259,328.485,285.507,328.485z"/>
	<path style="fill:#241C73;" d="M160.003,304.005h-72c-4.424,0-8-3.576-8-8s3.576-8,8-8h72c4.424,0,8,3.576,8,8
		S164.427,304.005,160.003,304.005z"/>
	<path style="fill:#241C73;" d="M276.643,391.829c-0.208,0-0.416-0.008-0.624-0.024l-100.632-7.824
		c-4.408-0.344-7.704-4.184-7.36-8.592c0.344-4.416,4.184-7.736,8.592-7.36l100.632,7.824c4.408,0.344,7.704,4.184,7.36,8.592
		C284.283,388.637,280.787,391.829,276.643,391.829z"/>
	<path style="fill:#241C73;" d="M466.523,336.469c-3.832,0-7.208-2.752-7.872-6.648c-0.752-4.352,2.168-8.488,6.528-9.232
		c2.232-0.392,4.52-0.584,6.824-0.584c4.424,0,8,3.576,8,8s-3.576,8-8,8c-1.408,0-2.784,0.12-4.12,0.344
		C467.435,336.429,466.971,336.469,466.523,336.469z"/>
	<path style="fill:#241C73;" d="M280.003,392.005c-1.424,0-2.824-0.08-4.192-0.224c-4.4-0.472-7.576-4.408-7.112-8.8
		c0.472-4.4,4.384-7.624,8.8-7.112c0.824,0.088,1.664,0.136,2.504,0.136c4.424,0,8,3.576,8,8S284.427,392.005,280.003,392.005z"/>
</g>
<g>
	<g>
		<polygon style="fill:#EEE06F;" points="432.003,103.989 432.003,135.989 408.003,119.117 296.003,39.989 183.771,119.189 
			160.003,135.989 160.003,103.989 296.003,7.989 		"/>
		<rect x="264.003" y="151.989" style="fill:#EEE06F;" width="64" height="104"/>
	</g>
	<path style="fill:#86a570;" d="M408,119.12v98.63c-2.17-2.34-4.91-4.14-8-5.19c-1.96-0.67-4.07-1.03-6.26-1.03
		c-10.75,0-19.46,8.72-19.46,19.47c0,7.31,4.03,13.68,9.99,17.01c2.8,1.57,6.03,2.46,9.47,2.46c2.19,0,4.3-0.37,6.26-1.04
		c1.12-0.38,2.18-0.85,3.19-1.42c1.8-1,3.43-2.28,4.81-3.78v11.76h-80v-104h-64v104h-80V119.58l-0.23-0.39l6.51-4.6l99.18-69.98
		l6.54-4.62l6.54,4.62h0.01l98.9,69.88L408,119.12z"/>
	<g>
		<path style="fill:#241C73;" d="M184.003,264.005c-4.424,0-8-3.576-8-8V119.549c0-4.424,3.576-8,8-8s8,3.576,8,8v136.456
			C192.003,260.429,188.427,264.005,184.003,264.005z"/>
		<path style="fill:#241C73;" d="M416,119.07v136.94c0,4.42-3.57,8-8,8c-3.91,0-7.16-2.8-7.86-6.51c-0.09-0.48-0.14-0.98-0.14-1.49
			v-6.58c1.12-0.38,2.18-0.85,3.19-1.42c1.8-1,3.43-2.28,4.81-3.78c3.23-3.47,5.2-8.12,5.21-13.23c0-5.12-1.98-9.77-5.21-13.25
			c-2.17-2.34-4.91-4.14-8-5.19v-93.49c0-1.7,0.54-3.28,1.45-4.58c1.44-2.07,3.83-3.42,6.55-3.42
			C412.43,111.07,416,114.64,416,119.07z"/>
		<path style="fill:#241C73;" d="M160.011,112.005c-2.512,0-4.984-1.176-6.544-3.384c-2.544-3.616-1.688-8.6,1.92-11.16l136-96
			c3.624-2.536,8.6-1.68,11.16,1.92c2.544,3.616,1.688,8.6-1.92,11.16l-136,96C163.211,111.525,161.603,112.005,160.011,112.005z"/>
		<path style="fill:#241C73;" d="M431.995,112.005c-1.592,0-3.2-0.48-4.608-1.464l-136-96c-3.608-2.552-4.472-7.536-1.92-11.16
			c2.552-3.6,7.528-4.464,11.16-1.92l136,96c3.608,2.552,4.472,7.536,1.92,11.16C436.979,110.829,434.507,112.005,431.995,112.005z"
			/>
		<path style="fill:#241C73;" d="M160.011,144.005c-2.512,0-4.984-1.176-6.544-3.384c-2.544-3.616-1.688-8.6,1.92-11.16l136-96
			c3.624-2.536,8.6-1.672,11.16,1.92c2.544,3.616,1.688,8.6-1.92,11.16l-136,96C163.211,143.525,161.603,144.005,160.011,144.005z"
			/>
		<path style="fill:#241C73;" d="M431.995,144.005c-1.592,0-3.2-0.48-4.608-1.464l-136-96c-3.608-2.552-4.472-7.536-1.92-11.16
			c2.552-3.592,7.528-4.464,11.16-1.92l136,96c3.608,2.552,4.472,7.536,1.92,11.16C436.979,142.829,434.507,144.005,431.995,144.005
			z"/>
		<path style="fill:#241C73;" d="M160.003,144.005c-4.424,0-8-3.576-8-8v-32c0-4.424,3.576-8,8-8s8,3.576,8,8v32
			C168.003,140.429,164.427,144.005,160.003,144.005z"/>
		<path style="fill:#241C73;" d="M432.003,144.005c-4.424,0-8-3.576-8-8v-32c0-4.424,3.576-8,8-8s8,3.576,8,8v32
			C440.003,140.429,436.427,144.005,432.003,144.005z"/>
		<path style="fill:#241C73;" d="M328,144.01h-64c-4.42,0-8,3.57-8,8v104c0,4.42,3.58,8,8,8h64c4.43,0,8-3.58,8-8v-104
			C336,147.58,332.43,144.01,328,144.01z M320,248.01h-48v-88h48V248.01z"/>
		<path style="fill:#241C73;" d="M416,256.01c0,4.42-3.57,8-8,8H184c-4.42,0-8-3.58-8-8c0-4.43,3.58-8,8-8h200.27
			c2.8,1.57,6.03,2.46,9.47,2.46c2.19,0,4.3-0.37,6.26-1.04c1.12-0.38,2.18-0.85,3.19-1.42H408c0.54,0,1.08,0.05,1.59,0.16
			c1.4,0.27,2.66,0.92,3.69,1.82C414.95,251.46,416,253.61,416,256.01z"/>
	</g>
	<path style="fill:#241C73;" d="M280.243,216.005c-4.424,0-8.04-3.576-8.04-8s3.536-8,7.952-8h0.088c4.416,0,8,3.576,8,8
		S284.659,216.005,280.243,216.005z"/>
</g>
<g>
	<path style="fill:#E6646E;" d="M452.15,242.68v-23.36h-13.21c-1.09-4.22-2.76-8.27-4.98-12.02l9.35-9.34l-16.52-16.52l-9.35,9.34
		c-0.48-0.28-0.96-0.55-1.44-0.81c-2.55-1.39-5.24-2.54-8-3.42c-0.85-0.27-1.71-0.52-2.57-0.74V172.6h-23.37v13.21
		c-4.21,1.08-8.26,2.76-12.01,4.97l-9.35-9.34l-16.51,16.52l9.34,9.35c-2.21,3.75-3.89,7.79-4.98,12.01h-13.21v23.36h13.21
		c0.47,1.81,1.04,3.59,1.73,5.33c0.9,2.31,1.98,4.55,3.25,6.69l-1.29,1.29l-8.03,8.02l-0.03,0.03l16.52,16.52l9.35-9.34
		c3.75,2.21,7.8,3.89,12.01,4.97v13.21h23.37v-13.21c4.21-1.08,8.26-2.76,12.01-4.97l9.35,9.34l16.52-16.52l-9.35-9.34
		c2.22-3.75,3.89-7.8,4.98-12.02H452.15z M409.59,248.17c-0.51,0.47-1.04,0.92-1.59,1.34c-2.35,1.81-5.06,3.19-8,3.99
		c-1.99,0.56-4.09,0.86-6.26,0.86c-6.19,0-11.82-2.41-16-6.35c-4.53-4.25-7.36-10.3-7.36-17.01c0-12.9,10.46-23.36,23.36-23.36
		c2.17,0,4.27,0.3,6.26,0.86c2.94,0.8,5.65,2.18,8,3.99c3.71,2.86,6.54,6.82,8,11.38c0.72,2.25,1.11,4.64,1.11,7.13
		s-0.39,4.88-1.11,7.13C414.76,242.02,412.52,245.46,409.59,248.17z"/>
	<path style="fill:#241C73;" d="M452.15,215.43h-10.29c-0.83-2.56-1.86-5.05-3.08-7.44l7.28-7.27c1.51-1.52,1.51-3.99,0-5.51
		l-16.53-16.52c-1.52-1.52-3.98-1.52-5.5,0l-7.27,7.28c-0.25-0.13-0.51-0.26-0.76-0.37c-2.16-1.07-4.39-1.98-6.68-2.71V172.6
		c0-1.16-0.51-2.21-1.32-2.92c-0.68-0.61-1.59-0.98-2.57-0.98h-23.37c-2.15,0-3.89,1.75-3.89,3.9v10.29
		c-2.56,0.82-5.05,1.85-7.44,3.08l-7.27-7.28c-1.52-1.52-3.98-1.52-5.51,0l-16.52,16.52c-1.52,1.52-1.52,3.99,0,5.51l7.28,7.27
		c-1.22,2.39-2.25,4.88-3.08,7.44h-10.29c-2.15,0-3.89,1.74-3.89,3.89v23.36c0,2.15,1.74,3.89,3.89,3.89h10.29
		c0.16,0.48,0.32,0.96,0.5,1.44c0.73,2.06,1.59,4.06,2.58,6l-1.98,1.98l-5.3,5.29c-0.75,0.75-1.13,1.74-1.14,2.73
		c-0.01,1,0.37,2.01,1.14,2.78l16.52,16.52c1.53,1.52,3.99,1.52,5.51,0l7.27-7.28c2.39,1.23,4.88,2.26,7.44,3.08v10.29
		c0,2.15,1.74,3.9,3.89,3.9h23.37c2.15,0,3.89-1.75,3.89-3.9v-10.29c2.56-0.82,5.04-1.85,7.44-3.08l7.27,7.28
		c1.52,1.52,3.98,1.52,5.5,0l16.53-16.52c1.51-1.52,1.51-3.99,0-5.51l-7.28-7.27c1.22-2.39,2.25-4.88,3.08-7.44h10.29
		c2.15,0,3.89-1.74,3.89-3.89v-23.36C456.04,217.17,454.3,215.43,452.15,215.43z M448.26,238.79h-9.33c-1.77,0-3.32,1.2-3.76,2.92
		c-1,3.86-2.53,7.57-4.56,11.01c-0.9,1.53-0.66,3.47,0.6,4.73l6.59,6.59l-11.02,11.01l-6.59-6.59c-1.25-1.25-3.2-1.5-4.73-0.6
		c-3.44,2.03-7.14,3.56-11.01,4.56c-1.72,0.44-2.92,1.99-2.92,3.77v9.32h-15.57v-9.32c0-1.78-1.2-3.33-2.92-3.77
		c-3.87-1-7.58-2.53-11.01-4.56c-1.53-0.9-3.48-0.65-4.73,0.6l-6.59,6.59l-11.02-11.01l0.03-0.03l6.56-6.56
		c0.42-0.42,0.73-0.92,0.92-1.46c0.37-1.06,0.28-2.25-0.32-3.27c-0.9-1.52-1.7-3.09-2.39-4.71c-0.89-2.04-1.61-4.14-2.17-6.3
		c-0.44-1.72-1.99-2.92-3.76-2.92h-9.33v-15.58h9.33c1.77,0,3.32-1.2,3.76-2.92c1-3.86,2.53-7.57,4.56-11.01
		c0.9-1.53,0.66-3.47-0.6-4.73l-6.59-6.59l11.02-11.01l6.59,6.59c1.25,1.25,3.2,1.5,4.73,0.6c3.43-2.03,7.14-3.56,11.01-4.56
		c1.72-0.44,2.92-1.99,2.92-3.77v-9.32h15.57v9.32c0,1.78,1.2,3.33,2.92,3.77c1.2,0.31,2.39,0.67,3.55,1.09
		c2.59,0.91,5.09,2.07,7.46,3.47c0.17,0.1,0.36,0.19,0.54,0.26c1.43,0.57,3.08,0.25,4.19-0.86l6.59-6.59l11.02,11.01l-6.59,6.59
		c-1.26,1.26-1.5,3.2-0.6,4.73c2.03,3.44,3.56,7.15,4.56,11.01c0.44,1.72,1.99,2.92,3.76,2.92h9.33V238.79z"/>
	<path style="fill:#241C73;" d="M416,215.28c-2.13-3.01-4.85-5.57-8-7.51c-2.44-1.5-5.13-2.62-8-3.29
		c-2.01-0.48-4.11-0.74-6.26-0.74c-15.05,0-27.25,12.21-27.25,27.26c0,6.43,2.23,12.35,5.97,17.01c2.74,3.44,6.3,6.2,10.39,7.98
		c3.34,1.46,7.02,2.27,10.89,2.27c2.2,0,4.35-0.26,6.4-0.76c1.56-0.37,3.06-0.88,4.5-1.51c1.17-0.51,2.29-1.09,3.36-1.76
		c1.94-1.18,3.72-2.61,5.28-4.24c1-1.01,1.91-2.1,2.72-3.26c3.15-4.44,5-9.87,5-15.73C420.99,225.15,419.14,219.72,416,215.28z
		 M408,244.23c-1.38,1.5-3.01,2.78-4.81,3.78c-1.01,0.57-2.07,1.04-3.19,1.42c-1.96,0.67-4.07,1.04-6.26,1.04
		c-3.44,0-6.67-0.89-9.47-2.46c-5.96-3.33-9.99-9.7-9.99-17.01c0-10.75,8.71-19.47,19.46-19.47c2.19,0,4.3,0.36,6.26,1.03
		c3.09,1.05,5.83,2.85,8,5.19c3.23,3.48,5.21,8.13,5.21,13.25C413.2,236.11,411.23,240.76,408,244.23z"/>
</g>
</svg>
