<?xml version="1.0" encoding="iso-8859-1"?>
<!-- Generator: Adobe Illustrator 24.3.0, SVG Export Plug-In . SVG Version: 6.00 Build 0)  -->
<svg version="1.1" id="Layer_1" xmlns="http://www.w3.org/2000/svg" xmlns:xlink="http://www.w3.org/1999/xlink" x="0px" y="0px"
	 viewBox="0 0 512 512" style="enable-background:new 0 0 512 512;" xml:space="preserve">
<g>
	<path style="fill:#86a570;" d="M446.493,356.484H64.583c17.5,0,27.395-9.156,33.012-24.332
		c27.168-73.285-45.199-286.852,157.949-286.852c203.145,0,130.766,213.566,157.938,286.852
		C419.106,347.328,429.004,356.484,446.493,356.484z"/>
	<path style="fill:#F26867;" d="M483.469,393.457c0,20.422-16.559,36.977-36.977,36.977H64.583
		c-10.211,0-19.457-4.137-26.148-10.828s-10.828-15.938-10.828-26.148c0-20.418,16.555-36.973,36.977-36.973h381.91
		c10.211,0,19.457,4.137,26.148,10.828S483.469,383.25,483.469,393.457z"/>
	<path style="fill:#EEE06F;" d="M483.469,393.457c0,20.422-16.559,36.977-36.977,36.977H171.43
		c-10.207,0-19.453-4.137-26.145-10.828s-10.828-15.938-10.828-26.148c0-20.418,16.555-36.973,36.973-36.973h275.063
		c10.211,0,19.457,4.137,26.148,10.828S483.469,383.25,483.469,393.457z"/>
	<path style="fill:#EEE06F;" d="M312.095,478.081c0.097-0.115,0.195-0.23,0.291-0.346c1.213-1.456,2.373-2.957,3.473-4.505
		c0.022-0.031,0.044-0.063,0.066-0.095c0.517-0.73,1.019-1.47,1.51-2.219c0.071-0.108,0.142-0.217,0.212-0.325
		c0.496-0.766,0.981-1.54,1.449-2.325c0.008-0.014,0.017-0.028,0.026-0.042c0.99-1.661,1.914-3.366,2.774-5.109
		c0.043-0.088,0.086-0.175,0.128-0.263c0.4-0.819,0.786-1.645,1.157-2.481c0.018-0.04,0.036-0.08,0.054-0.12
		c0.792-1.795,1.513-3.627,2.163-5.493c0.018-0.053,0.036-0.106,0.054-0.159c0.156-0.451,0.315-0.9,0.463-1.355h-0.023
		c2.329-7.187,3.601-14.849,3.601-22.813h-147.91c0,40.848,33.109,73.961,73.961,73.961c6.844,0,13.473-0.934,19.77-2.676
		c0.887-0.246,1.765-0.512,2.639-0.79c0.248-0.079,0.495-0.162,0.742-0.244c0.65-0.214,1.296-0.437,1.938-0.668
		c0.247-0.089,0.494-0.178,0.74-0.269c0.768-0.286,1.531-0.584,2.287-0.895c0.084-0.034,0.169-0.066,0.252-0.101
		c0.857-0.356,1.705-0.731,2.546-1.118c0.173-0.08,0.344-0.164,0.516-0.245c0.667-0.314,1.329-0.637,1.986-0.97
		c0.21-0.107,0.42-0.214,0.629-0.322c0.692-0.36,1.378-0.729,2.057-1.11c0.116-0.065,0.235-0.128,0.351-0.194
		c0.815-0.463,1.62-0.94,2.415-1.432c0.083-0.051,0.164-0.105,0.247-0.157c0.694-0.433,1.379-0.879,2.057-1.334
		c0.173-0.116,0.345-0.234,0.517-0.352c0.635-0.434,1.262-0.877,1.882-1.331c0.123-0.09,0.248-0.178,0.371-0.269
		c1.493-1.105,2.942-2.266,4.346-3.478c0.131-0.113,0.26-0.228,0.391-0.342c0.587-0.514,1.166-1.037,1.737-1.569
		c0.116-0.108,0.233-0.215,0.348-0.324c1.36-1.285,2.672-2.62,3.932-4.004c0.08-0.088,0.158-0.177,0.238-0.265
		C311.027,479.327,311.566,478.709,312.095,478.081z"/>
	<path style="fill:#86a570;" d="M293.125,48.129c0.082-0.934,0.113-1.875,0.113-2.828c0-20.816-16.883-37.695-37.695-37.695
		c-20.828,0-37.695,16.879-37.695,37.695c0,0.953,0.027,1.895,0.109,2.828"/>
	<path style="fill:#241C73;" d="M446.493,348.875h-0.031c-14.723-0.008-23.035-7.648-27.793-25.531
		c-4.863-18.289-5.027-44.813-5.199-72.895c-0.207-34.023-0.441-72.586-8.898-107.074c-1-4.078-5.121-6.574-9.199-5.574
		c-4.074,1-6.57,5.117-5.574,9.195c8.035,32.75,8.262,70.363,8.465,103.547c0.18,29.078,0.344,56.543,5.707,76.707
		c2.332,8.77,5.676,15.977,9.996,21.625H97.11c4.32-5.648,7.664-12.855,9.996-21.625c5.363-20.164,5.531-47.629,5.707-76.707
		c0.27-44.395,0.578-94.711,18.742-133.219c20.445-43.348,61-64.422,123.984-64.422c34.59,0,62.895,6.5,84.125,19.324
		c18.41,11.117,31.926,26.918,41.32,48.305c1.688,3.844,6.176,5.594,10.02,3.902c3.844-1.688,5.594-6.172,3.906-10.02
		c-10.551-24.016-26.492-42.59-47.383-55.207c-13.336-8.055-28.996-13.863-46.832-17.402C298.899,18.457,279.34,0,255.54,0
		s-43.363,18.461-45.148,41.813c-17.016,3.371-32.059,8.805-44.969,16.285c-20.773,12.039-36.797,29.785-47.625,52.738
		c-19.594,41.543-19.914,93.645-20.191,139.613c-0.172,28.082-0.332,54.605-5.199,72.895c-4.758,17.883-13.07,25.523-27.793,25.531
		h-0.031C40,348.875,20,368.875,20,393.461c0,24.582,20,44.582,44.582,44.582h48.129c4.199,0,7.605-3.406,7.605-7.605
		s-3.406-7.602-7.605-7.602H64.583c-16.195,0-29.375-13.18-29.375-29.375s13.176-29.371,29.371-29.375h0.004h0.027h381.852h0.027
		h0.008c16.191,0.004,29.367,13.18,29.367,29.375s-13.18,29.375-29.375,29.375H143.129c-4.199,0-7.602,3.402-7.602,7.602
		s3.402,7.605,7.602,7.605h31.215C178.192,479.465,213.129,512,255.54,512c42.406,0,77.344-32.535,81.191-73.957h109.762
		c24.582,0,44.582-20,44.582-44.582C491.075,368.875,471.075,348.875,446.493,348.875z M255.54,15.207
		c14.563,0,26.742,10.402,29.504,24.164c-9.336-1.102-19.164-1.676-29.504-1.676c-10.34,0-20.168,0.57-29.5,1.672
		C228.801,25.605,240.977,15.207,255.54,15.207z M255.54,496.793c-34.016,0-62.121-25.734-65.906-58.75h131.809
		C317.657,471.059,289.551,496.793,255.54,496.793z"/>
	<path style="fill:#241C73;" d="M377.633,47.723c0.137,0.074,13.676,7.801,26.996,25.75c17.844,24.039,26.887,54.07,26.887,89.262
		c0,4.199,3.406,7.605,7.605,7.605s7.605-3.406,7.605-7.605c0-48.445-16.543-80.602-30.422-99.043
		c-15.25-20.266-30.645-28.91-31.293-29.27c-3.668-2.023-8.27-0.695-10.309,2.961C372.665,41.043,373.981,45.668,377.633,47.723z"/>
	<path style="fill:#241C73;" d="M435.004,50.512c1.223,0.801,29.969,20.094,29.969,68.633c0,4.199,3.406,7.602,7.605,7.602
		s7.602-3.402,7.602-7.602c0-57.25-35.465-80.48-36.977-81.441c-3.527-2.246-8.191-1.207-10.457,2.313
		C430.481,43.531,431.5,48.227,435.004,50.512z"/>
	<path style="fill:#241C73;" d="M71.95,170.34c4.199,0,7.605-3.406,7.605-7.605c0-35.191,9.047-65.223,26.887-89.262
		c13.238-17.836,26.695-25.578,26.992-25.75c3.66-2.035,4.988-6.652,2.961-10.32c-2.035-3.676-6.66-5.008-10.336-2.98
		c-0.648,0.359-16.043,9.004-31.293,29.27c-13.875,18.441-30.418,50.598-30.418,99.043C64.348,166.934,67.75,170.34,71.95,170.34z"
		/>
	<path style="fill:#241C73;" d="M38.497,126.746c4.199,0,7.602-3.402,7.602-7.602c0-48.5,28.703-67.805,29.969-68.629
		c3.516-2.262,4.547-6.945,2.301-10.477c-2.254-3.543-6.953-4.586-10.5-2.332c-1.508,0.961-36.977,24.188-36.977,81.438
		C30.891,123.344,34.297,126.746,38.497,126.746z"/>
</g>
</svg>
