<?xml version="1.0" encoding="iso-8859-1"?>
<!-- Generator: Adobe Illustrator 24.3.0, SVG Export Plug-In . SVG Version: 6.00 Build 0)  -->
<svg version="1.1" id="Layer_3" xmlns="http://www.w3.org/2000/svg" xmlns:xlink="http://www.w3.org/1999/xlink" x="0px" y="0px"
	 viewBox="0 0 512 512" style="enable-background:new 0 0 512 512;" xml:space="preserve">
<g>
	<path style="fill:#86a570;" d="M232,496h-48c-48.6,0-88-39.4-88-88H64l56-56l56,56h-32C144,456.6,183.4,496,232,496z"/>
	<path style="fill:#86a570;" d="M256,320v-32c0-44.184-35.816-80-80-80H96c-44.184,0-80,35.816-80,80v32"/>
	<path style="fill:#EEE06F;" d="M96,288l40-40l40,40l15.688-78.44C186.616,208.552,181.376,208,176,208H96
		c-5.368,0-10.616,0.552-15.688,1.56L96,288z"/>
	<g>
		<path style="fill:#DB9B7C;" d="M104,208l32,40l32-40"/>
		<path style="fill:#DB9B7C;" d="M104,208l32,40l32-40"/>
		<path style="fill:#DB9B7C;" d="M80,160H64c-13.256,0-24-10.744-24-24s10.744-24,24-24h16"/>
	</g>
	<path style="fill:#EFBE9A;" d="M192,112h16c13.256,0,24,10.744,24,24s-10.744,24-24,24h-16"/>
	<path style="fill:#DB9B7C;" d="M200,72v72c0,35.344-28.656,64-64,64s-64-28.656-64-64V72"/>
	<path style="fill:#F26867;" d="M152,56v8c0,26.512-21.488,48-48,48H56V72c0-30.928,25.072-56,56-56h48c30.928,0,56,25.072,56,56v40
		h-40c-13.256,0-24-10.744-24-24V56z"/>
	<path style="fill:#EEE06F;" d="M496,496v-32c0-44.184-35.816-80-80-80h-80c-44.184,0-80,35.816-80,80v32"/>
	<path style="fill:#86a570;" d="M336,464l40-40l40,40l15.688-78.44C426.616,384.552,421.376,384,416,384h-80
		c-5.368,0-10.616,0.552-15.688,1.56L336,464z"/>
	<path style="fill:#DB9B7C;" d="M344,384l32,40l32-40"/>
	<path style="fill:#DB9B7C;" d="M320,336h-16c-13.256,0-24-10.744-24-24s10.744-24,24-24h16"/>
	<path style="fill:#EFBE9A;" d="M432,288h16c13.256,0,24,10.744,24,24s-10.744,24-24,24h-16"/>
	<path style="fill:#DB9B7C;" d="M440,248v72c0,35.344-28.656,64-64,64s-64-28.656-64-64v-72"/>
	<path style="fill:#F26867;" d="M392,232v8c0,26.512-21.488,48-48,48h-48v-40c0-30.928,25.072-56,56-56h48c30.928,0,56,25.072,56,56
		v40h-40c-13.256,0-24-10.744-24-24V232z"/>
	<g>
		<path style="fill:#241C73;" d="M344,296h-48v-16h48c22.056,0,40-17.944,40-40v-8h16v8C400,270.872,374.88,296,344,296z"/>
		<path style="fill:#241C73;" d="M376,392c-39.696,0-72-32.296-72-72v-32h16v32c0,30.872,25.12,56,56,56s56-25.128,56-56v-32h16v32
			C448,359.704,415.696,392,376,392z"/>
		<path style="fill:#241C73;" d="M456,296h-40c-17.648,0-32-14.352-32-32v-32h16v32c0,8.824,7.176,16,16,16h40V296z"/>
		<path style="fill:#241C73;" d="M312,344h-8c-17.648,0-32-14.352-32-32s14.352-32,32-32h8v16h-8c-8.824,0-16,7.176-16,16
			s7.176,16,16,16h8V344z"/>
		<path style="fill:#241C73;" d="M448,344h-8v-16h8c8.824,0,16-7.176,16-16s-7.176-16-16-16h-8v-16h8c17.648,0,32,14.352,32,32
			S465.648,344,448,344z"/>
		<path style="fill:#241C73;" d="M464,288h-16v-40c0-26.472-21.528-48-48-48h-48c-26.472,0-48,21.528-48,48v40h-16v-40
			c0-35.288,28.712-64,64-64h48c35.288,0,64,28.712,64,64V288z"/>
		<path style="fill:#241C73;" d="M496,504H256c-4.416,0-8-3.576-8-8v-32c0-48.52,39.48-88,88-88h80c48.52,0,88,39.48,88,88v32
			C504,500.424,500.416,504,496,504z M264,488h224v-24c0-39.704-32.304-72-72-72h-80c-39.696,0-72,32.296-72,72V488z"/>
		<path style="fill:#241C73;" d="M376,432c-2.432,0-4.728-1.104-6.248-3l-32-40l12.496-10L376,411.192L401.752,379l12.496,10l-32,40
			C380.728,430.896,378.432,432,376,432L376,432z"/>
		<path style="fill:#241C73;" d="M336,472c-0.776,0-1.552-0.112-2.32-0.344c-2.824-0.848-4.952-3.192-5.528-6.088l-16-80
			l15.688-3.144l13.072,65.344l29.432-29.432l11.312,11.312l-40,40C340.136,471.176,338.088,472,336,472L336,472z"/>
		<path style="fill:#241C73;" d="M416,472c-2.088,0-4.136-0.824-5.656-2.344l-40-40l11.312-11.312l29.432,29.432l13.072-65.344
			l15.688,3.144l-16,80c-0.576,2.888-2.704,5.232-5.528,6.088C417.552,471.888,416.776,472,416,472L416,472z"/>
	</g>
	<g>
		<path style="fill:#241C73;" d="M104,120H56v-16h48c22.056,0,40-17.944,40-40v-8h16v8C160,94.872,134.88,120,104,120z"/>
		<path style="fill:#241C73;" d="M136,216c-39.696,0-72-32.296-72-72v-32h16v32c0,30.872,25.12,56,56,56s56-25.128,56-56v-32h16v32
			C208,183.704,175.696,216,136,216z"/>
		<path style="fill:#241C73;" d="M216,120h-40c-17.648,0-32-14.352-32-32V56h16v32c0,8.824,7.176,16,16,16h40V120z"/>
		<path style="fill:#241C73;" d="M72,168h-8c-17.648,0-32-14.352-32-32s14.352-32,32-32h8v16h-8c-8.824,0-16,7.176-16,16
			s7.176,16,16,16h8V168z"/>
		<path style="fill:#241C73;" d="M208,168h-8v-16h8c8.824,0,16-7.176,16-16s-7.176-16-16-16h-8v-16h8c17.648,0,32,14.352,32,32
			S225.648,168,208,168z"/>
		<path style="fill:#241C73;" d="M224,112h-16V72c0-26.472-21.528-48-48-48h-48c-26.472,0-48,21.528-48,48v40H48V72
			c0-35.288,28.712-64,64-64h48c35.288,0,64,28.712,64,64V112z"/>
		<path style="fill:#241C73;" d="M256,328H16c-4.416,0-8-3.576-8-8v-32c0-48.52,39.48-88,88-88h80c48.52,0,88,39.48,88,88v32
			C264,324.424,260.416,328,256,328z M24,312h224v-24c0-39.704-32.304-72-72-72H96c-39.696,0-72,32.296-72,72V312z"/>
		<path style="fill:#241C73;" d="M136,256c-2.432,0-4.728-1.104-6.248-3l-32-40l12.496-10L136,235.192L161.752,203l12.496,10l-32,40
			C140.728,254.896,138.432,256,136,256z"/>
		<path style="fill:#241C73;" d="M96,296c-0.776,0-1.552-0.112-2.32-0.344c-2.824-0.848-4.952-3.192-5.528-6.088l-16-80
			l15.688-3.144l13.072,65.344l29.432-29.432l11.312,11.312l-40,40C100.136,295.176,98.088,296,96,296z"/>
		<path style="fill:#241C73;" d="M176,296c-2.088,0-4.136-0.824-5.656-2.344l-40-40l11.312-11.312l29.432,29.432l13.072-65.344
			l15.688,3.144l-16,80c-0.576,2.888-2.704,5.232-5.528,6.088C177.552,295.888,176.776,296,176,296L176,296z"/>
	</g>
	<path style="fill:#241C73;" d="M232,504h-48c-50.24,0-91.592-38.8-95.664-88H64c-3.232,0-6.152-1.944-7.392-4.936
		s-0.552-6.432,1.736-8.72l56-56c3.128-3.128,8.184-3.128,11.312,0l56,56c2.288,2.288,2.976,5.728,1.736,8.72S179.232,416,176,416
		h-23.6c4.024,40.368,38.192,72,79.6,72c4.416,0,8,3.576,8,8S236.416,504,232,504z M83.312,400H96c4.416,0,8,3.576,8,8
		c0,42.344,33.064,77.104,74.728,79.832C152.984,470.592,136,441.24,136,408c0-4.424,3.584-8,8-8h12.688L120,363.312L83.312,400z"/>
</g>
</svg>
