<?xml version="1.0" encoding="iso-8859-1"?>
<!-- Generator: Adobe Illustrator 24.3.0, SVG Export Plug-In . SVG Version: 6.00 Build 0)  -->
<svg version="1.1" id="Capa_1" xmlns="http://www.w3.org/2000/svg" xmlns:xlink="http://www.w3.org/1999/xlink" x="0px" y="0px"
	 viewBox="0 0 512 512" style="enable-background:new 0 0 512 512;" xml:space="preserve">
<g>
	<path style="fill:#86a570;" d="M378.663,504.492H139.337c-10.948,0-19.823-8.875-19.823-19.823V386.24
		c0-54.996,44.584-99.58,99.58-99.58h79.814c54.996,0,99.58,44.584,99.58,99.58v98.429
		C398.486,495.617,389.611,504.492,378.663,504.492z"/>
	<path style="fill:#86a570;" d="M298.906,286.66h-0.81v40.295h80.822C360.774,302.507,331.692,286.66,298.906,286.66z"/>
	<path style="fill:#86a570;" d="M219.902,326.956v-40.295h-0.81c-32.785,0-61.868,15.847-80.012,40.295H219.902z"/>
	<path style="fill:#F26867;" d="M219.947,504.492h78.106L259,319.473L219.947,504.492z"/>
	<path style="fill:#F26867;" d="M225.105,367.494l33.828-33.828l33.828,33.828l-33.828,33.828L225.105,367.494z"/>
	<path style="fill:#544F57;" d="M259,356.35l49.641-122.967h-99.283L259,356.35z"/>
	<g>
		<path style="fill:#EEE06F;" d="M259,356.35l-33.094-81.978l-21.83,17.89c-6.544,5.363-8.763,14.403-5.444,22.186l27.752,65.092
			L259,356.35z"/>
		<path style="fill:#EEE06F;" d="M259,356.35l33.094-81.978l21.83,17.89c6.544,5.363,8.763,14.403,5.444,22.186l-27.752,65.092
			L259,356.35z"/>
	</g>
	<path style="fill:#F1D0A5;" d="M259,301.967c-49.384,0-89.418-40.034-89.418-89.418v-71.397h178.835v71.397
		C348.417,261.934,308.384,301.967,259,301.967L259,301.967z"/>
	<g>
		<path style="fill:#E2A770;" d="M169.582,216.554h-7.413c-11.23,0-20.332-9.103-20.332-20.332v-4.218
			c0-11.229,9.103-20.332,20.332-20.332h7.413V216.554z"/>
		<path style="fill:#E2A770;" d="M348.417,216.554h7.413c11.23,0,20.332-9.103,20.332-20.332v-4.218
			c0-11.229-9.103-20.332-20.332-20.332h-7.413V216.554z"/>
	</g>
	<path style="fill:#86a570;" d="M353.03,149.611c-62.687,30.75-125.374,30.75-188.06,0c-2.823-1.385-4.62-4.252-4.62-7.396v-17.035
		H357.65v17.035C357.65,145.359,355.853,148.226,353.03,149.611z"/>
	<path style="fill:#86a570;" d="M360.82,49.544c-34.678,5.114-69.413-8.898-90.837-36.641c-5.555-7.194-16.411-7.194-21.966,0
		c-21.424,27.743-56.16,41.754-90.837,36.641l-8.741-1.288c-7.515-1.108-12.812,7.114-8.75,13.532
		c8.692,13.732,13.427,29.768,13.427,46.316v17.076h105.885v-0.001v0.001h105.885v-17.076c0-16.546,4.735-32.583,13.427-46.316
		c4.063-6.418-1.234-14.64-8.75-13.532L360.82,49.544z"/>
	<path style="fill:#EEE06F;" d="M259,98.948l9.846-7.153c8.295-6.027,11.766-16.709,8.598-26.46l-3.76-11.574h-29.365l-3.76,11.574
		c-3.169,9.751,0.302,20.434,8.598,26.46L259,98.948z"/>
	<path style="fill:#EEE06F;" d="M203.446,421.089h-52.638c-2.995,0-5.423-2.428-5.423-5.423V401.87c0-2.995,2.428-5.423,5.423-5.423
		h52.638c2.995,0,5.423,2.428,5.423,5.423v13.795C208.869,418.66,206.441,421.089,203.446,421.089L203.446,421.089z"/>
	<path style="fill:#241C73;" d="M325.951,282.607c4.485-4.278,8.594-9.005,12.237-14.156c2.395-3.386,1.59-8.071-1.796-10.466
		c-3.386-2.394-8.071-1.591-10.466,1.796c-15.355,21.713-40.374,34.678-66.926,34.678c-45.164,0-81.908-36.744-81.908-81.908
		v-40.878v-8.374c26.328,10.845,53.995,16.816,81.908,16.816c28.641,0,56.361-6.29,81.909-16.816v8.374v40.878
		c0,7.538-1.025,15.011-3.047,22.209c-1.121,3.991,1.206,8.138,5.198,9.259c3.992,1.122,8.138-1.205,9.259-5.198
		c1.357-4.83,2.321-9.766,2.913-14.756h0.599c15.351,0,27.841-12.49,27.841-27.841v-4.218c0-15.319-12.438-27.787-27.746-27.838
		v-7.619c0.137-0.067,0.273-0.128,0.41-0.195c0.001,0,0.001,0,0.002-0.001c5.359-2.63,8.821-8.179,8.821-14.137v-9.527h7.377
		c4.148,0,7.508-3.361,7.508-7.508c0-4.148-3.361-7.508-7.508-7.508h-0.143v-9.569c0-14.999,4.24-29.626,12.263-42.3
		c3.476-5.49,3.439-12.281-0.098-17.72c-3.523-5.419-9.682-8.197-16.092-7.256l-8.74,1.289c-31.951,4.713-64.06-8.24-83.799-33.803
		C271.845,3.029,265.676,0,258.999,0c-6.676,0-12.845,3.029-16.926,8.314c-8.226,10.654-18.962,19.452-31.049,25.443
		c-3.715,1.842-5.235,6.347-3.393,10.062c1.843,3.715,6.348,5.233,10.062,3.393c14.115-6.998,26.655-17.274,36.265-29.72
		c1.214-1.573,3.052-2.476,5.04-2.476c1.988,0,3.826,0.902,5.041,2.476c23.054,29.854,60.554,44.982,97.877,39.481l8.74-1.289
		c0.209-0.033,0.849-0.125,1.311,0.585c0.482,0.742,0.119,1.315,0,1.504c-9.546,15.08-14.591,32.484-14.591,50.331v9.569H160.623
		v-9.569c0-17.847-5.046-35.251-14.591-50.33c-0.119-0.188-0.482-0.763,0-1.505c0.463-0.711,1.102-0.616,1.31-0.585l8.741,1.289
		c9.553,1.409,19.267,1.48,28.878,0.212c4.111-0.543,7.004-4.315,6.461-8.426c-0.543-4.112-4.319-7.01-8.426-6.461
		c-8.227,1.086-16.546,1.025-24.721-0.181l-8.742-1.289c-6.407-0.943-12.569,1.837-16.091,7.256
		c-3.536,5.44-3.573,12.23-0.098,17.721c8.023,12.673,12.263,27.3,12.263,42.299v9.569h-0.143c-4.148,0-7.508,3.361-7.508,7.508
		c0,4.148,3.361,7.508,7.508,7.508h7.377v9.527c0,5.958,3.462,11.507,8.822,14.138c0.137,0.067,0.273,0.128,0.41,0.195v7.619
		c-15.307,0.052-27.746,12.519-27.746,27.838v4.218c0,15.351,12.49,27.841,27.841,27.841h0.592
		c2.723,22.9,13.455,43.377,29.317,58.537c-46.631,12.119-80.072,54.425-80.072,103.639v98.429
		c0,15.071,12.261,27.331,27.332,27.331h23.493c4.148,0,7.508-3.361,7.508-7.508s-3.361-7.508-7.508-7.508h-23.493
		c-6.791,0-12.316-5.525-12.316-12.315v-98.43c0-18.625,5.593-36.595,15.937-51.776h56.043l20.473,48.02
		c0.892,2.09,2.682,3.665,4.868,4.282c4.271,1.201,7.002-1.67,7.539-1.925l4.662,4.662l-22.686,107.48H192.85
		c-4.148,0-7.508,3.361-7.508,7.508c0,4.148,3.361,7.508,7.508,7.508h185.812c15.072,0,27.332-12.261,27.332-27.331V386.24
		C405.995,337.283,372.796,294.794,325.951,282.607L325.951,282.607z M368.655,192.005v4.218c0,7.04-5.701,12.773-12.729,12.824
		v-29.865C362.953,179.232,368.655,184.965,368.655,192.005z M350.141,132.688c-0.156,9.586,0.345,9.803-0.418,10.182
		c-28.035,13.751-58.742,22.28-90.724,22.28c-31.966,0-62.722-8.543-90.721-22.279c-0.255-0.126-0.42-0.383-0.42-0.657v-9.527
		H350.141z M149.345,196.222v-4.218c0-7.04,5.701-12.773,12.729-12.824v29.865C155.046,208.996,149.345,203.262,149.345,196.222z
		 M288.368,368.017l-20.187-14.353l19.614-48.584c6.805-2.123,13.345-4.995,19.508-8.538l1.863,1.527
		c3.938,3.228,5.293,8.751,3.297,13.434L288.368,368.017z M326.277,317.392c2.598-6.095,2.728-12.806,0.716-18.833
		c13.104,4.192,25.144,11.302,35.247,20.888h-36.839L326.277,317.392z M270.086,308.829L259,336.29l-11.082-27.453
		c3.638,0.416,7.334,0.638,11.082,0.638C262.726,309.476,266.426,309.252,270.086,308.829z M155.76,319.448
		c10.103-9.587,22.144-16.697,35.247-20.888c-2.012,6.027-1.882,12.738,0.716,18.833l0.876,2.055L155.76,319.448z M205.537,311.503
		c-1.996-4.683-0.642-10.206,3.297-13.434l1.851-1.517c6.123,3.535,12.665,6.421,19.534,8.562l19.601,48.551l-20.187,14.353
		L205.537,311.503z M259,365.562l14.704,10.454L259,390.72l-14.703-14.704L259,365.562z M229.206,496.983l20.011-94.808
		c3.426,2.907,5.103,6.671,9.783,6.671c4.679,0,6.332-3.744,9.783-6.673l20.011,94.81L229.206,496.983z M390.978,484.669
		c0,6.79-5.525,12.315-12.316,12.315H304.14l-22.686-107.481l4.661-4.661c0.54,0.256,3.265,3.128,7.539,1.926
		c2.187-0.617,3.977-2.191,4.868-4.282l20.473-48.02h56.043c10.344,15.182,15.938,33.151,15.938,51.776L390.978,484.669
		L390.978,484.669z"/>
	<path style="fill:#241C73;" d="M254.587,105.023c1.315,0.955,2.864,1.434,4.413,1.434s3.097-0.479,4.413-1.435l9.845-7.153
		c10.96-7.963,15.511-21.97,11.325-34.854l-3.761-11.575c-1.005-3.094-3.888-5.189-7.141-5.189h-29.364
		c-3.253,0-6.136,2.094-7.141,5.189l-3.761,11.575c-4.187,12.883,0.364,26.891,11.325,34.855L254.587,105.023z M247.697,67.655
		l2.075-6.386h18.454l2.075,6.386c2.169,6.678-0.188,13.939-5.87,18.066L259,89.667l-5.433-3.945
		C247.887,81.594,245.528,74.334,247.697,67.655L247.697,67.655z"/>
	<path style="fill:#241C73;" d="M216.378,415.665V401.87c0-7.13-5.801-12.931-12.932-12.931h-52.637
		c-7.13,0-12.931,5.801-12.931,12.931v13.794c0,7.13,5.801,12.931,12.931,12.931h52.637
		C210.576,428.596,216.378,422.795,216.378,415.665L216.378,415.665z M201.361,413.579h-48.467v-9.624h48.467V413.579z"/>
</g>
</svg>
