<?xml version="1.0" encoding="iso-8859-1"?>
<!-- Generator: Adobe Illustrator 24.3.0, SVG Export Plug-In . SVG Version: 6.00 Build 0)  -->
<svg version="1.1" id="Capa_1" xmlns="http://www.w3.org/2000/svg" xmlns:xlink="http://www.w3.org/1999/xlink" x="0px" y="0px"
	 viewBox="0 0 512.008 512.008" style="enable-background:new 0 0 512.008 512.008;" xml:space="preserve">
<polygon style="fill:#86a570;" points="344.004,101.744 248.004,40.008 152.004,101.704 152.004,103.368 152.004,109.176 
	152.004,224.008 224.004,224.008 224.004,152.008 272.004,152.008 272.004,224.008 344.004,224.008 344.004,105.008 
	344.004,104.008 "/>
<path style="fill:#EEE06F;" d="M328.004,432.008h-160c0-17.68-14.32-32-32-32v-48c17.68,0,32-14.32,32-32h160
	c0,17.68,14.32,32,32,32v48C342.324,400.008,328.004,414.328,328.004,432.008z M248.004,408.008c17.68,0,32-14.32,32-32
	s-14.32-32-32-32s-32,14.32-32,32S230.324,408.008,248.004,408.008z"/>
<rect x="136.004" y="480.008" style="fill:#EEE06F;" width="224" height="24"/>
<rect x="136.004" y="456.008" style="fill:#EEE06F;" width="224" height="24"/>
<polygon style="fill:#EEE06F;" points="360.004,456.008 136.004,456.008 136.004,432.008 168.004,432.008 328.004,432.008 
	360.004,432.008 "/>
<g>
	<path style="fill:#EEE06F;" d="M136.004,320.008h32c0,17.68-14.32,32-32,32V320.008z"/>
	<path style="fill:#EEE06F;" d="M168.004,432.008h-32v-32C153.684,400.008,168.004,414.328,168.004,432.008z"/>
	<circle style="fill:#EEE06F;" cx="248.004" cy="376.008" r="32"/>
</g>
<g>
	<path style="fill:#EEE06F;" d="M360.004,400.008v32h-32C328.004,414.328,342.324,400.008,360.004,400.008z"/>
	<path style="fill:#EEE06F;" d="M360.004,320.008v32c-17.68,0-32-14.32-32-32H360.004z"/>
</g>
<g>
	<polygon style="fill:#F26867;" points="360.004,80.008 360.004,112.008 345.044,102.408 248.004,40.008 151.284,102.168 
		136.004,112.008 136.004,80.008 248.004,8.008 	"/>
	<rect x="224.004" y="152.008" style="fill:#F26867;" width="48" height="72"/>
</g>
<g>
	<path style="fill:#241C73;" d="M136.012,88.008c-2.632,0-5.208-1.296-6.736-3.672c-2.392-3.72-1.312-8.672,2.4-11.056l112-72
		c3.728-2.4,8.68-1.312,11.056,2.4c2.392,3.72,1.312,8.672-2.4,11.056l-112,72C138.988,87.6,137.5,88.008,136.012,88.008z"/>
	<path style="fill:#241C73;" d="M359.996,88.008c-1.488,0-2.976-0.408-4.32-1.272l-112-72c-3.712-2.384-4.792-7.336-2.4-11.056
		c2.384-3.712,7.328-4.808,11.056-2.4l112,72c3.712,2.384,4.792,7.336,2.4,11.056C365.204,86.712,362.628,88.008,359.996,88.008z"/>
	<path style="fill:#241C73;" d="M136.012,120.008c-2.632,0-5.208-1.296-6.736-3.672c-2.392-3.72-1.312-8.672,2.4-11.056l112-72
		c3.728-2.4,8.68-1.312,11.056,2.4c2.392,3.72,1.312,8.672-2.4,11.056l-112,72C138.988,119.6,137.5,120.008,136.012,120.008z"/>
	<path style="fill:#241C73;" d="M359.996,120.008c-1.488,0-2.976-0.408-4.32-1.272l-112-72c-3.712-2.384-4.792-7.336-2.4-11.056
		c2.384-3.72,7.328-4.808,11.056-2.4l112,72c3.712,2.384,4.792,7.336,2.4,11.056C365.204,118.712,362.628,120.008,359.996,120.008z"
		/>
	<path style="fill:#241C73;" d="M136.004,120.008c-4.424,0-8-3.576-8-8v-32c0-4.424,3.576-8,8-8s8,3.576,8,8v32
		C144.004,116.432,140.428,120.008,136.004,120.008z"/>
	<path style="fill:#241C73;" d="M360.004,120.008c-4.424,0-8-3.576-8-8v-32c0-4.424,3.576-8,8-8s8,3.576,8,8v32
		C368.004,116.432,364.428,120.008,360.004,120.008z"/>
	<path style="fill:#241C73;" d="M152.004,232.008c-4.424,0-8-3.576-8-8V101.72c0-4.424,3.576-8,8-8s8,3.576,8,8v122.288
		C160.004,228.432,156.428,232.008,152.004,232.008z"/>
	<path style="fill:#241C73;" d="M360.004,232.008h-224c-4.424,0-8-3.576-8-8s3.576-8,8-8h224c4.424,0,8,3.576,8,8
		S364.428,232.008,360.004,232.008z"/>
	<path style="fill:#241C73;" d="M344.004,232.008c-4.424,0-8-3.576-8-8V101.72c0-4.424,3.576-8,8-8s8,3.576,8,8v122.288
		C352.004,228.432,348.428,232.008,344.004,232.008z"/>
	<path style="fill:#241C73;" d="M272.004,232.008h-48c-4.424,0-8-3.576-8-8v-72c0-4.424,3.576-8,8-8h48c4.424,0,8,3.576,8,8v72
		C280.004,228.432,276.428,232.008,272.004,232.008z M232.004,216.008h32v-56h-32V216.008z"/>
</g>
<g>
	<path style="fill:#241C73;" d="M360.004,440.008h-224c-4.424,0-8-3.576-8-8v-112c0-4.424,3.576-8,8-8h224c4.424,0,8,3.576,8,8v112
		C368.004,436.432,364.428,440.008,360.004,440.008z M144.004,424.008h208v-96h-208V424.008z"/>
	<path style="fill:#241C73;" d="M136.004,360.008c-4.424,0-8-3.576-8-8s3.576-8,8-8c13.232,0,24-10.768,24-24c0-4.424,3.576-8,8-8
		s8,3.576,8,8C176.004,342.064,158.06,360.008,136.004,360.008z"/>
	<path style="fill:#241C73;" d="M360.004,360.008c-22.056,0-40-17.944-40-40c0-4.424,3.576-8,8-8s8,3.576,8,8
		c0,13.232,10.768,24,24,24c4.424,0,8,3.576,8,8S364.428,360.008,360.004,360.008z"/>
	<path style="fill:#241C73;" d="M328.004,440.008c-4.424,0-8-3.576-8-8c0-22.056,17.944-40,40-40c4.424,0,8,3.576,8,8s-3.576,8-8,8
		c-13.232,0-24,10.768-24,24C336.004,436.432,332.428,440.008,328.004,440.008z"/>
	<path style="fill:#241C73;" d="M168.004,440.008c-4.424,0-8-3.576-8-8c0-13.232-10.768-24-24-24c-4.424,0-8-3.576-8-8s3.576-8,8-8
		c22.056,0,40,17.944,40,40C176.004,436.432,172.428,440.008,168.004,440.008z"/>
	<path style="fill:#241C73;" d="M248.004,416.008c-22.056,0-40-17.944-40-40s17.944-40,40-40s40,17.944,40,40
		S270.06,416.008,248.004,416.008z M248.004,352.008c-13.232,0-24,10.768-24,24s10.768,24,24,24s24-10.768,24-24
		S261.236,352.008,248.004,352.008z"/>
	<path style="fill:#241C73;" d="M136.004,464.008c-4.424,0-8-3.576-8-8v-24c0-4.424,3.576-8,8-8s8,3.576,8,8v24
		C144.004,460.432,140.428,464.008,136.004,464.008z"/>
	<path style="fill:#241C73;" d="M360.004,464.008h-224c-4.424,0-8-3.576-8-8s3.576-8,8-8h224c4.424,0,8,3.576,8,8
		S364.428,464.008,360.004,464.008z"/>
	<path style="fill:#241C73;" d="M360.004,464.008c-4.424,0-8-3.576-8-8v-24c0-4.424,3.576-8,8-8s8,3.576,8,8v24
		C368.004,460.432,364.428,464.008,360.004,464.008z"/>
	<path style="fill:#241C73;" d="M136.004,488.008c-4.424,0-8-3.576-8-8v-24c0-4.424,3.576-8,8-8s8,3.576,8,8v24
		C144.004,484.432,140.428,488.008,136.004,488.008z"/>
	<path style="fill:#241C73;" d="M360.004,488.008h-224c-4.424,0-8-3.576-8-8s3.576-8,8-8h224c4.424,0,8,3.576,8,8
		S364.428,488.008,360.004,488.008z"/>
	<path style="fill:#241C73;" d="M360.004,488.008c-4.424,0-8-3.576-8-8v-24c0-4.424,3.576-8,8-8s8,3.576,8,8v24
		C368.004,484.432,364.428,488.008,360.004,488.008z"/>
	<path style="fill:#241C73;" d="M136.004,512.008c-4.424,0-8-3.576-8-8v-24c0-4.424,3.576-8,8-8s8,3.576,8,8v24
		C144.004,508.432,140.428,512.008,136.004,512.008z"/>
	<path style="fill:#241C73;" d="M360.004,512.008h-224c-4.424,0-8-3.576-8-8s3.576-8,8-8h224c4.424,0,8,3.576,8,8
		S364.428,512.008,360.004,512.008z"/>
	<path style="fill:#241C73;" d="M360.004,512.008c-4.424,0-8-3.576-8-8v-24c0-4.424,3.576-8,8-8s8,3.576,8,8v24
		C368.004,508.432,364.428,512.008,360.004,512.008z"/>
</g>
<g>
	<path style="fill:#241C73;" d="M72.132,407.96c-2.528,0-5.016-1.192-6.568-3.424c-27.192-39.008-41.56-84.832-41.56-132.528
		c0-47.728,14.384-93.576,41.6-132.576c2.52-3.624,7.504-4.504,11.144-1.984c3.624,2.528,4.504,7.512,1.984,11.144
		c-25.336,36.296-38.728,78.976-38.728,123.416c0,44.416,13.376,87.08,38.68,123.376c2.52,3.624,1.64,8.616-1.984,11.144
		C75.3,407.496,73.708,407.96,72.132,407.96z"/>
	<path style="fill:#241C73;" d="M80.004,176.008c-3.368,0-6.504-2.144-7.6-5.512l-7.832-24c-1.376-4.2,0.92-8.72,5.12-10.088
		c4.224-1.392,8.72,0.92,10.088,5.12l7.832,24c1.376,4.2-0.92,8.72-5.12,10.088C81.66,175.88,80.828,176.008,80.004,176.008z"/>
	<path style="fill:#241C73;" d="M48.004,160c-3.36,0-6.488-2.128-7.592-5.488c-1.392-4.192,0.888-8.728,5.08-10.112l24.168-7.992
		c4.232-1.392,8.728,0.88,10.112,5.08c1.392,4.192-0.888,8.728-5.08,10.112l-24.168,7.992C49.684,159.864,48.836,160,48.004,160z"/>
	<path style="fill:#241C73;" d="M439.836,407.96c-1.576,0-3.168-0.472-4.568-1.44c-3.624-2.528-4.504-7.512-1.984-11.144
		c25.328-36.296,38.72-78.976,38.72-123.416c0-44.416-13.376-87.08-38.68-123.376c-2.52-3.624-1.64-8.616,1.984-11.144
		c3.64-2.52,8.616-1.632,11.144,1.984c27.184,39.016,41.552,84.84,41.552,132.536c0,47.728-14.384,93.576-41.6,132.576
		C444.844,406.768,442.356,407.96,439.836,407.96z"/>
	<path style="fill:#241C73;" d="M439.836,407.96c-3.368,0-6.504-2.144-7.6-5.512l-7.832-24c-1.376-4.2,0.92-8.72,5.12-10.088
		c4.24-1.384,8.72,0.92,10.088,5.12l7.832,24c1.376,4.2-0.92,8.72-5.12,10.088C441.5,407.84,440.66,407.96,439.836,407.96z"/>
	<path style="fill:#241C73;" d="M439.836,407.96c-3.36,0-6.488-2.128-7.592-5.488c-1.392-4.192,0.888-8.728,5.08-10.112
		l24.168-7.992c4.224-1.376,8.728,0.888,10.112,5.08c1.392,4.192-0.888,8.728-5.08,10.112l-24.168,7.992
		C441.516,407.832,440.668,407.96,439.836,407.96z"/>
</g>
</svg>
