<svg id="Layer_1" data-name="Layer 1" xmlns="http://www.w3.org/2000/svg" viewBox="0 0 388.58 512"><defs><style>.cls-1{fill:#86a570;}.cls-2{fill:#f5f7fa;}.cls-3{fill:#f26867;}.cls-4{fill:#241c73;}</style></defs><polygon class="cls-1" points="117.63 384.5 38.63 417.5 19.63 431.5 10.13 492.5 29.13 504 140.63 489.5 179.13 460.5 117.63 384.5"/><polygon class="cls-1" points="372.13 442 363.13 421 263.13 386.5 140.63 504 371.13 500 376.13 488.5 372.13 442"/><polygon class="cls-2" points="237.63 349.34 148.97 362.67 117.63 386.67 183.63 457.34 257.63 384.02 237.63 349.34"/><polygon class="cls-2" points="277.63 167 243.13 137 145.63 173 97.63 238.86 97.63 285 138.63 347 184.63 374.67 218.63 370 269.53 319 295.94 256 295.94 210 277.63 167"/><polygon class="cls-3" points="322.63 154 304.63 121 247.63 138 290.63 185.5 304.63 250 330.63 200 322.63 154"/><polygon class="cls-3" points="272.63 28 220.63 8 169.63 26 105.63 59 60.63 114 60.63 202 86.63 256 129.63 189 203.63 147 276.63 133 322.63 123 322.63 87 272.63 28"/><path class="cls-4" d="M416.64,405.91l-1.33-.39a497.11,497.11,0,0,1-48.55-15.63c-34.91-13.42-44-23.11-46.33-27.7-.08-.16-.14-.33-.22-.5l0-7.06c20.29-20.16,38-47.47,46.54-77.16,26.21-35,39.52-72.5,34.5-106.53a117.43,117.43,0,0,0-14.81-41.78c5.52-5,8.88-12,9.74-20.53,1.68-16.91-7.36-39.79-24.21-61.19-17.2-21.85-39-37.94-59.87-44.16A86.68,86.68,0,0,0,287.29,0c-33.12,0-75,14.69-109.25,38.31-40,27.61-65.19,63.53-70.94,101.17-8.12,53.24,3.69,88.75,15,109.18a107,107,0,0,0,23.14,29c8.55,29.61,26.33,56.82,46.58,76.93l0,7.06c-.08.17-.15.34-.22.5-1.46,2.87-5.53,7.72-16.88,14.22,0,0-18.26,9.18-29.47,13.5A501.22,501.22,0,0,1,96.9,405.47l-1.52.44A49.37,49.37,0,0,0,61.71,452.8V512H450.29V452.8A49.34,49.34,0,0,0,416.64,405.91ZM371.71,229.25c-2.75-37.09-18.48-67.16-41.9-87q16.38-2.53,34.22-4.16c.92-.09,1.81-.18,2.68-.31a96.93,96.93,0,0,1,13.39,36.28C382.73,191.94,379.92,210.41,371.71,229.25Zm-231.56,7.88c-13.44-25-17.58-57.6-12-94.43C139,72.3,230.68,21.34,287.29,21.34A66.26,66.26,0,0,1,306,23.72c16.49,4.92,34.88,18.72,49.21,36.91C368.27,77.28,376,95.3,374.9,106.52c-.48,4.79-2.36,9.39-12.8,10.32-51.48,4.69-94.76,14.94-128.61,30.47-28.18,12.94-50.12,29.63-65.2,49.6a113.1,113.1,0,0,0-21.91,50.31A98.51,98.51,0,0,1,140.15,237.13ZM168.79,281,166.9,271c0-.08-1.33-7.77.37-19.2a91.33,91.33,0,0,1,18.43-42.52c13-17,32.26-31.41,57.18-42.78,16.61-7.56,35.77-13.81,57.3-18.66a88.36,88.36,0,0,1,22.56,17,96.27,96.27,0,0,1,20.38,32.39,121.55,121.55,0,0,1,7.7,43.75c0,29.11-13.26,61.35-36.4,88.49-22.39,26.25-46,38.22-58.41,38.22s-36-12-58.42-38.22A161.74,161.74,0,0,1,168.79,281Zm144.78,105a355,355,0,0,1-37.3,40.75,312,312,0,0,1-28.1,23.35c-17.61-9.44-32-24.1-42.88-43.66a136.77,136.77,0,0,1-8.72-19c8.28-6.25,11.92-11.53,14-15.67l0-.05,0,0c.14-.27.25-.52.36-.77,15.7,11.37,31.61,18,45,18s29.3-6.66,45-18c.09.22.22.47.34.75l0,0,0,0C303.32,375.64,306.57,380.44,313.57,386.06ZM83,490.66V452.8a28,28,0,0,1,18.78-26.55l.88-.25a524.2,524.2,0,0,0,50.22-16.17,267.86,267.86,0,0,0,25.14-11,156.88,156.88,0,0,0,8.2,17.38c10.81,19.69,25.23,35.64,42.36,47.06-20.89,12.66-45.16,23.22-71.8,27.41Zm345.92,0H223.35c3.68-1.86,7.32-3.83,11-5.91q8.08-4.67,16.09-10.05l.38.16.2-.55A324.23,324.23,0,0,0,291.24,442a373,373,0,0,0,40.41-44.44,254.76,254.76,0,0,0,27.42,12.21A525.25,525.25,0,0,0,409.45,426l.69.2A28,28,0,0,1,429,452.8v37.86Z" transform="translate(-61.71)"/></svg>