<?xml version="1.0" encoding="iso-8859-1"?>
<!-- Generator: Adobe Illustrator 24.3.0, SVG Export Plug-In . SVG Version: 6.00 Build 0)  -->
<svg version="1.1" id="Layer_1" xmlns="http://www.w3.org/2000/svg" xmlns:xlink="http://www.w3.org/1999/xlink" x="0px" y="0px"
	 viewBox="0 0 512 512" style="enable-background:new 0 0 512 512;" xml:space="preserve">
<path style="fill:#EEE06F;" d="M368,32c26.48,0,48,42.96,48,96h-96C320,74.96,341.52,32,368,32z"/>
<path style="fill:#F26867;" d="M464,128h-48c0-53.04-21.52-96-48-96C421.019,32,464,74.981,464,128z"/>
<path style="fill:#F26867;" d="M368,32c-26.48,0-48,42.96-48,96h-48C272,74.981,314.981,32,368,32z"/>
<path style="fill:#BDDBFF;" d="M488,256v60.32c-19.28,0-19.28-9.28-38.64-9.28s-19.28,9.28-38.64,9.28s-19.28-9.28-38.64-9.28
	s-19.28,9.28-38.64,9.28s-19.36-9.28-38.64-9.28s-19.36,9.28-38.72,9.28s-19.28-9.28-38.64-9.28s-19.28,9.28-38.64,9.28
	s-19.36-9.28-38.64-9.28s-19.36,9.28-38.72,9.28s-19.36-9.28-38.72-9.28s-19.36,9.28-38.72,9.28V256H488z"/>
<path style="fill:#86a570;" d="M488,316.32v76.96c-33.2,0-33.2-18.56-66.32-18.56s-33.2,18.56-66.32,18.56s-33.12-18.56-66.24-18.56
	s-33.2,18.56-66.32,18.56s-33.12-18.56-66.32-18.56s-33.12,18.56-66.24,18.56S57.12,374.72,24,374.72v-58.4
	c19.36,0,19.36-9.28,38.72-9.28s19.36,9.28,38.72,9.28s19.36-9.28,38.72-9.28s19.28,9.28,38.64,9.28s19.36-9.28,38.64-9.28
	s19.36,9.28,38.64,9.28s19.36-9.28,38.72-9.28s19.28,9.28,38.64,9.28s19.36-9.28,38.64-9.28s19.36,9.28,38.64,9.28
	s19.36-9.28,38.64-9.28S468.72,316.32,488,316.32L488,316.32z"/>
<path style="fill:#86a570;" d="M488,393.28v64.16c-25.84,0-25.84-18.56-51.6-18.56s-25.84,18.56-51.6,18.56s-25.76-18.56-51.6-18.56
	s-25.76,18.56-51.52,18.56s-25.76-18.56-51.52-18.56s-25.76,18.56-51.6,18.56s-25.76-18.56-51.52-18.56s-25.76,18.56-51.52,18.56
	S49.76,438.88,24,438.88v-64.16c33.12,0,33.12,18.56,66.24,18.56s33.12-18.56,66.24-18.56s33.2,18.56,66.32,18.56
	s33.12-18.56,66.32-18.56s33.12,18.56,66.24,18.56s33.12-18.56,66.32-18.56S454.8,393.28,488,393.28z"/>
<path style="fill:#86a570;" d="M488,457.44V488H24v-49.12c25.76,0,25.76,18.56,51.52,18.56s25.76-18.56,51.52-18.56
	s25.76,18.56,51.52,18.56s25.84-18.56,51.6-18.56s25.76,18.56,51.52,18.56s25.76-18.56,51.52-18.56s25.84,18.56,51.6,18.56
	s25.76-18.56,51.6-18.56S462.16,457.44,488,457.44z"/>
<path style="fill:#241C73;" d="M488,248H376V136h88c4.418,0,8-3.582,8-8c-0.079-54.287-41.876-99.393-96-103.6V16h-16v8.4
	c-54.124,4.207-95.921,49.313-96,103.6c0,4.418,3.582,8,8,8h88v112H200v-60c0-6.627,5.373-12,12-12s12,5.373,12,12v12h16v-12
	c0-15.464-12.536-28-28-28s-28,12.536-28,28l0,0v28h-72v-28c0-6.627,5.373-12,12-12c6.627,0,12,5.373,12,12v12h16v-12
	c0-15.464-12.536-28-28-28s-28,12.536-28,28l0,0v60H24c-4.418,0-8,3.582-8,8v232c0,4.418,3.582,8,8,8h464c4.418,0,8-3.582,8-8V256
	C496,251.582,492.418,248,488,248z M455.68,120h-31.92c-0.182-25.365-6.994-50.241-19.76-72.16
	C432.97,60.824,452.714,88.392,455.68,120L455.68,120z M280.32,120c2.966-31.608,22.71-59.176,51.68-72.16
	c-12.766,21.919-19.578,46.795-19.76,72.16H280.32z M328.16,120c1.76-40.56,16.4-70,31.84-77.84V104h16V42.16
	C391.44,50,406.08,79.44,407.84,120H328.16z M112,232h72v16h-72V232z M112,264h72v16h-72V264z M112,296h72v16h-72V296z M112,328h72
	v8h-72V328z M480,480H32v-30.56c4.88,1.003,9.54,2.873,13.76,5.52c8.875,5.588,19.194,8.453,29.68,8.24
	c10.459,0.201,20.749-2.664,29.6-8.24c6.456-4.223,14.048-6.373,21.76-6.16c7.738-0.224,15.359,1.926,21.84,6.16
	c8.845,5.59,19.139,8.456,29.6,8.24c10.461,0.216,20.755-2.65,29.6-8.24c13.373-8.213,30.227-8.213,43.6,0
	c18.233,10.986,41.047,10.986,59.28,0c13.373-8.213,30.227-8.213,43.6,0c8.88,5.577,19.196,8.441,29.68,8.24v-16
	c-7.738,0.224-15.359-1.926-21.84-6.16c-18.233-10.986-41.047-10.986-59.28,0c-13.373,8.213-30.227,8.213-43.6,0
	c-18.233-10.986-41.047-10.986-59.28,0c-6.456,4.223-14.048,6.373-21.76,6.16c-7.738,0.224-15.359-1.926-21.84-6.16
	c-8.845-5.59-19.139-8.456-29.6-8.24c-10.461-0.216-20.755,2.65-29.6,8.24c-6.456,4.223-14.048,6.373-21.76,6.16
	c-7.738,0.224-15.359-1.925-21.84-6.16c-6.567-4.092-13.93-6.738-21.6-7.76V383.2c7.551,0.999,14.789,3.649,21.2,7.76
	c11.059,7.018,23.946,10.608,37.04,10.32c13.094,0.288,25.981-3.302,37.04-10.32c8.681-5.625,18.859-8.497,29.2-8.24
	c10.366-0.255,20.569,2.616,29.28,8.24c11.054,7.028,23.944,10.619,37.04,10.32c13.094,0.288,25.981-3.302,37.04-10.32
	c17.945-10.987,40.535-10.987,58.48,0c22.776,13.76,51.303,13.76,74.08,0c17.974-10.986,40.586-10.986,58.56,0
	c8.779,5.517,18.721,8.913,29.04,9.92L480,480z M480,308.4c-2.629-0.823-5.153-1.951-7.52-3.36c-14.375-8.64-32.345-8.64-46.72,0
	c-4.602,3.019-10.018,4.555-15.52,4.4c-5.526,0.153-10.968-1.382-15.6-4.4c-14.346-8.64-32.294-8.64-46.64,0
	c-9.486,5.866-21.474,5.866-30.96,0c-14.375-8.64-32.345-8.64-46.72,0c-9.486,5.866-21.474,5.866-30.96,0
	c-6.996-4.374-15.111-6.625-23.36-6.48v16c5.502-0.155,10.918,1.381,15.52,4.4c14.346,8.64,32.294,8.64,46.64,0
	c9.517-5.86,21.523-5.86,31.04,0c14.346,8.64,32.294,8.64,46.64,0c9.517-5.86,21.523-5.86,31.04,0
	c6.99,4.387,15.109,6.639,23.36,6.48c8.248,0.132,16.359-2.118,23.36-6.48c9.517-5.86,21.523-5.86,31.04,0
	c4.698,2.914,9.913,4.897,15.36,5.84v60c-7.572-1.014-14.833-3.662-21.28-7.76c-22.777-13.76-51.303-13.76-74.08,0
	c-17.945,10.987-40.535,10.987-58.48,0c-11.059-7.018-23.946-10.608-37.04-10.32c-13.12-0.297-26.036,3.294-37.12,10.32
	c-8.681,5.625-18.859,8.497-29.2,8.24c-10.366,0.255-20.569-2.616-29.28-8.24c-11.049-7.04-23.943-10.632-37.04-10.32
	c-13.094-0.288-25.981,3.302-37.04,10.32c-8.676,5.637-18.857,8.51-29.2,8.24c-10.341,0.257-20.519-2.615-29.2-8.24
	c-8.778-5.517-18.721-8.913-29.04-9.92V264h64v80c0,4.418,3.582,8,8,8h88c4.418,0,8-3.582,8-8v-80h280V308.4z"/>
</svg>
