<?xml version="1.0" encoding="iso-8859-1"?>
<!-- Generator: Adobe Illustrator 24.3.0, SVG Export Plug-In . SVG Version: 6.00 Build 0)  -->
<svg version="1.1" id="Layer_1" xmlns="http://www.w3.org/2000/svg" xmlns:xlink="http://www.w3.org/1999/xlink" x="0px" y="0px"
	 viewBox="0 0 480 480" style="enable-background:new 0 0 480 480;" xml:space="preserve">
<path style="fill:#86a570;" d="M184,272V152c0-17.672-14.328-32-32-32H40c-17.672,0-32,14.328-32,32v120h40v176l-16,24h128l-16-24
	V272H184z"/>
<path style="fill:#EEE06F;" d="M136,48c0,22.09-17.91,40-40,40S56,70.09,56,48S73.91,8,96,8S136,25.91,136,48z"/>
<path style="fill:#EEE06F;" d="M424,48c0,22.09-17.91,40-40,40s-40-17.91-40-40s17.91-40,40-40S424,25.91,424,48z"/>
<path style="fill:#FEC9A3;" d="M8,272h40v32H8V272z"/>
<path style="fill:#FEC9A3;" d="M144,272h40v32h-40V272z"/>
<path style="fill:#DBDBD9;" d="M232,0h16v480h-16V0z"/>
<path style="fill:#FEC9A3;" d="M472,304V152c0-17.672-14.328-32-32-32h-8v184H472z"/>
<path style="fill:#FEC9A3;" d="M336,120h-8c-17.672,0-32,14.328-32,32v152h40V120z"/>
<path style="fill:#F0B7B4;" d="M315,327h144l-24-128v-80h-96v80L315,327z"/>
<path style="fill:#FEC9A3;" d="M424,472h-80l-8-144h96L424,472z"/>
<path style="fill:#2E7DB3;" d="M40,168h16v136H40V168z"/>
<path style="fill:#2E7DB3;" d="M136,168h16v136h-16V168z"/>
<path style="fill:#2E7DB3;" d="M88,304h16v168H88V304z"/>
<path style="fill:#F0AF81;" d="M376,328h16v144h-16V328z"/>
<path style="fill:#241C73;" d="M96,96c26.508,0,48-21.492,48-48S122.508,0,96,0S48,21.492,48,48C48.027,74.5,69.5,95.973,96,96z
	 M96,16c17.672,0,32,14.328,32,32s-14.328,32-32,32S64,65.672,64,48S78.328,16,96,16z"/>
<path style="fill:#241C73;" d="M384,96c26.508,0,48-21.492,48-48S410.508,0,384,0s-48,21.492-48,48
	C336.027,74.5,357.5,95.973,384,96z M384,16c17.672,0,32,14.328,32,32s-14.328,32-32,32s-32-14.328-32-32S366.328,16,384,16z"/>
<path style="fill:#241C73;" d="M8,312h32v133.602l-14.656,21.957c-1.637,2.457-1.789,5.613-0.398,8.215S29.051,480,32,480h128
	c2.949,0,5.664-1.625,7.055-4.227s1.238-5.758-0.398-8.215L152,445.602V312h32c4.418,0,8-3.582,8-8V152
	c-0.027-22.082-17.918-39.973-40-40H40c-22.082,0.027-39.973,17.918-40,40v152C0,308.418,3.582,312,8,312z M176,296h-24v-16h24V296z
	 M16,152c0-13.254,10.746-24,24-24h112c13.254,0,24,10.746,24,24v112h-24V160h-16v288c0.004,1.578,0.469,3.125,1.344,4.441
	L145.047,464H104V304H88v160H46.953l7.703-11.559c0.875-1.316,1.34-2.863,1.344-4.441V168H40v96H16V152z M16,280h24v16H16V280z"/>
<path style="fill:#241C73;" d="M232,0h16v480h-16V0z"/>
<path style="fill:#241C73;" d="M440,112H328c-22.082,0.027-39.973,17.918-40,40v152c0,4.418,3.582,8,8,8h10.863l-2.727,14.527
	c-0.438,2.34,0.188,4.754,1.707,6.582c1.52,1.832,3.777,2.891,6.156,2.891h16.434L336,472.449c0.238,4.242,3.75,7.559,8,7.551h80
	c4.25,0.008,7.762-3.309,8-7.551L439.566,336H456c2.379,0,4.637-1.059,6.156-2.891c1.52-1.828,2.145-4.242,1.707-6.582L461.137,312
	H472c4.418,0,8-3.582,8-8V152C479.973,129.918,462.082,112.027,440,112z M309.863,296H304V152c0-13.254,10.746-24,24-24v71.258
	L309.863,296z M376,464h-24.434l-7.109-128H376V464z M416.434,464H392V336h31.543L416.434,464z M432,320H321.602l22.223-118.527
	c0.102-0.484,0.16-0.977,0.176-1.473v-72h80v72c0,0.492,0.047,0.988,0.137,1.473L446.398,320H432z M464,296h-5.863L440,199.258V128
	c13.254,0,24,10.746,24,24V296z"/>
</svg>
