<?xml version="1.0" encoding="iso-8859-1"?>
<!-- Generator: Adobe Illustrator 24.3.0, SVG Export Plug-In . SVG Version: 6.00 Build 0)  -->
<svg version="1.1" id="Layer_1" xmlns="http://www.w3.org/2000/svg" xmlns:xlink="http://www.w3.org/1999/xlink" x="0px" y="0px"
	 viewBox="0 0 512 512" style="enable-background:new 0 0 512 512;" xml:space="preserve">
<g>
	<path style="fill:#86a570;" d="M328,152h16l-8-16V72c0-17.673-14.327-32-32-32h-32v24l24,8v48C296,137.673,310.327,152,328,152z"/>
	<path style="fill:#241C73;" d="M344,159.5h-16c-21.78,0-39.5-17.72-39.5-39.5V77.406l-18.872-6.291
		c-3.063-1.021-5.128-3.887-5.128-7.115V40c0-4.142,3.357-7.5,7.5-7.5h32c21.78,0,39.5,17.72,39.5,39.5v62.229l7.208,14.417
		c1.163,2.325,1.038,5.086-0.328,7.297C349.014,158.154,346.6,159.5,344,159.5z M279.5,58.594l18.872,6.291
		c3.063,1.021,5.128,3.887,5.128,7.115v48c0,13.509,10.99,24.5,24.5,24.5h3.865l-2.573-5.146c-0.521-1.041-0.792-2.189-0.792-3.354
		V72c0-13.509-10.99-24.5-24.5-24.5h-24.5V58.594z"/>
	<polygon style="fill:#FEC093;" points="200,288 208,336 200,368 312,368 304,336 312,288 	"/>
	<path style="fill:#241C73;" d="M312,375.5H200c-2.31,0-4.49-1.064-5.912-2.885s-1.925-4.193-1.364-6.435l7.622-30.486
		l-7.744-46.461c-0.362-2.175,0.25-4.399,1.675-6.081c1.425-1.683,3.518-2.652,5.723-2.652h112c2.205,0,4.298,0.97,5.723,2.652
		c1.425,1.682,2.038,3.906,1.676,6.081l-7.744,46.461l7.622,30.486c0.56,2.241,0.057,4.614-1.365,6.435
		C316.49,374.436,314.31,375.5,312,375.5z M209.606,360.5h92.789l-5.671-22.681c-0.249-0.999-0.291-2.037-0.122-3.053l6.545-39.267
		h-94.293l6.544,39.267c0.169,1.016,0.127,2.054-0.122,3.053L209.606,360.5z"/>
	<path style="fill:#86a570;" d="M200,368l-16,40L77.918,420.48C60.858,422.487,48,436.946,48,454.124l0,0
		C48,472.833,63.167,488,81.876,488h0h348.248C448.833,488,464,472.833,464,454.124l0,0l0,0c0-17.178-12.858-31.637-29.918-33.644
		L328,408l-16-40H200z"/>
	<path style="fill:#241C73;" d="M430.124,495.5H81.876c-22.815,0-41.376-18.562-41.376-41.376c0-20.976,15.709-38.642,36.542-41.092
		l101.651-11.96l14.343-35.857c1.139-2.848,3.896-4.715,6.963-4.715h112c3.066,0,5.824,1.867,6.964,4.715l14.343,35.857
		l101.651,11.96c20.832,2.45,36.542,20.116,36.542,41.092C471.5,476.938,452.938,495.5,430.124,495.5z M205.078,375.5
		l-14.114,35.285c-1.021,2.553-3.356,4.342-6.087,4.663l-106.082,12.48c-13.28,1.563-23.294,12.824-23.294,26.195
		c0,14.544,11.832,26.376,26.376,26.376h348.248c14.544,0,26.376-11.832,26.376-26.376c0-13.371-10.015-24.633-23.294-26.195
		l-106.082-12.48c-2.73-0.321-5.066-2.11-6.088-4.663L306.922,375.5H205.078z M184,408h0.01H184z"/>
	<path style="fill:#F7B488;" d="M392,396c0.009,6.619-5.349,11.991-11.968,12c-0.011,0-0.021,0-0.032,0h-4l-80,40l-64.23,14.6
		L120,488H80.55c-17.977-0.011-32.541-14.593-32.53-32.57c0.011-17.525,13.895-31.896,31.41-32.51l144.89-5L280,416l4.12-16.48
		c2.144-8.571,10.829-13.781,19.4-11.64L320,392l32-8h28C386.627,384,392,389.373,392,396z"/>
	<path style="fill:#241C73;" d="M120,495.5H80.55c-10.702-0.007-20.757-4.179-28.317-11.748s-11.72-17.629-11.713-28.327
		c0.014-21.671,16.99-39.241,38.647-40l194.927-6.726l2.749-10.999c3.144-12.567,15.923-20.233,28.494-17.097L320,384.27
		l30.181-7.546c0.596-0.148,1.206-0.224,1.819-0.224h28c10.749,0,19.495,8.742,19.5,19.49l0,0c0.007,5.204-2.014,10.1-5.688,13.784
		c-3.675,3.686-8.565,5.719-13.77,5.726h-2.271l-78.416,39.208c-0.538,0.269-1.106,0.473-1.692,0.605l-176,40
		C121.117,495.438,120.559,495.5,120,495.5z M299.642,394.901c-3.807,0-7.281,2.581-8.246,6.438l-4.119,16.48
		c-0.812,3.245-3.675,5.561-7.018,5.676l-200.57,6.92c-13.542,0.476-24.16,11.465-24.169,25.02
		c-0.004,6.69,2.598,12.983,7.326,17.718s11.017,7.344,17.708,7.348h38.604l174.296-39.613l79.19-39.595
		c1.042-0.521,2.19-0.792,3.354-0.792h4c1.22-0.002,2.345-0.47,3.19-1.317c0.846-0.849,1.312-1.975,1.31-3.173
		c0-0.003,0-0.007,0-0.01c0-2.481-2.019-4.5-4.5-4.5h-27.077l-31.104,7.776c-1.195,0.299-2.443,0.299-3.639,0l-16.48-4.12
		C301.012,394.984,300.321,394.901,299.642,394.901z M399.5,396h0.01H399.5z"/>
	<path style="fill:#86a570;" d="M231.77,462.6L120,488H80.55c-17.977-0.011-32.541-14.593-32.53-32.57
		c0.011-17.525,13.895-31.896,31.41-32.51l144.89-5L231.77,462.6z"/>
	<path style="fill:#241C73;" d="M120,495.5H80.55c-10.702-0.007-20.757-4.179-28.317-11.748s-11.72-17.629-11.713-28.327
		c0.014-21.671,16.99-39.24,38.647-40l144.894-5c3.771-0.174,7.038,2.549,7.657,6.262l7.45,44.68
		c0.653,3.918-1.862,7.667-5.736,8.547l-111.77,25.4C121.117,495.438,120.559,495.5,120,495.5z M218.004,425.643l-138.315,4.772
		c-13.542,0.476-24.16,11.465-24.169,25.02c-0.004,6.69,2.598,12.983,7.326,17.718s11.017,7.344,17.708,7.348h38.604l104.05-23.646
		L218.004,425.643z"/>
	<path style="fill:#FEC093;" d="M463.98,456.614C463.363,474.238,448.442,488,430.807,488H392l-111.77-25.4L216,448l-80-40h-4
		c-6.627,0-12-5.373-12-12l0,0c0-6.627,5.373-12,12-12h28l32,8l16.478-4.119c8.572-2.141,17.256,3.07,19.4,11.641L232,416
		l55.68,1.92l144.89,5c17.962,0.614,32.026,15.673,31.412,33.636C463.981,456.575,463.981,456.595,463.98,456.614z"/>
	<path style="fill:#241C73;" d="M430.807,495.5H392c-0.56,0-1.117-0.063-1.662-0.187l-176-40c-0.586-0.133-1.154-0.337-1.692-0.605
		L134.229,415.5H132c-10.752,0-19.5-8.748-19.5-19.5s8.748-19.5,19.5-19.5h28c0.613,0,1.224,0.075,1.819,0.224L192,384.27
		l14.659-3.665c12.569-3.141,25.352,4.529,28.495,17.099l2.751,10.996l194.924,6.726c22.063,0.754,39.402,19.32,38.649,41.387
		c-0.001,0.009-0.001,0.018-0.001,0.026c-0.001,0.013-0.001,0.025-0.002,0.039C470.718,478.534,452.854,495.5,430.807,495.5z
		 M392.842,480.5h37.965c13.692,0,25.212-10.833,25.679-24.148c0-0.018,0.001-0.035,0.001-0.052l0,0
		c0.472-13.801-10.372-25.412-24.172-25.884l-200.573-6.921c-3.343-0.115-6.206-2.43-7.018-5.675l-4.122-16.478
		c-1.137-4.546-5.756-7.317-10.306-6.186l-16.477,4.119c-1.194,0.299-2.443,0.299-3.638,0l-31.104-7.776H132
		c-2.481,0-4.5,2.019-4.5,4.5s2.019,4.5,4.5,4.5h4c1.165,0,2.313,0.271,3.354,0.792l79.191,39.595L392.842,480.5z M463.98,456.614
		h0.01H463.98z"/>
	<path style="fill:#86a570;" d="M464,455.45c0.002,17.975-14.567,32.548-32.542,32.55c-0.003,0-0.005,0-0.008,0H392l-111.77-25.4
		l7.45-44.68l144.89,5C450.102,423.519,464.004,437.907,464,455.45z"/>
	<path style="fill:#241C73;" d="M431.459,495.5H392c-0.56,0-1.117-0.063-1.662-0.187l-111.77-25.4
		c-3.874-0.88-6.389-4.629-5.735-8.547l7.449-44.68c0.619-3.713,3.873-6.438,7.656-6.262l144.891,5
		c21.687,0.74,38.674,18.321,38.671,40.024l0,0c0,0.003,0,0.003,0,0.003c0.001,10.695-4.164,20.751-11.726,28.315
		C452.211,491.332,442.155,495.499,431.459,495.5z M392.842,480.5h38.608c6.697-0.001,12.986-2.606,17.716-7.338
		c4.73-4.731,7.335-11.021,7.334-17.711c0-0.001,0-0.002,0-0.003c0.003-13.574-10.62-24.569-24.186-25.032l-138.318-4.773
		l-5.204,31.212L392.842,480.5z"/>
	<path style="fill:#FEC093;" d="M488,400v24l-24,8l-12.55-4.18l-8.6-2.87l-2.04-0.68l-13.9-4.63L416,416l-24-28.8l-2.67-3.2L336,320
		l-16-88l-24,24h-80l-24-24l-16,88l-53.33,64l-2.67,3.2L96,416l-10.91,3.64l-13.9,4.63l-2.04,0.68l-8.6,2.87L48,432l-24-8v-24l32-16
		c-8.837,0-16-7.163-16-16h48l48-64l19.11-101.9c2.836-15.135,16.052-26.102,31.45-26.1H232v-56h48v56h45.44
		c15.398-0.002,28.614,10.965,31.45,26.1L376,304l48,64h48c0,8.837-7.163,16-16,16L488,400z"/>
	<path style="fill:#241C73;" d="M464,439.5c-0.801,0-1.601-0.128-2.37-0.384l-48.003-16.002c-1.323-0.44-2.496-1.242-3.389-2.313
		l-80-96.001c-0.829-0.994-1.386-2.186-1.617-3.459l-13.439-73.917l-13.878,13.879c-1.407,1.406-3.314,2.196-5.304,2.196h-80
		c-1.989,0-3.897-0.79-5.303-2.196l-13.878-13.879l-13.439,73.917c-0.231,1.273-0.789,2.465-1.617,3.459l-80,96.001
		c-0.893,1.07-2.066,1.872-3.388,2.313L50.37,439.116c-1.539,0.512-3.203,0.513-4.741-0.001l-24-8
		c-3.063-1.021-5.128-3.887-5.128-7.115v-24c0-2.841,1.605-5.438,4.146-6.708l18.293-9.146C34.95,379.932,32.5,374.246,32.5,368
		c0-4.143,3.358-7.5,7.5-7.5h44.25l44.701-59.602l18.788-100.181c3.499-18.668,19.824-32.218,38.818-32.218c0.002,0,0.002,0,0.005,0
		H224.5V120c0-4.142,3.358-7.5,7.5-7.5h48c4.143,0,7.5,3.358,7.5,7.5v48.5h37.94c0.001,0,0.004,0,0.005,0
		c18.994,0,35.317,13.549,38.816,32.219l18.787,100.18L427.75,360.5H472c4.143,0,7.5,3.357,7.5,7.5
		c0,6.246-2.45,11.932-6.439,16.146l18.294,9.146c2.54,1.271,4.146,3.867,4.146,6.708v24c0,3.229-2.065,6.095-5.128,7.115l-24,8
		C465.602,439.372,464.801,439.5,464,439.5z M31.5,418.595l16.501,5.5l43.603-14.534l77.371-92.845l15.647-86.058
		c0.499-2.745,2.48-4.985,5.143-5.817c2.662-0.832,5.567-0.117,7.54,1.855l21.803,21.803h73.787l21.803-21.803
		c1.973-1.973,4.875-2.689,7.54-1.855c2.662,0.832,4.644,3.072,5.143,5.817l15.646,86.058l77.371,92.845l43.603,14.534l16.501-5.5
		v-13.959l-27.854-13.928c-3.11-1.556-4.744-5.046-3.945-8.432c0.8-3.385,3.821-5.776,7.3-5.776c1.444,0,2.806-0.362,3.997-1H424
		c-2.36,0-4.584-1.111-6-3l-48-64c-0.69-0.92-1.159-1.987-1.371-3.117l-19.11-101.9c-2.17-11.581-12.296-19.984-24.077-19.982H280
		c-4.143,0-7.5-3.358-7.5-7.5v-48.5h-33V176c0,4.142-3.358,7.5-7.5,7.5h-45.44c0,0-0.002,0-0.003,0
		c-11.782,0-21.906,8.403-24.076,19.981l-19.11,101.901c-0.212,1.13-0.681,2.197-1.372,3.117l-48,64c-1.417,1.889-3.639,3-6,3
		H52.002c1.192,0.638,2.554,1,3.998,1c3.479,0,6.5,2.392,7.299,5.776c0.799,3.386-0.834,6.876-3.945,8.432L31.5,404.636V418.595z"/>
	<path style="fill:#F7B488;" d="M214,112h14V84.333h-14c-7.686-0.045-13.954,6.148-14,13.834l0,0
		C200.046,105.853,206.314,112.046,214,112z"/>
	<path style="fill:#241C73;" d="M213.915,119.5c-11.75,0-21.344-9.523-21.415-21.288c0.071-11.899,9.722-21.468,21.544-21.379H228
		c4.142,0,7.5,3.358,7.5,7.5V112c0,4.142-3.358,7.5-7.5,7.5h-13.979C213.985,119.5,213.95,119.5,213.915,119.5z M213.961,91.833
		c-3.565,0-6.44,2.854-6.461,6.379c0.021,3.447,2.938,6.346,6.455,6.288c0.015,0,0.03,0,0.045,0h6.5V91.833H214
		C213.987,91.833,213.974,91.833,213.961,91.833z"/>
	<path style="fill:#F7B488;" d="M299,84.333h-13V112h13c7.18,0,13-6.193,13-13.833l0,0C312,90.527,306.18,84.333,299,84.333z"/>
	<path style="fill:#241C73;" d="M299,119.5h-13c-4.143,0-7.5-3.358-7.5-7.5V84.333c0-4.142,3.357-7.5,7.5-7.5h13
		c11.304,0,20.5,9.57,20.5,21.334C319.5,109.93,310.304,119.5,299,119.5z M293.5,104.5h5.5c3.033,0,5.5-2.841,5.5-6.333
		c0-3.493-2.467-6.334-5.5-6.334h-5.5V104.5z"/>
	<path style="fill:#FEC093;" d="M256,152L256,152c-17.631,0-33-11.345-37.276-27.517l-1.194-4.516
		c-1.015-3.834-1.529-7.782-1.53-11.748v-22.4C216,64.932,233.909,48,256,48l0,0c22.091,0,40,16.932,40,37.818v22.4
		c-0.001,3.966-0.515,7.914-1.53,11.748l-1.194,4.516C289,140.655,273.631,152,256,152z"/>
	<path style="fill:#241C73;" d="M256,159.5c-21.064,0-39.374-13.611-44.527-33.1l-1.194-4.516c-1.18-4.455-1.778-9.053-1.779-13.663
		V85.819C208.5,60.83,229.809,40.5,256,40.5s47.5,20.33,47.5,45.318v22.4c-0.001,4.616-0.601,9.214-1.78,13.669l-1.192,4.511
		C295.374,145.889,277.063,159.5,256,159.5z M256,55.5c-17.92,0-32.5,13.601-32.5,30.319v22.4c0.001,3.315,0.432,6.623,1.28,9.829
		l1.194,4.518C229.39,135.48,241.736,144.5,256,144.5s26.61-9.02,30.025-21.936l1.193-4.515c0.85-3.208,1.28-6.515,1.281-9.834
		V85.818C288.5,69.101,273.921,55.5,256,55.5z"/>
	<path style="fill:#86a570;" d="M265.6,52.255c0,0,9.6,18.837,35.72,43.745c1.778-8.183,2.677-16.534,2.68-24.908l0,0
		C304,45.084,282.51,24,256,24l0,0c-26.51,0-48,21.084-48,47.092l0,0c0.003,4.845,0.305,9.686,0.905,14.494
		C223.694,80.317,244.767,78.073,265.6,52.255z"/>
	<path style="fill:#241C73;" d="M301.321,103.5c-1.9,0-3.762-0.723-5.177-2.072c-16.046-15.301-26.089-28.425-31.646-36.651
		c-16.471,16.786-32.893,21.7-45.296,25.412c-2.788,0.834-5.421,1.623-7.78,2.463c-2.141,0.765-4.514,0.514-6.451-0.68
		c-1.936-1.193-3.227-3.2-3.508-5.457c-0.636-5.096-0.96-10.284-0.962-15.419C200.5,40.99,225.397,16.5,256,16.5
		c30.603,0,55.5,24.49,55.5,54.592c-0.003,8.895-0.962,17.81-2.851,26.501c-0.576,2.65-2.537,4.783-5.13,5.578
		C302.797,103.392,302.056,103.5,301.321,103.5z M272.274,48.835c0.118,0.228,6.886,13.105,23.852,31.27
		c0.248-3,0.373-6.009,0.374-9.015c0-21.829-18.168-39.589-40.5-39.589c-22.332,0-40.5,17.761-40.5,39.592
		c0.001,1.502,0.033,3.01,0.096,4.518c13.454-4.031,28.642-8.824,44.167-28.064c1.596-1.979,4.084-3.014,6.614-2.75
		C268.899,45.058,271.118,46.578,272.274,48.835z"/>
	<path style="fill:#F26867;" d="M312,288L312,288c17.673-14.138,20.538-39.927,6.4-57.6c-1.89-2.363-4.037-4.51-6.4-6.4l0,0l-8-48
		h-16l-3.293,16.466C281.97,206.15,269.955,216,256,216l0,0c-13.955,0-25.97-9.85-28.707-23.534L224,176h-16l-8,48l0,0
		c-17.673,14.138-20.538,39.927-6.4,57.6c1.89,2.363,4.037,4.51,6.4,6.4H312z"/>
	<path style="fill:#241C73;" d="M312,295.5H200c-1.703,0-3.355-0.58-4.685-1.644c-2.792-2.233-5.339-4.781-7.572-7.572
		c-8.089-10.111-11.757-22.768-10.327-35.638c1.32-11.882,6.839-22.632,15.635-30.579l7.55-45.3
		c0.603-3.617,3.731-6.267,7.398-6.267h16c3.575,0,6.653,2.523,7.354,6.029l3.293,16.466C236.676,201.138,245.656,208.5,256,208.5
		s19.324-7.362,21.353-17.505l3.293-16.465c0.701-3.506,3.779-6.029,7.354-6.029h16c3.666,0,6.795,2.65,7.398,6.267l7.55,45.304
		c1.916,1.736,3.694,3.625,5.309,5.643c16.698,20.875,13.302,51.443-7.571,68.142C315.355,294.92,313.703,295.5,312,295.5z
		 M202.782,280.5H309.22c12.694-11.809,14.327-31.66,3.324-45.415c-1.542-1.927-3.302-3.687-5.229-5.229
		c-1.442-1.154-2.408-2.801-2.713-4.624l-6.955-41.733h-3.498l-2.087,10.437C288.635,211.067,273.469,223.5,256,223.5
		s-32.635-12.433-36.062-29.563l-2.087-10.437h-3.498l-6.956,41.733c-0.304,1.823-1.27,3.469-2.713,4.624
		c-6.983,5.587-11.373,13.558-12.36,22.446c-0.988,8.888,1.545,17.629,7.132,24.611C200.475,278.188,201.588,279.388,202.782,280.5z
		"/>
</g>
</svg>
