<?xml version="1.0" encoding="utf-8"?>
<!-- Generator: Adobe Illustrator 15.0.0, SVG Export Plug-In . SVG Version: 6.00 Build 0)  -->
<!DOCTYPE svg PUBLIC "-//W3C//DTD SVG 1.1//EN" "http://www.w3.org/Graphics/SVG/1.1/DTD/svg11.dtd">
<svg version="1.1" id="Layer_1" xmlns="http://www.w3.org/2000/svg" xmlns:xlink="http://www.w3.org/1999/xlink" x="0px" y="0px"
	 width="50px" height="50px" viewBox="0 0 50 50" enable-background="new 0 0 50 50" xml:space="preserve">
<g>
	<path fill="#424242" d="M38.151,16.758c0-6.756-5.497-12.253-12.253-12.253s-12.252,5.497-12.252,12.253
		c0,6.756,5.497,12.252,12.252,12.252S38.151,23.514,38.151,16.758z M25.898,27.531c-5.94,0-10.773-4.833-10.773-10.773
		c0-5.94,4.833-10.773,10.773-10.773c5.94,0,10.773,4.833,10.773,10.773C36.672,22.698,31.839,27.531,25.898,27.531z"/>
	<path fill="#424242" d="M47.357,38.032c-3.329-3.228-6.119-6.931-8.315-11.008c0.306-0.182,0.576-0.405,0.774-0.7
		c0.49-0.728,0.541-1.665,0.145-2.639c-0.487-1.2,0.07-2.732,1.218-3.347c0.935-0.5,1.513-1.29,1.587-2.167
		c0.074-0.875-0.363-1.749-1.199-2.398c-1.027-0.797-1.317-2.399-0.634-3.501c0.555-0.895,0.66-1.864,0.288-2.658
		c-0.374-0.798-1.193-1.34-2.246-1.487c-1.294-0.181-2.355-1.426-2.316-2.72c0.024-0.868-0.241-1.633-0.748-2.155
		c-0.719-0.739-1.877-0.922-3.029-0.46c-0.295,0.119-0.614,0.179-0.947,0.179c-1.006,0-1.984-0.558-2.437-1.388
		C28.951,0.576,28.087,0,27.128,0c-0.82,0-1.606,0.425-2.214,1.197c-0.494,0.628-1.304,1.002-2.167,1.002
		c-0.5,0-0.975-0.129-1.374-0.373c-0.539-0.33-1.111-0.504-1.653-0.504c-1.314,0-2.299,0.962-2.51,2.452
		c-0.18,1.268-1.381,2.299-2.678,2.299l-0.068-0.001c-1.084-0.034-1.986,0.381-2.484,1.121c-0.489,0.728-0.541,1.665-0.144,2.639
		c0.488,1.199-0.07,2.732-1.218,3.347c-0.934,0.5-1.513,1.29-1.586,2.166c-0.074,0.875,0.363,1.749,1.199,2.398
		c1.027,0.797,1.317,2.4,0.634,3.501c-0.556,0.895-0.661,1.864-0.289,2.658c0.374,0.798,1.192,1.34,2.245,1.487
		c0.066,0.009,0.129,0.033,0.194,0.047C10.667,31.188,7.1,36.497,2.641,40.82c-0.21,0.205-0.28,0.514-0.179,0.788
		s0.355,0.464,0.648,0.481c2.293,0.145,4.645,0.115,7-0.085c0.167,2.362,0.159,4.78-0.024,7.198
		c-0.023,0.307,0.145,0.596,0.423,0.727C10.61,49.977,10.717,50,10.824,50c0.188,0,0.374-0.072,0.515-0.209
		c4.419-4.285,8.107-9.224,10.96-14.678c0.189-0.361,0.049-0.809-0.313-0.998c-0.362-0.189-0.809-0.05-0.999,0.312
		c-2.48,4.742-5.609,9.085-9.314,12.932c0.079-2.096,0.03-4.183-0.147-6.225c-0.017-0.197-0.112-0.379-0.265-0.506
		c-0.152-0.126-0.349-0.186-0.546-0.166c-1.962,0.197-3.925,0.271-5.854,0.223c4.01-4.186,7.241-9.163,9.454-14.518
		c0.515,0.517,0.846,1.218,0.825,1.942c-0.025,0.868,0.24,1.633,0.747,2.154c0.719,0.739,1.878,0.923,3.029,0.46
		c0.295-0.117,0.615-0.178,0.948-0.178c1.005,0,1.984,0.557,2.435,1.387c0.547,1.006,1.411,1.583,2.37,1.583
		c0.82,0,1.606-0.425,2.213-1.196c0.157-0.199,0.354-0.362,0.565-0.507c2.887,5.654,6.649,10.765,11.212,15.188
		c0.141,0.137,0.326,0.209,0.516,0.209c0.105,0,0.213-0.023,0.313-0.07c0.278-0.131,0.446-0.42,0.424-0.727
		c-0.185-2.417-0.192-4.834-0.024-7.197c2.353,0.199,4.704,0.229,7,0.086c0.292-0.02,0.547-0.208,0.647-0.482
		C47.639,38.545,47.568,38.236,47.357,38.032z M27.434,30.15c-0.016,0.008-0.025,0.022-0.04,0.031
		c-0.655,0.268-1.242,0.675-1.673,1.223c-0.321,0.408-0.695,0.633-1.051,0.633c-0.406,0-0.786-0.288-1.07-0.811
		c-0.713-1.312-2.18-2.16-3.735-2.16c-0.523,0-1.027,0.097-1.499,0.285c-0.591,0.238-1.112,0.197-1.417-0.118
		c-0.226-0.231-0.343-0.616-0.33-1.08c0.046-1.584-0.914-3.07-2.294-3.797c-0.021-0.011-0.036-0.029-0.059-0.038
		c-0.013-0.005-0.026-0.002-0.039-0.007c-0.376-0.186-0.776-0.329-1.201-0.389c-0.556-0.078-0.95-0.308-1.11-0.649
		c-0.158-0.337-0.085-0.781,0.206-1.25c1.083-1.744,0.641-4.189-0.984-5.451c-0.439-0.341-0.663-0.733-0.632-1.104
		c0.031-0.373,0.319-0.723,0.811-0.987c1.814-0.972,2.662-3.309,1.889-5.208c-0.205-0.504-0.205-0.95,0.001-1.255
		c0.204-0.302,0.608-0.469,1.141-0.469l0.074,0.001c0.037,0.001,0.074,0.001,0.11,0.001c2.039,0,3.858-1.568,4.143-3.571
		c0.05-0.354,0.252-1.18,1.045-1.18c0.27,0,0.574,0.1,0.881,0.287c0.631,0.386,1.373,0.59,2.146,0.59
		c1.313,0,2.558-0.586,3.331-1.567c0.321-0.408,0.694-0.632,1.051-0.632c0.405,0,0.786,0.288,1.069,0.809
		c0.714,1.312,2.18,2.161,3.736,2.161c0.522,0,1.027-0.096,1.498-0.285c0.592-0.237,1.112-0.196,1.418,0.118
		c0.226,0.233,0.342,0.617,0.329,1.081c-0.06,2.047,1.552,3.944,3.592,4.229c0.556,0.078,0.95,0.309,1.11,0.65
		c0.158,0.337,0.085,0.781-0.205,1.25c-1.084,1.745-0.643,4.19,0.982,5.45c0.439,0.341,0.664,0.733,0.633,1.105
		c-0.031,0.373-0.32,0.723-0.811,0.986c-1.814,0.972-2.662,3.308-1.891,5.209c0.205,0.504,0.205,0.949-0.001,1.255
		c-0.203,0.302-0.607,0.469-1.139,0.469l-0.075-0.002c-2.076-0.062-3.964,1.531-4.253,3.57c-0.05,0.354-0.253,1.18-1.045,1.18
		c-0.269,0-0.573-0.1-0.88-0.287c-0.632-0.386-1.373-0.59-2.146-0.59c-0.482,0-0.944,0.104-1.389,0.252
		C27.585,30.1,27.508,30.114,27.434,30.15z M39.283,37.674c-0.197-0.021-0.394,0.041-0.546,0.167s-0.248,0.309-0.265,0.506
		c-0.178,2.042-0.227,4.128-0.146,6.225c-3.786-3.931-6.956-8.375-9.46-13.234c0.062-0.004,0.122-0.02,0.185-0.02
		c0.5,0,0.976,0.128,1.373,0.372c0.54,0.33,1.111,0.505,1.654,0.505c1.312,0,2.298-0.962,2.51-2.452
		c0.18-1.268,1.381-2.299,2.678-2.299l0.068,0.001c0.089,0.003,0.167-0.015,0.252-0.019c2.028,3.831,4.554,7.35,7.551,10.472
		C43.205,37.945,41.243,37.871,39.283,37.674z"/>
</g>
</svg>
