<?xml version="1.0" encoding="utf-8"?>
<!-- Generator: Adobe Illustrator 15.0.0, SVG Export Plug-In . SVG Version: 6.00 Build 0)  -->
<!DOCTYPE svg PUBLIC "-//W3C//DTD SVG 1.1//EN" "http://www.w3.org/Graphics/SVG/1.1/DTD/svg11.dtd">
<svg version="1.1" id="Layer_1" xmlns="http://www.w3.org/2000/svg" xmlns:xlink="http://www.w3.org/1999/xlink" x="0px" y="0px"
	 width="50px" height="50px" viewBox="0 0 50 50" enable-background="new 0 0 50 50" xml:space="preserve">
<g>
	<path fill="#424242" d="M49.05,26.772l-0.609-3.656c-0.05-0.3-0.157-0.582-0.292-0.849V12.99c-0.002-0.857-0.586-1.813-1.365-2.226
		C41.26,7.89,34.665,7.891,29.137,10.768c-0.773,0.409-1.357,1.365-1.359,2.225v9.275c-0.135,0.268-0.241,0.549-0.291,0.849
		l-0.609,3.656c-0.578,0.511-0.951,1.247-0.951,2.076v12.5c0,1.277,1.246,2.315,2.777,2.315c1.445,0,2.85-1.098,3.199-2.495
		l0.028-0.114c0.144-0.573,0.812-1.095,1.403-1.095h9.259c0.591,0,1.259,0.521,1.403,1.099l0.027,0.106
		c0.35,1.401,1.755,2.499,3.199,2.499c1.531,0,2.777-1.038,2.777-2.315v-12.5C50,28.02,49.627,27.283,49.05,26.772z M29.312,23.42
		c0.094-0.561,0.674-1.053,1.243-1.053h14.815c0.568,0,1.148,0.492,1.242,1.053l0.441,2.651H28.871L29.312,23.42z M42.593,20.516
		h-9.259v-2.777c0-0.512,0.415-0.927,0.926-0.927h7.406c0.512,0,0.927,0.415,0.927,0.927V20.516z M29.998,12.406
		c4.986-2.594,10.942-2.595,15.924-0.002c0.182,0.096,0.374,0.428,0.375,0.588v7.684c-0.298-0.098-0.607-0.16-0.926-0.16h-0.927
		v-2.777c0-1.532-1.246-2.778-2.778-2.778H34.26c-1.532,0-2.778,1.246-2.778,2.778v2.777h-0.926c-0.319,0-0.629,0.062-0.927,0.16
		v-7.682C29.63,12.832,29.824,12.5,29.998,12.406z M48.148,41.349c0,0.159-0.361,0.463-0.926,0.463c-0.592,0-1.26-0.521-1.404-1.099
		l-0.027-0.106c-0.35-1.4-1.754-2.498-3.198-2.498h-9.259c-1.445,0-2.85,1.098-3.199,2.495l-0.029,0.113
		c-0.143,0.573-0.811,1.095-1.402,1.095c-0.564,0-0.926-0.304-0.926-0.463v-12.5c0-0.511,0.416-0.926,0.926-0.926h18.52
		c0.51,0,0.926,0.415,0.926,0.926V41.349z"/>
	<path fill="#424242" d="M12.037,7.553C5.399,7.553,0,12.953,0,19.59s5.399,12.037,12.037,12.037c6.637,0,12.037-5.4,12.037-12.037
		S18.674,7.553,12.037,7.553z M12.037,29.775c-5.616,0-10.185-4.569-10.185-10.186S6.421,9.404,12.037,9.404
		s10.185,4.569,10.185,10.186S17.653,29.775,12.037,29.775z"/>
	<path fill="#424242" d="M17.593,18.664h-4.63v-4.63c0-0.512-0.415-0.926-0.926-0.926s-0.926,0.414-0.926,0.926v4.63h-4.63
		c-0.511,0-0.926,0.414-0.926,0.926s0.415,0.926,0.926,0.926h4.63v4.63c0,0.512,0.415,0.926,0.926,0.926s0.926-0.414,0.926-0.926
		v-4.63h4.63c0.511,0,0.926-0.414,0.926-0.926S18.104,18.664,17.593,18.664z"/>
</g>
</svg>
