<?xml version="1.0" encoding="utf-8"?>
<!-- Generator: Adobe Illustrator 15.0.0, SVG Export Plug-In . SVG Version: 6.00 Build 0)  -->
<!DOCTYPE svg PUBLIC "-//W3C//DTD SVG 1.1//EN" "http://www.w3.org/Graphics/SVG/1.1/DTD/svg11.dtd">
<svg version="1.1" id="Layer_1" xmlns="http://www.w3.org/2000/svg" xmlns:xlink="http://www.w3.org/1999/xlink" x="0px" y="0px"
	 width="50px" height="50px" viewBox="0 0 50 50" enable-background="new 0 0 50 50" xml:space="preserve">
<g>
	<path fill="#424242" d="M37.556,11.111h-7.407V2.778c0-0.327-0.067-0.635-0.171-0.926h0.171c0.512,0,0.926-0.415,0.926-0.926
		C31.074,0.415,30.66,0,30.148,0H27.37h-5.556h-2.777c-0.512,0-0.926,0.415-0.926,0.926c0,0.512,0.414,0.926,0.926,0.926h0.171
		c-0.104,0.291-0.171,0.599-0.171,0.926v8.333H11.63c-2.553,0-4.63,2.077-4.63,4.629v26.852c0,2.552,2.077,4.63,4.63,4.63h0.926
		v1.852c0,0.512,0.414,0.926,0.926,0.926s0.926-0.414,0.926-0.926v-1.852h20.37v1.852c0,0.512,0.414,0.926,0.927,0.926
		c0.512,0,0.926-0.414,0.926-0.926v-1.852h0.926c2.553,0,4.63-2.078,4.63-4.63V15.741C42.186,13.188,40.108,11.111,37.556,11.111z
		 M20.889,2.778c0-0.51,0.415-0.926,0.926-0.926h5.556c0.511,0,0.926,0.416,0.926,0.926v8.333h-7.407V2.778z M30.148,45.37H19.037
		V30.556c0-1.532,1.246-2.778,2.777-2.778h5.556c1.532,0,2.778,1.246,2.778,2.778V45.37z M40.333,42.593
		c0,1.532-1.246,2.777-2.777,2.777H32V30.556c0-2.553-2.077-4.63-4.63-4.63h-5.556c-2.553,0-4.629,2.077-4.629,4.63V45.37H11.63
		c-1.532,0-2.778-1.245-2.778-2.777V15.741c0-1.532,1.246-2.778,2.778-2.778h25.926c1.531,0,2.777,1.246,2.777,2.778V42.593z"/>
	<path fill="#424242" d="M26.444,31.481H22.74c-0.512,0-0.926,0.415-0.926,0.926c0,0.512,0.414,0.927,0.926,0.927h3.704
		c0.512,0,0.926-0.415,0.926-0.927C27.37,31.896,26.956,31.481,26.444,31.481z"/>
	<path fill="#424242" d="M37.556,15.741H11.63c-0.512,0-0.926,0.415-0.926,0.926c0,0.512,0.414,0.926,0.926,0.926h0.926v1.852
		c0,0.511,0.414,0.926,0.926,0.926s0.926-0.415,0.926-0.926v-1.852h23.148c0.512,0,0.926-0.415,0.926-0.926
		C38.481,16.155,38.067,15.741,37.556,15.741z"/>
</g>
</svg>
