<?xml version="1.0" encoding="utf-8"?>
<!-- Generator: Adobe Illustrator 15.0.0, SVG Export Plug-In . SVG Version: 6.00 Build 0)  -->
<!DOCTYPE svg PUBLIC "-//W3C//DTD SVG 1.1//EN" "http://www.w3.org/Graphics/SVG/1.1/DTD/svg11.dtd">
<svg version="1.1" id="Layer_1" xmlns="http://www.w3.org/2000/svg" xmlns:xlink="http://www.w3.org/1999/xlink" x="0px" y="0px"
	 width="50px" height="50px" viewBox="0 0 50 50" enable-background="new 0 0 50 50" xml:space="preserve">
<path fill="#424242" d="M48.582,6.945c-0.544-0.571-1.269-0.885-2.04-0.885h-5.481V4.853c0-0.986-0.872-1.789-1.943-1.789
	c-1.06,0-1.922,0.803-1.922,1.789V6.06h-3.197V4.853c0-0.986-0.873-1.789-1.945-1.789c-1.061,0-1.923,0.803-1.923,1.789V6.06h-3.196
	V4.853c0-0.986-0.871-1.789-1.942-1.789c-1.061,0-1.923,0.803-1.923,1.789V6.06H19.87V4.853c0-0.986-0.872-1.789-1.944-1.789
	c-1.06,0-1.923,0.803-1.923,1.789V6.06h-3.195V4.853c0-0.986-0.873-1.789-1.945-1.789c-1.06,0-1.923,0.803-1.923,1.789V6.06H3.458
	c-1.585,0-2.875,1.342-2.875,2.992v33.892c0,1.649,1.29,2.992,2.875,2.992h43.083c1.585,0,2.875-1.343,2.875-2.992V9.052
	C49.417,8.258,49.12,7.51,48.582,6.945z M46.542,44.152H3.458c-0.623,0-1.13-0.542-1.13-1.209V14.062h45.343v28.881
	C47.671,43.61,47.164,44.152,46.542,44.152z M10.884,10.453c1.061,0,1.924-0.803,1.924-1.79V7.842h3.195v0.822
	c0,0.987,0.863,1.79,1.944,1.79c1.061,0,1.923-0.803,1.923-1.79V7.842h3.196v0.822c0,0.987,0.863,1.79,1.944,1.79
	c1.06,0,1.922-0.803,1.922-1.79V7.842h3.196v0.822c0,0.987,0.862,1.79,1.945,1.79c1.061,0,1.923-0.803,1.923-1.79V7.842h3.197v0.822
	c0,0.987,0.862,1.79,1.943,1.79c1.061,0,1.924-0.803,1.924-1.79V7.842h5.48c0.622,0,1.129,0.543,1.129,1.21v3.229H2.329V9.052
	c0-0.667,0.507-1.21,1.13-1.21H8.94v0.822C8.94,9.65,9.803,10.453,10.884,10.453z M11.062,4.855l0.014,3.752
	c-0.013,0.017-0.082,0.064-0.212,0.064c-0.077,0-0.134-0.023-0.161-0.023c-0.011,0-0.017,0.004-0.017,0.014l-0.016-3.75
	c0.017-0.021,0.094-0.065,0.215-0.065C10.993,4.847,11.061,4.892,11.062,4.855z M18.125,4.855l0.014,3.751
	c-0.013,0.017-0.083,0.065-0.214,0.065c-0.078,0-0.135-0.023-0.162-0.023c-0.011,0-0.017,0.003-0.017,0.014l-0.016-3.75
	c0.017-0.021,0.094-0.066,0.215-0.066C18.055,4.848,18.124,4.893,18.125,4.855z M25.188,4.855l0.014,3.752
	c-0.013,0.018-0.083,0.064-0.212,0.064c-0.078,0-0.135-0.023-0.162-0.023c-0.011,0-0.017,0.003-0.017,0.014l-0.016-3.75
	c0.017-0.021,0.094-0.065,0.215-0.065C25.118,4.847,25.186,4.892,25.188,4.855z M32.252,4.855l0.014,3.752
	c-0.013,0.017-0.082,0.064-0.214,0.064c-0.077,0-0.134-0.023-0.16-0.023c-0.011,0-0.017,0.003-0.017,0.014l-0.016-3.75
	c0.017-0.021,0.093-0.065,0.215-0.065C32.18,4.847,32.251,4.893,32.252,4.855z M39.316,4.855l0.015,3.751
	c-0.014,0.018-0.084,0.065-0.216,0.065c-0.078,0-0.136-0.024-0.163-0.024c-0.011,0-0.017,0.004-0.017,0.015l-0.016-3.75
	c0.017-0.021,0.094-0.066,0.215-0.066C39.242,4.847,39.314,4.894,39.316,4.855z"/>
</svg>
