<?xml version="1.0" encoding="utf-8"?>
<!-- Generator: Adobe Illustrator 15.0.0, SVG Export Plug-In . SVG Version: 6.00 Build 0)  -->
<!DOCTYPE svg PUBLIC "-//W3C//DTD SVG 1.1//EN" "http://www.w3.org/Graphics/SVG/1.1/DTD/svg11.dtd">
<svg version="1.1" id="Layer_1" xmlns="http://www.w3.org/2000/svg" xmlns:xlink="http://www.w3.org/1999/xlink" x="0px" y="0px"
	 width="50px" height="50px" viewBox="0 0 50 50" enable-background="new 0 0 50 50" xml:space="preserve">
<g>
	<path fill="#424242" d="M38.13,48.359H1.86c-0.514,0-0.93,0.416-0.93,0.931c0,0.514,0.416,0.93,0.93,0.93h36.27
		c0.514,0,0.93-0.416,0.93-0.93C39.06,48.775,38.644,48.359,38.13,48.359z"/>
	<path fill="#424242" d="M48.648,20.967c-2.545-3.015-7.734-2.497-8.659-2.376v-3.712c0-0.514-0.416-0.93-0.93-0.93H0.93
		c-0.514,0-0.93,0.416-0.93,0.93v6.51c0,10.783,0,16.195,2.132,18.328c1.75,1.749,1.591,4.835,1.589,4.864
		c-0.016,0.256,0.075,0.507,0.251,0.694c0.175,0.188,0.421,0.293,0.677,0.293h30.69c0.256,0,0.501-0.105,0.677-0.292
		c0.176-0.188,0.266-0.438,0.252-0.694c-0.002-0.03-0.16-3.116,1.589-4.865c0.407-0.407,0.735-0.936,1.001-1.596
		c0.314,0.12,0.949,0.315,1.795,0.315c0.631,0,1.377-0.109,2.183-0.444c2.655-1.1,4.812-4.084,6.407-8.869
		C50.423,25.579,50.224,22.834,48.648,20.967z M38.13,21.39c0,9.619,0,15.425-1.588,17.013c-1.644,1.644-2.035,3.99-2.119,5.308
		H5.566c-0.083-1.317-0.475-3.664-2.119-5.308C1.86,36.814,1.86,31.009,1.86,21.39v-5.58h36.27V21.39z M47.478,28.536
		c-1.75,5.251-3.851,7.096-5.305,7.719c-1.518,0.652-2.659,0.13-2.697,0.113c-0.034-0.018-0.072-0.017-0.109-0.029
		c0.62-3.038,0.623-7.811,0.623-14.949v-0.948c0.048,0,0.094,0.014,0.143,0.007c1.391-0.213,5.375-0.322,7.096,1.718
		C48.356,23.504,48.439,25.647,47.478,28.536z"/>
	<path fill="#424242" d="M11.16,38.13h21.39c0.514,0,0.93-0.416,0.93-0.93c0-0.515-0.416-0.931-0.93-0.931H11.16
		c-0.514,0-0.93,0.416-0.93,0.931C10.23,37.714,10.646,38.13,11.16,38.13z"/>
	<path fill="#424242" d="M16.083,11.817c0.182,0.182,0.419,0.272,0.657,0.272c0.238,0,0.476-0.091,0.658-0.272
		c0.363-0.363,0.363-0.952,0-1.315c-0.005-0.005-0.55-0.565-0.821-1.38c-0.347-1.041-0.079-1.984,0.821-2.885
		c1.108-1.108,1.611-2.258,1.497-3.419c-0.162-1.633-1.487-2.562-1.638-2.662c-0.425-0.283-0.995-0.169-1.282,0.253
		c-0.287,0.422-0.176,0.999,0.244,1.29c0.007,0.005,0.756,0.532,0.827,1.314c0.051,0.576-0.272,1.219-0.962,1.909
		C13.355,7.649,14.89,10.625,16.083,11.817z"/>
	<path fill="#424242" d="M22.194,10.255c0.3,0.902,0.879,1.498,0.943,1.562c0.182,0.181,0.418,0.271,0.654,0.271
		c0.236,0,0.473-0.089,0.654-0.268c0.363-0.359,0.368-0.946,0.013-1.313c-0.292-0.301-1.155-1.375-0.006-2.525
		c0.827-0.827,1.201-1.696,1.114-2.585c-0.125-1.256-1.139-1.966-1.255-2.043c-0.429-0.285-1.004-0.17-1.29,0.258
		c-0.284,0.428-0.169,1.005,0.258,1.29c0.005,0.002,0.398,0.293,0.436,0.679c0.038,0.382-0.292,0.802-0.578,1.086
		C22.102,7.701,21.767,8.975,22.194,10.255z"/>
</g>
</svg>
