<?xml version="1.0" encoding="utf-8"?>
<!-- Generator: Adobe Illustrator 15.0.0, SVG Export Plug-In . SVG Version: 6.00 Build 0)  -->
<!DOCTYPE svg PUBLIC "-//W3C//DTD SVG 1.1//EN" "http://www.w3.org/Graphics/SVG/1.1/DTD/svg11.dtd">
<svg version="1.1" id="Layer_1" xmlns="http://www.w3.org/2000/svg" xmlns:xlink="http://www.w3.org/1999/xlink" x="0px" y="0px"
	 width="50px" height="50px" viewBox="0 0 50 50" enable-background="new 0 0 50 50" xml:space="preserve">
<g>
	<path fill="#424242" d="M36.414,33.893C44.286,32.235,50,25.187,50,17.13C50,7.684,42.315,0,32.87,0
		c-7.912,0-14.753,5.359-16.636,13.034c-0.222,0.904-0.359,1.837-0.431,2.774C6.977,16.489,0,23.873,0,32.87
		C0,42.316,7.684,50,17.129,50c8.997,0,16.381-6.977,17.063-15.803C34.938,34.141,35.685,34.046,36.414,33.893z M32.87,1.852
		c8.424,0,15.277,6.854,15.277,15.278c0,7.186-5.095,13.473-12.115,14.95c-0.592,0.125-1.195,0.203-1.801,0.257
		c-0.061-1.941-0.443-3.798-1.1-5.526c0.066,0.016,0.13,0.041,0.201,0.041c0.512,0,0.926-0.414,0.926-0.926v-0.334
		c1.957-0.284,3.771-1.326,4.434-3.283c0.447-1.316,0.4-2.497-0.137-3.505c-0.664-1.246-1.996-2.165-4.297-2.958V9.943
		c1.31,0.238,2.453,0.832,2.971,1.621c0.279,0.428,0.855,0.548,1.282,0.267c0.428-0.28,0.546-0.854,0.267-1.281
		c-0.853-1.299-2.572-2.205-4.52-2.479V7.407c0-0.512-0.414-0.926-0.926-0.926s-0.926,0.414-0.926,0.926v0.599
		c-2.117,0.157-3.792,1.092-4.617,2.608c-0.606,1.118-0.69,2.262-0.241,3.312c0.432,1.01,1.575,2.385,4.573,3.197
		c0.102,0.027,0.188,0.056,0.285,0.083v6.566c-0.164-0.021-0.33-0.036-0.49-0.07c-0.118-0.025-0.234-0.023-0.346-0.005
		c-2.953-4.632-8.061-7.746-13.905-7.928c0.069-0.774,0.182-1.545,0.366-2.293C19.712,6.632,25.813,1.852,32.87,1.852z
		 M32.407,15.275c-1.666-0.484-2.789-1.216-3.156-2.077c-0.221-0.518-0.164-1.09,0.167-1.7c0.499-0.919,1.581-1.503,2.989-1.638
		V15.275z M34.259,17.817c1.42,0.555,2.291,1.161,2.662,1.857c0.291,0.548,0.298,1.215,0.018,2.042
		c-0.375,1.105-1.447,1.763-2.68,2.006V17.817z M17.129,48.148c-8.423,0-15.277-6.854-15.277-15.278
		c0-8.423,6.854-15.277,15.277-15.277c8.424,0,15.278,6.854,15.278,15.277C32.407,41.294,25.554,48.148,17.129,48.148z"/>
	<path fill="#424242" d="M4.131,17.026c0.06,0.011,0.119,0.017,0.177,0.017c0.435,0,0.822-0.307,0.908-0.749
		c0.916-4.718,4.267-8.657,8.703-10.382l-1.636,2.445c-0.285,0.425-0.17,1,0.255,1.284c0.158,0.107,0.336,0.158,0.513,0.158
		c0.299,0,0.592-0.145,0.771-0.412l3.19-4.77c0.17-0.255,0.203-0.577,0.089-0.86c-0.114-0.284-0.361-0.493-0.659-0.56l-5.702-1.259
		c-0.506-0.11-0.993,0.207-1.104,0.705c-0.11,0.5,0.205,0.994,0.705,1.104l2.578,0.57c-4.856,2.018-8.507,6.4-9.521,11.625
		C3.301,16.442,3.629,16.929,4.131,17.026z"/>
	<path fill="#424242" d="M46.063,32.512c-0.502-0.103-0.988,0.227-1.088,0.729c-0.931,4.714-4.295,8.643-8.735,10.354l1.644-2.44
		c0.285-0.424,0.174-1-0.251-1.285c-0.423-0.284-1-0.174-1.284,0.252l-3.206,4.76c-0.171,0.252-0.206,0.574-0.093,0.858
		s0.359,0.493,0.658,0.561l5.697,1.278c0.068,0.015,0.137,0.021,0.203,0.021c0.424,0,0.807-0.291,0.902-0.723
		c0.112-0.499-0.201-0.994-0.701-1.105l-2.575-0.578c4.864-2.002,8.527-6.373,9.558-11.594
		C46.892,33.098,46.565,32.611,46.063,32.512z"/>
	<path fill="#424242" d="M18.056,25.926c1.294,0,2.527,0.469,3.567,1.354c0.39,0.33,0.973,0.285,1.306-0.104
		c0.331-0.39,0.284-0.974-0.104-1.306c-1.38-1.175-3.028-1.795-4.768-1.795c-3.622,0-6.672,2.752-7.585,6.481H8.333
		c-0.512,0-0.926,0.414-0.926,0.926s0.414,0.926,0.926,0.926h1.873c-0.007,0.153-0.021,0.307-0.021,0.463
		c0,0.474,0.043,0.935,0.108,1.39H8.333c-0.512,0-0.926,0.414-0.926,0.926s0.414,0.926,0.926,0.926h2.412
		c1.158,3.25,3.995,5.555,7.31,5.555c1.741,0,3.389-0.619,4.767-1.795c0.39-0.331,0.436-0.915,0.104-1.305
		c-0.331-0.391-0.916-0.436-1.305-0.104c-1.039,0.885-2.272,1.353-3.566,1.353c-2.304,0-4.308-1.504-5.319-3.703h5.782
		c0.512,0,0.926-0.414,0.926-0.926s-0.414-0.926-0.926-0.926h-6.36c-0.08-0.449-0.121-0.914-0.121-1.39
		c0-0.156,0.012-0.31,0.021-0.463h6.461c0.512,0,0.926-0.414,0.926-0.926s-0.414-0.926-0.926-0.926h-6.131
		C13.217,27.863,15.441,25.926,18.056,25.926z"/>
</g>
</svg>
