<?xml version="1.0" encoding="utf-8"?>
<!-- Generator: Adobe Illustrator 15.0.0, SVG Export Plug-In . SVG Version: 6.00 Build 0)  -->
<!DOCTYPE svg PUBLIC "-//W3C//DTD SVG 1.1//EN" "http://www.w3.org/Graphics/SVG/1.1/DTD/svg11.dtd">
<svg version="1.1" id="Layer_1" xmlns="http://www.w3.org/2000/svg" xmlns:xlink="http://www.w3.org/1999/xlink" x="0px" y="0px"
	 width="50px" height="50px" viewBox="0 0 50 50" enable-background="new 0 0 50 50" xml:space="preserve">
<g>
	<path fill="#424242" d="M22.146,10.671c1.136,0,2.217-0.357,3.125-1.036c2.333-1.741,2.79-5.087,1.021-7.458
		C25.272,0.813,23.659,0,21.973,0c-1.136,0-2.217,0.357-3.125,1.036c-2.332,1.74-2.789,5.086-1.02,7.458
		C18.847,9.857,20.46,10.671,22.146,10.671z M19.966,2.532c0.582-0.435,1.277-0.665,2.007-0.665c1.099,0,2.154,0.534,2.821,1.428
		c1.154,1.545,0.867,3.719-0.641,4.844c-0.582,0.435-1.277,0.664-2.007,0.664c-1.099,0-2.154-0.533-2.82-1.426
		C18.172,5.83,18.459,3.657,19.966,2.532z"/>
	<path fill="#424242" d="M41.983,39.981l-3.724-10.06c-0.02-0.055-0.044-0.105-0.073-0.153l-0.104-0.189
		c-0.35-0.646-1.078-1.989-2.695-1.989h-8.697l-0.213-1.868l5.592-0.002c0.18,0.013,1.789,0.118,2.807-0.782
		c0.49-0.434,0.764-1.025,0.791-1.713c0.033-0.811-0.218-1.523-0.725-2.062c-0.619-0.657-1.578-1.018-2.796-1.043h-6.31l-0.348-3.06
		c-0.268-1.86-0.954-3.203-2.037-3.989c-1.505-1.095-3.34-0.777-3.942-0.675c-1.038,0.176-1.938,0.736-2.536,1.58
		c-0.589,0.831-0.816,1.849-0.646,2.838l1.915,13.519c0.253,1.467,1.507,3.794,3.793,3.794h9.895l4.383,9.295
		c0.069,0.167,0.72,1.646,2.17,2.199c0.346,0.132,0.709,0.198,1.081,0.198c0.525,0,1.069-0.132,1.611-0.393
		c1.021-0.491,1.427-1.227,1.587-1.756C43.071,42.648,42.81,41.407,41.983,39.981z M40.975,43.127
		c-0.049,0.162-0.166,0.402-0.609,0.615c-0.461,0.224-0.856,0.268-1.211,0.136c-0.598-0.224-1.011-0.927-1.135-1.214l-4.654-9.87
		c-0.154-0.326-0.482-0.535-0.844-0.535H22.035c-1.287,0-1.876-1.8-1.948-2.217l-1.915-13.519c-0.09-0.523,0.025-1.045,0.325-1.47
		c0.308-0.435,0.778-0.725,1.326-0.817c0.361-0.062,0.688-0.094,0.985-0.094c0.638,0,1.141,0.145,1.544,0.438
		c0.66,0.479,1.093,1.402,1.283,2.717l0.439,3.855c0.053,0.469,0.448,0.824,0.919,0.828l7.132,0.006
		c0.666,0.014,1.196,0.18,1.456,0.455c0.159,0.169,0.23,0.401,0.219,0.707c-0.01,0.223-0.087,0.321-0.161,0.388
		c-0.331,0.297-1.097,0.344-1.494,0.317h-9.338c-0.516,0-0.934,0.418-0.934,0.934c0,0.517,0.417,0.935,0.934,0.935h1.789
		l0.332,2.906c0.054,0.473,0.452,0.828,0.927,0.828h9.531c0.428,0,0.689,0.341,1.054,1.013c0.034,0.062,0.065,0.12,0.096,0.173
		l3.726,10.062c0.019,0.053,0.042,0.104,0.07,0.15C40.891,41.803,41.125,42.631,40.975,43.127z"/>
	<path fill="#424242" d="M32.944,42.708c-2.677,3.447-6.711,5.425-11.07,5.425c-7.724,0-14.006-6.283-14.006-14.007
		c0-4.944,2.528-9.427,6.763-11.991c0.441-0.268,0.583-0.842,0.315-1.282c-0.268-0.441-0.842-0.58-1.282-0.315
		C8.865,23.442,6,28.522,6,34.126C6,42.879,13.121,50,21.874,50c4.94,0,9.514-2.24,12.546-6.146
		c0.316-0.408,0.242-0.994-0.166-1.311S33.261,42.302,32.944,42.708z"/>
	<path fill="#424242" d="M11.603,34.126c0-0.571,0.047-1.146,0.142-1.707c0.084-0.509-0.258-0.99-0.767-1.075
		c-0.509-0.092-0.989,0.259-1.075,0.767c-0.11,0.663-0.167,1.341-0.167,2.016c0,3.562,1.557,6.932,4.271,9.244
		c0.176,0.15,0.391,0.223,0.605,0.223c0.264,0,0.526-0.111,0.71-0.328c0.334-0.392,0.288-0.981-0.105-1.315
		C12.92,39.991,11.603,37.14,11.603,34.126z"/>
</g>
</svg>
