<?xml version="1.0" encoding="utf-8"?>
<!-- Generator: Adobe Illustrator 15.0.0, SVG Export Plug-In . SVG Version: 6.00 Build 0)  -->
<!DOCTYPE svg PUBLIC "-//W3C//DTD SVG 1.1//EN" "http://www.w3.org/Graphics/SVG/1.1/DTD/svg11.dtd">
<svg version="1.1" id="Layer_1" xmlns="http://www.w3.org/2000/svg" xmlns:xlink="http://www.w3.org/1999/xlink" x="0px" y="0px"
	 width="50px" height="50px" viewBox="0 0 50 50" enable-background="new 0 0 50 50" xml:space="preserve">
<g>
	<path fill="#424242" d="M23.124,25.857l-0.609-3.656c-0.05-0.301-0.157-0.583-0.292-0.85v-9.276
		c-0.001-0.858-0.586-1.813-1.365-2.227C15.334,6.975,8.74,6.976,3.211,9.852c-0.773,0.41-1.358,1.365-1.359,2.226v9.275
		C1.717,21.619,1.61,21.9,1.56,22.201l-0.61,3.656C0.373,26.367,0,27.104,0,27.934v12.5c0,1.276,1.246,2.314,2.778,2.314
		c1.444,0,2.849-1.098,3.198-2.494l0.029-0.114c0.144-0.573,0.812-1.095,1.402-1.095h9.259c0.591,0,1.259,0.521,1.403,1.099
		l0.027,0.106c0.35,1.4,1.755,2.498,3.199,2.498c1.532,0,2.778-1.038,2.778-2.314v-12.5C24.074,27.104,23.702,26.367,23.124,25.857z
		 M3.387,22.505c0.094-0.561,0.674-1.053,1.243-1.053h14.815c0.569,0,1.149,0.492,1.243,1.053l0.442,2.651H2.945L3.387,22.505z
		 M16.667,19.601H7.407v-2.778c0-0.511,0.416-0.926,0.926-0.926h7.407c0.51,0,0.926,0.415,0.926,0.926V19.601z M4.072,11.491
		c4.987-2.595,10.942-2.595,15.925-0.003c0.18,0.096,0.374,0.428,0.374,0.589v7.683c-0.297-0.098-0.606-0.159-0.925-0.159h-0.926
		v-2.778c0-1.531-1.246-2.777-2.778-2.777H8.333c-1.532,0-2.778,1.246-2.778,2.777v2.778H4.63c-0.319,0-0.629,0.062-0.926,0.159
		v-7.681C3.704,11.916,3.897,11.584,4.072,11.491z M22.222,40.434c0,0.159-0.361,0.463-0.926,0.463
		c-0.591,0-1.259-0.521-1.403-1.099l-0.027-0.106c-0.35-1.4-1.755-2.499-3.199-2.499H7.407c-1.444,0-2.849,1.099-3.198,2.495
		L4.18,39.802c-0.143,0.573-0.812,1.095-1.402,1.095c-0.565,0-0.926-0.304-0.926-0.463v-12.5c0-0.511,0.416-0.926,0.926-0.926
		h18.519c0.51,0,0.926,0.415,0.926,0.926V40.434z"/>
	<path fill="#424242" d="M49.05,25.857l-0.61-3.656c-0.049-0.301-0.156-0.582-0.291-0.849v-9.277
		c-0.002-0.858-0.586-1.813-1.365-2.227C41.26,6.975,34.665,6.976,29.137,9.852c-0.773,0.41-1.357,1.365-1.359,2.226v9.276
		c-0.135,0.266-0.241,0.547-0.291,0.848l-0.609,3.656c-0.578,0.51-0.951,1.247-0.951,2.076v12.5c0,1.276,1.246,2.314,2.777,2.314
		c1.445,0,2.85-1.098,3.199-2.494l0.028-0.114c0.144-0.573,0.812-1.095,1.403-1.095h9.259c0.591,0,1.259,0.521,1.403,1.099
		l0.027,0.106c0.35,1.4,1.755,2.498,3.199,2.498c1.531,0,2.777-1.038,2.777-2.314v-12.5C50,27.104,49.627,26.367,49.05,25.857z
		 M29.312,22.506c0.094-0.562,0.675-1.054,1.244-1.054h14.814c0.568,0,1.148,0.492,1.242,1.053l0.441,2.651H28.871L29.312,22.506z
		 M42.593,19.601h-9.259v-2.778c0-0.511,0.415-0.926,0.926-0.926h7.406c0.512,0,0.927,0.415,0.927,0.926V19.601z M29.998,11.491
		c4.987-2.595,10.941-2.595,15.924-0.003c0.181,0.096,0.374,0.428,0.375,0.589v7.683c-0.298-0.098-0.607-0.159-0.926-0.159h-0.927
		v-2.778c0-1.531-1.246-2.777-2.778-2.777H34.26c-1.532,0-2.778,1.246-2.778,2.777v2.778h-0.925c-0.32,0-0.63,0.062-0.927,0.159
		v-7.681C29.63,11.916,29.824,11.584,29.998,11.491z M48.148,40.434c0,0.159-0.361,0.463-0.926,0.463
		c-0.592,0-1.26-0.521-1.404-1.099l-0.026-0.106c-0.351-1.4-1.755-2.499-3.199-2.499h-9.259c-1.445,0-2.85,1.099-3.199,2.495
		l-0.029,0.114c-0.143,0.573-0.811,1.095-1.402,1.095c-0.564,0-0.926-0.304-0.926-0.463v-12.5c0-0.511,0.416-0.926,0.926-0.926
		h18.52c0.51,0,0.926,0.415,0.926,0.926V40.434z"/>
</g>
</svg>
