<?xml version="1.0" encoding="utf-8"?>
<!-- Generator: Adobe Illustrator 15.0.0, SVG Export Plug-In . SVG Version: 6.00 Build 0)  -->
<!DOCTYPE svg PUBLIC "-//W3C//DTD SVG 1.1//EN" "http://www.w3.org/Graphics/SVG/1.1/DTD/svg11.dtd">
<svg version="1.1" id="Layer_1" xmlns="http://www.w3.org/2000/svg" xmlns:xlink="http://www.w3.org/1999/xlink" x="0px" y="0px"
	 width="50px" height="50px" viewBox="0 0 50 50" enable-background="new 0 0 50 50" xml:space="preserve">
<g>
	<path fill="#424242" d="M39.556,12.053l-19.882-0.011l-1.478-2.135c0.608-0.66,0.989-1.533,0.989-2.5
		c0-2.043-1.661-3.704-3.704-3.704c-0.492,0-0.959,0.101-1.389,0.276l-2.479-3.581c-0.292-0.42-0.868-0.526-1.289-0.234
		C9.904,0.456,9.8,1.032,10.091,1.453l2.521,3.641c-0.514,0.636-0.834,1.435-0.834,2.313c0,2.043,1.661,3.704,3.704,3.704
		c0.406,0,0.789-0.082,1.155-0.203l0.784,1.133l-7.494-0.004c-0.001,0-0.001,0-0.001,0c-0.364,0-0.695,0.214-0.845,0.546
		c-0.148,0.333-0.089,0.723,0.153,0.994l14.58,16.403v14.463c0,0.512,0.414,0.926,0.926,0.926c2.746,0,4.611,1.573,5.637,2.778
		H19.023c0.575-0.727,1.453-1.594,2.665-2.167c0.463-0.219,0.66-0.77,0.442-1.232c-0.219-0.461-0.77-0.662-1.232-0.441
		c-3.021,1.427-4.351,4.26-4.406,4.38c-0.132,0.286-0.108,0.621,0.062,0.886c0.17,0.266,0.464,0.427,0.779,0.427h14.814
		c0.324,0,0.624-0.169,0.792-0.444c0.168-0.277,0.18-0.621,0.03-0.908c-0.103-0.197-2.434-4.575-7.304-5.081V29.981l14.581-16.387
		c0.242-0.273,0.302-0.662,0.152-0.995C40.25,12.268,39.921,12.053,39.556,12.053z M13.63,7.407c0-0.573,0.268-1.08,0.678-1.42
		c0.012-0.008,0.024-0.01,0.036-0.018c0.023-0.017,0.036-0.042,0.058-0.06c0.305-0.221,0.676-0.354,1.08-0.354
		c1.021,0,1.852,0.831,1.852,1.852s-0.831,1.852-1.852,1.852S13.63,8.428,13.63,7.407z M24.74,28.235l-7.814-8.791h15.637
		L24.74,28.235z M34.179,17.629c-0.06-0.013-0.116-0.037-0.179-0.037H15.481c-0.061,0-0.114,0.024-0.171,0.035l-3.322-3.737
		l25.504,0.015L34.179,17.629z"/>
	<path fill="#424242" d="M47.288,6.54l-7.407-2.777c-0.37-0.138-0.784-0.029-1.037,0.273l-4.63,5.556
		c-0.327,0.394-0.273,0.978,0.118,1.305c0.174,0.144,0.384,0.215,0.593,0.215c0.266,0,0.528-0.113,0.712-0.333l4.209-5.051
		l6.791,2.547c0.479,0.177,1.013-0.062,1.193-0.542C48.009,7.254,47.767,6.72,47.288,6.54z"/>
</g>
</svg>
