<?xml version="1.0" encoding="utf-8"?>
<!-- Generator: Adobe Illustrator 15.0.0, SVG Export Plug-In . SVG Version: 6.00 Build 0)  -->
<!DOCTYPE svg PUBLIC "-//W3C//DTD SVG 1.1//EN" "http://www.w3.org/Graphics/SVG/1.1/DTD/svg11.dtd">
<svg version="1.1" id="Layer_1" xmlns="http://www.w3.org/2000/svg" xmlns:xlink="http://www.w3.org/1999/xlink" x="0px" y="0px"
	 width="50px" height="50px" viewBox="0 0 50 50" enable-background="new 0 0 50 50" xml:space="preserve">
<g>
	<path fill="#424242" d="M6.532,22.713c-1.059-1.059-2.92-1.059-3.979,0l-1.73,1.73C0.292,24.974,0,25.68,0,26.434
		c0,0.754,0.292,1.459,0.823,1.99l1.793,1.793c-0.291,0.131-0.563,0.303-0.794,0.533l-0.999,1C0.292,32.279,0,32.986,0,33.74
		s0.292,1.459,0.823,1.99l6.041,6.041L4.03,44.561c-0.369,0.365-0.374,0.957-0.011,1.326c0.184,0.188,0.426,0.281,0.669,0.281
		c0.237,0,0.475-0.09,0.657-0.27l2.845-2.801l6.052,6.055c0.531,0.529,1.238,0.82,1.991,0.82c0.752,0,1.459-0.291,1.99-0.822
		l0.999-1c0.231-0.23,0.407-0.498,0.543-0.785l0.322,0.324c0.531,0.529,1.237,0.822,1.99,0.822c0.754,0,1.46-0.293,1.99-0.822
		l1.731-1.73c1.098-1.098,1.098-2.883,0-3.98L6.532,22.713z M17.896,46.824l-1,0.998c-0.353,0.354-1.013,0.352-1.364,0.002
		l-6.74-6.705l0,0l0.035-0.002l-6.696-6.713c-0.176-0.178-0.264-0.412-0.264-0.664s0.102-0.488,0.278-0.664l1.002-1
		c0.175-0.176,0.412-0.271,0.664-0.271s0.487,0.096,0.663,0.271l13.422,13.422c0.176,0.176,0.273,0.41,0.273,0.662
		S18.071,46.648,17.896,46.824z M24.472,44.631l-1.732,1.73c-0.35,0.354-0.974,0.354-1.325,0L2.149,27.098
		c-0.176-0.176-0.273-0.412-0.273-0.664s0.097-0.487,0.273-0.663l1.73-1.731c0.176-0.175,0.411-0.272,0.663-0.272
		s0.487,0.097,0.663,0.272l19.266,19.265C24.837,43.67,24.837,44.266,24.472,44.631z"/>
	<path fill="#424242" d="M49.179,18.195c1.096-1.097,1.096-2.882-0.001-3.98l-6.029-6.029l2.871-2.727
		c0.377-0.357,0.392-0.951,0.035-1.326c-0.357-0.375-0.951-0.391-1.326-0.035L41.82,6.859l-6.063-6.063
		c-1.061-1.062-2.92-1.06-3.979,0l-1,1c-0.23,0.231-0.406,0.499-0.542,0.785l-1.784-1.785c-1.062-1.062-2.921-1.06-3.979,0
		l-1.731,1.73c-1.097,1.098-1.097,2.882,0,3.979l19.266,19.266c0.529,0.53,1.236,0.821,1.99,0.821c0.753,0,1.46-0.291,1.989-0.821
		l1.73-1.73c0.53-0.53,0.823-1.236,0.823-1.99c0-0.753-0.293-1.459-0.823-1.99l-0.322-0.322c0.286-0.137,0.554-0.312,0.784-0.543
		L49.179,18.195z M46.389,22.713l-1.729,1.731c-0.353,0.35-0.975,0.35-1.327,0L24.067,5.179c-0.366-0.365-0.366-0.961,0-1.326
		l1.732-1.73c0.175-0.176,0.41-0.273,0.662-0.273s0.488,0.097,0.664,0.273l19.264,19.265c0.177,0.176,0.273,0.412,0.273,0.664
		S46.565,22.538,46.389,22.713z M47.852,16.869l-1.002,1c-0.35,0.352-0.973,0.352-1.325,0L32.104,4.447
		c-0.176-0.175-0.272-0.41-0.272-0.662s0.097-0.487,0.272-0.663l1.002-1c0.175-0.176,0.41-0.273,0.662-0.273
		s0.487,0.097,0.663,0.273l13.42,13.419C48.217,15.907,48.217,16.503,47.852,16.869z"/>
	<path fill="#424242" d="M30.912,17.734L17.761,30.885c-0.366,0.367-0.366,0.961,0,1.326c0.183,0.184,0.423,0.275,0.663,0.275
		c0.24,0,0.48-0.092,0.664-0.275L32.238,19.06c0.367-0.366,0.367-0.96,0-1.326C31.872,17.367,31.279,17.367,30.912,17.734z"/>
</g>
</svg>
