<?xml version="1.0" encoding="utf-8"?>
<!-- Generator: Adobe Illustrator 15.0.0, SVG Export Plug-In . SVG Version: 6.00 Build 0)  -->
<!DOCTYPE svg PUBLIC "-//W3C//DTD SVG 1.1//EN" "http://www.w3.org/Graphics/SVG/1.1/DTD/svg11.dtd">
<svg version="1.1" id="Layer_1" xmlns="http://www.w3.org/2000/svg" xmlns:xlink="http://www.w3.org/1999/xlink" x="0px" y="0px"
	 width="50px" height="50px" viewBox="0 0 50 50" enable-background="new 0 0 50 50" xml:space="preserve">
<g>
	<path fill="#424242" d="M28.234,10.291c-0.467-0.21-1.015-0.008-1.227,0.458c-0.717,1.572-1.082,3.253-1.082,4.993
		c0,1.435,0.25,2.84,0.745,4.177c0.138,0.373,0.492,0.604,0.868,0.604c0.107,0,0.215-0.018,0.32-0.058
		c0.48-0.177,0.727-0.71,0.548-1.189c-0.418-1.13-0.63-2.319-0.63-3.534c0-1.474,0.309-2.896,0.916-4.225
		C28.904,11.053,28.7,10.503,28.234,10.291z"/>
	<path fill="#424242" d="M37.963,21.298c3.063,0,5.556-2.492,5.556-5.556s-2.492-5.556-5.556-5.556s-5.556,2.492-5.556,5.556
		S34.899,21.298,37.963,21.298z M37.963,12.038c2.043,0,3.703,1.661,3.703,3.704s-1.66,3.703-3.703,3.703s-3.703-1.66-3.703-3.703
		S35.92,12.038,37.963,12.038z"/>
	<path fill="#424242" d="M12.646,9.456l-2.243-1.121c-0.363-0.182-0.729-0.273-1.086-0.273c-1.106,0-1.911,0.894-1.911,2.125v11.111
		c0,1.231,0.804,2.125,1.911,2.125c0.357,0,0.723-0.092,1.086-0.273l2.243-1.121c1.216-0.607,2.168-2.149,2.168-3.509v-5.555
		C14.815,11.605,13.863,10.063,12.646,9.456z M12.963,18.52c0,0.67-0.545,1.553-1.145,1.853l-2.243,1.121
		c-0.141,0.07-0.227,0.077-0.258,0.077l-0.001,0.012c-0.015-0.017-0.057-0.104-0.057-0.284V10.187c0-0.18,0.042-0.268,0.059-0.273
		c0.031,0,0.117,0.008,0.258,0.078l2.243,1.121c0.6,0.3,1.145,1.182,1.145,1.853V18.52z"/>
	<path fill="#424242" d="M4.63,11.112H0.926C0.414,11.112,0,11.526,0,12.038s0.414,0.927,0.926,0.927H4.63
		c0.512,0,0.926-0.415,0.926-0.927S5.142,11.112,4.63,11.112z"/>
	<path fill="#424242" d="M4.63,14.816H0.926C0.414,14.816,0,15.23,0,15.742s0.414,0.926,0.926,0.926H4.63
		c0.512,0,0.926-0.414,0.926-0.926S5.142,14.816,4.63,14.816z"/>
	<path fill="#424242" d="M4.63,18.52H0.926C0.414,18.52,0,18.934,0,19.445c0,0.513,0.414,0.927,0.926,0.927H4.63
		c0.512,0,0.926-0.414,0.926-0.927C5.556,18.934,5.142,18.52,4.63,18.52z"/>
	<path fill="#424242" d="M49.074,34.261c-0.134,0-3.298,0.036-5.4,3.19c-0.667,1.001-1.208,2.297-1.73,3.553
		c-0.853,2.047-1.82,4.368-3.055,4.368c-2.344,0-3.201-1.089-3.518-1.912c3.104-0.322,3.49-1.984,3.516-2.64
		c0.924-6.205,9.015-17.951,9.097-18.069c0.126-0.182,0.165-0.393,0.148-0.597C49.309,20.295,50,18.101,50,15.742
		c0-6.637-5.4-12.037-12.037-12.037c-1.545,0-3.047,0.288-4.468,0.856L20.157,7.714c-2.436,0.424-4.417,2.779-4.417,5.251v5.555
		c0,2.472,1.981,4.827,4.362,5.24l13.073,3.08l0.201,0.035c0.143,0.059,0.29,0.102,0.434,0.154
		c-3.004,3.904-3.255,10.682-3.255,12.787c0,1.17,0.96,3.148,2.872,3.605c0.346,1.637,1.744,3.802,5.461,3.802
		c2.47,0,3.637-2.801,4.765-5.508c0.488-1.174,0.993-2.387,1.562-3.238c1.536-2.304,3.771-2.363,3.859-2.365
		c0.512,0,0.926-0.414,0.926-0.926S49.586,34.261,49.074,34.261z M20.474,21.946c-1.562-0.271-2.881-1.841-2.881-3.427v-5.555
		c0-1.586,1.319-3.155,2.935-3.438L33.56,6.455l0.449-0.113l0.123-0.04c1.216-0.494,2.505-0.745,3.831-0.745
		c5.616,0,10.186,4.569,10.186,10.186s-4.569,10.186-10.186,10.186c-1.375,0-2.709-0.27-3.964-0.801L20.474,21.946z M32.407,39.816
		c0-4.256,0.89-9.683,3.372-12.241c0.717,0.132,1.443,0.204,2.184,0.204c1.951,0,3.791-0.478,5.423-1.306
		c-2.522,4.15-5.764,10.102-6.34,14.138c-0.007,0.043-0.009,0.088-0.009,0.131c0,0.445-0.869,0.926-2.777,0.926
		C32.965,41.668,32.407,40.263,32.407,39.816z"/>
</g>
</svg>
