<?xml version="1.0" encoding="utf-8"?>
<!-- Generator: Adobe Illustrator 15.0.0, SVG Export Plug-In . SVG Version: 6.00 Build 0)  -->
<!DOCTYPE svg PUBLIC "-//W3C//DTD SVG 1.1//EN" "http://www.w3.org/Graphics/SVG/1.1/DTD/svg11.dtd">
<svg version="1.1" id="Layer_1" xmlns="http://www.w3.org/2000/svg" xmlns:xlink="http://www.w3.org/1999/xlink" x="0px" y="0px"
	 width="50px" height="50px" viewBox="0 0 50 50" enable-background="new 0 0 50 50" xml:space="preserve">
<path fill="#424242" d="M47.863,24.668l-16.164-8.467c-1.034-0.541-2.757-0.965-3.922-0.965h-1.852v-3.222l3.135-4.316
	c0.03-0.042,0.057-0.087,0.08-0.133l0.027-0.055c0.541-0.801,0.825-1.729,0.825-2.691C29.993,2.162,27.835,0,25.182,0
	c-2.649,0-4.804,2.162-4.804,4.819c0,0.512,0.415,0.926,0.926,0.926s0.926-0.414,0.926-0.926c0-1.637,1.325-2.968,2.952-2.968
	c1.633,0,2.959,1.331,2.959,2.968c0,0.606-0.184,1.191-0.533,1.692c-0.025,0.037-0.049,0.077-0.069,0.118l-3.288,4.539
	c-0.115,0.158-0.176,0.349-0.176,0.544v3.523h-1.852c-1.165,0-2.887,0.424-3.921,0.965L2.137,24.668C0.938,25.295,0,26.846,0,28.199
	v1.852c0,1.532,1.246,2.778,2.778,2.778h5.556v13.889c0,1.531,1.246,2.777,2.778,2.777h27.777c1.532,0,2.777-1.246,2.777-2.777
	V32.829h5.557c1.531,0,2.777-1.246,2.777-2.778v-1.852C50,26.846,49.062,25.295,47.863,24.668z M39.814,46.718
	c0,0.511-0.414,0.926-0.926,0.926H15.741v-8.333c0-0.512-0.414-0.926-0.926-0.926s-0.926,0.414-0.926,0.926v8.333h-2.777
	c-0.511,0-0.926-0.415-0.926-0.926V30.051c0-0.511,0.415-0.926,0.926-0.926h27.777c0.512,0,0.926,0.415,0.926,0.926V46.718z
	 M48.148,30.051c0,0.511-0.416,0.926-0.926,0.926h-5.557v-0.926c0-1.531-1.245-2.777-2.777-2.777H11.111
	c-1.532,0-2.778,1.246-2.778,2.777v0.926H2.778c-0.511,0-0.926-0.415-0.926-0.926v-1.852c0-0.677,0.545-1.577,1.144-1.891
	l16.164-8.468c0.767-0.401,2.198-0.753,3.062-0.753h5.555c0.865,0,2.297,0.352,3.062,0.753l16.164,8.468
	c0.6,0.313,1.145,1.214,1.145,1.891V30.051z"/>
</svg>
