<?xml version="1.0" encoding="utf-8"?>
<!-- Generator: Adobe Illustrator 15.0.0, SVG Export Plug-In . SVG Version: 6.00 Build 0)  -->
<!DOCTYPE svg PUBLIC "-//W3C//DTD SVG 1.1//EN" "http://www.w3.org/Graphics/SVG/1.1/DTD/svg11.dtd">
<svg version="1.1" id="Layer_1" xmlns="http://www.w3.org/2000/svg" xmlns:xlink="http://www.w3.org/1999/xlink" x="0px" y="0px"
	 width="50px" height="50px" viewBox="0 0 50 50" enable-background="new 0 0 50 50" xml:space="preserve">
<g>
	<path fill="#424242" d="M46.686,38.264l3.227-12.1c0.133-0.494-0.161-1.002-0.655-1.133c-0.498-0.137-1.002,0.162-1.134,0.655
		l-3.227,12.1c-0.154,0.577-0.838,1.103-1.434,1.103H36.98c-0.51,0-0.926-0.415-0.926-0.926s0.416-0.926,0.926-0.926h6.482
		c0.511,0,0.926-0.414,0.926-0.927c0-0.512-0.415-0.926-0.926-0.926H36.98c-1.531,0-2.777,1.246-2.777,2.778
		c0,1.217,0.792,2.242,1.885,2.616c-0.01,0.055-0.033,0.104-0.033,0.161v8.333c0,0.512,0.415,0.927,0.926,0.927
		c0.512,0,0.926-0.415,0.926-0.927V40.74h5.557c0,0,0.002,0,0.003,0c0,0.126,0.022,0.253,0.077,0.376l3.703,8.334
		c0.153,0.345,0.492,0.55,0.846,0.55c0.127,0,0.254-0.025,0.377-0.08c0.467-0.208,0.678-0.755,0.469-1.223l-3.703-8.333
		c-0.021-0.049-0.061-0.082-0.09-0.126C45.881,39.79,46.468,39.083,46.686,38.264z"/>
	<path fill="#424242" d="M12.907,35.185H6.426c-0.511,0-0.926,0.414-0.926,0.926c0,0.513,0.415,0.927,0.926,0.927h6.481
		c0.51,0,0.926,0.415,0.926,0.926s-0.416,0.926-0.926,0.926H6.426c-0.597,0-1.28-0.525-1.434-1.103l-3.227-12.1
		c-0.132-0.493-0.637-0.791-1.134-0.655c-0.494,0.131-0.788,0.639-0.656,1.133l3.227,12.1c0.218,0.819,0.805,1.527,1.541,1.975
		c-0.029,0.044-0.067,0.077-0.089,0.126L0.95,48.697c-0.208,0.468,0.003,1.015,0.47,1.223C1.542,49.975,1.67,50,1.796,50
		c0.354,0,0.693-0.206,0.846-0.55l3.704-8.334C6.4,40.993,6.422,40.74,6.422,40.74c0.001,0,0.002,0,0.003,0h5.556v8.333
		c0,0.512,0.415,0.927,0.926,0.927s0.926-0.415,0.926-0.927v-8.504c1.076-0.383,1.852-1.401,1.852-2.606
		C15.685,36.431,14.439,35.185,12.907,35.185z"/>
	<path fill="#424242" d="M32.352,48.147c-2.193,0-5.556-4.147-5.556-9.259c0-4.413,3.952-8.318,4.981-9.26h4.277
		c0.512,0,0.926-0.414,0.926-0.926s-0.414-0.926-0.926-0.926H13.833c-0.511,0-0.926,0.414-0.926,0.926s0.415,0.926,0.926,0.926
		h4.279c1.028,0.938,4.98,4.833,4.98,9.26c0,5.111-3.362,9.259-5.556,9.259c-0.511,0-0.926,0.414-0.926,0.926S17.025,50,17.537,50
		c3.334,0,7.408-5.127,7.408-11.111c0-3.927-2.48-7.341-4.224-9.26h8.447c-1.744,1.919-4.224,5.333-4.224,9.26
		c0,5.984,4.073,11.111,7.407,11.111c0.512,0,0.926-0.415,0.926-0.927S32.863,48.147,32.352,48.147z"/>
	<path fill="#424242" d="M4.574,16.666h3.704c1.105,0,2.099-0.486,2.778-1.256c0.679,0.77,1.673,1.256,2.778,1.256h3.704
		c1.105,0,2.099-0.486,2.778-1.256c0.679,0.77,1.673,1.256,2.778,1.256h0.926V25c0,0.512,0.415,0.926,0.926,0.926
		c0.511,0,0.926-0.414,0.926-0.926v-8.334h0.926c1.104,0,2.099-0.486,2.778-1.256c0.679,0.77,1.672,1.256,2.777,1.256h3.703
		c1.105,0,2.1-0.486,2.778-1.256c0.679,0.77,1.673,1.256,2.778,1.256h3.703c2.042,0,3.703-1.66,3.703-3.703
		c0-0.369-0.219-0.703-0.557-0.85L25.87,2.316V0.926C25.87,0.414,25.456,0,24.944,0c-0.512,0-0.926,0.414-0.926,0.926v1.391
		l-22.59,9.797c-0.339,0.146-0.558,0.48-0.558,0.85C0.87,15.006,2.532,16.666,4.574,16.666z M24.944,3.934l22.132,9.598
		c-0.24,0.744-0.939,1.283-1.762,1.283h-3.703c-1.021,0-1.853-0.831-1.853-1.852c0-0.512-0.415-0.926-0.926-0.926
		c-0.512,0-0.927,0.414-0.927,0.926c0,1.021-0.83,1.852-1.852,1.852h-3.703c-1.021,0-1.852-0.831-1.852-1.852
		c0-0.512-0.415-0.926-0.926-0.926c-0.512,0-0.926,0.414-0.926,0.926c0,1.021-0.831,1.852-1.853,1.852h-3.704
		c-1.021,0-1.852-0.831-1.852-1.852c0-0.512-0.415-0.926-0.926-0.926s-0.926,0.414-0.926,0.926c0,1.021-0.831,1.852-1.852,1.852
		h-3.704c-1.021,0-1.852-0.831-1.852-1.852c0-0.512-0.415-0.926-0.926-0.926c-0.511,0-0.926,0.414-0.926,0.926
		c0,1.021-0.831,1.852-1.852,1.852H4.574c-0.823,0-1.521-0.539-1.762-1.283L24.944,3.934z"/>
</g>
</svg>
