<?xml version="1.0" encoding="utf-8"?>
<!-- Generator: Adobe Illustrator 15.0.0, SVG Export Plug-In . SVG Version: 6.00 Build 0)  -->
<!DOCTYPE svg PUBLIC "-//W3C//DTD SVG 1.1//EN" "http://www.w3.org/Graphics/SVG/1.1/DTD/svg11.dtd">
<svg version="1.1" id="Layer_1" xmlns="http://www.w3.org/2000/svg" xmlns:xlink="http://www.w3.org/1999/xlink" x="0px" y="0px"
	 width="50px" height="50px" viewBox="0 0 50 50" enable-background="new 0 0 50 50" xml:space="preserve">
<g>
	<path fill="#424242" d="M12.963,44.313H7.407c-0.511,0-0.926,0.414-0.926,0.927c0,0.512,0.415,0.926,0.926,0.926h5.556
		c0.511,0,0.926-0.414,0.926-0.926C13.889,44.728,13.474,44.313,12.963,44.313z"/>
	<path fill="#424242" d="M42.593,44.313h-5.556c-0.511,0-0.926,0.414-0.926,0.927c0,0.512,0.415,0.926,0.926,0.926h5.556
		c0.512,0,0.926-0.414,0.926-0.926C43.519,44.728,43.104,44.313,42.593,44.313z"/>
	<path fill="#424242" d="M45.37,4.499H4.629C2.077,4.499,0,6.576,0,9.129v28.703c0,2.553,2.077,4.63,4.629,4.63H45.37
		c2.553,0,4.63-2.077,4.63-4.63V9.129C50,6.576,47.923,4.499,45.37,4.499z M48.147,37.832c0,1.532-1.245,2.778-2.777,2.778H4.629
		c-1.532,0-2.777-1.246-2.777-2.778V9.129c0-1.532,1.246-2.778,2.777-2.778H45.37c1.532,0,2.777,1.246,2.777,2.778V37.832z"/>
	<path fill="#424242" d="M25,21.166c-0.511,0-0.926,0.414-0.926,0.926v1.852h-1.852c-0.511,0-0.926,0.414-0.926,0.926
		s0.415,0.926,0.926,0.926H25c0.511,0,0.926-0.414,0.926-0.926v-2.777C25.926,21.58,25.511,21.166,25,21.166z"/>
	<path fill="#424242" d="M32.407,21.166c-0.512,0-0.926,0.414-0.926,0.926v1.852H29.63c-0.512,0-0.926,0.414-0.926,0.926
		s0.414,0.926,0.926,0.926h2.777c0.512,0,0.926-0.414,0.926-0.926v-2.777C33.333,21.58,32.919,21.166,32.407,21.166z"/>
	<path fill="#424242" d="M39.815,21.166c-0.512,0-0.927,0.414-0.927,0.926v1.852h-1.852c-0.511,0-0.926,0.414-0.926,0.926
		s0.415,0.926,0.926,0.926h2.778c0.511,0,0.926-0.414,0.926-0.926v-2.777C40.741,21.58,40.326,21.166,39.815,21.166z"/>
	<path fill="#424242" d="M25,14.685c-0.511,0-0.926,0.414-0.926,0.926v1.852h-1.852c-0.511,0-0.926,0.414-0.926,0.926
		s0.415,0.926,0.926,0.926H25c0.511,0,0.926-0.414,0.926-0.926V15.61C25.926,15.099,25.511,14.685,25,14.685z"/>
	<path fill="#424242" d="M32.407,14.685c-0.512,0-0.926,0.414-0.926,0.926v1.852H29.63c-0.512,0-0.926,0.414-0.926,0.926
		s0.414,0.926,0.926,0.926h2.777c0.512,0,0.926-0.414,0.926-0.926V15.61C33.333,15.099,32.919,14.685,32.407,14.685z"/>
	<path fill="#424242" d="M39.815,14.685c-0.512,0-0.927,0.414-0.927,0.926v1.852h-1.852c-0.511,0-0.926,0.414-0.926,0.926
		s0.415,0.926,0.926,0.926h2.778c0.511,0,0.926-0.414,0.926-0.926V15.61C40.741,15.099,40.326,14.685,39.815,14.685z"/>
	<path fill="#424242" d="M25,27.647c-0.511,0-0.926,0.414-0.926,0.926v1.852h-1.852c-0.511,0-0.926,0.414-0.926,0.926
		s0.415,0.926,0.926,0.926H25c0.511,0,0.926-0.414,0.926-0.926v-2.777C25.926,28.062,25.511,27.647,25,27.647z"/>
	<path fill="#424242" d="M32.407,27.647c-0.512,0-0.926,0.414-0.926,0.926v1.852H29.63c-0.512,0-0.926,0.414-0.926,0.926
		s0.414,0.926,0.926,0.926h2.777c0.512,0,0.926-0.414,0.926-0.926v-2.777C33.333,28.062,32.919,27.647,32.407,27.647z"/>
	<path fill="#424242" d="M39.815,27.647c-0.512,0-0.927,0.414-0.927,0.926v1.852h-1.852c-0.511,0-0.926,0.414-0.926,0.926
		s0.415,0.926,0.926,0.926h2.778c0.511,0,0.926-0.414,0.926-0.926v-2.777C40.741,28.062,40.326,27.647,39.815,27.647z"/>
	<path fill="#424242" d="M11.111,14.685c-0.512,0-0.926,0.414-0.926,0.926v15.74c0,0.512,0.415,0.926,0.926,0.926
		c0.511,0,0.926-0.414,0.926-0.926V15.61C12.037,15.099,11.623,14.685,11.111,14.685z"/>
</g>
</svg>
