<?xml version="1.0" encoding="utf-8"?>
<!-- Generator: Adobe Illustrator 15.0.0, SVG Export Plug-In . SVG Version: 6.00 Build 0)  -->
<!DOCTYPE svg PUBLIC "-//W3C//DTD SVG 1.1//EN" "http://www.w3.org/Graphics/SVG/1.1/DTD/svg11.dtd">
<svg version="1.1" id="Layer_1" xmlns="http://www.w3.org/2000/svg" xmlns:xlink="http://www.w3.org/1999/xlink" x="0px" y="0px"
	 width="50px" height="50px" viewBox="0 0 50 50" enable-background="new 0 0 50 50" xml:space="preserve">
<g>
	<path fill="#424242" d="M15.938,13.454c-3.177,1.539-3.69,4.614-4.064,6.86c-0.137,0.82-0.266,1.595-0.491,2.168
		c-0.188,0.476,0.047,1.013,0.523,1.2c0.111,0.043,0.226,0.064,0.338,0.064c0.37,0,0.719-0.223,0.862-0.588
		c0.296-0.754,0.441-1.621,0.594-2.541c0.358-2.151,0.729-4.377,3.044-5.497c0.46-0.223,0.653-0.776,0.43-1.236
		C16.952,13.424,16.396,13.234,15.938,13.454z"/>
	<path fill="#424242" d="M38.643-0.001H26.605c-3.574,0-6.481,2.492-6.481,5.556v3.721C9.577,9.625,8.519,15.965,7.742,20.63
		c-0.365,2.19-0.68,4.085-1.842,4.806c-0.741,0.291-1.868,1.173-1.868,2.853c0,2.267,1.647,2.267,2.267,2.267h29.501
		c0.62,0,2.268,0,2.268-2.267c0-1.68-1.127-2.562-1.867-2.853c-1.162-0.721-1.478-2.615-1.843-4.806
		c-0.776-4.665-1.835-11.005-12.382-11.354V5.555c0-2.043,2.077-3.704,4.629-3.704h12.037c2.553,0,4.63,2.077,4.63,4.63v42.593
		c0,0.512,0.415,0.926,0.926,0.926s0.926-0.414,0.926-0.926V6.48C45.124,2.907,42.217-0.001,38.643-0.001z M32.532,20.934
		c0.429,2.581,0.835,5.018,2.81,6.146c0.043,0.024,0.105,0.051,0.15,0.068c0.121,0.046,0.725,0.314,0.725,1.14
		c0,0.217-0.023,0.34-0.041,0.402c-0.096,0.013-0.259,0.013-0.375,0.013H6.299c-0.116,0-0.28,0-0.375-0.013
		c-0.017-0.062-0.04-0.186-0.04-0.402c0-0.825,0.603-1.094,0.708-1.134c0.058-0.02,0.113-0.045,0.166-0.074
		c1.975-1.129,2.38-3.565,2.81-6.146c0.804-4.829,1.636-9.823,11.482-9.823S31.728,16.104,32.532,20.934z"/>
	<path fill="#424242" d="M13.643,38.888c-0.511,0-0.926,0.414-0.926,0.926v2.778c0,0.512,0.415,0.926,0.926,0.926
		c0.512,0,0.926-0.414,0.926-0.926v-2.778C14.569,39.302,14.154,38.888,13.643,38.888z"/>
	<path fill="#424242" d="M13.643,32.406c-0.511,0-0.926,0.414-0.926,0.926v2.778c0,0.512,0.415,0.926,0.926,0.926
		c0.512,0,0.926-0.414,0.926-0.926v-2.778C14.569,32.82,14.154,32.406,13.643,32.406z"/>
	<path fill="#424242" d="M13.643,45.369c-0.511,0-0.926,0.414-0.926,0.926v2.778c0,0.512,0.415,0.926,0.926,0.926
		c0.512,0,0.926-0.414,0.926-0.926v-2.778C14.569,45.783,14.154,45.369,13.643,45.369z"/>
	<path fill="#424242" d="M21.05,38.888c-0.511,0-0.926,0.414-0.926,0.926v2.778c0,0.512,0.415,0.926,0.926,0.926
		s0.926-0.414,0.926-0.926v-2.778C21.976,39.302,21.562,38.888,21.05,38.888z"/>
	<path fill="#424242" d="M21.05,45.369c-0.511,0-0.926,0.414-0.926,0.926v2.778c0,0.512,0.415,0.926,0.926,0.926
		s0.926-0.414,0.926-0.926v-2.778C21.976,45.783,21.562,45.369,21.05,45.369z"/>
	<path fill="#424242" d="M21.05,32.406c-0.511,0-0.926,0.414-0.926,0.926v2.778c0,0.512,0.415,0.926,0.926,0.926
		s0.926-0.414,0.926-0.926v-2.778C21.976,32.82,21.562,32.406,21.05,32.406z"/>
	<path fill="#424242" d="M28.457,32.406c-0.511,0-0.926,0.414-0.926,0.926v2.778c0,0.512,0.415,0.926,0.926,0.926
		c0.512,0,0.926-0.414,0.926-0.926v-2.778C29.383,32.82,28.969,32.406,28.457,32.406z"/>
	<path fill="#424242" d="M28.457,45.369c-0.511,0-0.926,0.414-0.926,0.926v2.778c0,0.512,0.415,0.926,0.926,0.926
		c0.512,0,0.926-0.414,0.926-0.926v-2.778C29.383,45.783,28.969,45.369,28.457,45.369z"/>
	<path fill="#424242" d="M28.457,38.888c-0.511,0-0.926,0.414-0.926,0.926v2.778c0,0.512,0.415,0.926,0.926,0.926
		c0.512,0,0.926-0.414,0.926-0.926v-2.778C29.383,39.302,28.969,38.888,28.457,38.888z"/>
</g>
</svg>
