<?xml version="1.0" encoding="utf-8"?>
<!-- Generator: Adobe Illustrator 15.0.0, SVG Export Plug-In . SVG Version: 6.00 Build 0)  -->
<!DOCTYPE svg PUBLIC "-//W3C//DTD SVG 1.1//EN" "http://www.w3.org/Graphics/SVG/1.1/DTD/svg11.dtd">
<svg version="1.1" id="Layer_1" xmlns="http://www.w3.org/2000/svg" xmlns:xlink="http://www.w3.org/1999/xlink" x="0px" y="0px"
	 width="50px" height="50px" viewBox="0 0 50 50" enable-background="new 0 0 50 50" xml:space="preserve">
<g>
	<path fill="#424242" d="M47.223,8.332H30.299l2.912-5.096c0.254-0.444,0.1-1.01-0.344-1.264s-1.01-0.099-1.264,0.345l-3.438,6.015
		h-5.491l-6.204-7.976c-0.314-0.404-0.897-0.478-1.299-0.162c-0.404,0.313-0.477,0.896-0.163,1.3l5.319,6.838H2.778
		C1.246,8.332,0,9.578,0,11.11v30.556c0,1.531,1.246,2.777,2.778,2.777h21.296v3.704h-7.408c-0.511,0-0.926,0.414-0.926,0.926
		s0.415,0.926,0.926,0.926h16.667c0.511,0,0.926-0.414,0.926-0.926s-0.415-0.926-0.926-0.926h-7.408v-3.704h21.297
		c1.531,0,2.777-1.246,2.777-2.777V11.11C50,9.578,48.754,8.332,47.223,8.332z M2.778,10.185h44.445c0.51,0,0.926,0.415,0.926,0.926
		v24.074H1.852V11.11C1.852,10.6,2.268,10.185,2.778,10.185z M47.223,42.592H2.778c-0.51,0-0.926-0.415-0.926-0.926v-4.63h46.296
		v4.63C48.148,42.177,47.732,42.592,47.223,42.592z"/>
	<path fill="#424242" d="M42.593,38.888H40.74c-0.511,0-0.926,0.414-0.926,0.926s0.415,0.926,0.926,0.926h1.853
		c0.511,0,0.926-0.414,0.926-0.926S43.104,38.888,42.593,38.888z"/>
</g>
</svg>
