<?xml version="1.0" encoding="utf-8"?>
<!-- Generator: Adobe Illustrator 15.0.0, SVG Export Plug-In . SVG Version: 6.00 Build 0)  -->
<!DOCTYPE svg PUBLIC "-//W3C//DTD SVG 1.1//EN" "http://www.w3.org/Graphics/SVG/1.1/DTD/svg11.dtd">
<svg version="1.1" id="Layer_1" xmlns="http://www.w3.org/2000/svg" xmlns:xlink="http://www.w3.org/1999/xlink" x="0px" y="0px"
	 width="50px" height="50px" viewBox="0 0 50 50" enable-background="new 0 0 50 50" xml:space="preserve">
<path fill="#424242" d="M45.608,17.752v7.755h2.486v-7.755H45.608L45.608,17.752z M4.392,25.508v-7.755H1.906v7.755H4.392
	L4.392,25.508z M36.101,43.762v2.664c0,0.535,0.436,0.969,0.97,0.969h1.423c0.535,0,0.971-0.434,0.971-0.969v-2.664H36.101
	L36.101,43.762z M42.456,41.855c0.56,0,1.246-0.996,1.246-1.807l0.001-26.391c0-6.48-5.272-11.752-11.752-11.752H18.05
	c-6.48,0-11.753,5.272-11.753,11.752v26.391c0,0.811,0.688,1.807,1.248,1.807H42.456L42.456,41.855z M13.899,43.762h-3.362v2.664
	c0,0.535,0.434,0.969,0.969,0.969h1.424c0.534,0,0.969-0.434,0.969-0.969V43.762L13.899,43.762z M17.884,43.762h-2.079v2.664
	c0,1.584-1.29,2.875-2.875,2.875h-1.424c-1.585,0-2.875-1.291-2.875-2.875v-2.664H7.544c-1.775,0-3.152-1.996-3.152-3.713V27.414
	H1.694C0.76,27.414,0,26.652,0,25.719v-8.177c0-0.934,0.76-1.694,1.694-1.694h2.698v-2.189C4.392,6.126,10.518,0,18.05,0h13.901
	c7.53,0,13.657,6.126,13.657,13.658v2.189h2.696c0.936,0,1.695,0.761,1.695,1.694v8.177c0,0.934-0.76,1.695-1.695,1.695h-2.696
	v12.635c0,1.717-1.377,3.713-3.152,3.713h-0.139h-0.948v2.664c0,1.584-1.29,2.875-2.876,2.875H37.07
	c-1.585,0-2.876-1.291-2.876-2.875v-2.664h-0.842H17.884L17.884,43.762z M40.046,27.416H9.954c-0.526,0-0.952-0.426-0.952-0.953
	v-9.347c0-2.4,1.954-4.354,4.354-4.354h23.287c2.401,0,4.355,1.954,4.355,4.354v9.347C40.999,26.99,40.571,27.416,40.046,27.416
	L40.046,27.416z M10.907,25.51h28.186v-8.394c0-1.35-1.098-2.449-2.449-2.449H13.356c-1.35,0-2.449,1.1-2.449,2.449V25.51
	L10.907,25.51z M31.544,10.768H18.197c-1.586,0-2.875-1.29-2.875-2.875v-1.39c0-1.585,1.29-2.875,2.875-2.875h13.347
	c1.586,0,2.876,1.29,2.876,2.875v1.39C34.42,9.478,33.13,10.768,31.544,10.768L31.544,10.768z M18.197,5.534
	c-0.536,0-0.97,0.435-0.97,0.969v1.39c0,0.535,0.434,0.969,0.97,0.969h13.347c0.535,0,0.971-0.435,0.971-0.969v-1.39
	c0-0.534-0.436-0.969-0.971-0.969H18.197L18.197,5.534z M29.651,39.529h-9.562c-0.767,0-1.391-0.623-1.391-1.391v-6.637
	c0-0.641,0.393-1.182,1.027-1.424c0.331-0.15,2.143-0.9,5.091-0.9c3.284,0.002,5.169,0.885,5.247,0.922
	c0.814,0.426,0.979,0.996,0.979,1.402v6.637C31.043,38.906,30.419,39.529,29.651,39.529L29.651,39.529z M20.604,37.625h8.533v-5.852
	c-0.342-0.137-1.87-0.688-4.316-0.689c-2.34,0-3.828,0.533-4.217,0.691V37.625L20.604,37.625z M12.218,39.529
	c-1.773,0-3.215-1.443-3.215-3.215c0-1.773,1.442-3.217,3.215-3.217c1.774,0,3.217,1.443,3.217,3.217
	C15.435,38.086,13.992,39.529,12.218,39.529L12.218,39.529z M12.218,35.004c-0.722,0-1.311,0.588-1.311,1.311
	s0.588,1.311,1.311,1.311c0.724,0,1.311-0.588,1.311-1.311S12.941,35.004,12.218,35.004L12.218,35.004z M37.782,39.529
	c-1.774,0-3.216-1.443-3.216-3.215c0-1.773,1.441-3.217,3.216-3.217c1.773,0,3.217,1.443,3.217,3.217
	C40.999,38.086,39.556,39.529,37.782,39.529L37.782,39.529z M37.782,35.004c-0.723,0-1.311,0.588-1.311,1.311
	s0.588,1.311,1.311,1.311s1.311-0.588,1.311-1.311S38.505,35.004,37.782,35.004L37.782,35.004z"/>
</svg>
