<?xml version="1.0" encoding="utf-8"?>
<!-- Generator: Adobe Illustrator 15.0.0, SVG Export Plug-In . SVG Version: 6.00 Build 0)  -->
<!DOCTYPE svg PUBLIC "-//W3C//DTD SVG 1.1//EN" "http://www.w3.org/Graphics/SVG/1.1/DTD/svg11.dtd">
<svg version="1.1" id="Layer_1" xmlns="http://www.w3.org/2000/svg" xmlns:xlink="http://www.w3.org/1999/xlink" x="0px" y="0px"
	 width="50px" height="50px" viewBox="0 0 50 50" enable-background="new 0 0 50 50" xml:space="preserve">
<g>
	<path fill="#424242" d="M45.371,0H12.037c-2.553,0-4.63,2.077-4.63,4.629v2.778v7.408v3.704H4.63c-2.553,0-4.63,2.077-4.63,4.629
		V45.37C0,47.923,2.077,50,4.63,50h33.333c2.553,0,4.63-2.077,4.63-4.63V31.481h2.778c2.552,0,4.629-2.077,4.629-4.629V14.815V7.407
		V4.629C50,2.077,47.923,0,45.371,0z M9.259,9.259h38.889v3.704H9.259V9.259z M40.74,45.37c0,1.532-1.246,2.777-2.777,2.777H4.63
		c-1.532,0-2.778-1.245-2.778-2.777V23.148c0-1.532,1.246-2.778,2.778-2.778h33.333c1.531,0,2.777,1.246,2.777,2.778V45.37z
		 M48.148,26.853c0,1.531-1.246,2.777-2.777,2.777h-2.778v-6.482c0-2.552-2.077-4.629-4.63-4.629H9.259v-3.704h38.889V26.853z
		 M9.259,7.407V4.629c0-1.532,1.246-2.777,2.778-2.777h33.334c1.531,0,2.777,1.246,2.777,2.777v2.778H9.259z"/>
	<path fill="#424242" d="M15.741,41.667H8.333c-0.512,0-0.926,0.414-0.926,0.926s0.415,0.926,0.926,0.926h7.407
		c0.512,0,0.926-0.414,0.926-0.926S16.252,41.667,15.741,41.667z"/>
	<path fill="#424242" d="M31.481,41.667H20.371c-0.512,0-0.926,0.414-0.926,0.926s0.414,0.926,0.926,0.926h11.111
		c0.512,0,0.926-0.414,0.926-0.926S31.993,41.667,31.481,41.667z"/>
	<path fill="#424242" d="M36.111,24.074h-9.26c-0.512,0-0.926,0.414-0.926,0.926v5.556c0,0.512,0.414,0.926,0.926,0.926h9.26
		c0.512,0,0.926-0.414,0.926-0.926V25C37.037,24.488,36.623,24.074,36.111,24.074z M35.186,29.63h-7.408v-3.704h7.408V29.63z"/>
</g>
</svg>
