<?xml version="1.0" encoding="utf-8"?>
<!-- Generator: Adobe Illustrator 15.0.0, SVG Export Plug-In . SVG Version: 6.00 Build 0)  -->
<!DOCTYPE svg PUBLIC "-//W3C//DTD SVG 1.1//EN" "http://www.w3.org/Graphics/SVG/1.1/DTD/svg11.dtd">
<svg version="1.1" id="Layer_1" xmlns="http://www.w3.org/2000/svg" xmlns:xlink="http://www.w3.org/1999/xlink" x="0px" y="0px"
	 width="50px" height="50px" viewBox="0 0 50 50" enable-background="new 0 0 50 50" xml:space="preserve">
<g>
	<path fill="#424242" d="M28.432,20.229c0-2.053-1.668-3.722-3.721-3.722c-2.052,0-3.721,1.669-3.721,3.722
		c0,1.729,1.19,3.174,2.791,3.59v24.32H21.92c-0.514,0-0.93,0.416-0.93,0.931c0,0.514,0.416,0.93,0.93,0.93h5.582
		c0.514,0,0.93-0.416,0.93-0.93c0-0.515-0.416-0.931-0.93-0.931h-1.861v-24.32C27.242,23.403,28.432,21.958,28.432,20.229z
		 M22.85,20.229c0-1.025,0.835-1.86,1.861-1.86s1.861,0.835,1.861,1.86s-0.835,1.86-1.861,1.86S22.85,21.255,22.85,20.229z"/>
	<path fill="#424242" d="M14.933,39.026c-7.1-3.68-11.509-10.925-11.509-18.907c0-7.531,4.043-14.576,10.55-18.385
		c0.443-0.26,0.592-0.829,0.333-1.272c-0.261-0.445-0.833-0.594-1.273-0.334C5.958,4.271,1.562,11.93,1.562,20.119
		c0,8.681,4.795,16.558,12.514,20.559c0.136,0.071,0.283,0.104,0.427,0.104c0.336,0,0.662-0.183,0.827-0.502
		C15.566,39.823,15.389,39.263,14.933,39.026z"/>
	<path fill="#424242" d="M36.438,0.157c-0.442-0.262-1.014-0.114-1.273,0.33c-0.26,0.442-0.113,1.013,0.33,1.272
		c6.48,3.815,10.505,10.85,10.505,18.359c0,7.982-4.41,15.228-11.509,18.907c-0.457,0.236-0.635,0.797-0.398,1.254
		c0.165,0.319,0.49,0.502,0.826,0.502c0.145,0,0.291-0.033,0.428-0.104c7.719-4.001,12.514-11.878,12.514-20.559
		C47.859,11.954,43.482,4.305,36.438,0.157z"/>
	<path fill="#424242" d="M41.878,20.119c0-6.054-3.243-11.725-8.465-14.8c-0.442-0.261-1.015-0.114-1.274,0.329
		c-0.26,0.442-0.113,1.013,0.33,1.273c4.656,2.744,7.549,7.8,7.549,13.197c0,5.734-3.174,10.94-8.279,13.587
		c-0.456,0.236-0.634,0.798-0.397,1.254c0.165,0.32,0.49,0.503,0.827,0.503c0.145,0,0.29-0.034,0.426-0.104
		C38.32,32.39,41.878,26.551,41.878,20.119z"/>
	<path fill="#424242" d="M17.684,33.706c-5.106-2.646-8.279-7.853-8.279-13.587c0-5.396,2.892-10.453,7.548-13.197
		c0.442-0.261,0.589-0.831,0.329-1.273c-0.261-0.443-0.832-0.59-1.273-0.329c-5.221,3.076-8.464,8.747-8.464,14.8
		c0,6.432,3.557,12.271,9.283,15.239c0.136,0.07,0.283,0.104,0.427,0.104c0.336,0,0.661-0.183,0.827-0.503
		C18.318,34.504,18.14,33.942,17.684,33.706z"/>
	<path fill="#424242" d="M35.896,20.119c0-3.951-2.119-7.648-5.531-9.651c-0.439-0.261-1.012-0.111-1.272,0.332
		c-0.26,0.442-0.112,1.013,0.331,1.272c2.844,1.67,4.611,4.754,4.611,8.047c0,3.493-1.932,6.664-5.043,8.277
		c-0.456,0.236-0.635,0.798-0.398,1.254c0.166,0.319,0.49,0.502,0.827,0.502c0.145,0,0.29-0.033,0.427-0.104
		C33.578,28.114,35.896,24.31,35.896,20.119z"/>
	<path fill="#424242" d="M20.43,28.396c-3.111-1.613-5.043-4.784-5.043-8.277c0-3.271,1.749-6.344,4.564-8.02
		c0.441-0.263,0.586-0.834,0.323-1.275c-0.263-0.441-0.834-0.587-1.275-0.323c-3.376,2.009-5.473,5.694-5.473,9.618
		c0,4.19,2.318,7.995,6.048,9.929c0.136,0.071,0.283,0.104,0.427,0.104c0.336,0,0.662-0.183,0.827-0.502
		C21.064,29.194,20.886,28.633,20.43,28.396z"/>
</g>
</svg>
