<?xml version="1.0" encoding="utf-8"?>
<!-- Generator: Adobe Illustrator 15.0.0, SVG Export Plug-In . SVG Version: 6.00 Build 0)  -->
<!DOCTYPE svg PUBLIC "-//W3C//DTD SVG 1.1//EN" "http://www.w3.org/Graphics/SVG/1.1/DTD/svg11.dtd">
<svg version="1.1" id="Layer_1" xmlns="http://www.w3.org/2000/svg" xmlns:xlink="http://www.w3.org/1999/xlink" x="0px" y="0px"
	 width="50px" height="50px" viewBox="0 0 50 50" enable-background="new 0 0 50 50" xml:space="preserve">
<g>
	<path fill="#424242" d="M39.219,20.525c-0.004-2.709-0.21-7.107-0.46-9.805l-0.501-5.395C37.966,2.166,35.15-0.4,31.979-0.4
		c-0.004,0-0.006,0-0.008,0l-9.867,0.014c-3.174,0.004-5.988,2.58-6.273,5.742l-0.484,5.397c-0.248,2.755-0.439,5.655-0.437,6.6
		l0.001,1.172l-8.805,6.444c-0.435,0.317-0.529,0.926-0.211,1.361c0.19,0.26,0.486,0.398,0.786,0.398
		c0.199,0,0.401-0.062,0.574-0.188l9.206-6.738c0.022-0.016,0.033-0.041,0.053-0.058c0.047-0.041,0.086-0.087,0.125-0.136
		c0.042-0.053,0.08-0.104,0.109-0.162c0.024-0.049,0.04-0.101,0.056-0.154c0.021-0.07,0.037-0.138,0.042-0.211
		c0.001-0.023,0.013-0.043,0.013-0.067l-0.002-1.663c-0.002-0.881,0.192-3.763,0.43-6.423l0.484-5.397
		c0.193-2.149,2.179-3.967,4.336-3.97l9.865-0.014c0.002,0,0.004,0,0.006,0c2.155,0,4.144,1.812,4.342,3.958l0.503,5.395
		c0.245,2.648,0.448,6.967,0.452,9.627l0.033,23.207c0.004,2.147-1.742,3.897-3.89,3.899l-12.62,0.021c-0.003,0-0.005,0-0.007,0
		c-2.146,0-3.892-1.602-3.895-3.57l-0.006-4.551l-0.019-7.779c-0.001-0.537-0.437-0.971-0.974-0.971c-0.001,0-0.001,0-0.002,0
		c-0.538,0.001-0.973,0.438-0.972,0.976l0.018,7.778l0,0l0.007,4.549c0.005,3.043,2.624,5.516,5.842,5.516c0.003,0,0.006,0,0.009,0
		l12.619-0.017c3.222-0.005,5.838-2.629,5.834-5.851L39.219,20.525z"/>
	<path fill="#424242" d="M34.635,10.69c-0.129-0.051-3.193-1.249-7.584-1.249c-4.374,0.007-7.449,1.219-7.578,1.27
		c-0.34,0.137-0.576,0.454-0.608,0.821l-0.639,7.395c-0.026,0.313,0.099,0.619,0.338,0.823c0.179,0.153,0.404,0.234,0.633,0.234
		c0.078,0,0.157-0.009,0.233-0.027c0.038-0.01,3.822-0.934,7.667-0.94c3.801,0,7.567,0.908,7.605,0.917
		c0.303,0.074,0.627-0.003,0.865-0.208s0.363-0.512,0.336-0.825l-0.66-7.393C35.212,11.142,34.977,10.826,34.635,10.69z
		 M27.098,17.069h-0.035c-2.675,0.004-5.275,0.419-6.781,0.713l0.471-5.452c1.018-0.321,3.355-0.936,6.333-0.941
		c2.938,0,5.263,0.606,6.276,0.923l0.486,5.451C32.348,17.474,29.762,17.069,27.098,17.069z"/>
	<path fill="#424242" d="M19.517,41.09c0.128,0.051,3.193,1.248,7.551,1.248c0,0,0.031,0,0.031,0.001
		c4.375-0.006,7.449-1.219,7.578-1.271c0.328-0.131,0.559-0.428,0.604-0.777l0.643-4.932c0.059-0.444-0.195-0.871-0.613-1.033
		c-0.166-0.064-4.09-1.562-8.225-1.562c-4.12,0.006-8.054,1.521-8.219,1.586c-0.418,0.162-0.671,0.59-0.611,1.035l0.655,4.93
		C18.957,40.663,19.189,40.96,19.517,41.09z M27.111,34.711c2.761,0,5.515,0.773,6.779,1.184l-0.461,3.547
		c-1.003,0.318-3.352,0.945-6.332,0.949l-0.029,0.976v-0.976c-2.968,0-5.306-0.617-6.305-0.931l-0.472-3.547
		C21.556,35.499,24.316,34.715,27.111,34.711z"/>
	<path fill="#424242" d="M19.216,31.902c0.537,0,0.973-0.438,0.973-0.976l-0.007-4.383c-0.001-0.537-0.437-0.972-0.974-0.972h-0.001
		c-0.538,0.001-0.974,0.438-0.974,0.975l0.007,4.383c0.001,0.536,0.437,0.973,0.974,0.973H19.216z"/>
	<path fill="#424242" d="M35.919,26.521c0-0.537-0.437-0.972-0.974-0.972h-0.002c-0.537,0-0.973,0.438-0.973,0.976l0.008,4.382
		c0,0.536,0.437,0.972,0.974,0.972c0.539,0,0.975-0.438,0.974-0.975L35.919,26.521z"/>
</g>
</svg>
