<?xml version="1.0" encoding="utf-8"?>
<!-- Generator: Adobe Illustrator 15.0.0, SVG Export Plug-In . SVG Version: 6.00 Build 0)  -->
<!DOCTYPE svg PUBLIC "-//W3C//DTD SVG 1.1//EN" "http://www.w3.org/Graphics/SVG/1.1/DTD/svg11.dtd">
<svg version="1.1" id="Layer_1" xmlns="http://www.w3.org/2000/svg" xmlns:xlink="http://www.w3.org/1999/xlink" x="0px" y="0px"
	 width="50px" height="50px" viewBox="0 0 50 50" enable-background="new 0 0 50 50" xml:space="preserve">
<g>
	<path fill="#424242" d="M44.859,32.484l-7.644-4.015l-0.012-8.214l6.728,3.397c0.139,0.07,0.291,0.104,0.438,0.104
		c0.355,0,0.697-0.196,0.871-0.535c0.242-0.48,0.049-1.066-0.432-1.308l-7.64-3.858c-0.069-2.536-0.233-5.586-0.425-7.649
		l-0.501-5.395c-0.293-3.159-3.108-5.725-6.281-5.725c-0.003,0-0.006,0-0.009,0l-9.864,0.014c-3.174,0.005-5.989,2.581-6.273,5.743
		l-0.483,5.397c-0.249,2.753-0.441,5.652-0.438,6.601l0.001,1.066l-7.595,3.863c-0.48,0.244-0.67,0.83-0.427,1.309
		c0.172,0.338,0.514,0.532,0.869,0.532c0.149,0,0.299-0.034,0.441-0.106l8.128-4.134c0.041-0.021,0.067-0.056,0.103-0.082
		c0.061-0.042,0.121-0.08,0.17-0.134c0.041-0.044,0.067-0.096,0.099-0.147c0.035-0.055,0.071-0.106,0.094-0.168
		c0.024-0.063,0.03-0.129,0.04-0.197c0.007-0.048,0.028-0.091,0.028-0.141l-0.003-1.664c-0.002-0.869,0.195-3.811,0.43-6.423
		l0.484-5.397c0.192-2.149,2.178-3.966,4.336-3.969l9.866-0.015c0.001,0,0.003,0,0.005,0c2.155,0,4.144,1.811,4.343,3.957l0.5,5.396
		c0.246,2.648,0.448,6.967,0.452,9.627l0.033,23.206c0.002,1.035-0.403,2.013-1.142,2.752c-0.736,0.739-1.713,1.147-2.748,1.147
		l-12.62,0.021c-0.002,0-0.004,0-0.006,0c-2.146,0-3.892-1.601-3.895-3.571l-0.007-4.549l-0.018-11.998
		c0-0.537-0.449-0.974-0.975-0.974c-0.537,0.002-0.973,0.438-0.973,0.976l0.002,1.281l-7.629,4.036
		c-0.475,0.251-0.657,0.84-0.405,1.315c0.174,0.332,0.512,0.52,0.861,0.52c0.154,0,0.31-0.037,0.455-0.113l6.721-3.557l0.013,8.516
		l0.006,4.551c0.005,3.043,2.625,5.516,5.843,5.516c0.003,0,0.006,0,0.008,0l12.619-0.02c1.557-0.002,3.021-0.613,4.125-1.722
		c1.105-1.108,1.713-2.573,1.709-4.129L37.219,30.67l6.733,3.539c0.146,0.076,0.3,0.111,0.452,0.111c0.351,0,0.689-0.188,0.863-0.52
		C45.518,33.325,45.335,32.736,44.859,32.484z"/>
	<path fill="#424242" d="M32.619,10.38c-0.128-0.052-3.193-1.249-7.582-1.249c-4.376,0.006-7.45,1.218-7.579,1.27
		c-0.341,0.137-0.576,0.454-0.607,0.82l-0.64,7.396c-0.027,0.313,0.099,0.62,0.338,0.824c0.178,0.152,0.404,0.233,0.633,0.233
		c0.077,0,0.156-0.009,0.233-0.028c0.038-0.009,3.822-0.934,7.667-0.94c3.802,0,7.568,0.908,7.605,0.917
		c0.305,0.075,0.627-0.002,0.865-0.207s0.363-0.512,0.336-0.825l-0.66-7.393C33.195,10.832,32.961,10.516,32.619,10.38z
		 M25.081,16.758h-0.034c-2.677,0.004-5.277,0.42-6.783,0.713l0.472-5.453c1.013-0.322,3.34-0.935,6.332-0.94
		c2.94,0,5.263,0.606,6.278,0.923l0.485,5.45C30.331,17.163,27.746,16.758,25.081,16.758z"/>
	<path fill="#424242" d="M17.501,40.779c0.129,0.051,3.194,1.248,7.549,1.248c0.001,0,0.033,0,0.034,0
		c4.374-0.006,7.449-1.217,7.578-1.27c0.328-0.131,0.559-0.428,0.604-0.777l0.644-4.932c0.058-0.445-0.196-0.873-0.614-1.033
		c-0.165-0.064-4.088-1.562-8.224-1.562c-4.12,0.006-8.054,1.521-8.22,1.585c-0.418,0.163-0.67,0.591-0.611,1.036l0.656,4.929
		C16.942,40.352,17.174,40.648,17.501,40.779z M25.096,34.4c2.761,0,5.513,0.773,6.778,1.184l-0.462,3.549
		c-0.997,0.318-3.333,0.943-6.331,0.947l-0.031,0.975V40.08c-2.967,0-5.305-0.618-6.304-0.932l-0.471-3.547
		C19.539,35.188,22.3,34.404,25.096,34.4z"/>
	<path fill="#424242" d="M18.172,30.616l-0.006-4.382c-0.001-0.537-0.437-0.974-0.974-0.974c-0.001,0-0.002,0-0.002,0
		c-0.538,0.002-0.973,0.438-0.972,0.976l0.006,4.383c0,0.537,0.437,0.973,0.974,0.973C17.737,31.591,18.173,31.154,18.172,30.616z"
		/>
	<path fill="#424242" d="M33.904,26.211c0-0.537-0.438-0.972-0.975-0.972c-0.539,0-0.975,0.437-0.974,0.975l0.006,4.382
		c0.001,0.537,0.438,0.973,0.976,0.973c0.539,0,0.974-0.438,0.974-0.976L33.904,26.211z"/>
</g>
</svg>
