<?xml version="1.0" encoding="utf-8"?>
<!-- Generator: Adobe Illustrator 15.0.0, SVG Export Plug-In . SVG Version: 6.00 Build 0)  -->
<!DOCTYPE svg PUBLIC "-//W3C//DTD SVG 1.1//EN" "http://www.w3.org/Graphics/SVG/1.1/DTD/svg11.dtd">
<svg version="1.1" id="Layer_1" xmlns="http://www.w3.org/2000/svg" xmlns:xlink="http://www.w3.org/1999/xlink" x="0px" y="0px"
	 width="50px" height="50px" viewBox="0 0 50 50" enable-background="new 0 0 50 50" xml:space="preserve">
<g>
	<path fill="#424242" d="M49.386,23.297l-10.657-4.034l-6.222-7.375c-0.181-0.214-0.446-0.337-0.727-0.337h-0.001l-7.927,0.012v0
		l-9.853,0.015c-2.914,0.003-4.363,2.213-4.631,2.668l-3.045,4.038l-4.571,3.441c-0.036,0.027-0.055,0.066-0.086,0.097
		c-0.045,0.045-0.089,0.087-0.125,0.142c-0.039,0.058-0.062,0.12-0.087,0.185c-0.015,0.038-0.041,0.067-0.051,0.107l-1.374,5.548
		C0.009,27.878,0,27.955,0,28.032c0.001,1.021,0.391,2.319,1.017,3.39c0.804,1.375,1.853,2.131,2.952,2.131c0.001,0,0.002,0,0.004,0
		l2.116-0.003c0.045,1.398,0.597,2.708,1.591,3.698c1.033,1.03,2.405,1.598,3.863,1.598c0.003,0,0.006,0,0.009,0
		c2.96-0.005,5.369-2.373,5.455-5.311l12.463-0.019c0.524-0.001,0.949-0.427,0.949-0.951c-0.001-0.524-0.426-0.949-0.951-0.949
		c0,0,0,0-0.001,0l-13.473,0.02c-0.524,0.001-0.949,0.427-0.949,0.951c0,0.169,0.057,0.32,0.135,0.458
		c-0.037,0.102-0.065,0.209-0.065,0.324c0.001,0.953-0.369,1.851-1.042,2.526c-0.674,0.676-1.57,1.048-2.524,1.05
		c-0.002,0-0.003,0-0.005,0c-0.953,0-1.848-0.37-2.522-1.042c-0.676-0.674-1.048-1.57-1.05-2.524c0-0.141-0.035-0.271-0.089-0.391
		c0.054-0.12,0.088-0.25,0.088-0.391c-0.001-0.525-0.426-0.949-0.95-0.949c0,0-0.001,0-0.001,0l-3.05,0.004h0
		c-0.375,0-0.889-0.467-1.312-1.189c-0.428-0.733-0.724-1.65-0.754-2.326l1.262-5.098l4.408-3.318
		c0.071-0.053,0.134-0.116,0.187-0.187l3.162-4.192c0.03-0.04,0.057-0.082,0.081-0.125c0.009-0.018,0.947-1.736,3-1.738l9.849-0.015
		c0.001,0,0.001,0,0.002,0c0,0,0,0,0.001,0l7.485-0.011l6.095,7.226c0.105,0.124,0.239,0.219,0.391,0.276l10.239,3.875
		c-0.208,2.15-1.296,6.23-2.093,6.763l-3.412,0.006c-0.525,0-0.949,0.427-0.949,0.951c0,0.141,0.034,0.271,0.089,0.392
		c-0.054,0.119-0.088,0.25-0.087,0.39c0.001,0.955-0.369,1.852-1.043,2.527s-1.57,1.049-2.524,1.05c-0.002,0-0.004,0-0.006,0
		c-0.952,0-1.847-0.37-2.521-1.042c-0.676-0.674-1.049-1.57-1.051-2.524c-0.001-0.524-0.426-0.948-0.949-0.948
		c-0.001,0-0.002,0-0.002,0c-0.524,0-0.949,0.426-0.949,0.951c0.003,1.461,0.574,2.834,1.609,3.867
		c1.033,1.029,2.404,1.597,3.861,1.597c0.004,0,0.007,0,0.01,0c1.461-0.002,2.834-0.573,3.867-1.608
		c0.991-0.994,1.541-2.306,1.581-3.703l2.552-0.004c1.238,0,2.204-1.349,3.039-4.24c0.574-1.988,0.914-4.138,0.913-5.068
		C49.999,23.79,49.755,23.437,49.386,23.297z"/>
	<path fill="#424242" d="M31.231,26.674c0.041-0.106,0.067-0.218,0.067-0.336s-0.027-0.229-0.068-0.336
		c-0.014-0.034-0.032-0.063-0.049-0.096c-0.036-0.068-0.077-0.131-0.128-0.188c-0.025-0.03-0.052-0.057-0.081-0.083
		c-0.057-0.05-0.119-0.09-0.187-0.125c-0.034-0.018-0.065-0.039-0.103-0.053c-0.013-0.005-0.022-0.014-0.035-0.019l-6.557-2.182
		c-0.498-0.166-1.036,0.104-1.201,0.602c-0.166,0.498,0.104,1.036,0.602,1.201l1.017,0.338l-6.744,0.01c-0.001,0-0.003,0-0.005,0
		c-1.854,0-3.365-1.508-3.368-3.363c-0.002-1.857,1.506-3.371,3.363-3.373l12.581-0.018c0.525,0,0.95-0.427,0.949-0.952
		c0-0.524-0.426-0.948-0.95-0.948h-0.001l-12.582,0.018c-2.904,0.004-5.264,2.371-5.261,5.276c0.004,2.902,2.367,5.26,5.268,5.26
		c0.002,0,0.005,0,0.008,0l6.743-0.01l-1.015,0.341c-0.498,0.167-0.765,0.706-0.598,1.203c0.133,0.397,0.503,0.648,0.9,0.648
		c0.101,0,0.203-0.016,0.303-0.051l6.551-2.199c0.014-0.005,0.024-0.015,0.037-0.02c0.035-0.014,0.064-0.033,0.098-0.051
		c0.068-0.036,0.131-0.076,0.188-0.127c0.03-0.026,0.057-0.055,0.083-0.085c0.05-0.057,0.09-0.119,0.125-0.187
		C31.199,26.739,31.219,26.709,31.231,26.674z"/>
</g>
</svg>
