<?xml version="1.0" encoding="utf-8"?>
<!-- Generator: Adobe Illustrator 15.0.0, SVG Export Plug-In . SVG Version: 6.00 Build 0)  -->
<!DOCTYPE svg PUBLIC "-//W3C//DTD SVG 1.1//EN" "http://www.w3.org/Graphics/SVG/1.1/DTD/svg11.dtd">
<svg version="1.1" id="Layer_1" xmlns="http://www.w3.org/2000/svg" xmlns:xlink="http://www.w3.org/1999/xlink" x="0px" y="0px"
	 width="50px" height="50px" viewBox="0 0 50 50" enable-background="new 0 0 50 50" xml:space="preserve">
<g>
	<path fill="#424242" d="M21.148,16.783c0.254,0,0.511-0.012,0.765-0.036c4.329-0.417,7.515-4.279,7.097-8.611
		C28.62,4.068,25.246,1,21.164,1c-0.253,0-0.511,0.013-0.765,0.037c-4.331,0.417-7.516,4.28-7.099,8.612
		C13.693,13.716,17.066,16.783,21.148,16.783z M20.596,3.066c0.188-0.019,0.38-0.028,0.568-0.028c3.026,0,5.527,2.275,5.818,5.293
		c0.309,3.213-2.053,6.077-5.266,6.387c-0.189,0.018-0.381,0.027-0.569,0.027h-0.001c-3.025,0-5.526-2.275-5.817-5.292
		C15.02,6.24,17.382,3.375,20.596,3.066z"/>
	<path fill="#424242" d="M48.846,35.461c-0.212-0.227-0.43-0.461-0.656-0.732c-3.902-4.703-7.125-6.595-10.781-6.326
		c-1.568,0.115-2.807,0.207-4.043-0.248c-1.776-0.651-2.305-1.066-2.305-1.066c-0.242-0.211-0.455-0.511-0.642-0.889l8.774-0.071
		c0.6-0.006,1.467-0.085,2.064-0.705c0.674-0.697,0.648-1.641,0.621-2.736c-0.006-0.199-0.012-0.41-0.014-0.632
		c-0.008-0.926-0.082-1.965-0.873-2.589c-0.627-0.495-1.467-0.539-2.51-0.532l-13.176-1.828c-0.049-0.006-0.097-0.009-0.149-0.009
		c-2.215,0.019-4.047,1.608-4.44,3.748c-1.444-0.714-2.981-1.283-4.458-1.785c-3.585-1.218-5.376-5.019-6.684-7.794
		C8.57,9.133,7.843,7.592,6.457,7.495C3.514,7.293,1.529,8.523,0.648,9.742c-0.661,0.916-0.825,1.963-0.452,2.874
		c0.011,0.026,0.021,0.051,0.034,0.075l15.385,30.331c0.535,1.687,2.624,4.729,6.974,4.78c0.852,0.011,2.414,0.025,4.296,0.044
		c3.135,0.03,7.161,0.069,10.27,0.107c0.007,0,0.011,0,0.015,0c0.558,0,1.013-0.448,1.021-1.008c0.006-0.562-0.446-1.023-1.008-1.03
		c-3.111-0.037-7.139-0.077-10.275-0.106c-1.881-0.02-3.441-0.035-4.292-0.045c-4.002-0.048-5.03-3.277-5.071-3.408
		c-0.017-0.062-0.041-0.121-0.069-0.178L2.071,11.815c-0.116-0.328,0.092-0.69,0.229-0.879C2.83,10.203,4.178,9.4,6.259,9.527
		c0.358,0.242,1,1.607,1.473,2.609c1.381,2.93,3.468,7.359,7.872,8.855c4.132,1.402,7.176,2.858,8.604,5.399
		c0.565,1.006,0.77,2.504,0.966,3.953c0.29,2.137,0.564,4.153,1.985,5.17c0.745,0.532,1.696,0.691,2.827,0.469
		c6.478-1.274,12.955,1.449,13.466,2.574c1.043,2.305,1.403,5.756,1.522,7.479l-3.166-0.038c-0.004,0-0.008,0-0.012,0
		c-0.557,0-1.012,0.446-1.02,1.006c-0.006,0.562,0.443,1.024,1.006,1.032l4.254,0.052c0.004,0,0.008,0,0.012,0
		c0.271,0,0.533-0.108,0.725-0.304c0.195-0.196,0.302-0.465,0.295-0.74c-0.005-0.18-0.097-3.479-0.86-6.607
		c0.039,0.005,0.074,0.021,0.114,0.021c0.033,0,0.066-0.002,0.1-0.005c0.913-0.088,1.77-0.445,2.479-1.032
		c0.447-0.371,1.043-0.957,1.097-1.771C50.055,36.759,49.466,36.128,48.846,35.461z M47.6,37.852
		c-0.395,0.325-0.869,0.523-1.373,0.572c-0.212,0.02-0.39,0.117-0.542,0.244c-0.117-0.329-0.24-0.651-0.378-0.955
		c-1.096-2.416-8.734-5.105-15.715-3.73c-0.842,0.164-1.146-0.056-1.248-0.127c-0.705-0.504-0.931-2.174-1.15-3.787
		c-0.223-1.639-0.452-3.332-1.209-4.677c-0.803-1.43-1.986-2.534-3.347-3.44c0.012-0.266,0.027-0.455,0.034-0.522
		c0.122-1.273,1.163-2.249,2.435-2.293l13.17,1.826c0.049,0.007,0.096,0.008,0.148,0.01c0.272-0.001,1.078-0.009,1.293,0.089
		c0.029,0.064,0.104,0.292,0.109,1.011c0.002,0.235,0.008,0.458,0.014,0.668c0.012,0.476,0.027,1.128-0.041,1.26
		c0,0-0.131,0.086-0.625,0.091l-10.182,0.084c-0.311,0.002-0.604,0.146-0.793,0.39c-0.191,0.243-0.262,0.561-0.191,0.862
		c0.336,1.423,0.908,2.496,1.709,3.198c0.219,0.189,0.943,0.71,2.941,1.443c1.648,0.606,3.224,0.49,4.898,0.367
		c2.951-0.222,5.582,1.404,9.061,5.596c0.261,0.314,0.513,0.584,0.734,0.82c0.205,0.222,0.474,0.51,0.578,0.674
		C47.884,37.587,47.788,37.695,47.6,37.852z"/>
</g>
</svg>
