<?xml version="1.0" encoding="utf-8"?>
<!-- Generator: Adobe Illustrator 15.0.0, SVG Export Plug-In . SVG Version: 6.00 Build 0)  -->
<!DOCTYPE svg PUBLIC "-//W3C//DTD SVG 1.1//EN" "http://www.w3.org/Graphics/SVG/1.1/DTD/svg11.dtd">
<svg version="1.1" id="Layer_1" xmlns="http://www.w3.org/2000/svg" xmlns:xlink="http://www.w3.org/1999/xlink" x="0px" y="0px"
	 width="50px" height="50px" viewBox="0 0 50 50" enable-background="new 0 0 50 50" xml:space="preserve">
<g>
	<g>
		<g>
			<g>
				<path fill="#424242" d="M38.27,24.462c2.152,0,3.896,1.744,3.896,3.896c0,2.151-1.744,3.897-3.896,3.897
					c-2.151,0-3.896-1.746-3.896-3.897C34.373,26.206,36.118,24.462,38.27,24.462 M38.27,22.83c-3.047,0-5.527,2.48-5.527,5.528
					c0,3.049,2.48,5.528,5.527,5.528c3.049,0,5.529-2.479,5.529-5.528C43.799,25.311,41.318,22.83,38.27,22.83L38.27,22.83z"/>
			</g>
		</g>
		<g>
			<g>
				<path fill="#424242" d="M11.299,24.566c2.094,0,3.792,1.698,3.792,3.792c0,2.095-1.698,3.792-3.792,3.792
					c-2.095,0-3.792-1.697-3.792-3.792C7.507,26.265,9.205,24.566,11.299,24.566 M11.299,22.935c-2.991,0-5.424,2.433-5.424,5.424
					c0,2.991,2.433,5.424,5.424,5.424s5.424-2.433,5.424-5.424C16.723,25.368,14.29,22.935,11.299,22.935L11.299,22.935z"/>
			</g>
		</g>
		<g>
			<path fill="#424242" d="M22.743,10.952c8.683,0,13.782,7.171,13.995,7.476l-0.057,0.04c6.053,0.886,9.287,3.068,9.287,3.068
				s-0.229,3.411,1.137,4.092c1.363,0.684,1.477,1.82,1.022,2.389s-3.411,1.363-3.411,1.363h-1.27c0.064-0.33,0.1-0.672,0.1-1.021
				c0-2.914-2.362-5.277-5.277-5.277c-2.914,0-5.276,2.363-5.276,5.277c0,0.349,0.036,0.69,0.101,1.021h-6.793l-9.819-0.039
				c0.06-0.318,0.095-0.646,0.095-0.981c0-2.914-2.363-5.277-5.277-5.277c-2.915,0-5.277,2.363-5.277,5.277
				c0,0.321,0.034,0.636,0.089,0.94L3.792,29.29c-1.478-0.454-2.16-0.593-2.16-2.07c0-1.479,1.478-1.479,1.478-1.479
				c1.234-2.9,2.967-4.822,4.297-5.98l-0.035-0.027C7.659,19.375,14.501,10.952,22.743,10.952 M22.743,9.32
				c-3.803,0-7.729,1.547-11.667,4.599c-2.91,2.253-4.774,4.542-4.977,4.795l-0.08,0.099c-1.244,1.141-2.825,2.939-4.058,5.509
				C0.887,24.729,0,25.717,0,27.22c0,2.618,1.729,3.146,3.119,3.571l0.192,0.059l0.231,0.07l0.242,0.002l2.319,0.01l1.96,0.007
				L7.716,29.01c-0.042-0.234-0.062-0.446-0.062-0.651c0-2.01,1.635-3.646,3.646-3.646s3.645,1.636,3.645,3.646
				c0,0.22-0.022,0.442-0.066,0.68l-0.363,1.926l1.96,0.009l9.82,0.038h6.799h1.982l-0.381-1.945
				c-0.047-0.237-0.07-0.476-0.07-0.707c0-2.01,1.635-3.646,3.645-3.646c2.011,0,3.646,1.636,3.646,3.646
				c0,0.231-0.023,0.47-0.07,0.707l-0.382,1.945h1.983h1.27h0.217l0.208-0.056c3.472-0.936,4.045-1.651,4.261-1.921
				c0.523-0.655,0.716-1.523,0.526-2.384c-0.222-1.012-0.933-1.875-2.007-2.437c-0.232-0.355-0.391-1.589-0.326-2.57l0.062-0.936
				l-0.777-0.525c-0.139-0.094-3.336-2.215-9.196-3.208C36.242,15.16,30.959,9.32,22.743,9.32L22.743,9.32z"/>
		</g>
	</g>
	<g>
		<rect x="7.507" y="16.942" fill="#424242" width="29.877" height="1.632"/>
	</g>
	<g>
		
			<rect x="20.436" y="9.891" transform="matrix(0.9992 0.041 -0.041 0.9992 0.5845 -0.8594)" fill="#424242" width="1.632" height="7.87"/>
	</g>
</g>
</svg>
