<?xml version="1.0" encoding="utf-8"?>
<!-- Generator: Adobe Illustrator 15.0.0, SVG Export Plug-In . SVG Version: 6.00 Build 0)  -->
<!DOCTYPE svg PUBLIC "-//W3C//DTD SVG 1.1//EN" "http://www.w3.org/Graphics/SVG/1.1/DTD/svg11.dtd">
<svg version="1.1" id="Layer_1" xmlns="http://www.w3.org/2000/svg" xmlns:xlink="http://www.w3.org/1999/xlink" x="0px" y="0px"
	 width="50px" height="50px" viewBox="0 0 50 50" enable-background="new 0 0 50 50" xml:space="preserve">
<path fill="#424242" d="M47.859,17.829c-0.172-0.242-0.45-0.387-0.748-0.387l-4.362,0.007c-0.504,0.001-0.912,0.411-0.912,0.915
	l0.006,3.334l-2.247,0.004l-0.007-4.506c0-0.242-0.096-0.474-0.269-0.646c-0.172-0.17-0.404-0.267-0.645-0.267
	c-0.002,0-0.002,0-0.002,0l-6.242,0.009l-0.004-3.334c-0.002-0.505-0.41-0.913-0.914-0.913h-0.002l-8.45,0.012l-0.005-3.051
	l7.395-0.011c0.504-0.001,0.912-0.411,0.912-0.915s-0.41-0.912-0.914-0.912L13.832,7.191c-0.504,0-0.913,0.41-0.912,0.915
	s0.409,0.913,0.913,0.913c0.001,0,0.001,0,0.002,0l7.394-0.011l0.005,3.052l-9.18,0.013c-0.243,0-0.475,0.097-0.646,0.269
	c-0.171,0.17-0.267,0.404-0.267,0.646l0.005,3.335l-4.411,0.006c-0.242,0-0.475,0.097-0.646,0.269
	c-0.171,0.17-0.267,0.403-0.267,0.646l0.013,8.9l-3.992,0.007l-0.013-8.902c0-0.504-0.409-0.912-0.913-0.912
	c-0.001,0-0.001,0-0.001,0C0.409,16.338,0,16.748,0,17.253l0.029,19.628c0.001,0.504,0.41,0.912,0.914,0.912
	c0.001,0,0.001,0,0.002,0c0.504,0,0.912-0.41,0.912-0.915l-0.013-8.9l4.907-0.007c0.505-0.002,0.913-0.41,0.912-0.916
	c0-0.002-0.001-0.003-0.001-0.005L7.65,18.155l4.412-0.007c0.243,0,0.475-0.098,0.646-0.27c0.171-0.17,0.267-0.404,0.267-0.646
	l-0.005-3.334l9.175-0.013c0.001,0,0.002,0.001,0.004,0.001s0.002-0.001,0.004-0.001l8.449-0.012l0.004,3.334
	c0.002,0.505,0.41,0.913,0.914,0.913l6.24-0.009l0.006,4.506c0,0.242,0.099,0.474,0.271,0.646c0.17,0.17,0.403,0.266,0.646,0.266
	c0.002,0,0.002,0,0.002,0l4.073-0.006c0.505,0,0.912-0.41,0.912-0.915l-0.004-3.334l2.918-0.005
	c0.483,0.943,1.582,3.615,1.588,8.387c0.009,5.003-1.188,9.117-1.676,10.588l-2.804,0.005l-0.006-3.335
	c0-0.505-0.41-0.913-0.914-0.913l-4.073,0.006c-0.244,0-0.474,0.099-0.646,0.269c-0.172,0.172-0.268,0.406-0.268,0.647l0.01,6.558
	l-13.133,0.019l-4.055-5.383c-0.171-0.229-0.442-0.364-0.729-0.364h-0.001L7.675,35.77l-0.007-4.555
	c-0.001-0.504-0.41-0.912-0.914-0.912H6.753c-0.505,0-0.913,0.41-0.913,0.915l0.008,5.468c0.001,0.504,0.41,0.912,0.914,0.912
	c0.001,0,0.001,0,0.002,0l12.659-0.018l4.054,5.383c0.173,0.229,0.443,0.364,0.73,0.364l14.505-0.021
	c0.506-0.002,0.914-0.41,0.914-0.916l-0.01-6.558l2.245-0.003l0.005,3.335c0.002,0.243,0.099,0.476,0.271,0.646
	c0.17,0.172,0.403,0.27,0.646,0.268l4.362-0.006c0.375-0.002,0.711-0.23,0.851-0.58c0.082-0.211,2.017-5.221,2.006-11.838
	C49.991,20.923,47.945,17.952,47.859,17.829z"/>
</svg>
