<?xml version="1.0" encoding="utf-8"?>
<!-- Generator: Adobe Illustrator 15.0.0, SVG Export Plug-In . SVG Version: 6.00 Build 0)  -->
<!DOCTYPE svg PUBLIC "-//W3C//DTD SVG 1.1//EN" "http://www.w3.org/Graphics/SVG/1.1/DTD/svg11.dtd">
<svg version="1.1" id="Layer_1" xmlns="http://www.w3.org/2000/svg" xmlns:xlink="http://www.w3.org/1999/xlink" x="0px" y="0px"
	 width="50px" height="50px" viewBox="0 0 50 50" enable-background="new 0 0 50 50" xml:space="preserve">
<g id="_x31_0_1_">
	<path fill="#424242" d="M49.44,21.426c0.287-0.51,0.354-1.137,0.174-1.639l-0.111-0.311c-0.285-0.791-1.092-1.255-1.918-1.103
		l-2.106,0.388l-0.19-1.055c-0.006-0.033-0.015-0.066-0.025-0.098c-0.273-0.75-1.018-1.207-1.811-1.112l-11.216,1.378l1.099-3.197
		l0.01-0.016c0.457-0.707,0.93-1.438,0.953-2.502c0.016-0.769-0.212-1.316-0.678-1.627c-0.734-0.49-1.684-0.097-1.789-0.051
		c-0.088,0.039-0.165,0.098-0.225,0.174l-6.946,8.668L1.808,22.788c-0.324,0.05-0.549,0.353-0.499,0.679
		c0.044,0.295,0.298,0.506,0.588,0.506c0.029,0,0.06-0.002,0.09-0.008l23.082-3.498c0.147-0.023,0.282-0.1,0.376-0.217l6.986-8.719
		c0.174-0.05,0.418-0.082,0.527-0.008c0.078,0.051,0.156,0.238,0.148,0.61c-0.016,0.728-0.361,1.263-0.762,1.88l-0.05,0.078
		c-0.026,0.041-0.048,0.084-0.063,0.13l-1.431,4.167c-0.013,0.035-0.02,0.07-0.024,0.105c-0.001,0.002-0.001,0.006-0.002,0.009
		c-0.002,0.017-0.004,0.034-0.004,0.052c-0.001,0.002,0,0.004-0.001,0.008c-0.001,0.027,0.001,0.057,0.003,0.084
		c0.002,0.01,0.002,0.02,0.004,0.029c0.002,0.011,0.004,0.021,0.006,0.032c0.003,0.013,0.006,0.024,0.01,0.036
		c0.002,0.01,0.005,0.019,0.008,0.027c0.002,0.006,0.003,0.012,0.005,0.017c0.005,0.015,0.521,1.471-0.198,2.772
		c-0.545,0.986-1.664,1.668-3.325,2.027c-0.321,0.069-0.525,0.387-0.456,0.707c0.061,0.279,0.307,0.471,0.582,0.471
		c0.041,0,0.084-0.005,0.126-0.014c2.021-0.438,3.407-1.322,4.123-2.63c0.62-1.134,0.571-2.306,0.446-3.03l11.492-1.412
		c0.227-0.027,0.439,0.094,0.533,0.298l0.179,0.995l-5.495,0.983c-0.323,0.058-0.539,0.367-0.48,0.69
		c0.058,0.324,0.367,0.539,0.691,0.482l6.08-1.089c0.049-0.009,0.096-0.023,0.139-0.044C45.29,20,45.34,19.998,45.39,19.988
		l2.411-0.443c0.251-0.046,0.495,0.095,0.581,0.334l0.111,0.311c0.064,0.18,0.028,0.441-0.09,0.65
		c-0.082,0.145-0.191,0.244-0.295,0.264l-7.35,1.48c-0.322,0.064-0.531,0.379-0.467,0.701c0.058,0.283,0.307,0.479,0.584,0.479
		c0.039,0,0.078-0.004,0.118-0.012l6.413-1.292c0,0,0,0,0.001,0c0.04-0.009,0.104-0.013,0.197,0.048
		c0.156,0.104,0.292,0.323,0.337,0.548c0.004,0.019,0.01,0.038,0.016,0.057l0.127,0.415c0.041,0.268-0.133,0.527-0.393,0.584
		l-8.266,1.711c-0.322,0.066-0.529,0.381-0.463,0.703C39.022,26.807,39.271,27,39.546,27c0.041,0,0.081-0.004,0.121-0.012
		l5.824-1.205l0.262,0.809c0.046,0.137,0.033,0.281-0.035,0.408c-0.067,0.127-0.182,0.218-0.32,0.256
		c-0.006,0.001-0.013,0.003-0.02,0.005l-10.657,3.288c-0.618,0.153-1.272,0.156-1.892,0.007l-6.207-1.493
		c-0.109-0.025-0.225-0.021-0.332,0.016L0.118,37.98c-0.312,0.105-0.479,0.444-0.372,0.756c0.084,0.248,0.315,0.404,0.563,0.404
		c0.063,0,0.129-0.012,0.191-0.033l26.01-8.846l6.04,1.451c0.812,0.195,1.667,0.191,2.477-0.014c0.01-0.002,0.02-0.006,0.029-0.008
		l10.664-3.29c0.446-0.124,0.827-0.429,1.047-0.838c0.222-0.411,0.264-0.902,0.118-1.343l-0.221-0.68l1.276-0.266
		c0.905-0.199,1.491-1.1,1.307-2.008c-0.004-0.019-0.009-0.037-0.015-0.057l-0.13-0.422c-0.055-0.252-0.155-0.49-0.29-0.701
		C49.063,21.938,49.278,21.713,49.44,21.426z"/>
	<path fill="#424242" d="M17.439,25.588c0.329,0,0.595-0.267,0.595-0.596c0-0.328-0.266-0.596-0.595-0.596h-1.156
		c-0.329,0-0.595,0.268-0.595,0.596c0,0.329,0.266,0.596,0.595,0.596H17.439z"/>
	<path fill="#424242" d="M14.804,28.417c-0.232,0.232-0.232,0.609,0,0.842c0.115,0.116,0.268,0.175,0.42,0.175
		s0.305-0.059,0.422-0.175l0.817-0.817c0.232-0.232,0.232-0.609,0-0.842s-0.61-0.232-0.843,0L14.804,28.417z"/>
	<path fill="#424242" d="M21.738,27.607c0,0.329,0.267,0.596,0.596,0.596h1.156c0.329,0,0.595-0.267,0.595-0.596
		c0-0.328-0.266-0.596-0.595-0.596h-1.156C22.005,27.012,21.738,27.279,21.738,27.607z"/>
	<path fill="#424242" d="M21.243,22.54l-0.818,0.817c-0.232,0.232-0.232,0.609,0,0.842c0.116,0.117,0.269,0.175,0.422,0.175
		c0.152,0,0.305-0.058,0.42-0.175l0.818-0.816c0.232-0.233,0.232-0.61,0-0.843S21.476,22.308,21.243,22.54z"/>
	<path fill="#424242" d="M19.432,27.188l-0.817,0.817c-0.232,0.232-0.232,0.609,0,0.842c0.116,0.117,0.269,0.175,0.421,0.175
		s0.305-0.058,0.421-0.175l0.818-0.816c0.232-0.232,0.232-0.609,0-0.843C20.042,26.956,19.665,26.956,19.432,27.188z"/>
	<path fill="#424242" d="M13.041,26.003c0.116,0.116,0.269,0.175,0.421,0.175s0.305-0.059,0.421-0.175
		c0.232-0.232,0.232-0.609,0-0.843l-0.902-0.901c-0.232-0.232-0.609-0.232-0.842,0s-0.232,0.609,0,0.843L13.041,26.003z"/>
	<path fill="#424242" d="M11.11,28.271l-0.902,0.902c-0.232,0.232-0.232,0.609,0,0.842c0.117,0.116,0.27,0.174,0.422,0.174
		s0.305-0.058,0.421-0.174l0.901-0.902c0.233-0.232,0.233-0.609,0-0.842C11.72,28.039,11.343,28.039,11.11,28.271z"/>
</g>
</svg>
