<?xml version="1.0" encoding="utf-8"?>
<!-- Generator: Adobe Illustrator 15.0.0, SVG Export Plug-In . SVG Version: 6.00 Build 0)  -->
<!DOCTYPE svg PUBLIC "-//W3C//DTD SVG 1.1//EN" "http://www.w3.org/Graphics/SVG/1.1/DTD/svg11.dtd">
<svg version="1.1" id="Layer_1" xmlns="http://www.w3.org/2000/svg" xmlns:xlink="http://www.w3.org/1999/xlink" x="0px" y="0px"
	 width="50px" height="50px" viewBox="0 0 50 50" enable-background="new 0 0 50 50" xml:space="preserve">
<g>
	<path fill="#424242" d="M46.662,17.854c-0.026-0.403-0.117-0.794-0.272-1.166l-3.263-7.83C41.634,5.275,37.653,4,34.426,4H16.61
		C13.39,4,9.408,5.263,7.89,8.809L4.662,16.34c-0.151,0.351-0.245,0.725-0.28,1.108c-2.774,0.798-4.607,3.415-4.359,6.405
		l0.946,11.35c0.108,1.298,0.467,2.541,1.409,3.615c0,0.02,0,0.038,0,0.058v4.713c0,1.56,1.269,2.828,2.828,2.828h4.713
		c1.559,0,2.828-1.269,2.828-2.828v-3.771h24.508v3.771c0,1.56,1.269,2.828,2.827,2.828h4.713c1.561,0,2.828-1.269,2.828-2.828
		v-4.713c0-0.02,0-0.038,0-0.058c0.816-1.074,1.301-2.317,1.409-3.615l0.946-11.35C50.19,21.287,48.878,18.958,46.662,17.854z
		 M9.623,9.551c1.157-2.703,4.369-3.666,6.988-3.666h17.815c2.62,0,5.825,0.973,6.961,3.699l2.587,6.207
		c-0.008,0.014-0.016,0.027-0.022,0.041c-0.512,1.023-2.829,1.361-3.87,1.364h-29.22c-0.029,0-2.82-0.022-3.704-1.896L9.623,9.551z
		 M48.099,23.697l-0.946,11.35c-0.085,1.036-0.51,2.028-1.226,2.872c-0.185,0.217-0.262,0.505-0.209,0.784
		c0.012,0.057,0.02,0.114,0.02,0.173v4.713c0,0.52-0.424,0.942-0.943,0.942h-4.713c-0.52,0-0.942-0.423-0.942-0.942v-4.713
		c0-0.521-0.422-0.942-0.942-0.942H11.804c-0.521,0-0.943,0.422-0.943,0.942v4.713c0,0.52-0.423,0.942-0.942,0.942H5.206
		c-0.52,0-0.943-0.423-0.943-0.942v-4.713c0-0.059,0.008-0.116,0.019-0.173c0.052-0.279-0.024-0.567-0.208-0.784
		c-0.716-0.844-1.141-1.836-1.226-2.872l-0.946-11.35c-0.189-2.27,1.347-4.229,3.572-4.56c0.511-0.076,0.865-0.549,0.795-1.061
		c-0.035-0.258-0.022-0.505,0.038-0.739c1.691,1.719,4.41,1.744,4.554,1.744h29.22c0.364,0,3.057-0.046,4.67-1.333
		c0.037,0.193,0.044,0.396,0.019,0.608c-0.051,0.434,0.202,0.846,0.612,0.996C47.169,20.008,48.261,21.753,48.099,23.697z"/>
	<path fill="#424242" d="M41.495,22.852c-2.339,0-4.241,1.903-4.241,4.242s1.902,4.241,4.241,4.241c2.34,0,4.242-1.902,4.242-4.241
		S43.835,22.852,41.495,22.852z M41.495,29.45c-1.299,0-2.356-1.057-2.356-2.356s1.058-2.356,2.356-2.356s2.357,1.057,2.357,2.356
		S42.794,29.45,41.495,29.45z"/>
	<path fill="#424242" d="M8.504,22.852c-2.339,0-4.242,1.903-4.242,4.242s1.903,4.241,4.242,4.241c2.339,0,4.242-1.902,4.242-4.241
		S10.844,22.852,8.504,22.852z M8.504,29.45c-1.299,0-2.356-1.057-2.356-2.356s1.057-2.356,2.356-2.356s2.356,1.057,2.356,2.356
		S9.804,29.45,8.504,29.45z"/>
	<path fill="#424242" d="M31.599,23.795H18.402c-1.048,0-1.959,0.43-2.499,1.18c-0.541,0.749-0.66,1.749-0.329,2.743l1.039,3.118
		c0.622,1.865,2.649,3.327,4.616,3.327h7.541c1.967,0,3.994-1.462,4.616-3.327l1.039-3.118c0.331-0.994,0.212-1.994-0.329-2.743
		C33.558,24.225,32.646,23.795,31.599,23.795z M32.638,27.121l-1.039,3.119c-0.363,1.085-1.684,2.038-2.828,2.038h-7.541
		c-1.144,0-2.465-0.953-2.828-2.038l-1.04-3.119c-0.139-0.418-0.115-0.789,0.07-1.045c0.184-0.256,0.529-0.396,0.97-0.396h13.197
		c0.44,0,0.785,0.141,0.969,0.396C32.753,26.332,32.776,26.703,32.638,27.121z"/>
</g>
</svg>
