<?xml version="1.0" encoding="utf-8"?>
<!-- Generator: Adobe Illustrator 15.0.0, SVG Export Plug-In . SVG Version: 6.00 Build 0)  -->
<!DOCTYPE svg PUBLIC "-//W3C//DTD SVG 1.1//EN" "http://www.w3.org/Graphics/SVG/1.1/DTD/svg11.dtd">
<svg version="1.1" id="Layer_1" xmlns="http://www.w3.org/2000/svg" xmlns:xlink="http://www.w3.org/1999/xlink" x="0px" y="0px"
	 width="50px" height="50px" viewBox="0 0 50 50" enable-background="new 0 0 50 50" xml:space="preserve">
<g>
	<path fill="#424242" d="M46.741,38.264l3.228-12.1c0.131-0.494-0.163-1.001-0.657-1.132c-0.497-0.137-1.002,0.162-1.134,0.656
		l-3.227,12.1c-0.153,0.576-0.837,1.102-1.434,1.102h-6.481c-0.51,0-0.926-0.415-0.926-0.926s0.416-0.926,0.926-0.926h6.481
		c0.512,0,0.926-0.414,0.926-0.926s-0.414-0.926-0.926-0.926h-6.481c-1.532,0-2.778,1.246-2.778,2.777
		c0,1.217,0.793,2.242,1.885,2.617c-0.01,0.054-0.032,0.104-0.032,0.161v8.333c0,0.512,0.414,0.926,0.926,0.926
		s0.926-0.414,0.926-0.926v-8.333h5.556c0.001,0,0.002,0,0.004,0c0,0.125,0.021,0.253,0.075,0.376l3.704,8.333
		c0.153,0.346,0.492,0.55,0.847,0.55c0.126,0,0.253-0.025,0.376-0.079c0.467-0.208,0.678-0.756,0.47-1.223l-3.703-8.334
		c-0.021-0.049-0.061-0.082-0.09-0.125C45.937,39.79,46.523,39.083,46.741,38.264z"/>
	<path fill="#424242" d="M12.962,35.186H6.48c-0.511,0-0.926,0.414-0.926,0.926s0.415,0.926,0.926,0.926h6.481
		c0.51,0,0.926,0.415,0.926,0.926s-0.416,0.926-0.926,0.926H6.48c-0.597,0-1.28-0.525-1.434-1.102l-3.227-12.1
		c-0.132-0.494-0.637-0.792-1.134-0.656c-0.494,0.131-0.788,0.638-0.656,1.132l3.227,12.1c0.218,0.819,0.805,1.527,1.541,1.976
		c-0.029,0.043-0.067,0.076-0.089,0.125l-3.704,8.334c-0.208,0.467,0.003,1.015,0.47,1.223C1.597,49.975,1.725,50,1.851,50
		c0.354,0,0.693-0.205,0.846-0.55L6.4,41.117c0.055-0.123,0.077-0.376,0.077-0.376c0,0,0.002,0,0.003,0h5.556v8.333
		c0,0.512,0.415,0.926,0.926,0.926s0.926-0.414,0.926-0.926V40.57c1.076-0.384,1.852-1.402,1.852-2.607
		C15.74,36.432,14.494,35.186,12.962,35.186z"/>
	<path fill="#424242" d="M32.406,48.148c-2.193,0-5.555-4.148-5.555-9.26c0-4.412,3.952-8.317,4.979-9.26h4.279
		c0.512,0,0.926-0.414,0.926-0.926s-0.414-0.926-0.926-0.926H13.888c-0.511,0-0.926,0.414-0.926,0.926s0.415,0.926,0.926,0.926
		h4.279c1.028,0.938,4.98,4.833,4.98,9.26c0,5.111-3.362,9.26-5.555,9.26c-0.512,0-0.926,0.414-0.926,0.926S17.08,50,17.592,50
		c3.334,0,7.407-5.127,7.407-11.111c0-3.927-2.48-7.34-4.224-9.26h8.447c-1.743,1.92-4.224,5.333-4.224,9.26
		c0,5.984,4.072,11.111,7.407,11.111c0.512,0,0.926-0.414,0.926-0.926S32.918,48.148,32.406,48.148z"/>
	<path fill="#424242" d="M4.628,16.667h3.704c1.105,0,2.099-0.486,2.778-1.257c0.679,0.771,1.672,1.257,2.777,1.257h3.704
		c1.105,0,2.099-0.486,2.777-1.257c0.679,0.771,1.673,1.257,2.778,1.257h0.926V25c0,0.512,0.415,0.926,0.926,0.926
		c0.512,0,0.926-0.414,0.926-0.926v-8.333h0.927c1.104,0,2.098-0.486,2.777-1.257c0.679,0.771,1.673,1.257,2.777,1.257h3.704
		c1.104,0,2.099-0.486,2.777-1.257c0.68,0.771,1.673,1.257,2.778,1.257h3.703c2.042,0,3.704-1.661,3.704-3.704
		c0-0.369-0.219-0.703-0.558-0.849L25.925,2.316V0.926C25.925,0.414,25.511,0,24.999,0c-0.511,0-0.926,0.414-0.926,0.926v1.391
		L1.482,12.114c-0.339,0.146-0.558,0.48-0.558,0.849C0.925,15.005,2.586,16.667,4.628,16.667z M24.999,3.934l22.133,9.598
		c-0.24,0.744-0.939,1.283-1.763,1.283h-3.703c-1.022,0-1.853-0.831-1.853-1.852c0-0.512-0.414-0.926-0.926-0.926
		s-0.926,0.414-0.926,0.926c0,1.021-0.83,1.852-1.852,1.852h-3.704c-1.021,0-1.852-0.831-1.852-1.852
		c0-0.512-0.414-0.926-0.926-0.926s-0.926,0.414-0.926,0.926c0,1.021-0.83,1.852-1.852,1.852h-3.705
		c-1.021,0-1.852-0.831-1.852-1.852c0-0.512-0.415-0.926-0.926-0.926c-0.511,0-0.926,0.414-0.926,0.926
		c0,1.021-0.831,1.852-1.852,1.852h-3.704c-1.021,0-1.852-0.831-1.852-1.852c0-0.512-0.415-0.926-0.926-0.926
		c-0.512,0-0.926,0.414-0.926,0.926c0,1.021-0.831,1.852-1.852,1.852H4.628c-0.823,0-1.521-0.539-1.762-1.283L24.999,3.934z"/>
</g>
</svg>
