<?xml version="1.0" encoding="utf-8"?>
<!-- Generator: Adobe Illustrator 15.0.0, SVG Export Plug-In . SVG Version: 6.00 Build 0)  -->
<!DOCTYPE svg PUBLIC "-//W3C//DTD SVG 1.1//EN" "http://www.w3.org/Graphics/SVG/1.1/DTD/svg11.dtd">
<svg version="1.1" id="Layer_1" xmlns="http://www.w3.org/2000/svg" xmlns:xlink="http://www.w3.org/1999/xlink" x="0px" y="0px"
	 width="50px" height="50px" viewBox="0 0 50 50" enable-background="new 0 0 50 50" xml:space="preserve">
<path id="_x31_4" fill="#424242" d="M34.99,19.493c-0.365-0.09-0.734,0.133-0.824,0.499l-0.445,1.816
	c-0.758,0.365-2.842,1.368-4.345,2.097c-0.988,0.48-1.599,1.135-1.814,1.947c-0.108,0.41-0.108,0.85-0.004,1.309H26.25v-9.005h1.891
	c0.049,0.079,0.1,0.158,0.154,0.237c0.725,1.057,1.771,1.688,2.801,1.688l0,0c0.756,0,1.492-0.331,2.13-0.958
	c1.739-1.705,1.771-6.27,1.762-7.13l0.503-2.044c0.089-0.365-0.135-0.734-0.5-0.824s-0.734,0.134-0.824,0.499l-0.445,1.817
	c-0.758,0.364-2.842,1.368-4.345,2.097c-0.988,0.48-1.599,1.135-1.814,1.947c-0.108,0.409-0.108,0.849-0.004,1.308H26.25v-4.055
	c0-0.127-0.035-0.246-0.096-0.347c1.869-0.196,2.815-1.373,2.815-3.506c0-2.218-2.108-5.02-2.72-5.786V0.681
	C26.25,0.305,25.945,0,25.568,0c-0.376,0-0.682,0.305-0.682,0.681v2.417c-0.61,0.766-2.719,3.568-2.719,5.786
	c0,2.134,0.947,3.311,2.815,3.506c-0.06,0.102-0.097,0.22-0.097,0.347v4.055h-1.355c0.104-0.459,0.104-0.899-0.004-1.308
	c-0.215-0.812-0.826-1.467-1.815-1.947c-1.502-0.729-3.586-1.732-4.344-2.097l-0.446-1.817c-0.09-0.365-0.459-0.589-0.824-0.499
	c-0.366,0.09-0.589,0.458-0.499,0.824l0.502,2.044c-0.01,0.861,0.023,5.426,1.761,7.13c0.639,0.626,1.375,0.958,2.13,0.958
	c1.029,0,2.076-0.631,2.801-1.688c0.054-0.079,0.105-0.158,0.154-0.237h1.938v9.005h-1.355c0.104-0.459,0.104-0.898-0.004-1.308
	c-0.215-0.812-0.826-1.467-1.815-1.948c-1.502-0.729-3.586-1.732-4.344-2.097l-0.446-1.816c-0.09-0.366-0.459-0.589-0.824-0.499
	c-0.366,0.089-0.589,0.458-0.499,0.824l0.502,2.044c-0.01,0.861,0.023,5.426,1.761,7.13c0.639,0.627,1.375,0.958,2.13,0.958
	c1.029,0,2.076-0.631,2.801-1.688c0.054-0.078,0.105-0.158,0.154-0.236h1.938v9.006h-1.355c0.104-0.46,0.104-0.9-0.004-1.309
	c-0.215-0.812-0.826-1.468-1.815-1.947c-1.502-0.729-3.586-1.732-4.344-2.098l-0.446-1.816c-0.09-0.365-0.459-0.589-0.824-0.499
	c-0.366,0.09-0.589,0.459-0.499,0.824l0.502,2.044c-0.01,0.86,0.023,5.426,1.761,7.131c0.639,0.626,1.375,0.957,2.13,0.957
	c1.029,0,2.076-0.631,2.801-1.688c0.054-0.079,0.105-0.158,0.154-0.237h1.938v10.428c0,0.377,0.306,0.682,0.682,0.682
	c0.377,0,0.682-0.305,0.682-0.682V38.891h1.891c0.049,0.079,0.1,0.158,0.154,0.237c0.725,1.058,1.771,1.688,2.801,1.688l0,0
	c0.756,0,1.492-0.331,2.13-0.957c1.739-1.705,1.771-6.271,1.762-7.131l0.503-2.044c0.089-0.365-0.135-0.734-0.5-0.824
	s-0.734,0.134-0.824,0.499l-0.445,1.816c-0.758,0.365-2.842,1.368-4.345,2.098c-0.988,0.479-1.599,1.135-1.814,1.947
	c-0.108,0.408-0.108,0.849-0.004,1.309H26.25v-9.006h1.891c0.049,0.078,0.1,0.158,0.154,0.236c0.725,1.058,1.771,1.688,2.801,1.688
	l0,0c0.756,0,1.492-0.331,2.13-0.958c1.739-1.704,1.771-6.269,1.762-7.13l0.503-2.044C35.579,19.951,35.355,19.582,34.99,19.493z
	 M28.879,15.833c0.109-0.411,0.477-0.771,1.092-1.07c1.157-0.562,2.66-1.286,3.635-1.755c-0.076,1.675-0.391,4.218-1.334,5.143
	c-0.383,0.376-0.779,0.567-1.176,0.567c-0.58,0-1.207-0.41-1.678-1.096C29.085,17.135,28.721,16.43,28.879,15.833z M23.53,8.884
	c0-1.365,1.2-3.296,2.038-4.437c0.839,1.141,2.039,3.072,2.039,4.437c0,1.81-0.779,2.173-2.039,2.173
	C24.311,11.058,23.53,10.694,23.53,8.884z M19.994,18.718c-0.396,0-0.792-0.191-1.176-0.567c-0.941-0.923-1.256-3.467-1.333-5.143
	c0.975,0.469,2.478,1.194,3.634,1.755c0.616,0.299,0.983,0.659,1.093,1.07c0.158,0.597-0.207,1.302-0.54,1.789
	C21.2,18.308,20.573,18.718,19.994,18.718z M19.994,29.086c-0.396,0-0.792-0.191-1.176-0.568c-0.941-0.922-1.256-3.466-1.333-5.142
	c0.975,0.47,2.478,1.194,3.634,1.755c0.616,0.299,0.983,0.659,1.093,1.07c0.158,0.597-0.207,1.302-0.54,1.789
	C21.2,28.676,20.573,29.086,19.994,29.086z M19.994,39.454c-0.396,0-0.792-0.191-1.176-0.567c-0.941-0.924-1.256-3.468-1.333-5.143
	c0.975,0.469,2.478,1.193,3.634,1.754c0.616,0.3,0.983,0.66,1.093,1.071c0.158,0.597-0.207,1.302-0.54,1.788
	C21.2,39.044,20.573,39.454,19.994,39.454z M28.879,36.569c0.109-0.411,0.477-0.771,1.092-1.071c1.157-0.561,2.66-1.285,3.635-1.755
	c-0.076,1.675-0.391,4.218-1.334,5.144c-0.383,0.376-0.779,0.567-1.176,0.567c-0.58,0-1.207-0.41-1.678-1.097
	C29.085,37.871,28.721,37.166,28.879,36.569z M32.271,28.518c-0.383,0.377-0.779,0.568-1.176,0.568c-0.58,0-1.207-0.41-1.678-1.096
	c-0.333-0.487-0.697-1.192-0.539-1.789c0.109-0.411,0.477-0.771,1.092-1.07c1.157-0.562,2.66-1.286,3.635-1.756
	C33.529,25.05,33.215,27.594,32.271,28.518z"/>
</svg>
