<?xml version="1.0" encoding="utf-8"?>
<!-- Generator: Adobe Illustrator 15.0.0, SVG Export Plug-In . SVG Version: 6.00 Build 0)  -->
<!DOCTYPE svg PUBLIC "-//W3C//DTD SVG 1.1//EN" "http://www.w3.org/Graphics/SVG/1.1/DTD/svg11.dtd">
<svg version="1.1" id="Layer_1" xmlns="http://www.w3.org/2000/svg" xmlns:xlink="http://www.w3.org/1999/xlink" x="0px" y="0px"
	 width="50px" height="50px" viewBox="0 0 50 50" enable-background="new 0 0 50 50" xml:space="preserve">
<path fill="#424242" d="M25,0c13.082,0,23.727,10.643,23.727,23.726v25.312c0,0.53-0.432,0.962-0.963,0.962H2.236
	c-0.531,0-0.961-0.432-0.961-0.962V23.726C1.274,10.643,11.917,0,25,0L25,0z M14.611,48.076H35.39l-0.733-1.771H15.344
	L14.611,48.076L14.611,48.076z M32.654,40.166c2.838,0,5.146-2.308,5.146-5.146V15.372c0-2.837-2.309-5.145-5.146-5.145H17.346
	c-2.838,0-5.147,2.308-5.147,5.145v19.648c0,2.838,2.309,5.146,5.147,5.146H32.654L32.654,40.166z M33.86,44.382l-0.956-2.305
	H17.095l-0.954,2.305H33.86L33.86,44.382z M46.802,48.076V23.726c0-12.021-9.779-21.802-21.802-21.802
	c-12.021,0-21.802,9.781-21.802,21.802v24.351h9.332l2.625-6.338c-2.829-0.925-4.879-3.586-4.879-6.718V15.372
	c0-3.896,3.172-7.068,7.07-7.068h15.309c3.898,0,7.07,3.172,7.07,7.068v19.648c0,3.132-2.051,5.793-4.879,6.718l2.625,6.338H46.802
	L46.802,48.076z M33.943,23.621v-4.995c0-0.816-0.666-1.481-1.482-1.481H17.539c-0.817,0-1.482,0.665-1.482,1.481v4.995
	c0,0.817,0.665,1.481,1.482,1.481h14.922C33.277,25.103,33.943,24.438,33.943,23.621L33.943,23.621z M32.461,15.221
	c1.879,0,3.405,1.528,3.405,3.405v4.995c0,1.878-1.526,3.404-3.405,3.404H17.539c-1.877,0-3.405-1.526-3.405-3.404v-4.995
	c0-1.877,1.528-3.405,3.405-3.405H32.461L32.461,15.221z M32.965,31.869c1.6,0,2.901,1.301,2.901,2.901c0,1.599-1.302,2.9-2.901,2.9
	s-2.9-1.302-2.9-2.9C30.064,33.17,31.365,31.869,32.965,31.869L32.965,31.869z M32.965,35.747c0.539,0,0.979-0.438,0.979-0.977
	c0-0.54-0.439-0.979-0.979-0.979s-0.978,0.438-0.978,0.979C31.987,35.309,32.426,35.747,32.965,35.747L32.965,35.747z
	 M17.035,31.869c1.599,0,2.901,1.301,2.901,2.901c0,1.599-1.302,2.9-2.901,2.9c-1.6,0-2.901-1.302-2.901-2.9
	C14.134,33.17,15.436,31.869,17.035,31.869L17.035,31.869z M17.035,35.747c0.539,0,0.978-0.438,0.978-0.977
	c0-0.54-0.438-0.979-0.978-0.979c-0.54,0-0.978,0.438-0.978,0.979C16.057,35.309,16.496,35.747,17.035,35.747L17.035,35.747z
	 M27.898,35.747c0.531,0,0.962,0.431,0.962,0.962s-0.431,0.962-0.962,0.962h-5.797c-0.531,0-0.962-0.431-0.962-0.962
	s0.431-0.962,0.962-0.962H27.898L27.898,35.747z M27.898,32.44c0.531,0,0.962,0.431,0.962,0.963c0,0.529-0.431,0.961-0.962,0.961
	h-5.797c-0.531,0-0.962-0.432-0.962-0.961c0-0.532,0.431-0.963,0.962-0.963H27.898L27.898,32.44z"/>
</svg>
