<?xml version="1.0" encoding="utf-8"?>
<!-- Generator: Adobe Illustrator 15.0.0, SVG Export Plug-In . SVG Version: 6.00 Build 0)  -->
<!DOCTYPE svg PUBLIC "-//W3C//DTD SVG 1.1//EN" "http://www.w3.org/Graphics/SVG/1.1/DTD/svg11.dtd">
<svg version="1.1" id="Layer_1" xmlns="http://www.w3.org/2000/svg" xmlns:xlink="http://www.w3.org/1999/xlink" x="0px" y="0px"
	 width="50px" height="50px" viewBox="0 0 50 50" enable-background="new 0 0 50 50" xml:space="preserve">
<g>
	<path fill="#424242" d="M15.639,28.04c-2.315,0-4.199,1.883-4.199,4.198c0,2.316,1.884,4.199,4.199,4.199
		c2.316,0,4.2-1.883,4.2-4.199C19.839,29.923,17.956,28.04,15.639,28.04z M15.639,34.586c-1.294,0-2.347-1.054-2.347-2.348
		s1.053-2.346,2.347-2.346c1.295,0,2.348,1.052,2.348,2.346S16.934,34.586,15.639,34.586z"/>
	<path fill="#424242" d="M37.674,2.754c-1.614-0.36-3.213-0.53-4.758-0.694c-0.285-0.03-0.57-0.061-0.857-0.091
		C31.104,0.711,29.543,0,27.701,0H22.34c-1.884,0-3.47,0.712-4.428,1.971c-1.811,0.21-3.61,0.447-5.556,0.88
		c-3.228,0.764-5.854,4.178-5.854,7.611v24.904c0,3.483,2.626,6.94,5.866,7.708c4.193,0.935,8.461,1.408,12.688,1.408
		s8.495-0.474,12.699-1.412c3.189-0.754,5.785-4.211,5.785-7.704V10.462C43.539,6.977,40.912,3.52,37.674,2.754z M41.688,35.366
		c0,2.352-1.752,5.285-4.349,5.899c-8.12,1.812-16.459,1.809-24.556,0.004c-2.401-0.568-4.429-3.271-4.429-5.903v-17
		c1.038,1.547,2.451,3.04,4.085,4.767c0.466,0.493,0.954,1.008,1.462,1.554c0.569,0.609,1.767,1.239,2.786,1.239h16.667
		c1.019,0,2.216-0.627,2.788-1.237c0.526-0.566,1.032-1.1,1.515-1.608c1.611-1.699,3.004-3.167,4.031-4.696V35.366z M8.356,12.988
		c0.077-0.211,0.433-0.631,0.713-0.674c6.022-0.886,11.105-1.3,15.999-1.3c4.877,0,9.93,0.41,15.894,1.287
		c0.281,0.043,0.646,0.477,0.724,0.687c-0.17,3.331-2.244,5.519-5.373,8.818c-0.486,0.514-0.997,1.051-1.523,1.619
		c-0.275,0.293-0.99,0.649-1.436,0.649H16.687c-0.444,0-1.159-0.358-1.431-0.649c-0.511-0.55-1.002-1.069-1.472-1.565
		C10.623,18.521,8.527,16.305,8.356,12.988z M41.688,10.592c-0.146-0.056-0.297-0.098-0.45-0.122
		c-6.062-0.892-11.198-1.308-16.169-1.308c-4.986,0-10.155,0.418-16.273,1.32c-0.15,0.022-0.298,0.062-0.44,0.115v-0.136
		c0-2.581,2.028-5.241,4.417-5.806c1.996-0.444,3.869-0.675,5.771-0.893l0.451-0.052l0.235-0.387
		c0.569-0.935,1.703-1.472,3.112-1.472h5.361c1.384,0,2.465,0.522,3.043,1.472l0.235,0.387l0.45,0.051
		c0.434,0.05,0.863,0.096,1.291,0.141c1.562,0.166,3.039,0.322,4.537,0.656c2.401,0.568,4.43,3.271,4.43,5.903V10.592z"/>
	<path fill="#424242" d="M34.402,28.04c-2.316,0-4.201,1.883-4.201,4.198c0,2.316,1.885,4.199,4.201,4.199
		c2.314,0,4.199-1.883,4.199-4.199C38.602,29.923,36.717,28.04,34.402,28.04z M34.402,34.586c-1.295,0-2.349-1.054-2.349-2.348
		s1.054-2.346,2.349-2.346c1.294,0,2.347,1.052,2.347,2.346S35.696,34.586,34.402,34.586z"/>
	<path fill="#424242" d="M34.935,45.642c-0.362-0.362-0.948-0.362-1.31,0s-0.361,0.948,0,1.31l2.777,2.777
		C36.584,49.91,36.82,50,37.058,50s0.474-0.09,0.655-0.271c0.361-0.361,0.361-0.947,0-1.309L34.935,45.642z"/>
	<path fill="#424242" d="M15.106,45.642l-2.778,2.778c-0.361,0.361-0.361,0.947,0,1.309C12.51,49.91,12.747,50,12.983,50
		s0.474-0.09,0.655-0.271l2.778-2.777c0.362-0.361,0.362-0.947,0-1.31S15.468,45.279,15.106,45.642z"/>
</g>
</svg>
