<?xml version="1.0" encoding="utf-8"?>
<!-- Generator: Adobe Illustrator 15.0.0, SVG Export Plug-In . SVG Version: 6.00 Build 0)  -->
<!DOCTYPE svg PUBLIC "-//W3C//DTD SVG 1.1//EN" "http://www.w3.org/Graphics/SVG/1.1/DTD/svg11.dtd">
<svg version="1.1" id="Layer_1" xmlns="http://www.w3.org/2000/svg" xmlns:xlink="http://www.w3.org/1999/xlink" x="0px" y="0px"
	 width="50px" height="50px" viewBox="0 0 50 50" enable-background="new 0 0 50 50" xml:space="preserve">
<g>
	<path fill="#424242" d="M2.993,22.051l14.075,4.251c0.09,0.025,0.181,0.04,0.271,0.04c0.401-0.002,0.772-0.262,0.895-0.666
		c0.149-0.494-0.13-1.017-0.625-1.167L3.93,20.379l1.023-1.34c0.147-0.193,0.575-0.424,0.819-0.44l18.795-1.264
		c0.515-0.035,0.905-0.48,0.87-0.997c-0.034-0.514-0.476-0.907-0.996-0.871L5.646,16.733c-0.787,0.052-1.705,0.545-2.182,1.173
		l-1.273,1.669c-0.337,0.442-0.44,0.974-0.283,1.459C2.065,21.518,2.46,21.889,2.993,22.051z"/>
	<path fill="#424242" d="M49.675,38.78l-9.941-18.158l7.644-10.33c2.424-3.175,3.032-6.754,1.433-8.309
		c-0.077-0.078-0.341-0.333-0.649-0.497c-0.441-0.274-1.066-0.407-1.907-0.407c-2.842,0-8.364,1.604-10.213,4.028L19.067,27.681
		c-0.495,0.65-3.633,4.92-6.051,8.76l-9.329,1.255c-0.76,0.103-1.649,0.619-2.113,1.228l-1.273,1.668
		c-0.333,0.437-0.439,0.967-0.292,1.454c0.148,0.486,0.531,0.868,1.051,1.045l7.058,2.417c-0.142,0.409-0.173,0.854,0.097,1.25
		c0.537,0.789,1.548,1.224,2.849,1.224c0.363,0,0.61-0.035,0.61-0.035c5.866-0.789,13.489-8.206,14.597-9.66l3.057-4.01
		c0.496-0.57,1.115-0.858,1.838-0.858c0.23,0,0.419,0.031,0.533,0.057l13.894,9.947c0.8,0.571,2.022,0.389,2.618-0.394l1.271-1.667
		C50.014,40.662,50.098,39.553,49.675,38.78z M47.993,40.226L46.681,41.9L32.647,31.852l-0.257-0.13
		c-0.305-0.099-2.592-0.837-4.512,1.372l-3.096,4.058c-0.9,1.18-8.076,8.229-13.356,8.94c-0.022,0.001-0.163,0.018-0.364,0.018
		c-0.445,0-0.823-0.076-1.068-0.208c0.055-0.097,0.133-0.225,0.247-0.388l0.704-1.016l-8.937-3.062l1.053-1.379
		c0.161-0.212,0.611-0.474,0.875-0.508l10.201-1.374l0.233-0.373c2.407-3.871,5.683-8.328,6.189-8.993L37.53,6.237
		c1.268-1.662,6.067-3.287,8.723-3.287c0.711,0,0.919,0.125,0.919,0.126l0.112,0.064c0.04,0.021,0.135,0.1,0.206,0.171
		c0.67,0.651,0.38,3.252-1.607,5.858l-8.364,11.303l10.516,19.206C48.104,39.804,48.081,40.112,47.993,40.226z"/>
	<path fill="#424242" d="M40.674,9.315c0.205,0.13,0.44,0.196,0.688,0.196c0.104,0,0.211-0.012,0.316-0.036
		c1.2-0.274,2.714-2.468,3.511-3.752c0.272-0.438,0.136-1.016-0.304-1.288s-1.016-0.136-1.287,0.303
		c-0.798,1.286-1.804,2.55-2.264,2.865c-0.361-0.062-0.739,0.093-0.947,0.42C40.109,8.459,40.237,9.037,40.674,9.315z"/>
</g>
</svg>
