<?xml version="1.0" encoding="utf-8"?>
<!-- Generator: Adobe Illustrator 15.0.0, SVG Export Plug-In . SVG Version: 6.00 Build 0)  -->
<!DOCTYPE svg PUBLIC "-//W3C//DTD SVG 1.1//EN" "http://www.w3.org/Graphics/SVG/1.1/DTD/svg11.dtd">
<svg version="1.1" id="Layer_1" xmlns="http://www.w3.org/2000/svg" xmlns:xlink="http://www.w3.org/1999/xlink" x="0px" y="0px"
	 width="50px" height="50px" viewBox="0 0 50 50" enable-background="new 0 0 50 50" xml:space="preserve">
<g>
	<path fill="#424242" d="M9.259,37.037h22.223c2.553,0,4.63-2.077,4.63-4.63v-15.74c0-2.553-2.077-4.63-4.63-4.63h-4.601
		c-0.206-0.044-0.834-0.456-1.325-1.11L25,10.185c-0.792-1.056-2.385-1.852-3.704-1.852h-1.852c-1.319,0-2.911,0.796-3.704,1.853
		l-0.555,0.74c-0.495,0.66-1.13,1.076-1.297,1.111h-0.926H9.259c-2.552,0-4.629,2.077-4.629,4.63v15.74
		C4.63,34.96,6.707,37.037,9.259,37.037z M34.259,32.407c0,1.532-1.245,2.778-2.777,2.778H9.259c-1.531,0-2.777-1.246-2.777-2.778
		V20.37h27.777V32.407z M17.222,11.297c0.436-0.582,1.496-1.111,2.223-1.111h1.852c0.728,0,1.787,0.529,2.222,1.11l0.556,0.741
		h-7.405L17.222,11.297z M6.481,16.667c0-1.532,1.246-2.778,2.777-2.778h3.704h0.926h12.963h0.926h3.704
		c1.532,0,2.777,1.246,2.777,2.778v1.852H6.481V16.667z"/>
	<path fill="#424242" d="M12.963,34.259c0.512,0,0.926-0.414,0.926-0.926v-11.11c0-0.513-0.414-0.927-0.926-0.927
		s-0.926,0.414-0.926,0.927v11.11C12.037,33.845,12.451,34.259,12.963,34.259z"/>
	<path fill="#424242" d="M27.777,34.259c0.512,0,0.927-0.414,0.927-0.926v-11.11c0-0.513-0.415-0.927-0.927-0.927
		s-0.926,0.414-0.926,0.927v11.11C26.852,33.845,27.266,34.259,27.777,34.259z"/>
	<path fill="#424242" d="M8.333,42.593c-2.042,0-3.703,1.661-3.703,3.703C4.63,48.339,6.291,50,8.333,50
		c2.043,0,3.704-1.661,3.704-3.704C12.037,44.254,10.376,42.593,8.333,42.593z M8.333,48.148c-1.021,0-1.852-0.831-1.852-1.853
		c0-1.021,0.831-1.852,1.852-1.852c1.021,0,1.853,0.831,1.853,1.852C10.186,47.317,9.354,48.148,8.333,48.148z"/>
	<path fill="#424242" d="M35.186,42.593c-2.043,0-3.704,1.661-3.704,3.703c0,2.043,1.661,3.704,3.704,3.704
		c2.042,0,3.703-1.661,3.703-3.704C38.889,44.254,37.228,42.593,35.186,42.593z M35.186,48.148c-1.021,0-1.853-0.831-1.853-1.853
		c0-1.021,0.831-1.852,1.853-1.852c1.021,0,1.852,0.831,1.852,1.852C37.037,47.317,36.206,48.148,35.186,48.148z"/>
	<path fill="#424242" d="M49.074,0h-3.241c-2.297,0-4.166,2.077-4.166,4.63v32.407c0,1.531-1.246,2.777-2.778,2.777H0.926
		C0.414,39.814,0,40.229,0,40.74c0,0.513,0.414,0.927,0.926,0.927h37.963c2.553,0,4.63-2.077,4.63-4.63V4.63
		c0-1.532,1.038-2.778,2.314-2.778h3.241C49.586,1.852,50,1.438,50,0.926S49.586,0,49.074,0z"/>
</g>
</svg>
