<?xml version="1.0" encoding="utf-8"?>
<!-- Generator: Adobe Illustrator 15.0.0, SVG Export Plug-In . SVG Version: 6.00 Build 0)  -->
<!DOCTYPE svg PUBLIC "-//W3C//DTD SVG 1.1//EN" "http://www.w3.org/Graphics/SVG/1.1/DTD/svg11.dtd">
<svg version="1.1" id="Layer_1" xmlns="http://www.w3.org/2000/svg" xmlns:xlink="http://www.w3.org/1999/xlink" x="0px" y="0px"
	 width="50px" height="50px" viewBox="0 0 50 50" enable-background="new 0 0 50 50" xml:space="preserve">
<g>
	<path fill="#424242" d="M45.37,7.481H35.186h-1.389c-0.314,0-0.984-0.479-1.268-1.141L31.21,3.264C30.666,1.994,29.159,1,27.777,1
		h-6.481c-1.381,0-2.889,0.994-3.432,2.263l-1.32,3.078c-0.283,0.662-0.954,1.141-1.267,1.141h-1.389H4.629
		C2.077,7.481,0,9.559,0,12.111V41.74c0,2.553,2.077,4.631,4.629,4.631H45.37c2.553,0,4.63-2.078,4.63-4.631V12.111
		C50,9.559,47.923,7.481,45.37,7.481z M18.247,7.07l1.32-3.078c0.255-0.597,1.08-1.141,1.73-1.141h6.481
		c0.65,0,1.475,0.543,1.73,1.141l1.318,3.077c0.062,0.142,0.135,0.278,0.212,0.412H18.036C18.113,7.348,18.186,7.212,18.247,7.07z
		 M4.629,9.333h9.259h1.389h18.519h1.389H45.37c1.532,0,2.778,1.246,2.778,2.778v6.481H1.852v-6.481
		C1.852,10.58,3.098,9.333,4.629,9.333z M45.37,44.519H4.629c-1.532,0-2.777-1.246-2.777-2.778V20.444h46.296V41.74
		C48.148,43.272,46.902,44.519,45.37,44.519z"/>
	<path fill="#424242" d="M12.963,48.223H7.407c-0.511,0-0.926,0.414-0.926,0.926s0.415,0.926,0.926,0.926h5.556
		c0.511,0,0.926-0.414,0.926-0.926S13.474,48.223,12.963,48.223z"/>
	<path fill="#424242" d="M42.593,48.223h-5.556c-0.512,0-0.926,0.414-0.926,0.926s0.414,0.926,0.926,0.926h5.556
		c0.511,0,0.926-0.414,0.926-0.926S43.104,48.223,42.593,48.223z"/>
	<path fill="#424242" d="M12.963,22.296c-0.511,0-0.926,0.415-0.926,0.926V41.74c0,0.512,0.415,0.926,0.926,0.926
		s0.926-0.414,0.926-0.926V23.222C13.889,22.711,13.474,22.296,12.963,22.296z"/>
	<path fill="#424242" d="M37.037,22.296c-0.512,0-0.926,0.415-0.926,0.926V41.74c0,0.512,0.414,0.926,0.926,0.926
		s0.926-0.414,0.926-0.926V23.222C37.963,22.711,37.549,22.296,37.037,22.296z"/>
</g>
</svg>
