<?xml version="1.0" encoding="utf-8"?>
<!-- Generator: Adobe Illustrator 15.0.0, SVG Export Plug-In . SVG Version: 6.00 Build 0)  -->
<!DOCTYPE svg PUBLIC "-//W3C//DTD SVG 1.1//EN" "http://www.w3.org/Graphics/SVG/1.1/DTD/svg11.dtd">
<svg version="1.1" id="Layer_1" xmlns="http://www.w3.org/2000/svg" xmlns:xlink="http://www.w3.org/1999/xlink" x="0px" y="0px"
	 width="50px" height="50px" viewBox="0 0 50 50" enable-background="new 0 0 50 50" xml:space="preserve">
<g>
	<path fill="#424242" d="M49.537,30.202c-0.231-0.56-0.934-1.498-3.036-1.498V6.481C46.501,2.848,43.248,0,39.094,0
		s-7.408,2.848-7.408,6.481v1.045c-2.729,0.665-3.635,4.124-3.676,4.286c-0.068,0.277-0.007,0.57,0.169,0.794
		c0.175,0.226,0.444,0.356,0.729,0.356h7.407c0.007,0,0.014,0,0.019,0c0.512,0,0.926-0.414,0.926-0.926
		c0-0.152-0.036-0.296-0.102-0.422c-0.232-0.774-1.225-3.511-3.62-4.092V6.481c0-2.596,2.44-4.63,5.556-4.63s5.555,2.034,5.555,4.63
		v22.223H26.13c-1.917,0-5.052-0.569-6.846-1.242l-0.472-0.177c-1.998-0.75-5.362-1.359-7.497-1.359H3.908
		c-2.23,0-3.056,0.996-3.35,1.589c-0.418,0.843-0.293,1.869,0.325,2.679c0.759,0.997,1.305,1.833,1.368,1.963
		c0.022,0.085,0.078,0.231,0.167,0.446C2.6,33.039,2.94,33.851,3.31,35.255l1.097,4.026c1.119,3.648,4.063,5.119,6.506,5.707
		c-0.488,0.479-0.982,1.08-1.352,1.82c-0.619,1.236-1.76,1.34-2.875,1.34c-0.512,0-0.926,0.414-0.926,0.926S6.174,50,6.686,50
		c1.003,0,3.35,0,4.532-2.363c0.641-1.281,1.831-2.054,2.227-2.285c0.247,0.013,0.473,0.019,0.649,0.019h23.829
		c0.42,0.251,1.571,1.019,2.195,2.267C41.299,50,43.646,50,44.648,50c0.512,0,0.926-0.414,0.926-0.926s-0.414-0.926-0.926-0.926
		c-1.115,0-2.256-0.104-2.875-1.34c-0.293-0.586-0.664-1.081-1.048-1.503c2.22-0.315,4.248-2.053,4.79-4.232l0.975-3.923
		c0.484-1.947,1.525-3.506,2.339-4.316C49.614,32.053,49.885,31.045,49.537,30.202z M34.967,11.111h-4.709
		c0.428-0.848,1.184-1.852,2.354-1.852C33.783,9.26,34.538,10.264,34.967,11.111z M47.523,31.521
		c-1.264,1.259-2.348,3.244-2.83,5.182l-0.976,3.924c-0.39,1.567-2.083,2.892-3.698,2.892H14.093c-1.939,0-6.593-0.466-7.907-4.752
		l-1.087-3.991c-0.4-1.521-0.787-2.444-0.973-2.888c-0.042-0.1-0.073-0.172-0.084-0.203c-0.151-0.569-1.329-2.145-1.687-2.614
		c-0.185-0.242-0.238-0.529-0.138-0.733c0.174-0.351,0.806-0.56,1.691-0.56h7.407c1.917,0,5.052,0.569,6.846,1.242l0.472,0.177
		c1.998,0.75,5.362,1.359,7.497,1.359h20.371c0.962,0,1.286,0.261,1.325,0.354C47.861,30.998,47.791,31.255,47.523,31.521z"/>
	<path fill="#424242" d="M12.36,38.952c-1.349-0.084-2.218-1.942-2.235-1.979c-0.203-0.467-0.747-0.681-1.217-0.477
		c-0.469,0.205-0.684,0.751-0.479,1.219c0.053,0.12,1.305,2.929,3.816,3.086c0.02,0.001,0.04,0.002,0.059,0.002
		c0.485,0,0.893-0.379,0.923-0.868C13.258,39.423,12.871,38.983,12.36,38.952z"/>
	<path fill="#424242" d="M28.908,19.444c0.512,0,0.926-0.414,0.926-0.926V15.74c0-0.512-0.414-0.926-0.926-0.926
		s-0.926,0.414-0.926,0.926v2.778C27.982,19.03,28.396,19.444,28.908,19.444z"/>
	<path fill="#424242" d="M33.538,18.519V15.74c0-0.512-0.415-0.926-0.927-0.926s-0.926,0.414-0.926,0.926v2.778
		c0,0.512,0.414,0.926,0.926,0.926S33.538,19.03,33.538,18.519z"/>
	<path fill="#424242" d="M37.242,18.519V15.74c0-0.512-0.414-0.926-0.927-0.926c-0.512,0-0.926,0.414-0.926,0.926v2.778
		c0,0.512,0.414,0.926,0.926,0.926C36.828,19.444,37.242,19.03,37.242,18.519z"/>
</g>
</svg>
