<?xml version="1.0" encoding="utf-8"?>
<!-- Generator: Adobe Illustrator 15.0.0, SVG Export Plug-In . SVG Version: 6.00 Build 0)  -->
<!DOCTYPE svg PUBLIC "-//W3C//DTD SVG 1.1//EN" "http://www.w3.org/Graphics/SVG/1.1/DTD/svg11.dtd">
<svg version="1.1" id="Layer_1" xmlns="http://www.w3.org/2000/svg" xmlns:xlink="http://www.w3.org/1999/xlink" x="0px" y="0px"
	 width="50px" height="50px" viewBox="0 0 50 50" enable-background="new 0 0 50 50" xml:space="preserve">
<g>
	<path fill="#424242" d="M32.183,6.222l3.767,1.159l0.303,0.045c0.269,0,0.981,0,2.016-2.069L38.744,4.4
		c0.342-0.682,0.373-1.455,0.089-2.121c-0.284-0.665-0.866-1.176-1.596-1.4L34.771,0.12C34.512,0.04,34.246,0,33.984,0
		c-1.264,0-2.266,0.898-2.438,2.187l-0.143,1.059C31.051,5.873,31.872,6.127,32.183,6.222z M33.252,3.493l0.142-1.061
		c0.058-0.436,0.406-0.663,0.831-0.531l2.465,0.759c0.209,0.063,0.361,0.189,0.432,0.353c0.068,0.163,0.055,0.36-0.043,0.555
		l-0.478,0.956c-0.213,0.426-0.416,0.74-0.562,0.936l-2.85-0.876C33.18,4.339,33.188,3.965,33.252,3.493z"/>
	<path fill="#424242" d="M34.257,40.684H15.624c-0.515,0-0.932,0.417-0.932,0.932s0.417,0.932,0.932,0.932h18.633
		c0.515,0,0.932-0.417,0.932-0.932S34.771,40.684,34.257,40.684z"/>
	<path fill="#424242" d="M44.505,26.709c-0.946,0-1.893,0.272-2.795,0.785v-3.58c0-1.541-1.254-2.795-2.795-2.795h-2.522
		l-0.577-3.455c-0.313-1.879-0.128-5.013,0.401-6.842c0.145-0.492,0.4-1.296,0.521-1.54c0.23-0.46,0.043-1.02-0.417-1.249
		c-0.462-0.232-1.019-0.042-1.249,0.418c-0.24,0.479-0.578,1.626-0.644,1.852c-0.606,2.085-0.808,5.525-0.451,7.667l0.524,3.149
		H23.077h-0.036l4.823-5.072c1.497-1.569,3.284-4.556,3.985-6.605c0.146-0.425,0.48-1.558,0.467-2.157
		c-0.012-0.507-0.426-1.071-0.932-1.071c-0.004,0-0.008,0-0.012,0c-0.511,0-0.921,0.604-0.92,1.114c0,0.187-0.17,1.023-0.366,1.596
		c-0.618,1.806-2.253,4.498-3.571,5.881l-5.559,5.825c-0.134,0.14-0.198,0.312-0.228,0.49h-9.763c-0.763,0-1.468,0.317-1.935,0.871
		c-0.466,0.553-0.66,1.302-0.53,2.055l0.72,4.173c-0.937-0.77-2.25-1.509-3.845-1.509c-0.515,0-0.932,0.417-0.932,0.932
		s0.417,0.932,0.932,0.932c2.25,0,3.869,2.358,3.885,2.382c0.122,0.183,0.299,0.303,0.494,0.365l2.771,16.071
		C12.778,48.854,14.138,50,15.624,50h18.633c1.507,0,2.933-1.171,3.18-2.603l1.886-10.481c1.347-0.199,2.388-1.352,2.388-2.754
		v-4.394c0.653-0.566,1.638-1.196,2.795-1.196c0.515,0,0.932-0.417,0.932-0.932S45.02,26.709,44.505,26.709z M35.602,47.074
		c-0.094,0.547-0.748,1.062-1.345,1.062H15.624c-0.575,0-1.165-0.497-1.262-1.062l-4.025-23.346
		c-0.036-0.213,0.006-0.404,0.119-0.538s0.294-0.208,0.51-0.208h12.111h0.932c0.514,0,0.932,0.418,0.932,0.932v10.248
		c0,1.541,1.253,2.795,2.795,2.795h9.687L35.602,47.074z M39.847,34.162c0,0.514-0.418,0.932-0.932,0.932h-11.18
		c-0.515,0-0.932-0.418-0.932-0.932V23.914c0-0.326-0.057-0.641-0.159-0.932h12.271c0.514,0,0.932,0.418,0.932,0.932V34.162z"/>
</g>
</svg>
