<?xml version="1.0" encoding="utf-8"?>
<!-- Generator: Adobe Illustrator 15.0.0, SVG Export Plug-In . SVG Version: 6.00 Build 0)  -->
<!DOCTYPE svg PUBLIC "-//W3C//DTD SVG 1.1//EN" "http://www.w3.org/Graphics/SVG/1.1/DTD/svg11.dtd">
<svg version="1.1" id="Layer_1" xmlns="http://www.w3.org/2000/svg" xmlns:xlink="http://www.w3.org/1999/xlink" x="0px" y="0px"
	 width="50px" height="50px" viewBox="0 0 50 50" enable-background="new 0 0 50 50" xml:space="preserve">
<g>
	<path fill="#424242" d="M45.449,4.63h-6.481V2.778C38.968,1.247,37.722,0,36.189,0h-0.926c-1.531,0-2.777,1.246-2.777,2.778V4.63
		H17.671V2.778C17.671,1.247,16.425,0,14.894,0h-0.926c-1.532,0-2.778,1.246-2.778,2.778V4.63H4.708
		c-2.552,0-4.629,2.077-4.629,4.63v36.111C0.079,47.924,2.156,50,4.708,50h40.741c2.553,0,4.629-2.076,4.629-4.629V9.26
		C50.078,6.707,48.002,4.63,45.449,4.63z M4.708,6.482h6.482v1.852c0,1.532,1.246,2.778,2.778,2.778h2.777
		c0.512,0,0.926-0.415,0.926-0.926S17.257,9.26,16.745,9.26h-2.777c-0.511,0-0.926-0.415-0.926-0.926V2.778
		c0-0.511,0.416-0.926,0.926-0.926h0.926c0.51,0,0.926,0.415,0.926,0.926V4.63c-0.511,0-0.926,0.415-0.926,0.926
		s0.415,0.926,0.926,0.926h16.667v1.852c0,1.532,1.246,2.778,2.777,2.778h2.777c0.512,0,0.927-0.415,0.927-0.926
		S38.553,9.26,38.041,9.26h-2.777c-0.51,0-0.926-0.415-0.926-0.926V2.778c0-0.511,0.416-0.926,0.926-0.926h0.926
		c0.511,0,0.926,0.415,0.926,0.926V4.63c-0.511,0-0.926,0.415-0.926,0.926s0.415,0.926,0.926,0.926h8.334
		c1.531,0,2.777,1.246,2.777,2.778v7.407H1.931V9.26C1.931,7.728,3.177,6.482,4.708,6.482z M45.449,48.148H4.708
		c-1.531,0-2.777-1.246-2.777-2.777V18.519h46.296v26.852C48.227,46.902,46.98,48.148,45.449,48.148z"/>
	<path fill="#424242" d="M15.819,22.223c-0.511,0-0.926,0.414-0.926,0.926v6.481H8.412c-0.512,0-0.926,0.415-0.926,0.927
		s0.415,0.926,0.926,0.926h7.407c0.511,0,0.926-0.414,0.926-0.926v-7.408C16.745,22.637,16.331,22.223,15.819,22.223z"/>
	<path fill="#424242" d="M15.819,34.26c-0.511,0-0.926,0.414-0.926,0.926v6.481H8.412c-0.512,0-0.926,0.414-0.926,0.927
		c0,0.512,0.415,0.926,0.926,0.926h7.407c0.511,0,0.926-0.414,0.926-0.926v-7.408C16.745,34.674,16.331,34.26,15.819,34.26z"/>
	<path fill="#424242" d="M28.782,22.223c-0.511,0-0.926,0.414-0.926,0.926v6.481h-6.481c-0.511,0-0.926,0.415-0.926,0.927
		s0.415,0.926,0.926,0.926h7.407c0.511,0,0.926-0.414,0.926-0.926v-7.408C29.708,22.637,29.293,22.223,28.782,22.223z"/>
	<path fill="#424242" d="M28.782,34.26c-0.511,0-0.926,0.414-0.926,0.926v6.481h-6.481c-0.511,0-0.926,0.414-0.926,0.927
		c0,0.512,0.415,0.926,0.926,0.926h7.407c0.511,0,0.926-0.414,0.926-0.926v-7.408C29.708,34.674,29.293,34.26,28.782,34.26z"/>
	<path fill="#424242" d="M41.745,22.223c-0.511,0-0.926,0.414-0.926,0.926v6.481h-6.481c-0.512,0-0.926,0.415-0.926,0.927
		s0.414,0.926,0.926,0.926h7.407c0.512,0,0.927-0.414,0.927-0.926v-7.408C42.672,22.637,42.257,22.223,41.745,22.223z"/>
	<path fill="#424242" d="M41.745,34.26c-0.511,0-0.926,0.414-0.926,0.926v6.481h-6.481c-0.512,0-0.926,0.414-0.926,0.927
		c0,0.512,0.414,0.926,0.926,0.926h7.407c0.512,0,0.927-0.414,0.927-0.926v-7.408C42.672,34.674,42.257,34.26,41.745,34.26z"/>
</g>
</svg>
