<?xml version="1.0" encoding="utf-8"?>
<!-- Generator: Adobe Illustrator 15.0.0, SVG Export Plug-In . SVG Version: 6.00 Build 0)  -->
<!DOCTYPE svg PUBLIC "-//W3C//DTD SVG 1.1//EN" "http://www.w3.org/Graphics/SVG/1.1/DTD/svg11.dtd">
<svg version="1.1" id="Layer_1" xmlns="http://www.w3.org/2000/svg" xmlns:xlink="http://www.w3.org/1999/xlink" x="0px" y="0px"
	 width="50px" height="50px" viewBox="0 0 50 50" enable-background="new 0 0 50 50" xml:space="preserve">
<g>
	<path fill="#424242" d="M13.774,46.763c-0.371-0.121-2.252-1.107-2.252-2.857c0-1.184,0.467-1.777,1.112-2.6
		c0.607-0.773,1.296-1.649,1.58-3.091c0.497-2.519-1.526-4.562-3.177-5.069c-0.495-0.15-1.007,0.126-1.157,0.613
		c-0.15,0.489,0.125,1.008,0.613,1.157c0.667,0.205,2.213,1.38,1.904,2.94c-0.198,1.005-0.671,1.608-1.219,2.306
		c-0.707,0.9-1.507,1.919-1.507,3.743c0,2.614,2.376,4.239,3.527,4.617c0.096,0.031,0.192,0.046,0.289,0.046
		c0.39,0,0.751-0.247,0.879-0.638C14.524,47.445,14.261,46.922,13.774,46.763z"/>
	<path fill="#424242" d="M22.107,46.763c-0.371-0.121-2.252-1.107-2.252-2.857c0-1.184,0.467-1.777,1.112-2.6
		c0.606-0.773,1.295-1.649,1.58-3.091c0.497-2.519-1.526-4.562-3.177-5.069c-0.495-0.15-1.007,0.126-1.158,0.613
		c-0.15,0.489,0.125,1.008,0.613,1.157c0.667,0.205,2.212,1.38,1.904,2.94c-0.198,1.005-0.671,1.608-1.219,2.306
		c-0.706,0.9-1.507,1.919-1.507,3.743c0,2.614,2.376,4.239,3.527,4.617c0.096,0.031,0.193,0.046,0.289,0.046
		c0.39,0,0.751-0.247,0.88-0.638C22.858,47.445,22.594,46.922,22.107,46.763z"/>
	<path fill="#424242" d="M30.441,46.763c-0.371-0.121-2.253-1.107-2.253-2.857c0-1.184,0.466-1.777,1.112-2.6
		c0.606-0.773,1.295-1.649,1.58-3.091c0.496-2.519-1.527-4.562-3.178-5.069c-0.496-0.15-1.008,0.126-1.158,0.613
		c-0.15,0.489,0.125,1.008,0.613,1.157c0.668,0.205,2.213,1.38,1.904,2.94c-0.197,1.005-0.671,1.608-1.219,2.306
		c-0.706,0.9-1.508,1.919-1.508,3.743c0,2.614,2.377,4.239,3.527,4.617c0.096,0.031,0.193,0.046,0.289,0.046
		c0.39,0,0.752-0.247,0.88-0.638C31.191,47.445,30.928,46.922,30.441,46.763z"/>
	<path fill="#424242" d="M38.773,46.763c-0.37-0.121-2.252-1.107-2.252-2.857c0-1.184,0.467-1.777,1.112-2.6
		c0.606-0.773,1.296-1.649,1.579-3.091c0.497-2.519-1.525-4.562-3.177-5.069c-0.495-0.15-1.007,0.126-1.157,0.613
		c-0.15,0.489,0.125,1.008,0.613,1.157c0.667,0.205,2.213,1.38,1.904,2.94c-0.198,1.005-0.672,1.608-1.219,2.306
		c-0.707,0.9-1.508,1.919-1.508,3.743c0,2.614,2.376,4.239,3.527,4.617c0.096,0.031,0.192,0.046,0.289,0.046
		c0.389,0,0.75-0.247,0.879-0.638C39.524,47.445,39.261,46.922,38.773,46.763z"/>
	<path fill="#424242" d="M45.371,1.826H4.63C2.077,1.826,0,3.903,0,6.456v16.666c0,2.553,2.077,4.63,4.63,4.63h40.741
		c2.552,0,4.629-2.077,4.629-4.63V6.456C50,3.903,47.923,1.826,45.371,1.826z M4.63,3.678h40.741c1.531,0,2.777,1.246,2.777,2.778
		v12.037H1.852V6.456C1.852,4.924,3.098,3.678,4.63,3.678z M45.371,25.9H4.63c-1.532,0-2.778-1.246-2.778-2.778v-2.777h46.296v2.777
		C48.148,24.654,46.902,25.9,45.371,25.9z"/>
	<path fill="#424242" d="M42.593,22.196H40.74c-0.512,0-0.926,0.414-0.926,0.926c0,0.513,0.414,0.927,0.926,0.927h1.853
		c0.512,0,0.926-0.414,0.926-0.927C43.519,22.61,43.104,22.196,42.593,22.196z"/>
</g>
</svg>
