<?xml version="1.0" encoding="utf-8"?>
<!-- Generator: Adobe Illustrator 15.0.0, SVG Export Plug-In . SVG Version: 6.00 Build 0)  -->
<!DOCTYPE svg PUBLIC "-//W3C//DTD SVG 1.1//EN" "http://www.w3.org/Graphics/SVG/1.1/DTD/svg11.dtd">
<svg version="1.1" id="Layer_1" xmlns="http://www.w3.org/2000/svg" xmlns:xlink="http://www.w3.org/1999/xlink" x="0px" y="0px"
	 width="50px" height="50px" viewBox="0 0 50 50" enable-background="new 0 0 50 50" xml:space="preserve">
<path fill="#424242" d="M44.244,16.666h-3.703c-0.513,0-0.927,0.414-0.927,0.926c0,0.512,0.414,0.926,0.927,0.926h3.703
	c1.445,0,2.644-0.49,3.56-1.457c2.021-2.131,1.847-5.843,1.839-6c-0.027-0.491-0.433-0.876-0.926-0.876H43.06l-0.715-2.144
	c-0.126-0.378-0.479-0.633-0.879-0.633h-6.481V0.926c0-0.352-0.198-0.673-0.514-0.829c-0.314-0.157-0.691-0.121-0.972,0.091
	c-0.203,0.154-4.925,3.803-4.99,8.966c-0.012,0.019-0.033,0.03-0.045,0.05c-0.817,1.363-1.608,2.621-1.61,2.624
	c-0.633,1.006-1.128,2.725-1.128,3.912v2.778c0,0.765-0.499,1.948-1.046,2.483L8.603,36.693c-0.937-0.149-3.178-0.787-3.25-2.107
	C5.31,33.81,5.971,33.36,6.369,33.16c0.457-0.229,0.642-0.785,0.412-1.243c-0.229-0.456-0.785-0.641-1.242-0.412
	c-1.348,0.676-2.109,1.866-2.035,3.184c0.176,3.202,4.783,3.834,4.979,3.86c0.04,0.005,0.08,0.007,0.12,0.007
	c0.135,0,0.26-0.037,0.377-0.09c0.023,0.002,0.045,0.014,0.068,0.014c0.233,0,0.466-0.088,0.646-0.264l16.278-15.89
	c0.265-0.258,0.508-0.584,0.724-0.94l8.314,3.325l-0.108,0.632c-0.006,0.034-0.009,0.065-0.011,0.098
	c-0.004,0.061-0.09,1.519,0.423,2.952c0.026,0.072,0.067,0.135,0.109,0.196c-0.019,0.141-0.015,0.285,0.036,0.429
	c1.285,3.562,4.272,11.401,5.938,15.757c0.177,0.462,0.624,0.825,1.337,1.379c0.225,0.175,0.555,0.432,0.679,0.56l0.524,1.37
	c-0.15,0.035-0.355,0.065-0.619,0.065h-2.777c-0.689,0-1.63-0.543-1.973-1.142l-4.467-7.763c-0.736-1.282-2.439-1.841-3.793-1.24
	l-2.644,1.17c0.077-0.187,0.151-0.373,0.215-0.557c1.214-2.616-2.863-5.181-3.335-5.467c-0.437-0.263-1.007-0.125-1.271,0.313
	c-0.265,0.438-0.125,1.007,0.313,1.271c1.306,0.79,2.985,2.356,2.604,3.121c-0.018,0.038-0.034,0.078-0.048,0.118
	c-0.888,2.661-3.818,5.804-3.848,5.836c-0.252,0.27-0.321,0.663-0.174,1.002c0.147,0.338,0.481,0.559,0.85,0.559h3.856
	c0.304,0,2.735,0.084,3.19,2.777h-18.14c-0.411-0.519-1.262-1.56-2.556-2.985c-0.712-0.782-1.173-1.579-1.373-2.373
	c-0.077-0.303-0.302-0.518-0.574-0.621c-0.086-0.13-0.194-0.246-0.343-0.32c-2.732-1.366-5.829-3.865-5.06-8.01
	c0.302-1.626,1.321-2.476,2.125-2.902c1.371-0.73,3.178-0.804,4.603-0.187c0.469,0.203,1.014-0.013,1.218-0.481
	c0.203-0.47-0.012-1.015-0.482-1.218c-1.952-0.845-4.331-0.75-6.208,0.251c-1.642,0.873-2.734,2.365-3.075,4.199
	c-0.764,4.118,1.386,7.67,6.052,10.004c0.013,0.006,0.027,0.004,0.04,0.009c0.302,0.997,0.867,1.97,1.708,2.896
	c1.778,1.955,2.725,3.209,2.735,3.221c0.182,0.242,0.459,0.37,0.741,0.37c0.077,0,0.153-0.018,0.229-0.037
	C11.715,49.976,11.772,50,11.836,50h19.179c0.512,0,0.926-0.414,0.926-0.926c0-4.395-3.346-5.556-5.115-5.556h-1.854
	c0.409-0.518,0.866-1.137,1.308-1.806c0.13,0.002,0.262-0.019,0.388-0.074l4.39-1.942c0.499-0.22,1.169,0.002,1.438,0.472
	l4.467,7.762C37.63,49.092,39.201,50,40.541,50h2.777c0.496,0,1.714-0.079,2.315-0.819c0.259-0.317,0.356-0.703,0.277-1.089
	c-0.01-0.049-0.023-0.097-0.042-0.144l-0.761-1.983c-0.161-0.423-0.556-0.743-1.237-1.273c-0.244-0.189-0.641-0.498-0.767-0.645
	c-1.67-4.362-4.63-12.129-5.902-15.656c-0.025-0.07-0.071-0.124-0.109-0.183c0.02-0.145,0.018-0.293-0.034-0.44
	c-0.34-0.948-0.327-1.958-0.321-2.17l0.523-3.072c0.71-1.245,2.259-1.228,2.354-1.229h2.778c0.513,0,0.926-0.415,0.926-0.926
	c0-0.512-0.413-0.926-0.926-0.926h-2.748c-0.116,0-2.885-0.065-4.099,2.362c-0.041,0.082-0.069,0.171-0.085,0.26l-0.133,0.777
	l-7.914-3.167c0.102-0.398,0.163-0.793,0.163-1.159V15.74c0-0.844,0.395-2.211,0.844-2.926c0,0,0.802-1.275,1.631-2.657
	c0.071-0.118,0.107-0.245,0.121-0.375c0.106-0.149,0.182-0.323,0.182-0.522c0-2.597,1.548-4.82,2.778-6.18v5.255
	c0,0.511,0.414,0.925,0.927,0.925h6.739l0.716,2.145c0.126,0.378,0.479,0.633,0.878,0.633h5.38
	c-0.067,1.029-0.336,2.725-1.315,3.754C45.896,16.38,45.173,16.666,44.244,16.666z"/>
</svg>
