<?xml version="1.0" encoding="utf-8"?>
<!-- Generator: Adobe Illustrator 15.0.0, SVG Export Plug-In . SVG Version: 6.00 Build 0)  -->
<!DOCTYPE svg PUBLIC "-//W3C//DTD SVG 1.1//EN" "http://www.w3.org/Graphics/SVG/1.1/DTD/svg11.dtd">
<svg version="1.1" id="Layer_1" xmlns="http://www.w3.org/2000/svg" xmlns:xlink="http://www.w3.org/1999/xlink" x="0px" y="0px"
	 width="50px" height="50px" viewBox="0 0 50 50" enable-background="new 0 0 50 50" xml:space="preserve">
<path fill="#424242" d="M47.923,26.016l-1.089-3.266c-0.116-0.349-0.303-0.677-0.538-0.973v-8.942
	c-0.001-0.837-0.573-1.793-1.335-2.228C32.647,3.731,17.352,3.729,5.033,10.61c-0.756,0.43-1.328,1.386-1.33,2.227v8.94
	c-0.234,0.296-0.422,0.624-0.538,0.973l-1.089,3.266C0.885,26.329,0,27.404,0,28.693v12.5c0,1.276,1.246,2.314,2.778,2.314h1.852
	c1.444,0,2.85-1.098,3.198-2.494l0.029-0.114C8,40.326,8.668,39.805,9.259,39.805h31.482c0.591,0,1.258,0.521,1.403,1.099
	l0.026,0.106c0.351,1.4,1.756,2.498,3.199,2.498h1.853c1.531,0,2.777-1.038,2.777-2.314v-12.5
	C50,27.404,49.115,26.329,47.923,26.016z M6.481,22.212h37.037c0.62,0,1.363,0.535,1.559,1.124l0.86,2.579H4.062l0.86-2.579
	C5.118,22.747,5.862,22.212,6.481,22.212z M22.222,20.36H11.111v-2.778c0-0.511,0.415-0.926,0.926-0.926h9.259
	c0.51,0,0.926,0.415,0.926,0.926V20.36z M38.889,20.36H27.777v-2.778c0-0.511,0.416-0.926,0.927-0.926h9.259
	c0.51,0,0.926,0.415,0.926,0.926V20.36z M5.942,12.224C17.697,5.66,32.303,5.66,44.05,12.22c0.195,0.111,0.395,0.453,0.395,0.617
	v7.675c-0.304-0.093-0.615-0.152-0.926-0.152h-2.777v-2.778c0-1.532-1.246-2.778-2.778-2.778h-9.259
	c-1.532,0-2.778,1.246-2.778,2.778v2.778h-1.852v-2.778c0-1.532-1.246-2.778-2.778-2.778h-9.259c-1.532,0-2.778,1.246-2.778,2.778
	v2.778H6.481c-0.311,0-0.622,0.059-0.926,0.152v-7.673C5.556,12.673,5.754,12.332,5.942,12.224z M48.148,41.193
	c0,0.159-0.361,0.463-0.926,0.463H45.37c-0.591,0-1.259-0.521-1.403-1.099l-0.027-0.106c-0.35-1.401-1.755-2.499-3.198-2.499H9.259
	c-1.444,0-2.849,1.098-3.198,2.495l-0.029,0.114c-0.144,0.573-0.812,1.095-1.403,1.095H2.778c-0.565,0-0.926-0.304-0.926-0.463
	v-12.5c0-0.511,0.416-0.926,0.926-0.926h44.445c0.51,0,0.926,0.415,0.926,0.926V41.193z"/>
</svg>
