<?xml version="1.0" encoding="utf-8"?>
<!-- Generator: Adobe Illustrator 15.0.0, SVG Export Plug-In . SVG Version: 6.00 Build 0)  -->
<!DOCTYPE svg PUBLIC "-//W3C//DTD SVG 1.1//EN" "http://www.w3.org/Graphics/SVG/1.1/DTD/svg11.dtd">
<svg version="1.1" id="Layer_1" xmlns="http://www.w3.org/2000/svg" xmlns:xlink="http://www.w3.org/1999/xlink" x="0px" y="0px"
	 width="50px" height="50px" viewBox="0 0 50 50" enable-background="new 0 0 50 50" xml:space="preserve">
<g>
	<path fill="#424242" d="M25.079,0c-13.785,0-25,11.215-25,25c0,13.785,11.215,25,25,25s25-11.215,25-25
		C50.078,11.216,38.863,0,25.079,0z M25.079,48.148C12.314,48.148,1.931,37.765,1.931,25c0-12.764,10.384-23.147,23.148-23.147
		S48.227,12.236,48.227,25C48.227,37.765,37.843,48.148,25.079,48.148z"/>
	<path fill="#424242" d="M25.079,3.704C13.336,3.704,3.782,13.257,3.782,25c0,11.744,9.554,21.297,21.296,21.297
		S46.375,36.744,46.375,25C46.375,13.257,36.821,3.704,25.079,3.704z M25.079,44.445C14.357,44.445,5.634,35.722,5.634,25
		c0-10.721,8.723-19.444,19.444-19.444c10.722,0,19.445,8.723,19.445,19.444C44.523,35.722,35.801,44.445,25.079,44.445z"/>
	<path fill="#424242" d="M24.616,19.445c2.297,0,4.167-1.869,4.167-4.167c0-2.298-1.869-4.167-4.167-4.167
		c-2.298,0-4.167,1.869-4.167,4.167C20.449,17.576,22.318,19.445,24.616,19.445z M24.616,12.963c1.276,0,2.315,1.038,2.315,2.315
		s-1.039,2.315-2.315,2.315s-2.315-1.038-2.315-2.315S23.339,12.963,24.616,12.963z"/>
	<path fill="#424242" d="M28.782,32.199V21.297H18.597v1.852c1.794,0,2.585,1.566,2.778,2.023v7.115
		c-0.25,0.285-1.227,0.787-2.146,1.095l-0.632,0.212v3.443h12.963v-3.395l-0.57-0.237C30.078,33.024,29.098,32.484,28.782,32.199z
		 M29.708,35.186h-9.259V34.91c1.384-0.537,2.777-1.361,2.777-2.502v-7.558l-0.047-0.144c-0.021-0.063-0.272-0.792-0.869-1.559
		h4.621v9.26c0,0.337,0,1.199,2.777,2.459V35.186z"/>
</g>
</svg>
