<?xml version="1.0" encoding="utf-8"?>
<!-- Generator: Adobe Illustrator 15.0.0, SVG Export Plug-In . SVG Version: 6.00 Build 0)  -->
<!DOCTYPE svg PUBLIC "-//W3C//DTD SVG 1.1//EN" "http://www.w3.org/Graphics/SVG/1.1/DTD/svg11.dtd">
<svg version="1.1" id="Layer_1" xmlns="http://www.w3.org/2000/svg" xmlns:xlink="http://www.w3.org/1999/xlink" x="0px" y="0px"
	 width="50px" height="50px" viewBox="0 0 50 50" enable-background="new 0 0 50 50" xml:space="preserve">
<g>
	<path fill="#424242" d="M41.111,2.778H26.297V0.926C26.297,0.414,25.882,0,25.371,0c-0.512,0-0.926,0.414-0.926,0.926v1.852H9.629
		C7.077,2.778,5,4.855,5,7.407v25.926c0,2.553,2.077,4.63,4.629,4.63h14.815v6.481c0,0.512,0.414,0.926,0.926,0.926
		c2.747,0,4.61,1.572,5.635,2.778H19.653c0.575-0.726,1.453-1.594,2.666-2.167c0.463-0.219,0.66-0.771,0.442-1.233
		c-0.219-0.461-0.77-0.658-1.232-0.441c-3.021,1.427-4.351,4.261-4.406,4.381c-0.132,0.286-0.108,0.62,0.062,0.886
		S17.647,50,17.963,50h14.814c0.324,0,0.625-0.168,0.791-0.445c0.169-0.276,0.181-0.62,0.031-0.907
		c-0.104-0.197-2.434-4.575-7.303-5.082v-5.603h14.814c2.553,0,4.629-2.077,4.629-4.63V7.407C45.74,4.855,43.664,2.778,41.111,2.778
		z M43.889,33.333c0,1.532-1.246,2.778-2.777,2.778H9.629c-1.532,0-2.777-1.246-2.777-2.778V7.407c0-1.532,1.246-2.777,2.777-2.777
		h31.482c1.531,0,2.777,1.246,2.777,2.777V33.333z"/>
	<path fill="#424242" d="M27.789,12.037h-7.974c-0.512,0-0.926,0.414-0.926,0.926v15.741c0,0.512,0.415,0.926,0.926,0.926
		s0.926-0.414,0.926-0.926v-4.63h7.048c2.621,0,5.684-1.576,5.684-6.019C33.473,13.445,29.775,12.103,27.789,12.037z M27.789,22.222
		h-7.048v-8.333h7.013c0.396,0,3.867,0.278,3.867,4.167C31.621,21.817,28.941,22.222,27.789,22.222z"/>
</g>
</svg>
