<?xml version="1.0" encoding="utf-8"?>
<!-- Generator: Adobe Illustrator 15.0.0, SVG Export Plug-In . SVG Version: 6.00 Build 0)  -->
<!DOCTYPE svg PUBLIC "-//W3C//DTD SVG 1.1//EN" "http://www.w3.org/Graphics/SVG/1.1/DTD/svg11.dtd">
<svg version="1.1" id="Layer_1" xmlns="http://www.w3.org/2000/svg" xmlns:xlink="http://www.w3.org/1999/xlink" x="0px" y="0px"
	 width="50px" height="50px" viewBox="0 0 50 50" enable-background="new 0 0 50 50" xml:space="preserve">
<g>
	<path fill="#424242" d="M49.978,45.857c-0.062-1.641-0.891-4.425-3.698-4.425H3.702c-0.099,0-0.198,0.017-0.292,0.048
		C0.713,42.379,0,44.869,0,46.061c0,0.512,0.415,0.926,0.926,0.926h48.13c0.006,0,0.012-0.001,0.019,0
		c0.511,0,0.926-0.414,0.926-0.926C50,45.991,49.992,45.922,49.978,45.857z M2.039,45.135c0.226-0.637,0.724-1.438,1.822-1.851
		h42.418c1.134,0,1.573,1.042,1.743,1.851H2.039z"/>
	<path fill="#424242" d="M4.628,39.581h40.726c0.901,0,2.776,0,2.776-2.776c0-2.486-1.886-3.415-2.373-3.613
		c-1.771-1.062-2.222-3.77-2.742-6.899c-1.061-6.368-2.514-15.035-17.102-15.387c0-0.006,0.004-0.011,0.004-0.017V9.037h4.627
		c0.008,0,0.016,0,0.023,0c1.521-0.038,2.758-1.284,2.754-2.778c-0.003-1.437-1.141-2.877-2.558-3.215
		c-3.786-0.815-7.737-0.82-11.565,0.004c-1.396,0.333-2.535,1.772-2.538,3.211c-0.003,1.494,1.232,2.74,2.777,2.778h4.627v1.852
		c0,0.006,0.003,0.011,0.004,0.017C9.48,11.257,8.027,19.924,6.967,26.292c-0.521,3.13-0.972,5.838-2.743,6.899
		c-0.487,0.198-2.374,1.127-2.374,3.613C1.851,39.581,3.727,39.581,4.628,39.581z M18.512,6.263
		c0.001-0.591,0.543-1.277,1.096-1.409c1.767-0.38,3.579-0.572,5.385-0.572c1.805,0,3.616,0.192,5.361,0.567
		c0.573,0.137,1.115,0.823,1.116,1.414c0.001,0.485-0.428,0.905-0.939,0.923H19.46C18.945,7.174,18.511,6.75,18.512,6.263z
		 M4.921,34.905c0.058-0.019,0.113-0.043,0.166-0.073c2.581-1.475,3.127-4.76,3.706-8.236c1.082-6.495,2.307-13.856,16.198-13.856
		s15.116,7.361,16.198,13.856c0.578,3.477,1.125,6.762,3.706,8.236c0.046,0.025,0.105,0.052,0.155,0.07
		c0.126,0.046,1.229,0.486,1.229,1.902c0,0.926-0.018,0.926-0.926,0.926H4.628c-0.908,0-0.926,0-0.926-0.926
		C3.702,35.389,4.806,34.948,4.921,34.905z"/>
	<path fill="#424242" d="M12.496,30.119c0.111,0.044,0.226,0.064,0.338,0.064c0.37,0,0.718-0.223,0.862-0.588
		c0.395-1.006,0.592-2.186,0.8-3.437c0.51-3.059,1.037-6.221,4.397-7.848c0.46-0.224,0.652-0.776,0.429-1.237
		c-0.222-0.461-0.775-0.649-1.236-0.43c-4.222,2.045-4.884,6.018-5.416,9.211c-0.192,1.151-0.374,2.239-0.697,3.064
		C11.786,29.396,12.021,29.933,12.496,30.119z"/>
</g>
</svg>
