<?xml version="1.0" encoding="utf-8"?>
<!-- Generator: Adobe Illustrator 15.0.0, SVG Export Plug-In . SVG Version: 6.00 Build 0)  -->
<!DOCTYPE svg PUBLIC "-//W3C//DTD SVG 1.1//EN" "http://www.w3.org/Graphics/SVG/1.1/DTD/svg11.dtd">
<svg version="1.1" id="Layer_1" xmlns="http://www.w3.org/2000/svg" xmlns:xlink="http://www.w3.org/1999/xlink" x="0px" y="0px"
	 width="50px" height="50px" viewBox="0 0 50 50" enable-background="new 0 0 50 50" xml:space="preserve">
<g>
	<path fill="#424242" d="M25.926,44.444c-8.68,0-15.74-7.061-15.74-15.741c0-8.679,7.061-15.74,15.74-15.74
		s15.742,7.062,15.742,15.74C41.668,37.384,34.605,44.444,25.926,44.444z M25.926,14.814c-7.658,0-13.889,6.23-13.889,13.889
		c0,7.66,6.231,13.889,13.889,13.889c7.658,0,13.889-6.229,13.889-13.889C39.814,21.045,33.584,14.814,25.926,14.814z"/>
	<path fill="#424242" d="M25.926,39.814c-2.968,0-5.757-1.155-7.856-3.255c-0.362-0.361-0.362-0.947,0-1.309
		c0.361-0.361,0.947-0.361,1.309,0c1.749,1.748,4.075,2.712,6.547,2.712c5.105,0,9.26-4.154,9.26-9.26
		c0-2.712-1.184-5.278-3.248-7.042c-0.389-0.333-0.434-0.917-0.102-1.306s0.918-0.434,1.305-0.103
		c2.477,2.117,3.896,5.197,3.896,8.45C37.037,34.83,32.053,39.814,25.926,39.814z"/>
	<path fill="#424242" d="M15.741,29.629c-0.512,0-0.926-0.414-0.926-0.926c0-6.127,4.985-11.111,11.111-11.111
		c0.512,0,0.926,0.414,0.926,0.926c0,0.513-0.414,0.927-0.926,0.927c-5.106,0-9.259,4.153-9.259,9.259
		C16.667,29.215,16.252,29.629,15.741,29.629z"/>
	<path fill="#424242" d="M5.556,16.666c-0.752,0-2.077-0.466-2.997-0.926l-0.391-0.195C0.953,14.937,0,13.396,0,12.037v-9.26
		c0-0.512,0.415-0.926,0.926-0.926s0.926,0.414,0.926,0.926v9.26c0,0.669,0.546,1.552,1.145,1.852l0.391,0.195
		c0.878,0.439,1.887,0.73,2.168,0.73s1.29-0.291,2.168-0.73l0.391-0.195c0.599-0.3,1.145-1.183,1.145-1.852v-9.26
		c0-0.512,0.415-0.926,0.926-0.926s0.926,0.414,0.926,0.926v9.26c0,1.358-0.953,2.899-2.169,3.508L8.552,15.74
		C7.632,16.2,6.307,16.666,5.556,16.666z"/>
	<path fill="#424242" d="M5.556,16.666c-0.511,0-0.926-0.414-0.926-0.926V2.777c0-0.512,0.415-0.926,0.926-0.926
		s0.926,0.414,0.926,0.926V15.74C6.481,16.252,6.067,16.666,5.556,16.666z"/>
	<path fill="#424242" d="M5.556,50c-1.514,0-3.704-2.308-3.704-6.482c0-2.532,0.774-6.521,1.522-10.38
		C4.02,29.806,4.63,26.66,4.63,25v-8.334c0-0.512,0.415-0.926,0.926-0.926s0.926,0.414,0.926,0.926V25
		c0,0.632,0.443,3.019,0.912,5.547c0.831,4.477,1.866,10.05,1.866,12.971C9.259,47.692,7.069,50,5.556,50z M5.632,31.2
		c-0.141,0.744-0.29,1.512-0.44,2.289c-0.731,3.773-1.488,7.675-1.488,10.028c0,3.185,1.491,4.565,1.873,4.632
		c0.338-0.066,1.831-1.447,1.831-4.632C7.407,40.836,6.399,35.339,5.632,31.2z"/>
	<path fill="#424242" d="M47.223,50c-2.238,0-4.629-1.216-4.629-4.629c0-1.361,0.205-2.692,0.424-4.102
		c0.246-1.596,0.502-3.245,0.502-5.158V30.63c-0.039-0.289-0.043-0.898,0.434-1.51c0.244-0.312,0.57-0.569,0.977-0.772
		c-0.898-1.551-2.336-5.067-2.336-11.682c0-15.162,6.035-16.593,6.291-16.646c0.275-0.058,0.559,0.013,0.773,0.188
		C49.875,0.383,50,0.646,50,0.926v45.371C50,47.577,49.42,50,47.223,50z M48.148,29.629c-1.98,0-2.568,0.454-2.701,0.592
		c-0.088,0.093-0.092,0.158-0.092,0.175c0.053,0.119,0.016,0.029,0.016,0.159v5.557c0,2.057-0.279,3.854-0.523,5.44
		c-0.207,1.337-0.402,2.601-0.402,3.819c0,2.296,1.51,2.777,2.777,2.777c0.875,0,0.926-1.837,0.926-1.854V29.629z M48.148,2.557
		c-1.424,1.307-3.703,4.844-3.703,14.109c0,7.227,1.791,10.37,2.357,11.182c0.41-0.047,0.857-0.07,1.346-0.07V2.557z"/>
</g>
</svg>
