<?xml version="1.0" encoding="utf-8"?>
<!-- Generator: Adobe Illustrator 15.0.0, SVG Export Plug-In . SVG Version: 6.00 Build 0)  -->
<!DOCTYPE svg PUBLIC "-//W3C//DTD SVG 1.1//EN" "http://www.w3.org/Graphics/SVG/1.1/DTD/svg11.dtd">
<svg version="1.1" id="Layer_1" xmlns="http://www.w3.org/2000/svg" xmlns:xlink="http://www.w3.org/1999/xlink" x="0px" y="0px"
	 width="50px" height="50px" viewBox="0 0 50 50" enable-background="new 0 0 50 50" xml:space="preserve">
<g>
	<path fill="#424242" d="M49.074,30.093H0.926C0.415,30.093,0,30.507,0,31.019s0.415,0.926,0.926,0.926h48.148
		c0.512,0,0.926-0.414,0.926-0.926S49.586,30.093,49.074,30.093z"/>
	<path fill="#424242" d="M3.704,29.167h42.593c0.006,0,0.012,0,0.018,0c0.512,0,0.926-0.414,0.926-0.927
		c0-0.064-0.006-0.128-0.02-0.188C47.129,16.924,38.815,7.728,28.07,6.235c0.4-0.592,0.633-1.303,0.633-2.068
		c0-2.043-1.661-3.704-3.703-3.704s-3.704,1.661-3.704,3.704c0,0.766,0.234,1.477,0.633,2.068C11.125,7.736,2.778,17.03,2.778,28.24
		C2.778,28.753,3.192,29.167,3.704,29.167z M23.148,4.167c0-1.021,0.831-1.853,1.852-1.853s1.852,0.831,1.852,1.853
		c0,1.021-0.83,1.852-1.852,1.852S23.148,5.188,23.148,4.167z M25,7.87c10.922,0,19.863,8.641,20.35,19.444H4.65
		C5.136,16.511,14.078,7.87,25,7.87z"/>
	<path fill="#424242" d="M18.464,11.902C13.29,13.975,9.367,18.426,7.97,23.812c-0.128,0.495,0.169,1,0.664,1.129
		c0.078,0.021,0.156,0.029,0.233,0.029c0.412,0,0.788-0.276,0.896-0.693c1.25-4.817,4.76-8.801,9.39-10.654
		c0.475-0.19,0.706-0.729,0.516-1.204S18.939,11.713,18.464,11.902z"/>
	<path fill="#424242" d="M44.695,34.208c-0.736-0.207-1.459-0.312-2.146-0.312c-3.341,0-4.957,2.396-5.33,3.038
		c-0.533,0.509-3.723,3.344-8.379,3.344h-0.126c-2.708,0-4.478-0.454-5.614-0.926h6.715c1.451,0,2.587-0.442,3.375-1.314
		c1.254-1.387,1.073-3.326,1.065-3.408c-0.048-0.473-0.446-0.833-0.921-0.833H15.741c-7.557,0-15.298,13.779-15.624,14.365
		c-0.16,0.287-0.155,0.637,0.011,0.919c0.167,0.283,0.47,0.457,0.798,0.457H13.77c0.434,0,0.81-0.302,0.904-0.726
		c0.273-1.229,1.003-1.84,1.317-2.053h11.787c10.597,0,16.516-8.912,17.52-11.3c0.104-0.244,0.098-0.521-0.018-0.761
		C45.163,34.459,44.951,34.281,44.695,34.208z M27.777,44.907H15.741c-0.137,0-0.272,0.031-0.396,0.09
		c-0.07,0.032-1.561,0.76-2.267,2.688H2.544c2.649-4.308,8.397-12.036,13.197-12.036h16.611c-0.073,0.375-0.227,0.81-0.543,1.155
		c-0.423,0.462-1.094,0.696-1.994,0.696H20.37c-0.315,0-0.608,0.16-0.779,0.426c-0.17,0.265-0.194,0.599-0.063,0.886
		c0.152,0.33,1.695,3.235,9.165,3.318l0.146,0.001c5.865,0,9.631-3.824,9.789-3.987c0.064-0.067,0.119-0.146,0.162-0.229
		c0.012-0.021,1.114-2.167,3.758-2.167c0.152,0,0.307,0.008,0.465,0.022C41.43,38.353,36.538,44.907,27.777,44.907z"/>
</g>
</svg>
