<?xml version="1.0" encoding="utf-8"?>
<!-- Generator: Adobe Illustrator 15.0.0, SVG Export Plug-In . SVG Version: 6.00 Build 0)  -->
<!DOCTYPE svg PUBLIC "-//W3C//DTD SVG 1.1//EN" "http://www.w3.org/Graphics/SVG/1.1/DTD/svg11.dtd">
<svg version="1.1" id="Layer_1" xmlns="http://www.w3.org/2000/svg" xmlns:xlink="http://www.w3.org/1999/xlink" x="0px" y="0px"
	 width="50px" height="50px" viewBox="0 0 50 50" enable-background="new 0 0 50 50" xml:space="preserve">
<path fill="#424242" d="M36.123,26.857l-0.609-3.656c-0.05-0.301-0.156-0.583-0.291-0.85v-9.276
	c-0.002-0.858-0.586-1.813-1.365-2.227c-5.523-2.874-12.118-2.873-17.646,0.003c-0.773,0.41-1.358,1.365-1.359,2.226v9.275
	c-0.135,0.267-0.242,0.548-0.292,0.849l-0.61,3.656c-0.578,0.51-0.95,1.247-0.95,2.076v12.5c0,1.276,1.246,2.314,2.778,2.314
	c1.444,0,2.849-1.098,3.198-2.494l0.029-0.114c0.144-0.573,0.812-1.095,1.402-1.095h9.259c0.592,0,1.26,0.521,1.404,1.099
	l0.027,0.106c0.35,1.4,1.754,2.498,3.199,2.498c1.531,0,2.777-1.038,2.777-2.314v-12.5C37.074,28.104,36.701,27.367,36.123,26.857z
	 M16.387,23.505c0.094-0.561,0.674-1.053,1.243-1.053h14.815c0.568,0,1.148,0.492,1.242,1.053l0.441,2.651H15.945L16.387,23.505z
	 M29.666,20.601h-9.259v-2.778c0-0.511,0.416-0.926,0.926-0.926h7.407c0.511,0,0.926,0.415,0.926,0.926V20.601z M17.072,12.491
	c4.987-2.595,10.942-2.595,15.924-0.003c0.18,0.096,0.374,0.428,0.374,0.589v7.683c-0.297-0.098-0.606-0.159-0.925-0.159h-0.927
	v-2.778c0-1.531-1.246-2.777-2.778-2.777h-7.407c-1.532,0-2.778,1.246-2.778,2.777v2.778H17.63c-0.319,0-0.629,0.062-0.926,0.159
	v-7.681C16.704,12.916,16.897,12.584,17.072,12.491z M35.223,41.434c0,0.159-0.361,0.463-0.926,0.463
	c-0.592,0-1.26-0.521-1.404-1.099l-0.027-0.106c-0.35-1.4-1.754-2.499-3.199-2.499h-9.259c-1.444,0-2.849,1.099-3.198,2.495
	l-0.029,0.114c-0.143,0.573-0.812,1.095-1.402,1.095c-0.565,0-0.926-0.304-0.926-0.463v-12.5c0-0.511,0.416-0.926,0.926-0.926
	h18.519c0.51,0,0.926,0.415,0.926,0.926V41.434z"/>
</svg>
