<?xml version="1.0" encoding="utf-8"?>
<!-- Generator: Adobe Illustrator 15.0.0, SVG Export Plug-In . SVG Version: 6.00 Build 0)  -->
<!DOCTYPE svg PUBLIC "-//W3C//DTD SVG 1.1//EN" "http://www.w3.org/Graphics/SVG/1.1/DTD/svg11.dtd">
<svg version="1.1" id="Layer_1" xmlns="http://www.w3.org/2000/svg" xmlns:xlink="http://www.w3.org/1999/xlink" x="0px" y="0px"
	 width="50px" height="50px" viewBox="0 0 50 50" enable-background="new 0 0 50 50" xml:space="preserve">
<g>
	<path fill="#424242" d="M36.749,24.604c0.67,0.293,1.384,0.442,2.12,0.442c2.37,0,4.565-1.514,5.59-3.857
		c1.374-3.141,0.151-6.72-2.726-7.979c-0.672-0.294-1.385-0.442-2.121-0.442c-2.37,0-4.564,1.514-5.59,3.855
		c-0.659,1.506-0.748,3.158-0.25,4.653C34.28,22.804,35.338,23.986,36.749,24.604z M35.719,17.365
		c0.719-1.644,2.284-2.747,3.894-2.747c0.479,0,0.943,0.096,1.378,0.287c1.942,0.85,2.737,3.335,1.772,5.542
		c-0.719,1.643-2.283,2.747-3.894,2.747c-0.479,0-0.943-0.097-1.378-0.287c-0.924-0.404-1.621-1.191-1.963-2.216
		C35.177,19.631,35.244,18.451,35.719,17.365z"/>
	<path fill="#424242" d="M0.926,29.984c1.243,0,1.808,0.349,2.523,0.789c0.809,0.499,1.727,1.063,3.493,1.063
		c1.766,0,2.684-0.565,3.494-1.063c0.715-0.44,1.28-0.789,2.523-0.789c1.242,0,1.807,0.349,2.522,0.789
		c0.81,0.498,1.727,1.063,3.494,1.063c1.767,0,2.685-0.565,3.495-1.063c0.715-0.44,1.28-0.789,2.522-0.789
		c1.242,0,1.806,0.349,2.522,0.789c0.81,0.498,1.728,1.063,3.493,1.063c1.767,0,2.686-0.565,3.496-1.063
		c0.715-0.44,1.281-0.789,2.523-0.789c1.244,0,1.811,0.349,2.527,0.789c0.811,0.499,1.729,1.063,3.496,1.063
		s2.688-0.564,3.497-1.063c0.717-0.44,1.283-0.789,2.527-0.789c0.512,0,0.926-0.414,0.926-0.926s-0.414-0.926-0.926-0.926
		c-1.769,0-2.687,0.564-3.497,1.063c-0.717,0.44-1.283,0.788-2.527,0.788s-1.811-0.348-2.527-0.788
		c-0.81-0.499-1.729-1.063-3.496-1.063c-0.182,0-0.348,0.01-0.513,0.021l-5.978-8.316c-0.686-0.955-2.059-2.088-3.127-2.581
		l-8.673-4.004c-1.086-0.501-2.86-0.749-4.041-0.568l-8.376,1.288c-0.771,0.12-1.434,0.541-1.818,1.158
		c-0.366,0.587-0.452,1.285-0.24,1.962c0.42,1.344,1.888,2.241,3.362,2.025l6.417-0.917c0.756-0.108,2.012,0.211,2.627,0.673
		l4.444,3.333c0.15,0.112,0.235,0.241,0.234,0.351s-0.089,0.237-0.242,0.345l-6.828,4.888c-0.15,0.107-0.242,0.257-0.306,0.417
		c-0.306-0.045-0.637-0.075-1.012-0.075c-1.766,0-2.684,0.565-3.494,1.063c-0.715,0.44-1.28,0.788-2.522,0.788
		c-1.242,0-1.807-0.348-2.522-0.788c-0.81-0.498-1.727-1.063-3.494-1.063C0.414,28.133,0,28.547,0,29.059S0.414,29.984,0.926,29.984
		z M22.182,24.409c0.637-0.457,1.007-1.124,1.015-1.831c0.007-0.707-0.347-1.382-0.975-1.852l-4.444-3.333
		c-1.019-0.764-2.736-1.206-4.001-1.025L7.36,17.284c-0.554,0.076-1.187-0.277-1.333-0.744c-0.049-0.158-0.034-0.303,0.044-0.43
		c0.099-0.158,0.292-0.271,0.529-0.308l8.376-1.287c0.829-0.129,2.223,0.068,2.983,0.419l8.673,4.004
		c0.779,0.359,1.898,1.284,2.398,1.979l5.539,7.706c-0.392,0.176-0.725,0.379-1.04,0.573c-0.716,0.44-1.281,0.788-2.524,0.788
		c-1.242,0-1.807-0.348-2.521-0.788c-0.81-0.498-1.728-1.063-3.494-1.063c-1.766,0-2.684,0.564-3.494,1.063
		c-0.715,0.44-1.281,0.788-2.524,0.788c-1.242,0-1.808-0.348-2.522-0.788c-0.167-0.103-0.341-0.208-0.524-0.312L22.182,24.409z"/>
	<path fill="#424242" d="M49.074,35.541c-1.769,0-2.687,0.563-3.497,1.062c-0.717,0.44-1.283,0.789-2.527,0.789
		s-1.811-0.349-2.527-0.789c-0.81-0.499-1.729-1.062-3.496-1.062s-2.685,0.563-3.495,1.062c-0.716,0.44-1.281,0.789-2.524,0.789
		c-1.242,0-1.807-0.349-2.521-0.789c-0.81-0.498-1.728-1.062-3.494-1.062c-1.766,0-2.684,0.563-3.494,1.062
		c-0.715,0.44-1.281,0.789-2.524,0.789c-1.242,0-1.808-0.349-2.522-0.789c-0.81-0.499-1.727-1.062-3.493-1.062
		s-2.684,0.564-3.494,1.062c-0.715,0.44-1.28,0.789-2.522,0.789c-1.242,0-1.807-0.349-2.522-0.789
		c-0.81-0.498-1.727-1.062-3.494-1.062C0.414,35.541,0,35.955,0,36.467s0.414,0.926,0.926,0.926c1.243,0,1.808,0.348,2.523,0.788
		c0.809,0.499,1.727,1.063,3.493,1.063c1.766,0,2.684-0.565,3.494-1.063c0.715-0.44,1.28-0.788,2.523-0.788
		c1.242,0,1.807,0.348,2.522,0.788c0.81,0.498,1.727,1.063,3.494,1.063c1.767,0,2.685-0.565,3.495-1.063
		c0.715-0.44,1.28-0.788,2.522-0.788c1.242,0,1.806,0.348,2.522,0.788c0.81,0.498,1.728,1.063,3.493,1.063
		c1.767,0,2.686-0.565,3.496-1.063c0.715-0.44,1.281-0.788,2.523-0.788c1.244,0,1.811,0.348,2.527,0.788
		c0.811,0.499,1.729,1.063,3.496,1.063s2.688-0.564,3.497-1.063c0.717-0.44,1.283-0.788,2.527-0.788
		c0.512,0,0.926-0.414,0.926-0.926S49.586,35.541,49.074,35.541z"/>
</g>
</svg>
