<?xml version="1.0" encoding="utf-8"?>
<!-- Generator: Adobe Illustrator 15.0.0, SVG Export Plug-In . SVG Version: 6.00 Build 0)  -->
<!DOCTYPE svg PUBLIC "-//W3C//DTD SVG 1.1//EN" "http://www.w3.org/Graphics/SVG/1.1/DTD/svg11.dtd">
<svg version="1.1" id="Layer_1" xmlns="http://www.w3.org/2000/svg" xmlns:xlink="http://www.w3.org/1999/xlink" x="0px" y="0px"
	 width="50px" height="50px" viewBox="0 0 50 50" enable-background="new 0 0 50 50" xml:space="preserve">
<path fill="#424242" d="M22.821,28.412H12.704v-0.715c1.409-0.387,4.908-1.685,6.253-5.261c1.602-4.257-0.491-10.052-6.221-17.221
	c-0.393-0.491-1.223-0.491-1.616,0c-5.73,7.169-7.823,12.962-6.221,17.221c1.345,3.576,4.844,4.874,6.253,5.261v0.715H1.035
	C0.463,28.412,0,28.876,0,29.447v17.057c0,0.57,0.463,1.034,1.035,1.034h21.787c0.571,0,1.035-0.464,1.035-1.034V29.447
	C23.856,28.876,23.393,28.412,22.821,28.412z M6.835,21.708c-1.237-3.29,0.522-8.172,5.093-14.165
	c4.563,5.983,6.325,10.86,5.098,14.15c-0.861,2.309-3.048,3.385-4.322,3.833v-3.472c0-0.428-0.348-0.776-0.776-0.776
	s-0.776,0.348-0.776,0.776v3.477C9.884,25.09,7.707,24.024,6.835,21.708z M21.787,45.469H2.069v-3.26h19.717V45.469z M21.787,41.175
	H2.069V30.482h19.717V41.175z M48.965,24.594H38.848V23.85c1.408-0.387,4.908-1.685,6.254-5.261
	c1.602-4.258-0.492-10.051-6.221-17.221c-0.395-0.491-1.225-0.491-1.617,0c-5.73,7.169-7.822,12.963-6.221,17.221
	c1.345,3.577,4.844,4.874,6.253,5.261v0.744H27.178c-0.57,0-1.034,0.463-1.034,1.034v20.876c0,0.57,0.464,1.034,1.034,1.034h21.787
	c0.572,0,1.035-0.464,1.035-1.034V25.628C50,25.057,49.537,24.594,48.965,24.594z M32.979,17.86
	c-1.237-3.29,0.523-8.172,5.094-14.165c4.562,5.983,6.324,10.86,5.098,14.15c-0.86,2.308-3.049,3.385-4.322,3.833v-4.047
	c0-0.429-0.348-0.776-0.775-0.776c-0.429,0-0.776,0.347-0.776,0.776v4.051C36.028,21.243,33.851,20.177,32.979,17.86z
	 M47.931,45.469H28.213v-3.26h19.718V45.469z M47.931,41.175H28.213V26.662h19.718V41.175z"/>
</svg>
