<?xml version="1.0" encoding="utf-8"?>
<!-- Generator: Adobe Illustrator 15.0.0, SVG Export Plug-In . SVG Version: 6.00 Build 0)  -->
<!DOCTYPE svg PUBLIC "-//W3C//DTD SVG 1.1//EN" "http://www.w3.org/Graphics/SVG/1.1/DTD/svg11.dtd">
<svg version="1.1" id="Layer_1" xmlns="http://www.w3.org/2000/svg" xmlns:xlink="http://www.w3.org/1999/xlink" x="0px" y="0px"
	 width="50px" height="50px" viewBox="0 0 50 50" enable-background="new 0 0 50 50" xml:space="preserve">
<path fill="#424242" d="M10.905,22.247c-0.302-0.408-0.876-0.496-1.284-0.194c-0.408,0.301-0.495,0.875-0.193,1.283l12.277,16.65
	c0.174,0.234,0.447,0.373,0.739,0.373c0.001,0,0.001,0,0.003,0c0.292-0.002,0.566-0.142,0.739-0.377L49.823,3.564
	c0.299-0.409,0.21-0.984-0.2-1.283c-0.409-0.3-0.982-0.211-1.283,0.199l-5.784,7.909C38.087,4.488,31.126,1,23.678,1
	C10.622,1,0,11.622,0,24.678s10.622,23.679,23.678,23.679s23.677-10.623,23.681-23.678c0-2.144-0.287-4.269-0.852-6.316
	c-0.135-0.489-0.642-0.777-1.129-0.642c-0.49,0.135-0.777,0.64-0.643,1.129c0.521,1.888,0.785,3.849,0.785,5.828
	c0,12.044-9.799,21.841-21.842,21.841S1.837,36.723,1.837,24.678S11.636,2.836,23.679,2.836c7.055,0,13.633,3.398,17.737,9.111
	L22.441,37.891L10.905,22.247z"/>
</svg>
