<?xml version="1.0" encoding="utf-8"?>
<!-- Generator: Adobe Illustrator 15.0.0, SVG Export Plug-In . SVG Version: 6.00 Build 0)  -->
<!DOCTYPE svg PUBLIC "-//W3C//DTD SVG 1.1//EN" "http://www.w3.org/Graphics/SVG/1.1/DTD/svg11.dtd">
<svg version="1.1" id="Layer_1" xmlns="http://www.w3.org/2000/svg" xmlns:xlink="http://www.w3.org/1999/xlink" x="0px" y="0px"
	 width="50px" height="50px" viewBox="0 0 50 50" enable-background="new 0 0 50 50" xml:space="preserve">
<path fill="#424242" d="M22.488,38.734L12.1,25.711c-0.301-0.377-0.851-0.439-1.227-0.139c-0.377,0.301-0.439,0.85-0.139,1.227
	l10.988,13.775c0.153,0.191,0.381,0.31,0.627,0.326c0.018,0.002,0.037,0.002,0.055,0.002c0.227,0,0.445-0.088,0.608-0.246
	l22.919-22.222c0.003-0.003,0.007-0.006,0.01-0.01l2.793-2.708c0.347-0.335,0.355-0.887,0.021-1.233
	c-0.335-0.346-0.887-0.354-1.233-0.019l-1.328,1.288V9.591c0-2.405-1.957-4.362-4.362-4.362h-4.664
	c-0.572-1.654-2.128-2.852-3.974-2.852h-2.667c-0.394-1.559-1.796-2.72-3.476-2.72h-5.723c-1.679,0-3.082,1.162-3.475,2.721h-3.086
	c-1.845,0-3.401,1.198-3.974,2.851H6.129c-2.405,0-4.362,1.925-4.362,4.291v35.774c0,2.405,1.957,4.362,4.362,4.362h35.702
	c2.405,0,4.362-1.957,4.362-4.362V23.467c0-0.482-0.392-0.873-0.873-0.873s-0.872,0.391-0.872,0.873v21.827
	c0,1.442-1.175,2.617-2.617,2.617H6.129c-1.443,0-2.617-1.175-2.617-2.617V9.52c0-1.403,1.174-2.545,2.617-2.545h4.416v2.696
	c0,0.482,0.391,0.873,0.872,0.873h25.126c0.48,0,0.872-0.391,0.872-0.873V6.975h4.416c1.442,0,2.617,1.174,2.617,2.617v7.853
	L22.488,38.734z M21.328,1.401h5.723c1.02,0,1.845,0.828,1.849,1.843c0,0.002-0.001,0.004-0.001,0.006
	c0,0.002,0.001,0.004,0.001,0.007C28.896,4.273,28.07,5.1,27.051,5.1h-5.723c-1.018,0-1.847-0.827-1.849-1.846
	c0-0.001,0-0.002,0-0.003s0-0.002,0-0.003C19.481,2.229,20.309,1.401,21.328,1.401z M35.67,8.8H12.289V6.602
	c0-1.367,1.113-2.478,2.478-2.478h3.086c0.393,1.559,1.796,2.721,3.475,2.721h5.723c1.68,0,3.084-1.163,3.477-2.722h2.666
	c1.367,0,2.477,1.112,2.477,2.478V8.8z"/>
</svg>
