<?xml version="1.0" encoding="utf-8"?>
<!-- Generator: Adobe Illustrator 15.0.0, SVG Export Plug-In . SVG Version: 6.00 Build 0)  -->
<!DOCTYPE svg PUBLIC "-//W3C//DTD SVG 1.1//EN" "http://www.w3.org/Graphics/SVG/1.1/DTD/svg11.dtd">
<svg version="1.1" id="Layer_1" xmlns="http://www.w3.org/2000/svg" xmlns:xlink="http://www.w3.org/1999/xlink" x="0px" y="0px"
	 width="50px" height="50px" viewBox="0 0 50 50" enable-background="new 0 0 50 50" xml:space="preserve">
<path fill="#424242" d="M13.89,4.808C10.683,4.48,7.952,5.557,5.854,7.972c-3.826,4.407-5.179,12.871-3.71,23.221
	C3.864,43.32,4.812,50,12.783,50l0,0c0.312,0,0.636-0.011,0.971-0.032c1.92-0.123,3.496-0.908,4.681-2.335
	c3.064-3.684,2.39-10.469,2.316-11.121c-0.024-0.612-0.35-9.191,0.919-14.221c0.687-2.719,1.957-9.514-1.077-13.848
	C19.12,6.336,16.864,5.113,13.89,4.808z M18.715,36.638c0.001,0.024,0.003,0.05,0.006,0.074c0.008,0.065,0.735,6.507-1.857,9.619
	c-0.824,0.99-1.884,1.513-3.241,1.601c-0.29,0.019-0.57,0.027-0.84,0.027l0,0c-5.899,0-6.821-4.382-8.619-17.053
	c-0.089-0.634-0.167-1.26-0.235-1.878c0.971,4.634,3.858,6.668,3.99,6.759c0.113,0.077,0.243,0.118,0.378,0.118
	c0.227,0,0.439-0.116,0.568-0.31c0.217-0.324,0.136-0.771-0.182-0.996c-0.12-0.083-2.961-2.127-3.575-6.853
	C4.535,23.339,7.2,17.104,11.941,15.205l0.219-0.088l0.202,0.123c1.668,1.015,6.968,4.872,5.126,11.918
	c-0.578,2.208-1.624,7.072-1.634,7.121c-0.083,0.385,0.154,0.768,0.527,0.852c0.049,0.011,0.099,0.016,0.147,0.016
	c0.32,0,0.603-0.234,0.672-0.559c0.11-0.513,1.082-5.004,1.62-7.059c0.019-0.072,0.032-0.141,0.05-0.213
	C18.509,31.872,18.703,36.371,18.715,36.638z M19.692,21.792c-0.175,0.694-0.322,1.446-0.445,2.229
	c-0.13-5.368-4.044-8.596-5.976-9.864l-0.333-0.219l0.157-0.367c0.052-0.121,0.078-0.248,0.078-0.379c0-0.524-0.414-0.95-0.922-0.95
	s-0.922,0.426-0.922,0.95c0,0.078,0.014,0.162,0.042,0.264l0.114,0.397l-0.377,0.168c-4.477,1.994-7.181,7.293-7.433,11.829
	C3.31,18.5,4.621,12.505,7.396,9.31c1.451-1.67,3.267-2.518,5.397-2.518c0.29,0,0.588,0.015,0.889,0.046
	c2.392,0.245,4.105,1.153,5.24,2.774C21.473,13.256,20.311,19.343,19.692,21.792z M44.146,3.221
	c-2.098-2.415-4.832-3.492-8.036-3.163c-2.974,0.304-5.229,1.527-6.704,3.634c-3.033,4.333-1.764,11.127-1.076,13.848
	c1.269,5.03,0.943,13.609,0.918,14.221c-0.073,0.652-0.747,7.438,2.316,11.122c1.186,1.426,2.761,2.211,4.682,2.335
	c0.335,0.021,0.659,0.032,0.971,0.032c0,0,0.001,0,0.002,0c7.97,0,8.918-6.681,10.639-18.808
	C49.324,16.092,47.973,7.628,44.146,3.221z M45.836,26.154c-1.798,12.672-2.719,17.055-8.619,17.054c-0.27,0-0.551-0.01-0.84-0.028
	c-1.356-0.087-2.416-0.61-3.241-1.6c-2.592-3.111-1.864-9.555-1.856-9.619c0.003-0.024,0.005-0.051,0.006-0.074
	c0.012-0.267,0.207-4.766-0.155-9.322c0.017,0.072,0.031,0.142,0.05,0.214c0.538,2.055,1.51,6.545,1.618,7.05
	c0.071,0.332,0.354,0.567,0.673,0.567c0.049,0,0.1-0.006,0.148-0.018c0.373-0.084,0.609-0.466,0.527-0.852
	c-0.012-0.047-1.057-4.913-1.635-7.12c-1.842-7.047,3.458-10.904,5.126-11.919l0.202-0.123l0.219,0.088
	c4.742,1.898,7.407,8.134,6.834,12.542c-0.614,4.727-3.456,6.77-3.576,6.854c-0.316,0.224-0.398,0.67-0.181,0.995
	c0.128,0.193,0.341,0.31,0.568,0.31c0.134,0,0.265-0.041,0.377-0.119c0.132-0.09,3.019-2.123,3.99-6.757
	C46.004,24.897,45.926,25.521,45.836,26.154z M46.325,21.097c-0.253-4.535-2.956-9.833-7.433-11.827l-0.377-0.168l0.114-0.397
	c0.028-0.102,0.042-0.186,0.042-0.264c0-0.524-0.413-0.95-0.922-0.95c-0.508,0-0.922,0.426-0.922,0.95
	c0,0.131,0.025,0.258,0.078,0.379l0.156,0.367l-0.333,0.219c-1.933,1.268-5.847,4.497-5.977,9.866
	c-0.122-0.784-0.27-1.536-0.444-2.231c-0.618-2.448-1.781-8.535,0.77-12.178c1.135-1.622,2.85-2.529,5.24-2.774
	c0.301-0.031,0.6-0.046,0.89-0.046c2.131,0,3.946,0.847,5.396,2.517C45.379,7.754,46.69,13.748,46.325,21.097z"/>
</svg>
