<?xml version="1.0" encoding="utf-8"?>
<!-- Generator: Adobe Illustrator 15.0.0, SVG Export Plug-In . SVG Version: 6.00 Build 0)  -->
<!DOCTYPE svg PUBLIC "-//W3C//DTD SVG 1.1//EN" "http://www.w3.org/Graphics/SVG/1.1/DTD/svg11.dtd">
<svg version="1.1" id="Layer_1" xmlns="http://www.w3.org/2000/svg" xmlns:xlink="http://www.w3.org/1999/xlink" x="0px" y="0px"
	 width="50px" height="50px" viewBox="0 0 50 50" enable-background="new 0 0 50 50" xml:space="preserve">
<path fill="#424242" d="M22.53,4.636c0.016,0,0.031,0,0.046-0.001C23,4.609,23.325,4.246,23.3,3.821l-0.134-2.283h5.238L28.291,3.43
	c-0.023,0.424,0.3,0.788,0.724,0.813c0.424,0.02,0.788-0.299,0.813-0.723l0.158-2.706c0.012-0.212-0.062-0.419-0.208-0.573
	C29.633,0.087,29.43,0,29.219,0H22.35c-0.212,0-0.414,0.087-0.56,0.241c-0.145,0.154-0.22,0.361-0.208,0.573l0.182,3.097
	C21.788,4.32,22.126,4.636,22.53,4.636z M34.32,21.594c-2.438-2.044-2.302-5.971-2.299-6.055v-3.413
	c0.166-0.801,0.938-3.083,4.384-4.204c0.274-0.089,0.499-0.29,0.617-0.553c0.119-0.263,0.122-0.564,0.007-0.829
	c-0.041-0.096-1.051-2.357-3.977-2.357c-0.798,0-1.665,0.175-2.578,0.52c-2.83,1.069-5.185,1.09-5.206,1.09h-6.14
	c-0.046,0-0.091,0.011-0.136,0.017h-4.13c-0.166,0.001-1.651,0.045-2.822,1.349c-1.155,1.283-1.645,3.446-1.417,6.253
	c0.498,6.129,2.649,9.756,3.634,11.124c-2.884,3.744-5.446,9.609-3.581,16.362c1.867,6.76,6.461,8.923,6.655,9.011
	C17.465,49.969,17.61,50,17.757,50h15.84c0.146,0,0.292-0.031,0.426-0.093c0.194-0.088,4.788-2.251,6.654-9.011
	C43.15,31.944,37.845,24.551,34.32,21.594z M25.269,7.844c0.07,0,1.168-0.007,2.784-0.326l-0.254,4.33H23.77l-0.235-4.003H25.269z
	 M21.994,7.844l0.282,4.817c0.024,0.407,0.361,0.724,0.768,0.724h5.479c0.408,0,0.744-0.317,0.768-0.724l0.324-5.519
	c0.506-0.143,1.035-0.313,1.584-0.521c0.681-0.257,1.305-0.387,1.854-0.387c0.553,0,0.974,0.134,1.288,0.311
	c-3.43,1.666-4.195,4.417-4.354,5.3c-0.012,0.06-0.017,0.122-0.017,0.183l0.001,3.463c-0.01,0.198-0.184,4.807,2.871,7.532H18.514
	c2.952-2.634,2.887-7.028,2.872-7.498c0.002-0.239,0.025-2.042,0.025-3.552c0-1.111-0.48-2.89-0.864-4.13H21.994z M12.668,13.245
	c-0.179-2.199,0.139-3.874,0.896-4.716c0.572-0.637,1.288-0.668,1.302-0.668h3.532c0.392,1.205,0.96,3.158,0.96,4.113
	c0,1.607-0.025,3.55-0.025,3.552c0,0.021,0,0.041,0.001,0.061c0.002,0.039,0.154,3.949-2.3,6.008
	c-0.444,0.373-0.916,0.815-1.397,1.322C14.727,21.514,13.083,18.348,12.668,13.245z M33.35,47.948H18.005
	c-0.353-0.194-1.16-0.697-2.074-1.639h19.493C34.51,47.251,33.701,47.754,33.35,47.948z M38.701,40.351
	c-0.688,2.492-1.779,4.246-2.812,5.445H15.465c-1.032-1.199-2.123-2.953-2.812-5.445c-2.22-8.039,2.634-14.108,4.768-16.301h16.511
	C36.067,26.242,40.922,32.312,38.701,40.351z"/>
</svg>
