<?xml version="1.0" encoding="utf-8"?>
<!-- Generator: Adobe Illustrator 15.0.0, SVG Export Plug-In . SVG Version: 6.00 Build 0)  -->
<!DOCTYPE svg PUBLIC "-//W3C//DTD SVG 1.1//EN" "http://www.w3.org/Graphics/SVG/1.1/DTD/svg11.dtd">
<svg version="1.1" id="Layer_1" xmlns="http://www.w3.org/2000/svg" xmlns:xlink="http://www.w3.org/1999/xlink" x="0px" y="0px"
	 width="50px" height="50px" viewBox="0 0 50 50" enable-background="new 0 0 50 50" xml:space="preserve">
<path fill="#424242" d="M24.099,9.739c-0.254,0.093-0.384,0.375-0.291,0.629l0.169,0.46c0.073,0.198,0.26,0.321,0.46,0.321
	c0.056,0,0.113-0.01,0.169-0.03c0.254-0.093,0.385-0.375,0.291-0.629l-0.169-0.46C24.635,9.776,24.354,9.646,24.099,9.739z
	 M16.661,19.78c-0.254,0.093-0.384,0.375-0.291,0.629l0.169,0.46c0.073,0.199,0.26,0.321,0.46,0.321c0.056,0,0.113-0.009,0.169-0.03
	c0.254-0.093,0.384-0.375,0.291-0.628l-0.169-0.46C17.197,19.817,16.917,19.687,16.661,19.78z M17.722,24.091
	c0.073,0.198,0.26,0.321,0.46,0.321c0.056,0,0.113-0.009,0.169-0.03c0.254-0.093,0.384-0.375,0.291-0.629l-0.169-0.46
	c-0.093-0.253-0.374-0.384-0.629-0.291c-0.254,0.093-0.384,0.375-0.291,0.629L17.722,24.091z M24.379,20.603
	c-0.254,0.093-0.385,0.375-0.291,0.629l0.168,0.46c0.073,0.199,0.261,0.321,0.46,0.321c0.056,0,0.114-0.01,0.169-0.03
	c0.254-0.094,0.384-0.375,0.291-0.629l-0.169-0.46C24.916,20.639,24.633,20.509,24.379,20.603z M25.562,23.823
	c-0.254,0.093-0.384,0.375-0.291,0.629l0.169,0.46c0.072,0.198,0.26,0.321,0.46,0.321c0.056,0,0.113-0.01,0.169-0.03
	c0.254-0.093,0.385-0.375,0.291-0.629l-0.169-0.46C26.098,23.86,25.818,23.73,25.562,23.823z M25.159,14.049
	c0.073,0.199,0.261,0.322,0.46,0.322c0.057,0,0.113-0.01,0.17-0.03c0.254-0.093,0.384-0.375,0.291-0.629l-0.17-0.459
	c-0.092-0.254-0.375-0.385-0.629-0.292s-0.384,0.375-0.291,0.629L25.159,14.049z M27.525,20.492c0.072,0.198,0.26,0.321,0.459,0.321
	c0.057,0,0.113-0.01,0.17-0.03c0.254-0.093,0.384-0.375,0.291-0.629l-0.17-0.46c-0.093-0.254-0.375-0.384-0.629-0.291
	s-0.385,0.375-0.291,0.629L27.525,20.492z M28.707,23.713c0.072,0.198,0.26,0.322,0.46,0.322c0.056,0,0.112-0.01,0.169-0.031
	c0.254-0.093,0.385-0.375,0.291-0.629l-0.169-0.46c-0.093-0.254-0.374-0.384-0.629-0.292c-0.254,0.093-0.384,0.375-0.291,0.629
	L28.707,23.713z M26.342,17.271c0.072,0.199,0.261,0.322,0.46,0.322c0.056,0,0.113-0.01,0.169-0.03
	c0.254-0.093,0.385-0.375,0.291-0.629l-0.169-0.46c-0.093-0.254-0.373-0.384-0.629-0.292c-0.254,0.093-0.384,0.375-0.291,0.629
	L26.342,17.271z M19.084,16.771c0.056,0,0.113-0.01,0.169-0.031c0.254-0.093,0.384-0.375,0.291-0.629l-0.169-0.46
	c-0.093-0.254-0.375-0.385-0.629-0.291c-0.254,0.093-0.384,0.375-0.291,0.629l0.169,0.46C18.697,16.647,18.884,16.771,19.084,16.771
	z M17.902,13.549c0.056,0,0.113-0.009,0.169-0.03c0.254-0.093,0.384-0.375,0.291-0.629l-0.169-0.46
	c-0.093-0.254-0.373-0.384-0.629-0.292c-0.254,0.093-0.384,0.375-0.291,0.629l0.169,0.46C17.515,13.426,17.702,13.549,17.902,13.549
	z M49.02,29.754H6.231V7.952c0-2.751,2.239-4.991,4.99-4.991c1.244,0,2.403,0.453,3.306,1.257l-0.303,0.12l-3.977,4.604l1.131,2.949
	l12.946-5.1l-1.185-2.929l-6.048-0.654l-0.584,0.231C15.193,1.905,13.251,1,11.221,1C7.388,1,4.27,4.119,4.27,7.952v21.802H0.98
	c-0.542,0-0.98,0.439-0.98,0.98s0.439,0.98,0.98,0.98h0.902v5.063c0,4.142,2.579,7.691,6.219,9.143l-0.67,1.425
	c-0.231,0.489-0.021,1.074,0.469,1.305c0.135,0.062,0.277,0.094,0.417,0.094c0.368,0,0.721-0.209,0.888-0.564l0.807-1.714
	c0.566,0.101,1.148,0.157,1.743,0.157h26.489c0.865,0,1.703-0.112,2.502-0.321l0.885,1.878c0.167,0.355,0.52,0.564,0.888,0.564
	c0.14,0,0.282-0.031,0.417-0.094c0.49-0.23,0.699-0.815,0.469-1.305l-0.814-1.73c3.271-1.605,5.527-4.963,5.527-8.837v-5.063h0.902
	c0.541,0,0.98-0.439,0.98-0.98S49.561,29.754,49.02,29.754z M17.36,5.209l4.402,0.476l0.002,0.006L12.5,9.341l-0.002-0.005
	l2.894-3.351L17.36,5.209z M46.156,36.778c0,4.347-3.549,7.884-7.912,7.884H11.755c-4.363,0-7.912-3.537-7.912-7.884V35.42h42.313
	V36.778z M46.156,34.93H3.843v-2.695h42.313V34.93z M22.172,26.112c0.073,0.198,0.26,0.321,0.46,0.321
	c0.056,0,0.114-0.01,0.169-0.03c0.254-0.093,0.384-0.375,0.291-0.63l-0.169-0.459c-0.093-0.254-0.375-0.384-0.629-0.291
	s-0.384,0.375-0.291,0.629L22.172,26.112z M18.904,27.312c0.073,0.197,0.26,0.32,0.46,0.32c0.056,0,0.113-0.01,0.169-0.029
	c0.254-0.094,0.384-0.375,0.291-0.629l-0.169-0.461c-0.093-0.254-0.375-0.385-0.629-0.291c-0.254,0.094-0.384,0.375-0.291,0.629
	L18.904,27.312z M14.296,13.338c-0.254,0.093-0.384,0.375-0.291,0.629l0.169,0.46c0.073,0.198,0.261,0.321,0.46,0.321
	c0.056,0,0.113-0.01,0.169-0.03c0.254-0.094,0.384-0.375,0.291-0.629l-0.169-0.46C14.832,13.375,14.552,13.245,14.296,13.338z
	 M15.479,16.56c-0.254,0.093-0.384,0.375-0.291,0.629l0.169,0.459c0.073,0.198,0.261,0.322,0.46,0.322
	c0.056,0,0.113-0.01,0.169-0.031c0.254-0.094,0.384-0.375,0.291-0.629l-0.169-0.46C16.014,16.597,15.732,16.466,15.479,16.56z
	 M23.534,18.792c0.056,0,0.113-0.01,0.169-0.03c0.254-0.093,0.384-0.375,0.291-0.629l-0.168-0.46
	c-0.093-0.254-0.373-0.384-0.629-0.291c-0.254,0.094-0.385,0.375-0.291,0.629l0.169,0.46C23.147,18.669,23.334,18.792,23.534,18.792
	z M20.267,19.991c0.056,0,0.113-0.009,0.169-0.03c0.254-0.093,0.384-0.375,0.291-0.629l-0.169-0.46
	c-0.093-0.254-0.373-0.384-0.629-0.292c-0.254,0.093-0.385,0.375-0.291,0.629l0.169,0.46C19.88,19.869,20.067,19.991,20.267,19.991z
	 M21.169,12.35c0.056,0,0.113-0.01,0.169-0.03c0.254-0.094,0.384-0.375,0.291-0.63l-0.169-0.46
	c-0.093-0.254-0.373-0.384-0.629-0.291c-0.254,0.093-0.384,0.375-0.291,0.629l0.169,0.46C20.782,12.227,20.969,12.35,21.169,12.35z
	 M20.989,22.891c0.073,0.198,0.26,0.322,0.46,0.322c0.056,0,0.113-0.01,0.169-0.03c0.254-0.093,0.384-0.375,0.291-0.629l-0.169-0.46
	c-0.094-0.254-0.374-0.383-0.629-0.291c-0.254,0.093-0.384,0.375-0.291,0.629L20.989,22.891z M22.352,15.571
	c0.056,0,0.114-0.01,0.169-0.03c0.254-0.094,0.385-0.375,0.291-0.629l-0.168-0.46c-0.094-0.254-0.376-0.384-0.629-0.291
	c-0.254,0.094-0.384,0.375-0.291,0.629l0.169,0.46C21.965,15.448,22.152,15.571,22.352,15.571z"/>
</svg>
