<?xml version="1.0" encoding="utf-8"?>
<!-- Generator: Adobe Illustrator 15.0.0, SVG Export Plug-In . SVG Version: 6.00 Build 0)  -->
<!DOCTYPE svg PUBLIC "-//W3C//DTD SVG 1.1//EN" "http://www.w3.org/Graphics/SVG/1.1/DTD/svg11.dtd">
<svg version="1.1" id="Layer_1" xmlns="http://www.w3.org/2000/svg" xmlns:xlink="http://www.w3.org/1999/xlink" x="0px" y="0px"
	 width="50px" height="50px" viewBox="0 0 50 50" enable-background="new 0 0 50 50" xml:space="preserve">
<path fill="#424242" d="M26.693,8.419l0.623-3.586l3.588-0.624l-3.588-0.624L26.693,0l-0.625,3.586L22.48,4.209l3.588,0.624
	L26.693,8.419z M17.72,16.255l1.021,5.865l1.02-5.865l5.87-1.02l-5.87-1.02l-1.02-5.864l-1.021,5.864l-5.869,1.02L17.72,16.255z
	 M9.953,11.346l0.768-4.415l4.418-0.767L10.72,5.396L9.953,0.981L9.184,5.396L4.767,6.164l4.417,0.767L9.953,11.346z M46.569,6.698
	c-1.198-0.793-2.63-1.066-4.03-0.775c-1.408,0.294-2.615,1.124-3.403,2.34L28.447,24.828H1.99c-0.541,0-0.979,0.439-0.979,0.979
	c0,9.241,6.037,17.085,14.338,19.728v3.486c0,0.541,0.438,0.979,0.979,0.979h16.078c0.541,0,0.98-0.438,0.98-0.979v-3.486
	c8.301-2.643,14.338-10.486,14.338-19.728c0-0.541-0.439-0.979-0.98-0.979h-5.529l6.902-10.648
	C49.732,11.687,49.038,8.331,46.569,6.698z M31.428,48.041h-14.12v-1.99c1.352,0.285,2.751,0.436,4.186,0.436h5.749
	c1.434,0,2.834-0.15,4.186-0.436V48.041z M27.242,44.527h-5.749c-8.137,0-15.062-5.332-17.542-12.719h40.833
	C42.303,39.195,35.379,44.527,27.242,44.527z M45.74,26.787c-0.071,1.395-0.299,2.746-0.656,4.043H3.652
	c-0.358-1.297-0.586-2.648-0.657-4.043H45.74z M46.475,13.115l-7.594,11.713h-8.104L40.78,9.327c0.5-0.772,1.267-1.3,2.159-1.486
	c0.887-0.185,1.792-0.011,2.55,0.49C47.065,9.374,47.508,11.52,46.475,13.115z"/>
</svg>
