<?xml version="1.0" encoding="utf-8"?>
<!-- Generator: Adobe Illustrator 15.0.0, SVG Export Plug-In . SVG Version: 6.00 Build 0)  -->
<!DOCTYPE svg PUBLIC "-//W3C//DTD SVG 1.1//EN" "http://www.w3.org/Graphics/SVG/1.1/DTD/svg11.dtd">
<svg version="1.1" id="Layer_1" xmlns="http://www.w3.org/2000/svg" xmlns:xlink="http://www.w3.org/1999/xlink" x="0px" y="0px"
	 width="50px" height="50px" viewBox="0 0 50 50" enable-background="new 0 0 50 50" xml:space="preserve">
<path fill="#424242" d="M46.547,9.711c-1.138,0-2.146,0.556-2.775,1.408h-8.067c0.596-1.064,1.732-1.786,3.036-1.786
	c0.807,0,1.594,0.286,2.217,0.805c0.33,0.274,0.818,0.229,1.092-0.1c0.273-0.329,0.229-0.817-0.1-1.09
	c-0.902-0.75-2.041-1.163-3.209-1.163H12.035c-2.153,0-3.989,1.363-4.705,3.27H6.183c-0.649-0.836-1.661-1.343-2.729-1.343
	C1.549,9.711,0,11.261,0,13.166s1.549,3.454,3.454,3.454c1.08,0,2.074-0.499,2.726-1.343h0.827v26.82
	c0,0.428,0.347,0.774,0.774,0.774h0.756v2.282c0,0.32,0.26,0.58,0.581,0.58s0.581-0.26,0.581-0.58v-2.282h1.811v2.282
	c0,0.32,0.26,0.58,0.581,0.58s0.581-0.26,0.581-0.58v-2.282h1.811v2.282c0,0.32,0.26,0.58,0.581,0.58c0.32,0,0.581-0.26,0.581-0.58
	v-2.282h1.811v2.282c0,0.32,0.26,0.58,0.581,0.58s0.581-0.26,0.581-0.58v-2.282h1.811v2.282c0,0.32,0.26,0.58,0.581,0.58
	c0.32,0,0.581-0.26,0.581-0.58v-2.282h1.811v2.282c0,0.32,0.26,0.58,0.581,0.58c0.32,0,0.581-0.26,0.581-0.58v-2.282h1.811v2.282
	c0,0.32,0.26,0.58,0.581,0.58c0.32,0,0.58-0.26,0.58-0.58v-2.282h1.811v2.282c0,0.32,0.261,0.58,0.582,0.58
	c0.32,0,0.58-0.26,0.58-0.58v-2.282h1.811v2.282c0,0.32,0.26,0.58,0.581,0.58s0.581-0.26,0.581-0.58v-2.282h1.008
	c0.428,0,0.775-0.347,0.775-0.774V15.212h6.958v17.616h-5.44c-0.213,0-0.387,0.173-0.387,0.387c0,0.215,0.174,0.388,0.387,0.388
	h5.44v2.372h-5.44c-0.428,0-0.774,0.347-0.774,0.774c0,0.427,0.347,0.774,0.774,0.774H38v2.473c0,0.32,0.26,0.58,0.58,0.58
	c0.321,0,0.582-0.26,0.582-0.58v-2.473h1.811v2.473c0,0.32,0.26,0.58,0.58,0.58s0.581-0.26,0.581-0.58v-2.473h0.86
	c0.428,0,0.774-0.348,0.774-0.774V15.212h0.003c0.629,0.852,1.638,1.408,2.775,1.408c1.904,0,3.453-1.549,3.453-3.454
	S48.451,9.711,46.547,9.711z M4.525,14.739c-0.311,0.212-0.681,0.333-1.071,0.333c-1.05,0-1.905-0.855-1.905-1.905
	c0-1.051,0.854-1.906,1.905-1.906c0.392,0,0.761,0.12,1.071,0.332c-0.434,0.387-0.708,0.948-0.708,1.574
	C3.817,13.791,4.091,14.352,4.525,14.739z M7.007,12.814v0.914H5.928c-0.31,0-0.562-0.252-0.562-0.562s0.252-0.562,0.562-0.562
	h1.089C7.015,12.674,7.007,12.743,7.007,12.814z M33.713,41.322H8.556v-2.668h25.157V41.322z M33.713,12.814v25.064H8.556V12.814
	c0-1.919,1.561-3.481,3.479-3.481h23.078C34.246,10.238,33.713,11.465,33.713,12.814z M43.134,13.663h-7.872v-0.849
	c0-0.049,0.004-0.097,0.007-0.146h7.865c-0.024,0.163-0.04,0.328-0.04,0.497S43.109,13.5,43.134,13.663z M46.547,15.071
	c-1.051,0-1.904-0.855-1.904-1.905c0-1.051,0.854-1.906,1.904-1.906s1.904,0.855,1.904,1.906
	C48.451,14.216,47.598,15.071,46.547,15.071z"/>
</svg>
