<?xml version="1.0" encoding="utf-8"?>
<!-- Generator: Adobe Illustrator 15.0.0, SVG Export Plug-In . SVG Version: 6.00 Build 0)  -->
<!DOCTYPE svg PUBLIC "-//W3C//DTD SVG 1.1//EN" "http://www.w3.org/Graphics/SVG/1.1/DTD/svg11.dtd">
<svg version="1.1" id="Layer_1" xmlns="http://www.w3.org/2000/svg" xmlns:xlink="http://www.w3.org/1999/xlink" x="0px" y="0px"
	 width="30px" height="30px" viewBox="0 0 30 30" enable-background="new 0 0 30 30" xml:space="preserve">
<g>
	<path fill="#999999" d="M27.948,16.179h-9.644c-0.26,0-0.509,0.095-0.702,0.271l-3.438,3.095c-0.035,0.03-0.078,0.049-0.125,0.049
		h-3.912C9.505,19.593,9,20.098,9,20.72v1.141c0,0.621,0.507,1.127,1.128,1.127h5.896c0.254,0,0.504-0.09,0.704-0.246l0.253-0.202
		l0,0l0.002-0.004l1.389-1.107c0.02-0.017,0.043-0.023,0.066-0.023h9.511c0.579,0,1.052-0.471,1.052-1.051v-3.125
		C29,16.649,28.529,16.179,27.948,16.179z M28.057,20.353c0,0.061-0.05,0.108-0.108,0.108h-8.436l0.231-0.189
		c0.201-0.165,0.23-0.461,0.066-0.664c-0.166-0.202-0.462-0.231-0.664-0.064l-2.765,2.267l-0.241,0.193
		c-0.034,0.026-0.074,0.041-0.117,0.041h-5.896c-0.103,0-0.186-0.083-0.186-0.186v-1.141c0-0.102,0.083-0.186,0.186-0.186h3.912
		c0.28,0,0.549-0.103,0.756-0.289l3.438-3.097c0.02-0.018,0.045-0.026,0.072-0.026h9.644c0.059,0,0.108,0.049,0.108,0.108V20.353z"
		/>
	<path fill="#999999" d="M13.252,18.461c1.558,0,2.826-1.267,2.826-2.826c0-1.557-1.268-2.825-2.826-2.825
		c-1.558,0-2.825,1.268-2.825,2.825C10.428,17.194,11.694,18.461,13.252,18.461z M13.252,13.752c1.039,0,1.884,0.845,1.884,1.885
		c0,1.039-0.844,1.885-1.884,1.885c-1.039,0-1.883-0.846-1.883-1.885C11.37,14.597,12.214,13.752,13.252,13.752z"/>
	<path fill="#999999" d="M17.764,15.191c0.408,0.457,1.101,0.547,1.613,0.211l0.725-0.475c0.004-0.002,0.006-0.002,0.007-0.005
		l0.019-0.015l1.095-0.715v1.166c0,0.262,0.211,0.473,0.472,0.473c0.259,0,0.471-0.211,0.471-0.473v-1.905l1.127-0.808
		c0.214-0.151,0.262-0.446,0.11-0.658s-0.446-0.261-0.656-0.109l-3.155,2.256l-0.731,0.479c-0.126,0.083-0.291,0.061-0.392-0.055
		l-0.342-0.383c-0.105-0.117-0.103-0.291,0.004-0.406l4.521-4.893c0.281-0.305,0.696-0.458,1.106-0.408
		c0.413,0.05,0.779,0.297,0.979,0.661c0.832,1.505,1.399,3.345,1.734,5.627c0.037,0.258,0.274,0.432,0.534,0.396
		c0.257-0.039,0.436-0.277,0.398-0.535c-0.352-2.395-0.954-4.34-1.844-5.944c-0.347-0.627-0.978-1.054-1.69-1.141
		c-0.714-0.083-1.425,0.178-1.913,0.704l-4.521,4.894c-0.438,0.475-0.444,1.196-0.014,1.674L17.764,15.191z"/>
	<path fill="#999999" d="M21.334,7.139c1.567,0,2.844-1.211,2.978-2.746c0.604-0.288,1.021-0.897,1.021-1.606
		C25.332,1.801,24.531,1,23.546,1c-0.39,0-0.765,0.134-1.072,0.368c-0.368-0.156-0.75-0.237-1.14-0.237
		c-1.656,0-3.005,1.348-3.005,3.004C18.329,5.792,19.678,7.139,21.334,7.139z M21.334,2.073c0.34,0,0.675,0.09,0.993,0.268
		c0.221,0.122,0.494,0.047,0.626-0.167c0.011-0.007,0.022-0.009,0.031-0.018c0.154-0.139,0.354-0.215,0.562-0.215
		c0.465,0,0.845,0.379,0.845,0.845c0,0.513-0.493,0.907-0.98,0.833c-0.26-0.046-0.498,0.133-0.539,0.39
		c-0.042,0.257,0.132,0.499,0.39,0.54c0.029,0.005,0.06,0.004,0.092,0.007c-0.196,0.936-1.025,1.641-2.019,1.641
		c-1.137,0-2.061-0.926-2.061-2.062S20.196,2.073,21.334,2.073z"/>
</g>
</svg>
