<?xml version="1.0" encoding="utf-8"?>
<!-- Generator: Adobe Illustrator 15.0.0, SVG Export Plug-In . SVG Version: 6.00 Build 0)  -->
<!DOCTYPE svg PUBLIC "-//W3C//DTD SVG 1.1//EN" "http://www.w3.org/Graphics/SVG/1.1/DTD/svg11.dtd">
<svg version="1.1" id="Layer_1" xmlns="http://www.w3.org/2000/svg" xmlns:xlink="http://www.w3.org/1999/xlink" x="0px" y="0px"
	 width="30px" height="30px" viewBox="0 0 30 30" enable-background="new 0 0 30 30" xml:space="preserve">
<g>
	<path fill="#999999" d="M28.923,11.662c-0.089-0.14-0.243-0.226-0.411-0.226h-3.177l-0.674,0.977h3.082l-2.293,4.89h-8.848
		l0.628-0.566c0.199-0.182,0.215-0.488,0.035-0.691c-0.183-0.199-0.49-0.215-0.69-0.033l-2.769,2.501l-1.088,0.868
		c-0.072,0.056-0.163,0.09-0.256,0.09H4.388c-0.228,0-0.412-0.185-0.412-0.412v-1.561c0-0.229,0.185-0.412,0.412-0.412h5.359
		c0.343,0,0.673-0.127,0.928-0.357l4.708-4.239c0.055-0.051,0.128-0.078,0.203-0.078h0.778l-0.302-0.977h-0.477
		c-0.318,0-0.623,0.117-0.858,0.329l-4.708,4.237c-0.075,0.07-0.174,0.107-0.275,0.107H4.388C3.622,16.109,3,16.731,3,17.496v1.562
		c0,0.765,0.622,1.388,1.388,1.388h8.074c0.315,0,0.622-0.108,0.866-0.303l2.25-1.798c0.055-0.042,0.121-0.066,0.191-0.066h9.989
		c0.19,0,0.363-0.109,0.442-0.28l2.753-5.866C29.024,11.98,29.013,11.804,28.923,11.662z"/>
	<path fill="#999999" d="M8.737,14.216c1.855,0,3.365-1.51,3.365-3.365c0-1.856-1.51-3.365-3.365-3.365
		c-1.855,0-3.365,1.51-3.365,3.365S6.882,14.216,8.737,14.216z M8.737,8.462c1.317,0,2.388,1.072,2.388,2.389
		c0,1.317-1.071,2.388-2.388,2.388s-2.39-1.071-2.39-2.388C6.348,9.534,7.42,8.462,8.737,8.462z"/>
	<path fill="#999999" d="M16.102,8.848l0.801,2.588l0.301,0.977l0.371,1.197c0.056,0.182,0.225,0.298,0.406,0.298
		c0.018,0,0.037-0.005,0.056-0.008c0.022-0.003,0.044-0.003,0.067-0.011c0.224-0.068,0.348-0.306,0.279-0.529l-0.293-0.948h2.13
		v0.329c0,0.234,0.189,0.424,0.423,0.424c0.232,0,0.423-0.189,0.425-0.423v-0.33h1.452l-0.905,1.283
		c-0.136,0.191-0.091,0.454,0.102,0.59c0.074,0.052,0.159,0.077,0.24,0.077c0.132,0,0.266-0.062,0.346-0.179l0.455-0.646
		l0.796-1.125l0.687-0.977l1.403-1.987c0.115-0.163,0.092-0.376-0.035-0.52c-0.022-0.024-0.039-0.05-0.066-0.07
		c-0.192-0.134-0.455-0.089-0.591,0.102l-1.746,2.475h-2.141l0.002-4.046c0-0.234-0.19-0.424-0.423-0.424
		c-0.234,0-0.421,0.189-0.423,0.423l-0.002,4.046h-2.435l-0.892-2.897c-0.069-0.224-0.308-0.348-0.53-0.279
		c-0.223,0.07-0.347,0.306-0.278,0.53L16.102,8.848z"/>
</g>
</svg>
