<?xml version="1.0" encoding="utf-8"?>
<!-- Generator: Adobe Illustrator 15.0.0, SVG Export Plug-In . SVG Version: 6.00 Build 0)  -->
<!DOCTYPE svg PUBLIC "-//W3C//DTD SVG 1.1//EN" "http://www.w3.org/Graphics/SVG/1.1/DTD/svg11.dtd">
<svg version="1.1" id="Layer_1" xmlns="http://www.w3.org/2000/svg" xmlns:xlink="http://www.w3.org/1999/xlink" x="0px" y="0px"
	 width="30px" height="30px" viewBox="0 0 30 30" enable-background="new 0 0 30 30" xml:space="preserve">
<path fill="#777777" d="M29.805,11.466c-0.035-0.063-0.076-0.125-0.123-0.185v-0.71c0-0.862-0.584-1.611-1.42-1.82l-6.693-1.685
	l-4.129-2.588c-0.457-0.286-0.982-0.438-1.521-0.438H4.771c-0.46,0-0.92,0.113-1.33,0.327L3.359,4.412
	C2.962,4.62,2.614,4.923,2.354,5.289l-1.25,1.755C0.877,7.18,0.708,7.391,0.625,7.642l-0.492,1.5C0.045,9.411,0,9.692,0,9.978v1.5
	c0,0.677,0.251,1.327,0.705,1.829l1.189,1.312c0.206,0.229,0.5,0.36,0.809,0.36h0.933c0.113,0,0.222-0.024,0.329-0.058
	c0.553,0.766,1.446,1.269,2.46,1.269s1.908-0.503,2.46-1.269c0.106,0.034,0.215,0.058,0.328,0.058h11.111
	c0.119,0,0.232-0.025,0.342-0.062c0.551,0.76,1.439,1.259,2.445,1.259c1.008,0,1.898-0.499,2.447-1.26
	c0.111,0.037,0.225,0.063,0.342,0.063h1.707c0.943,0,1.771-0.604,2.059-1.5l0.262-0.811C30.057,12.267,30.012,11.83,29.805,11.466z
	 M27.607,13.763h-1.531c0.041-0.199,0.062-0.404,0.062-0.614c0-1.668-1.357-3.026-3.027-3.026c-1.668,0-3.025,1.358-3.025,3.026
	c0,0.21,0.023,0.416,0.064,0.614H9.403c0.041-0.199,0.063-0.404,0.063-0.614c0-1.677-1.364-3.041-3.041-3.041
	s-3.041,1.364-3.041,3.041c0,0.21,0.021,0.416,0.062,0.614H2.758l-1.152-1.271c-0.252-0.278-0.391-0.638-0.391-1.013v-1.5
	c0-0.156,0.024-0.31,0.072-0.458L1.67,8.355h4.526l0.054,0.03l0.017-0.03h15.438l6.26,1.574c0.295,0.074,0.502,0.339,0.502,0.643
	v1.333l0.094,0.021c0.082,0.019,0.148,0.068,0.188,0.139c0.039,0.07,0.049,0.152,0.023,0.229l-0.262,0.811
	C28.383,13.498,28.02,13.763,27.607,13.763z M21.389,13.674c-0.006-0.022-0.004-0.043-0.01-0.065
	c-0.086-0.324-0.084-0.625,0.006-0.923c0.236-0.785,0.949-1.333,1.732-1.333l0.057,0.001c0.973,0.032,1.734,0.82,1.734,1.795
	c0,0.146-0.02,0.3-0.062,0.46c-0.006,0.021-0.004,0.043-0.01,0.064c-0.227,0.742-0.91,1.286-1.725,1.286
	S21.615,14.416,21.389,13.674z M4.713,13.764c-0.006-0.052-0.009-0.104-0.022-0.155c-0.085-0.323-0.083-0.625,0.006-0.922
	c0.236-0.786,0.948-1.334,1.733-1.334l0.055,0.001c0.974,0.032,1.736,0.82,1.736,1.795c0,0.148-0.021,0.303-0.062,0.459
	c-0.014,0.051-0.017,0.104-0.023,0.157c-0.254,0.702-0.922,1.209-1.711,1.209C5.635,14.974,4.967,14.467,4.713,13.764z M4.005,5.445
	c0.235-0.123,0.5-0.188,0.766-0.188h1.825L5.552,7.139H2.529l0.816-1.146c0.149-0.211,0.349-0.385,0.578-0.504L4.005,5.445z
	 M13.956,7.139l-0.311-1.882h2.273c0.311,0,0.615,0.087,0.877,0.251l2.6,1.63H13.956z M12.724,7.139H6.942l1.043-1.882h4.427
	L12.724,7.139z"/>
</svg>
