<?xml version="1.0" encoding="utf-8"?>
<!-- Generator: Adobe Illustrator 15.0.0, SVG Export Plug-In . SVG Version: 6.00 Build 0)  -->
<!DOCTYPE svg PUBLIC "-//W3C//DTD SVG 1.1//EN" "http://www.w3.org/Graphics/SVG/1.1/DTD/svg11.dtd">
<svg version="1.1" id="Layer_1" xmlns="http://www.w3.org/2000/svg" xmlns:xlink="http://www.w3.org/1999/xlink" x="0px" y="0px"
	 width="30px" height="30px" viewBox="0 0 30 30" enable-background="new 0 0 30 30" xml:space="preserve">
<g>
	<g>
		<g>
			<g>
				<g>
					<path fill="#777777" d="M23.07,13.673c1.271,0,2.301,1.031,2.301,2.303c0,1.271-1.03,2.302-2.301,2.302
						c-1.271,0-2.302-1.031-2.302-2.302C20.769,14.704,21.799,13.673,23.07,13.673 M23.07,12.709c-1.801,0-3.266,1.466-3.266,3.267
						c0,1.801,1.465,3.266,3.266,3.266s3.266-1.465,3.266-3.266C26.336,14.175,24.871,12.709,23.07,12.709L23.07,12.709z"/>
					<path fill="#777777" d="M23.07,19.367c-1.869,0-3.391-1.521-3.391-3.391c0-1.871,1.521-3.392,3.391-3.392
						s3.391,1.521,3.391,3.392C26.461,17.846,24.939,19.367,23.07,19.367z M23.07,12.834c-1.731,0-3.141,1.41-3.141,3.142
						c0,1.731,1.409,3.141,3.141,3.141s3.141-1.409,3.141-3.141C26.211,14.244,24.802,12.834,23.07,12.834z M23.07,18.403
						c-1.338,0-2.427-1.089-2.427-2.427c0-1.339,1.089-2.428,2.427-2.428s2.426,1.089,2.426,2.428
						C25.496,17.314,24.408,18.403,23.07,18.403z M23.07,13.798c-1.2,0-2.177,0.977-2.177,2.178c0,1.2,0.977,2.177,2.177,2.177
						s2.176-0.977,2.176-2.177C25.246,14.775,24.271,13.798,23.07,13.798z"/>
				</g>
			</g>
		</g>
		<g>
			<g>
				<g>
					<path fill="#777777" d="M7.136,13.735c1.238,0,2.24,1.003,2.24,2.241c0,1.236-1.002,2.239-2.24,2.239
						c-1.237,0-2.241-1.003-2.241-2.239C4.896,14.739,5.899,13.735,7.136,13.735 M7.136,12.771c-1.767,0-3.205,1.438-3.205,3.206
						c0,1.766,1.438,3.203,3.205,3.203c1.766,0,3.204-1.438,3.204-3.203C10.34,14.208,8.902,12.771,7.136,12.771L7.136,12.771z"/>
					<path fill="#777777" d="M7.136,19.305c-1.836,0-3.33-1.493-3.33-3.328c0-1.836,1.494-3.331,3.33-3.331
						c1.835,0,3.329,1.494,3.329,3.331C10.465,17.812,8.972,19.305,7.136,19.305z M7.136,12.896c-1.698,0-3.08,1.382-3.08,3.081
						c0,1.697,1.381,3.078,3.08,3.078c1.698,0,3.079-1.381,3.079-3.078C10.215,14.278,8.834,12.896,7.136,12.896z M7.136,18.341
						c-1.305,0-2.366-1.061-2.366-2.364c0-1.305,1.061-2.366,2.366-2.366c1.304,0,2.365,1.062,2.365,2.366
						C9.501,17.28,8.44,18.341,7.136,18.341z M7.136,13.86c-1.167,0-2.116,0.949-2.116,2.116c0,1.166,0.949,2.114,2.116,2.114
						s2.115-0.948,2.115-2.114C9.251,14.81,8.303,13.86,7.136,13.86z"/>
				</g>
			</g>
		</g>
		<g>
			<g>
				<path fill="#777777" d="M13.897,5.692c5.129,0,8.143,4.237,8.268,4.417l-0.034,0.023c3.577,0.524,5.487,1.813,5.487,1.813
					s-0.135,2.014,0.672,2.417c0.805,0.404,0.872,1.075,0.604,1.412c-0.268,0.336-2.014,0.805-2.014,0.805h-0.752
					c0.038-0.194,0.061-0.396,0.061-0.602c0-1.723-1.396-3.118-3.118-3.118c-1.723,0-3.118,1.396-3.118,3.118
					c0,0.205,0.022,0.407,0.061,0.602h-4.015l-5.8-0.022c0.035-0.188,0.056-0.382,0.056-0.579c0-1.723-1.397-3.118-3.118-3.118
					c-1.722,0-3.118,1.396-3.118,3.118c0,0.188,0.02,0.374,0.053,0.555L2.7,16.526c-0.873-0.269-1.275-0.351-1.275-1.223
					c0-0.874,0.873-0.874,0.873-0.874c0.73-1.713,1.752-2.849,2.539-3.532L4.815,10.88C4.985,10.668,9.028,5.692,13.897,5.692
					 M13.897,4.728c-2.247,0-4.566,0.914-6.893,2.716c-1.719,1.332-2.821,2.684-2.94,2.833l-0.048,0.059
					c-0.734,0.674-1.669,1.736-2.397,3.255c-0.635,0.24-1.158,0.824-1.158,1.712c0,1.546,1.021,1.858,1.842,2.109l0.114,0.035
					l0.137,0.042l0.143,0.001l1.369,0.006L5.225,17.5L5.02,16.36c-0.025-0.138-0.037-0.265-0.037-0.384
					c0-1.188,0.966-2.155,2.154-2.155c1.188,0,2.153,0.966,2.153,2.155c0,0.129-0.013,0.26-0.04,0.4l-0.213,1.138l1.157,0.006
					l5.801,0.021h4.018h1.171l-0.226-1.148c-0.027-0.14-0.042-0.28-0.042-0.417c0-1.188,0.966-2.155,2.154-2.155
					c1.188,0,2.154,0.966,2.154,2.155c0,0.137-0.015,0.277-0.042,0.417l-0.227,1.148h1.172h0.752h0.127l0.122-0.033
					c2.052-0.553,2.391-0.974,2.519-1.134c0.309-0.388,0.422-0.9,0.311-1.409c-0.131-0.597-0.552-1.107-1.186-1.44
					c-0.137-0.209-0.23-0.938-0.192-1.518l0.037-0.553l-0.46-0.31c-0.082-0.055-1.971-1.309-5.433-1.895
					C21.872,8.178,18.75,4.728,13.897,4.728L13.897,4.728z"/>
				<path fill="#777777" d="M27.023,17.667h-2.22l0.256-1.298c0.026-0.134,0.04-0.267,0.04-0.393c0-1.119-0.91-2.03-2.029-2.03
					s-2.029,0.911-2.029,2.03c0,0.126,0.014,0.259,0.04,0.393l0.255,1.298h-5.341l-7.109-0.028l0.241-1.285
					c0.025-0.134,0.038-0.257,0.038-0.377c0-1.119-0.91-2.03-2.028-2.03s-2.029,0.911-2.029,2.03c0,0.115,0.011,0.233,0.035,0.361
					l0.232,1.288l-2.857-0.018l-0.251-0.077c-0.815-0.249-1.93-0.59-1.93-2.228c0-0.835,0.444-1.508,1.191-1.811
					c0.753-1.551,1.722-2.622,2.404-3.249l0.036-0.045c0.12-0.15,1.229-1.512,2.96-2.853c2.349-1.82,4.694-2.743,6.97-2.743
					c4.854,0,8.001,3.419,8.896,4.532c3.451,0.593,5.354,1.853,5.434,1.907l0.521,0.35l-0.042,0.625
					c-0.037,0.566,0.054,1.213,0.157,1.416c0.649,0.351,1.081,0.884,1.218,1.507c0.119,0.545-0.003,1.097-0.335,1.514
					c-0.146,0.183-0.489,0.612-2.584,1.177L27.023,17.667z M25.108,17.417h1.882l0.105-0.029c2.017-0.543,2.346-0.955,2.454-1.091
					c0.285-0.357,0.389-0.833,0.286-1.304c-0.123-0.56-0.521-1.041-1.121-1.356l-0.029-0.015l-0.018-0.027
					c-0.17-0.26-0.248-1.048-0.213-1.594l0.032-0.481l-0.4-0.27c-0.078-0.052-1.955-1.295-5.383-1.875l-0.048-0.008l-0.029-0.038
					c-0.835-1.05-3.932-4.475-8.729-4.475c-2.219,0-4.513,0.905-6.816,2.69c-1.708,1.324-2.801,2.665-2.919,2.813l-0.049,0.06
					c-0.685,0.631-1.643,1.69-2.381,3.23L1.709,13.69l-0.047,0.018c-0.674,0.255-1.077,0.851-1.077,1.595
					c0,1.453,0.931,1.738,1.752,1.989l0.235,0.072l2.502,0.01l-0.179-0.991c-0.026-0.143-0.039-0.275-0.039-0.406
					c0-1.257,1.022-2.28,2.279-2.28s2.278,1.023,2.278,2.28c0,0.136-0.014,0.273-0.042,0.424l-0.186,0.99l6.808,0.026h5.036
					l-0.196-0.999c-0.029-0.15-0.044-0.299-0.044-0.441c0-1.257,1.022-2.28,2.279-2.28s2.279,1.023,2.279,2.28
					c0,0.143-0.015,0.291-0.044,0.441L25.108,17.417z M26.896,16.703h-0.921l0.029-0.149c0.039-0.196,0.059-0.391,0.059-0.577
					c0-1.65-1.343-2.993-2.993-2.993s-2.993,1.343-2.993,2.993c0,0.187,0.02,0.381,0.059,0.577l0.029,0.149h-4.167l-5.95-0.023
					l0.027-0.146c0.037-0.198,0.054-0.38,0.054-0.557c0-1.65-1.343-2.993-2.993-2.993s-2.993,1.343-2.993,2.993
					c0,0.17,0.017,0.344,0.051,0.532l0.027,0.148l-1.558-0.012L2.549,16.61C1.744,16.364,1.3,16.229,1.3,15.303
					c0-0.73,0.557-0.964,0.914-0.995c0.728-1.673,1.733-2.79,2.476-3.448l0.029-0.058c0.171-0.214,4.245-5.235,9.18-5.235
					c5.119,0,8.138,4.141,8.361,4.458c3.493,0.532,5.352,1.764,5.43,1.817l0.06,0.04l-0.005,0.072
					c-0.036,0.537,0.003,1.997,0.603,2.297c0.432,0.217,0.713,0.536,0.793,0.897c0.057,0.26,0.003,0.516-0.147,0.705
					c-0.285,0.357-1.896,0.798-2.079,0.848L26.896,16.703z M26.276,16.453h0.587c0.662-0.179,1.758-0.538,1.933-0.758
					c0.103-0.129,0.139-0.309,0.098-0.495c-0.062-0.287-0.297-0.545-0.659-0.727c-0.788-0.394-0.762-2.08-0.745-2.462
					c-0.347-0.214-2.214-1.292-5.377-1.756l-0.32-0.047l0.196-0.131c-0.502-0.675-3.39-4.26-8.091-4.26
					c-4.507,0-8.3,4.319-8.906,5.045l0.018,0.015l-0.092,0.114c-0.739,0.642-1.773,1.768-2.505,3.487L2.38,14.554l-0.083,0
					c-0.077,0-0.748,0.025-0.748,0.749c0,0.741,0.292,0.83,1.072,1.069l0.097,0.029l1.205,0.004
					c-0.021-0.147-0.031-0.289-0.031-0.429c0-1.788,1.455-3.243,3.243-3.243s3.243,1.455,3.243,3.243
					c0,0.146-0.011,0.297-0.034,0.455l9.519,0.021c-0.024-0.162-0.037-0.321-0.037-0.477c0-1.788,1.455-3.243,3.243-3.243
					s3.243,1.455,3.243,3.243C26.313,16.132,26.301,16.291,26.276,16.453z"/>
			</g>
		</g>
	</g>
	<g>
		<g>
			<rect x="4.896" y="9.231" fill="#777777" width="17.651" height="0.964"/>
			<path fill="#777777" d="M22.672,10.32H4.771V9.106h17.901V10.32z M5.021,10.07h17.401V9.356H5.021V10.07z"/>
		</g>
	</g>
	<g>
		<g>
			
				<rect x="12.535" y="5.065" transform="matrix(0.9992 0.0405 -0.0405 0.9992 0.3103 -0.5215)" fill="#777777" width="0.964" height="4.649"/>
			<path fill="#777777" d="M13.522,9.862L12.31,9.813l0.202-4.895l1.212,0.05L13.522,9.862z M12.569,9.574l0.713,0.029l0.181-4.396
				L12.75,5.178L12.569,9.574z"/>
		</g>
	</g>
</g>
</svg>
