<?xml version="1.0" encoding="utf-8"?>
<!-- Generator: Adobe Illustrator 15.0.0, SVG Export Plug-In . SVG Version: 6.00 Build 0)  -->
<!DOCTYPE svg PUBLIC "-//W3C//DTD SVG 1.1//EN" "http://www.w3.org/Graphics/SVG/1.1/DTD/svg11.dtd">
<svg version="1.1" id="Layer_1" xmlns="http://www.w3.org/2000/svg" xmlns:xlink="http://www.w3.org/1999/xlink" x="0px" y="0px"
	 width="30px" height="30px" viewBox="0 0 30 30" enable-background="new 0 0 30 30" xml:space="preserve">
<g>
	<path fill="#999999" d="M27.067,9.615c1.333,0,2.416-1.083,2.416-2.418c0-1.333-1.083-2.418-2.416-2.418
		c-1.334,0-2.417,1.085-2.417,2.418S25.733,9.615,27.067,9.615z M27.067,5.655c0.85,0,1.54,0.692,1.54,1.542s-0.69,1.541-1.54,1.541
		c-0.851,0-1.54-0.691-1.54-1.541S26.217,5.655,27.067,5.655z"/>
	<path fill="#999999" d="M9.766,16.617c0-0.246,0.2-0.446,0.446-0.446h8.841l3.669-4.13c0.939-1.058,2.563-1.155,3.622-0.214
		l0.253,0.225l0.58-0.657l-0.25-0.224c-0.688-0.61-1.571-0.92-2.489-0.862c-0.919,0.054-1.759,0.462-2.368,1.15l-3.408,3.836h-8.449
		c-0.73,0-1.323,0.593-1.323,1.323v1.732h0.876L9.766,16.617L9.766,16.617z"/>
	<path fill="#999999" d="M8.627,21.928h13.717l7.499-8.439c0.229-0.258,0.203-0.654-0.055-0.884l-1.142-1.014
		c-0.256-0.228-0.651-0.204-0.883,0.053l-0.32,0.362l-2.745,3.09c-0.162,0.181-0.146,0.458,0.035,0.618
		c0.085,0.075,0.188,0.111,0.292,0.111c0.12,0,0.239-0.051,0.326-0.147l2.747-3.09l0,0l0.154-0.174l0.769,0.681l-7.07,7.957H8.876
		v-1.025h7.595c0.24,0,0.438-0.197,0.438-0.438c0-0.243-0.196-0.439-0.438-0.439H8.627C8.281,19.148,8,19.43,8,19.775v1.525
		C8,21.646,8.281,21.928,8.627,21.928z"/>
	<path fill="#999999" d="M19.587,22.487c-0.242,0-0.438,0.196-0.438,0.438v0.946c0,0.397,0.322,0.72,0.721,0.72h1.358
		c0.397,0,0.722-0.322,0.722-0.72v-0.946c0-0.242-0.197-0.438-0.438-0.438c-0.243,0-0.438,0.196-0.438,0.438v0.79h-1.047v-0.79
		C20.025,22.684,19.828,22.487,19.587,22.487z"/>
	<path fill="#999999" d="M9.991,22.487c-0.243,0-0.438,0.196-0.438,0.438v0.946c0,0.397,0.323,0.72,0.72,0.72h1.359
		c0.397,0,0.72-0.322,0.72-0.72v-0.946c0-0.242-0.196-0.438-0.438-0.438c-0.241,0-0.438,0.196-0.438,0.438v0.79h-1.047v-0.79
		C10.428,22.684,10.233,22.487,9.991,22.487z"/>
	<path fill="#999999" d="M15.506,9.22h2.216c0.441,0.816,1.42,1.116,2.184,1.116V9.459c-0.604,0-1.296-0.252-1.479-0.814
		l-0.099-0.301L15.474,8.31l0.032-3.434l5.452,0.033l-0.032,3.436h-0.799V9.22h0.799c0.5,0,0.908-0.408,0.908-0.911v-3.4
		C21.834,4.407,21.426,4,20.926,4h-5.42c-0.501,0-0.908,0.407-0.908,0.909v3.402C14.598,8.812,15.005,9.22,15.506,9.22z"/>
</g>
</svg>
