<?xml version="1.0" encoding="utf-8"?>
<!-- Generator: Adobe Illustrator 15.0.0, SVG Export Plug-In . SVG Version: 6.00 Build 0)  -->
<!DOCTYPE svg PUBLIC "-//W3C//DTD SVG 1.1//EN" "http://www.w3.org/Graphics/SVG/1.1/DTD/svg11.dtd">
<svg version="1.1" id="Layer_1" xmlns="http://www.w3.org/2000/svg" xmlns:xlink="http://www.w3.org/1999/xlink" x="0px" y="0px"
	 width="30px" height="30px" viewBox="0 0 30 30" enable-background="new 0 0 30 30" xml:space="preserve">
<g>
	<path fill="#999999" d="M29.504,13.968l-0.316-1.906c-0.026-0.157-0.085-0.304-0.155-0.444V6.784c0-0.448-0.303-0.946-0.71-1.161
		c-2.878-1.499-6.316-1.498-9.197,0.002c-0.402,0.212-0.711,0.71-0.711,1.159v4.835c-0.068,0.139-0.123,0.285-0.15,0.442
		l-0.317,1.906c-0.302,0.266-0.498,0.65-0.498,1.082v6.516c0,0.665,0.65,1.207,1.45,1.207c0.752,0,1.484-0.572,1.667-1.301
		l0.017-0.059c0.074-0.3,0.422-0.571,0.729-0.571h4.827c0.307,0,0.657,0.271,0.731,0.571l0.014,0.056
		c0.183,0.731,0.917,1.304,1.669,1.304c0.799,0,1.447-0.542,1.447-1.207V15.05C30,14.618,29.806,14.233,29.504,13.968z
		 M19.217,12.22c0.049-0.293,0.352-0.549,0.648-0.549h7.722c0.294,0,0.6,0.256,0.646,0.549l0.229,1.381h-9.476L19.217,12.22z
		 M26.139,10.707h-4.827V9.258c0-0.267,0.217-0.483,0.483-0.483h3.861c0.266,0,0.482,0.216,0.482,0.483V10.707z M19.573,6.479
		c2.6-1.353,5.706-1.353,8.303-0.002c0.094,0.05,0.192,0.224,0.194,0.308v4.005c-0.156-0.051-0.317-0.083-0.483-0.083h-0.482V9.258
		c0-0.798-0.649-1.448-1.446-1.448h-3.861c-0.801,0-1.449,0.648-1.449,1.448v1.448h-0.48c-0.168,0-0.329,0.032-0.483,0.083V6.785
		C19.382,6.701,19.482,6.527,19.573,6.479z M29.035,21.565c0,0.083-0.188,0.241-0.482,0.241c-0.309,0-0.657-0.271-0.731-0.572
		l-0.016-0.056c-0.182-0.73-0.915-1.302-1.667-1.302h-4.827c-0.753,0-1.484,0.572-1.666,1.301l-0.017,0.061
		c-0.075,0.297-0.424,0.57-0.73,0.57c-0.296,0-0.484-0.159-0.484-0.242v-6.516c0-0.267,0.217-0.482,0.484-0.482h9.653
		c0.266,0,0.481,0.216,0.481,0.482L29.035,21.565L29.035,21.565z"/>
</g>
</svg>
