<?xml version="1.0" encoding="utf-8"?>
<!-- Generator: Adobe Illustrator 15.0.0, SVG Export Plug-In . SVG Version: 6.00 Build 0)  -->
<!DOCTYPE svg PUBLIC "-//W3C//DTD SVG 1.1//EN" "http://www.w3.org/Graphics/SVG/1.1/DTD/svg11.dtd">
<svg version="1.1" id="Layer_1" xmlns="http://www.w3.org/2000/svg" xmlns:xlink="http://www.w3.org/1999/xlink" x="0px" y="0px"
	 width="50px" height="50px" viewBox="0 0 50 50" enable-background="new 0 0 50 50" xml:space="preserve">
<g>
	<path fill="#424242" d="M39.669,15.713c-0.321-0.468-0.964-0.587-1.433-0.264c-0.469,0.322-0.586,0.964-0.264,1.432
		c4.271,6.204,3.535,14.616-1.746,20.003c-2.953,3.011-6.904,4.693-11.124,4.734c-4.221,0.039-8.202-1.563-11.214-4.517
		c-3.012-2.955-4.694-6.903-4.735-11.123c-0.042-4.219,1.563-8.202,4.517-11.213c5.288-5.395,13.69-6.289,19.979-2.128
		c0.476,0.314,1.115,0.184,1.428-0.291c0.314-0.474,0.184-1.113-0.29-1.427c-7.11-4.704-16.61-3.694-22.588,2.403
		c-3.34,3.406-5.153,7.907-5.107,12.677c0.047,4.769,1.949,9.233,5.354,12.574c3.363,3.296,7.794,5.106,12.497,5.106
		c0.06,0,0.12-0.002,0.18,0c4.769-0.048,9.233-1.949,12.574-5.354C43.668,32.236,44.497,22.727,39.669,15.713z"/>
	<path fill="#424242" d="M8.612,9.866c0.397-0.407,0.39-1.059-0.015-1.457C8.19,8.01,7.538,8.017,7.14,8.423
		c-9.654,9.845-9.497,25.709,0.347,35.362c0.2,0.197,0.461,0.295,0.721,0.295c0.267,0,0.534-0.104,0.736-0.309
		c0.398-0.405,0.391-1.059-0.014-1.457C-0.104,33.457-0.246,18.9,8.612,9.866z"/>
	<path fill="#424242" d="M42.501,8.076c-0.405-0.398-1.06-0.392-1.456,0.014c-0.398,0.407-0.393,1.059,0.014,1.457
		c4.377,4.291,6.82,10.03,6.881,16.158C48,31.834,45.67,37.62,41.378,41.996c-0.399,0.406-0.392,1.059,0.015,1.457
		c0.199,0.195,0.461,0.295,0.721,0.295c0.267,0,0.533-0.104,0.734-0.311c4.676-4.769,7.215-11.072,7.15-17.752
		S47.271,12.753,42.501,8.076z"/>
	<path fill="#424242" d="M12.386,30.464l1.935-0.003l0.746-2.189l3.035-0.004l0.795,2.188l2.033-0.003l-3.573-9.951l-1.427,0.002
		L12.386,30.464z M16.57,22.96h0.07l0.299,1.552l0.738,2.202l-2.118,0.003l0.717-2.19L16.57,22.96z"/>
	<path fill="#424242" d="M27.479,24.8c0.225-0.156,0.406-0.334,0.547-0.537c0.141-0.203,0.24-0.426,0.302-0.671
		c0.062-0.245,0.09-0.489,0.09-0.734c0-0.49-0.104-0.895-0.312-1.213c-0.209-0.321-0.483-0.569-0.828-0.748
		c-0.344-0.179-0.734-0.304-1.172-0.373c-0.44-0.07-0.889-0.105-1.351-0.104c-0.273,0-0.548,0.005-0.826,0.015
		c-0.278,0.01-0.549,0.024-0.812,0.043c-0.263,0.02-0.511,0.043-0.741,0.072c-0.231,0.028-0.435,0.057-0.614,0.085l0.015,9.744
		c0.245,0.057,0.516,0.1,0.812,0.126c0.296,0.027,0.588,0.048,0.875,0.062c0.288,0.015,0.557,0.021,0.806,0.021s0.454,0,0.615,0
		c0.489-0.001,0.965-0.06,1.426-0.172c0.461-0.114,0.871-0.288,1.234-0.524c0.362-0.234,0.65-0.539,0.867-0.91
		c0.216-0.373,0.324-0.813,0.322-1.322c0-0.387-0.055-0.719-0.164-1.002c-0.106-0.282-0.254-0.522-0.442-0.719
		c-0.187-0.198-0.407-0.354-0.661-0.466c-0.253-0.114-0.52-0.192-0.801-0.239v-0.085C26.982,25.071,27.254,24.956,27.479,24.8z
		 M24.137,22.06c0.207-0.01,0.434-0.015,0.679-0.015c0.216,0,0.424,0.018,0.621,0.055c0.198,0.037,0.374,0.102,0.53,0.195
		c0.155,0.093,0.28,0.218,0.374,0.377c0.095,0.159,0.142,0.358,0.144,0.601c0,0.363-0.129,0.656-0.389,0.88
		c-0.259,0.224-0.566,0.392-0.924,0.504c-0.114,0.019-0.256,0.033-0.431,0.042c-0.175,0.009-0.327,0.015-0.459,0.015l-0.62,0.002
		l-0.004-2.613C23.77,22.083,23.931,22.07,24.137,22.06z M26.7,27.549c0.001,0.242-0.05,0.452-0.151,0.631
		c-0.101,0.176-0.234,0.322-0.4,0.439c-0.168,0.117-0.358,0.203-0.576,0.26c-0.217,0.057-0.442,0.084-0.672,0.084
		c-0.091,0-0.202-0.002-0.327-0.006s-0.245-0.009-0.361-0.014c-0.115-0.004-0.223-0.012-0.325-0.021
		c-0.102-0.009-0.176-0.021-0.223-0.042l-0.003-2.696l1.012-0.002c0.241,0,0.481,0.014,0.721,0.041
		c0.241,0.027,0.458,0.09,0.652,0.188c0.195,0.099,0.351,0.234,0.472,0.412C26.639,26.999,26.699,27.241,26.7,27.549z"/>
	<path fill="#424242" d="M33.203,22.031c0.48-0.001,0.928,0.053,1.342,0.16c0.414,0.108,0.725,0.228,0.934,0.359l0.604-1.625
		c-0.33-0.188-0.749-0.331-1.259-0.429c-0.508-0.098-1.049-0.147-1.623-0.146c-0.499,0-0.951,0.058-1.355,0.171
		s-0.755,0.288-1.051,0.524c-0.297,0.236-0.525,0.53-0.686,0.884c-0.159,0.354-0.238,0.77-0.237,1.25
		c0.001,0.556,0.112,1.012,0.334,1.37c0.222,0.357,0.5,0.656,0.835,0.895c0.334,0.24,0.697,0.441,1.088,0.606
		s0.754,0.324,1.088,0.479c0.334,0.154,0.613,0.326,0.833,0.514c0.224,0.188,0.333,0.434,0.334,0.734
		c0.001,0.396-0.153,0.689-0.458,0.883c-0.306,0.193-0.746,0.291-1.32,0.293c-0.244,0-0.483-0.02-0.713-0.057
		c-0.23-0.037-0.449-0.084-0.656-0.141c-0.207-0.056-0.395-0.119-0.56-0.183c-0.163-0.066-0.298-0.128-0.401-0.185l-0.619,1.654
		c0.254,0.131,0.65,0.262,1.187,0.393c0.537,0.131,1.158,0.195,1.864,0.195c0.538-0.001,1.029-0.062,1.477-0.186
		s0.828-0.312,1.143-0.566c0.314-0.256,0.559-0.572,0.732-0.954s0.262-0.837,0.26-1.364c0-0.525-0.112-0.965-0.334-1.318
		c-0.221-0.354-0.5-0.649-0.834-0.889c-0.334-0.239-0.697-0.444-1.088-0.613c-0.392-0.169-0.754-0.332-1.088-0.492
		c-0.336-0.16-0.613-0.333-0.834-0.521c-0.223-0.188-0.334-0.423-0.334-0.706c0-0.301,0.119-0.541,0.359-0.72
		C32.404,22.121,32.752,22.031,33.203,22.031z"/>
</g>
</svg>
