<?xml version="1.0" encoding="utf-8"?>
<!-- Generator: Adobe Illustrator 15.0.0, SVG Export Plug-In . SVG Version: 6.00 Build 0)  -->
<!DOCTYPE svg PUBLIC "-//W3C//DTD SVG 1.1//EN" "http://www.w3.org/Graphics/SVG/1.1/DTD/svg11.dtd">
<svg version="1.1" id="Layer_1" xmlns="http://www.w3.org/2000/svg" xmlns:xlink="http://www.w3.org/1999/xlink" x="0px" y="0px"
	 width="50px" height="50px" viewBox="0 0 50 50" enable-background="new 0 0 50 50" xml:space="preserve">
<path fill="#424242" d="M50,27.008c0-3.939-2.494-7.853-5.739-9.117c-0.396-0.865-1.169-1.517-2.108-1.751
	c-0.131-3.307-1.201-6.441-3.127-9.13c-0.015-0.021-0.026-0.043-0.043-0.063c-0.07-0.097-0.133-0.199-0.205-0.295
	c-3.227-4.275-8.145-6.726-13.494-6.726c-5.678,0-10.699,2.824-13.764,7.132c-0.037,0.034-0.061,0.08-0.091,0.122
	c-1.773,2.54-2.853,5.586-3.001,8.875c-1.196,0.071-2.213,0.8-2.688,1.837C2.494,19.157,0,23.069,0,27.008
	c0,3.76,2.28,8.657,5.609,10.112c0.17,0.88,0.824,1.912,3.001,1.912h0.396c1.745,0,3.164-1.421,3.164-3.164V19.2
	c0-1.398-0.918-2.574-2.179-2.991c0.111-2.793,0.966-5.393,2.382-7.608c0.941,0.355,2.697,0.956,3.828,0.956
	c0.738,0,1.654-0.516,2.924-1.229c1.702-0.959,4.032-2.271,6.157-2.271c1.894,0,3.611,0.846,5.129,1.591
	c1.337,0.657,2.595,1.278,3.812,1.229c1.629-0.067,3.063-0.352,3.815-0.525c1.539,2.307,2.404,4.947,2.536,7.728
	c-1.546,0.207-2.746,1.521-2.746,3.122v16.668c0,1.743,1.42,3.164,3.164,3.164h0.396c2.119,0,2.827-0.945,3.003-1.913
	c0.319-0.14,0.628-0.308,0.926-0.506c0.453,1.383,0.006,3.297-1.247,4.973c-1.108,1.483-5.431,5.996-14.844,2.936
	c-0.336-1.961-2.253-3.475-4.583-3.475c-2.563,0-4.65,1.829-4.65,4.077s2.087,4.077,4.65,4.077c2.164,0,3.971-1.308,4.489-3.064
	c2.189,0.67,4.204,0.984,6.016,0.984c4.856,0,8.315-2.098,10.184-4.594c1.747-2.337,2.2-5.041,1.248-6.979
	C48.678,33.386,50,29.868,50,27.008z M24.646,47.627c-1.696,0-3.076-1.123-3.076-2.503s1.38-2.503,3.076-2.503
	c1.697,0,3.079,1.123,3.079,2.503S26.343,47.627,24.646,47.627z M10.596,19.2v16.668c0,0.877-0.713,1.59-1.59,1.59H8.61
	c-1.486,0-1.486-0.496-1.486-0.894c0-0.011-0.005-0.02-0.006-0.029c-0.002-0.063-0.02-0.121-0.037-0.181
	c-0.011-0.04-0.017-0.081-0.034-0.118c-0.023-0.05-0.058-0.09-0.09-0.134c-0.028-0.038-0.052-0.077-0.086-0.109
	s-0.077-0.053-0.117-0.079c-0.047-0.03-0.092-0.062-0.146-0.082c-0.011-0.004-0.018-0.012-0.028-0.016
	c-2.819-0.912-5.006-5.484-5.006-8.809c0-2.905,1.657-5.875,3.873-7.224v4.802c0,0.434,0.353,0.787,0.787,0.787
	s0.787-0.352,0.787-0.787V19.2c0-0.877,0.713-1.59,1.59-1.59h0.395C9.883,17.61,10.596,18.323,10.596,19.2z M34.159,7.302
	c-0.821,0.034-1.851-0.477-3.054-1.068c-1.67-0.822-3.563-1.753-5.823-1.753c-2.537,0-5.076,1.43-6.93,2.474
	c-0.813,0.458-1.824,1.027-2.15,1.027c-0.713,0-1.949-0.38-2.879-0.712c2.81-3.511,7.124-5.77,11.96-5.77
	c4.57,0,8.776,1.993,11.696,5.464C36.244,7.105,35.238,7.257,34.159,7.302z M41.391,37.458h-0.396c-0.877,0-1.59-0.713-1.59-1.59
	V19.2c0-0.877,0.713-1.59,1.59-1.59h0.396c0.875,0,1.59,0.713,1.59,1.59v5.695c0,0.434,0.352,0.787,0.785,0.787
	c0.435,0,0.787-0.352,0.787-0.787v-5.111c2.217,1.348,3.873,4.318,3.873,7.224c0,3.326-2.188,7.896-5.006,8.809
	c-0.011,0.003-0.018,0.012-0.027,0.016c-0.057,0.021-0.104,0.054-0.154,0.086c-0.037,0.024-0.076,0.044-0.107,0.073
	c-0.039,0.035-0.065,0.079-0.097,0.122c-0.028,0.04-0.06,0.075-0.08,0.119c-0.021,0.043-0.027,0.09-0.039,0.136
	c-0.015,0.054-0.031,0.106-0.033,0.163c-0.001,0.012-0.007,0.021-0.007,0.033C42.875,36.963,42.875,37.458,41.391,37.458z"/>
</svg>
