<?xml version="1.0" encoding="utf-8"?>
<!-- Generator: Adobe Illustrator 15.0.0, SVG Export Plug-In . SVG Version: 6.00 Build 0)  -->
<!DOCTYPE svg PUBLIC "-//W3C//DTD SVG 1.1//EN" "http://www.w3.org/Graphics/SVG/1.1/DTD/svg11.dtd">
<svg version="1.1" id="Layer_1" xmlns="http://www.w3.org/2000/svg" xmlns:xlink="http://www.w3.org/1999/xlink" x="0px" y="0px"
	 width="50px" height="50px" viewBox="0 0 50 50" enable-background="new 0 0 50 50" xml:space="preserve">
<g>
	<path fill="#424242" d="M21.022,9.987c-4.308,0-9.543,1.74-13.664,4.541C2.619,17.748,0.006,21.791,0,25.91
		c-0.006,4.123,2.6,8.176,7.336,11.41c4.12,2.814,9.355,4.565,13.663,4.572c0.001,0,0.007,0,0.007,0
		c4.975,0,7.208-8.021,7.214-15.973C28.226,17.995,26.01,9.995,21.022,9.987z M21.006,39.88v1.006l-0.003-1.006
		c-3.926-0.006-8.728-1.623-12.531-4.222c-4.11-2.806-6.465-6.358-6.459-9.746C2.022,18.232,13.523,12,21.043,12
		c2.95,0.004,5.17,5.988,5.164,13.919C26.201,33.878,23.966,39.88,21.006,39.88z"/>
	<path fill="#424242" d="M48.981,23.291h0.002c0.555,0,1.005-0.45,1.006-1.005c0-0.557-0.449-1.007-1.005-1.008l-8.853-0.013
		l0.411-0.524c1.066-1.363,1.495-3.136,1.345-4.855l7.104,0.01h0.002c0.555,0,1.005-0.449,1.006-1.005s-0.449-1.007-1.005-1.008
		l-7.56-0.011c-0.299-0.762-0.729-1.471-1.293-2.072l-3.49-3.72c-0.38-0.404-1.016-0.426-1.422-0.046
		c-0.405,0.381-0.426,1.017-0.046,1.422l3.49,3.722c0.198,0.211,0.371,0.444,0.522,0.691l-7.591-0.011c-0.001,0-0.002,0-0.002,0
		c-0.555,0-1.005,0.448-1.006,1.004s0.449,1.007,1.004,1.008l8.265,0.012c0.155,1.28-0.13,2.622-0.909,3.618l-0.755,0.964
		c-0.195,0.25-0.353,0.523-0.507,0.797l-6.102-0.009h-0.001c-0.556,0-1.006,0.449-1.007,1.004c0,0.556,0.449,1.007,1.005,1.008
		l5.38,0.008c-0.359,1.861,0.024,3.852,1.132,5.383l-6.52-0.01h-0.001c-0.556,0-1.006,0.449-1.006,1.004
		c-0.001,0.556,0.449,1.007,1.004,1.008l7.927,0.012c0.688,1.6,0.562,3.623-0.458,5.021l-0.262,0.358l-7.214-0.011
		c-0.001,0-0.001,0-0.002,0c-0.555,0-1.005,0.45-1.006,1.005c-0.001,0.556,0.449,1.007,1.004,1.008l5.752,0.009l-2.265,3.105
		c-0.327,0.449-0.229,1.078,0.221,1.405c0.179,0.131,0.386,0.193,0.592,0.193c0.311,0,0.617-0.143,0.813-0.413l3.127-4.288
		l9.15,0.014c0.001,0,0.001,0,0.002,0c0.555,0,1.005-0.449,1.006-1.004c0.001-0.556-0.449-1.007-1.005-1.008l-7.802-0.012
		c0.846-1.637,0.984-3.611,0.462-5.381l7.348,0.011h0.001c0.556,0,1.006-0.449,1.007-1.004c0-0.557-0.449-1.007-1.005-1.008
		L40.66,28.66c-0.179-0.252-0.359-0.504-0.575-0.727c-1.145-1.184-1.512-3.048-1.069-4.658L48.981,23.291z"/>
</g>
</svg>
