<?xml version="1.0" encoding="utf-8"?>
<!-- Generator: Adobe Illustrator 15.0.0, SVG Export Plug-In . SVG Version: 6.00 Build 0)  -->
<!DOCTYPE svg PUBLIC "-//W3C//DTD SVG 1.1//EN" "http://www.w3.org/Graphics/SVG/1.1/DTD/svg11.dtd">
<svg version="1.1" id="Layer_1" xmlns="http://www.w3.org/2000/svg" xmlns:xlink="http://www.w3.org/1999/xlink" x="0px" y="0px"
	 width="50px" height="50px" viewBox="0 0 50 50" enable-background="new 0 0 50 50" xml:space="preserve">
<g>
	<path fill="#424242" d="M49.504,26.545c-0.452-0.234-1.01-0.061-1.245,0.393l-2.36,4.525v-6.514C45.898,12.295,35.604,2,22.949,2
		S0,12.295,0,24.949s10.295,22.949,22.949,22.949c6.736,0,13.107-2.943,17.478-8.076c0.331-0.389,0.284-0.971-0.104-1.303
		c-0.39-0.33-0.972-0.283-1.302,0.104c-4.021,4.722-9.879,7.429-16.073,7.429c-11.636,0-21.104-9.467-21.104-21.104
		c0-11.636,9.468-21.103,21.104-21.103c11.637,0,21.104,9.467,21.104,21.103v6.509l-2.358-4.521
		c-0.235-0.453-0.793-0.629-1.245-0.393c-0.452,0.234-0.628,0.793-0.392,1.245l4.102,7.862c0.158,0.305,0.474,0.496,0.818,0.496
		c0.342,0,0.658-0.191,0.817-0.496l4.103-7.862C50.131,27.338,49.956,26.779,49.504,26.545z"/>
	<path fill="#424242" d="M20.335,21.376l-9.412,11.62c-0.538,0.663-0.682,1.388-0.394,1.99c0.287,0.602,0.941,0.947,1.795,0.947
		h9.891c0.51,0,0.924-0.412,0.924-0.922s-0.413-0.924-0.923-0.924h-9.801l9.355-11.551c0.767-0.946,1.368-2.642,1.368-3.861V15.36
		c0-1.527-1.243-2.769-2.77-2.769H13.08c-1.514,0-2.778,1.231-2.816,2.745l-0.122,4.854c-0.014,0.509,0.389,0.932,0.899,0.945
		c0.522,0.015,0.932-0.389,0.945-0.898l0.123-4.854c0.013-0.512,0.457-0.946,0.971-0.946h7.288c0.509,0,0.923,0.414,0.923,0.923
		v3.316C21.291,19.485,20.845,20.747,20.335,21.376z"/>
	<path fill="#424242" d="M32.324,35.934c0.51,0,0.923-0.412,0.921-0.923v-4.794h2.173c0.51,0,0.923-0.412,0.923-0.923
		c0-0.51-0.413-0.924-0.923-0.924h-2.173V13.514c0-0.41-0.271-0.771-0.664-0.886c-0.394-0.114-0.815,0.043-1.036,0.388
		L21.436,28.797c-0.182,0.284-0.194,0.645-0.033,0.941c0.163,0.294,0.473,0.479,0.811,0.479H31.4v4.794
		C31.4,35.521,31.812,35.934,32.324,35.934z M23.902,28.37L31.4,16.665V28.37H23.902z"/>
</g>
</svg>
