<?xml version="1.0" encoding="utf-8"?>
<!-- Generator: Adobe Illustrator 15.0.0, SVG Export Plug-In . SVG Version: 6.00 Build 0)  -->
<!DOCTYPE svg PUBLIC "-//W3C//DTD SVG 1.1//EN" "http://www.w3.org/Graphics/SVG/1.1/DTD/svg11.dtd">
<svg version="1.1" id="Layer_1" xmlns="http://www.w3.org/2000/svg" xmlns:xlink="http://www.w3.org/1999/xlink" x="0px" y="0px"
	 width="50px" height="50px" viewBox="0 0 50 50" enable-background="new 0 0 50 50" xml:space="preserve">
<path fill="#424242" d="M49.428,23.103l-9.963-3.771l-5.816-6.896c-0.168-0.199-0.416-0.314-0.678-0.314l-7.41,0.011
	c-0.004,0-0.006,0.002-0.01,0.002l-9.201,0.013c-2.723,0.004-4.076,2.068-4.326,2.493l-2.479,3.285l-6.138-3.075
	c-0.253-0.127-0.552-0.125-0.803,0.005l-2.125,1.096c-0.435,0.224-0.606,0.758-0.381,1.194c0.224,0.435,0.757,0.606,1.193,0.38
	l1.725-0.889L8.134,19.2l-3.23,2.433c-0.03,0.022-0.045,0.054-0.071,0.079c-0.048,0.046-0.093,0.09-0.13,0.147
	c-0.033,0.05-0.053,0.104-0.075,0.16c-0.015,0.038-0.042,0.068-0.051,0.108l-1.285,5.188c-0.017,0.069-0.026,0.142-0.026,0.215
	c0.004,1.771,1.45,5.158,3.709,5.158c0.002,0,0.002,0,0.005,0l1.979-0.004c0.088,2.743,2.335,4.949,5.098,4.949
	c0.003,0,0.005,0,0.009,0.001c1.365-0.002,2.648-0.534,3.613-1.502c0.928-0.931,1.44-2.157,1.478-3.464l11.658-0.018
	c0.488,0,0.885-0.397,0.885-0.887c-0.002-0.488-0.399-0.885-0.887-0.885h-0.002l-12.595,0.02c-0.489,0-0.885,0.397-0.885,0.887
	c0,0.159,0.054,0.301,0.128,0.43c-0.035,0.096-0.061,0.195-0.061,0.303c0.002,0.892-0.345,1.732-0.975,2.363s-1.468,0.98-2.36,0.98
	c-0.002,0-0.003,0-0.005,0c-1.84,0-3.339-1.495-3.342-3.336c0-0.131-0.033-0.253-0.084-0.364c0.052-0.112,0.084-0.234,0.084-0.366
	c-0.001-0.488-0.398-0.885-0.887-0.885c0,0,0,0-0.001,0l-2.85,0.004c0,0,0,0-0.001,0c-0.776,0-1.88-1.9-1.935-3.288l1.18-4.767
	l4.121-3.103c0.02-0.015,0.034-0.036,0.052-0.052c0.032-0.028,0.062-0.056,0.089-0.089c0.01-0.012,0.023-0.021,0.033-0.033
	l2.957-3.919c0.025-0.034,0.051-0.075,0.072-0.112c0.037-0.067,0.918-1.629,2.809-1.632l9.209-0.013v-0.001l0,0l6.998-0.01
	l5.699,6.756c0.098,0.115,0.223,0.203,0.363,0.257l9.572,3.623c-0.193,2.011-1.213,5.828-1.957,6.326l-3.191,0.004
	c-0.488,0.002-0.885,0.398-0.885,0.888c0.001,0.132,0.033,0.254,0.085,0.366c-0.051,0.112-0.083,0.234-0.083,0.365
	c0.002,1.843-1.494,3.344-3.338,3.346c0,0-0.002,0-0.004,0c-0.891,0-1.729-0.346-2.359-0.975c-0.63-0.631-0.98-1.469-0.98-2.36
	c-0.002-0.489-0.398-0.886-0.887-0.886c-0.49,0-0.887,0.398-0.885,0.888c0.002,1.364,0.535,2.647,1.502,3.612
	c0.964,0.963,2.246,1.492,3.609,1.492c0.002,0,0.004,0,0.009,0c2.765-0.004,5.009-2.219,5.089-4.965l2.391-0.003
	c1.153-0.002,2.057-1.261,2.836-3.964c0.537-1.857,0.855-3.866,0.854-4.735C50,23.562,49.771,23.233,49.428,23.103z"/>
</svg>
