<?xml version="1.0" encoding="utf-8"?>
<!-- Generator: Adobe Illustrator 15.0.0, SVG Export Plug-In . SVG Version: 6.00 Build 0)  -->
<!DOCTYPE svg PUBLIC "-//W3C//DTD SVG 1.1//EN" "http://www.w3.org/Graphics/SVG/1.1/DTD/svg11.dtd">
<svg version="1.1" id="Layer_1" xmlns="http://www.w3.org/2000/svg" xmlns:xlink="http://www.w3.org/1999/xlink" x="0px" y="0px"
	 width="50px" height="50px" viewBox="0 0 50 50" enable-background="new 0 0 50 50" xml:space="preserve">
<path fill="#424242" d="M49.689,1.907c-0.1-0.096-2.461-2.367-5.553-1.822c-3.365,0.591-6,5.631-8.059,15.402
	c-1.113,5.286-1.734,10.537-1.965,12.734c-1.157-0.142-3.203-0.366-5.878-0.563c-0.535-1.831-0.922-4.128-1.003-7.333l0.771,1.402
	c0.274,0.502,0.906,0.684,1.407,0.408c0.501-0.275,0.683-0.905,0.408-1.407l-2.68-4.87c-0.182-0.332-0.531-0.537-0.908-0.537
	s-0.726,0.205-0.907,0.537l-2.679,4.87c-0.276,0.502-0.093,1.132,0.409,1.408c0.158,0.086,0.329,0.128,0.498,0.128
	c0.365,0,0.72-0.194,0.91-0.537l0.705-1.282c0.083,2.974,0.42,5.237,0.887,7.068c-1.921-0.113-4.078-0.203-6.409-0.24
	c-0.478-1.765-0.816-3.966-0.893-6.948l0.771,1.402c0.188,0.343,0.543,0.537,0.908,0.537c0.169,0,0.341-0.042,0.5-0.129
	c0.502-0.275,0.685-0.905,0.409-1.407l-2.68-4.87c-0.181-0.332-0.53-0.537-0.907-0.537c-0.378,0-0.725,0.205-0.908,0.537l-2.68,4.87
	c-0.276,0.502-0.093,1.132,0.409,1.407c0.501,0.277,1.132,0.094,1.407-0.408l0.705-1.283c0.08,2.833,0.387,5.026,0.82,6.81
	c-0.063,0-0.124-0.001-0.187-0.001c-2.358,0-4.371,0.043-6.125,0.135c-0.494-1.783-0.845-4.015-0.923-7.06l0.77,1.399
	c0.188,0.343,0.543,0.537,0.908,0.537c0.169,0,0.341-0.042,0.501-0.129c0.501-0.275,0.683-0.905,0.408-1.407l-2.679-4.87
	c-0.182-0.332-0.53-0.537-0.908-0.537s-0.725,0.205-0.908,0.537l-2.679,4.87c-0.276,0.502-0.093,1.132,0.408,1.407
	c0.502,0.277,1.132,0.094,1.407-0.408l0.706-1.284c0.083,2.984,0.421,5.252,0.891,7.087c-4.809,0.432-7.111,1.42-8.541,3.314
	c-2.103,2.787,2.364,10.771,3.783,13.152c0.187,0.312,0.525,0.506,0.89,0.506h6.203c-0.446,1.043-0.891,1.931-1.199,2.484
	c-0.279,0.5-0.098,1.131,0.401,1.41c0.159,0.088,0.333,0.131,0.503,0.131c0.363,0,0.717-0.193,0.907-0.533
	c0.174-0.312,0.926-1.697,1.642-3.492h6.227c-0.446,1.043-0.892,1.931-1.2,2.484c-0.278,0.5-0.098,1.131,0.402,1.41
	c0.16,0.088,0.332,0.131,0.503,0.131c0.363,0,0.716-0.193,0.906-0.533c0.174-0.312,0.926-1.697,1.642-3.492h6.228
	c-0.445,1.043-0.892,1.931-1.2,2.484c-0.277,0.5-0.098,1.131,0.402,1.41c0.159,0.088,0.332,0.131,0.504,0.131
	c0.362,0,0.715-0.193,0.906-0.533c0.406-0.729,3.939-7.246,2.868-11.297c-0.483-1.826-1.174-3.25-1.841-4.627
	c-0.354-0.729-0.709-1.467-1.043-2.275c3.63,0.291,5.858,0.612,5.898,0.618c0.28,0.041,0.568-0.035,0.793-0.211
	c0.225-0.179,0.365-0.44,0.391-0.724c0.895-10.16,3.973-26.569,8.424-27.353c1.421-0.251,2.682,0.463,3.314,0.918L38.747,42.43
	h-3.812c-0.572,0-1.037,0.463-1.037,1.035s0.465,1.037,1.037,1.037h4.637c0.484,0,0.902-0.334,1.012-0.804L49.975,2.88
	C50.057,2.528,49.948,2.159,49.689,1.907z M5.82,42.43c-2.445-4.229-4.433-9.25-3.613-10.337c1.083-1.435,3.148-2.202,7.504-2.543
	c0.468,1.303,0.991,2.386,1.493,3.423c0.652,1.348,1.27,2.62,1.702,4.254c0.361,1.365-0.053,3.341-0.681,5.203H5.82z M14.411,42.43
	c0.59-1.942,0.943-4.049,0.498-5.732c-0.483-1.826-1.173-3.25-1.841-4.629c-0.406-0.838-0.815-1.687-1.191-2.644
	c1.568-0.067,3.359-0.1,5.44-0.1c0.271,0,0.532,0.004,0.799,0.005c0.486,1.4,1.038,2.55,1.568,3.643
	c0.654,1.35,1.271,2.623,1.703,4.254c0.361,1.365-0.053,3.341-0.681,5.203H14.411z M28.166,32.973
	c0.652,1.35,1.27,2.623,1.702,4.254c0.361,1.365-0.052,3.341-0.681,5.203h-6.296c0.59-1.942,0.943-4.049,0.498-5.732
	c-0.483-1.826-1.173-3.25-1.84-4.627c-0.415-0.857-0.833-1.727-1.217-2.711c2.337,0.05,4.481,0.149,6.368,0.271
	C27.161,30.898,27.674,31.957,28.166,32.973z"/>
</svg>
